<?xml version="1.0" encoding="UTF-8" standalone="no"?>
<!DOCTYPE svg PUBLIC "-//W3C//DTD SVG 1.1//EN" "http://www.w3.org/Graphics/SVG/1.1/DTD/svg11.dtd">
<svg width="100%" height="100%" viewBox="0 0 590 101" version="1.1" xmlns="http://www.w3.org/2000/svg" xmlns:xlink="http://www.w3.org/1999/xlink" xml:space="preserve" style="fill-rule:evenodd;clip-rule:evenodd;stroke-linejoin:round;stroke-miterlimit:1.41421;">
    <g transform="matrix(1,0,0,1,-3,-2)">
        <g id="Stars_x2-5" transform="matrix(3.08234,0,0,3.08234,-6084.06,-3587.12)">
            <g id="Star-Icon-Inactive" transform="matrix(2.16938,0,0,2.16938,1408.92,-3358.62)">
                <path d="M340.583,2085.29C340.646,2085.11 340.807,2085 340.998,2085C341.189,2085 341.35,2085.11 341.413,2085.29L343.098,2089.98C343.16,2090.15 343.315,2090.26 343.501,2090.27L348.563,2090.4C348.753,2090.4 348.911,2090.52 348.97,2090.69C349.029,2090.87 348.971,2091.05 348.821,2091.17L344.796,2094.2C344.649,2094.31 344.591,2094.49 344.643,2094.66L346.085,2099.45C346.139,2099.62 346.075,2099.81 345.921,2099.91C345.766,2100.02 345.569,2100.03 345.412,2099.92L341.249,2097.1C341.095,2096.99 340.901,2096.99 340.747,2097.1L336.583,2099.92C336.427,2100.03 336.23,2100.02 336.075,2099.91C335.921,2099.81 335.857,2099.62 335.911,2099.45L337.353,2094.66C337.405,2094.49 337.347,2094.31 337.2,2094.2L333.175,2091.17C333.025,2091.05 332.967,2090.87 333.026,2090.69C333.085,2090.52 333.242,2090.4 333.433,2090.4L338.494,2090.27C338.681,2090.26 338.836,2090.15 338.898,2089.98L340.583,2085.29Z" style="fill:white;"/>
            </g>
            <g id="Star-Icon-Inactive1" transform="matrix(2.16938,0,0,2.16938,1408.92,-3358.62)">
                <path d="M322.583,2085.29C322.646,2085.11 322.807,2085 322.998,2085C323.189,2085 323.35,2085.11 323.413,2085.29L325.098,2089.98C325.16,2090.15 325.315,2090.26 325.501,2090.27L330.563,2090.4C330.753,2090.4 330.911,2090.52 330.97,2090.69C331.029,2090.87 330.971,2091.05 330.821,2091.17L326.796,2094.2C326.649,2094.31 326.591,2094.49 326.643,2094.66L328.085,2099.45C328.139,2099.62 328.075,2099.81 327.92,2099.91C327.766,2100.02 327.569,2100.03 327.412,2099.92L323.249,2097.1C323.095,2096.99 322.901,2096.99 322.747,2097.1L318.583,2099.92C318.427,2100.03 318.23,2100.02 318.075,2099.91C317.921,2099.81 317.857,2099.62 317.911,2099.45L319.353,2094.66C319.405,2094.49 319.347,2094.31 319.2,2094.2L315.175,2091.17C315.025,2091.05 314.967,2090.87 315.026,2090.69C315.085,2090.52 315.242,2090.4 315.433,2090.4L320.494,2090.27C320.681,2090.26 320.836,2090.15 320.898,2089.98L322.583,2085.29Z" style="fill:white;"/>
            </g>
            <g id="Star-Icon" transform="matrix(2.16938,0,0,2.16938,1408.92,-3358.62)">
                <path d="M304.583,2085.29C304.646,2085.11 304.807,2085 304.998,2085C305.189,2085 305.35,2085.11 305.413,2085.29L307.098,2089.98C307.16,2090.15 307.315,2090.26 307.501,2090.27L312.563,2090.4C312.753,2090.4 312.911,2090.52 312.97,2090.69C313.029,2090.87 312.971,2091.05 312.821,2091.17L308.796,2094.2C308.649,2094.31 308.591,2094.49 308.643,2094.66L310.085,2099.45C310.139,2099.62 310.075,2099.81 309.921,2099.91C309.766,2100.02 309.569,2100.03 309.412,2099.92L305.249,2097.1C305.095,2096.99 304.901,2096.99 304.747,2097.1L300.583,2099.92C300.427,2100.03 300.23,2100.02 300.075,2099.91C299.921,2099.81 299.857,2099.62 299.911,2099.45L301.353,2094.66C301.405,2094.49 301.347,2094.31 301.2,2094.2L297.175,2091.17C297.025,2091.05 296.967,2090.87 297.026,2090.69C297.085,2090.52 297.242,2090.4 297.433,2090.4L302.494,2090.27C302.681,2090.26 302.836,2090.15 302.898,2089.98L304.583,2085.29Z" style="fill:rgb(255,182,0);"/>
                <clipPath id="_clip1">
                    <path d="M304.583,2085.29C304.646,2085.11 304.807,2085 304.998,2085C305.189,2085 305.35,2085.11 305.413,2085.29L307.098,2089.98C307.16,2090.15 307.315,2090.26 307.501,2090.27L312.563,2090.4C312.753,2090.4 312.911,2090.52 312.97,2090.69C313.029,2090.87 312.971,2091.05 312.821,2091.17L308.796,2094.2C308.649,2094.31 308.591,2094.49 308.643,2094.66L310.085,2099.45C310.139,2099.62 310.075,2099.81 309.921,2099.91C309.766,2100.02 309.569,2100.03 309.412,2099.92L305.249,2097.1C305.095,2096.99 304.901,2096.99 304.747,2097.1L300.583,2099.92C300.427,2100.03 300.23,2100.02 300.075,2099.91C299.921,2099.81 299.857,2099.62 299.911,2099.45L301.353,2094.66C301.405,2094.49 301.347,2094.31 301.2,2094.2L297.175,2091.17C297.025,2091.05 296.967,2090.87 297.026,2090.69C297.085,2090.52 297.242,2090.4 297.433,2090.4L302.494,2090.27C302.681,2090.26 302.836,2090.15 302.898,2089.98L304.583,2085.29Z"/>
                </clipPath>
                <g clip-path="url(#_clip1)">
                    <rect id="Half-Inactive" x="305" y="2085" width="8" height="15" style="fill:white;"/>
                </g>
            </g>
            <g id="Star-Icon1" transform="matrix(2.16938,0,0,2.16938,1408.92,-3358.62)">
                <path d="M286.583,2085.29C286.646,2085.11 286.807,2085 286.998,2085C287.189,2085 287.35,2085.11 287.413,2085.29L289.098,2089.98C289.16,2090.15 289.315,2090.26 289.502,2090.27L294.563,2090.4C294.753,2090.4 294.911,2090.52 294.97,2090.69C295.029,2090.87 294.971,2091.05 294.821,2091.17L290.796,2094.2C290.649,2094.31 290.591,2094.49 290.643,2094.66L292.085,2099.45C292.139,2099.62 292.075,2099.81 291.921,2099.91C291.766,2100.02 291.569,2100.03 291.412,2099.92L287.249,2097.1C287.094,2096.99 286.901,2096.99 286.747,2097.1L282.583,2099.92C282.427,2100.03 282.23,2100.02 282.075,2099.91C281.921,2099.81 281.857,2099.62 281.911,2099.45L283.353,2094.66C283.405,2094.49 283.347,2094.31 283.2,2094.2L279.175,2091.17C279.025,2091.05 278.967,2090.87 279.026,2090.69C279.085,2090.52 279.243,2090.4 279.433,2090.4L284.494,2090.27C284.681,2090.26 284.836,2090.15 284.898,2089.98L286.583,2085.29Z" style="fill:rgb(255,192,35);"/>
            </g>
            <g id="Star-Icon2" transform="matrix(2.16938,0,0,2.16938,1408.92,-3358.62)">
                <path d="M268.583,2085.29C268.646,2085.11 268.807,2085 268.998,2085C269.189,2085 269.35,2085.11 269.413,2085.29L271.098,2089.98C271.16,2090.15 271.315,2090.26 271.501,2090.27L276.563,2090.4C276.753,2090.4 276.911,2090.52 276.97,2090.69C277.029,2090.87 276.971,2091.05 276.821,2091.17L272.796,2094.2C272.65,2094.31 272.591,2094.49 272.643,2094.66L274.085,2099.45C274.139,2099.62 274.075,2099.81 273.921,2099.91C273.766,2100.02 273.569,2100.03 273.412,2099.92L269.249,2097.1C269.094,2096.99 268.901,2096.99 268.747,2097.1L264.583,2099.92C264.427,2100.03 264.23,2100.02 264.075,2099.91C263.921,2099.81 263.857,2099.62 263.911,2099.45L265.353,2094.66C265.405,2094.49 265.346,2094.31 265.2,2094.2L261.175,2091.17C261.025,2091.05 260.967,2090.87 261.026,2090.69C261.085,2090.52 261.243,2090.4 261.433,2090.4L266.494,2090.27C266.681,2090.26 266.836,2090.15 266.898,2089.98L268.583,2085.29Z" style="fill:rgb(255,192,35);"/>
            </g>
        </g>
    </g>
</svg>
