<?xml version="1.0" encoding="UTF-8" standalone="no"?>
<!DOCTYPE svg PUBLIC "-//W3C//DTD SVG 1.1//EN" "http://www.w3.org/Graphics/SVG/1.1/DTD/svg11.dtd">
<svg width="100%" height="100%" viewBox="0 0 590 101" version="1.1" xmlns="http://www.w3.org/2000/svg" xmlns:xlink="http://www.w3.org/1999/xlink" xml:space="preserve" style="fill-rule:evenodd;clip-rule:evenodd;stroke-linejoin:round;stroke-miterlimit:1.41421;">
    <g transform="matrix(1,0,0,1,-3,-2)">
        <g id="Stars_x5" transform="matrix(3.08234,0,0,3.08234,-6084.06,-2612.01)">
            <g id="Star-Icon" transform="matrix(2.16938,0,0,2.16938,1671.42,-3544.81)">
                <path d="M219.583,2025.29C219.646,2025.11 219.807,2025 219.998,2025C220.189,2025 220.35,2025.11 220.413,2025.29L222.098,2029.98C222.16,2030.15 222.315,2030.27 222.501,2030.27L227.563,2030.4C227.753,2030.4 227.911,2030.52 227.97,2030.69C228.029,2030.87 227.971,2031.05 227.821,2031.17L223.796,2034.2C223.65,2034.31 223.591,2034.49 223.643,2034.66L225.085,2039.44C225.139,2039.62 225.075,2039.81 224.921,2039.91C224.766,2040.02 224.569,2040.03 224.412,2039.92L220.249,2037.1C220.094,2036.99 219.901,2036.99 219.747,2037.1L215.583,2039.92C215.427,2040.03 215.23,2040.02 215.075,2039.91C214.921,2039.81 214.857,2039.62 214.911,2039.44L216.353,2034.66C216.405,2034.49 216.346,2034.31 216.2,2034.2L212.175,2031.17C212.025,2031.05 211.967,2030.87 212.026,2030.69C212.085,2030.52 212.243,2030.4 212.433,2030.4L217.494,2030.27C217.681,2030.27 217.836,2030.15 217.898,2029.98L219.583,2025.29Z" style="fill:rgb(255,192,35);"/>
            </g>
            <g id="Star-Icon1" transform="matrix(2.16938,0,0,2.16938,1671.42,-3544.81)">
                <path d="M201.583,2025.29C201.646,2025.11 201.807,2025 201.998,2025C202.189,2025 202.35,2025.11 202.413,2025.29L204.098,2029.98C204.16,2030.15 204.315,2030.27 204.502,2030.27L209.563,2030.4C209.753,2030.4 209.911,2030.52 209.97,2030.69C210.029,2030.87 209.971,2031.05 209.821,2031.17L205.796,2034.2C205.649,2034.31 205.591,2034.49 205.643,2034.66L207.085,2039.44C207.139,2039.62 207.075,2039.81 206.921,2039.91C206.766,2040.02 206.569,2040.03 206.412,2039.92L202.249,2037.1C202.094,2036.99 201.901,2036.99 201.747,2037.1L197.584,2039.92C197.427,2040.03 197.23,2040.02 197.075,2039.91C196.921,2039.81 196.857,2039.62 196.911,2039.44L198.353,2034.66C198.405,2034.49 198.347,2034.31 198.2,2034.2L194.175,2031.17C194.025,2031.05 193.967,2030.87 194.026,2030.69C194.085,2030.52 194.243,2030.4 194.433,2030.4L199.494,2030.27C199.681,2030.27 199.836,2030.15 199.898,2029.98L201.583,2025.29Z" style="fill:rgb(255,192,35);"/>
            </g>
            <g id="Star-Icon2" transform="matrix(2.16938,0,0,2.16938,1671.42,-3544.81)">
                <path d="M183.583,2025.29C183.646,2025.11 183.807,2025 183.998,2025C184.189,2025 184.35,2025.11 184.413,2025.29L186.098,2029.98C186.16,2030.15 186.315,2030.27 186.501,2030.27L191.563,2030.4C191.753,2030.4 191.911,2030.52 191.97,2030.69C192.029,2030.87 191.971,2031.05 191.821,2031.17L187.796,2034.2C187.65,2034.31 187.591,2034.49 187.643,2034.66L189.085,2039.44C189.139,2039.62 189.075,2039.81 188.921,2039.91C188.766,2040.02 188.569,2040.03 188.412,2039.92L184.249,2037.1C184.094,2036.99 183.901,2036.99 183.747,2037.1L179.583,2039.92C179.427,2040.03 179.23,2040.02 179.075,2039.91C178.921,2039.81 178.857,2039.62 178.911,2039.44L180.353,2034.66C180.405,2034.49 180.346,2034.31 180.2,2034.2L176.175,2031.17C176.025,2031.05 175.967,2030.87 176.026,2030.69C176.085,2030.52 176.243,2030.4 176.433,2030.4L181.494,2030.27C181.681,2030.27 181.836,2030.15 181.898,2029.98L183.583,2025.29Z" style="fill:rgb(255,192,35);"/>
            </g>
            <g id="Star-Icon3" transform="matrix(2.16938,0,0,2.16938,1671.42,-3544.81)">
                <path d="M165.583,2025.29C165.646,2025.11 165.807,2025 165.998,2025C166.189,2025 166.35,2025.11 166.413,2025.29L168.098,2029.98C168.16,2030.15 168.315,2030.27 168.502,2030.27L173.563,2030.4C173.753,2030.4 173.911,2030.52 173.97,2030.69C174.029,2030.87 173.971,2031.05 173.821,2031.17L169.796,2034.2C169.649,2034.31 169.591,2034.49 169.643,2034.66L171.085,2039.44C171.139,2039.62 171.075,2039.81 170.921,2039.91C170.766,2040.02 170.569,2040.03 170.412,2039.92L166.249,2037.1C166.094,2036.99 165.901,2036.99 165.747,2037.1L161.583,2039.92C161.427,2040.03 161.23,2040.02 161.075,2039.91C160.921,2039.81 160.857,2039.62 160.911,2039.44L162.353,2034.66C162.405,2034.49 162.347,2034.31 162.2,2034.2L158.175,2031.17C158.025,2031.05 157.967,2030.87 158.026,2030.69C158.085,2030.52 158.243,2030.4 158.433,2030.4L163.494,2030.27C163.681,2030.27 163.836,2030.15 163.898,2029.98L165.583,2025.29Z" style="fill:rgb(255,192,35);"/>
            </g>
            <g id="Star-Icon4" transform="matrix(2.16938,0,0,2.16938,1671.42,-3544.81)">
                <path d="M147.583,2025.29C147.646,2025.11 147.807,2025 147.998,2025C148.189,2025 148.35,2025.11 148.413,2025.29L150.098,2029.98C150.16,2030.15 150.315,2030.27 150.502,2030.27L155.563,2030.4C155.753,2030.4 155.911,2030.52 155.97,2030.69C156.029,2030.87 155.971,2031.05 155.821,2031.17L151.796,2034.2C151.65,2034.31 151.591,2034.49 151.643,2034.66L153.085,2039.44C153.139,2039.62 153.075,2039.81 152.921,2039.91C152.766,2040.02 152.569,2040.03 152.412,2039.92L148.249,2037.1C148.094,2036.99 147.901,2036.99 147.747,2037.1L143.583,2039.92C143.427,2040.03 143.23,2040.02 143.075,2039.91C142.921,2039.81 142.857,2039.62 142.911,2039.44L144.353,2034.66C144.405,2034.49 144.347,2034.31 144.2,2034.2L140.175,2031.17C140.025,2031.05 139.967,2030.87 140.026,2030.69C140.085,2030.52 140.243,2030.4 140.433,2030.4L145.494,2030.27C145.681,2030.27 145.836,2030.15 145.898,2029.98L147.583,2025.29Z" style="fill:rgb(255,192,35);"/>
            </g>
        </g>
    </g>
</svg>
