<?xml version="1.0" encoding="UTF-8" standalone="no"?>
<!DOCTYPE svg PUBLIC "-//W3C//DTD SVG 1.1//EN" "http://www.w3.org/Graphics/SVG/1.1/DTD/svg11.dtd">
<svg width="100%" height="100%" viewBox="0 0 590 101" version="1.1" xmlns="http://www.w3.org/2000/svg" xmlns:xlink="http://www.w3.org/1999/xlink" xml:space="preserve" style="fill-rule:evenodd;clip-rule:evenodd;stroke-linejoin:round;stroke-miterlimit:1.41421;">
    <g transform="matrix(1,0,0,1,-3,-2)">
        <g id="Stars_x1" transform="matrix(3.08234,0,0,3.08234,-6084.06,-4161.02)">
            <g id="Star-Icon-Inactive" transform="matrix(2.16938,0,0,2.16938,1146.43,-3172.42)">
                <path d="M461.583,2085.29C461.646,2085.11 461.807,2085 461.998,2085C462.189,2085 462.35,2085.11 462.413,2085.29L464.098,2089.98C464.16,2090.15 464.315,2090.26 464.502,2090.27L469.563,2090.4C469.753,2090.4 469.911,2090.52 469.97,2090.69C470.029,2090.87 469.971,2091.05 469.821,2091.17L465.796,2094.2C465.649,2094.31 465.591,2094.49 465.643,2094.66L467.085,2099.45C467.139,2099.62 467.075,2099.81 466.921,2099.91C466.766,2100.02 466.569,2100.03 466.412,2099.92L462.249,2097.1C462.095,2096.99 461.901,2096.99 461.747,2097.1L457.583,2099.92C457.427,2100.03 457.23,2100.02 457.075,2099.91C456.921,2099.81 456.857,2099.62 456.911,2099.45L458.353,2094.66C458.405,2094.49 458.347,2094.31 458.2,2094.2L454.175,2091.17C454.025,2091.05 453.967,2090.87 454.026,2090.69C454.085,2090.52 454.243,2090.4 454.433,2090.4L459.494,2090.27C459.681,2090.26 459.836,2090.15 459.898,2089.98L461.583,2085.29Z" style="fill:white;"/>
            </g>
            <g id="Star-Icon-Inactive1" transform="matrix(2.16938,0,0,2.16938,1146.43,-3172.42)">
                <path d="M443.583,2085.29C443.646,2085.11 443.807,2085 443.998,2085C444.189,2085 444.35,2085.11 444.413,2085.29L446.098,2089.98C446.16,2090.15 446.315,2090.26 446.501,2090.27L451.563,2090.4C451.753,2090.4 451.911,2090.52 451.97,2090.69C452.029,2090.87 451.971,2091.05 451.821,2091.17L447.796,2094.2C447.649,2094.31 447.591,2094.49 447.643,2094.66L449.085,2099.45C449.139,2099.62 449.075,2099.81 448.921,2099.91C448.766,2100.02 448.569,2100.03 448.412,2099.92L444.249,2097.1C444.095,2096.99 443.901,2096.99 443.747,2097.1L439.583,2099.92C439.427,2100.03 439.23,2100.02 439.075,2099.91C438.921,2099.81 438.857,2099.62 438.911,2099.45L440.353,2094.66C440.405,2094.49 440.347,2094.31 440.2,2094.2L436.175,2091.17C436.025,2091.05 435.967,2090.87 436.026,2090.69C436.085,2090.52 436.242,2090.4 436.433,2090.4L441.494,2090.27C441.681,2090.26 441.836,2090.15 441.898,2089.98L443.583,2085.29Z" style="fill:white;"/>
            </g>
            <g id="Star-Icon-Inactive2" transform="matrix(2.16938,0,0,2.16938,1146.43,-3172.42)">
                <path d="M425.583,2085.29C425.646,2085.11 425.807,2085 425.998,2085C426.189,2085 426.35,2085.11 426.413,2085.29L428.098,2089.98C428.16,2090.15 428.315,2090.26 428.501,2090.27L433.563,2090.4C433.753,2090.4 433.911,2090.52 433.97,2090.69C434.029,2090.87 433.971,2091.05 433.821,2091.17L429.796,2094.2C429.649,2094.31 429.591,2094.49 429.643,2094.66L431.085,2099.45C431.139,2099.62 431.075,2099.81 430.92,2099.91C430.766,2100.02 430.569,2100.03 430.412,2099.92L426.249,2097.1C426.095,2096.99 425.901,2096.99 425.747,2097.1L421.583,2099.92C421.427,2100.03 421.23,2100.02 421.075,2099.91C420.921,2099.81 420.857,2099.62 420.911,2099.45L422.353,2094.66C422.405,2094.49 422.347,2094.31 422.2,2094.2L418.175,2091.17C418.025,2091.05 417.967,2090.87 418.026,2090.69C418.085,2090.52 418.242,2090.4 418.433,2090.4L423.494,2090.27C423.681,2090.26 423.836,2090.15 423.898,2089.98L425.583,2085.29Z" style="fill:white;"/>
            </g>
            <g id="Star-Icon-Inactive3" transform="matrix(2.16938,0,0,2.16938,1146.43,-3172.42)">
                <path d="M407.583,2085.29C407.646,2085.11 407.807,2085 407.998,2085C408.189,2085 408.35,2085.11 408.413,2085.29L410.098,2089.98C410.16,2090.15 410.315,2090.26 410.501,2090.27L415.563,2090.4C415.753,2090.4 415.911,2090.52 415.97,2090.69C416.029,2090.87 415.971,2091.05 415.821,2091.17L411.796,2094.2C411.649,2094.31 411.591,2094.49 411.643,2094.66L413.085,2099.45C413.139,2099.62 413.075,2099.81 412.921,2099.91C412.766,2100.02 412.569,2100.03 412.412,2099.92L408.249,2097.1C408.095,2096.99 407.901,2096.99 407.747,2097.1L403.583,2099.92C403.427,2100.03 403.23,2100.02 403.075,2099.91C402.921,2099.81 402.857,2099.62 402.911,2099.45L404.353,2094.66C404.405,2094.49 404.347,2094.31 404.2,2094.2L400.175,2091.17C400.025,2091.05 399.967,2090.87 400.026,2090.69C400.085,2090.52 400.243,2090.4 400.433,2090.4L405.494,2090.27C405.681,2090.26 405.836,2090.15 405.898,2089.98L407.583,2085.29Z" style="fill:white;"/>
            </g>
            <g id="Star-Icon" transform="matrix(2.16938,0,0,2.16938,1146.43,-3172.42)">
                <path d="M389.583,2085.29C389.646,2085.11 389.807,2085 389.998,2085C390.189,2085 390.35,2085.11 390.413,2085.29L392.098,2089.98C392.16,2090.15 392.315,2090.26 392.502,2090.27L397.563,2090.4C397.753,2090.4 397.911,2090.52 397.97,2090.69C398.029,2090.87 397.971,2091.05 397.821,2091.17L393.796,2094.2C393.65,2094.31 393.591,2094.49 393.643,2094.66L395.085,2099.45C395.139,2099.62 395.075,2099.81 394.921,2099.91C394.766,2100.02 394.569,2100.03 394.412,2099.92L390.249,2097.1C390.094,2096.99 389.901,2096.99 389.747,2097.1L385.583,2099.92C385.427,2100.03 385.23,2100.02 385.075,2099.91C384.921,2099.81 384.857,2099.62 384.911,2099.45L386.353,2094.66C386.405,2094.49 386.347,2094.31 386.2,2094.2L382.175,2091.17C382.025,2091.05 381.967,2090.87 382.026,2090.69C382.085,2090.52 382.243,2090.4 382.433,2090.4L387.494,2090.27C387.681,2090.26 387.836,2090.15 387.898,2089.98L389.583,2085.29Z" style="fill:rgb(255,192,35);"/>
            </g>
        </g>
    </g>
</svg>
