<?xml version="1.0" encoding="UTF-8" standalone="no"?>
<!DOCTYPE svg PUBLIC "-//W3C//DTD SVG 1.1//EN" "http://www.w3.org/Graphics/SVG/1.1/DTD/svg11.dtd">
<svg width="100%" height="100%" viewBox="0 0 590 101" version="1.1" xmlns="http://www.w3.org/2000/svg" xmlns:xlink="http://www.w3.org/1999/xlink" xml:space="preserve" style="fill-rule:evenodd;clip-rule:evenodd;stroke-linejoin:round;stroke-miterlimit:1.41421;">
    <g transform="matrix(1,0,0,1,-3,-2)">
        <g id="Stars_x3-5" transform="matrix(3.08234,0,0,3.08234,-6084.06,-3185.91)">
            <g id="Star-Icon-Inactive" transform="matrix(2.16938,0,0,2.16938,1408.92,-3358.62)">
                <path d="M340.583,2025.29C340.646,2025.11 340.807,2025 340.998,2025C341.189,2025 341.35,2025.11 341.413,2025.29L343.098,2029.98C343.16,2030.15 343.315,2030.27 343.501,2030.27L348.563,2030.4C348.753,2030.4 348.911,2030.52 348.97,2030.69C349.029,2030.87 348.971,2031.05 348.821,2031.17L344.796,2034.2C344.649,2034.31 344.591,2034.49 344.643,2034.66L346.085,2039.44C346.139,2039.62 346.075,2039.81 345.921,2039.91C345.766,2040.02 345.569,2040.03 345.412,2039.92L341.249,2037.1C341.095,2036.99 340.901,2036.99 340.747,2037.1L336.583,2039.92C336.427,2040.03 336.23,2040.02 336.075,2039.91C335.921,2039.81 335.857,2039.62 335.911,2039.44L337.353,2034.66C337.405,2034.49 337.347,2034.31 337.2,2034.2L333.175,2031.17C333.025,2031.05 332.967,2030.87 333.026,2030.69C333.085,2030.52 333.242,2030.4 333.433,2030.4L338.494,2030.27C338.681,2030.27 338.836,2030.15 338.898,2029.98L340.583,2025.29Z" style="fill:white;"/>
            </g>
            <g id="Star-Icon" transform="matrix(2.16938,0,0,2.16938,1408.92,-3358.62)">
                <path d="M322.583,2025.29C322.646,2025.11 322.807,2025 322.998,2025C323.189,2025 323.35,2025.11 323.413,2025.29L325.098,2029.98C325.16,2030.15 325.315,2030.27 325.501,2030.27L330.563,2030.4C330.753,2030.4 330.911,2030.52 330.97,2030.69C331.029,2030.87 330.971,2031.05 330.821,2031.17L326.796,2034.2C326.649,2034.31 326.591,2034.49 326.643,2034.66L328.085,2039.44C328.139,2039.62 328.075,2039.81 327.92,2039.91C327.766,2040.02 327.569,2040.03 327.412,2039.92L323.249,2037.1C323.095,2036.99 322.901,2036.99 322.747,2037.1L318.583,2039.92C318.427,2040.03 318.23,2040.02 318.075,2039.91C317.921,2039.81 317.857,2039.62 317.911,2039.44L319.353,2034.66C319.405,2034.49 319.347,2034.31 319.2,2034.2L315.175,2031.17C315.025,2031.05 314.967,2030.87 315.026,2030.69C315.085,2030.52 315.242,2030.4 315.433,2030.4L320.494,2030.27C320.681,2030.27 320.836,2030.15 320.898,2029.98L322.583,2025.29Z" style="fill:rgb(255,182,0);"/>
                <clipPath id="_clip1">
                    <path d="M322.583,2025.29C322.646,2025.11 322.807,2025 322.998,2025C323.189,2025 323.35,2025.11 323.413,2025.29L325.098,2029.98C325.16,2030.15 325.315,2030.27 325.501,2030.27L330.563,2030.4C330.753,2030.4 330.911,2030.52 330.97,2030.69C331.029,2030.87 330.971,2031.05 330.821,2031.17L326.796,2034.2C326.649,2034.31 326.591,2034.49 326.643,2034.66L328.085,2039.44C328.139,2039.62 328.075,2039.81 327.92,2039.91C327.766,2040.02 327.569,2040.03 327.412,2039.92L323.249,2037.1C323.095,2036.99 322.901,2036.99 322.747,2037.1L318.583,2039.92C318.427,2040.03 318.23,2040.02 318.075,2039.91C317.921,2039.81 317.857,2039.62 317.911,2039.44L319.353,2034.66C319.405,2034.49 319.347,2034.31 319.2,2034.2L315.175,2031.17C315.025,2031.05 314.967,2030.87 315.026,2030.69C315.085,2030.52 315.242,2030.4 315.433,2030.4L320.494,2030.27C320.681,2030.27 320.836,2030.15 320.898,2029.98L322.583,2025.29Z"/>
                </clipPath>
                <g clip-path="url(#_clip1)">
                    <rect id="Half-Inactive" x="323" y="2025" width="8" height="15" style="fill:white;"/>
                </g>
            </g>
            <g id="Star-Icon1" transform="matrix(2.16938,0,0,2.16938,1408.92,-3358.62)">
                <path d="M304.583,2025.29C304.646,2025.11 304.807,2025 304.998,2025C305.189,2025 305.35,2025.11 305.413,2025.29L307.098,2029.98C307.16,2030.15 307.315,2030.27 307.501,2030.27L312.563,2030.4C312.753,2030.4 312.911,2030.52 312.97,2030.69C313.029,2030.87 312.971,2031.05 312.821,2031.17L308.796,2034.2C308.65,2034.31 308.591,2034.49 308.643,2034.66L310.085,2039.44C310.139,2039.62 310.075,2039.81 309.921,2039.91C309.766,2040.02 309.569,2040.03 309.412,2039.92L305.249,2037.1C305.094,2036.99 304.901,2036.99 304.747,2037.1L300.583,2039.92C300.427,2040.03 300.23,2040.02 300.075,2039.91C299.921,2039.81 299.857,2039.62 299.911,2039.44L301.353,2034.66C301.405,2034.49 301.346,2034.31 301.2,2034.2L297.175,2031.17C297.025,2031.05 296.967,2030.87 297.026,2030.69C297.085,2030.52 297.243,2030.4 297.433,2030.4L302.494,2030.27C302.681,2030.27 302.836,2030.15 302.898,2029.98L304.583,2025.29Z" style="fill:rgb(255,192,35);"/>
            </g>
            <g id="Star-Icon2" transform="matrix(2.16938,0,0,2.16938,1408.92,-3358.62)">
                <path d="M286.583,2025.29C286.646,2025.11 286.807,2025 286.998,2025C287.189,2025 287.35,2025.11 287.413,2025.29L289.098,2029.98C289.16,2030.15 289.315,2030.27 289.502,2030.27L294.563,2030.4C294.753,2030.4 294.911,2030.52 294.97,2030.69C295.029,2030.87 294.971,2031.05 294.821,2031.17L290.796,2034.2C290.649,2034.31 290.591,2034.49 290.643,2034.66L292.085,2039.44C292.139,2039.62 292.075,2039.81 291.921,2039.91C291.766,2040.02 291.569,2040.03 291.412,2039.92L287.249,2037.1C287.094,2036.99 286.901,2036.99 286.747,2037.1L282.583,2039.92C282.427,2040.03 282.23,2040.02 282.075,2039.91C281.921,2039.81 281.857,2039.62 281.911,2039.44L283.353,2034.66C283.405,2034.49 283.347,2034.31 283.2,2034.2L279.175,2031.17C279.025,2031.05 278.967,2030.87 279.026,2030.69C279.085,2030.52 279.243,2030.4 279.433,2030.4L284.494,2030.27C284.681,2030.27 284.836,2030.15 284.898,2029.98L286.583,2025.29Z" style="fill:rgb(255,192,35);"/>
            </g>
            <g id="Star-Icon3" transform="matrix(2.16938,0,0,2.16938,1408.92,-3358.62)">
                <path d="M268.583,2025.29C268.646,2025.11 268.807,2025 268.998,2025C269.189,2025 269.35,2025.11 269.413,2025.29L271.098,2029.98C271.16,2030.15 271.315,2030.27 271.501,2030.27L276.563,2030.4C276.753,2030.4 276.911,2030.52 276.97,2030.69C277.029,2030.87 276.971,2031.05 276.821,2031.17L272.796,2034.2C272.65,2034.31 272.591,2034.49 272.643,2034.66L274.085,2039.44C274.139,2039.62 274.075,2039.81 273.921,2039.91C273.766,2040.02 273.569,2040.03 273.412,2039.92L269.249,2037.1C269.094,2036.99 268.901,2036.99 268.747,2037.1L264.583,2039.92C264.427,2040.03 264.23,2040.02 264.075,2039.91C263.921,2039.81 263.857,2039.62 263.911,2039.44L265.353,2034.66C265.405,2034.49 265.346,2034.31 265.2,2034.2L261.175,2031.17C261.025,2031.05 260.967,2030.87 261.026,2030.69C261.085,2030.52 261.243,2030.4 261.433,2030.4L266.494,2030.27C266.681,2030.27 266.836,2030.15 266.898,2029.98L268.583,2025.29Z" style="fill:rgb(255,192,35);"/>
            </g>
        </g>
    </g>
</svg>
