<?xml version="1.0" encoding="UTF-8" standalone="no"?>
<!DOCTYPE svg PUBLIC "-//W3C//DTD SVG 1.1//EN" "http://www.w3.org/Graphics/SVG/1.1/DTD/svg11.dtd">
<svg width="100%" height="100%" viewBox="0 0 590 101" version="1.1" xmlns="http://www.w3.org/2000/svg" xmlns:xlink="http://www.w3.org/1999/xlink" xml:space="preserve" style="fill-rule:evenodd;clip-rule:evenodd;stroke-linejoin:round;stroke-miterlimit:1.41421;">
    <g transform="matrix(1,0,0,1,-3,-2)">
        <g id="Stars_x3" transform="matrix(3.08234,0,0,3.08234,-6084.06,-3386.51)">
            <g id="Star-Icon-Inactive" transform="matrix(2.16938,0,0,2.16938,1408.92,-3358.62)">
                <path d="M340.583,2055.29C340.646,2055.11 340.807,2055 340.998,2055C341.189,2055 341.35,2055.11 341.413,2055.29L343.098,2059.98C343.16,2060.15 343.315,2060.26 343.501,2060.27L348.563,2060.4C348.753,2060.4 348.911,2060.52 348.97,2060.69C349.029,2060.87 348.971,2061.05 348.821,2061.17L344.796,2064.2C344.649,2064.31 344.591,2064.49 344.643,2064.66L346.085,2069.45C346.139,2069.62 346.075,2069.8 345.921,2069.91C345.766,2070.02 345.569,2070.03 345.412,2069.92L341.249,2067.1C341.095,2066.99 340.901,2066.99 340.747,2067.1L336.583,2069.92C336.427,2070.03 336.23,2070.02 336.075,2069.91C335.921,2069.8 335.857,2069.62 335.911,2069.45L337.353,2064.66C337.405,2064.49 337.347,2064.31 337.2,2064.2L333.175,2061.17C333.025,2061.05 332.967,2060.87 333.026,2060.69C333.085,2060.52 333.242,2060.4 333.433,2060.4L338.494,2060.27C338.681,2060.26 338.836,2060.15 338.898,2059.98L340.583,2055.29Z" style="fill:white;"/>
            </g>
            <g id="Star-Icon-Inactive1" transform="matrix(2.16938,0,0,2.16938,1408.92,-3358.62)">
                <path d="M322.583,2055.29C322.646,2055.11 322.807,2055 322.998,2055C323.189,2055 323.35,2055.11 323.413,2055.29L325.098,2059.98C325.16,2060.15 325.315,2060.26 325.501,2060.27L330.563,2060.4C330.753,2060.4 330.911,2060.52 330.97,2060.69C331.029,2060.87 330.971,2061.05 330.821,2061.17L326.796,2064.2C326.649,2064.31 326.591,2064.49 326.643,2064.66L328.085,2069.45C328.139,2069.62 328.075,2069.8 327.92,2069.91C327.766,2070.02 327.569,2070.03 327.412,2069.92L323.249,2067.1C323.095,2066.99 322.901,2066.99 322.747,2067.1L318.583,2069.92C318.427,2070.03 318.23,2070.02 318.075,2069.91C317.921,2069.8 317.857,2069.62 317.911,2069.45L319.353,2064.66C319.405,2064.49 319.347,2064.31 319.2,2064.2L315.175,2061.17C315.025,2061.05 314.967,2060.87 315.026,2060.69C315.085,2060.52 315.242,2060.4 315.433,2060.4L320.494,2060.27C320.681,2060.26 320.836,2060.15 320.898,2059.98L322.583,2055.29Z" style="fill:white;"/>
            </g>
            <g id="Star-Icon" transform="matrix(2.16938,0,0,2.16938,1408.92,-3358.62)">
                <path d="M304.583,2055.29C304.646,2055.11 304.807,2055 304.998,2055C305.189,2055 305.35,2055.11 305.413,2055.29L307.098,2059.98C307.16,2060.15 307.315,2060.26 307.501,2060.27L312.563,2060.4C312.753,2060.4 312.911,2060.52 312.97,2060.69C313.029,2060.87 312.971,2061.05 312.821,2061.17L308.796,2064.2C308.65,2064.31 308.591,2064.49 308.643,2064.66L310.085,2069.45C310.139,2069.62 310.075,2069.8 309.921,2069.91C309.766,2070.02 309.569,2070.03 309.412,2069.92L305.249,2067.1C305.094,2066.99 304.901,2066.99 304.747,2067.1L300.583,2069.92C300.427,2070.03 300.23,2070.02 300.075,2069.91C299.921,2069.8 299.857,2069.62 299.911,2069.45L301.353,2064.66C301.405,2064.49 301.346,2064.31 301.2,2064.2L297.175,2061.17C297.025,2061.05 296.967,2060.87 297.026,2060.69C297.085,2060.52 297.243,2060.4 297.433,2060.4L302.494,2060.27C302.681,2060.26 302.836,2060.15 302.898,2059.98L304.583,2055.29Z" style="fill:rgb(255,192,35);"/>
            </g>
            <g id="Star-Icon1" transform="matrix(2.16938,0,0,2.16938,1408.92,-3358.62)">
                <path d="M286.583,2055.29C286.646,2055.11 286.807,2055 286.998,2055C287.189,2055 287.35,2055.11 287.413,2055.29L289.098,2059.98C289.16,2060.15 289.315,2060.26 289.502,2060.27L294.563,2060.4C294.753,2060.4 294.911,2060.52 294.97,2060.69C295.029,2060.87 294.971,2061.05 294.821,2061.17L290.796,2064.2C290.649,2064.31 290.591,2064.49 290.643,2064.66L292.085,2069.45C292.139,2069.62 292.075,2069.8 291.921,2069.91C291.766,2070.02 291.569,2070.03 291.412,2069.92L287.249,2067.1C287.094,2066.99 286.901,2066.99 286.747,2067.1L282.583,2069.92C282.427,2070.03 282.23,2070.02 282.075,2069.91C281.921,2069.8 281.857,2069.62 281.911,2069.45L283.353,2064.66C283.405,2064.49 283.347,2064.31 283.2,2064.2L279.175,2061.17C279.025,2061.05 278.967,2060.87 279.026,2060.69C279.085,2060.52 279.243,2060.4 279.433,2060.4L284.494,2060.27C284.681,2060.26 284.836,2060.15 284.898,2059.98L286.583,2055.29Z" style="fill:rgb(255,192,35);"/>
            </g>
            <g id="Star-Icon2" transform="matrix(2.16938,0,0,2.16938,1408.92,-3358.62)">
                <path d="M268.583,2055.29C268.646,2055.11 268.807,2055 268.998,2055C269.189,2055 269.35,2055.11 269.413,2055.29L271.098,2059.98C271.16,2060.15 271.315,2060.26 271.501,2060.27L276.563,2060.4C276.753,2060.4 276.911,2060.52 276.97,2060.69C277.029,2060.87 276.971,2061.05 276.821,2061.17L272.796,2064.2C272.65,2064.31 272.591,2064.49 272.643,2064.66L274.085,2069.45C274.139,2069.62 274.075,2069.8 273.921,2069.91C273.766,2070.02 273.569,2070.03 273.412,2069.92L269.249,2067.1C269.094,2066.99 268.901,2066.99 268.747,2067.1L264.583,2069.92C264.427,2070.03 264.23,2070.02 264.075,2069.91C263.921,2069.8 263.857,2069.62 263.911,2069.45L265.353,2064.66C265.405,2064.49 265.346,2064.31 265.2,2064.2L261.175,2061.17C261.025,2061.05 260.967,2060.87 261.026,2060.69C261.085,2060.52 261.243,2060.4 261.433,2060.4L266.494,2060.27C266.681,2060.26 266.836,2060.15 266.898,2059.98L268.583,2055.29Z" style="fill:rgb(255,192,35);"/>
            </g>
        </g>
    </g>
</svg>
