<?xml version="1.0" encoding="UTF-8" standalone="no"?>
<!DOCTYPE svg PUBLIC "-//W3C//DTD SVG 1.1//EN" "http://www.w3.org/Graphics/SVG/1.1/DTD/svg11.dtd">
<svg width="100%" height="100%" viewBox="0 0 182 200" version="1.1" xmlns="http://www.w3.org/2000/svg" xmlns:xlink="http://www.w3.org/1999/xlink" xml:space="preserve" style="fill-rule:evenodd;clip-rule:evenodd;stroke-linejoin:round;stroke-miterlimit:1.41421;">
    <g transform="matrix(1,0,0,1,-9,0)">
        <g transform="matrix(2.32485,0,0,2.32485,0,0)">
            <g transform="matrix(0.355924,0,0,0.355924,-434.532,-395.141)">
                <g id="Boy_2">
                    <g>
                        <g transform="matrix(1,0,0,1,442.398,306.012)">
                            <path d="M1008.6,807.431C1008.6,806.225 1007.62,805.245 1006.41,805.245L792.2,805.245C790.993,805.245 790.014,806.225 790.014,807.431L790.014,1042.61C790.014,1043.82 790.993,1044.8 792.2,1044.8L1006.41,1044.8C1007.62,1044.8 1008.6,1043.82 1008.6,1042.61L1008.6,807.431Z" style="fill:rgb(70,93,115);fill-opacity:0.364706;"/>
                        </g>
                        <g transform="matrix(0.949026,0,0,1.0061,-171.475,-8.24091)">
                            <g transform="matrix(1,0,0,1.03539,481.326,255.397)">
                                <path d="M1113.09,858.134C1148.03,858.134 1176.39,899.941 1176.39,934.879C1176.39,969.817 1148.03,984.739 1113.09,984.739C1078.15,984.739 1049.79,969.817 1049.79,934.879C1049.79,899.941 1078.15,858.134 1113.09,858.134Z" style="fill:rgb(255,222,189);"/>
                            </g>
                            <g transform="matrix(1,0,0,1,499.584,-1.70769)">
                                <g transform="matrix(0.743057,-0.164979,0.183435,0.826182,44.5733,392.126)">
                                    <ellipse cx="1029.73" cy="1203.72" rx="17.983" ry="25.029" style="fill:rgb(255,222,189);"/>
                                </g>
                                <g transform="matrix(-0.743057,-0.164979,-0.183435,0.826182,2145.17,392.126)">
                                    <ellipse cx="1029.73" cy="1203.72" rx="17.983" ry="25.029" style="fill:rgb(255,222,189);"/>
                                </g>
                            </g>
                            <g transform="matrix(1,0,0,1,249.177,0)">
                                <path d="M1276.7,1350.81L1277.44,1331.76C1278.6,1298.81 1306.02,1288.78 1331.31,1288.78L1359,1288.78C1384.29,1288.78 1411.97,1302.26 1412.87,1331.76L1413.19,1350.81L1276.7,1350.81Z" style="fill:rgb(255,131,60);"/>
                            </g>
                            <g transform="matrix(1,0,0,1,481.326,285.766)">
                                <path d="M1070.53,1008.25C1079.3,1004.51 1089.39,1003.02 1099.16,1003.02L1126.85,1003.02C1136.39,1003.02 1146.27,1004.93 1154.92,1008.9C1148.52,1015.9 1132.16,1020.88 1113.01,1020.88C1093.27,1020.88 1076.49,1015.59 1070.53,1008.25Z" style="fill:rgb(255,222,189);"/>
                            </g>
                            <g transform="matrix(0.62455,0,0,1,902.356,289.199)">
                                <rect x="1091.41" y="976.271" width="34.75" height="33.84" style="fill:rgb(255,222,189);"/>
                            </g>
                            <g transform="matrix(2.92971,0,0,1.87433,-4805.15,-866.755)">
                                <path d="M2184.33,1141.6C2188.17,1141.57 2194.69,1139.91 2194.69,1139.91C2194.69,1139.91 2189.1,1146.41 2184.33,1147.09L2184.33,1147.14C2184.24,1147.14 2184.16,1147.13 2184.07,1147.13C2183.99,1147.13 2183.9,1147.14 2183.82,1147.14L2183.82,1147.09C2179.05,1146.41 2173.46,1139.91 2173.46,1139.91C2173.46,1139.91 2179.98,1141.57 2183.82,1141.6L2183.82,1141.6C2183.87,1141.6 2183.93,1141.6 2183.98,1141.6C2184.01,1141.6 2184.04,1141.6 2184.07,1141.6C2184.1,1141.6 2184.13,1141.6 2184.16,1141.6C2184.22,1141.6 2184.27,1141.6 2184.33,1141.6L2184.33,1141.6Z" style="fill:rgb(80,51,42);"/>
                            </g>
                            <g transform="matrix(1,0,0,1.06803,0,-78.0842)">
                                <path d="M1667.23,1165.65C1667.23,1154.98 1666.46,1122.63 1591.99,1122.63C1517.52,1122.63 1523.59,1160.46 1523.59,1170.37C1523.59,1170.37 1522.5,1184.19 1534.21,1224.82C1537.49,1216.35 1536.54,1187.54 1543.52,1187.54C1543.52,1187.54 1566.26,1189.88 1579.88,1189.22C1616.29,1187.44 1635.19,1165.62 1635.19,1165.62C1635.19,1165.62 1624.66,1187.07 1631.88,1187.44C1655.81,1188.7 1656.25,1214.43 1656.35,1221.63C1667.91,1186 1667.23,1165.65 1667.23,1165.65Z" style="fill:rgb(80,51,42);"/>
                            </g>
                        </g>
                    </g>
                </g>
            </g>
        </g>
    </g>
</svg>
