<?xml version="1.0" encoding="UTF-8" standalone="no"?>
<!DOCTYPE svg PUBLIC "-//W3C//DTD SVG 1.1//EN" "http://www.w3.org/Graphics/SVG/1.1/DTD/svg11.dtd">
<svg width="100%" height="100%" viewBox="0 0 182 200" version="1.1" xmlns="http://www.w3.org/2000/svg" xmlns:xlink="http://www.w3.org/1999/xlink" xml:space="preserve" style="fill-rule:evenodd;clip-rule:evenodd;stroke-linejoin:round;stroke-miterlimit:1.41421;">
    <g transform="matrix(1,0,0,1,-9,0)">
        <g transform="matrix(2.32485,0,0,2.32485,0,0)">
            <g id="Girl_1" transform="matrix(0.355722,0,0,0.355722,-520.687,-297.338)">
                <g transform="matrix(1,0,0,1,685.357,31.697)">
                    <path d="M1008.6,807.431C1008.6,806.225 1007.62,805.245 1006.41,805.245L792.2,805.245C790.993,805.245 790.014,806.225 790.014,807.431L790.014,1042.61C790.014,1043.82 790.993,1044.8 792.2,1044.8L1006.41,1044.8C1007.62,1044.8 1008.6,1043.82 1008.6,1042.61L1008.6,807.431Z" style="fill:rgb(70,93,115);fill-opacity:0.364706;"/>
                </g>
                <g transform="matrix(1,0,0,1,-0.457537,0)">
                    <g transform="matrix(1,0,0,1.03539,471.74,-30.3687)">
                        <path d="M1113.09,858.134C1148.03,858.134 1176.39,899.941 1176.39,934.879C1176.39,969.817 1148.03,984.739 1113.09,984.739C1078.15,984.739 1049.79,969.817 1049.79,934.879C1049.79,899.941 1078.15,858.134 1113.09,858.134Z" style="fill:rgb(255,222,189);"/>
                    </g>
                    <g transform="matrix(1,0,0,1,489.959,-278.258)">
                        <g transform="matrix(0.743057,-0.164979,0.183435,0.826182,44.5733,392.126)">
                            <ellipse cx="1029.73" cy="1203.72" rx="17.983" ry="25.029" style="fill:rgb(255,222,189);"/>
                        </g>
                        <g transform="matrix(-0.743057,-0.164979,-0.183435,0.826182,2145.17,392.126)">
                            <ellipse cx="1029.73" cy="1203.72" rx="17.983" ry="25.029" style="fill:rgb(255,222,189);"/>
                        </g>
                    </g>
                    <g transform="matrix(-1,0,0,2.95975,2927.78,-1799.99)">
                        <path d="M1411.13,909.666C1423.66,933.015 1403.39,949.608 1403.39,949.608L1398.77,921.846C1398.77,921.846 1408.66,905.059 1411.13,909.666Z" style="fill:rgb(43,43,43);"/>
                    </g>
                    <g transform="matrix(1,0,0,2.95975,243.517,-1799.99)">
                        <path d="M1411.13,909.666C1423.66,933.015 1403.39,949.608 1403.39,949.608L1398.77,921.846C1398.77,921.846 1408.66,905.059 1411.13,909.666Z" style="fill:rgb(43,43,43);"/>
                    </g>
                    <g transform="matrix(1,0,0,1,242.707,0)">
                        <path d="M1273.56,1076.64L1274.75,1045.99C1275.9,1013.04 1303.33,1003.02 1328.62,1003.02L1356.3,1003.02C1381.59,1003.02 1409.28,1016.49 1410.17,1045.99L1410.69,1076.64L1273.56,1076.64Z" style="fill:rgb(68,126,192);"/>
                    </g>
                    <g transform="matrix(1,0,0,1,472.106,0)">
                        <path d="M1070.53,1008.25C1079.3,1004.51 1089.39,1003.02 1099.16,1003.02L1126.85,1003.02C1136.39,1003.02 1146.27,1004.93 1154.92,1008.9C1148.52,1015.9 1132.16,1020.88 1113.01,1020.88C1093.27,1020.88 1076.49,1015.59 1070.53,1008.25Z" style="fill:rgb(255,222,189);"/>
                    </g>
                    <g transform="matrix(0.62455,0,0,1,892.339,3.43359)">
                        <rect x="1091.41" y="976.271" width="34.75" height="33.84" style="fill:rgb(255,222,189);"/>
                    </g>
                    <g transform="matrix(1,0,0,1.03694,278.953,-26.8553)">
                        <path d="M1343.39,930.475L1267.7,930.025L1263.71,904.551L1259.54,929.953L1235.53,929.804C1235.53,929.804 1218.95,852.605 1306.32,852.605C1393.68,852.605 1377.09,929.75 1377.1,929.804L1352.7,929.804L1345.99,904.886L1343.39,930.475Z" style="fill:rgb(43,43,43);"/>
                    </g>
                    <g transform="matrix(0.927808,0,0,0.927808,115.68,70.3248)">
                        <circle cx="1513.34" cy="861.97" r="27.001" style="fill:rgb(43,43,43);"/>
                    </g>
                    <g transform="matrix(0.68117,-0.729592,1.24439,1.16181,-612.867,980.527)">
                        <path d="M1564.2,878.445C1564.2,877.217 1562.5,876.22 1560.4,876.22L1517.04,876.22C1514.94,876.22 1513.24,877.217 1513.24,878.445C1513.24,879.673 1514.94,880.67 1517.04,880.67L1560.4,880.67C1562.5,880.67 1564.2,879.673 1564.2,878.445Z" style="fill:rgb(255,96,136);"/>
                    </g>
                    <g transform="matrix(-0.927808,0,0,0.927808,3054.56,70.3248)">
                        <circle cx="1513.34" cy="861.97" r="27.001" style="fill:rgb(43,43,43);"/>
                    </g>
                    <g transform="matrix(-0.68117,-0.729592,-1.24439,1.16181,3783.11,980.527)">
                        <path d="M1564.2,878.445C1564.2,877.217 1562.5,876.22 1560.4,876.22L1517.04,876.22C1514.94,876.22 1513.24,877.217 1513.24,878.445C1513.24,879.673 1514.94,880.67 1517.04,880.67L1560.4,880.67C1562.5,880.67 1564.2,879.673 1564.2,878.445Z" style="fill:rgb(255,96,136);"/>
                    </g>
                </g>
            </g>
        </g>
    </g>
</svg>
