<?xml version="1.0" encoding="UTF-8" standalone="no"?>
<!DOCTYPE svg PUBLIC "-//W3C//DTD SVG 1.1//EN" "http://www.w3.org/Graphics/SVG/1.1/DTD/svg11.dtd">
<svg width="100%" height="100%" viewBox="0 0 270 270" version="1.1" xmlns="http://www.w3.org/2000/svg" xmlns:xlink="http://www.w3.org/1999/xlink" xml:space="preserve" style="fill-rule:evenodd;clip-rule:evenodd;stroke-linejoin:round;stroke-miterlimit:1.41421;">
    <g transform="matrix(1,0,0,1,-201,-146)">
        <g transform="matrix(4.92819,0,0,4.92819,-1604.2,-2564.89)">
            <g id="A-Button-White" transform="matrix(1,0,0,1,64.6171,203.397)">
                <g transform="matrix(1,0,0,1,-599.306,213.635)">
                    <circle cx="928.402" cy="160.507" r="27.32" style="fill:white;"/>
                </g>
                <g transform="matrix(1,0,0,1,-599.354,-308.865)">
                    <g transform="matrix(0.604643,0.604643,-0.707107,0.707107,842.508,-357.139)">
                        <path d="M947.255,674.725C947.255,673.636 946.222,672.753 944.949,672.753L917.45,672.753C916.178,672.753 915.144,673.636 915.144,674.725C915.144,675.813 916.178,676.697 917.45,676.697L944.949,676.697C946.222,676.697 947.255,675.813 947.255,674.725Z" style="fill:rgb(7,140,227);"/>
                    </g>
                    <g transform="matrix(-0.604643,0.604643,-0.707107,-0.707107,1968.6,597.066)">
                        <path d="M947.255,674.725C947.255,673.636 946.222,672.753 944.949,672.753L917.45,672.753C916.178,672.753 915.144,673.636 915.144,674.725C915.144,675.813 916.178,676.697 917.45,676.697L944.949,676.697C946.222,676.697 947.255,675.813 947.255,674.725Z" style="fill:rgb(7,140,227);"/>
                    </g>
                </g>
            </g>
        </g>
    </g>
</svg>
