<?xml version="1.0" encoding="UTF-8" standalone="no"?>
<!DOCTYPE svg PUBLIC "-//W3C//DTD SVG 1.1//EN" "http://www.w3.org/Graphics/SVG/1.1/DTD/svg11.dtd">
<svg width="100%" height="100%" viewBox="0 0 591 367" version="1.1" xmlns="http://www.w3.org/2000/svg" xmlns:xlink="http://www.w3.org/1999/xlink" xml:space="preserve" style="fill-rule:evenodd;clip-rule:evenodd;stroke-linejoin:round;stroke-miterlimit:1.41421;">
    <g transform="matrix(1,0,0,1,-4,-41)">
        <g transform="matrix(4.92819,0,0,4.92819,-1604.2,-2564.89)">
            <g id="PS4-Filled-Icon-White" transform="matrix(0.437498,0,0,0.437498,183.055,157.666)">
                <g transform="matrix(1,0,0,1,291.961,164.822)">
                    <path d="M218.641,692.125L231.653,692.125L231.658,692.11C236.361,692.599 239.799,688.864 239.799,688.864C239.799,688.864 239.84,686.287 239.768,686.295C249.873,681.15 265.864,684.538 268.74,685.542C276.17,688.136 278.593,697.36 282.816,702.121C288.818,708.888 292.209,719.871 294.65,728.205C301.239,750.702 307.482,801.233 307.482,801.233C313.72,831.368 304.87,848.255 284.56,852.622C267.56,856.278 254.234,847.379 245.102,819.404C241.589,808.645 241.415,793.968 233.785,791.9C228.91,796.105 222.562,798.65 215.625,798.65C208.185,798.65 201.423,795.724 196.428,790.959L148.826,790.959C143.83,795.724 137.069,798.65 129.629,798.65C122.692,798.65 116.344,796.105 111.469,791.9C103.839,793.968 103.664,808.645 100.152,819.404C91.02,847.379 77.693,856.278 60.693,852.622C40.384,848.255 31.534,831.368 37.771,801.233C37.771,801.233 44.014,750.702 50.603,728.205C53.044,719.871 56.436,708.888 62.438,702.121C66.66,697.36 69.083,688.136 76.514,685.542C79.39,684.538 95.38,681.15 105.485,686.295C105.414,686.287 105.455,688.864 105.455,688.864C105.455,688.864 108.892,692.599 113.595,692.11L113.601,692.125L126.613,692.125L126.613,691.14C126.613,690.147 127.419,689.34 128.413,689.34L216.84,689.34C217.834,689.34 218.641,690.147 218.641,691.14L218.641,692.125Z" style="fill:white;"/>
                </g>
                <g transform="matrix(0.452248,0,0,0.452248,-345.413,574.763)">
                    <g transform="matrix(1,0,0,1,-11.5365,0)">
                        <g transform="matrix(1.00017,0,0,1,-0.859825,0)">
                            <path d="M1630.19,670.176C1630.19,666.205 1626.97,662.981 1623,662.981L1606.39,662.981C1602.42,662.981 1599.2,666.205 1599.2,670.176L1599.2,684.564C1599.2,688.535 1602.42,691.759 1606.39,691.759L1623,691.759C1626.97,691.759 1630.19,688.535 1630.19,684.564L1630.19,670.176Z" style="fill:rgb(59,59,59);"/>
                        </g>
                        <g transform="matrix(0.917987,0,0,0.820179,131.607,126.176)">
                            <path d="M1631.03,684.719C1631.03,682.82 1598.86,683.111 1598.86,685.011C1598.86,685.011 1609.56,701.676 1611.46,701.676L1618.34,701.676C1620.24,701.676 1631.03,684.719 1631.03,684.719Z" style="fill:rgb(59,59,59);"/>
                        </g>
                    </g>
                    <g transform="matrix(6.12323e-17,1,-1,6.12323e-17,2313.84,-903.978)">
                        <g transform="matrix(1.00017,0,0,1,-0.859825,0)">
                            <path d="M1630.19,670.176C1630.19,666.205 1626.97,662.981 1623,662.981L1606.39,662.981C1602.42,662.981 1599.2,666.205 1599.2,670.176L1599.2,684.564C1599.2,688.535 1602.42,691.759 1606.39,691.759L1623,691.759C1626.97,691.759 1630.19,688.535 1630.19,684.564L1630.19,670.176Z" style="fill:rgb(59,59,59);"/>
                        </g>
                        <g transform="matrix(0.917987,0,0,0.820179,131.607,126.176)">
                            <path d="M1631.03,684.719C1631.03,682.82 1598.86,683.111 1598.86,685.011C1598.86,685.011 1609.56,701.676 1611.46,701.676L1618.34,701.676C1620.24,701.676 1631.03,684.719 1631.03,684.719Z" style="fill:rgb(59,59,59);"/>
                        </g>
                    </g>
                    <g transform="matrix(-1,-1.22465e-16,1.22465e-16,-1,3216.68,1420.37)">
                        <g transform="matrix(1.00017,0,0,1,-0.859825,0)">
                            <path d="M1630.19,670.176C1630.19,666.205 1626.97,662.981 1623,662.981L1606.39,662.981C1602.42,662.981 1599.2,666.205 1599.2,670.176L1599.2,684.564C1599.2,688.535 1602.42,691.759 1606.39,691.759L1623,691.759C1626.97,691.759 1630.19,688.535 1630.19,684.564L1630.19,670.176Z" style="fill:rgb(59,59,59);"/>
                        </g>
                        <g transform="matrix(0.917987,0,0,0.820179,131.607,126.176)">
                            <path d="M1631.03,684.719C1631.03,682.82 1598.86,683.111 1598.86,685.011C1598.86,685.011 1609.56,701.676 1611.46,701.676L1618.34,701.676C1620.24,701.676 1631.03,684.719 1631.03,684.719Z" style="fill:rgb(59,59,59);"/>
                        </g>
                    </g>
                    <g transform="matrix(6.12323e-17,-1,1,6.12323e-17,892.428,2324.24)">
                        <g transform="matrix(1.00017,0,0,1,-0.859825,0)">
                            <path d="M1630.19,670.176C1630.19,666.205 1626.97,662.981 1623,662.981L1606.39,662.981C1602.42,662.981 1599.2,666.205 1599.2,670.176L1599.2,684.564C1599.2,688.535 1602.42,691.759 1606.39,691.759L1623,691.759C1626.97,691.759 1630.19,688.535 1630.19,684.564L1630.19,670.176Z" style="fill:rgb(59,59,59);"/>
                        </g>
                        <g transform="matrix(0.917987,0,0,0.820179,131.607,126.176)">
                            <path d="M1631.03,684.719C1631.03,682.82 1598.86,683.111 1598.86,685.011C1598.86,685.011 1609.56,701.676 1611.46,701.676L1618.34,701.676C1620.24,701.676 1631.03,684.719 1631.03,684.719Z" style="fill:rgb(59,59,59);"/>
                        </g>
                    </g>
                </g>
                <g transform="matrix(0.558309,0,0,0.558309,279.479,487.303)">
                    <rect x="253.116" y="660.242" width="156.873" height="83.461" style="fill:rgb(59,59,59);"/>
                </g>
                <g transform="matrix(0.459724,0,0,0.558309,303.432,487.044)">
                    <path d="M240.074,678.724C240.074,674.844 236.247,671.693 231.535,671.693C226.822,671.693 222.996,674.844 222.996,678.724L222.996,691.047C222.996,694.928 226.822,698.079 231.535,698.079C236.247,698.079 240.074,694.928 240.074,691.047L240.074,678.724Z" style="fill:rgb(59,59,59);"/>
                </g>
                <g transform="matrix(0.459724,0,0,0.558309,410.773,487.044)">
                    <path d="M240.074,678.724C240.074,674.844 236.247,671.693 231.535,671.693C226.822,671.693 222.996,674.844 222.996,678.724L222.996,691.047C222.996,694.928 226.822,698.079 231.535,698.079C236.247,698.079 240.074,694.928 240.074,691.047L240.074,678.724Z" style="fill:rgb(59,59,59);"/>
                </g>
                <g transform="matrix(0.31284,0,0,0.31284,446.329,798.654)">
                    <g transform="matrix(1,0,0,1,-599.306,213.635)">
                        <circle cx="928.402" cy="160.507" r="27.32" style="fill:rgb(59,59,59);"/>
                    </g>
                    <g transform="matrix(1,0,0,1,-599.354,-308.865)">
                        <g transform="matrix(0.604643,0.604643,-0.707107,0.707107,842.508,-357.139)">
                            <path d="M947.255,674.725C947.255,673.636 946.222,672.753 944.949,672.753L917.45,672.753C916.178,672.753 915.144,673.636 915.144,674.725C915.144,675.813 916.178,676.697 917.45,676.697L944.949,676.697C946.222,676.697 947.255,675.813 947.255,674.725Z" style="fill:white;"/>
                        </g>
                        <g transform="matrix(-0.604643,0.604643,-0.707107,-0.707107,1968.6,597.066)">
                            <path d="M947.255,674.725C947.255,673.636 946.222,672.753 944.949,672.753L917.45,672.753C916.178,672.753 915.144,673.636 915.144,674.725C915.144,675.813 916.178,676.697 917.45,676.697L944.949,676.697C946.222,676.697 947.255,675.813 947.255,674.725Z" style="fill:white;"/>
                        </g>
                    </g>
                </g>
                <g transform="matrix(0.31284,0,0,0.31284,426.324,759.236)">
                    <g transform="matrix(1,0,0,1,-535.359,213.635)">
                        <circle cx="928.402" cy="160.507" r="27.32" style="fill:rgb(59,59,59);"/>
                    </g>
                    <g transform="matrix(1,0,0,1,-598.349,-309.407)">
                        <g transform="matrix(-0.855094,2.22045e-16,-1.11022e-16,-1,1787.65,1366.46)">
                            <path d="M947.255,674.725C947.255,673.636 946.222,672.753 944.949,672.753L917.45,672.753C916.178,672.753 915.144,673.636 915.144,674.725C915.144,675.813 916.178,676.697 917.45,676.697L944.949,676.697C946.222,676.697 947.255,675.813 947.255,674.725Z" style="fill:white;"/>
                        </g>
                        <g transform="matrix(-0.427547,0.740534,-0.866025,-0.5,1968.01,329.327)">
                            <path d="M947.255,674.725C947.255,673.636 946.222,672.753 944.949,672.753L917.45,672.753C916.178,672.753 915.144,673.636 915.144,674.725C915.144,675.813 916.178,676.697 917.45,676.697L944.949,676.697C946.222,676.697 947.255,675.813 947.255,674.725Z" style="fill:white;"/>
                        </g>
                        <g transform="matrix(0.427547,0.740534,0.866025,-0.5,14.8111,329.327)">
                            <path d="M947.255,674.725C947.255,673.636 946.222,672.753 944.949,672.753L917.45,672.753C916.178,672.753 915.144,673.636 915.144,674.725C915.144,675.813 916.178,676.697 917.45,676.697L944.949,676.697C946.222,676.697 947.255,675.813 947.255,674.725Z" style="fill:white;"/>
                        </g>
                    </g>
                </g>
                <g transform="matrix(0.31284,0,0,0.31284,466.756,759.657)">
                    <g transform="matrix(1,0,0,1,-599.306,275.292)">
                        <circle cx="928.402" cy="160.507" r="27.32" style="fill:rgb(59,59,59);"/>
                    </g>
                    <g transform="matrix(0.819727,0,0,0.819727,-432.486,-174.236)">
                        <g>
                            <path d="M929.067,726.765C938.686,726.765 946.494,734.574 946.494,744.192C946.494,753.81 938.686,761.619 929.067,761.619C919.449,761.619 911.64,753.81 911.64,744.192C911.64,734.574 919.449,726.765 929.067,726.765ZM929.067,731.045C936.323,731.045 942.214,736.936 942.214,744.192C942.214,751.448 936.323,757.339 929.067,757.339C921.811,757.339 915.92,751.448 915.92,744.192C915.92,736.936 921.811,731.045 929.067,731.045Z" style="fill:white;"/>
                        </g>
                    </g>
                </g>
                <g transform="matrix(0.31284,0,0,0.31284,405.898,759.657)">
                    <g transform="matrix(1,0,0,1,-535.359,275.292)">
                        <circle cx="928.402" cy="160.507" r="27.32" style="fill:rgb(59,59,59);"/>
                    </g>
                    <g transform="matrix(1,0,0,1,-599.562,-308.336)">
                        <g transform="matrix(-0.750534,1.94893e-16,-9.69211e-17,-0.872988,1691.49,1343.96)">
                            <path d="M947.255,674.725C947.255,673.636 946.227,672.753 944.961,672.753L917.438,672.753C916.172,672.753 915.144,673.636 915.144,674.725C915.144,675.813 916.172,676.697 917.438,676.697L944.961,676.697C946.227,676.697 947.255,675.813 947.255,674.725Z" style="fill:white;"/>
                        </g>
                        <g transform="matrix(-0.750534,1.94893e-16,-9.69211e-17,-0.872988,1691.49,1322.38)">
                            <path d="M947.255,674.725C947.255,673.636 946.227,672.753 944.961,672.753L917.438,672.753C916.172,672.753 915.144,673.636 915.144,674.725C915.144,675.813 916.172,676.697 917.438,676.697L944.961,676.697C946.227,676.697 947.255,675.813 947.255,674.725Z" style="fill:white;"/>
                        </g>
                        <g transform="matrix(-1.91554e-16,0.779789,-0.872988,-3.44218e-16,1571.29,17.9958)">
                            <path d="M947.255,674.725C947.255,673.636 946.266,672.753 945.047,672.753L917.352,672.753C916.134,672.753 915.144,673.636 915.144,674.725C915.144,675.813 916.134,676.697 917.352,676.697L945.047,676.697C946.266,676.697 947.255,675.813 947.255,674.725Z" style="fill:white;"/>
                        </g>
                        <g transform="matrix(-1.91554e-16,0.779789,-0.872988,-3.44218e-16,1591.97,17.9958)">
                            <path d="M947.255,674.725C947.255,673.636 946.266,672.753 945.047,672.753L917.352,672.753C916.134,672.753 915.144,673.636 915.144,674.725C915.144,675.813 916.134,676.697 917.352,676.697L945.047,676.697C946.266,676.697 947.255,675.813 947.255,674.725Z" style="fill:white;"/>
                        </g>
                    </g>
                </g>
                <g transform="matrix(0.364319,0,0,0.364319,319.419,647.572)">
                    <circle cx="398.524" cy="787.248" r="18.688" style="fill:rgb(59,59,59);"/>
                </g>
                <g transform="matrix(0.558309,0,0,0.558309,279.003,487.303)">
                    <g transform="matrix(0.124212,0,0,0.124212,265.728,668.076)">
                        <circle cx="398.524" cy="787.248" r="18.688" style="fill:rgb(59,59,59);"/>
                    </g>
                    <g transform="matrix(0.124212,0,0,0.124212,274.322,668.076)">
                        <circle cx="398.524" cy="787.248" r="18.688" style="fill:rgb(59,59,59);"/>
                    </g>
                    <g transform="matrix(0.124212,0,0,0.124212,282.916,668.076)">
                        <circle cx="398.524" cy="787.248" r="18.688" style="fill:rgb(59,59,59);"/>
                    </g>
                    <g transform="matrix(0.124212,0,0,0.124212,291.51,668.076)">
                        <circle cx="398.524" cy="787.248" r="18.688" style="fill:rgb(59,59,59);"/>
                    </g>
                    <g transform="matrix(0.124212,0,0,0.124212,300.104,668.076)">
                        <circle cx="398.524" cy="787.248" r="18.688" style="fill:rgb(59,59,59);"/>
                    </g>
                    <g transform="matrix(0.124212,0,0,0.124212,269.996,674.614)">
                        <circle cx="398.524" cy="787.248" r="18.688" style="fill:rgb(59,59,59);"/>
                    </g>
                    <g transform="matrix(0.124212,0,0,0.124212,278.59,674.614)">
                        <circle cx="398.524" cy="787.248" r="18.688" style="fill:rgb(59,59,59);"/>
                    </g>
                    <g transform="matrix(0.124212,0,0,0.124212,287.184,674.614)">
                        <circle cx="398.524" cy="787.248" r="18.688" style="fill:rgb(59,59,59);"/>
                    </g>
                    <g transform="matrix(0.124212,0,0,0.124212,274.361,681.178)">
                        <circle cx="398.524" cy="787.248" r="18.688" style="fill:rgb(59,59,59);"/>
                    </g>
                    <g transform="matrix(0.124212,0,0,0.124212,282.955,681.178)">
                        <circle cx="398.524" cy="787.248" r="18.688" style="fill:rgb(59,59,59);"/>
                    </g>
                    <g transform="matrix(0.124212,0,0,0.124212,291.549,681.178)">
                        <circle cx="398.524" cy="787.248" r="18.688" style="fill:rgb(59,59,59);"/>
                    </g>
                    <g transform="matrix(0.124212,0,0,0.124212,295.778,674.614)">
                        <circle cx="398.524" cy="787.248" r="18.688" style="fill:rgb(59,59,59);"/>
                    </g>
                </g>
                <g transform="matrix(0.686237,0,0,0.686237,158.142,215.828)">
                    <g transform="matrix(0.997978,0,0,0.997978,175.973,71.8885)">
                        <path d="M333.904,939.596C353.359,939.596 369.154,955.391 369.154,974.846C369.154,994.301 353.359,1010.1 333.904,1010.1C314.449,1010.1 298.654,994.301 298.654,974.846C298.654,955.391 314.449,939.596 333.904,939.596ZM333.904,948.818C348.27,948.818 359.933,960.481 359.933,974.846C359.933,989.212 348.27,1000.88 333.904,1000.88C319.539,1000.88 307.875,989.212 307.875,974.846C307.875,960.481 319.539,948.818 333.904,948.818Z" style="fill:rgb(59,59,59);"/>
                    </g>
                    <g transform="matrix(1,0,0,1,177.497,71.3506)">
                        <circle cx="331.705" cy="973.413" r="16.418" style="fill:rgb(59,59,59);"/>
                    </g>
                </g>
                <g transform="matrix(0.686237,0,0,0.686237,71.2455,215.828)">
                    <g transform="matrix(0.997978,0,0,0.997978,175.973,71.8885)">
                        <path d="M333.904,939.596C353.359,939.596 369.154,955.391 369.154,974.846C369.154,994.301 353.359,1010.1 333.904,1010.1C314.449,1010.1 298.654,994.301 298.654,974.846C298.654,955.391 314.449,939.596 333.904,939.596ZM333.904,948.818C348.27,948.818 359.933,960.481 359.933,974.846C359.933,989.212 348.27,1000.88 333.904,1000.88C319.539,1000.88 307.875,989.212 307.875,974.846C307.875,960.481 319.539,948.818 333.904,948.818Z" style="fill:rgb(59,59,59);"/>
                    </g>
                    <g transform="matrix(1,0,0,1,177.497,71.3506)">
                        <circle cx="331.705" cy="973.413" r="16.418" style="fill:rgb(59,59,59);"/>
                    </g>
                </g>
            </g>
        </g>
    </g>
</svg>
