<?xml version="1.0" encoding="UTF-8" standalone="no"?>
<!DOCTYPE svg PUBLIC "-//W3C//DTD SVG 1.1//EN" "http://www.w3.org/Graphics/SVG/1.1/DTD/svg11.dtd">
<svg width="100%" height="100%" viewBox="0 0 216 293" version="1.1" xmlns="http://www.w3.org/2000/svg" xmlns:xlink="http://www.w3.org/1999/xlink" xml:space="preserve" style="fill-rule:evenodd;clip-rule:evenodd;stroke-linejoin:round;stroke-miterlimit:1.41421;">
    <g transform="matrix(1,0,0,1,-229,-126)">
        <g transform="matrix(4.92819,0,0,4.92819,-1604.2,-2564.89)">
            <g id="Share-Button-White" transform="matrix(1,0,0,1,-1009.69,26.317)">
                <g transform="matrix(0.865934,0,0,0.865934,284.997,-24.7946)">
                    <text x="1265.82px" y="697.121px" style="font-family:'Roboto-Bold', 'Roboto';font-weight:700;font-size:16px;fill:none;">SHARE</text>
                    <text x="1265.82px" y="697.121px" style="font-family:'Roboto-Bold', 'Roboto';font-weight:700;font-size:16px;fill:white;">SHARE</text>
                </g>
                <g transform="matrix(1.04008,0,0,1,27.97,-131.603)">
                    <path d="M1333.82,663.271C1333.82,656.734 1328.72,651.427 1322.43,651.427C1316.15,651.427 1311.05,656.734 1311.05,663.271L1311.05,679.088C1311.05,685.625 1316.15,690.932 1322.43,690.932C1328.72,690.932 1333.82,685.625 1333.82,679.088L1333.82,663.271Z" style="fill:white;"/>
                </g>
            </g>
        </g>
    </g>
</svg>
