<?xml version="1.0" encoding="UTF-8" standalone="no"?>
<!DOCTYPE svg PUBLIC "-//W3C//DTD SVG 1.1//EN" "http://www.w3.org/Graphics/SVG/1.1/DTD/svg11.dtd">
<svg width="100%" height="100%" viewBox="0 0 590 101" version="1.1" xmlns="http://www.w3.org/2000/svg" xmlns:xlink="http://www.w3.org/1999/xlink" xml:space="preserve" style="fill-rule:evenodd;clip-rule:evenodd;stroke-linejoin:round;stroke-miterlimit:1.41421;">
    <g transform="matrix(1,0,0,1,-3,-2)">
        <g id="Stars_x4" transform="matrix(3.08234,0,0,3.08234,-6084.06,-3013.21)">
            <g id="Star-Icon-Inactive" transform="matrix(2.16938,0,0,2.16938,1671.42,-3544.81)">
                <path d="M219.583,2085.29C219.646,2085.11 219.807,2085 219.998,2085C220.189,2085 220.35,2085.11 220.413,2085.29L222.098,2089.98C222.16,2090.15 222.315,2090.26 222.501,2090.27L227.563,2090.4C227.753,2090.4 227.911,2090.52 227.97,2090.69C228.029,2090.87 227.971,2091.05 227.821,2091.17L223.796,2094.2C223.649,2094.31 223.591,2094.49 223.643,2094.66L225.085,2099.45C225.139,2099.62 225.075,2099.81 224.921,2099.91C224.766,2100.02 224.569,2100.03 224.412,2099.92L220.249,2097.1C220.095,2096.99 219.901,2096.99 219.747,2097.1L215.583,2099.92C215.427,2100.03 215.23,2100.02 215.075,2099.91C214.921,2099.81 214.857,2099.62 214.911,2099.45L216.353,2094.66C216.405,2094.49 216.347,2094.31 216.2,2094.2L212.175,2091.17C212.025,2091.05 211.967,2090.87 212.026,2090.69C212.085,2090.52 212.242,2090.4 212.433,2090.4L217.494,2090.27C217.681,2090.26 217.836,2090.15 217.898,2089.98L219.583,2085.29Z" style="fill:rgb(217,222,226);"/>
            </g>
            <g id="Star-Icon" transform="matrix(2.16938,0,0,2.16938,1671.42,-3544.81)">
                <path d="M201.583,2085.29C201.646,2085.11 201.807,2085 201.998,2085C202.189,2085 202.35,2085.11 202.413,2085.29L204.098,2089.98C204.16,2090.15 204.315,2090.26 204.502,2090.27L209.563,2090.4C209.753,2090.4 209.911,2090.52 209.97,2090.69C210.029,2090.87 209.971,2091.05 209.821,2091.17L205.796,2094.2C205.649,2094.31 205.591,2094.49 205.643,2094.66L207.085,2099.45C207.139,2099.62 207.075,2099.81 206.921,2099.91C206.766,2100.02 206.569,2100.03 206.412,2099.92L202.249,2097.1C202.094,2096.99 201.901,2096.99 201.747,2097.1L197.584,2099.92C197.427,2100.03 197.23,2100.02 197.075,2099.91C196.921,2099.81 196.857,2099.62 196.911,2099.45L198.353,2094.66C198.405,2094.49 198.347,2094.31 198.2,2094.2L194.175,2091.17C194.025,2091.05 193.967,2090.87 194.026,2090.69C194.085,2090.52 194.243,2090.4 194.433,2090.4L199.494,2090.27C199.681,2090.26 199.836,2090.15 199.898,2089.98L201.583,2085.29Z" style="fill:rgb(255,192,35);"/>
            </g>
            <g id="Star-Icon1" transform="matrix(2.16938,0,0,2.16938,1671.42,-3544.81)">
                <path d="M183.583,2085.29C183.646,2085.11 183.807,2085 183.998,2085C184.189,2085 184.35,2085.11 184.413,2085.29L186.098,2089.98C186.16,2090.15 186.315,2090.26 186.501,2090.27L191.563,2090.4C191.753,2090.4 191.911,2090.52 191.97,2090.69C192.029,2090.87 191.971,2091.05 191.821,2091.17L187.796,2094.2C187.65,2094.31 187.591,2094.49 187.643,2094.66L189.085,2099.45C189.139,2099.62 189.075,2099.81 188.921,2099.91C188.766,2100.02 188.569,2100.03 188.412,2099.92L184.249,2097.1C184.094,2096.99 183.901,2096.99 183.747,2097.1L179.583,2099.92C179.427,2100.03 179.23,2100.02 179.075,2099.91C178.921,2099.81 178.857,2099.62 178.911,2099.45L180.353,2094.66C180.405,2094.49 180.346,2094.31 180.2,2094.2L176.175,2091.17C176.025,2091.05 175.967,2090.87 176.026,2090.69C176.085,2090.52 176.243,2090.4 176.433,2090.4L181.494,2090.27C181.681,2090.26 181.836,2090.15 181.898,2089.98L183.583,2085.29Z" style="fill:rgb(255,192,35);"/>
            </g>
            <g id="Star-Icon2" transform="matrix(2.16938,0,0,2.16938,1671.42,-3544.81)">
                <path d="M165.583,2085.29C165.646,2085.11 165.807,2085 165.998,2085C166.189,2085 166.35,2085.11 166.413,2085.29L168.098,2089.98C168.16,2090.15 168.315,2090.26 168.502,2090.27L173.563,2090.4C173.753,2090.4 173.911,2090.52 173.97,2090.69C174.029,2090.87 173.971,2091.05 173.821,2091.17L169.796,2094.2C169.649,2094.31 169.591,2094.49 169.643,2094.66L171.085,2099.45C171.139,2099.62 171.075,2099.81 170.921,2099.91C170.766,2100.02 170.569,2100.03 170.412,2099.92L166.249,2097.1C166.094,2096.99 165.901,2096.99 165.747,2097.1L161.583,2099.92C161.427,2100.03 161.23,2100.02 161.075,2099.91C160.921,2099.81 160.857,2099.62 160.911,2099.45L162.353,2094.66C162.405,2094.49 162.347,2094.31 162.2,2094.2L158.175,2091.17C158.025,2091.05 157.967,2090.87 158.026,2090.69C158.085,2090.52 158.243,2090.4 158.433,2090.4L163.494,2090.27C163.681,2090.26 163.836,2090.15 163.898,2089.98L165.583,2085.29Z" style="fill:rgb(255,192,35);"/>
            </g>
            <g id="Star-Icon3" transform="matrix(2.16938,0,0,2.16938,1671.42,-3544.81)">
                <path d="M147.583,2085.29C147.646,2085.11 147.807,2085 147.998,2085C148.189,2085 148.35,2085.11 148.413,2085.29L150.098,2089.98C150.16,2090.15 150.315,2090.26 150.502,2090.27L155.563,2090.4C155.753,2090.4 155.911,2090.52 155.97,2090.69C156.029,2090.87 155.971,2091.05 155.821,2091.17L151.796,2094.2C151.65,2094.31 151.591,2094.49 151.643,2094.66L153.085,2099.45C153.139,2099.62 153.075,2099.81 152.921,2099.91C152.766,2100.02 152.569,2100.03 152.412,2099.92L148.249,2097.1C148.094,2096.99 147.901,2096.99 147.747,2097.1L143.583,2099.92C143.427,2100.03 143.23,2100.02 143.075,2099.91C142.921,2099.81 142.857,2099.62 142.911,2099.45L144.353,2094.66C144.405,2094.49 144.347,2094.31 144.2,2094.2L140.175,2091.17C140.025,2091.05 139.967,2090.87 140.026,2090.69C140.085,2090.52 140.243,2090.4 140.433,2090.4L145.494,2090.27C145.681,2090.26 145.836,2090.15 145.898,2089.98L147.583,2085.29Z" style="fill:rgb(255,192,35);"/>
            </g>
        </g>
    </g>
</svg>
