<?xml version="1.0" encoding="UTF-8" standalone="no"?>
<!DOCTYPE svg PUBLIC "-//W3C//DTD SVG 1.1//EN" "http://www.w3.org/Graphics/SVG/1.1/DTD/svg11.dtd">
<svg width="100%" height="100%" viewBox="0 0 130 188" version="1.1" xmlns="http://www.w3.org/2000/svg" xmlns:xlink="http://www.w3.org/1999/xlink" xml:space="preserve" style="fill-rule:evenodd;clip-rule:evenodd;stroke-linecap:round;stroke-linejoin:round;stroke-miterlimit:1.5;">
    <g transform="matrix(1,0,0,1,-35,-12)">
        <g transform="matrix(0.82747,0,0,0.82747,-1013.61,-918.644)">
            <g id="Boy_4">
                <g>
                    <g>
                        <g transform="matrix(1.13555,0,0,1.22584,1227.88,1109.91)">
                            <path d="M102.983,15.147C157.522,14.781 165.65,46.179 165.65,78.976C165.65,111.773 137.287,138.4 102.352,138.4C67.417,138.4 39.054,111.773 39.054,78.976C39.054,46.179 49.775,15.504 102.983,15.147Z" style="fill:rgb(23,23,23);"/>
                        </g>
                        <g transform="matrix(1.19599,-0.326273,0.326273,1.19599,-1185.28,722.059)">
                            <path d="M1824.1,906.977C1810.26,925.248 1815.98,956.097 1815.98,956.097C1815.98,956.097 1802.58,934.947 1812.55,903.146C1817.65,892.709 1823.52,902.929 1824.1,906.977Z" style="fill:rgb(23,23,23);"/>
                        </g>
                        <g transform="matrix(-1.19599,-0.326273,-0.326273,1.19599,3870.16,722.059)">
                            <path d="M1824.1,906.977C1810.26,925.248 1815.98,956.097 1815.98,956.097C1815.98,956.097 1802.58,934.947 1812.55,903.146C1817.65,892.709 1823.52,902.929 1824.1,906.977Z" style="fill:rgb(23,23,23);"/>
                        </g>
                        <g transform="matrix(1,0,0,1.05937,232.148,234.82)">
                            <path d="M1113.09,858.134C1148.03,858.134 1171.56,900.498 1171.56,935.436C1171.56,955.027 1160.77,965.753 1148.21,974.575C1138.37,981.486 1128.86,988.956 1113.55,990.032C1105.88,990.571 1098.56,985.643 1076.16,973.964C1063.24,967.231 1052.97,953.239 1052.97,935.293C1052.97,900.355 1078.15,858.134 1113.09,858.134Z" style="fill:rgb(255,222,189);"/>
                        </g>
                        <g transform="matrix(1,0,0,0.991792,2.27374e-13,11.0877)">
                            <path d="M1276.7,1350.81L1277.44,1331.76C1278.6,1298.81 1306.02,1288.78 1331.31,1288.78L1359,1288.78C1384.29,1288.78 1411.97,1302.26 1412.87,1331.76L1413.19,1350.81L1276.7,1350.81Z" style="fill:rgb(63,89,92);"/>
                        </g>
                        <g transform="matrix(1.2085,0,0,1.2085,1254.38,1107.02)">
                            <path d="M75.747,178.379L82.485,191.856L69.009,191.856L75.747,178.379Z" style="fill:none;stroke:white;stroke-opacity:0.494118;stroke-width:0.87px;"/>
                        </g>
                        <g transform="matrix(1,0,0,1,232.148,285.766)">
                            <path d="M1070.53,1008.25C1079.3,1004.51 1089.39,1003.02 1099.16,1003.02L1126.85,1003.02C1136.39,1003.02 1146.27,1004.93 1154.92,1008.9C1148.52,1015.9 1132.16,1020.88 1113.01,1020.88C1093.27,1020.88 1076.49,1015.59 1070.53,1008.25Z" style="fill:rgb(255,222,189);"/>
                        </g>
                        <g transform="matrix(0.62455,0,0,1,653.179,289.199)">
                            <rect x="1091.41" y="976.271" width="34.75" height="33.84" style="fill:rgb(255,222,189);"/>
                        </g>
                        <g transform="matrix(1.2085,0,0,1.3982,1220.85,1081.58)">
                            <path d="M87.26,135.656C87.26,135.656 96.335,149.068 102.613,149.594C107.481,150.003 119.302,135.865 119.302,135.865C119.302,135.865 109.116,139.598 103.653,139.494C98.115,139.389 87.26,135.656 87.26,135.656Z" style="fill:rgb(23,23,23);"/>
                        </g>
                        <g transform="matrix(1,0,0,1,250.928,-1.70769)">
                            <g transform="matrix(0.743057,-0.164979,0.183435,0.826182,44.5733,392.126)">
                                <ellipse cx="1029.73" cy="1203.72" rx="17.983" ry="25.029" style="fill:rgb(255,222,189);"/>
                            </g>
                            <g transform="matrix(-0.743057,-0.164979,-0.183435,0.826182,2145.17,392.126)">
                                <ellipse cx="1029.73" cy="1203.72" rx="17.983" ry="25.029" style="fill:rgb(255,222,189);"/>
                            </g>
                        </g>
                        <g transform="matrix(1.07341,-0.620206,-0.620206,-1.07341,-95.3002,3275.43)">
                            <path d="M1806.58,901.167C1806.58,901.167 1815.35,823.451 1875.08,811.006C1918.96,894.052 1893.57,889.937 1877.88,903.666C1859.81,919.48 1839.86,918.965 1830.63,916.086L1806.58,901.167Z" style="fill:rgb(23,23,23);"/>
                        </g>
                        <g transform="matrix(0.895894,-0.856873,0.856873,0.895894,-1105.28,1940.48)">
                            <path d="M1824.1,906.977C1810.26,925.248 1815.98,956.097 1815.98,956.097C1815.98,956.097 1802.58,934.947 1812.55,903.146C1817.65,892.709 1823.52,902.929 1824.1,906.977Z" style="fill:rgb(23,23,23);"/>
                        </g>
                        <g transform="matrix(0.895894,-0.856873,0.856873,0.895894,-1105.28,1940.48)">
                            <path d="M1824.1,906.977C1810.26,925.248 1815.98,956.097 1815.98,956.097C1815.98,956.097 1802.58,934.947 1812.55,903.146C1817.65,892.709 1823.52,902.929 1824.1,906.977Z" style="fill:rgb(23,23,23);"/>
                        </g>
                        <g transform="matrix(-0.151079,1.23046,1.23046,0.151079,501.172,-1239.49)">
                            <path d="M1824.1,906.977C1810.26,925.248 1815.98,956.097 1815.98,956.097C1815.98,956.097 1802.58,934.947 1812.55,903.146C1817.65,892.709 1823.52,902.929 1824.1,906.977Z" style="fill:rgb(23,23,23);"/>
                        </g>
                        <g transform="matrix(1.2397,0,0,1.2397,-962.026,56.8484)">
                            <path d="M1824.1,906.977C1810.26,925.248 1817.07,962.086 1817.07,962.086C1817.07,962.086 1802.58,934.947 1812.55,903.146C1817.65,892.709 1823.52,902.929 1824.1,906.977Z" style="fill:rgb(23,23,23);"/>
                        </g>
                    </g>
                </g>
            </g>
        </g>
    </g>
</svg>
