<?xml version="1.0" encoding="UTF-8" standalone="no"?>
<!DOCTYPE svg PUBLIC "-//W3C//DTD SVG 1.1//EN" "http://www.w3.org/Graphics/SVG/1.1/DTD/svg11.dtd">
<svg width="100%" height="100%" viewBox="0 0 182 200" version="1.1" xmlns="http://www.w3.org/2000/svg" xmlns:xlink="http://www.w3.org/1999/xlink" xml:space="preserve" style="fill-rule:evenodd;clip-rule:evenodd;stroke-linejoin:round;stroke-miterlimit:1.41421;">
    <g transform="matrix(1,0,0,1,-9,0)">
        <g transform="matrix(2.32485,0,0,2.32485,0,0)">
            <g id="Boy_3" transform="matrix(0.355722,0,0,0.355722,-346.634,-393.873)">
                <g transform="matrix(1,0,0,1,196.063,303.145)">
                    <path d="M1008.6,807.431C1008.6,806.225 1007.62,805.245 1006.41,805.245L792.2,805.245C790.993,805.245 790.014,806.225 790.014,807.431L790.014,1042.61C790.014,1043.82 790.993,1044.8 792.2,1044.8L1006.41,1044.8C1007.62,1044.8 1008.6,1043.82 1008.6,1042.61L1008.6,807.431Z" style="fill:white;fill-opacity:0.0784314;"/>
                </g>
                <g transform="matrix(1,0,0,1,-0.85216,0)">
                    <g transform="matrix(1,0,0,1,1.36417,271.305)">
                        <path d="M1026.35,1076.64L1027.46,1048.08C1028.61,1015.13 1056.04,1005.1 1081.33,1005.1L1109.01,1005.1C1134.3,1005.1 1161.99,1018.58 1162.88,1048.08L1163.37,1076.64L1026.35,1076.64Z" style="fill:rgb(43,43,38);"/>
                    </g>
                    <g transform="matrix(1,0,0,1.03539,-18.2192,243.022)">
                        <path d="M1113.09,858.134C1148.03,858.134 1176.39,899.941 1176.39,934.879C1176.39,969.817 1148.03,984.739 1113.09,984.739C1078.15,984.739 1049.79,969.817 1049.79,934.879C1049.79,899.941 1078.15,858.134 1113.09,858.134Z" style="fill:rgb(255,222,189);"/>
                    </g>
                    <g transform="matrix(1,0,0,1,1.34961,0)">
                        <g transform="matrix(0.743057,-0.164979,0.183435,0.826182,44.5733,392.126)">
                            <ellipse cx="1029.73" cy="1203.72" rx="17.983" ry="25.029" style="fill:rgb(255,222,189);"/>
                        </g>
                        <g transform="matrix(-0.743057,-0.164979,-0.183435,0.826182,2145.17,392.126)">
                            <ellipse cx="1029.73" cy="1203.72" rx="17.983" ry="25.029" style="fill:rgb(255,222,189);"/>
                        </g>
                    </g>
                    <g transform="matrix(1,0,0,1,-16.5038,273.391)">
                        <path d="M1070.53,1008.25C1079.3,1004.51 1089.39,1003.02 1099.16,1003.02L1126.85,1003.02C1136.39,1003.02 1146.27,1004.93 1154.92,1008.9C1148.52,1015.9 1132.16,1020.88 1113.01,1020.88C1093.27,1020.88 1076.49,1015.59 1070.53,1008.25Z" style="fill:rgb(255,222,189);"/>
                    </g>
                    <g transform="matrix(0.62455,0,0,1,403.195,276.824)">
                        <rect x="1091.41" y="976.271" width="34.75" height="33.84" style="fill:rgb(255,222,189);"/>
                    </g>
                    <g transform="matrix(2.22616,0,0,2.08092,-3216.15,-562.483)">
                        <path d="M1907.39,847.396C1907.33,846.532 1907.3,845.659 1907.3,844.777C1907.3,826.462 1913.14,811.593 1937.13,811.593C1961.12,811.593 1966.97,826.462 1966.97,844.777C1966.97,847.692 1966.63,850.519 1965.99,853.213C1961.52,850.78 1957.26,846.481 1954.24,840.851C1952.43,837.485 1951.27,834.014 1950.72,830.681C1947.35,833.67 1943.38,836.538 1938.95,839.095C1927.3,845.822 1915.39,848.704 1907.39,847.396Z" style="fill:rgb(111,75,54);"/>
                    </g>
                    <g transform="matrix(2.66081,0,0,2.22616,-4055.77,-699.097)">
                        <path d="M1936.25,870.715C1942.02,870.7 1945.5,876.396 1950.2,875.998C1955.33,875.564 1958.55,867.322 1958.55,867.322C1956.26,885.19 1943.44,889.764 1936.25,889.727C1929.06,889.764 1916.24,885.19 1913.95,867.322C1913.95,867.322 1917.17,875.564 1922.3,875.998C1927,876.396 1930.48,870.7 1936.25,870.715Z" style="fill:rgb(111,75,54);"/>
                    </g>
                </g>
            </g>
        </g>
    </g>
</svg>
