<?xml version="1.0" encoding="UTF-8" standalone="no"?>
<!DOCTYPE svg PUBLIC "-//W3C//DTD SVG 1.1//EN" "http://www.w3.org/Graphics/SVG/1.1/DTD/svg11.dtd">
<svg width="100%" height="100%" viewBox="0 0 182 199" version="1.1" xmlns="http://www.w3.org/2000/svg" xmlns:xlink="http://www.w3.org/1999/xlink" xml:space="preserve" style="fill-rule:evenodd;clip-rule:evenodd;stroke-linejoin:round;stroke-miterlimit:1.41421;">
    <g transform="matrix(1,0,0,1,-9,0)">
        <g transform="matrix(2.32485,0,0,2.32485,0,0)">
            <g id="Girl_2" transform="matrix(0.355722,0,0,0.355722,-260.274,-297.735)">
                <g transform="matrix(1,0,0,1,-46.7109,31.8399)">
                    <path d="M1008.6,807.431C1008.6,806.225 1007.62,805.245 1006.41,805.245L792.2,805.245C790.993,805.245 790.014,806.225 790.014,807.431L790.014,1042.61C790.014,1043.82 790.993,1044.8 792.2,1044.8L1006.41,1044.8C1007.62,1044.8 1008.6,1043.82 1008.6,1042.61L1008.6,807.431Z" style="fill:white;fill-opacity:0.0784314;"/>
                </g>
                <g transform="matrix(1,0,0,1,-2.73863,0)">
                    <g transform="matrix(1,0,0,0.971316,-258.379,49.1266)">
                        <path d="M1112.43,827.228C1159.81,827.228 1198.27,885.797 1198.27,934.765C1198.27,983.732 1159.81,1004.67 1112.43,1004.67C1065.06,1004.67 1026.61,983.732 1026.61,934.765C1026.61,885.797 1065.06,827.228 1112.43,827.228Z" style="fill:rgb(90,60,43);"/>
                    </g>
                    <g transform="matrix(1,0,0,1.03539,-258.379,-4.97025)">
                        <path d="M1113.09,858.134C1148.03,858.134 1176.39,899.941 1176.39,934.879C1176.39,969.817 1148.03,984.739 1113.09,984.739C1078.15,984.739 1049.79,969.817 1049.79,934.879C1049.79,899.941 1078.15,858.134 1113.09,858.134Z" style="fill:rgb(255,222,189);"/>
                    </g>
                    <g transform="matrix(1,0,0,1,-258.379,8.69792)">
                        <path d="M1027.96,935.982L1060.6,877.509L1114.03,863.906L1168.33,876.582L1183.19,938.895C1168.58,942.373 1151.88,941.921 1135.26,936.713C1112.44,929.559 1094.61,914.944 1085.15,897.828C1078.52,913.84 1070.3,928.927 1038.9,937.047C1035.28,937.985 1031.5,936.68 1027.96,935.982Z" style="fill:rgb(90,60,43);"/>
                    </g>
                    <path d="M922.912,1076.64L785.602,1076.64L786.914,1071.4C788.068,1038.45 815.496,1028.42 840.786,1028.42L868.47,1028.42C893.76,1028.42 921.446,1041.9 922.342,1071.4L922.912,1076.64Z" style="fill:rgb(138,224,77);"/>
                    <g transform="matrix(1,0,0,1,-258.379,25.3984)">
                        <path d="M1070.53,1008.25C1079.3,1004.51 1089.39,1003.02 1099.16,1003.02L1126.85,1003.02C1136.39,1003.02 1146.27,1004.93 1154.92,1008.9C1148.52,1015.9 1132.16,1020.88 1113.01,1020.88C1093.27,1020.88 1076.49,1015.59 1070.53,1008.25Z" style="fill:rgb(255,222,189);"/>
                    </g>
                    <g transform="matrix(0.62455,0,0,1,162.652,28.832)">
                        <rect x="1091.41" y="976.271" width="34.75" height="33.84" style="fill:rgb(255,222,189);"/>
                    </g>
                    <g transform="matrix(1.37811,0,0,1.37811,-1251.38,-373.172)">
                        <path d="M1554.97,1018.72C1554.97,1018.72 1553,1011.67 1553.25,1010.29C1553.5,1008.91 1557.86,1001.01 1566.02,1000.75C1574.17,1000.49 1575.45,1004.22 1575.45,1004.22L1578.24,1010.98C1578.24,1010.98 1562.11,1008.31 1554.97,1018.72Z" style="fill:rgb(0,223,212);"/>
                    </g>
                    <g transform="matrix(1,0,0,1,-261.626,-3.1901)">
                        <path d="M1084.66,897.353C1084.66,897.353 1091.15,942.991 1137.71,961.98C1129.63,933.045 1129.8,917.707 1129.8,917.707L1084.66,897.353Z" style="fill:rgb(90,60,43);"/>
                    </g>
                    <g transform="matrix(-0.216572,0.375113,-0.375113,-0.216572,1399.53,651.105)">
                        <path d="M1084.66,897.353C1084.66,897.353 1101.9,971.258 1148.47,990.248C1117.74,944.318 1129.8,917.707 1129.8,917.707L1084.66,897.353Z" style="fill:rgb(90,60,43);"/>
                    </g>
                    <g transform="matrix(-0.416714,-0.118164,0.118164,-0.416714,1180.09,1395.65)">
                        <path d="M1084.66,897.353C1084.66,897.353 1101.9,971.258 1148.47,990.248C1117.74,944.318 1129.8,917.707 1129.8,917.707L1084.66,897.353Z" style="fill:rgb(90,60,43);"/>
                    </g>
                    <g transform="matrix(1,0,0,0.999973,0,0.0278962)">
                        <path d="M933.707,1076.64L899.245,1076.64C894.248,1067.4 887.14,1057.99 887.71,1046.67C888.807,1024.88 900.129,1017.09 915.793,1017.46C937.894,1017.99 952.738,1051.13 933.707,1076.64Z" style="fill:rgb(90,60,43);"/>
                    </g>
                </g>
            </g>
        </g>
    </g>
</svg>
