<?xml version="1.0" encoding="UTF-8" standalone="no"?>
<!DOCTYPE svg PUBLIC "-//W3C//DTD SVG 1.1//EN" "http://www.w3.org/Graphics/SVG/1.1/DTD/svg11.dtd">
<svg width="100%" height="100%" viewBox="0 0 182 199" version="1.1" xmlns="http://www.w3.org/2000/svg" xmlns:xlink="http://www.w3.org/1999/xlink" xml:space="preserve" style="fill-rule:evenodd;clip-rule:evenodd;stroke-linejoin:round;stroke-miterlimit:1.41421;">
    <g transform="matrix(1,0,0,1,-9,0)">
        <g transform="matrix(2.32485,0,0,2.32485,0,0)">
            <g id="Girl_3" transform="matrix(1,0,0,1,-1439.39,-520.999)">
                <g transform="matrix(0.355722,0,0,0.355722,1162.54,234.921)">
                    <path d="M1008.6,807.431C1008.6,806.225 1007.62,805.245 1006.41,805.245L792.2,805.245C790.993,805.245 790.014,806.225 790.014,807.431L790.014,1042.61C790.014,1043.82 790.993,1044.8 792.2,1044.8L1006.41,1044.8C1007.62,1044.8 1008.6,1043.82 1008.6,1042.61L1008.6,807.431Z" style="fill:white;fill-opacity:0.0784314;"/>
                </g>
                <g transform="matrix(0.666742,0,0,0.666742,27.9187,92.3015)">
                    <g transform="matrix(0.220494,0.0691807,0.0691807,-0.220494,1881.27,785.109)">
                        <path d="M1084.66,897.353C1084.66,897.353 1101.9,971.258 1148.47,990.248C1117.74,944.318 1129.8,917.707 1129.8,917.707L1084.66,897.353Z" style="fill:rgb(43,43,43);"/>
                    </g>
                    <g transform="matrix(0.744722,0.279443,-0.24149,0.643576,783.719,-317.3)">
                        <path d="M2063.09,743.092C2054.89,746.235 2045.61,744.642 2042.97,744.14C2055.75,731.938 2052.05,723.587 2052.36,709.876C2052.66,696.166 2064.01,693.943 2068.29,695.406C2076.3,698.144 2090.66,733.571 2060.14,749.833C2061.5,747.242 2062.45,745.012 2063.09,743.092Z" style="fill:rgb(43,43,43);"/>
                    </g>
                    <g transform="matrix(-0.744722,0.279443,0.24149,0.643576,3579.13,-317.3)">
                        <path d="M2063.09,743.092C2054.89,746.235 2045.61,744.642 2042.97,744.14C2055.75,731.938 2052.05,723.587 2052.36,709.876C2052.66,696.166 2064.01,693.943 2068.29,695.406C2076.3,698.144 2090.66,733.571 2060.14,749.833C2061.5,747.242 2062.45,745.012 2063.09,743.092Z" style="fill:rgb(43,43,43);"/>
                    </g>
                    <g transform="matrix(0.533523,0,0,0.552404,1588.12,180.716)">
                        <path d="M1113.09,858.134C1148.03,858.134 1176.39,899.941 1176.39,934.879C1176.39,969.817 1148.03,984.739 1113.09,984.739C1078.15,984.739 1049.79,969.817 1049.79,934.879C1049.79,899.941 1078.15,858.134 1113.09,858.134Z" style="fill:rgb(255,222,189);"/>
                    </g>
                    <g transform="matrix(0.533523,0,0,0.533523,1597.54,48.4609)">
                        <g transform="matrix(0.743057,-0.164979,0.183435,0.826182,44.5733,392.126)">
                            <ellipse cx="1029.73" cy="1203.72" rx="17.983" ry="25.029" style="fill:rgb(255,222,189);"/>
                        </g>
                        <g transform="matrix(-0.743057,-0.164979,-0.183435,0.826182,2145.17,392.126)">
                            <ellipse cx="1029.73" cy="1203.72" rx="17.983" ry="25.029" style="fill:rgb(255,222,189);"/>
                        </g>
                    </g>
                    <g transform="matrix(0.533523,0,0,1.08123,1465.71,-306.139)">
                        <path d="M1414.15,920.207C1415.49,941.303 1403.39,949.608 1403.39,949.608L1398.77,921.846C1398.77,921.846 1413.85,915.526 1414.15,920.207Z" style="fill:rgb(43,43,43);"/>
                    </g>
                    <g transform="matrix(-0.533523,0,0,1.08123,2898.17,-306.139)">
                        <path d="M1414.15,920.207C1415.49,941.303 1403.39,949.608 1403.39,949.608L1398.77,921.846C1398.77,921.846 1413.85,915.526 1414.15,920.207Z" style="fill:rgb(43,43,43);"/>
                    </g>
                    <g transform="matrix(0.533523,0,0,0.533523,1465.71,196.918)">
                        <path d="M1273.56,1076.64L1274.75,1045.99C1275.9,1013.04 1303.33,1003.02 1328.62,1003.02L1356.3,1003.02C1381.59,1003.02 1409.28,1016.49 1410.17,1045.99L1410.69,1076.64L1273.56,1076.64Z" style="fill:rgb(101,163,180);"/>
                    </g>
                    <g transform="matrix(0.533523,0,0,0.533523,1588.12,196.918)">
                        <path d="M1070.53,1008.25C1079.3,1004.51 1089.39,1003.02 1099.16,1003.02L1126.85,1003.02C1136.39,1003.02 1146.27,1004.93 1154.92,1008.9C1148.52,1015.9 1132.16,1020.88 1113.01,1020.88C1093.27,1020.88 1076.49,1015.59 1070.53,1008.25Z" style="fill:rgb(255,222,189);"/>
                    </g>
                    <g transform="matrix(0.333212,0,0,0.533523,1812.75,198.75)">
                        <rect x="1091.41" y="976.271" width="34.75" height="33.84" style="fill:rgb(255,222,189);"/>
                    </g>
                    <g transform="matrix(0.533523,0,0,0.553232,1484.96,182.59)">
                        <path d="M1332.58,924.793L1235.53,924.793C1235.53,924.793 1218.95,852.605 1306.32,852.605C1393.68,852.605 1377.09,924.738 1377.1,924.793L1350.64,924.793L1336.04,892.386L1332.58,924.793Z" style="fill:rgb(43,43,43);"/>
                    </g>
                </g>
            </g>
        </g>
    </g>
</svg>
