<?xml version="1.0" encoding="UTF-8" standalone="no"?>
<!DOCTYPE svg PUBLIC "-//W3C//DTD SVG 1.1//EN" "http://www.w3.org/Graphics/SVG/1.1/DTD/svg11.dtd">
<svg width="100%" height="100%" viewBox="0 0 202 222" version="1.1" xmlns="http://www.w3.org/2000/svg" xmlns:xlink="http://www.w3.org/1999/xlink" xml:space="preserve" style="fill-rule:evenodd;clip-rule:evenodd;stroke-linejoin:round;stroke-miterlimit:1.41421;">
    <g transform="matrix(1,0,0,1,1,11)">
        <g transform="matrix(2.32485,0,0,2.32485,0,0)">
            <g id="Boy_1" transform="matrix(0.397363,0,0,0.397363,-409.98,-446.154)">
                <clipPath id="_clip1">
                    <circle cx="1140" cy="1231.03" r="108.248"/>
                </clipPath>
                <g clip-path="url(#_clip1)">
                    <g transform="matrix(1,0,0,1,-201.705,0)">
                        <g transform="matrix(1,0,0,1,442.398,306.012)">
                            <path d="M1008.6,807.431C1008.6,806.225 1007.62,805.245 1006.41,805.245L792.2,805.245C790.993,805.245 790.014,806.225 790.014,807.431L790.014,1042.61C790.014,1043.82 790.993,1044.8 792.2,1044.8L1006.41,1044.8C1007.62,1044.8 1008.6,1043.82 1008.6,1042.61L1008.6,807.431Z" style="fill:rgb(162,214,227);"/>
                        </g>
                        <g>
                            <g transform="matrix(1,0,0,1.03539,232.148,255.397)">
                                <path d="M1113.09,858.134C1148.03,858.134 1176.39,899.941 1176.39,934.879C1176.39,969.817 1148.03,984.739 1113.09,984.739C1078.15,984.739 1049.79,969.817 1049.79,934.879C1049.79,899.941 1078.15,858.134 1113.09,858.134Z" style="fill:rgb(255,222,189);"/>
                            </g>
                            <path d="M1276.7,1350.81L1277.44,1331.76C1278.6,1298.81 1306.02,1288.78 1331.31,1288.78L1359,1288.78C1384.29,1288.78 1411.97,1302.26 1412.87,1331.76L1413.19,1350.81L1276.7,1350.81Z" style="fill:rgb(0,146,139);"/>
                            <g transform="matrix(1,0,0,1,232.148,285.766)">
                                <path d="M1070.53,1008.25C1079.3,1004.51 1089.39,1003.02 1099.16,1003.02L1126.85,1003.02C1136.39,1003.02 1146.27,1004.93 1154.92,1008.9C1148.52,1015.9 1132.16,1020.88 1113.01,1020.88C1093.27,1020.88 1076.49,1015.59 1070.53,1008.25Z" style="fill:rgb(255,222,189);"/>
                            </g>
                            <g transform="matrix(0.62455,0,0,1,653.179,289.199)">
                                <rect x="1091.41" y="976.271" width="34.75" height="33.84" style="fill:rgb(255,222,189);"/>
                            </g>
                            <g transform="matrix(1,0,0,1,250.928,-1.70769)">
                                <g transform="matrix(0.743057,-0.164979,0.183435,0.826182,44.5733,392.126)">
                                    <ellipse cx="1029.73" cy="1203.72" rx="17.983" ry="25.029" style="fill:rgb(255,222,189);"/>
                                </g>
                                <g transform="matrix(-0.743057,-0.164979,-0.183435,0.826182,2145.17,392.126)">
                                    <ellipse cx="1029.73" cy="1203.72" rx="17.983" ry="25.029" style="fill:rgb(255,222,189);"/>
                                </g>
                            </g>
                            <g transform="matrix(1.2397,0,0,1.2397,-959.961,56.8484)">
                                <path d="M1818.27,896.947C1818.27,896.947 1834.86,862.981 1877.39,862.053C1854.96,875.693 1849.15,895.106 1849.15,895.106L1818.27,896.947Z" style="fill:rgb(182,107,62);"/>
                            </g>
                            <g transform="matrix(1.16276,0.429928,-0.429928,1.16276,-416.675,-667.021)">
                                <path d="M1824.61,891.481C1824.61,891.481 1833.5,863.384 1877.39,862.053C1854.96,875.693 1849.15,895.106 1849.15,895.106L1824.61,891.481Z" style="fill:rgb(182,107,62);"/>
                            </g>
                            <g transform="matrix(0.861219,-0.891717,0.891717,0.861219,-1083.81,2073.82)">
                                <path d="M1834.86,883.899C1834.86,883.899 1851.26,858.841 1877.39,862.053C1854.96,875.693 1863.19,880.575 1863.19,880.575L1834.86,883.899Z" style="fill:rgb(182,107,62);"/>
                            </g>
                            <g transform="matrix(1.07341,0.620206,-0.620206,1.07341,-71.5764,-935.056)">
                                <path d="M1824.61,891.481C1824.61,891.481 1838.13,861.575 1877.68,859.023C1855.25,872.664 1849.15,895.106 1849.15,895.106L1824.61,891.481Z" style="fill:rgb(182,107,62);"/>
                            </g>
                            <g transform="matrix(1.07341,-0.620206,-0.620206,-1.07341,-95.3002,3275.43)">
                                <path d="M1815.46,905.471C1815.46,905.471 1845.89,841.255 1914.59,863.249C1882.79,895.53 1839.14,910.637 1839.14,910.637L1815.46,905.471Z" style="fill:rgb(182,107,62);"/>
                            </g>
                            <g transform="matrix(-1.2397,0,0,1.2397,3651.1,56.8484)">
                                <path d="M1824.1,906.977C1810.26,925.248 1815.98,956.097 1815.98,956.097C1815.98,956.097 1802.58,934.947 1812.55,903.146C1817.65,892.709 1823.52,902.929 1824.1,906.977Z" style="fill:rgb(182,107,62);"/>
                            </g>
                            <g transform="matrix(1.2397,0,0,1.2397,-962.026,56.8484)">
                                <path d="M1824.1,906.977C1810.26,925.248 1815.98,956.097 1815.98,956.097C1815.98,956.097 1802.58,934.947 1812.55,903.146C1817.65,892.709 1823.52,902.929 1824.1,906.977Z" style="fill:rgb(182,107,62);"/>
                            </g>
                            <g transform="matrix(1,0,0,1.2566,1.01719,-325.076)">
                                <path d="M1344.64,1273.27C1367.14,1272.59 1377.52,1268.77 1377.52,1268.77C1377.52,1268.77 1355.59,1281.19 1344.63,1281.19C1333.67,1281.19 1311.75,1268.77 1311.75,1268.77C1311.75,1268.77 1322.13,1272.59 1344.64,1273.27Z" style="fill:rgb(182,107,62);"/>
                            </g>
                        </g>
                    </g>
                </g>
            </g>
        </g>
    </g>
</svg>
