<?xml version="1.0" encoding="UTF-8" standalone="no"?>
<!DOCTYPE svg PUBLIC "-//W3C//DTD SVG 1.1//EN" "http://www.w3.org/Graphics/SVG/1.1/DTD/svg11.dtd">
<svg width="100%" height="100%" viewBox="0 0 202 224" version="1.1" xmlns="http://www.w3.org/2000/svg" xmlns:xlink="http://www.w3.org/1999/xlink" xml:space="preserve" style="fill-rule:evenodd;clip-rule:evenodd;stroke-linejoin:round;stroke-miterlimit:1.41421;">
    <g transform="matrix(1,0,0,1,1,12)">
        <g transform="matrix(2.32485,0,0,2.32485,0,0)">
            <g id="Girl_2" transform="matrix(0.397363,0,0,0.397363,-392.245,-336.749)">
                <clipPath id="_clip1">
                    <circle cx="1095.37" cy="956.862" r="108.248"/>
                </clipPath>
                <g clip-path="url(#_clip1)">
                    <g transform="matrix(1,0,0,1,196.063,31.8399)">
                        <path d="M1008.6,807.431C1008.6,806.225 1007.62,805.245 1006.41,805.245L792.2,805.245C790.993,805.245 790.014,806.225 790.014,807.431L790.014,1042.61C790.014,1043.82 790.993,1044.8 792.2,1044.8L1006.41,1044.8C1007.62,1044.8 1008.6,1043.82 1008.6,1042.61L1008.6,807.431Z" style="fill:rgb(162,214,227);"/>
                    </g>
                    <g transform="matrix(1,0,0,1,-0.0342001,0)">
                        <g transform="matrix(1,0,0,1.47216,-20.7715,-449.451)">
                            <g transform="matrix(0.799418,0.207829,-0.207829,0.799418,346.62,-7.26027)">
                                <path d="M1109.58,858.254C1109.58,858.254 1078.94,947.344 1140.61,966.653C1126.29,940.232 1129.8,917.707 1129.8,917.707L1109.58,858.254Z" style="fill:rgb(139,126,90);"/>
                            </g>
                            <g transform="matrix(0.824002,0.0572988,-0.0572988,0.824002,193.34,146.185)">
                                <path d="M1110.66,855.491C1110.66,855.491 1063.07,945.572 1134.89,956.184C1129.89,932.437 1129.8,917.707 1129.8,917.707L1110.66,855.491Z" style="fill:rgb(139,126,90);"/>
                            </g>
                            <g transform="matrix(0.824002,0.0572988,-0.0572988,0.824002,208.339,142.336)">
                                <path d="M1110.66,855.491C1110.66,855.491 1044.64,955.16 1133.79,961.539C1143.87,962.261 1170.82,962.089 1170.11,957.362C1167.98,943.218 1129.8,917.707 1129.8,917.707L1110.66,855.491Z" style="fill:rgb(139,126,90);"/>
                            </g>
                        </g>
                        <g transform="matrix(-1,0,0,1.47216,2212.05,-449.451)">
                            <g transform="matrix(0.799418,0.207829,-0.207829,0.799418,346.62,-7.26027)">
                                <path d="M1108.47,862.563C1108.47,862.563 1078.94,947.344 1140.61,966.653C1126.29,940.232 1129.8,917.707 1129.8,917.707L1108.47,862.563Z" style="fill:rgb(139,126,90);"/>
                            </g>
                            <g transform="matrix(0.824002,0.0572988,-0.0572988,0.824002,193.34,146.185)">
                                <path d="M1110.66,855.491C1110.66,855.491 1063.07,945.572 1134.89,956.184C1129.89,932.437 1129.8,917.707 1129.8,917.707L1110.66,855.491Z" style="fill:rgb(139,126,90);"/>
                            </g>
                            <g transform="matrix(0.824002,0.0572988,-0.0572988,0.824002,208.339,142.336)">
                                <path d="M1110.66,855.491C1110.66,855.491 1044.64,955.16 1133.79,961.539C1143.87,962.261 1170.82,962.089 1170.11,957.362C1167.98,943.218 1129.8,917.707 1129.8,917.707L1110.66,855.491Z" style="fill:rgb(139,126,90);"/>
                            </g>
                        </g>
                        <path d="M1026.35,1076.64L1027.46,1048.08C1028.61,1015.13 1056.04,1005.1 1081.33,1005.1L1109.01,1005.1C1134.3,1005.1 1161.99,1018.58 1162.88,1048.08L1163.37,1076.64L1026.35,1076.64Z" style="fill:rgb(167,74,66);"/>
                        <g transform="matrix(1.7023,0,0,2.09276,-1533.7,-829.821)">
                            <path d="M1544.58,797.451C1587.05,797.451 1588.14,820.365 1588.14,841.506C1588.14,862.647 1568.62,874.06 1544.58,874.06C1520.53,874.06 1501.01,862.647 1501.01,841.506C1501.01,820.365 1502.1,797.451 1544.58,797.451Z" style="fill:rgb(139,126,90);"/>
                        </g>
                        <g transform="matrix(1,0,0,1.03539,-17.8359,-28.2828)">
                            <path d="M1113.09,858.134C1148.03,858.134 1176.39,899.941 1176.39,934.879C1176.39,969.817 1148.03,984.739 1113.09,984.739C1078.15,984.739 1049.79,969.817 1049.79,934.879C1049.79,899.941 1078.15,858.134 1113.09,858.134Z" style="fill:rgb(255,222,189);"/>
                        </g>
                        <g transform="matrix(1,0,0,1,-17.8359,2.08594)">
                            <path d="M1070.53,1008.25C1079.3,1004.51 1089.39,1003.02 1099.16,1003.02L1126.85,1003.02C1136.39,1003.02 1146.27,1004.93 1154.92,1008.9C1148.52,1015.9 1132.16,1020.88 1113.01,1020.88C1093.27,1020.88 1076.49,1015.59 1070.53,1008.25Z" style="fill:rgb(255,222,189);"/>
                        </g>
                        <g transform="matrix(0.62455,0,0,1,403.195,5.51953)">
                            <rect x="1091.41" y="976.271" width="34.75" height="33.84" style="fill:rgb(255,222,189);"/>
                        </g>
                        <g transform="matrix(-1.00944,0.0701936,0.0701936,1.00944,2139.44,-105.592)">
                            <path d="M1062.5,894.52C1062.5,894.52 1045.43,977.149 1141.37,956.286C1123.56,938.933 1129.8,917.707 1129.8,917.707L1062.5,894.52Z" style="fill:rgb(139,126,90);"/>
                        </g>
                        <g transform="matrix(1,0,0,1,-17.8359,2.08594)">
                            <path d="M1061.72,905.101L1060.51,888.922L1071.81,869.982L1091.1,856.433L1126.89,854.369L1146.01,862.371L1158.88,879.767L1147.4,900.47L1114.52,907.775L1084.82,907.775L1061.72,905.101Z" style="fill:rgb(139,126,90);"/>
                        </g>
                        <g transform="matrix(-1.00944,0.0701936,0.0701936,1.00944,2196.7,-105.836)">
                            <path d="M1115.78,894.309C1115.78,894.309 1045.43,977.149 1141.37,956.286C1123.56,938.933 1129.8,917.707 1129.8,917.707L1115.78,894.309Z" style="fill:rgb(139,126,90);"/>
                        </g>
                        <g transform="matrix(-1.00944,0.0701936,0.0701936,1.00944,2097.31,-106.153)">
                            <path d="M1083.55,889.733C1083.55,889.733 1059.57,953.018 1126.93,959.23C1121.02,945.619 1112.99,916.516 1105.43,914.139L1083.55,889.733Z" style="fill:rgb(139,126,90);"/>
                        </g>
                        <g transform="matrix(0.088674,1.4112,-1.00989,0.063457,1879.47,-727.989)">
                            <path d="M1068.67,884.017C1068.67,884.017 1065.34,952.369 1132.7,958.581C1126.79,944.97 1112.99,916.516 1105.43,914.139L1068.67,884.017Z" style="fill:rgb(139,126,90);"/>
                        </g>
                        <g transform="matrix(-0.0900876,1.4337,1.00989,0.063457,312.935,-753.472)">
                            <path d="M1068.67,884.017C1068.67,884.017 1065.34,952.369 1132.7,958.581C1126.79,944.97 1112.99,916.516 1105.43,914.139L1068.67,884.017Z" style="fill:rgb(139,126,90);"/>
                        </g>
                    </g>
                </g>
            </g>
        </g>
    </g>
</svg>
