<?xml version="1.0" encoding="UTF-8" standalone="no"?>
<!DOCTYPE svg PUBLIC "-//W3C//DTD SVG 1.1//EN" "http://www.w3.org/Graphics/SVG/1.1/DTD/svg11.dtd">
<svg width="100%" height="100%" viewBox="0 0 289 289" version="1.1" xmlns="http://www.w3.org/2000/svg" xmlns:xlink="http://www.w3.org/1999/xlink" xml:space="preserve" style="fill-rule:evenodd;clip-rule:evenodd;stroke-linejoin:round;stroke-miterlimit:1.41421;">
    <g transform="matrix(1,0,0,1,-192,-137)">
        <g transform="matrix(4.92819,0,0,4.92819,-1785.25,-662.136)">
            <g id="A-Button-Green-Dark" transform="matrix(0.883665,0,0,0.883665,-381.174,-906.238)">
                <g transform="matrix(0.780325,0,0,0.780325,727.084,804.561)">
                    <circle cx="245.269" cy="560.831" r="42.382" style="fill:rgb(59,59,59);"/>
                </g>
                <g transform="matrix(2.70277,0,0,2.70277,286.332,492.97)">
                    <path d="M235.425,279.713L232.343,279.713L231.757,281.471L229.888,281.471L233.064,272.94L234.693,272.94L237.886,281.471L236.017,281.471L235.425,279.713ZM232.818,278.289L234.951,278.289L233.878,275.096L232.818,278.289Z" style="fill:rgb(3,189,91);fill-rule:nonzero;"/>
                </g>
            </g>
        </g>
    </g>
</svg>
