<?xml version="1.0" encoding="UTF-8" standalone="no"?>
<!DOCTYPE svg PUBLIC "-//W3C//DTD SVG 1.1//EN" "http://www.w3.org/Graphics/SVG/1.1/DTD/svg11.dtd">
<svg width="100%" height="100%" viewBox="0 0 327 250" version="1.1" xmlns="http://www.w3.org/2000/svg" xmlns:xlink="http://www.w3.org/1999/xlink" xml:space="preserve" style="fill-rule:evenodd;clip-rule:evenodd;stroke-linejoin:round;stroke-miterlimit:1.41421;">
    <g transform="matrix(1,0,0,1,-173,-156)">
        <g transform="matrix(4.92819,0,0,4.92819,-1785.25,-662.136)">
            <g id="LB-Button-Dark" transform="matrix(1,0,0,1,-575.917,-1117.03)">
                <g transform="matrix(0.776429,0,0,1.01691,817.8,1038.63)">
                    <path d="M285.465,258.267C285.465,248.454 275.032,240.488 262.18,240.488L223.55,240.488C210.699,240.488 200.265,248.454 200.265,258.267L209.294,290.215C209.294,290.215 231.393,288.115 242.475,288.115C253.665,288.115 276.436,290.215 276.436,290.215L285.465,258.267Z" style="fill:rgb(59,59,59);"/>
                </g>
                <g transform="matrix(2.69797,0,0,2.69797,370.634,557.649)">
                    <path d="M232.159,280.418L234.942,280.418L234.942,281.471L230.848,281.471L230.848,275.111L232.159,275.111L232.159,280.418Z" style="fill:white;fill-rule:nonzero;"/>
                    <path d="M235.693,281.471L235.693,275.111L237.921,275.111C238.291,275.111 238.621,275.146 238.912,275.216C239.203,275.286 239.45,275.393 239.653,275.537C239.855,275.681 240.009,275.862 240.116,276.081C240.222,276.299 240.275,276.557 240.275,276.854C240.275,276.999 240.257,277.139 240.221,277.273C240.184,277.407 240.129,277.532 240.055,277.649C239.98,277.765 239.886,277.871 239.773,277.966C239.659,278.06 239.524,278.138 239.367,278.199C239.553,278.246 239.712,278.316 239.845,278.411C239.977,278.506 240.087,278.616 240.173,278.741C240.258,278.866 240.321,279.002 240.36,279.149C240.4,279.296 240.419,279.447 240.419,279.601C240.419,280.219 240.221,280.685 239.823,280.999C239.426,281.314 238.86,281.471 238.126,281.471L235.693,281.471ZM237.003,278.702L237.003,280.418L238.126,280.418C238.295,280.418 238.441,280.397 238.563,280.355C238.685,280.313 238.787,280.254 238.869,280.18C238.95,280.106 239.011,280.019 239.05,279.918C239.089,279.818 239.109,279.708 239.109,279.588C239.109,279.451 239.091,279.328 239.056,279.219C239.021,279.11 238.967,279.017 238.893,278.94C238.818,278.862 238.722,278.803 238.602,278.763C238.483,278.722 238.34,278.702 238.174,278.702L237.003,278.702ZM237.003,277.776L237.973,277.776C238.308,277.77 238.557,277.699 238.72,277.564C238.883,277.428 238.965,277.235 238.965,276.985C238.965,276.697 238.881,276.489 238.714,276.362C238.546,276.236 238.282,276.172 237.921,276.172L237.003,276.172L237.003,277.776Z" style="fill:white;fill-rule:nonzero;"/>
                </g>
            </g>
        </g>
    </g>
</svg>
