<?xml version="1.0" encoding="UTF-8" standalone="no"?>
<!DOCTYPE svg PUBLIC "-//W3C//DTD SVG 1.1//EN" "http://www.w3.org/Graphics/SVG/1.1/DTD/svg11.dtd">
<svg width="100%" height="100%" viewBox="0 0 327 250" version="1.1" xmlns="http://www.w3.org/2000/svg" xmlns:xlink="http://www.w3.org/1999/xlink" xml:space="preserve" style="fill-rule:evenodd;clip-rule:evenodd;stroke-linejoin:round;stroke-miterlimit:1.41421;">
    <g transform="matrix(1,0,0,1,-173,-156)">
        <g transform="matrix(4.92819,0,0,4.92819,-1785.25,-662.136)">
            <g id="RB-Button-Dark" transform="matrix(1,0,0,1,-575.917,-1186.21)">
                <g transform="matrix(0.776429,0,0,1.01691,817.8,1107.81)">
                    <path d="M285.465,258.267C285.465,248.454 275.032,240.488 262.18,240.488L223.55,240.488C210.699,240.488 200.265,248.454 200.265,258.267L209.294,290.215C209.294,290.215 231.393,288.115 242.475,288.115C253.665,288.115 276.436,290.215 276.436,290.215L285.465,258.267Z" style="fill:rgb(59,59,59);"/>
                </g>
                <g transform="matrix(2.69797,0,0,2.69797,364.826,626.832)">
                    <path d="M234.923,279.143L233.879,279.143L233.879,281.471L232.569,281.471L232.569,275.111L234.932,275.111C235.299,275.111 235.628,275.152 235.919,275.235C236.21,275.318 236.457,275.441 236.658,275.602C236.858,275.764 237.013,275.964 237.121,276.203C237.228,276.442 237.282,276.718 237.282,277.033C237.282,277.266 237.256,277.475 237.204,277.66C237.151,277.845 237.075,278.009 236.976,278.153C236.877,278.298 236.758,278.423 236.618,278.531C236.478,278.639 236.321,278.732 236.146,278.811L237.522,281.41L237.522,281.471L236.116,281.471L234.923,279.143ZM233.879,278.081L234.936,278.081C235.108,278.081 235.259,278.059 235.389,278.014C235.518,277.968 235.626,277.904 235.712,277.821C235.798,277.738 235.862,277.639 235.906,277.524C235.95,277.409 235.972,277.28 235.972,277.138C235.972,276.838 235.887,276.602 235.716,276.43C235.546,276.258 235.284,276.172 234.932,276.172L233.879,276.172L233.879,278.081Z" style="fill:white;fill-rule:nonzero;"/>
                    <path d="M238.278,281.471L238.278,275.111L240.506,275.111C240.876,275.111 241.206,275.146 241.498,275.216C241.789,275.286 242.036,275.393 242.238,275.537C242.44,275.681 242.595,275.862 242.701,276.081C242.807,276.299 242.86,276.557 242.86,276.854C242.86,276.999 242.842,277.139 242.806,277.273C242.769,277.407 242.714,277.532 242.64,277.649C242.566,277.765 242.472,277.871 242.358,277.966C242.245,278.06 242.109,278.138 241.952,278.199C242.138,278.246 242.298,278.316 242.43,278.411C242.563,278.506 242.672,278.616 242.758,278.741C242.844,278.866 242.906,279.002 242.946,279.149C242.985,279.296 243.005,279.447 243.005,279.601C243.005,280.219 242.806,280.685 242.408,280.999C242.011,281.314 241.445,281.471 240.711,281.471L238.278,281.471ZM239.589,278.702L239.589,280.418L240.711,280.418C240.88,280.418 241.026,280.397 241.148,280.355C241.27,280.313 241.372,280.254 241.454,280.18C241.535,280.106 241.596,280.019 241.635,279.918C241.674,279.818 241.694,279.708 241.694,279.588C241.694,279.451 241.677,279.328 241.642,279.219C241.607,279.11 241.552,279.017 241.478,278.94C241.404,278.862 241.307,278.803 241.187,278.763C241.068,278.722 240.925,278.702 240.759,278.702L239.589,278.702ZM239.589,277.776L240.558,277.776C240.893,277.77 241.142,277.699 241.305,277.564C241.468,277.428 241.55,277.235 241.55,276.985C241.55,276.697 241.466,276.489 241.299,276.362C241.131,276.236 240.867,276.172 240.506,276.172L239.589,276.172L239.589,277.776Z" style="fill:white;fill-rule:nonzero;"/>
                </g>
            </g>
        </g>
    </g>
</svg>
