<?xml version="1.0" encoding="UTF-8" standalone="no"?>
<!DOCTYPE svg PUBLIC "-//W3C//DTD SVG 1.1//EN" "http://www.w3.org/Graphics/SVG/1.1/DTD/svg11.dtd">
<svg width="100%" height="100%" viewBox="0 0 293 293" version="1.1" xmlns="http://www.w3.org/2000/svg" xmlns:xlink="http://www.w3.org/1999/xlink" xml:space="preserve" style="fill-rule:evenodd;clip-rule:evenodd;stroke-linejoin:round;stroke-miterlimit:1.41421;">
    <g transform="matrix(1,0,0,1,-190,-135)">
        <g transform="matrix(4.92819,0,0,4.92819,-1785.25,-662.136)">
            <g id="RP-Button-Dark" transform="matrix(1,0,0,1,-816.425,-1190.56)">
                <g transform="matrix(0.699159,0,0,0.699159,1075.39,989.891)">
                    <circle cx="245.269" cy="560.831" r="42.382" style="fill:rgb(59,59,59);"/>
                </g>
                <g transform="matrix(2.42164,0,0,2.42164,673.415,708.96)">
                    <path d="M233.536,278.877L232.373,278.877L232.373,281.471L230.913,281.471L230.913,274.385L233.546,274.385C233.955,274.385 234.322,274.431 234.646,274.524C234.97,274.616 235.245,274.753 235.469,274.933C235.692,275.113 235.864,275.336 235.984,275.602C236.104,275.868 236.164,276.176 236.164,276.526C236.164,276.786 236.135,277.019 236.077,277.225C236.018,277.431 235.934,277.614 235.824,277.775C235.713,277.935 235.58,278.076 235.425,278.196C235.269,278.316 235.094,278.42 234.899,278.507L236.432,281.403L236.432,281.471L234.865,281.471L233.536,278.877ZM232.373,277.694L233.551,277.694C233.742,277.694 233.91,277.669 234.055,277.619C234.199,277.569 234.319,277.497 234.415,277.405C234.511,277.312 234.583,277.202 234.631,277.074C234.68,276.946 234.704,276.802 234.704,276.643C234.704,276.309 234.61,276.046 234.42,275.855C234.23,275.663 233.939,275.568 233.546,275.568L232.373,275.568L232.373,277.694Z" style="fill:white;fill-rule:nonzero;"/>
                    <path d="M238.734,278.974L238.734,281.471L237.274,281.471L237.274,274.385L240.038,274.385C240.457,274.385 240.831,274.443 241.16,274.56C241.489,274.677 241.768,274.84 241.997,275.049C242.226,275.259 242.4,275.507 242.52,275.794C242.64,276.081 242.7,276.393 242.7,276.731C242.7,277.075 242.64,277.385 242.52,277.66C242.4,277.936 242.226,278.171 241.997,278.366C241.768,278.561 241.489,278.711 241.16,278.816C240.831,278.922 240.457,278.974 240.038,278.974L238.734,278.974ZM238.734,277.792L240.038,277.792C240.246,277.792 240.425,277.766 240.576,277.714C240.727,277.662 240.85,277.59 240.946,277.497C241.042,277.405 241.112,277.294 241.158,277.164C241.203,277.034 241.226,276.893 241.226,276.741C241.226,276.588 241.203,276.441 241.158,276.3C241.112,276.159 241.042,276.034 240.946,275.925C240.85,275.817 240.727,275.73 240.576,275.665C240.425,275.6 240.246,275.568 240.038,275.568L238.734,275.568L238.734,277.792Z" style="fill:white;fill-rule:nonzero;"/>
                </g>
            </g>
        </g>
    </g>
</svg>
