<?xml version="1.0" encoding="UTF-8" standalone="no"?>
<!DOCTYPE svg PUBLIC "-//W3C//DTD SVG 1.1//EN" "http://www.w3.org/Graphics/SVG/1.1/DTD/svg11.dtd">
<svg width="100%" height="100%" viewBox="0 0 312 279" version="1.1" xmlns="http://www.w3.org/2000/svg" xmlns:xlink="http://www.w3.org/1999/xlink" xml:space="preserve" style="fill-rule:evenodd;clip-rule:evenodd;stroke-linejoin:round;stroke-miterlimit:1.41421;">
    <g transform="matrix(1,0,0,1,-180,-142)">
        <g transform="matrix(4.92819,0,0,4.92819,-1785.25,-662.136)">
            <g id="RT-Button-Dark" transform="matrix(1,0,0,1,-657.917,-1189.11)">
                <g transform="matrix(0.690747,0,0,0.985416,918.04,1004.72)">
                    <path d="M292.173,364.25C292.173,354.469 260.172,352.796 246.217,352.796C232.263,352.796 200.997,353.655 200.997,363.436C200.997,363.436 208.188,382.861 216.161,392.358C222.778,400.241 232.263,409.989 246.217,409.989C260.172,409.989 268.969,400.688 275.587,392.806C283.56,383.309 292.173,364.25 292.173,364.25Z" style="fill:rgb(59,59,59);"/>
                </g>
                <g transform="matrix(2.69797,0,0,2.69797,450.357,628.728)">
                    <path d="M233.693,279.143L232.649,279.143L232.649,281.471L231.339,281.471L231.339,275.111L233.702,275.111C234.069,275.111 234.398,275.152 234.689,275.235C234.98,275.318 235.226,275.441 235.427,275.602C235.628,275.764 235.783,275.964 235.89,276.203C235.998,276.442 236.052,276.718 236.052,277.033C236.052,277.266 236.026,277.475 235.973,277.66C235.921,277.845 235.845,278.009 235.746,278.153C235.647,278.298 235.528,278.423 235.388,278.531C235.248,278.639 235.091,278.732 234.916,278.811L236.292,281.41L236.292,281.471L234.886,281.471L233.693,279.143ZM232.649,278.081L233.706,278.081C233.878,278.081 234.029,278.059 234.158,278.014C234.288,277.968 234.396,277.904 234.482,277.821C234.568,277.738 234.632,277.639 234.676,277.524C234.72,277.409 234.742,277.28 234.742,277.138C234.742,276.838 234.656,276.602 234.486,276.43C234.316,276.258 234.054,276.172 233.702,276.172L232.649,276.172L232.649,278.081Z" style="fill:white;fill-rule:nonzero;"/>
                    <path d="M241.617,276.172L239.669,276.172L239.669,281.471L238.358,281.471L238.358,276.172L236.436,276.172L236.436,275.111L241.617,275.111L241.617,276.172Z" style="fill:white;fill-rule:nonzero;"/>
                </g>
            </g>
        </g>
    </g>
</svg>
