<?xml version="1.0" encoding="UTF-8" standalone="no"?>
<!DOCTYPE svg PUBLIC "-//W3C//DTD SVG 1.1//EN" "http://www.w3.org/Graphics/SVG/1.1/DTD/svg11.dtd">
<svg width="100%" height="100%" viewBox="0 0 570 570" version="1.1" xmlns="http://www.w3.org/2000/svg" xmlns:xlink="http://www.w3.org/1999/xlink" xml:space="preserve" style="fill-rule:evenodd;clip-rule:evenodd;stroke-linejoin:round;stroke-miterlimit:1.41421;">
    <g transform="matrix(1,0,0,1,-15,-15)">
        <g id="Purple-Circle-Outline" transform="matrix(1.00551,0,0,1.00551,4.14481,4.27312)">
            <path d="M295.15,10.67L296.066,10.674L296.981,10.681L297.895,10.691L298.809,10.704L299.722,10.72L300.634,10.739L301.545,10.761L302.456,10.785L303.366,10.813L304.275,10.843L305.184,10.876L306.092,10.912L306.999,10.951L307.905,10.993L308.811,11.037L309.716,11.085L310.62,11.135L311.523,11.188L312.426,11.244L313.328,11.302L314.229,11.364L315.129,11.428L316.029,11.495L316.927,11.565L317.825,11.638L318.723,11.713L319.619,11.792L320.515,11.873L321.41,11.957L322.304,12.043L323.197,12.133L324.089,12.225L324.981,12.32L325.872,12.417L326.762,12.518L327.651,12.621L328.539,12.727L329.426,12.836L330.313,12.947L331.199,13.061L332.084,13.178L332.968,13.298L333.851,13.42L334.733,13.545L335.615,13.673L336.495,13.803L337.375,13.936L338.254,14.072L339.132,14.211L340.009,14.352L340.885,14.496L341.76,14.643L342.634,14.792L343.508,14.944L344.38,15.098L345.252,15.256L346.122,15.416L346.992,15.578L347.861,15.743L348.729,15.911L349.596,16.082L350.462,16.255L351.327,16.431L352.191,16.609L353.054,16.79L353.916,16.974L354.777,17.16L355.638,17.349L356.497,17.541L357.355,17.735L358.212,17.931L359.069,18.131L359.924,18.333L360.778,18.537L361.632,18.744L362.484,18.954L363.335,19.166L364.186,19.381L365.035,19.598L365.883,19.818L366.73,20.04L367.577,20.265L368.422,20.493L369.266,20.723L370.109,20.955L370.951,21.191L371.792,21.428L372.632,21.668L373.471,21.911L374.308,22.156L375.145,22.404L375.981,22.654L376.815,22.907L377.649,23.162L378.481,23.42L379.313,23.68L380.143,23.943L380.972,24.208L381.8,24.476L382.627,24.746L383.452,25.018L384.277,25.293L385.101,25.571L385.923,25.851L386.744,26.133L387.564,26.418L388.383,26.705L389.201,26.995L390.018,27.287L390.834,27.582L391.648,27.879L392.461,28.178L393.273,28.48L394.084,28.784L394.894,29.091L395.702,29.4L396.51,29.711L397.316,30.025L398.121,30.342L398.925,30.66L399.727,30.981L400.528,31.305L401.329,31.63L402.128,31.958L402.925,32.289L403.722,32.622L404.517,32.957L405.311,33.294L406.104,33.634L406.895,33.976L407.686,34.321L408.475,34.668L409.263,35.017L410.049,35.369L410.834,35.722L411.619,36.079L412.401,36.437L413.183,36.798L413.963,37.161L414.742,37.526L415.519,37.894L416.296,38.264L417.071,38.636L417.845,39.011L418.617,39.387L419.388,39.766L420.158,40.148L420.926,40.531L421.694,40.917L422.459,41.305L423.224,41.696L423.987,42.088L424.749,42.483L425.509,42.88L426.268,43.279L427.026,43.681L427.783,44.085L428.538,44.491L429.291,44.899L430.044,45.309L430.795,45.722L431.544,46.136L432.292,46.553L433.039,46.973L433.785,47.394L434.529,47.817L435.271,48.243L436.012,48.671L436.752,49.101L437.49,49.533L438.227,49.968L438.963,50.404L439.697,50.843L440.43,51.284L441.161,51.727L441.891,52.172L442.619,52.619L443.346,53.069L444.071,53.52L444.795,53.974L445.518,54.43L446.239,54.887L446.958,55.347L447.676,55.809L448.393,56.274L449.108,56.74L449.822,57.208L450.534,57.679L451.245,58.151L451.954,58.626L452.661,59.103L453.367,59.581L454.072,60.062L454.775,60.545L455.477,61.03L456.177,61.517L456.875,62.006L457.572,62.497L458.268,62.99L458.961,63.485L459.654,63.983L460.345,64.482L461.034,64.983L461.721,65.486L462.408,65.992L463.092,66.499L463.775,67.008L464.456,67.519L465.136,68.033L465.814,68.548L466.491,69.065L467.166,69.584L467.839,70.106L468.511,70.629L469.181,71.154L469.85,71.681L470.517,72.21L471.182,72.741L471.846,73.274L472.508,73.809L473.168,74.346L473.827,74.885L474.484,75.426L475.139,75.968L475.793,76.513L476.445,77.059L477.096,77.608L477.745,78.158L478.392,78.71L479.037,79.265L479.681,79.821L480.323,80.379L480.964,80.938L481.602,81.5L482.239,82.064L482.875,82.629L483.508,83.197L484.14,83.766L484.77,84.337L485.399,84.91L486.025,85.485L486.65,86.061L487.274,86.64L487.895,87.22L488.515,87.803L489.133,88.387L489.749,88.972L490.364,89.56L490.977,90.15L491.588,90.741L492.197,91.334L492.804,91.929L493.41,92.526L494.014,93.124L494.616,93.725L495.217,94.327L495.815,94.931L496.412,95.536L497.007,96.144L497.6,96.753L498.191,97.364L498.781,97.977L499.368,98.591L499.954,99.208L500.538,99.826L501.12,100.446L501.701,101.067L502.279,101.69L502.856,102.315L503.431,102.942L504.004,103.571L504.575,104.201L505.144,104.833L505.712,105.466L506.277,106.102L506.841,106.739L507.402,107.377L507.962,108.018L508.52,108.66L509.076,109.304L509.63,109.949L510.183,110.596L510.733,111.245L511.281,111.895L511.828,112.548L512.373,113.201L512.915,113.857L513.456,114.514L513.995,115.173L514.532,115.833L515.067,116.495L515.6,117.159L516.131,117.824L516.66,118.491L517.187,119.16L517.712,119.83L518.235,120.502L518.756,121.175L519.276,121.85L519.793,122.527L520.308,123.205L520.821,123.885L521.333,124.566L521.842,125.249L522.349,125.933L522.855,126.619L523.358,127.307L523.859,127.996L524.358,128.687L524.855,129.379L525.351,130.073L525.844,130.769L526.335,131.466L526.824,132.164L527.311,132.864L527.796,133.566L528.279,134.269L528.759,134.973L529.238,135.679L529.715,136.387L530.19,137.096L530.662,137.807L531.133,138.519L531.601,139.233L532.067,139.948L532.531,140.664L532.993,141.382L533.453,142.102L533.911,142.823L534.367,143.546L534.821,144.27L535.272,144.995L535.722,145.722L536.169,146.45L536.614,147.18L537.057,147.911L537.498,148.644L537.937,149.378L538.373,150.113L538.807,150.85L539.24,151.589L539.67,152.329L540.098,153.07L540.523,153.812L540.947,154.556L541.368,155.302L541.787,156.048L542.204,156.797L542.619,157.546L543.032,158.297L543.442,159.049L543.85,159.803L544.256,160.558L544.66,161.315L545.061,162.072L545.461,162.831L545.858,163.592L546.253,164.354L546.645,165.117L547.036,165.881L547.424,166.647L547.809,167.414L548.193,168.183L548.574,168.953L548.953,169.724L549.33,170.496L549.705,171.27L550.077,172.045L550.447,172.821L550.815,173.599L551.18,174.378L551.543,175.158L551.904,175.94L552.262,176.722L552.618,177.506L552.972,178.292L553.324,179.078L553.673,179.866L554.02,180.655L554.364,181.445L554.707,182.237L555.046,183.03L555.384,183.824L555.719,184.619L556.052,185.416L556.382,186.213L556.711,187.012L557.036,187.812L557.36,188.614L557.681,189.416L557.999,190.22L558.315,191.025L558.629,191.831L558.941,192.639L559.25,193.447L559.556,194.257L559.861,195.068L560.163,195.88L560.462,196.693L560.759,197.507L561.054,198.323L561.346,199.14L561.635,199.957L561.923,200.776L562.208,201.597L562.49,202.418L562.77,203.24L563.047,204.064L563.322,204.888L563.595,205.714L563.865,206.541L564.133,207.369L564.398,208.198L564.661,209.028L564.921,209.86L565.179,210.692L565.434,211.525L565.687,212.36L565.937,213.196L566.185,214.032L566.43,214.87L566.672,215.709L566.913,216.549L567.15,217.39L567.385,218.232L567.618,219.075L567.848,219.919L568.076,220.764L568.301,221.61L568.523,222.458L568.743,223.306L568.96,224.155L569.175,225.005L569.387,225.857L569.597,226.709L569.804,227.562L570.008,228.417L570.21,229.272L570.409,230.128L570.606,230.986L570.8,231.844L570.992,232.703L571.181,233.563L571.367,234.425L571.55,235.287L571.732,236.15L571.91,237.014L572.086,237.879L572.259,238.745L572.429,239.612L572.597,240.48L572.763,241.349L572.925,242.218L573.085,243.089L573.242,243.961L573.397,244.833L573.549,245.706L573.698,246.581L573.845,247.456L573.989,248.332L574.13,249.209L574.268,250.087L574.404,250.966L574.538,251.846L574.668,252.726L574.796,253.608L574.921,254.49L575.043,255.373L575.163,256.257L575.28,257.142L575.394,258.028L575.505,258.914L575.614,259.802L575.72,260.69L575.823,261.579L575.923,262.469L576.021,263.36L576.116,264.252L576.208,265.144L576.298,266.037L576.384,266.931L576.468,267.826L576.549,268.722L576.627,269.618L576.703,270.515L576.776,271.413L576.846,272.312L576.913,273.212L576.977,274.112L577.038,275.013L577.097,275.915L577.153,276.818L577.206,277.721L577.256,278.625L577.304,279.53L577.348,280.436L577.39,281.342L577.429,282.249L577.465,283.157L577.498,284.066L577.528,284.975L577.555,285.885L577.58,286.796L577.602,287.707L577.621,288.619L577.636,289.532L577.649,290.446L577.66,291.36L577.667,292.275L577.671,293.19L577.673,294.107L577.671,295.023L577.667,295.938L577.66,296.853L577.649,297.768L577.636,298.681L577.621,299.594L577.602,300.506L577.58,301.418L577.555,302.328L577.528,303.238L577.498,304.148L577.465,305.056L577.429,305.964L577.39,306.871L577.348,307.777L577.304,308.683L577.256,309.588L577.206,310.492L577.153,311.396L577.097,312.298L577.038,313.2L576.977,314.101L576.913,315.002L576.846,315.901L576.776,316.8L576.703,317.698L576.627,318.595L576.549,319.492L576.468,320.387L576.384,321.282L576.298,322.176L576.208,323.069L576.116,323.962L576.021,324.853L575.923,325.744L575.823,326.634L575.72,327.523L575.614,328.411L575.505,329.299L575.394,330.185L575.28,331.071L575.163,331.956L575.043,332.84L574.921,333.723L574.796,334.606L574.668,335.487L574.538,336.368L574.404,337.247L574.268,338.126L574.13,339.004L573.989,339.881L573.845,340.757L573.698,341.632L573.549,342.507L573.397,343.38L573.242,344.253L573.085,345.124L572.925,345.995L572.763,346.865L572.597,347.733L572.429,348.601L572.259,349.468L572.086,350.334L571.91,351.199L571.732,352.063L571.55,352.926L571.367,353.789L571.181,354.65L570.992,355.51L570.8,356.369L570.606,357.228L570.409,358.085L570.21,358.941L570.008,359.797L569.804,360.651L569.597,361.504L569.387,362.356L569.175,363.208L568.96,364.058L568.743,364.907L568.523,365.756L568.301,366.603L568.076,367.449L567.848,368.294L567.618,369.138L567.385,369.981L567.15,370.823L566.913,371.664L566.672,372.504L566.43,373.343L566.185,374.181L565.937,375.018L565.687,375.853L565.434,376.688L565.179,377.521L564.921,378.354L564.661,379.185L564.398,380.015L564.133,380.844L563.865,381.672L563.595,382.499L563.322,383.325L563.047,384.149L562.77,384.973L562.49,385.795L562.208,386.617L561.923,387.437L561.635,388.256L561.346,389.074L561.054,389.89L560.759,390.706L560.462,391.52L560.163,392.334L559.861,393.146L559.556,393.956L559.25,394.766L558.941,395.575L558.629,396.382L558.315,397.188L557.999,397.993L557.681,398.797L557.36,399.6L557.036,400.401L556.711,401.201L556.382,402L556.052,402.798L555.719,403.594L555.384,404.389L555.046,405.183L554.707,405.976L554.364,406.768L554.02,407.558L553.673,408.347L553.324,409.135L552.972,409.922L552.618,410.707L552.262,411.491L551.904,412.274L551.543,413.055L551.18,413.835L550.815,414.614L550.447,415.392L550.077,416.168L549.705,416.943L549.33,417.717L548.953,418.489L548.574,419.261L548.193,420.03L547.809,420.799L547.424,421.566L547.036,422.332L546.645,423.096L546.253,423.859L545.858,424.621L545.461,425.382L545.061,426.141L544.66,426.899L544.256,427.655L543.85,428.41L543.442,429.164L543.032,429.916L542.619,430.667L542.204,431.417L541.787,432.165L541.368,432.912L540.947,433.657L540.523,434.401L540.098,435.144L539.67,435.885L539.24,436.624L538.807,437.363L538.373,438.1L537.937,438.835L537.498,439.569L537.057,440.302L536.614,441.033L536.169,441.763L535.722,442.491L535.272,443.218L534.821,443.944L534.367,444.668L533.911,445.39L533.453,446.111L532.993,446.831L532.531,447.549L532.067,448.265L531.601,448.981L531.133,449.694L530.662,450.406L530.19,451.117L529.715,451.826L529.238,452.534L528.759,453.24L528.279,453.944L527.796,454.648L527.311,455.349L526.824,456.049L526.335,456.748L525.844,457.445L525.351,458.14L524.855,458.834L524.358,459.526L523.859,460.217L523.358,460.906L522.855,461.594L522.349,462.28L521.842,462.964L521.333,463.647L520.821,464.329L520.308,465.008L519.793,465.687L519.276,466.363L518.756,467.038L518.235,467.712L517.712,468.383L517.187,469.054L516.66,469.722L516.131,470.389L515.6,471.054L515.067,471.718L514.532,472.38L513.995,473.04L513.456,473.699L512.915,474.356L512.373,475.012L511.828,475.666L511.281,476.318L510.733,476.968L510.183,477.617L509.63,478.264L509.076,478.91L508.52,479.553L507.962,480.196L507.402,480.836L506.841,481.475L506.277,482.112L505.712,482.747L505.144,483.381L504.575,484.012L504.004,484.643L503.431,485.271L502.856,485.898L502.279,486.523L501.701,487.146L501.12,487.768L500.538,488.387L499.954,489.005L499.368,489.622L498.781,490.236L498.191,490.849L497.6,491.46L497.007,492.069L496.412,492.677L495.815,493.283L495.217,493.886L494.616,494.489L494.014,495.089L493.41,495.687L492.804,496.284L492.197,496.879L491.588,497.472L490.977,498.064L490.364,498.653L489.749,499.241L489.133,499.827L488.515,500.411L487.895,500.993L487.274,501.573L486.65,502.152L486.025,502.728L485.399,503.303L484.77,503.876L484.14,504.447L483.508,505.017L482.875,505.584L482.239,506.149L481.602,506.713L480.964,507.275L480.323,507.835L479.681,508.393L479.037,508.949L478.392,509.503L477.745,510.055L477.096,510.605L476.445,511.154L475.793,511.7L475.139,512.245L474.484,512.788L473.827,513.328L473.168,513.867L472.508,514.404L471.846,514.939L471.182,515.472L470.517,516.003L469.85,516.532L469.181,517.059L468.511,517.584L467.839,518.108L467.166,518.629L466.491,519.148L465.814,519.665L465.136,520.181L464.456,520.694L463.775,521.205L463.092,521.714L462.408,522.222L461.721,522.727L461.034,523.23L460.345,523.731L459.654,524.231L458.961,524.728L458.268,525.223L457.572,525.716L456.875,526.207L456.177,526.696L455.477,527.183L454.775,527.668L454.072,528.151L453.367,528.632L452.661,529.111L451.954,529.587L451.245,530.062L450.534,530.534L449.822,531.005L449.108,531.473L448.393,531.94L447.676,532.404L446.958,532.866L446.239,533.326L445.518,533.784L444.795,534.239L444.071,534.693L443.346,535.145L442.619,535.594L441.891,536.041L441.161,536.486L440.43,536.929L439.697,537.37L438.963,537.809L438.227,538.245L437.49,538.68L436.752,539.112L436.012,539.542L435.271,539.97L434.529,540.396L433.785,540.819L433.039,541.241L432.292,541.66L431.544,542.077L430.795,542.492L430.044,542.904L429.291,543.314L428.538,543.723L427.783,544.129L427.026,544.532L426.268,544.934L425.509,545.333L424.749,545.73L423.987,546.125L423.224,546.518L422.459,546.908L421.694,547.296L420.926,547.682L420.158,548.065L419.388,548.447L418.617,548.826L417.845,549.203L417.071,549.577L416.296,549.949L415.519,550.319L414.742,550.687L413.963,551.052L413.183,551.415L412.401,551.776L411.619,552.135L410.834,552.491L410.049,552.845L409.263,553.196L408.475,553.545L407.686,553.892L406.895,554.237L406.104,554.579L405.311,554.919L404.517,555.256L403.722,555.592L402.925,555.924L402.128,556.255L401.329,556.583L400.528,556.909L399.727,557.232L398.925,557.553L398.121,557.872L397.316,558.188L396.51,558.502L395.702,558.813L394.894,559.122L394.084,559.429L393.273,559.733L392.461,560.035L391.648,560.334L390.834,560.631L390.018,560.926L389.201,561.218L388.383,561.508L387.564,561.795L386.744,562.08L385.923,562.362L385.101,562.642L384.277,562.92L383.452,563.195L382.627,563.467L381.8,563.738L380.972,564.005L380.143,564.27L379.313,564.533L378.481,564.793L377.649,565.051L376.815,565.306L375.981,565.559L375.145,565.809L374.308,566.057L373.471,566.302L372.632,566.545L371.792,566.785L370.951,567.023L370.109,567.258L369.266,567.49L368.422,567.72L367.577,567.948L366.73,568.173L365.883,568.395L365.035,568.615L364.186,568.833L363.335,569.047L362.484,569.259L361.632,569.469L360.778,569.676L359.924,569.881L359.069,570.082L358.212,570.282L357.355,570.478L356.497,570.673L355.638,570.864L354.777,571.053L353.916,571.239L353.054,571.423L352.191,571.604L351.327,571.782L350.462,571.958L349.596,572.131L348.729,572.302L347.861,572.47L346.992,572.635L346.122,572.798L345.252,572.957L344.38,573.115L343.508,573.269L342.634,573.421L341.76,573.571L340.885,573.717L340.009,573.861L339.132,574.002L338.254,574.141L337.375,574.277L336.495,574.41L335.615,574.54L334.733,574.668L333.851,574.793L332.968,574.915L332.084,575.035L331.199,575.152L330.313,575.266L329.426,575.378L328.539,575.486L327.651,575.592L326.762,575.695L325.872,575.796L324.981,575.893L324.089,575.988L323.197,576.081L322.304,576.17L321.41,576.257L320.515,576.34L319.619,576.422L318.723,576.5L317.825,576.575L316.927,576.648L316.029,576.718L315.129,576.785L314.229,576.849L313.328,576.911L312.426,576.97L311.523,577.025L310.62,577.078L309.716,577.129L308.811,577.176L307.905,577.221L306.999,577.262L306.092,577.301L305.184,577.337L304.275,577.37L303.366,577.4L302.456,577.428L301.545,577.452L300.634,577.474L299.722,577.493L298.809,577.509L297.895,577.522L296.981,577.532L296.066,577.539L295.15,577.544L294.234,577.545L293.318,577.544L292.402,577.539L291.487,577.532L290.573,577.522L289.66,577.509L288.747,577.493L287.835,577.474L286.923,577.452L286.013,577.428L285.103,577.4L284.193,577.37L283.285,577.337L282.377,577.301L281.47,577.262L280.563,577.221L279.658,577.176L278.753,577.129L277.849,577.078L276.945,577.025L276.043,576.97L275.141,576.911L274.24,576.849L273.339,576.785L272.44,576.718L271.541,576.648L270.643,576.575L269.746,576.5L268.849,576.422L267.954,576.34L267.059,576.257L266.165,576.17L265.272,576.081L264.379,575.988L263.488,575.893L262.597,575.796L261.707,575.695L260.818,575.592L259.929,575.486L259.042,575.378L258.155,575.266L257.27,575.152L256.385,575.035L255.501,574.915L254.618,574.793L253.735,574.668L252.854,574.54L251.973,574.41L251.094,574.277L250.215,574.141L249.337,574.002L248.46,573.861L247.584,573.717L246.708,573.571L245.834,573.421L244.961,573.269L244.088,573.115L243.217,572.957L242.346,572.798L241.476,572.635L240.607,572.47L239.74,572.302L238.873,572.131L238.007,571.958L237.142,571.782L236.277,571.604L235.414,571.423L234.552,571.239L233.691,571.053L232.831,570.864L231.971,570.673L231.113,570.478L230.256,570.282L229.4,570.082L228.544,569.881L227.69,569.676L226.837,569.469L225.984,569.259L225.133,569.047L224.283,568.833L223.433,568.615L222.585,568.395L221.738,568.173L220.892,567.948L220.047,567.72L219.203,567.49L218.359,567.258L217.517,567.023L216.676,566.785L215.837,566.545L214.998,566.302L214.16,566.057L213.323,565.809L212.488,565.559L211.653,565.306L210.82,565.051L209.987,564.793L209.156,564.533L208.326,564.27L207.497,564.005L206.669,563.738L205.842,563.467L205.016,563.195L204.191,562.92L203.368,562.642L202.545,562.362L201.724,562.08L200.904,561.795L200.085,561.508L199.267,561.218L198.45,560.926L197.635,560.631L196.821,560.334L196.007,560.035L195.195,559.733L194.384,559.429L193.575,559.122L192.766,558.813L191.959,558.502L191.153,558.188L190.348,557.872L189.544,557.553L188.741,557.232L187.94,556.909L187.14,556.583L186.341,556.255L185.543,555.924L184.747,555.592L183.951,555.256L183.157,554.919L182.365,554.579L181.573,554.237L180.783,553.892L179.994,553.545L179.206,553.196L178.419,552.845L177.634,552.491L176.85,552.135L176.067,551.776L175.286,551.415L174.505,551.052L173.727,550.687L172.949,550.319L172.173,549.949L171.398,549.577L170.624,549.203L169.851,548.826L169.08,548.447L168.31,548.065L167.542,547.682L166.775,547.296L166.009,546.908L165.245,546.518L164.481,546.125L163.72,545.73L162.959,545.333L162.2,544.934L161.442,544.532L160.686,544.129L159.931,543.723L159.177,543.314L158.425,542.904L157.674,542.492L156.924,542.077L156.176,541.66L155.429,541.241L154.684,540.819L153.94,540.396L153.197,539.97L152.456,539.542L151.716,539.112L150.978,538.68L150.241,538.245L149.506,537.809L148.771,537.37L148.039,536.929L147.308,536.486L146.578,536.041L145.849,535.594L145.123,535.145L144.397,534.693L143.673,534.239L142.951,533.784L142.23,533.326L141.51,532.866L140.792,532.404L140.075,531.94L139.36,531.473L138.647,531.005L137.935,530.534L137.224,530.062L136.515,529.587L135.807,529.111L135.101,528.632L134.396,528.151L133.693,527.668L132.992,527.183L132.292,526.696L131.593,526.207L130.896,525.716L130.201,525.223L129.507,524.728L128.815,524.231L128.124,523.731L127.435,523.23L126.747,522.727L126.061,522.222L125.376,521.714L124.693,521.205L124.012,520.694L123.332,520.181L122.654,519.665L121.978,519.148L121.303,518.629L120.629,518.108L119.957,517.584L119.287,517.059L118.619,516.532L117.952,516.003L117.287,515.472L116.623,514.939L115.961,514.404L115.3,513.867L114.642,513.328L113.985,512.788L113.329,512.245L112.675,511.7L112.023,511.154L111.373,510.605L110.724,510.055L110.077,509.503L109.431,508.949L108.787,508.393L108.145,507.835L107.505,507.275L106.866,506.713L106.229,506.149L105.594,505.584L104.96,505.017L104.328,504.447L103.698,503.876L103.07,503.303L102.443,502.728L101.818,502.152L101.195,501.573L100.573,500.993L99.953,500.411L99.335,499.827L98.719,499.241L98.104,498.653L97.492,498.064L96.881,497.472L96.271,496.879L95.664,496.284L95.058,495.687L94.454,495.089L93.852,494.489L93.252,493.886L92.653,493.283L92.057,492.677L91.462,492.069L90.869,491.46L90.277,490.849L89.688,490.236L89.1,489.622L88.514,489.005L87.93,488.387L87.348,487.768L86.768,487.146L86.189,486.523L85.612,485.898L85.038,485.271L84.465,484.643L83.893,484.012L83.324,483.381L82.757,482.747L82.191,482.112L81.628,481.475L81.066,480.836L80.506,480.196L79.948,479.553L79.392,478.91L78.838,478.264L78.286,477.617L77.735,476.968L77.187,476.318L76.64,475.666L76.096,475.012L75.553,474.356L75.012,473.699L74.474,473.04L73.937,472.38L73.402,471.718L72.869,471.054L72.338,470.389L71.809,469.722L71.282,469.054L70.756,468.383L70.233,467.712L69.712,467.038L69.193,466.363L68.676,465.687L68.16,465.008L67.647,464.329L67.136,463.647L66.626,462.964L66.119,462.28L65.614,461.594L65.111,460.906L64.609,460.217L64.11,459.526L63.613,458.834L63.118,458.14L62.625,457.445L62.134,456.748L61.645,456.049L61.158,455.349L60.673,454.648L60.19,453.944L59.709,453.24L59.23,452.534L58.753,451.826L58.279,451.117L57.806,450.406L57.336,449.694L56.868,448.981L56.401,448.265L55.937,447.549L55.475,446.831L55.015,446.111L54.557,445.39L54.101,444.668L53.648,443.944L53.196,443.218L52.747,442.491L52.3,441.763L51.854,441.033L51.411,440.302L50.971,439.569L50.532,438.835L50.095,438.1L49.661,437.363L49.229,436.624L48.799,435.885L48.371,435.144L47.945,434.401L47.522,433.657L47.1,432.912L46.681,432.165L46.264,431.417L45.849,430.667L45.437,429.916L45.026,429.164L44.618,428.41L44.212,427.655L43.808,426.899L43.407,426.141L43.008,425.382L42.611,424.621L42.216,423.859L41.823,423.096L41.433,422.332L41.045,421.566L40.659,420.799L40.275,420.03L39.894,419.261L39.515,418.489L39.138,417.717L38.764,416.943L38.391,416.168L38.022,415.392L37.654,414.614L37.288,413.835L36.925,413.055L36.565,412.274L36.206,411.491L35.85,410.707L35.496,409.922L35.145,409.135L34.795,408.347L34.449,407.558L34.104,406.768L33.762,405.976L33.422,405.183L33.084,404.389L32.749,403.594L32.416,402.798L32.086,402L31.758,401.201L31.432,400.401L31.109,399.6L30.788,398.797L30.469,397.993L30.153,397.188L29.839,396.382L29.528,395.575L29.219,394.766L28.912,393.956L28.608,393.146L28.306,392.334L28.006,391.52L27.709,390.706L27.415,389.89L27.123,389.074L26.833,388.256L26.546,387.437L26.261,386.617L25.978,385.795L25.698,384.973L25.421,384.149L25.146,383.325L24.873,382.499L24.603,381.672L24.336,380.844L24.07,380.015L23.808,379.185L23.548,378.354L23.29,377.521L23.035,376.688L22.782,375.853L22.532,375.018L22.284,374.181L22.039,373.343L21.796,372.504L21.556,371.664L21.318,370.823L21.083,369.981L20.85,369.138L20.62,368.294L20.393,367.449L20.168,366.603L19.945,365.756L19.726,364.907L19.508,364.058L19.294,363.208L19.081,362.356L18.872,361.504L18.665,360.651L18.46,359.797L18.258,358.941L18.059,358.085L17.862,357.228L17.668,356.369L17.477,355.51L17.288,354.65L17.102,353.789L16.918,352.926L16.737,352.063L16.558,351.199L16.383,350.334L16.21,349.468L16.039,348.601L15.871,347.733L15.706,346.865L15.543,345.995L15.383,345.124L15.226,344.253L15.071,343.38L14.92,342.507L14.77,341.632L14.624,340.757L14.48,339.881L14.338,339.004L14.2,338.126L14.064,337.247L13.931,336.368L13.8,335.487L13.673,334.606L13.548,333.723L13.425,332.84L13.306,331.956L13.189,331.071L13.075,330.185L12.963,329.299L12.855,328.411L12.749,327.523L12.645,326.634L12.545,325.744L12.447,324.853L12.352,323.962L12.26,323.069L12.171,322.176L12.084,321.282L12,320.387L11.919,319.492L11.841,318.595L11.765,317.698L11.693,316.8L11.623,315.901L11.556,315.002L11.491,314.101L11.43,313.2L11.371,312.298L11.315,311.396L11.262,310.492L11.212,309.588L11.165,308.683L11.12,307.777L11.079,306.871L11.04,305.964L11.004,305.056L10.971,304.148L10.94,303.238L10.913,302.328L10.888,301.418L10.867,300.506L10.848,299.594L10.832,298.681L10.819,297.768L10.809,296.853L10.802,295.938L10.797,295.023L10.796,294.107L10.797,293.19L10.802,292.275L10.809,291.36L10.819,290.446L10.832,289.532L10.848,288.619L10.867,287.707L10.888,286.796L10.913,285.885L10.94,284.975L10.971,284.066L11.004,283.157L11.04,282.249L11.079,281.342L11.12,280.436L11.165,279.53L11.212,278.625L11.262,277.721L11.315,276.818L11.371,275.915L11.43,275.013L11.491,274.112L11.556,273.212L11.623,272.312L11.693,271.413L11.765,270.515L11.841,269.618L11.919,268.722L12,267.826L12.084,266.931L12.171,266.037L12.26,265.144L12.352,264.252L12.447,263.36L12.545,262.469L12.645,261.579L12.749,260.69L12.855,259.802L12.963,258.914L13.075,258.028L13.189,257.142L13.306,256.257L13.425,255.373L13.548,254.49L13.673,253.608L13.8,252.726L13.931,251.846L14.064,250.966L14.2,250.087L14.338,249.209L14.48,248.332L14.624,247.456L14.77,246.581L14.92,245.706L15.071,244.833L15.226,243.961L15.383,243.089L15.543,242.218L15.706,241.349L15.871,240.48L16.039,239.612L16.21,238.745L16.383,237.879L16.558,237.014L16.737,236.15L16.918,235.287L17.102,234.425L17.288,233.563L17.477,232.703L17.668,231.844L17.862,230.986L18.059,230.128L18.258,229.272L18.46,228.417L18.665,227.562L18.872,226.709L19.081,225.857L19.294,225.005L19.508,224.155L19.726,223.306L19.945,222.458L20.168,221.61L20.393,220.764L20.62,219.919L20.85,219.075L21.083,218.232L21.318,217.39L21.556,216.549L21.796,215.709L22.039,214.87L22.284,214.032L22.532,213.196L22.782,212.36L23.035,211.525L23.29,210.692L23.548,209.86L23.808,209.028L24.07,208.198L24.336,207.369L24.603,206.541L24.873,205.714L25.146,204.888L25.421,204.064L25.698,203.24L25.978,202.418L26.261,201.597L26.546,200.776L26.833,199.957L27.123,199.14L27.415,198.323L27.709,197.507L28.006,196.693L28.306,195.88L28.608,195.068L28.912,194.257L29.219,193.447L29.528,192.639L29.839,191.831L30.153,191.025L30.469,190.22L30.788,189.416L31.109,188.614L31.432,187.812L31.758,187.012L32.086,186.213L32.416,185.416L32.749,184.619L33.084,183.824L33.422,183.03L33.762,182.237L34.104,181.445L34.449,180.655L34.795,179.866L35.145,179.078L35.496,178.292L35.85,177.506L36.206,176.722L36.565,175.94L36.925,175.158L37.288,174.378L37.654,173.599L38.022,172.821L38.391,172.045L38.764,171.27L39.138,170.496L39.515,169.724L39.894,168.953L40.275,168.183L40.659,167.414L41.045,166.647L41.433,165.881L41.823,165.117L42.216,164.354L42.611,163.592L43.008,162.831L43.407,162.072L43.808,161.315L44.212,160.558L44.618,159.803L45.026,159.049L45.437,158.297L45.849,157.546L46.264,156.797L46.681,156.048L47.1,155.302L47.522,154.556L47.945,153.812L48.371,153.07L48.799,152.329L49.229,151.589L49.661,150.85L50.095,150.113L50.532,149.378L50.971,148.644L51.411,147.911L51.854,147.18L52.3,146.45L52.747,145.722L53.196,144.995L53.648,144.27L54.101,143.546L54.557,142.823L55.015,142.102L55.475,141.382L55.937,140.664L56.401,139.948L56.868,139.233L57.336,138.519L57.806,137.807L58.279,137.096L58.753,136.387L59.23,135.679L59.709,134.973L60.19,134.269L60.673,133.566L61.158,132.864L61.645,132.164L62.134,131.466L62.625,130.769L63.118,130.073L63.613,129.379L64.11,128.687L64.609,127.996L65.111,127.307L65.614,126.619L66.119,125.933L66.626,125.249L67.136,124.566L67.647,123.885L68.16,123.205L68.676,122.527L69.193,121.85L69.712,121.175L70.233,120.502L70.756,119.83L71.282,119.16L71.809,118.491L72.338,117.824L72.869,117.159L73.402,116.495L73.937,115.833L74.474,115.173L75.012,114.514L75.553,113.857L76.096,113.201L76.64,112.548L77.187,111.895L77.735,111.245L78.286,110.596L78.838,109.949L79.392,109.304L79.948,108.66L80.506,108.018L81.066,107.377L81.628,106.739L82.191,106.102L82.757,105.466L83.324,104.833L83.893,104.201L84.465,103.571L85.038,102.942L85.612,102.315L86.189,101.69L86.768,101.067L87.348,100.446L87.93,99.826L88.514,99.208L89.1,98.591L89.688,97.977L90.277,97.364L90.869,96.753L91.462,96.144L92.057,95.536L92.653,94.931L93.252,94.327L93.852,93.725L94.454,93.124L95.058,92.526L95.664,91.929L96.271,91.334L96.881,90.741L97.492,90.15L98.104,89.56L98.719,88.972L99.335,88.387L99.953,87.803L100.573,87.22L101.195,86.64L101.818,86.061L102.443,85.485L103.07,84.91L103.698,84.337L104.328,83.766L104.96,83.197L105.594,82.629L106.229,82.064L106.866,81.5L107.505,80.938L108.145,80.379L108.787,79.821L109.431,79.265L110.077,78.71L110.724,78.158L111.373,77.608L112.023,77.059L112.675,76.513L113.329,75.968L113.985,75.426L114.642,74.885L115.3,74.346L115.961,73.809L116.623,73.274L117.287,72.741L117.952,72.21L118.619,71.681L119.287,71.154L119.957,70.629L120.629,70.106L121.303,69.584L121.978,69.065L122.654,68.548L123.332,68.033L124.012,67.519L124.693,67.008L125.376,66.499L126.061,65.992L126.747,65.486L127.435,64.983L128.124,64.482L128.815,63.983L129.507,63.485L130.201,62.99L130.896,62.497L131.593,62.006L132.292,61.517L132.992,61.03L133.693,60.545L134.396,60.062L135.101,59.581L135.807,59.103L136.515,58.626L137.224,58.151L137.935,57.679L138.647,57.208L139.36,56.74L140.075,56.274L140.792,55.809L141.51,55.347L142.23,54.887L142.951,54.43L143.673,53.974L144.397,53.52L145.123,53.069L145.849,52.619L146.578,52.172L147.308,51.727L148.039,51.284L148.771,50.843L149.506,50.404L150.241,49.968L150.978,49.533L151.716,49.101L152.456,48.671L153.197,48.243L153.94,47.817L154.684,47.394L155.429,46.973L156.176,46.553L156.924,46.136L157.674,45.722L158.425,45.309L159.177,44.899L159.931,44.491L160.686,44.085L161.442,43.681L162.2,43.279L162.959,42.88L163.72,42.483L164.481,42.088L165.245,41.696L166.009,41.305L166.775,40.917L167.542,40.531L168.31,40.148L169.08,39.766L169.851,39.387L170.624,39.011L171.398,38.636L172.173,38.264L172.949,37.894L173.727,37.526L174.505,37.161L175.286,36.798L176.067,36.437L176.85,36.079L177.634,35.722L178.419,35.369L179.206,35.017L179.994,34.668L180.783,34.321L181.573,33.976L182.365,33.634L183.157,33.294L183.951,32.957L184.747,32.622L185.543,32.289L186.341,31.958L187.14,31.63L187.94,31.305L188.741,30.981L189.544,30.66L190.348,30.342L191.153,30.025L191.959,29.711L192.766,29.4L193.575,29.091L194.384,28.784L195.195,28.48L196.007,28.178L196.821,27.879L197.635,27.582L198.45,27.287L199.267,26.995L200.085,26.705L200.904,26.418L201.724,26.133L202.545,25.851L203.368,25.571L204.191,25.293L205.016,25.018L205.842,24.746L206.669,24.476L207.497,24.208L208.326,23.943L209.156,23.68L209.987,23.42L210.82,23.162L211.653,22.907L212.488,22.654L213.323,22.404L214.16,22.156L214.998,21.911L215.837,21.668L216.676,21.428L217.517,21.191L218.359,20.955L219.203,20.723L220.047,20.493L220.892,20.265L221.738,20.04L222.585,19.818L223.433,19.598L224.283,19.381L225.133,19.166L225.984,18.954L226.837,18.744L227.69,18.537L228.544,18.333L229.4,18.131L230.256,17.931L231.113,17.735L231.971,17.541L232.831,17.349L233.691,17.16L234.552,16.974L235.414,16.79L236.277,16.609L237.142,16.431L238.007,16.255L238.873,16.082L239.74,15.911L240.607,15.743L241.476,15.578L242.346,15.416L243.217,15.256L244.088,15.098L244.961,14.944L245.834,14.792L246.708,14.643L247.584,14.496L248.46,14.352L249.337,14.211L250.215,14.072L251.094,13.936L251.973,13.803L252.854,13.673L253.735,13.545L254.618,13.42L255.501,13.298L256.385,13.178L257.27,13.061L258.155,12.947L259.042,12.836L259.929,12.727L260.818,12.621L261.707,12.518L262.597,12.417L263.488,12.32L264.379,12.225L265.272,12.133L266.165,12.043L267.059,11.957L267.954,11.873L268.849,11.792L269.746,11.713L270.643,11.638L271.541,11.565L272.44,11.495L273.339,11.428L274.24,11.364L275.141,11.302L276.043,11.244L276.945,11.188L277.849,11.135L278.753,11.085L279.658,11.037L280.563,10.993L281.47,10.951L282.377,10.912L283.285,10.876L284.193,10.843L285.103,10.813L286.013,10.785L286.923,10.761L287.835,10.739L288.747,10.72L289.66,10.704L290.573,10.691L291.487,10.681L292.402,10.674L293.318,10.67L294.234,10.668L295.15,10.67ZM293.324,12.659L292.415,12.663L291.506,12.67L290.598,12.68L289.691,12.693L288.785,12.709L287.879,12.728L286.974,12.749L286.069,12.774L285.166,12.801L284.263,12.831L283.36,12.864L282.459,12.899L281.558,12.938L280.658,12.979L279.759,13.024L278.86,13.071L277.962,13.121L277.065,13.173L276.169,13.229L275.273,13.287L274.378,13.348L273.484,13.412L272.591,13.479L271.698,13.548L270.807,13.62L269.916,13.695L269.025,13.773L268.136,13.853L267.248,13.937L266.36,14.023L265.473,14.111L264.587,14.203L263.701,14.297L262.817,14.394L261.933,14.494L261.05,14.596L260.168,14.702L259.287,14.81L258.407,14.92L257.527,15.034L256.648,15.15L255.77,15.268L254.894,15.39L254.017,15.514L253.142,15.641L252.268,15.77L251.394,15.903L250.522,16.038L249.65,16.175L248.779,16.315L247.909,16.458L247.04,16.604L246.172,16.752L245.305,16.903L244.438,17.056L243.573,17.213L242.708,17.371L241.845,17.533L240.982,17.697L240.12,17.864L239.26,18.033L238.4,18.205L237.541,18.379L236.683,18.557L235.826,18.736L234.97,18.919L234.115,19.104L233.26,19.291L232.407,19.481L231.555,19.674L230.704,19.869L229.853,20.067L229.004,20.268L228.156,20.471L227.309,20.676L226.462,20.884L225.617,21.095L224.773,21.308L223.93,21.524L223.087,21.742L222.246,21.963L221.406,22.187L220.567,22.413L219.729,22.641L218.891,22.872L218.055,23.105L217.22,23.341L216.386,23.58L215.553,23.821L214.722,24.064L213.891,24.31L213.061,24.559L212.232,24.81L211.405,25.063L210.578,25.319L209.753,25.577L208.929,25.838L208.105,26.102L207.283,26.367L206.462,26.636L205.642,26.906L204.824,27.179L204.006,27.455L203.189,27.733L202.374,28.013L201.559,28.296L200.746,28.581L199.934,28.869L199.123,29.159L198.314,29.452L197.505,29.746L196.697,30.044L195.891,30.343L195.086,30.646L194.282,30.95L193.479,31.257L192.678,31.566L191.877,31.878L191.078,32.192L190.28,32.508L189.483,32.827L188.687,33.148L187.893,33.471L187.099,33.797L186.307,34.125L185.516,34.456L184.727,34.789L183.938,35.124L183.151,35.461L182.365,35.801L181.58,36.143L180.797,36.488L180.015,36.834L179.234,37.183L178.454,37.535L177.675,37.888L176.898,38.244L176.122,38.602L175.347,38.963L174.574,39.326L173.802,39.691L173.031,40.058L172.261,40.428L171.493,40.8L170.726,41.174L169.96,41.55L169.196,41.929L168.433,42.31L167.671,42.693L166.911,43.078L166.152,43.466L165.394,43.856L164.637,44.248L163.882,44.642L163.129,45.038L162.376,45.437L161.625,45.838L160.875,46.241L160.127,46.646L159.38,47.054L158.634,47.463L157.89,47.875L157.147,48.289L156.405,48.706L155.665,49.124L154.927,49.545L154.189,49.967L153.453,50.392L152.719,50.819L151.985,51.248L151.254,51.68L150.523,52.113L149.794,52.549L149.067,52.987L148.341,53.426L147.616,53.868L146.893,54.313L146.171,54.759L145.451,55.207L144.732,55.658L144.014,56.11L143.298,56.565L142.584,57.022L141.871,57.48L141.159,57.941L140.449,58.404L139.741,58.87L139.033,59.337L138.328,59.806L137.624,60.277L136.921,60.751L136.22,61.226L135.52,61.703L134.822,62.183L134.125,62.664L133.43,63.148L132.736,63.634L132.044,64.121L131.354,64.611L130.665,65.103L129.977,65.596L129.291,66.092L128.607,66.59L127.924,67.09L127.243,67.591L126.563,68.095L125.885,68.601L125.208,69.109L124.533,69.618L123.86,70.13L123.188,70.644L122.518,71.159L121.849,71.677L121.182,72.196L120.516,72.718L119.853,73.241L119.19,73.767L118.53,74.294L117.871,74.823L117.213,75.354L116.557,75.887L115.903,76.423L115.251,76.96L114.6,77.498L113.951,78.039L113.303,78.582L112.657,79.127L112.013,79.673L111.37,80.221L110.729,80.772L110.09,81.324L109.452,81.878L108.816,82.434L108.182,82.992L107.549,83.551L106.919,84.113L106.289,84.676L105.662,85.242L105.036,85.809L104.412,86.378L103.79,86.949L103.169,87.521L102.55,88.096L101.933,88.672L101.317,89.25L100.704,89.83L100.092,90.412L99.481,90.996L98.873,91.581L98.266,92.168L97.661,92.757L97.058,93.348L96.456,93.941L95.857,94.535L95.259,95.131L94.663,95.729L94.068,96.329L93.476,96.93L92.885,97.533L92.296,98.138L91.709,98.745L91.123,99.354L90.54,99.964L89.958,100.576L89.378,101.19L88.8,101.805L88.223,102.422L87.649,103.041L87.076,103.662L86.505,104.284L85.936,104.908L85.369,105.534L84.804,106.162L84.241,106.791L83.679,107.422L83.119,108.054L82.562,108.689L82.006,109.325L81.452,109.962L80.899,110.602L80.349,111.242L79.801,111.885L79.254,112.529L78.71,113.175L78.167,113.823L77.626,114.472L77.087,115.123L76.55,115.776L76.015,116.43L75.482,117.086L74.951,117.743L74.421,118.402L73.894,119.063L73.369,119.725L72.845,120.389L72.324,121.054L71.804,121.721L71.287,122.39L70.771,123.06L70.257,123.732L69.746,124.406L69.236,125.081L68.728,125.757L68.223,126.435L67.719,127.115L67.217,127.796L66.718,128.479L66.22,129.164L65.724,129.85L65.23,130.537L64.739,131.226L64.249,131.917L63.761,132.609L63.276,133.302L62.792,133.998L62.311,134.694L61.831,135.392L61.354,136.092L60.878,136.793L60.405,137.496L59.934,138.2L59.464,138.906L58.997,139.613L58.532,140.322L58.069,141.032L57.608,141.743L57.149,142.456L56.692,143.171L56.238,143.887L55.785,144.604L55.335,145.323L54.886,146.043L54.44,146.765L53.996,147.489L53.554,148.213L53.114,148.939L52.676,149.667L52.241,150.396L51.807,151.126L51.376,151.858L50.947,152.591L50.52,153.326L50.095,154.062L49.672,154.799L49.252,155.538L48.833,156.278L48.417,157.019L48.003,157.762L47.591,158.507L47.181,159.252L46.774,159.999L46.369,160.748L45.966,161.497L45.565,162.248L45.166,163.001L44.769,163.755L44.375,164.51L43.983,165.266L43.593,166.024L43.206,166.783L42.82,167.544L42.437,168.305L42.056,169.068L41.678,169.833L41.301,170.599L40.927,171.366L40.555,172.134L40.186,172.903L39.818,173.674L39.453,174.446L39.091,175.22L38.73,175.995L38.372,176.77L38.016,177.548L37.662,178.326L37.311,179.106L36.962,179.887L36.615,180.669L36.271,181.453L35.929,182.237L35.589,183.023L35.251,183.811L34.916,184.599L34.583,185.389L34.253,186.18L33.925,186.972L33.599,187.765L33.276,188.559L32.954,189.355L32.636,190.152L32.319,190.95L32.005,191.749L31.694,192.55L31.384,193.352L31.078,194.154L30.773,194.958L30.471,195.763L30.171,196.57L29.874,197.377L29.579,198.186L29.287,198.996L28.997,199.807L28.709,200.619L28.424,201.432L28.141,202.246L27.86,203.062L27.582,203.878L27.307,204.696L27.034,205.515L26.763,206.335L26.495,207.156L26.229,207.978L25.966,208.801L25.705,209.625L25.447,210.451L25.191,211.277L24.937,212.105L24.686,212.934L24.438,213.763L24.192,214.594L23.949,215.426L23.708,216.259L23.469,217.093L23.233,217.928L23,218.764L22.769,219.601L22.54,220.439L22.314,221.278L22.091,222.118L21.87,222.96L21.652,223.802L21.436,224.645L21.223,225.489L21.012,226.335L20.804,227.181L20.598,228.028L20.395,228.877L20.195,229.726L19.997,230.576L19.802,231.427L19.609,232.28L19.419,233.133L19.231,233.987L19.046,234.842L18.864,235.698L18.684,236.555L18.507,237.413L18.332,238.272L18.161,239.132L17.991,239.993L17.825,240.854L17.66,241.717L17.499,242.581L17.34,243.445L17.184,244.311L17.031,245.177L16.88,246.044L16.731,246.912L16.586,247.782L16.443,248.651L16.303,249.522L16.165,250.394L16.03,251.267L15.898,252.14L15.768,253.015L15.642,253.89L15.517,254.766L15.396,255.643L15.277,256.521L15.161,257.399L15.048,258.279L14.937,259.159L14.829,260.04L14.724,260.923L14.622,261.805L14.522,262.689L14.425,263.574L14.331,264.459L14.239,265.345L14.15,266.232L14.064,267.12L13.981,268.008L13.9,268.898L13.823,269.788L13.748,270.679L13.676,271.571L13.606,272.463L13.54,273.357L13.476,274.251L13.415,275.145L13.356,276.041L13.301,276.937L13.248,277.834L13.198,278.732L13.151,279.631L13.107,280.53L13.066,281.43L13.027,282.331L12.991,283.233L12.958,284.135L12.928,285.038L12.901,285.942L12.877,286.846L12.855,287.751L12.837,288.657L12.821,289.564L12.808,290.471L12.798,291.379L12.791,292.287L12.786,293.197L12.785,294.107L12.786,295.017L12.791,295.926L12.798,296.834L12.808,297.742L12.821,298.65L12.837,299.556L12.855,300.462L12.877,301.367L12.901,302.271L12.928,303.175L12.958,304.078L12.991,304.98L13.027,305.882L13.066,306.783L13.107,307.683L13.151,308.582L13.198,309.481L13.248,310.379L13.301,311.276L13.356,312.172L13.415,313.068L13.476,313.963L13.54,314.857L13.606,315.75L13.676,316.642L13.748,317.534L13.823,318.425L13.9,319.315L13.981,320.205L14.064,321.093L14.15,321.981L14.239,322.868L14.331,323.754L14.425,324.64L14.522,325.524L14.622,326.408L14.724,327.291L14.829,328.173L14.937,329.054L15.048,329.934L15.161,330.814L15.277,331.692L15.396,332.57L15.517,333.447L15.642,334.323L15.768,335.199L15.898,336.073L16.03,336.946L16.165,337.819L16.303,338.691L16.443,339.562L16.586,340.432L16.731,341.301L16.88,342.169L17.031,343.036L17.184,343.902L17.34,344.768L17.499,345.632L17.66,346.496L17.825,347.359L17.991,348.22L18.161,349.081L18.332,349.941L18.507,350.8L18.684,351.658L18.864,352.515L19.046,353.371L19.231,354.226L19.419,355.08L19.609,355.934L19.802,356.786L19.997,357.637L20.195,358.487L20.395,359.337L20.598,360.185L20.804,361.032L21.012,361.878L21.223,362.724L21.436,363.568L21.652,364.411L21.87,365.253L22.091,366.095L22.314,366.935L22.54,367.774L22.769,368.612L23,369.449L23.233,370.285L23.469,371.12L23.708,371.954L23.949,372.787L24.192,373.619L24.438,374.45L24.686,375.28L24.937,376.108L25.191,376.936L25.447,377.762L25.705,378.588L25.966,379.412L26.229,380.235L26.495,381.057L26.763,381.879L27.034,382.698L27.307,383.517L27.582,384.335L27.86,385.152L28.141,385.967L28.424,386.781L28.709,387.595L28.997,388.407L29.287,389.218L29.579,390.027L29.874,390.836L30.171,391.643L30.471,392.45L30.773,393.255L31.078,394.059L31.384,394.862L31.694,395.663L32.005,396.464L32.319,397.263L32.636,398.061L32.954,398.858L33.276,399.654L33.599,400.448L33.925,401.242L34.253,402.034L34.583,402.825L34.916,403.614L35.251,404.403L35.589,405.19L35.929,405.976L36.271,406.76L36.615,407.544L36.962,408.326L37.311,409.107L37.662,409.887L38.016,410.666L38.372,411.443L38.73,412.219L39.091,412.993L39.453,413.767L39.818,414.539L40.186,415.31L40.555,416.079L40.927,416.848L41.301,417.615L41.678,418.38L42.056,419.145L42.437,419.908L42.82,420.67L43.206,421.43L43.593,422.189L43.983,422.947L44.375,423.703L44.769,424.458L45.166,425.212L45.565,425.965L45.966,426.716L46.369,427.466L46.774,428.214L47.181,428.961L47.591,429.707L48.003,430.451L48.417,431.194L48.833,431.935L49.252,432.676L49.672,433.414L50.095,434.152L50.52,434.888L50.947,435.622L51.376,436.355L51.807,437.087L52.241,437.818L52.676,438.546L53.114,439.274L53.554,440L53.996,440.725L54.44,441.448L54.886,442.17L55.335,442.89L55.785,443.609L56.238,444.326L56.692,445.042L57.149,445.757L57.608,446.47L58.069,447.182L58.532,447.892L58.997,448.6L59.464,449.307L59.934,450.013L60.405,450.717L60.878,451.42L61.354,452.121L61.831,452.821L62.311,453.519L62.792,454.216L63.276,454.911L63.761,455.604L64.249,456.296L64.739,456.987L65.23,457.676L65.724,458.364L66.22,459.049L66.718,459.734L67.217,460.417L67.719,461.098L68.223,461.778L68.728,462.456L69.236,463.133L69.746,463.808L70.257,464.481L70.771,465.153L71.287,465.823L71.804,466.492L72.324,467.159L72.845,467.824L73.369,468.488L73.894,469.15L74.421,469.811L74.951,470.47L75.482,471.128L76.015,471.783L76.55,472.438L77.087,473.09L77.626,473.741L78.167,474.39L78.71,475.038L79.254,475.684L79.801,476.328L80.349,476.971L80.899,477.612L81.452,478.251L82.006,478.889L82.562,479.525L83.119,480.159L83.679,480.791L84.241,481.422L84.804,482.051L85.369,482.679L85.936,483.305L86.505,483.929L87.076,484.551L87.649,485.172L88.223,485.791L88.8,486.408L89.378,487.023L89.958,487.637L90.54,488.249L91.123,488.859L91.709,489.468L92.296,490.075L92.885,490.68L93.476,491.283L94.068,491.884L94.663,492.484L95.259,493.082L95.857,493.678L96.456,494.273L97.058,494.865L97.661,495.456L98.266,496.045L98.873,496.632L99.481,497.218L100.092,497.801L100.704,498.383L101.317,498.963L101.933,499.541L102.55,500.117L103.169,500.692L103.79,501.265L104.412,501.835L105.036,502.404L105.662,502.971L106.289,503.537L106.919,504.1L107.549,504.662L108.182,505.221L108.816,505.779L109.452,506.335L110.09,506.889L110.729,507.441L111.37,507.992L112.013,508.54L112.657,509.087L113.303,509.631L113.951,510.174L114.6,510.715L115.251,511.254L115.903,511.791L116.557,512.326L117.213,512.859L117.871,513.39L118.53,513.919L119.19,514.447L119.853,514.972L120.516,515.495L121.182,516.017L121.849,516.537L122.518,517.054L123.188,517.57L123.86,518.083L124.533,518.595L125.208,519.105L125.885,519.612L126.563,520.118L127.243,520.622L127.924,521.124L128.607,521.623L129.291,522.121L129.977,522.617L130.665,523.11L131.354,523.602L132.044,524.092L132.736,524.58L133.43,525.065L134.125,525.549L134.822,526.03L135.52,526.51L136.22,526.987L136.921,527.463L137.624,527.936L138.328,528.407L139.033,528.877L139.741,529.344L140.449,529.809L141.159,530.272L141.871,530.733L142.584,531.192L143.298,531.648L144.014,532.103L144.732,532.556L145.451,533.006L146.171,533.454L146.893,533.901L147.616,534.345L148.341,534.787L149.067,535.227L149.794,535.664L150.523,536.1L151.254,536.533L151.985,536.965L152.719,537.394L153.453,537.821L154.189,538.246L154.927,538.669L155.665,539.089L156.405,539.508L157.147,539.924L157.89,540.338L158.634,540.75L159.38,541.159L160.127,541.567L160.875,541.972L161.625,542.375L162.376,542.776L163.129,543.175L163.882,543.571L164.637,543.966L165.394,544.358L166.152,544.747L166.911,545.135L167.671,545.52L168.433,545.904L169.196,546.284L169.96,546.663L170.726,547.039L171.493,547.414L172.261,547.785L173.031,548.155L173.802,548.522L174.574,548.887L175.347,549.25L176.122,549.611L176.898,549.969L177.675,550.325L178.454,550.679L179.234,551.03L180.015,551.379L180.797,551.726L181.58,552.07L182.365,552.412L183.151,552.752L183.938,553.089L184.727,553.425L185.516,553.757L186.307,554.088L187.099,554.416L187.893,554.742L188.687,555.065L189.483,555.386L190.28,555.705L191.078,556.021L191.877,556.335L192.677,556.647L193.479,556.956L194.282,557.263L195.086,557.568L195.891,557.87L196.697,558.169L197.505,558.467L198.314,558.762L199.123,559.054L199.934,559.344L200.746,559.632L201.559,559.917L202.374,560.2L203.189,560.48L204.006,560.758L204.824,561.034L205.642,561.307L206.462,561.578L207.283,561.846L208.105,562.112L208.929,562.375L209.753,562.636L210.578,562.894L211.405,563.15L212.232,563.403L213.061,563.654L213.891,563.903L214.722,564.149L215.553,564.392L216.386,564.633L217.22,564.872L218.055,565.108L218.891,565.341L219.729,565.572L220.567,565.801L221.406,566.027L222.246,566.25L223.087,566.471L223.93,566.689L224.773,566.905L225.617,567.118L226.462,567.329L227.309,567.537L228.156,567.742L229.004,567.945L229.853,568.146L230.704,568.344L231.555,568.539L232.407,568.732L233.26,568.922L234.115,569.11L234.97,569.294L235.826,569.477L236.683,569.657L237.541,569.834L238.4,570.008L239.259,570.18L240.12,570.35L240.982,570.516L241.845,570.68L242.708,570.842L243.573,571.001L244.438,571.157L245.305,571.31L246.172,571.461L247.04,571.609L247.909,571.755L248.779,571.898L249.65,572.038L250.522,572.176L251.394,572.311L252.268,572.443L253.142,572.572L254.017,572.699L254.893,572.823L255.77,572.945L256.648,573.064L257.527,573.18L258.406,573.293L259.287,573.404L260.168,573.512L261.05,573.617L261.933,573.719L262.817,573.819L263.701,573.916L264.587,574.01L265.473,574.102L266.36,574.191L267.247,574.277L268.136,574.36L269.025,574.44L269.916,574.518L270.807,574.593L271.698,574.665L272.591,574.735L273.484,574.801L274.378,574.865L275.273,574.926L276.169,574.984L277.065,575.04L277.962,575.093L278.86,575.142L279.759,575.189L280.658,575.234L281.558,575.275L282.459,575.314L283.36,575.349L284.263,575.382L285.166,575.412L286.069,575.44L286.974,575.464L287.879,575.486L288.785,575.504L289.691,575.52L290.598,575.533L291.506,575.543L292.415,575.55L293.324,575.555L294.234,575.556L295.144,575.555L296.053,575.55L296.962,575.543L297.87,575.533L298.777,575.52L299.684,575.504L300.59,575.486L301.495,575.464L302.399,575.44L303.303,575.412L304.206,575.382L305.108,575.349L306.01,575.314L306.91,575.275L307.81,575.234L308.71,575.189L309.608,575.142L310.506,575.093L311.403,575.04L312.3,574.984L313.195,574.926L314.09,574.865L314.984,574.801L315.878,574.735L316.77,574.665L317.662,574.593L318.553,574.518L319.443,574.44L320.332,574.36L321.221,574.277L322.109,574.191L322.996,574.102L323.882,574.01L324.767,573.916L325.652,573.819L326.535,573.719L327.418,573.617L328.3,573.512L329.182,573.404L330.062,573.293L330.941,573.18L331.82,573.064L332.698,572.945L333.575,572.823L334.451,572.699L335.326,572.572L336.201,572.443L337.074,572.311L337.947,572.176L338.818,572.038L339.689,571.898L340.559,571.755L341.428,571.609L342.296,571.461L343.164,571.31L344.03,571.157L344.895,571.001L345.76,570.842L346.624,570.68L347.486,570.516L348.348,570.35L349.209,570.18L350.069,570.008L350.928,569.834L351.786,569.657L352.643,569.477L353.499,569.294L354.354,569.11L355.208,568.922L356.061,568.732L356.913,568.539L357.765,568.344L358.615,568.146L359.464,567.945L360.312,567.742L361.16,567.537L362.006,567.329L362.851,567.118L363.696,566.905L364.539,566.689L365.381,566.471L366.222,566.25L367.062,566.027L367.902,565.801L368.74,565.572L369.577,565.341L370.413,565.108L371.248,564.872L372.082,564.633L372.915,564.392L373.747,564.149L374.578,563.903L375.407,563.654L376.236,563.403L377.063,563.15L377.89,562.894L378.715,562.636L379.54,562.375L380.363,562.112L381.185,561.846L382.006,561.578L382.826,561.307L383.645,561.034L384.463,560.758L385.279,560.48L386.095,560.2L386.909,559.917L387.722,559.632L388.534,559.344L389.345,559.054L390.155,558.762L390.964,558.467L391.771,558.169L392.577,557.87L393.382,557.568L394.186,557.263L394.989,556.956L395.791,556.647L396.591,556.335L397.391,556.021L398.189,555.705L398.986,555.386L399.781,555.065L400.576,554.742L401.369,554.416L402.161,554.088L402.952,553.757L403.742,553.425L404.53,553.089L405.317,552.752L406.103,552.412L406.888,552.07L407.672,551.726L408.454,551.379L409.235,551.03L410.015,550.679L410.793,550.325L411.57,549.969L412.346,549.611L413.121,549.25L413.894,548.887L414.667,548.522L415.437,548.155L416.207,547.785L416.975,547.414L417.742,547.039L418.508,546.663L419.272,546.284L420.035,545.904L420.797,545.52L421.558,545.135L422.317,544.747L423.075,544.358L423.831,543.966L424.586,543.571L425.34,543.175L426.092,542.776L426.843,542.375L427.593,541.972L428.342,541.567L429.089,541.159L429.834,540.75L430.579,540.338L431.321,539.924L432.063,539.508L432.803,539.089L433.542,538.669L434.279,538.246L435.015,537.821L435.75,537.394L436.483,536.965L437.215,536.533L437.945,536.1L438.674,535.664L439.402,535.227L440.128,534.787L440.852,534.345L441.576,533.901L442.297,533.454L443.018,533.006L443.737,532.556L444.454,532.103L445.17,531.648L445.884,531.192L446.598,530.733L447.309,530.272L448.019,529.809L448.728,529.344L449.435,528.877L450.141,528.407L450.845,527.936L451.548,527.463L452.249,526.987L452.948,526.51L453.647,526.03L454.343,525.549L455.038,525.065L455.732,524.579L456.424,524.092L457.115,523.602L457.804,523.11L458.491,522.617L459.177,522.121L459.862,521.623L460.544,521.124L461.226,520.622L461.905,520.118L462.583,519.612L463.26,519.105L463.935,518.595L464.609,518.083L465.28,517.57L465.951,517.054L466.619,516.537L467.286,516.017L467.952,515.495L468.616,514.972L469.278,514.447L469.939,513.919L470.598,513.39L471.255,512.859L471.911,512.326L472.565,511.791L473.218,511.254L473.869,510.715L474.518,510.174L475.165,509.631L475.811,509.087L476.456,508.54L477.098,507.992L477.739,507.441L478.379,506.889L479.016,506.335L479.652,505.779L480.286,505.221L480.919,504.662L481.55,504.1L482.179,503.537L482.807,502.971L483.432,502.404L484.056,501.835L484.679,501.265L485.3,500.692L485.918,500.117L486.536,499.541L487.151,498.963L487.765,498.383L488.377,497.801L488.987,497.218L489.596,496.632L490.202,496.045L490.807,495.456L491.411,494.865L492.012,494.273L492.612,493.678L493.21,493.082L493.806,492.484L494.4,491.884L494.993,491.283L495.584,490.68L496.173,490.075L496.76,489.468L497.345,488.859L497.929,488.249L498.511,487.637L499.091,487.023L499.669,486.408L500.245,485.791L500.819,485.172L501.392,484.551L501.963,483.929L502.532,483.305L503.099,482.679L503.664,482.051L504.228,481.422L504.789,480.791L505.349,480.159L505.907,479.525L506.463,478.889L507.017,478.251L507.569,477.612L508.119,476.971L508.668,476.328L509.214,475.684L509.759,475.038L510.302,474.39L510.842,473.741L511.381,473.09L511.918,472.438L512.453,471.783L512.986,471.128L513.518,470.47L514.047,469.811L514.574,469.15L515.1,468.488L515.623,467.824L516.145,467.159L516.664,466.492L517.182,465.823L517.697,465.153L518.211,464.481L518.723,463.808L519.232,463.133L519.74,462.456L520.246,461.778L520.749,461.098L521.251,460.417L521.751,459.734L522.249,459.049L522.744,458.364L523.238,457.676L523.73,456.987L524.219,456.296L524.707,455.604L525.193,454.911L525.676,454.216L526.158,453.519L526.637,452.821L527.115,452.121L527.59,451.42L528.064,450.717L528.535,450.013L529.004,449.307L529.471,448.6L529.936,447.892L530.399,447.182L530.86,446.47L531.319,445.757L531.776,445.042L532.231,444.326L532.683,443.609L533.134,442.89L533.582,442.17L534.028,441.448L534.472,440.725L534.914,440L535.354,439.274L535.792,438.546L536.228,437.817L536.661,437.087L537.092,436.355L537.522,435.622L537.949,434.888L538.374,434.152L538.796,433.414L539.217,432.676L539.635,431.935L540.051,431.194L540.465,430.451L540.877,429.707L541.287,428.961L541.695,428.214L542.1,427.466L542.503,426.716L542.904,425.965L543.302,425.212L543.699,424.458L544.093,423.703L544.485,422.947L544.875,422.189L545.263,421.43L545.648,420.669L546.031,419.908L546.412,419.145L546.791,418.38L547.167,417.615L547.541,416.848L547.913,416.079L548.283,415.31L548.65,414.539L549.015,413.767L549.378,412.993L549.738,412.219L550.097,411.443L550.453,410.666L550.806,409.887L551.158,409.107L551.507,408.326L551.853,407.544L552.198,406.76L552.54,405.976L552.88,405.19L553.217,404.403L553.552,403.614L553.885,402.825L554.216,402.034L554.544,401.242L554.869,400.448L555.193,399.654L555.514,398.858L555.833,398.061L556.149,397.263L556.463,396.464L556.775,395.663L557.084,394.862L557.391,394.059L557.695,393.255L557.997,392.45L558.297,391.643L558.594,390.836L558.889,390.027L559.182,389.218L559.472,388.407L559.76,387.594L560.045,386.781L560.328,385.967L560.608,385.152L560.886,384.335L561.162,383.517L561.435,382.698L561.705,381.878L561.973,381.057L562.239,380.235L562.503,379.412L562.763,378.588L563.022,377.762L563.278,376.936L563.531,376.108L563.782,375.28L564.03,374.45L564.276,373.619L564.52,372.787L564.761,371.954L564.999,371.12L565.235,370.285L565.469,369.449L565.7,368.612L565.928,367.774L566.154,366.935L566.377,366.095L566.598,365.253L566.817,364.411L567.032,363.568L567.246,362.724L567.456,361.878L567.664,361.032L567.87,360.185L568.073,359.337L568.273,358.487L568.471,357.637L568.667,356.786L568.859,355.934L569.05,355.08L569.237,354.226L569.422,353.371L569.604,352.515L569.784,351.658L569.961,350.8L570.136,349.941L570.308,349.081L570.477,348.22L570.644,347.359L570.808,346.496L570.969,345.632L571.128,344.768L571.284,343.903L571.438,343.036L571.589,342.169L571.737,341.301L571.883,340.432L572.025,339.562L572.166,338.691L572.303,337.819L572.438,336.947L572.57,336.073L572.7,335.199L572.827,334.323L572.951,333.447L573.072,332.57L573.191,331.692L573.307,330.814L573.421,329.934L573.531,329.054L573.639,328.173L573.744,327.291L573.847,326.408L573.947,325.524L574.044,324.64L574.138,323.754L574.229,322.868L574.318,321.981L574.404,321.093L574.487,320.205L574.568,319.315L574.646,318.425L574.721,317.534L574.793,316.642L574.862,315.75L574.929,314.857L574.993,313.963L575.054,313.068L575.112,312.172L575.168,311.276L575.22,310.379L575.27,309.481L575.317,308.582L575.361,307.683L575.403,306.783L575.441,305.882L575.477,304.98L575.51,304.078L575.54,303.175L575.567,302.272L575.592,301.367L575.613,300.462L575.632,299.556L575.648,298.65L575.661,297.742L575.671,296.834L575.678,295.926L575.682,295.017L575.684,294.107L575.682,293.197L575.678,292.287L575.671,291.379L575.661,290.471L575.648,289.564L575.632,288.657L575.613,287.751L575.592,286.846L575.567,285.942L575.54,285.038L575.51,284.135L575.477,283.233L575.441,282.331L575.403,281.43L575.361,280.53L575.317,279.631L575.27,278.732L575.22,277.834L575.168,276.937L575.112,276.041L575.054,275.145L574.993,274.251L574.929,273.357L574.862,272.463L574.793,271.571L574.721,270.679L574.646,269.788L574.568,268.898L574.487,268.008L574.404,267.12L574.318,266.232L574.229,265.345L574.138,264.459L574.044,263.574L573.947,262.689L573.847,261.805L573.744,260.923L573.639,260.04L573.531,259.159L573.421,258.279L573.307,257.399L573.191,256.521L573.072,255.643L572.951,254.766L572.827,253.89L572.7,253.015L572.57,252.14L572.438,251.267L572.303,250.394L572.166,249.522L572.025,248.652L571.883,247.781L571.737,246.912L571.589,246.044L571.438,245.177L571.284,244.311L571.128,243.445L570.969,242.581L570.808,241.717L570.644,240.854L570.477,239.993L570.308,239.132L570.136,238.272L569.961,237.413L569.784,236.555L569.604,235.698L569.422,234.842L569.237,233.987L569.05,233.133L568.859,232.28L568.667,231.427L568.471,230.576L568.273,229.726L568.073,228.877L567.87,228.028L567.664,227.181L567.456,226.335L567.246,225.489L567.032,224.645L566.817,223.802L566.598,222.96L566.377,222.118L566.154,221.278L565.928,220.439L565.7,219.601L565.469,218.764L565.235,217.928L564.999,217.093L564.761,216.259L564.52,215.426L564.276,214.594L564.03,213.763L563.782,212.934L563.531,212.105L563.278,211.277L563.022,210.451L562.763,209.625L562.503,208.801L562.239,207.978L561.973,207.156L561.705,206.335L561.435,205.515L561.162,204.696L560.886,203.878L560.608,203.062L560.328,202.246L560.045,201.432L559.76,200.619L559.472,199.807L559.182,198.996L558.889,198.186L558.594,197.377L558.297,196.57L557.997,195.763L557.695,194.958L557.391,194.154L557.084,193.352L556.775,192.55L556.463,191.749L556.149,190.95L555.833,190.152L555.514,189.355L555.193,188.559L554.869,187.765L554.544,186.972L554.216,186.18L553.885,185.389L553.552,184.599L553.217,183.811L552.88,183.023L552.54,182.237L552.198,181.453L551.853,180.669L551.507,179.887L551.157,179.106L550.806,178.326L550.453,177.548L550.097,176.77L549.738,175.995L549.378,175.22L549.015,174.446L548.65,173.674L548.283,172.903L547.913,172.134L547.541,171.366L547.167,170.599L546.791,169.833L546.412,169.068L546.031,168.305L545.648,167.544L545.263,166.783L544.875,166.024L544.485,165.266L544.093,164.51L543.699,163.755L543.302,163.001L542.904,162.248L542.503,161.497L542.1,160.748L541.694,159.999L541.287,159.252L540.877,158.507L540.465,157.762L540.051,157.019L539.635,156.278L539.217,155.538L538.796,154.799L538.374,154.062L537.949,153.326L537.522,152.591L537.092,151.858L536.661,151.126L536.228,150.396L535.792,149.667L535.354,148.939L534.914,148.213L534.472,147.489L534.028,146.765L533.582,146.043L533.134,145.323L532.683,144.604L532.231,143.887L531.776,143.171L531.319,142.456L530.86,141.743L530.399,141.032L529.936,140.322L529.471,139.613L529.004,138.906L528.535,138.2L528.064,137.496L527.59,136.793L527.115,136.092L526.637,135.392L526.158,134.694L525.676,133.998L525.193,133.302L524.707,132.609L524.219,131.917L523.73,131.226L523.238,130.537L522.744,129.85L522.249,129.164L521.751,128.479L521.251,127.796L520.749,127.115L520.246,126.435L519.74,125.757L519.232,125.081L518.723,124.406L518.211,123.732L517.697,123.06L517.182,122.39L516.664,121.721L516.145,121.054L515.623,120.389L515.1,119.725L514.574,119.063L514.047,118.402L513.518,117.743L512.986,117.086L512.453,116.43L511.918,115.776L511.381,115.123L510.842,114.472L510.302,113.823L509.759,113.175L509.214,112.529L508.668,111.885L508.119,111.242L507.569,110.602L507.017,109.962L506.463,109.325L505.907,108.689L505.349,108.054L504.789,107.422L504.228,106.791L503.664,106.162L503.099,105.534L502.532,104.908L501.963,104.284L501.392,103.662L500.819,103.041L500.245,102.422L499.669,101.805L499.091,101.19L498.511,100.576L497.929,99.964L497.345,99.354L496.76,98.745L496.173,98.138L495.584,97.533L494.993,96.93L494.4,96.329L493.806,95.729L493.21,95.131L492.612,94.535L492.012,93.941L491.411,93.348L490.807,92.757L490.202,92.168L489.596,91.581L488.987,90.996L488.377,90.412L487.765,89.83L487.151,89.25L486.536,88.672L485.918,88.096L485.3,87.521L484.679,86.949L484.056,86.378L483.432,85.809L482.807,85.242L482.179,84.676L481.55,84.113L480.919,83.551L480.286,82.992L479.652,82.434L479.016,81.878L478.379,81.324L477.739,80.772L477.098,80.221L476.456,79.673L475.811,79.127L475.165,78.582L474.518,78.039L473.869,77.498L473.218,76.959L472.565,76.423L471.911,75.887L471.255,75.354L470.598,74.823L469.939,74.294L469.278,73.767L468.616,73.241L467.952,72.718L467.286,72.196L466.619,71.677L465.951,71.159L465.28,70.644L464.609,70.13L463.935,69.618L463.26,69.109L462.583,68.601L461.905,68.095L461.226,67.591L460.544,67.09L459.862,66.59L459.177,66.092L458.491,65.596L457.804,65.103L457.115,64.611L456.424,64.121L455.732,63.634L455.038,63.148L454.343,62.664L453.647,62.183L452.948,61.703L452.249,61.226L451.548,60.751L450.845,60.277L450.141,59.806L449.435,59.337L448.728,58.87L448.019,58.404L447.309,57.941L446.598,57.48L445.884,57.022L445.17,56.565L444.454,56.11L443.737,55.658L443.018,55.207L442.297,54.759L441.576,54.313L440.852,53.868L440.128,53.426L439.402,52.987L438.674,52.549L437.945,52.113L437.215,51.68L436.483,51.248L435.75,50.819L435.015,50.392L434.279,49.967L433.542,49.545L432.803,49.124L432.063,48.706L431.321,48.289L430.579,47.875L429.834,47.463L429.089,47.054L428.342,46.646L427.593,46.241L426.843,45.838L426.092,45.437L425.34,45.038L424.586,44.642L423.831,44.248L423.075,43.856L422.317,43.466L421.558,43.078L420.797,42.693L420.035,42.31L419.272,41.929L418.508,41.55L417.742,41.174L416.975,40.8L416.207,40.428L415.437,40.058L414.667,39.691L413.894,39.326L413.121,38.963L412.346,38.602L411.57,38.244L410.793,37.888L410.015,37.535L409.235,37.183L408.454,36.834L407.672,36.488L406.888,36.143L406.103,35.801L405.317,35.461L404.53,35.124L403.742,34.789L402.952,34.456L402.161,34.125L401.369,33.797L400.576,33.471L399.781,33.148L398.986,32.827L398.189,32.508L397.391,32.192L396.591,31.878L395.791,31.566L394.989,31.257L394.186,30.95L393.382,30.646L392.577,30.343L391.771,30.044L390.964,29.746L390.155,29.452L389.345,29.159L388.534,28.869L387.722,28.581L386.909,28.296L386.095,28.013L385.279,27.733L384.463,27.455L383.645,27.179L382.826,26.906L382.006,26.636L381.185,26.367L380.363,26.102L379.54,25.838L378.715,25.577L377.89,25.319L377.063,25.063L376.236,24.81L375.407,24.559L374.578,24.31L373.747,24.064L372.915,23.821L372.082,23.58L371.248,23.341L370.413,23.105L369.577,22.872L368.74,22.641L367.902,22.413L367.063,22.187L366.222,21.963L365.381,21.742L364.539,21.524L363.696,21.308L362.851,21.095L362.006,20.884L361.16,20.676L360.312,20.471L359.464,20.268L358.615,20.067L357.765,19.869L356.913,19.674L356.061,19.481L355.208,19.291L354.354,19.104L353.499,18.919L352.643,18.736L351.786,18.557L350.928,18.379L350.069,18.205L349.209,18.033L348.348,17.864L347.486,17.697L346.624,17.533L345.76,17.371L344.896,17.213L344.03,17.056L343.164,16.903L342.297,16.752L341.428,16.604L340.559,16.458L339.689,16.315L338.818,16.175L337.947,16.038L337.074,15.903L336.201,15.77L335.326,15.641L334.451,15.514L333.575,15.39L332.698,15.268L331.82,15.15L330.941,15.034L330.062,14.92L329.182,14.81L328.3,14.702L327.418,14.596L326.535,14.494L325.652,14.394L324.767,14.297L323.882,14.203L322.996,14.111L322.109,14.023L321.221,13.937L320.332,13.853L319.443,13.773L318.553,13.695L317.662,13.62L316.77,13.548L315.878,13.479L314.984,13.412L314.09,13.348L313.195,13.287L312.3,13.229L311.403,13.173L310.506,13.121L309.608,13.071L308.71,13.024L307.811,12.979L306.91,12.938L306.01,12.899L305.108,12.864L304.206,12.831L303.303,12.801L302.399,12.774L301.495,12.749L300.59,12.728L299.684,12.709L298.777,12.693L297.87,12.68L296.962,12.67L296.053,12.663L295.144,12.659L294.234,12.657L293.324,12.659Z" style="fill:rgb(168,57,186);"/>
        </g>
    </g>
</svg>
