<?xml version="1.0" encoding="UTF-8" standalone="no"?>
<!DOCTYPE svg PUBLIC "-//W3C//DTD SVG 1.1//EN" "http://www.w3.org/Graphics/SVG/1.1/DTD/svg11.dtd">
<svg width="100%" height="100%" viewBox="0 0 591 391" version="1.1" xmlns="http://www.w3.org/2000/svg" xmlns:xlink="http://www.w3.org/1999/xlink" xml:space="preserve" style="fill-rule:evenodd;clip-rule:evenodd;stroke-linejoin:round;stroke-miterlimit:1.41421;">
    <g transform="matrix(1,0,0,1,-6,-66)">
        <g transform="matrix(5.27077,0,0,5.27077,-893.013,-1261.17)">
            <g id="XBoxOne-Icon-Dark" transform="matrix(0.432054,0,0,0.432054,153.344,148.786)">
                <path d="M81.412,256.043C83.2,252.942 84.926,250.118 85.632,249.472C88.002,247.305 118.756,238.844 121.243,238.739C124.445,238.604 132.454,245.536 136.746,245.928L202.447,245.928C206.739,245.536 214.748,238.604 217.951,238.739C220.437,238.844 251.192,247.305 253.561,249.472C254.268,250.118 255.994,252.942 257.782,256.043C264.12,258.315 269.386,263.379 271.654,270.265L281.243,299.38C281.259,299.425 291.619,327.649 295.158,341.321C305.892,382.778 293.805,410.037 272.216,410.018C264.789,410.011 221.059,367.196 216.774,365.723L122.419,365.723C118.135,367.196 74.405,410.011 66.978,410.018C45.389,410.037 33.302,382.778 44.035,341.321C47.575,327.649 57.934,299.425 57.951,299.38L67.54,270.265C69.808,263.379 75.073,258.315 81.412,256.043ZM136.4,310.384C148.18,310.384 157.744,319.948 157.744,331.727C157.744,343.507 148.18,353.071 136.4,353.071C124.62,353.071 115.056,343.507 115.056,331.727C115.056,319.948 124.62,310.384 136.4,310.384ZM203.193,309.169C214.188,309.169 223.114,318.095 223.114,329.09C223.114,340.085 214.188,349.011 203.193,349.011C192.198,349.011 183.272,340.085 183.272,329.09C183.272,318.095 192.198,309.169 203.193,309.169ZM138.855,346.83L133.945,346.83C132.59,346.83 131.49,345.73 131.49,344.375L131.49,336.718L131.487,336.718L131.487,336.645L131.395,336.645L131.395,336.638L123.752,336.638C122.397,336.638 121.297,335.538 121.297,334.183L121.297,329.272C121.297,327.917 122.397,326.817 123.752,326.817L131.487,326.817L131.487,326.667L131.488,326.667L131.488,319.08C131.488,317.725 132.589,316.624 133.944,316.624L138.856,316.624C140.211,316.624 141.312,317.725 141.312,319.08L141.312,326.816L149.048,326.816C150.403,326.816 151.503,327.916 151.503,329.271L151.503,334.183C151.503,335.539 150.403,336.639 149.048,336.639L141.545,336.639L141.545,336.645L141.31,336.645L141.31,344.375C141.31,345.73 140.21,346.83 138.855,346.83ZM203.193,314.381C211.312,314.381 217.903,320.972 217.903,329.09C217.903,337.209 211.312,343.8 203.193,343.8C195.075,343.8 188.483,337.209 188.483,329.09C188.483,320.972 195.075,314.381 203.193,314.381ZM203.193,319.793C208.324,319.793 212.49,323.959 212.49,329.09C212.49,334.221 208.324,338.387 203.193,338.387C198.062,338.387 193.896,334.221 193.896,329.09C193.896,323.959 198.062,319.793 203.193,319.793ZM235.529,298.807C240.265,298.807 244.111,302.652 244.111,307.388C244.111,312.124 240.265,315.97 235.529,315.97C230.793,315.97 226.947,312.124 226.947,307.388C226.947,302.652 230.793,298.807 235.529,298.807ZM239.216,311.321L237.493,311.321L236.947,309.7L234.105,309.7L233.565,311.321L231.842,311.321L234.77,303.455L236.272,303.455L239.216,311.321ZM104.249,269.334C115.244,269.334 124.17,278.26 124.17,289.255C124.17,300.249 115.244,309.176 104.249,309.176C93.254,309.176 84.328,300.249 84.328,289.255C84.328,278.26 93.254,269.334 104.249,269.334ZM234.543,308.388L236.51,308.388L235.521,305.443L234.543,308.388ZM104.249,274.545C112.367,274.545 118.959,281.136 118.959,289.255C118.959,297.373 112.367,303.964 104.249,303.964C96.13,303.964 89.539,297.373 89.539,289.255C89.539,281.136 96.13,274.545 104.249,274.545ZM104.249,279.958C109.38,279.958 113.546,284.124 113.546,289.255C113.546,294.386 109.38,298.552 104.249,298.552C99.118,298.552 94.952,294.386 94.952,289.255C94.952,284.124 99.118,279.958 104.249,279.958ZM217.904,281.197C222.641,281.197 226.486,285.042 226.486,289.779C226.486,294.515 222.641,298.36 217.904,298.36C213.168,298.36 209.323,294.515 209.323,289.779C209.323,285.042 213.168,281.197 217.904,281.197ZM253.154,281.197C257.89,281.197 261.735,285.042 261.735,289.779C261.735,294.515 257.89,298.36 253.154,298.36C248.417,298.36 244.572,294.515 244.572,289.779C244.572,285.042 248.417,281.197 253.154,281.197ZM150.971,284.359C153.826,284.359 156.143,286.677 156.143,289.531C156.143,292.386 153.826,294.703 150.971,294.703C148.117,294.703 145.799,292.386 145.799,289.531C145.799,286.677 148.117,284.359 150.971,284.359ZM188.222,284.359C191.077,284.359 193.394,286.677 193.394,289.531C193.394,292.386 191.077,294.703 188.222,294.703C185.368,294.703 183.05,292.386 183.05,289.531C183.05,286.677 185.368,284.359 188.222,284.359ZM216.392,293.712L214.506,293.712L216.856,289.746L214.565,285.846L216.429,285.846L217.904,288.558L219.379,285.846L221.243,285.846L218.952,289.746L221.303,293.712L219.417,293.712L217.904,290.956L216.392,293.712ZM253.24,293.712L250.231,293.712L250.231,285.846L252.986,285.846C253.444,285.846 253.852,285.889 254.213,285.975C254.573,286.062 254.878,286.194 255.128,286.372C255.379,286.551 255.569,286.775 255.701,287.045C255.832,287.315 255.898,287.634 255.898,288.001C255.898,288.181 255.876,288.354 255.831,288.52C255.786,288.686 255.717,288.84 255.625,288.984C255.533,289.129 255.417,289.259 255.277,289.376C255.136,289.493 254.969,289.59 254.774,289.665C255.005,289.723 255.202,289.81 255.366,289.927C255.53,290.044 255.665,290.18 255.771,290.335C255.877,290.49 255.955,290.658 256.003,290.84C256.052,291.022 256.076,291.209 256.076,291.399C256.076,292.163 255.831,292.739 255.339,293.128C254.847,293.517 254.148,293.712 253.24,293.712ZM253.299,290.287L251.852,290.287L251.852,292.41L253.24,292.41C253.449,292.41 253.629,292.384 253.78,292.331C253.932,292.279 254.058,292.207 254.158,292.115C254.259,292.023 254.334,291.915 254.383,291.791C254.431,291.667 254.456,291.531 254.456,291.383C254.456,291.214 254.434,291.062 254.391,290.927C254.348,290.792 254.28,290.676 254.188,290.581C254.096,290.486 253.977,290.413 253.829,290.362C253.681,290.312 253.505,290.287 253.299,290.287ZM252.986,287.158L251.852,287.158L251.852,289.141L253.051,289.141C253.465,289.134 253.773,289.047 253.975,288.879C254.177,288.712 254.277,288.473 254.277,288.163C254.277,287.807 254.174,287.55 253.967,287.393C253.76,287.237 253.433,287.158 252.986,287.158ZM235.529,263.588C240.265,263.588 244.111,267.433 244.111,272.169C244.111,276.906 240.265,280.751 235.529,280.751C230.793,280.751 226.947,276.906 226.947,272.169C226.947,267.433 230.793,263.588 235.529,263.588ZM236.353,276.102L234.705,276.102L234.705,273.25L232.123,268.236L233.9,268.236L235.526,271.78L237.163,268.236L238.935,268.236L236.353,273.25L236.353,276.102ZM203.701,248.828L135.406,248.828C131.206,248.436 123.369,241.504 120.235,241.639C117.802,241.744 89.705,250.205 87.387,252.372C87.034,252.701 86.423,253.596 85.676,254.804C91.46,253.352 117.556,246.857 120.072,247.294C122.259,247.674 142.282,270.661 146.094,274.044L193.1,274.044C196.912,270.661 216.935,247.674 219.121,247.294C221.623,246.859 247.435,253.277 253.415,254.779C252.676,253.583 252.071,252.699 251.721,252.372C249.402,250.205 221.306,241.744 218.873,241.639C215.739,241.504 207.901,248.436 203.701,248.828ZM162.504,267.264C163.976,264.941 165.786,262.615 167.899,260.396C168.485,259.782 169.079,259.19 169.681,258.622L169.761,258.698C172.607,261.408 174.961,264.317 176.744,267.198C175.04,269.251 172.47,270.559 169.597,270.559C166.754,270.559 164.208,269.279 162.504,267.264ZM175.418,254.043C177.53,255.745 178.882,258.353 178.882,261.274C178.882,263.167 178.314,264.927 177.341,266.396C176.749,263.128 175.005,259.822 172.195,257.145C172.057,257.014 171.919,256.886 171.778,256.76C172.981,255.758 174.199,254.85 175.418,254.043ZM163.888,253.954C165.135,254.796 166.378,255.734 167.6,256.762C167.169,257.138 166.75,257.538 166.346,257.963C163.961,260.467 162.446,263.429 161.838,266.374C160.874,264.91 160.312,263.157 160.312,261.274C160.312,258.302 161.712,255.654 163.888,253.954ZM165.315,253.035C166.596,252.367 168.053,251.989 169.597,251.989C171.237,251.989 172.779,252.416 174.117,253.163C172.619,253.594 171.134,254.263 169.728,255.165C168.317,254.22 166.824,253.509 165.315,253.035Z" style="fill:rgb(59,59,59);"/>
            </g>
        </g>
    </g>
</svg>
