<?xml version="1.0" encoding="UTF-8" standalone="no"?>
<!DOCTYPE svg PUBLIC "-//W3C//DTD SVG 1.1//EN" "http://www.w3.org/Graphics/SVG/1.1/DTD/svg11.dtd">
<svg width="100%" height="100%" viewBox="0 0 501 501" version="1.1" xmlns="http://www.w3.org/2000/svg" xmlns:xlink="http://www.w3.org/1999/xlink" xml:space="preserve" style="fill-rule:evenodd;clip-rule:evenodd;stroke-linejoin:round;stroke-miterlimit:1.41421;">
    <g transform="matrix(1,0,0,1,-7,-5)">
        <g id="Gradient_1" transform="matrix(3.125,0,0,3.125,-1102,-7141.27)">
            <path d="M443.18,2287.41C483.525,2291.51 515,2325.58 515,2367C515,2411.18 479.183,2447 435,2447C390.817,2447 355,2411.18 355,2367C355,2322.9 390.683,2287.14 434.99,2287L435.01,2287L443.18,2287.41ZM434.99,2295C395.115,2295.12 363,2327.31 363,2367C363,2406.76 395.236,2439 435,2439C474.765,2439 507,2406.76 507,2367C507,2327.31 474.886,2295.12 435.01,2295L434.99,2295Z" style="fill:url(#_Linear1);"/>
        </g>
    </g>
    <defs>
        <linearGradient id="_Linear1" x1="0" y1="0" x2="1" y2="0" gradientUnits="userSpaceOnUse" gradientTransform="matrix(160,0,0,277.333,355,2367)"><stop offset="0%" style="stop-color:rgb(43,213,99);stop-opacity:1"/><stop offset="100%" style="stop-color:rgb(0,130,213);stop-opacity:1"/></linearGradient>
    </defs>
</svg>
