<?xml version="1.0" encoding="UTF-8" standalone="no"?>
<!DOCTYPE svg PUBLIC "-//W3C//DTD SVG 1.1//EN" "http://www.w3.org/Graphics/SVG/1.1/DTD/svg11.dtd">
<svg width="100%" height="100%" viewBox="0 0 293 84" version="1.1" xmlns="http://www.w3.org/2000/svg" xmlns:xlink="http://www.w3.org/1999/xlink" xml:space="preserve" style="fill-rule:evenodd;clip-rule:evenodd;stroke-linejoin:round;stroke-miterlimit:1.41421;">
    <g id="BlueLight-Button-Rounded-Outline" transform="matrix(1.87362,0,0,1.8665,-262.307,-410.63)">
        <path d="M273.73,220L273.875,220.002L274.019,220.004L274.164,220.007L274.308,220.011L274.451,220.017L274.595,220.022L274.738,220.029L274.881,220.037L275.024,220.046L275.167,220.055L275.309,220.066L275.451,220.077L275.593,220.089L275.735,220.102L275.876,220.116L276.017,220.131L276.158,220.147L276.298,220.163L276.439,220.181L276.579,220.199L276.718,220.218L276.858,220.239L276.997,220.259L277.136,220.281L277.275,220.304L277.413,220.327L277.551,220.352L277.689,220.377L277.826,220.403L277.964,220.43L278.1,220.457L278.237,220.486L278.373,220.515L278.509,220.546L278.645,220.577L278.78,220.608L278.915,220.641L279.05,220.675L279.184,220.709L279.319,220.744L279.452,220.78L279.586,220.817L279.719,220.854L279.852,220.892L279.984,220.932L280.116,220.972L280.248,221.012L280.379,221.054L280.51,221.096L280.641,221.139L280.771,221.183L280.901,221.228L281.031,221.273L281.16,221.319L281.289,221.366L281.418,221.414L281.546,221.462L281.674,221.512L281.801,221.562L281.928,221.612L282.055,221.664L282.181,221.716L282.307,221.769L282.432,221.823L282.557,221.878L282.682,221.933L282.806,221.989L282.93,222.046L283.054,222.103L283.177,222.161L283.3,222.22L283.422,222.28L283.544,222.34L283.665,222.401L283.786,222.463L283.907,222.526L284.027,222.589L284.147,222.653L284.266,222.717L284.385,222.783L284.503,222.849L284.621,222.915L284.739,222.983L284.856,223.051L284.973,223.12L285.089,223.189L285.205,223.259L285.32,223.33L285.435,223.402L285.549,223.474L285.663,223.547L285.776,223.62L285.889,223.694L286.002,223.769L286.114,223.845L286.226,223.921L286.337,223.998L286.447,224.075L286.557,224.153L286.667,224.232L286.776,224.312L286.885,224.392L286.993,224.472L287.101,224.554L287.208,224.636L287.314,224.718L287.42,224.802L287.526,224.885L287.631,224.97L287.736,225.055L287.84,225.141L287.943,225.227L288.046,225.314L288.149,225.401L288.251,225.489L288.352,225.578L288.453,225.668L288.553,225.757L288.653,225.848L288.752,225.939L288.851,226.031L288.949,226.123L289.047,226.216L289.144,226.309L289.241,226.403L289.336,226.498L289.432,226.593L289.527,226.689L289.621,226.785L289.715,226.882L289.808,226.98L289.9,227.078L289.992,227.176L290.083,227.275L290.174,227.375L290.264,227.475L290.354,227.576L290.443,227.677L290.531,227.779L290.619,227.881L290.706,227.984L290.793,228.087L290.879,228.191L290.964,228.296L291.049,228.401L291.133,228.506L291.217,228.612L291.3,228.719L291.382,228.826L291.464,228.933L291.545,229.041L291.625,229.15L291.705,229.259L291.784,229.369L291.862,229.479L291.94,229.589L292.017,229.7L292.094,229.812L292.17,229.924L292.245,230.036L292.32,230.149L292.393,230.263L292.467,230.376L292.539,230.491L292.611,230.606L292.682,230.721L292.753,230.837L292.823,230.953L292.892,231.069L292.961,231.187L293.029,231.304L293.096,231.422L293.162,231.541L293.228,231.66L293.293,231.779L293.357,231.899L293.421,232.019L293.484,232.139L293.546,232.261L293.608,232.382L293.669,232.504L293.729,232.626L293.788,232.749L293.847,232.872L293.905,232.996L293.962,233.12L294.019,233.244L294.074,233.369L294.13,233.494L294.184,233.62L294.237,233.745L294.29,233.872L294.342,233.999L294.394,234.126L294.444,234.253L294.494,234.381L294.543,234.509L294.591,234.638L294.639,234.767L294.686,234.896L294.732,235.026L294.777,235.156L294.821,235.287L294.865,235.418L294.908,235.549L294.95,235.68L294.992,235.812L295.032,235.945L295.072,236.077L295.111,236.21L295.149,236.343L295.186,236.477L295.223,236.611L295.259,236.745L295.294,236.88L295.328,237.015L295.361,237.15L295.394,237.285L295.426,237.421L295.457,237.557L295.487,237.694L295.516,237.831L295.544,237.968L295.572,238.105L295.599,238.243L295.625,238.381L295.65,238.519L295.674,238.658L295.697,238.797L295.72,238.936L295.742,239.075L295.762,239.215L295.782,239.355L295.802,239.495L295.82,239.636L295.837,239.777L295.854,239.918L295.869,240.059L295.884,240.201L295.898,240.343L295.911,240.485L295.923,240.627L295.935,240.77L295.945,240.913L295.954,241.056L295.963,241.199L295.971,241.343L295.978,241.487L295.984,241.631L295.989,241.775L295.993,241.92L295.996,242.064L295.998,242.209L296,242.355L296,242.5L296,242.645L295.998,242.791L295.996,242.936L295.993,243.08L295.989,243.225L295.984,243.369L295.978,243.513L295.971,243.657L295.963,243.801L295.954,243.944L295.945,244.087L295.935,244.23L295.923,244.373L295.911,244.515L295.898,244.657L295.884,244.799L295.869,244.941L295.854,245.082L295.837,245.223L295.82,245.364L295.802,245.505L295.782,245.645L295.762,245.785L295.742,245.925L295.72,246.064L295.697,246.203L295.674,246.342L295.65,246.481L295.625,246.619L295.599,246.757L295.572,246.895L295.544,247.032L295.516,247.169L295.487,247.306L295.457,247.443L295.426,247.579L295.394,247.715L295.361,247.85L295.328,247.985L295.294,248.12L295.259,248.255L295.223,248.389L295.186,248.523L295.149,248.657L295.111,248.79L295.072,248.923L295.032,249.055L294.992,249.188L294.95,249.32L294.908,249.451L294.865,249.582L294.821,249.713L294.777,249.844L294.732,249.974L294.686,250.104L294.639,250.233L294.591,250.362L294.543,250.491L294.494,250.619L294.444,250.747L294.394,250.874L294.342,251.001L294.29,251.128L294.237,251.255L294.184,251.38L294.13,251.506L294.074,251.631L294.019,251.756L293.962,251.88L293.905,252.004L293.847,252.128L293.788,252.251L293.729,252.374L293.669,252.496L293.608,252.618L293.546,252.739L293.484,252.861L293.421,252.981L293.357,253.101L293.293,253.221L293.228,253.34L293.162,253.459L293.096,253.578L293.029,253.696L292.961,253.813L292.892,253.931L292.823,254.047L292.753,254.163L292.682,254.279L292.611,254.394L292.539,254.509L292.467,254.624L292.393,254.737L292.32,254.851L292.245,254.964L292.17,255.076L292.094,255.188L292.017,255.3L291.94,255.411L291.862,255.521L291.784,255.631L291.705,255.741L291.625,255.85L291.545,255.959L291.464,256.067L291.382,256.174L291.3,256.281L291.217,256.388L291.133,256.494L291.049,256.599L290.964,256.704L290.879,256.809L290.793,256.913L290.706,257.016L290.619,257.119L290.531,257.221L290.443,257.323L290.354,257.424L290.264,257.525L290.174,257.625L290.083,257.725L289.992,257.824L289.9,257.922L289.808,258.02L289.715,258.118L289.621,258.215L289.527,258.311L289.432,258.407L289.336,258.502L289.241,258.597L289.144,258.691L289.047,258.784L288.949,258.877L288.851,258.969L288.752,259.061L288.653,259.152L288.553,259.243L288.453,259.332L288.352,259.422L288.251,259.511L288.149,259.599L288.046,259.686L287.943,259.773L287.84,259.859L287.736,259.945L287.631,260.03L287.526,260.115L287.42,260.198L287.314,260.282L287.208,260.364L287.101,260.446L286.993,260.528L286.885,260.608L286.776,260.688L286.667,260.768L286.557,260.847L286.447,260.925L286.337,261.002L286.226,261.079L286.114,261.155L286.002,261.231L285.889,261.306L285.776,261.38L285.663,261.453L285.549,261.526L285.435,261.598L285.32,261.67L285.205,261.741L285.089,261.811L284.973,261.88L284.856,261.949L284.739,262.017L284.621,262.085L284.503,262.151L284.385,262.217L284.266,262.283L284.147,262.347L284.027,262.411L283.907,262.474L283.786,262.537L283.665,262.599L283.544,262.66L283.422,262.72L283.3,262.78L283.177,262.839L283.054,262.897L282.93,262.954L282.806,263.011L282.682,263.067L282.557,263.122L282.432,263.177L282.307,263.231L282.181,263.284L282.055,263.336L281.928,263.388L281.801,263.438L281.674,263.488L281.546,263.538L281.418,263.586L281.289,263.634L281.16,263.681L281.031,263.727L280.901,263.772L280.771,263.817L280.641,263.861L280.51,263.904L280.379,263.946L280.248,263.988L280.116,264.028L279.984,264.068L279.852,264.108L279.719,264.146L279.586,264.183L279.452,264.22L279.319,264.256L279.184,264.291L279.05,264.325L278.915,264.359L278.78,264.392L278.645,264.423L278.509,264.454L278.373,264.485L278.237,264.514L278.1,264.543L277.964,264.57L277.826,264.597L277.689,264.623L277.551,264.648L277.413,264.673L277.275,264.696L277.136,264.719L276.997,264.741L276.858,264.761L276.718,264.782L276.579,264.801L276.439,264.819L276.298,264.837L276.158,264.853L276.017,264.869L275.876,264.884L275.735,264.898L275.593,264.911L275.451,264.923L275.309,264.934L275.167,264.945L275.024,264.954L274.881,264.963L274.738,264.971L274.595,264.978L274.451,264.983L274.308,264.989L274.164,264.993L274.019,264.996L273.875,264.998L273.73,265L273.586,265L162.414,265L162.27,265L162.125,264.998L161.981,264.996L161.836,264.993L161.692,264.989L161.549,264.983L161.405,264.978L161.262,264.971L161.119,264.963L160.976,264.954L160.833,264.945L160.691,264.934L160.549,264.923L160.407,264.911L160.265,264.898L160.124,264.884L159.983,264.869L159.842,264.853L159.702,264.837L159.561,264.819L159.421,264.801L159.282,264.782L159.142,264.761L159.003,264.741L158.864,264.719L158.725,264.696L158.587,264.673L158.449,264.648L158.311,264.623L158.174,264.597L158.036,264.57L157.9,264.543L157.763,264.514L157.627,264.485L157.491,264.454L157.355,264.423L157.22,264.392L157.085,264.359L156.95,264.325L156.816,264.291L156.681,264.256L156.548,264.22L156.414,264.183L156.281,264.146L156.148,264.108L156.016,264.068L155.884,264.028L155.752,263.988L155.621,263.946L155.49,263.904L155.359,263.861L155.229,263.817L155.099,263.772L154.969,263.727L154.84,263.681L154.711,263.634L154.582,263.586L154.454,263.538L154.326,263.488L154.199,263.438L154.072,263.388L153.945,263.336L153.819,263.284L153.693,263.231L153.568,263.177L153.443,263.122L153.318,263.067L153.194,263.011L153.07,262.954L152.946,262.897L152.823,262.839L152.7,262.78L152.578,262.72L152.456,262.66L152.335,262.599L152.214,262.537L152.093,262.474L151.973,262.411L151.853,262.347L151.734,262.283L151.615,262.217L151.497,262.151L151.379,262.085L151.261,262.017L151.144,261.949L151.027,261.88L150.911,261.811L150.795,261.741L150.68,261.67L150.565,261.598L150.451,261.526L150.337,261.453L150.224,261.38L150.111,261.306L149.998,261.231L149.886,261.155L149.774,261.079L149.663,261.002L149.553,260.925L149.443,260.847L149.333,260.768L149.224,260.688L149.115,260.608L149.007,260.528L148.899,260.446L148.792,260.364L148.686,260.282L148.58,260.198L148.474,260.115L148.369,260.03L148.264,259.945L148.16,259.859L148.057,259.773L147.954,259.686L147.851,259.599L147.749,259.511L147.648,259.422L147.547,259.332L147.447,259.243L147.347,259.152L147.248,259.061L147.149,258.969L147.051,258.877L146.953,258.784L146.856,258.691L146.759,258.597L146.664,258.502L146.568,258.407L146.473,258.311L146.379,258.215L146.285,258.118L146.192,258.02L146.1,257.922L146.008,257.824L145.917,257.725L145.826,257.625L145.736,257.525L145.646,257.424L145.557,257.323L145.469,257.221L145.381,257.119L145.294,257.016L145.207,256.913L145.121,256.809L145.036,256.704L144.951,256.599L144.867,256.494L144.783,256.388L144.7,256.281L144.618,256.174L144.536,256.067L144.455,255.959L144.375,255.85L144.295,255.741L144.216,255.631L144.138,255.521L144.06,255.411L143.983,255.3L143.906,255.188L143.83,255.076L143.755,254.964L143.68,254.851L143.607,254.737L143.533,254.624L143.461,254.509L143.389,254.394L143.318,254.279L143.247,254.163L143.177,254.047L143.108,253.931L143.039,253.813L142.971,253.696L142.904,253.578L142.838,253.459L142.772,253.34L142.707,253.221L142.643,253.101L142.579,252.981L142.516,252.861L142.454,252.739L142.392,252.618L142.331,252.496L142.271,252.374L142.212,252.251L142.153,252.128L142.095,252.004L142.038,251.88L141.981,251.756L141.926,251.631L141.87,251.506L141.816,251.38L141.763,251.255L141.71,251.128L141.658,251.001L141.606,250.874L141.556,250.747L141.506,250.619L141.457,250.491L141.409,250.362L141.361,250.233L141.314,250.104L141.268,249.974L141.223,249.844L141.179,249.713L141.135,249.582L141.092,249.451L141.05,249.32L141.008,249.188L140.968,249.055L140.928,248.923L140.889,248.79L140.851,248.657L140.814,248.523L140.777,248.389L140.741,248.255L140.706,248.12L140.672,247.985L140.639,247.85L140.606,247.715L140.574,247.579L140.543,247.443L140.513,247.306L140.484,247.169L140.456,247.032L140.428,246.895L140.401,246.757L140.375,246.619L140.35,246.481L140.326,246.342L140.303,246.203L140.28,246.064L140.258,245.925L140.238,245.785L140.218,245.645L140.198,245.505L140.18,245.364L140.163,245.223L140.146,245.082L140.131,244.941L140.116,244.799L140.102,244.657L140.089,244.515L140.077,244.373L140.065,244.23L140.055,244.087L140.046,243.944L140.037,243.801L140.029,243.657L140.022,243.513L140.016,243.369L140.011,243.225L140.007,243.08L140.004,242.936L140.002,242.791L140,242.645L140,242.5L140,242.355L140.002,242.209L140.004,242.064L140.007,241.92L140.011,241.775L140.016,241.631L140.022,241.487L140.029,241.343L140.037,241.199L140.046,241.056L140.055,240.913L140.065,240.77L140.077,240.627L140.089,240.485L140.102,240.343L140.116,240.201L140.131,240.059L140.146,239.918L140.163,239.777L140.18,239.636L140.198,239.495L140.218,239.355L140.238,239.215L140.258,239.075L140.28,238.936L140.303,238.797L140.326,238.658L140.35,238.519L140.375,238.381L140.401,238.243L140.428,238.105L140.456,237.968L140.484,237.831L140.513,237.694L140.543,237.557L140.574,237.421L140.606,237.285L140.639,237.15L140.672,237.015L140.706,236.88L140.741,236.745L140.777,236.611L140.814,236.477L140.851,236.343L140.889,236.21L140.928,236.077L140.968,235.945L141.008,235.812L141.05,235.68L141.092,235.549L141.135,235.418L141.179,235.287L141.223,235.156L141.268,235.026L141.314,234.896L141.361,234.767L141.409,234.638L141.457,234.509L141.506,234.381L141.556,234.253L141.606,234.126L141.658,233.999L141.71,233.872L141.763,233.745L141.816,233.62L141.87,233.494L141.926,233.369L141.981,233.244L142.038,233.12L142.095,232.996L142.153,232.872L142.212,232.749L142.271,232.626L142.331,232.504L142.392,232.382L142.454,232.261L142.516,232.139L142.579,232.019L142.643,231.899L142.707,231.779L142.772,231.66L142.838,231.541L142.904,231.422L142.971,231.304L143.039,231.187L143.108,231.069L143.177,230.953L143.247,230.837L143.318,230.721L143.389,230.606L143.461,230.491L143.533,230.376L143.607,230.263L143.68,230.149L143.755,230.036L143.83,229.924L143.906,229.812L143.983,229.7L144.06,229.589L144.138,229.479L144.216,229.369L144.295,229.259L144.375,229.15L144.455,229.041L144.536,228.933L144.618,228.826L144.7,228.719L144.783,228.612L144.867,228.506L144.951,228.401L145.036,228.296L145.121,228.191L145.207,228.087L145.294,227.984L145.381,227.881L145.469,227.779L145.557,227.677L145.646,227.576L145.736,227.475L145.826,227.375L145.917,227.275L146.008,227.176L146.1,227.078L146.192,226.98L146.285,226.882L146.379,226.785L146.473,226.689L146.568,226.593L146.664,226.498L146.759,226.403L146.856,226.309L146.953,226.216L147.051,226.123L147.149,226.031L147.248,225.939L147.347,225.848L147.447,225.757L147.547,225.668L147.648,225.578L147.749,225.489L147.851,225.401L147.954,225.314L148.057,225.227L148.16,225.141L148.264,225.055L148.369,224.97L148.474,224.885L148.58,224.802L148.686,224.718L148.792,224.636L148.899,224.554L149.007,224.472L149.115,224.392L149.224,224.312L149.333,224.232L149.443,224.153L149.553,224.075L149.663,223.998L149.774,223.921L149.886,223.845L149.998,223.769L150.111,223.694L150.224,223.62L150.337,223.547L150.451,223.474L150.565,223.402L150.68,223.33L150.795,223.259L150.911,223.189L151.027,223.12L151.144,223.051L151.261,222.983L151.379,222.915L151.497,222.849L151.615,222.783L151.734,222.717L151.853,222.653L151.973,222.589L152.093,222.526L152.214,222.463L152.335,222.401L152.456,222.34L152.578,222.28L152.7,222.22L152.823,222.161L152.946,222.103L153.07,222.046L153.194,221.989L153.318,221.933L153.443,221.878L153.568,221.823L153.693,221.769L153.819,221.716L153.945,221.664L154.072,221.612L154.199,221.562L154.326,221.512L154.454,221.462L154.582,221.414L154.711,221.366L154.84,221.319L154.969,221.273L155.099,221.228L155.229,221.183L155.359,221.139L155.49,221.096L155.621,221.054L155.752,221.012L155.884,220.972L156.016,220.932L156.148,220.892L156.281,220.854L156.414,220.817L156.548,220.78L156.681,220.744L156.816,220.709L156.95,220.675L157.085,220.641L157.22,220.608L157.355,220.577L157.491,220.546L157.627,220.515L157.763,220.486L157.9,220.457L158.036,220.43L158.174,220.403L158.311,220.377L158.449,220.352L158.587,220.327L158.725,220.304L158.864,220.281L159.003,220.259L159.142,220.239L159.282,220.218L159.421,220.199L159.561,220.181L159.702,220.163L159.842,220.147L159.983,220.131L160.124,220.116L160.265,220.102L160.407,220.089L160.549,220.077L160.691,220.066L160.833,220.055L160.976,220.046L161.119,220.037L161.262,220.029L161.405,220.022L161.549,220.017L161.692,220.011L161.836,220.007L161.981,220.004L162.125,220.002L162.27,220L162.414,220L273.586,220L273.73,220ZM162.416,220.9L162.275,220.901L162.136,220.902L161.998,220.904L161.859,220.907L161.721,220.911L161.583,220.916L161.445,220.922L161.307,220.928L161.17,220.936L161.033,220.944L160.896,220.953L160.759,220.963L160.623,220.974L160.486,220.986L160.35,220.998L160.215,221.012L160.079,221.026L159.944,221.041L159.809,221.057L159.675,221.074L159.54,221.091L159.406,221.11L159.272,221.129L159.138,221.149L159.005,221.17L158.872,221.192L158.739,221.214L158.607,221.238L158.474,221.262L158.343,221.287L158.211,221.313L158.079,221.339L157.948,221.367L157.818,221.395L157.687,221.424L157.557,221.454L157.427,221.484L157.297,221.515L157.168,221.548L157.039,221.581L156.91,221.614L156.782,221.649L156.654,221.684L156.526,221.72L156.399,221.757L156.272,221.794L156.145,221.833L156.019,221.872L155.893,221.912L155.767,221.952L155.641,221.993L155.516,222.036L155.392,222.078L155.267,222.122L155.143,222.166L155.019,222.211L154.896,222.257L154.773,222.304L154.65,222.351L154.528,222.399L154.406,222.448L154.285,222.497L154.164,222.547L154.043,222.598L153.922,222.65L153.802,222.702L153.683,222.755L153.563,222.809L153.444,222.863L153.326,222.919L153.208,222.974L153.09,223.031L152.973,223.088L152.856,223.146L152.739,223.205L152.623,223.264L152.507,223.324L152.392,223.385L152.277,223.446L152.162,223.508L152.048,223.571L151.934,223.634L151.821,223.698L151.708,223.763L151.596,223.828L151.484,223.894L151.372,223.961L151.261,224.028L151.15,224.096L151.04,224.165L150.93,224.234L150.821,224.304L150.712,224.375L150.604,224.446L150.496,224.518L150.388,224.591L150.281,224.664L150.174,224.737L150.068,224.812L149.962,224.887L149.857,224.963L149.752,225.039L149.648,225.116L149.544,225.193L149.441,225.271L149.338,225.35L149.236,225.429L149.134,225.509L149.032,225.59L148.931,225.671L148.831,225.752L148.731,225.835L148.632,225.918L148.533,226.001L148.434,226.085L148.336,226.17L148.239,226.255L148.142,226.341L148.046,226.427L147.95,226.514L147.855,226.602L147.76,226.69L147.666,226.778L147.572,226.867L147.479,226.957L147.386,227.047L147.294,227.138L147.202,227.23L147.111,227.322L147.021,227.414L146.931,227.507L146.841,227.601L146.752,227.695L146.664,227.789L146.576,227.885L146.489,227.98L146.403,228.076L146.317,228.173L146.231,228.27L146.146,228.368L146.062,228.466L145.978,228.565L145.895,228.665L145.813,228.764L145.731,228.865L145.649,228.965L145.568,229.067L145.488,229.169L145.409,229.271L145.33,229.374L145.251,229.477L145.173,229.581L145.096,229.685L145.02,229.79L144.944,229.895L144.868,230L144.794,230.107L144.719,230.213L144.646,230.32L144.573,230.428L144.501,230.536L144.429,230.644L144.358,230.753L144.288,230.862L144.218,230.972L144.149,231.082L144.081,231.193L144.013,231.304L143.946,231.416L143.88,231.528L143.814,231.64L143.749,231.753L143.684,231.866L143.62,231.98L143.557,232.094L143.495,232.209L143.433,232.324L143.372,232.439L143.311,232.555L143.252,232.671L143.193,232.788L143.134,232.905L143.076,233.022L143.019,233.14L142.963,233.258L142.907,233.377L142.852,233.496L142.798,233.615L142.745,233.735L142.692,233.855L142.64,233.975L142.588,234.096L142.538,234.218L142.488,234.339L142.438,234.461L142.39,234.584L142.342,234.706L142.295,234.829L142.249,234.953L142.203,235.077L142.158,235.201L142.114,235.325L142.07,235.45L142.028,235.576L141.986,235.701L141.945,235.827L141.904,235.953L141.865,236.08L141.826,236.207L141.787,236.334L141.75,236.462L141.713,236.589L141.678,236.718L141.642,236.846L141.608,236.975L141.575,237.104L141.542,237.234L141.51,237.363L141.478,237.494L141.448,237.624L141.418,237.755L141.39,237.886L141.361,238.017L141.334,238.148L141.308,238.28L141.282,238.413L141.257,238.545L141.233,238.678L141.21,238.811L141.187,238.944L141.166,239.078L141.145,239.212L141.125,239.346L141.106,239.48L141.087,239.615L141.07,239.75L141.053,239.885L141.037,240.02L141.022,240.156L141.008,240.292L140.995,240.428L140.982,240.565L140.97,240.701L140.959,240.838L140.95,240.975L140.94,241.113L140.932,241.251L140.925,241.389L140.918,241.527L140.912,241.665L140.908,241.804L140.904,241.942L140.901,242.082L140.898,242.221L140.897,242.36L140.897,242.5L140.897,242.64L140.898,242.779L140.901,242.918L140.904,243.058L140.908,243.196L140.912,243.335L140.918,243.473L140.925,243.611L140.932,243.749L140.94,243.887L140.95,244.025L140.959,244.162L140.97,244.299L140.982,244.435L140.995,244.572L141.008,244.708L141.022,244.844L141.037,244.98L141.053,245.115L141.07,245.25L141.087,245.385L141.106,245.52L141.125,245.654L141.145,245.788L141.166,245.922L141.187,246.056L141.21,246.189L141.233,246.322L141.257,246.455L141.282,246.587L141.308,246.72L141.334,246.852L141.361,246.983L141.39,247.114L141.418,247.245L141.448,247.376L141.478,247.506L141.51,247.637L141.542,247.766L141.575,247.896L141.608,248.025L141.642,248.154L141.678,248.282L141.713,248.411L141.75,248.538L141.787,248.666L141.826,248.793L141.865,248.92L141.904,249.047L141.945,249.173L141.986,249.299L142.028,249.424L142.07,249.55L142.114,249.675L142.158,249.799L142.203,249.923L142.249,250.047L142.295,250.171L142.342,250.294L142.39,250.416L142.438,250.539L142.488,250.661L142.538,250.782L142.588,250.904L142.64,251.025L142.692,251.145L142.745,251.265L142.798,251.385L142.852,251.504L142.907,251.623L142.963,251.742L143.019,251.86L143.076,251.978L143.134,252.095L143.193,252.212L143.252,252.329L143.311,252.445L143.372,252.561L143.433,252.676L143.495,252.791L143.557,252.906L143.62,253.02L143.684,253.134L143.749,253.247L143.814,253.36L143.88,253.472L143.946,253.584L144.013,253.696L144.081,253.807L144.149,253.918L144.218,254.028L144.288,254.138L144.358,254.247L144.429,254.356L144.501,254.464L144.573,254.572L144.646,254.68L144.719,254.787L144.794,254.893L144.868,255L144.944,255.105L145.02,255.21L145.096,255.315L145.173,255.419L145.251,255.523L145.33,255.626L145.409,255.729L145.488,255.831L145.568,255.933L145.649,256.035L145.731,256.135L145.813,256.236L145.895,256.335L145.978,256.435L146.062,256.534L146.146,256.632L146.231,256.73L146.317,256.827L146.403,256.924L146.489,257.02L146.576,257.115L146.664,257.211L146.752,257.305L146.841,257.399L146.931,257.493L147.021,257.586L147.111,257.678L147.202,257.77L147.294,257.862L147.386,257.953L147.479,258.043L147.572,258.133L147.666,258.222L147.76,258.31L147.855,258.398L147.95,258.486L148.046,258.573L148.142,258.659L148.239,258.745L148.336,258.83L148.434,258.915L148.533,258.999L148.632,259.082L148.731,259.165L148.831,259.248L148.931,259.329L149.032,259.41L149.134,259.491L149.236,259.571L149.338,259.65L149.441,259.729L149.544,259.807L149.648,259.884L149.752,259.961L149.857,260.037L149.962,260.113L150.068,260.188L150.174,260.263L150.281,260.336L150.388,260.409L150.496,260.482L150.604,260.554L150.712,260.625L150.821,260.696L150.93,260.766L151.04,260.835L151.15,260.904L151.261,260.972L151.372,261.039L151.484,261.106L151.596,261.172L151.708,261.237L151.821,261.302L151.934,261.366L152.048,261.429L152.162,261.492L152.277,261.554L152.392,261.615L152.507,261.676L152.623,261.736L152.739,261.795L152.856,261.854L152.973,261.912L153.09,261.969L153.208,262.026L153.326,262.081L153.444,262.137L153.563,262.191L153.683,262.245L153.802,262.298L153.922,262.35L154.043,262.402L154.164,262.453L154.285,262.503L154.406,262.552L154.528,262.601L154.65,262.649L154.773,262.696L154.896,262.743L155.019,262.789L155.143,262.834L155.267,262.878L155.392,262.922L155.516,262.964L155.641,263.007L155.767,263.048L155.893,263.088L156.019,263.128L156.145,263.167L156.272,263.206L156.399,263.243L156.526,263.28L156.654,263.316L156.782,263.351L156.91,263.386L157.039,263.419L157.168,263.452L157.297,263.485L157.427,263.516L157.557,263.546L157.687,263.576L157.818,263.605L157.948,263.633L158.079,263.661L158.211,263.687L158.343,263.713L158.474,263.738L158.607,263.762L158.739,263.786L158.872,263.808L159.005,263.83L159.138,263.851L159.272,263.871L159.406,263.89L159.54,263.909L159.675,263.926L159.809,263.943L159.944,263.959L160.079,263.974L160.215,263.988L160.35,264.002L160.486,264.014L160.623,264.026L160.759,264.037L160.896,264.047L161.033,264.056L161.17,264.064L161.307,264.072L161.445,264.078L161.583,264.084L161.721,264.089L161.859,264.093L161.998,264.096L162.136,264.098L162.275,264.099L162.416,264.1L273.584,264.1L273.725,264.099L273.864,264.098L274.002,264.096L274.141,264.093L274.279,264.089L274.417,264.084L274.555,264.078L274.693,264.072L274.83,264.064L274.967,264.056L275.104,264.047L275.241,264.037L275.377,264.026L275.514,264.014L275.65,264.002L275.785,263.988L275.921,263.974L276.056,263.959L276.191,263.943L276.325,263.926L276.46,263.909L276.594,263.89L276.728,263.871L276.862,263.851L276.995,263.83L277.128,263.808L277.261,263.786L277.393,263.762L277.526,263.738L277.657,263.713L277.789,263.687L277.921,263.661L278.052,263.633L278.182,263.605L278.313,263.576L278.443,263.546L278.573,263.516L278.703,263.485L278.832,263.452L278.961,263.419L279.09,263.386L279.218,263.351L279.346,263.316L279.474,263.28L279.601,263.243L279.728,263.206L279.855,263.167L279.981,263.128L280.107,263.088L280.233,263.048L280.359,263.007L280.484,262.964L280.608,262.922L280.733,262.878L280.857,262.834L280.981,262.789L281.104,262.743L281.227,262.696L281.35,262.649L281.472,262.601L281.594,262.552L281.715,262.503L281.836,262.453L281.957,262.402L282.078,262.35L282.198,262.298L282.317,262.245L282.437,262.191L282.556,262.137L282.674,262.081L282.792,262.026L282.91,261.969L283.027,261.912L283.144,261.854L283.261,261.795L283.377,261.736L283.493,261.676L283.608,261.615L283.723,261.554L283.838,261.492L283.952,261.429L284.066,261.366L284.179,261.302L284.292,261.237L284.404,261.172L284.516,261.106L284.628,261.039L284.739,260.972L284.85,260.904L284.96,260.835L285.07,260.766L285.179,260.696L285.288,260.625L285.396,260.554L285.504,260.482L285.612,260.409L285.719,260.336L285.826,260.263L285.932,260.188L286.038,260.113L286.143,260.037L286.248,259.961L286.352,259.884L286.456,259.807L286.559,259.729L286.662,259.65L286.764,259.571L286.866,259.491L286.968,259.41L287.069,259.329L287.169,259.248L287.269,259.165L287.368,259.082L287.467,258.999L287.566,258.915L287.664,258.83L287.761,258.745L287.858,258.659L287.954,258.573L288.05,258.486L288.145,258.398L288.24,258.31L288.334,258.222L288.428,258.133L288.521,258.043L288.614,257.953L288.706,257.862L288.798,257.77L288.889,257.678L288.979,257.586L289.069,257.493L289.159,257.399L289.248,257.305L289.336,257.211L289.424,257.115L289.511,257.02L289.597,256.924L289.683,256.827L289.769,256.73L289.854,256.632L289.938,256.534L290.022,256.435L290.105,256.335L290.187,256.236L290.269,256.135L290.351,256.035L290.432,255.933L290.512,255.831L290.591,255.729L290.67,255.626L290.749,255.523L290.827,255.419L290.904,255.315L290.98,255.21L291.056,255.105L291.132,255L291.206,254.893L291.281,254.787L291.354,254.68L291.427,254.572L291.499,254.464L291.571,254.356L291.642,254.247L291.712,254.138L291.782,254.028L291.851,253.918L291.919,253.807L291.987,253.696L292.054,253.584L292.12,253.472L292.186,253.36L292.251,253.247L292.316,253.134L292.38,253.02L292.443,252.906L292.505,252.791L292.567,252.676L292.628,252.561L292.689,252.445L292.748,252.329L292.807,252.212L292.866,252.095L292.924,251.978L292.981,251.86L293.037,251.742L293.093,251.623L293.148,251.504L293.202,251.385L293.255,251.265L293.308,251.145L293.36,251.025L293.412,250.904L293.462,250.782L293.512,250.661L293.562,250.539L293.61,250.416L293.658,250.294L293.705,250.171L293.751,250.047L293.797,249.923L293.842,249.799L293.886,249.675L293.93,249.55L293.972,249.424L294.014,249.299L294.055,249.173L294.096,249.047L294.135,248.92L294.174,248.793L294.213,248.666L294.25,248.538L294.287,248.411L294.322,248.282L294.358,248.154L294.392,248.025L294.425,247.896L294.458,247.766L294.49,247.637L294.522,247.507L294.552,247.376L294.582,247.245L294.611,247.114L294.639,246.983L294.666,246.852L294.692,246.72L294.718,246.587L294.743,246.455L294.767,246.322L294.79,246.189L294.813,246.056L294.834,245.922L294.855,245.789L294.875,245.654L294.894,245.52L294.913,245.385L294.93,245.25L294.947,245.115L294.963,244.98L294.978,244.844L294.992,244.708L295.005,244.572L295.018,244.435L295.03,244.299L295.041,244.162L295.05,244.025L295.06,243.887L295.068,243.749L295.075,243.611L295.082,243.473L295.088,243.335L295.092,243.196L295.096,243.058L295.099,242.918L295.102,242.779L295.103,242.64L295.103,242.5L295.103,242.36L295.102,242.221L295.099,242.082L295.096,241.942L295.092,241.804L295.088,241.665L295.082,241.527L295.075,241.389L295.068,241.251L295.06,241.113L295.05,240.975L295.041,240.838L295.03,240.701L295.018,240.565L295.005,240.428L294.992,240.292L294.978,240.156L294.963,240.02L294.947,239.885L294.93,239.75L294.913,239.615L294.894,239.48L294.875,239.346L294.855,239.212L294.834,239.078L294.813,238.944L294.79,238.811L294.767,238.678L294.743,238.545L294.718,238.413L294.692,238.28L294.666,238.148L294.639,238.017L294.611,237.886L294.582,237.755L294.552,237.624L294.522,237.493L294.49,237.363L294.458,237.234L294.425,237.104L294.392,236.975L294.358,236.846L294.322,236.718L294.287,236.589L294.25,236.462L294.213,236.334L294.174,236.207L294.135,236.08L294.096,235.953L294.055,235.827L294.014,235.701L293.972,235.576L293.93,235.45L293.886,235.325L293.842,235.201L293.797,235.077L293.751,234.953L293.705,234.829L293.658,234.706L293.61,234.584L293.562,234.461L293.512,234.339L293.462,234.218L293.412,234.096L293.36,233.975L293.308,233.855L293.255,233.735L293.202,233.615L293.148,233.496L293.093,233.377L293.037,233.258L292.981,233.14L292.924,233.022L292.866,232.905L292.807,232.788L292.748,232.671L292.689,232.555L292.628,232.439L292.567,232.324L292.505,232.209L292.443,232.094L292.38,231.98L292.316,231.866L292.251,231.753L292.186,231.64L292.12,231.528L292.054,231.416L291.987,231.304L291.919,231.193L291.851,231.082L291.782,230.972L291.712,230.862L291.642,230.753L291.571,230.644L291.499,230.536L291.427,230.428L291.354,230.32L291.281,230.213L291.206,230.107L291.132,230L291.056,229.895L290.98,229.79L290.904,229.685L290.827,229.581L290.749,229.477L290.67,229.374L290.591,229.271L290.512,229.169L290.432,229.067L290.351,228.965L290.269,228.865L290.187,228.764L290.105,228.665L290.022,228.565L289.938,228.466L289.854,228.368L289.769,228.27L289.683,228.173L289.597,228.076L289.511,227.98L289.424,227.885L289.336,227.789L289.248,227.695L289.159,227.601L289.069,227.507L288.979,227.414L288.889,227.322L288.798,227.23L288.706,227.138L288.614,227.047L288.521,226.957L288.428,226.867L288.334,226.778L288.24,226.69L288.145,226.602L288.05,226.514L287.954,226.427L287.858,226.341L287.761,226.255L287.664,226.17L287.566,226.085L287.467,226.001L287.368,225.918L287.269,225.835L287.169,225.752L287.069,225.671L286.968,225.59L286.866,225.509L286.764,225.429L286.662,225.35L286.559,225.271L286.456,225.193L286.352,225.116L286.248,225.039L286.143,224.963L286.038,224.887L285.932,224.812L285.826,224.737L285.719,224.664L285.612,224.591L285.504,224.518L285.396,224.446L285.288,224.375L285.179,224.304L285.07,224.234L284.96,224.165L284.85,224.096L284.739,224.028L284.628,223.961L284.516,223.894L284.404,223.828L284.292,223.763L284.179,223.698L284.066,223.634L283.952,223.571L283.838,223.508L283.723,223.446L283.608,223.385L283.493,223.324L283.377,223.264L283.261,223.205L283.144,223.146L283.027,223.088L282.91,223.031L282.792,222.974L282.674,222.919L282.556,222.863L282.437,222.809L282.317,222.755L282.198,222.702L282.078,222.65L281.957,222.598L281.836,222.547L281.715,222.497L281.594,222.448L281.472,222.399L281.35,222.351L281.227,222.304L281.104,222.257L280.981,222.211L280.857,222.166L280.733,222.122L280.608,222.078L280.484,222.036L280.359,221.993L280.233,221.952L280.107,221.912L279.981,221.872L279.855,221.833L279.728,221.794L279.601,221.757L279.474,221.72L279.346,221.684L279.218,221.649L279.09,221.614L278.961,221.581L278.832,221.548L278.703,221.515L278.573,221.484L278.443,221.454L278.313,221.424L278.182,221.395L278.052,221.367L277.921,221.339L277.789,221.313L277.657,221.287L277.526,221.262L277.393,221.238L277.261,221.214L277.128,221.192L276.995,221.17L276.862,221.149L276.728,221.129L276.594,221.11L276.46,221.091L276.325,221.074L276.191,221.057L276.056,221.041L275.921,221.026L275.785,221.012L275.65,220.998L275.514,220.986L275.377,220.974L275.241,220.963L275.104,220.953L274.967,220.944L274.83,220.936L274.693,220.928L274.555,220.922L274.417,220.916L274.279,220.911L274.141,220.907L274.002,220.904L273.864,220.902L273.725,220.901L273.584,220.9L162.416,220.9Z" style="fill:rgb(67,192,225);"/>
    </g>
</svg>
