<?xml version="1.0" encoding="UTF-8" standalone="no"?>
<!DOCTYPE svg PUBLIC "-//W3C//DTD SVG 1.1//EN" "http://www.w3.org/Graphics/SVG/1.1/DTD/svg11.dtd">
<svg width="100%" height="100%" viewBox="0 0 293 84" version="1.1" xmlns="http://www.w3.org/2000/svg" xmlns:xlink="http://www.w3.org/1999/xlink" xml:space="preserve" style="fill-rule:evenodd;clip-rule:evenodd;stroke-linejoin:round;stroke-miterlimit:1.41421;">
    <g id="BlueDark-Button-Rounded-Outline" transform="matrix(1.87362,0,0,1.8665,-2004.78,-410.63)">
        <path d="M1203.73,220L1203.88,220.002L1204.02,220.004L1204.16,220.007L1204.31,220.011L1204.45,220.017L1204.6,220.022L1204.74,220.029L1204.88,220.037L1205.02,220.046L1205.17,220.055L1205.31,220.066L1205.45,220.077L1205.59,220.089L1205.74,220.102L1205.88,220.116L1206.02,220.131L1206.16,220.147L1206.3,220.163L1206.44,220.181L1206.58,220.199L1206.72,220.218L1206.86,220.239L1207,220.259L1207.14,220.281L1207.28,220.304L1207.41,220.327L1207.55,220.352L1207.69,220.377L1207.83,220.403L1207.96,220.43L1208.1,220.457L1208.24,220.486L1208.37,220.515L1208.51,220.546L1208.64,220.577L1208.78,220.608L1208.91,220.641L1209.05,220.675L1209.18,220.709L1209.32,220.744L1209.45,220.78L1209.59,220.817L1209.72,220.854L1209.85,220.892L1209.98,220.932L1210.12,220.972L1210.25,221.012L1210.38,221.054L1210.51,221.096L1210.64,221.139L1210.77,221.183L1210.9,221.228L1211.03,221.273L1211.16,221.319L1211.29,221.366L1211.42,221.414L1211.55,221.462L1211.67,221.512L1211.8,221.562L1211.93,221.612L1212.06,221.664L1212.18,221.716L1212.31,221.769L1212.43,221.823L1212.56,221.878L1212.68,221.933L1212.81,221.989L1212.93,222.046L1213.05,222.103L1213.18,222.161L1213.3,222.22L1213.42,222.28L1213.54,222.34L1213.66,222.401L1213.79,222.463L1213.91,222.526L1214.03,222.589L1214.15,222.653L1214.27,222.717L1214.38,222.783L1214.5,222.849L1214.62,222.915L1214.74,222.983L1214.86,223.051L1214.97,223.12L1215.09,223.189L1215.2,223.259L1215.32,223.33L1215.43,223.402L1215.55,223.474L1215.66,223.547L1215.78,223.62L1215.89,223.694L1216,223.769L1216.11,223.845L1216.23,223.921L1216.34,223.998L1216.45,224.075L1216.56,224.153L1216.67,224.232L1216.78,224.312L1216.88,224.392L1216.99,224.472L1217.1,224.554L1217.21,224.636L1217.31,224.718L1217.42,224.802L1217.53,224.885L1217.63,224.97L1217.74,225.055L1217.84,225.141L1217.94,225.227L1218.05,225.314L1218.15,225.401L1218.25,225.489L1218.35,225.578L1218.45,225.668L1218.55,225.757L1218.65,225.848L1218.75,225.939L1218.85,226.031L1218.95,226.123L1219.05,226.216L1219.14,226.309L1219.24,226.403L1219.34,226.498L1219.43,226.593L1219.53,226.689L1219.62,226.785L1219.71,226.882L1219.81,226.98L1219.9,227.078L1219.99,227.176L1220.08,227.275L1220.17,227.375L1220.26,227.475L1220.35,227.576L1220.44,227.677L1220.53,227.779L1220.62,227.881L1220.71,227.984L1220.79,228.087L1220.88,228.191L1220.96,228.296L1221.05,228.401L1221.13,228.506L1221.22,228.612L1221.3,228.719L1221.38,228.826L1221.46,228.933L1221.55,229.041L1221.62,229.15L1221.7,229.259L1221.78,229.369L1221.86,229.479L1221.94,229.589L1222.02,229.7L1222.09,229.812L1222.17,229.924L1222.25,230.036L1222.32,230.149L1222.39,230.263L1222.47,230.376L1222.54,230.491L1222.61,230.606L1222.68,230.721L1222.75,230.837L1222.82,230.953L1222.89,231.069L1222.96,231.187L1223.03,231.304L1223.1,231.422L1223.16,231.541L1223.23,231.66L1223.29,231.779L1223.36,231.899L1223.42,232.019L1223.48,232.139L1223.55,232.261L1223.61,232.382L1223.67,232.504L1223.73,232.626L1223.79,232.749L1223.85,232.872L1223.9,232.996L1223.96,233.12L1224.02,233.244L1224.07,233.369L1224.13,233.494L1224.18,233.62L1224.24,233.745L1224.29,233.872L1224.34,233.999L1224.39,234.126L1224.44,234.253L1224.49,234.381L1224.54,234.509L1224.59,234.638L1224.64,234.767L1224.69,234.896L1224.73,235.026L1224.78,235.156L1224.82,235.287L1224.87,235.418L1224.91,235.549L1224.95,235.68L1224.99,235.812L1225.03,235.945L1225.07,236.077L1225.11,236.21L1225.15,236.343L1225.19,236.477L1225.22,236.611L1225.26,236.745L1225.29,236.88L1225.33,237.015L1225.36,237.15L1225.39,237.285L1225.43,237.421L1225.46,237.557L1225.49,237.694L1225.52,237.831L1225.54,237.968L1225.57,238.105L1225.6,238.243L1225.62,238.381L1225.65,238.519L1225.67,238.658L1225.7,238.797L1225.72,238.936L1225.74,239.075L1225.76,239.215L1225.78,239.355L1225.8,239.495L1225.82,239.636L1225.84,239.777L1225.85,239.918L1225.87,240.059L1225.88,240.201L1225.9,240.343L1225.91,240.485L1225.92,240.627L1225.93,240.77L1225.94,240.913L1225.95,241.056L1225.96,241.199L1225.97,241.343L1225.98,241.487L1225.98,241.631L1225.99,241.775L1225.99,241.92L1226,242.064L1226,242.209L1226,242.355L1226,242.5L1226,242.645L1226,242.791L1226,242.936L1225.99,243.08L1225.99,243.225L1225.98,243.369L1225.98,243.513L1225.97,243.657L1225.96,243.801L1225.95,243.944L1225.94,244.087L1225.93,244.23L1225.92,244.373L1225.91,244.515L1225.9,244.657L1225.88,244.799L1225.87,244.941L1225.85,245.082L1225.84,245.223L1225.82,245.364L1225.8,245.505L1225.78,245.645L1225.76,245.785L1225.74,245.925L1225.72,246.064L1225.7,246.203L1225.67,246.342L1225.65,246.481L1225.62,246.619L1225.6,246.757L1225.57,246.895L1225.54,247.032L1225.52,247.169L1225.49,247.306L1225.46,247.443L1225.43,247.579L1225.39,247.715L1225.36,247.85L1225.33,247.985L1225.29,248.12L1225.26,248.255L1225.22,248.389L1225.19,248.523L1225.15,248.657L1225.11,248.79L1225.07,248.923L1225.03,249.055L1224.99,249.188L1224.95,249.32L1224.91,249.451L1224.87,249.582L1224.82,249.713L1224.78,249.844L1224.73,249.974L1224.69,250.104L1224.64,250.233L1224.59,250.362L1224.54,250.491L1224.49,250.619L1224.44,250.747L1224.39,250.874L1224.34,251.001L1224.29,251.128L1224.24,251.255L1224.18,251.38L1224.13,251.506L1224.07,251.631L1224.02,251.756L1223.96,251.88L1223.9,252.004L1223.85,252.128L1223.79,252.251L1223.73,252.374L1223.67,252.496L1223.61,252.618L1223.55,252.739L1223.48,252.861L1223.42,252.981L1223.36,253.101L1223.29,253.221L1223.23,253.34L1223.16,253.459L1223.1,253.578L1223.03,253.696L1222.96,253.813L1222.89,253.931L1222.82,254.047L1222.75,254.163L1222.68,254.279L1222.61,254.394L1222.54,254.509L1222.47,254.624L1222.39,254.737L1222.32,254.851L1222.25,254.964L1222.17,255.076L1222.09,255.188L1222.02,255.3L1221.94,255.411L1221.86,255.521L1221.78,255.631L1221.7,255.741L1221.62,255.85L1221.55,255.959L1221.46,256.067L1221.38,256.174L1221.3,256.281L1221.22,256.388L1221.13,256.494L1221.05,256.599L1220.96,256.704L1220.88,256.809L1220.79,256.913L1220.71,257.016L1220.62,257.119L1220.53,257.221L1220.44,257.323L1220.35,257.424L1220.26,257.525L1220.17,257.625L1220.08,257.725L1219.99,257.824L1219.9,257.922L1219.81,258.02L1219.71,258.118L1219.62,258.215L1219.53,258.311L1219.43,258.407L1219.34,258.502L1219.24,258.597L1219.14,258.691L1219.05,258.784L1218.95,258.877L1218.85,258.969L1218.75,259.061L1218.65,259.152L1218.55,259.243L1218.45,259.332L1218.35,259.422L1218.25,259.511L1218.15,259.599L1218.05,259.686L1217.94,259.773L1217.84,259.859L1217.74,259.945L1217.63,260.03L1217.53,260.115L1217.42,260.198L1217.31,260.282L1217.21,260.364L1217.1,260.446L1216.99,260.528L1216.88,260.608L1216.78,260.688L1216.67,260.768L1216.56,260.847L1216.45,260.925L1216.34,261.002L1216.23,261.079L1216.11,261.155L1216,261.231L1215.89,261.306L1215.78,261.38L1215.66,261.453L1215.55,261.526L1215.43,261.598L1215.32,261.67L1215.2,261.741L1215.09,261.811L1214.97,261.88L1214.86,261.949L1214.74,262.017L1214.62,262.085L1214.5,262.151L1214.38,262.217L1214.27,262.283L1214.15,262.347L1214.03,262.411L1213.91,262.474L1213.79,262.537L1213.66,262.599L1213.54,262.66L1213.42,262.72L1213.3,262.78L1213.18,262.839L1213.05,262.897L1212.93,262.954L1212.81,263.011L1212.68,263.067L1212.56,263.122L1212.43,263.177L1212.31,263.231L1212.18,263.284L1212.06,263.336L1211.93,263.388L1211.8,263.438L1211.67,263.488L1211.55,263.538L1211.42,263.586L1211.29,263.634L1211.16,263.681L1211.03,263.727L1210.9,263.772L1210.77,263.817L1210.64,263.861L1210.51,263.904L1210.38,263.946L1210.25,263.988L1210.12,264.028L1209.98,264.068L1209.85,264.108L1209.72,264.146L1209.59,264.183L1209.45,264.22L1209.32,264.256L1209.18,264.291L1209.05,264.325L1208.91,264.359L1208.78,264.392L1208.64,264.423L1208.51,264.454L1208.37,264.485L1208.24,264.514L1208.1,264.543L1207.96,264.57L1207.83,264.597L1207.69,264.623L1207.55,264.648L1207.41,264.673L1207.28,264.696L1207.14,264.719L1207,264.741L1206.86,264.761L1206.72,264.782L1206.58,264.801L1206.44,264.819L1206.3,264.837L1206.16,264.853L1206.02,264.869L1205.88,264.884L1205.74,264.898L1205.59,264.911L1205.45,264.923L1205.31,264.934L1205.17,264.945L1205.02,264.954L1204.88,264.963L1204.74,264.971L1204.6,264.978L1204.45,264.983L1204.31,264.989L1204.16,264.993L1204.02,264.996L1203.88,264.998L1203.73,265L1203.59,265L1092.41,265L1092.27,265L1092.12,264.998L1091.98,264.996L1091.84,264.993L1091.69,264.989L1091.55,264.983L1091.4,264.978L1091.26,264.971L1091.12,264.963L1090.98,264.954L1090.83,264.945L1090.69,264.934L1090.55,264.923L1090.41,264.911L1090.27,264.898L1090.12,264.884L1089.98,264.869L1089.84,264.853L1089.7,264.837L1089.56,264.819L1089.42,264.801L1089.28,264.782L1089.14,264.761L1089,264.741L1088.86,264.719L1088.72,264.696L1088.59,264.673L1088.45,264.648L1088.31,264.623L1088.17,264.597L1088.04,264.57L1087.9,264.543L1087.76,264.514L1087.63,264.485L1087.49,264.454L1087.36,264.423L1087.22,264.392L1087.09,264.359L1086.95,264.325L1086.82,264.291L1086.68,264.256L1086.55,264.22L1086.41,264.183L1086.28,264.146L1086.15,264.108L1086.02,264.068L1085.88,264.028L1085.75,263.988L1085.62,263.946L1085.49,263.904L1085.36,263.861L1085.23,263.817L1085.1,263.772L1084.97,263.727L1084.84,263.681L1084.71,263.634L1084.58,263.586L1084.45,263.538L1084.33,263.488L1084.2,263.438L1084.07,263.388L1083.94,263.336L1083.82,263.284L1083.69,263.231L1083.57,263.177L1083.44,263.122L1083.32,263.067L1083.19,263.011L1083.07,262.954L1082.95,262.897L1082.82,262.839L1082.7,262.78L1082.58,262.72L1082.46,262.66L1082.34,262.599L1082.21,262.537L1082.09,262.474L1081.97,262.411L1081.85,262.347L1081.73,262.283L1081.62,262.217L1081.5,262.151L1081.38,262.085L1081.26,262.017L1081.14,261.949L1081.03,261.88L1080.91,261.811L1080.8,261.741L1080.68,261.67L1080.57,261.598L1080.45,261.526L1080.34,261.453L1080.22,261.38L1080.11,261.306L1080,261.231L1079.89,261.155L1079.77,261.079L1079.66,261.002L1079.55,260.925L1079.44,260.847L1079.33,260.768L1079.22,260.688L1079.12,260.608L1079.01,260.528L1078.9,260.446L1078.79,260.364L1078.69,260.282L1078.58,260.198L1078.47,260.115L1078.37,260.03L1078.26,259.945L1078.16,259.859L1078.06,259.773L1077.95,259.686L1077.85,259.599L1077.75,259.511L1077.65,259.422L1077.55,259.332L1077.45,259.243L1077.35,259.152L1077.25,259.061L1077.15,258.969L1077.05,258.877L1076.95,258.784L1076.86,258.691L1076.76,258.597L1076.66,258.502L1076.57,258.407L1076.47,258.311L1076.38,258.215L1076.29,258.118L1076.19,258.02L1076.1,257.922L1076.01,257.824L1075.92,257.725L1075.83,257.625L1075.74,257.525L1075.65,257.424L1075.56,257.323L1075.47,257.221L1075.38,257.119L1075.29,257.016L1075.21,256.913L1075.12,256.809L1075.04,256.704L1074.95,256.599L1074.87,256.494L1074.78,256.388L1074.7,256.281L1074.62,256.174L1074.54,256.067L1074.45,255.959L1074.38,255.85L1074.3,255.741L1074.22,255.631L1074.14,255.521L1074.06,255.411L1073.98,255.3L1073.91,255.188L1073.83,255.076L1073.76,254.964L1073.68,254.851L1073.61,254.737L1073.53,254.624L1073.46,254.509L1073.39,254.394L1073.32,254.279L1073.25,254.163L1073.18,254.047L1073.11,253.931L1073.04,253.813L1072.97,253.696L1072.9,253.578L1072.84,253.459L1072.77,253.34L1072.71,253.221L1072.64,253.101L1072.58,252.981L1072.52,252.861L1072.45,252.739L1072.39,252.618L1072.33,252.496L1072.27,252.374L1072.21,252.251L1072.15,252.128L1072.1,252.004L1072.04,251.88L1071.98,251.756L1071.93,251.631L1071.87,251.506L1071.82,251.38L1071.76,251.255L1071.71,251.128L1071.66,251.001L1071.61,250.874L1071.56,250.747L1071.51,250.619L1071.46,250.491L1071.41,250.362L1071.36,250.233L1071.31,250.104L1071.27,249.974L1071.22,249.844L1071.18,249.713L1071.13,249.582L1071.09,249.451L1071.05,249.32L1071.01,249.188L1070.97,249.055L1070.93,248.923L1070.89,248.79L1070.85,248.657L1070.81,248.523L1070.78,248.389L1070.74,248.255L1070.71,248.12L1070.67,247.985L1070.64,247.85L1070.61,247.715L1070.57,247.579L1070.54,247.443L1070.51,247.306L1070.48,247.169L1070.46,247.032L1070.43,246.895L1070.4,246.757L1070.38,246.619L1070.35,246.481L1070.33,246.342L1070.3,246.203L1070.28,246.064L1070.26,245.925L1070.24,245.785L1070.22,245.645L1070.2,245.505L1070.18,245.364L1070.16,245.223L1070.15,245.082L1070.13,244.941L1070.12,244.799L1070.1,244.657L1070.09,244.515L1070.08,244.373L1070.07,244.23L1070.06,244.087L1070.05,243.944L1070.04,243.801L1070.03,243.657L1070.02,243.513L1070.02,243.369L1070.01,243.225L1070.01,243.08L1070,242.936L1070,242.791L1070,242.645L1070,242.5L1070,242.355L1070,242.209L1070,242.064L1070.01,241.92L1070.01,241.775L1070.02,241.631L1070.02,241.487L1070.03,241.343L1070.04,241.199L1070.05,241.056L1070.06,240.913L1070.07,240.77L1070.08,240.627L1070.09,240.485L1070.1,240.343L1070.12,240.201L1070.13,240.059L1070.15,239.918L1070.16,239.777L1070.18,239.636L1070.2,239.495L1070.22,239.355L1070.24,239.215L1070.26,239.075L1070.28,238.936L1070.3,238.797L1070.33,238.658L1070.35,238.519L1070.38,238.381L1070.4,238.243L1070.43,238.105L1070.46,237.968L1070.48,237.831L1070.51,237.694L1070.54,237.557L1070.57,237.421L1070.61,237.285L1070.64,237.15L1070.67,237.015L1070.71,236.88L1070.74,236.745L1070.78,236.611L1070.81,236.477L1070.85,236.343L1070.89,236.21L1070.93,236.077L1070.97,235.945L1071.01,235.812L1071.05,235.68L1071.09,235.549L1071.13,235.418L1071.18,235.287L1071.22,235.156L1071.27,235.026L1071.31,234.896L1071.36,234.767L1071.41,234.638L1071.46,234.509L1071.51,234.381L1071.56,234.253L1071.61,234.126L1071.66,233.999L1071.71,233.872L1071.76,233.745L1071.82,233.62L1071.87,233.494L1071.93,233.369L1071.98,233.244L1072.04,233.12L1072.1,232.996L1072.15,232.872L1072.21,232.749L1072.27,232.626L1072.33,232.504L1072.39,232.382L1072.45,232.261L1072.52,232.139L1072.58,232.019L1072.64,231.899L1072.71,231.779L1072.77,231.66L1072.84,231.541L1072.9,231.422L1072.97,231.304L1073.04,231.187L1073.11,231.069L1073.18,230.953L1073.25,230.837L1073.32,230.721L1073.39,230.606L1073.46,230.491L1073.53,230.376L1073.61,230.263L1073.68,230.149L1073.76,230.036L1073.83,229.924L1073.91,229.812L1073.98,229.7L1074.06,229.589L1074.14,229.479L1074.22,229.369L1074.3,229.259L1074.38,229.15L1074.45,229.041L1074.54,228.933L1074.62,228.826L1074.7,228.719L1074.78,228.612L1074.87,228.506L1074.95,228.401L1075.04,228.296L1075.12,228.191L1075.21,228.087L1075.29,227.984L1075.38,227.881L1075.47,227.779L1075.56,227.677L1075.65,227.576L1075.74,227.475L1075.83,227.375L1075.92,227.275L1076.01,227.176L1076.1,227.078L1076.19,226.98L1076.29,226.882L1076.38,226.785L1076.47,226.689L1076.57,226.593L1076.66,226.498L1076.76,226.403L1076.86,226.309L1076.95,226.216L1077.05,226.123L1077.15,226.031L1077.25,225.939L1077.35,225.848L1077.45,225.757L1077.55,225.668L1077.65,225.578L1077.75,225.489L1077.85,225.401L1077.95,225.314L1078.06,225.227L1078.16,225.141L1078.26,225.055L1078.37,224.97L1078.47,224.885L1078.58,224.802L1078.69,224.718L1078.79,224.636L1078.9,224.554L1079.01,224.472L1079.12,224.392L1079.22,224.312L1079.33,224.232L1079.44,224.153L1079.55,224.075L1079.66,223.998L1079.77,223.921L1079.89,223.845L1080,223.769L1080.11,223.694L1080.22,223.62L1080.34,223.547L1080.45,223.474L1080.57,223.402L1080.68,223.33L1080.8,223.259L1080.91,223.189L1081.03,223.12L1081.14,223.051L1081.26,222.983L1081.38,222.915L1081.5,222.849L1081.62,222.783L1081.73,222.717L1081.85,222.653L1081.97,222.589L1082.09,222.526L1082.21,222.463L1082.34,222.401L1082.46,222.34L1082.58,222.28L1082.7,222.22L1082.82,222.161L1082.95,222.103L1083.07,222.046L1083.19,221.989L1083.32,221.933L1083.44,221.878L1083.57,221.823L1083.69,221.769L1083.82,221.716L1083.94,221.664L1084.07,221.612L1084.2,221.562L1084.33,221.512L1084.45,221.462L1084.58,221.414L1084.71,221.366L1084.84,221.319L1084.97,221.273L1085.1,221.228L1085.23,221.183L1085.36,221.139L1085.49,221.096L1085.62,221.054L1085.75,221.012L1085.88,220.972L1086.02,220.932L1086.15,220.892L1086.28,220.854L1086.41,220.817L1086.55,220.78L1086.68,220.744L1086.82,220.709L1086.95,220.675L1087.09,220.641L1087.22,220.608L1087.36,220.577L1087.49,220.546L1087.63,220.515L1087.76,220.486L1087.9,220.457L1088.04,220.43L1088.17,220.403L1088.31,220.377L1088.45,220.352L1088.59,220.327L1088.72,220.304L1088.86,220.281L1089,220.259L1089.14,220.239L1089.28,220.218L1089.42,220.199L1089.56,220.181L1089.7,220.163L1089.84,220.147L1089.98,220.131L1090.12,220.116L1090.27,220.102L1090.41,220.089L1090.55,220.077L1090.69,220.066L1090.83,220.055L1090.98,220.046L1091.12,220.037L1091.26,220.029L1091.4,220.022L1091.55,220.017L1091.69,220.011L1091.84,220.007L1091.98,220.004L1092.12,220.002L1092.27,220L1092.41,220L1203.59,220L1203.73,220ZM1092.42,220.9L1092.28,220.901L1092.14,220.902L1092,220.904L1091.86,220.907L1091.72,220.911L1091.58,220.916L1091.44,220.922L1091.31,220.928L1091.17,220.936L1091.03,220.944L1090.9,220.953L1090.76,220.963L1090.62,220.974L1090.49,220.986L1090.35,220.998L1090.21,221.012L1090.08,221.026L1089.94,221.041L1089.81,221.057L1089.67,221.074L1089.54,221.091L1089.41,221.11L1089.27,221.129L1089.14,221.149L1089.01,221.17L1088.87,221.192L1088.74,221.214L1088.61,221.238L1088.47,221.262L1088.34,221.287L1088.21,221.313L1088.08,221.339L1087.95,221.367L1087.82,221.395L1087.69,221.424L1087.56,221.454L1087.43,221.484L1087.3,221.515L1087.17,221.548L1087.04,221.581L1086.91,221.614L1086.78,221.649L1086.65,221.684L1086.53,221.72L1086.4,221.757L1086.27,221.794L1086.14,221.833L1086.02,221.872L1085.89,221.912L1085.77,221.952L1085.64,221.993L1085.52,222.036L1085.39,222.078L1085.27,222.122L1085.14,222.166L1085.02,222.211L1084.9,222.257L1084.77,222.304L1084.65,222.351L1084.53,222.399L1084.41,222.448L1084.29,222.497L1084.16,222.547L1084.04,222.598L1083.92,222.65L1083.8,222.702L1083.68,222.755L1083.56,222.809L1083.44,222.863L1083.33,222.919L1083.21,222.974L1083.09,223.031L1082.97,223.088L1082.86,223.146L1082.74,223.205L1082.62,223.264L1082.51,223.324L1082.39,223.385L1082.28,223.446L1082.16,223.508L1082.05,223.571L1081.93,223.634L1081.82,223.698L1081.71,223.763L1081.6,223.828L1081.48,223.894L1081.37,223.961L1081.26,224.028L1081.15,224.096L1081.04,224.165L1080.93,224.234L1080.82,224.304L1080.71,224.375L1080.6,224.446L1080.5,224.518L1080.39,224.591L1080.28,224.664L1080.17,224.737L1080.07,224.812L1079.96,224.887L1079.86,224.963L1079.75,225.039L1079.65,225.116L1079.54,225.193L1079.44,225.271L1079.34,225.35L1079.24,225.429L1079.13,225.509L1079.03,225.59L1078.93,225.671L1078.83,225.752L1078.73,225.835L1078.63,225.918L1078.53,226.001L1078.43,226.085L1078.34,226.17L1078.24,226.255L1078.14,226.341L1078.05,226.427L1077.95,226.514L1077.86,226.602L1077.76,226.69L1077.67,226.778L1077.57,226.867L1077.48,226.957L1077.39,227.047L1077.29,227.138L1077.2,227.23L1077.11,227.322L1077.02,227.414L1076.93,227.507L1076.84,227.601L1076.75,227.695L1076.66,227.789L1076.58,227.885L1076.49,227.98L1076.4,228.076L1076.32,228.173L1076.23,228.27L1076.15,228.368L1076.06,228.466L1075.98,228.565L1075.89,228.665L1075.81,228.764L1075.73,228.865L1075.65,228.965L1075.57,229.067L1075.49,229.169L1075.41,229.271L1075.33,229.374L1075.25,229.477L1075.17,229.581L1075.1,229.685L1075.02,229.79L1074.94,229.895L1074.87,230L1074.79,230.107L1074.72,230.213L1074.65,230.32L1074.57,230.428L1074.5,230.536L1074.43,230.644L1074.36,230.753L1074.29,230.862L1074.22,230.972L1074.15,231.082L1074.08,231.193L1074.01,231.304L1073.95,231.416L1073.88,231.528L1073.81,231.64L1073.75,231.753L1073.68,231.866L1073.62,231.98L1073.56,232.094L1073.5,232.209L1073.43,232.324L1073.37,232.439L1073.31,232.555L1073.25,232.671L1073.19,232.788L1073.13,232.905L1073.08,233.022L1073.02,233.14L1072.96,233.258L1072.91,233.377L1072.85,233.496L1072.8,233.615L1072.75,233.735L1072.69,233.855L1072.64,233.975L1072.59,234.096L1072.54,234.218L1072.49,234.339L1072.44,234.461L1072.39,234.584L1072.34,234.706L1072.3,234.829L1072.25,234.953L1072.2,235.077L1072.16,235.201L1072.11,235.325L1072.07,235.45L1072.03,235.576L1071.99,235.701L1071.94,235.827L1071.9,235.953L1071.87,236.08L1071.83,236.207L1071.79,236.334L1071.75,236.462L1071.71,236.589L1071.68,236.718L1071.64,236.846L1071.61,236.975L1071.58,237.104L1071.54,237.234L1071.51,237.363L1071.48,237.494L1071.45,237.624L1071.42,237.755L1071.39,237.886L1071.36,238.017L1071.33,238.148L1071.31,238.28L1071.28,238.413L1071.26,238.545L1071.23,238.678L1071.21,238.811L1071.19,238.944L1071.17,239.078L1071.14,239.212L1071.12,239.346L1071.11,239.48L1071.09,239.615L1071.07,239.75L1071.05,239.885L1071.04,240.02L1071.02,240.156L1071.01,240.292L1071,240.428L1070.98,240.565L1070.97,240.701L1070.96,240.838L1070.95,240.975L1070.94,241.113L1070.93,241.251L1070.92,241.389L1070.92,241.527L1070.91,241.665L1070.91,241.804L1070.9,241.942L1070.9,242.082L1070.9,242.221L1070.9,242.36L1070.9,242.5L1070.9,242.64L1070.9,242.779L1070.9,242.918L1070.9,243.058L1070.91,243.196L1070.91,243.335L1070.92,243.473L1070.92,243.611L1070.93,243.749L1070.94,243.887L1070.95,244.025L1070.96,244.162L1070.97,244.299L1070.98,244.435L1071,244.572L1071.01,244.708L1071.02,244.844L1071.04,244.98L1071.05,245.115L1071.07,245.25L1071.09,245.385L1071.11,245.52L1071.12,245.654L1071.14,245.788L1071.17,245.922L1071.19,246.056L1071.21,246.189L1071.23,246.322L1071.26,246.455L1071.28,246.587L1071.31,246.72L1071.33,246.852L1071.36,246.983L1071.39,247.114L1071.42,247.245L1071.45,247.376L1071.48,247.506L1071.51,247.637L1071.54,247.766L1071.58,247.896L1071.61,248.025L1071.64,248.154L1071.68,248.282L1071.71,248.411L1071.75,248.538L1071.79,248.666L1071.83,248.793L1071.87,248.92L1071.9,249.047L1071.94,249.173L1071.99,249.299L1072.03,249.424L1072.07,249.55L1072.11,249.675L1072.16,249.799L1072.2,249.923L1072.25,250.047L1072.3,250.171L1072.34,250.294L1072.39,250.416L1072.44,250.539L1072.49,250.661L1072.54,250.782L1072.59,250.904L1072.64,251.025L1072.69,251.145L1072.75,251.265L1072.8,251.385L1072.85,251.504L1072.91,251.623L1072.96,251.742L1073.02,251.86L1073.08,251.978L1073.13,252.095L1073.19,252.212L1073.25,252.329L1073.31,252.445L1073.37,252.561L1073.43,252.676L1073.5,252.791L1073.56,252.906L1073.62,253.02L1073.68,253.134L1073.75,253.247L1073.81,253.36L1073.88,253.472L1073.95,253.584L1074.01,253.696L1074.08,253.807L1074.15,253.918L1074.22,254.028L1074.29,254.138L1074.36,254.247L1074.43,254.356L1074.5,254.464L1074.57,254.572L1074.65,254.68L1074.72,254.787L1074.79,254.893L1074.87,255L1074.94,255.105L1075.02,255.21L1075.1,255.315L1075.17,255.419L1075.25,255.523L1075.33,255.626L1075.41,255.729L1075.49,255.831L1075.57,255.933L1075.65,256.035L1075.73,256.135L1075.81,256.236L1075.89,256.335L1075.98,256.435L1076.06,256.534L1076.15,256.632L1076.23,256.73L1076.32,256.827L1076.4,256.924L1076.49,257.02L1076.58,257.115L1076.66,257.211L1076.75,257.305L1076.84,257.399L1076.93,257.493L1077.02,257.586L1077.11,257.678L1077.2,257.77L1077.29,257.862L1077.39,257.953L1077.48,258.043L1077.57,258.133L1077.67,258.222L1077.76,258.31L1077.86,258.398L1077.95,258.486L1078.05,258.573L1078.14,258.659L1078.24,258.745L1078.34,258.83L1078.43,258.915L1078.53,258.999L1078.63,259.082L1078.73,259.165L1078.83,259.248L1078.93,259.329L1079.03,259.41L1079.13,259.491L1079.24,259.571L1079.34,259.65L1079.44,259.729L1079.54,259.807L1079.65,259.884L1079.75,259.961L1079.86,260.037L1079.96,260.113L1080.07,260.188L1080.17,260.263L1080.28,260.336L1080.39,260.409L1080.5,260.482L1080.6,260.554L1080.71,260.625L1080.82,260.696L1080.93,260.766L1081.04,260.835L1081.15,260.904L1081.26,260.972L1081.37,261.039L1081.48,261.106L1081.6,261.172L1081.71,261.237L1081.82,261.302L1081.93,261.366L1082.05,261.429L1082.16,261.492L1082.28,261.554L1082.39,261.615L1082.51,261.676L1082.62,261.736L1082.74,261.795L1082.86,261.854L1082.97,261.912L1083.09,261.969L1083.21,262.026L1083.33,262.081L1083.44,262.137L1083.56,262.191L1083.68,262.245L1083.8,262.298L1083.92,262.35L1084.04,262.402L1084.16,262.453L1084.29,262.503L1084.41,262.552L1084.53,262.601L1084.65,262.649L1084.77,262.696L1084.9,262.743L1085.02,262.789L1085.14,262.834L1085.27,262.878L1085.39,262.922L1085.52,262.964L1085.64,263.007L1085.77,263.048L1085.89,263.088L1086.02,263.128L1086.14,263.167L1086.27,263.206L1086.4,263.243L1086.53,263.28L1086.65,263.316L1086.78,263.351L1086.91,263.386L1087.04,263.419L1087.17,263.452L1087.3,263.485L1087.43,263.516L1087.56,263.546L1087.69,263.576L1087.82,263.605L1087.95,263.633L1088.08,263.661L1088.21,263.687L1088.34,263.713L1088.47,263.738L1088.61,263.762L1088.74,263.786L1088.87,263.808L1089.01,263.83L1089.14,263.851L1089.27,263.871L1089.41,263.89L1089.54,263.909L1089.67,263.926L1089.81,263.943L1089.94,263.959L1090.08,263.974L1090.21,263.988L1090.35,264.002L1090.49,264.014L1090.62,264.026L1090.76,264.037L1090.9,264.047L1091.03,264.056L1091.17,264.064L1091.31,264.072L1091.44,264.078L1091.58,264.084L1091.72,264.089L1091.86,264.093L1092,264.096L1092.14,264.098L1092.28,264.099L1092.42,264.1L1203.58,264.1L1203.73,264.099L1203.86,264.098L1204,264.096L1204.14,264.093L1204.28,264.089L1204.42,264.084L1204.56,264.078L1204.69,264.072L1204.83,264.064L1204.97,264.056L1205.1,264.047L1205.24,264.037L1205.38,264.026L1205.51,264.014L1205.65,264.002L1205.79,263.988L1205.92,263.974L1206.06,263.959L1206.19,263.943L1206.33,263.926L1206.46,263.909L1206.59,263.89L1206.73,263.871L1206.86,263.851L1207,263.83L1207.13,263.808L1207.26,263.786L1207.39,263.762L1207.53,263.738L1207.66,263.713L1207.79,263.687L1207.92,263.661L1208.05,263.633L1208.18,263.605L1208.31,263.576L1208.44,263.546L1208.57,263.516L1208.7,263.485L1208.83,263.452L1208.96,263.419L1209.09,263.386L1209.22,263.351L1209.35,263.316L1209.47,263.28L1209.6,263.243L1209.73,263.206L1209.86,263.167L1209.98,263.128L1210.11,263.088L1210.23,263.048L1210.36,263.007L1210.48,262.964L1210.61,262.922L1210.73,262.878L1210.86,262.834L1210.98,262.789L1211.1,262.743L1211.23,262.696L1211.35,262.649L1211.47,262.601L1211.59,262.552L1211.71,262.503L1211.84,262.453L1211.96,262.402L1212.08,262.35L1212.2,262.298L1212.32,262.245L1212.44,262.191L1212.56,262.137L1212.67,262.081L1212.79,262.026L1212.91,261.969L1213.03,261.912L1213.14,261.854L1213.26,261.795L1213.38,261.736L1213.49,261.676L1213.61,261.615L1213.72,261.554L1213.84,261.492L1213.95,261.429L1214.07,261.366L1214.18,261.302L1214.29,261.237L1214.4,261.172L1214.52,261.106L1214.63,261.039L1214.74,260.972L1214.85,260.904L1214.96,260.835L1215.07,260.766L1215.18,260.696L1215.29,260.625L1215.4,260.554L1215.5,260.482L1215.61,260.409L1215.72,260.336L1215.83,260.263L1215.93,260.188L1216.04,260.113L1216.14,260.037L1216.25,259.961L1216.35,259.884L1216.46,259.807L1216.56,259.729L1216.66,259.65L1216.76,259.571L1216.87,259.491L1216.97,259.41L1217.07,259.329L1217.17,259.248L1217.27,259.165L1217.37,259.082L1217.47,258.999L1217.57,258.915L1217.66,258.83L1217.76,258.745L1217.86,258.659L1217.95,258.573L1218.05,258.486L1218.14,258.398L1218.24,258.31L1218.33,258.222L1218.43,258.133L1218.52,258.043L1218.61,257.953L1218.71,257.862L1218.8,257.77L1218.89,257.678L1218.98,257.586L1219.07,257.493L1219.16,257.399L1219.25,257.305L1219.34,257.211L1219.42,257.115L1219.51,257.02L1219.6,256.924L1219.68,256.827L1219.77,256.73L1219.85,256.632L1219.94,256.534L1220.02,256.435L1220.11,256.335L1220.19,256.236L1220.27,256.135L1220.35,256.035L1220.43,255.933L1220.51,255.831L1220.59,255.729L1220.67,255.626L1220.75,255.523L1220.83,255.419L1220.9,255.315L1220.98,255.21L1221.06,255.105L1221.13,255L1221.21,254.893L1221.28,254.787L1221.35,254.68L1221.43,254.572L1221.5,254.464L1221.57,254.356L1221.64,254.247L1221.71,254.138L1221.78,254.028L1221.85,253.918L1221.92,253.807L1221.99,253.696L1222.05,253.584L1222.12,253.472L1222.19,253.36L1222.25,253.247L1222.32,253.134L1222.38,253.02L1222.44,252.906L1222.51,252.791L1222.57,252.676L1222.63,252.561L1222.69,252.445L1222.75,252.329L1222.81,252.212L1222.87,252.095L1222.92,251.978L1222.98,251.86L1223.04,251.742L1223.09,251.623L1223.15,251.504L1223.2,251.385L1223.26,251.265L1223.31,251.145L1223.36,251.025L1223.41,250.904L1223.46,250.782L1223.51,250.661L1223.56,250.539L1223.61,250.416L1223.66,250.294L1223.7,250.171L1223.75,250.047L1223.8,249.923L1223.84,249.799L1223.89,249.675L1223.93,249.55L1223.97,249.424L1224.01,249.299L1224.06,249.173L1224.1,249.047L1224.13,248.92L1224.17,248.793L1224.21,248.666L1224.25,248.538L1224.29,248.411L1224.32,248.282L1224.36,248.154L1224.39,248.025L1224.42,247.896L1224.46,247.766L1224.49,247.637L1224.52,247.507L1224.55,247.376L1224.58,247.245L1224.61,247.114L1224.64,246.983L1224.67,246.852L1224.69,246.72L1224.72,246.587L1224.74,246.455L1224.77,246.322L1224.79,246.189L1224.81,246.056L1224.83,245.922L1224.86,245.789L1224.88,245.654L1224.89,245.52L1224.91,245.385L1224.93,245.25L1224.95,245.115L1224.96,244.98L1224.98,244.844L1224.99,244.708L1225.01,244.572L1225.02,244.435L1225.03,244.299L1225.04,244.162L1225.05,244.025L1225.06,243.887L1225.07,243.749L1225.08,243.611L1225.08,243.473L1225.09,243.335L1225.09,243.196L1225.1,243.058L1225.1,242.918L1225.1,242.779L1225.1,242.64L1225.1,242.5L1225.1,242.36L1225.1,242.221L1225.1,242.082L1225.1,241.942L1225.09,241.804L1225.09,241.665L1225.08,241.527L1225.08,241.389L1225.07,241.251L1225.06,241.113L1225.05,240.975L1225.04,240.838L1225.03,240.701L1225.02,240.565L1225.01,240.428L1224.99,240.292L1224.98,240.156L1224.96,240.02L1224.95,239.885L1224.93,239.75L1224.91,239.615L1224.89,239.48L1224.88,239.346L1224.86,239.212L1224.83,239.078L1224.81,238.944L1224.79,238.811L1224.77,238.678L1224.74,238.545L1224.72,238.413L1224.69,238.28L1224.67,238.148L1224.64,238.017L1224.61,237.886L1224.58,237.755L1224.55,237.624L1224.52,237.493L1224.49,237.363L1224.46,237.234L1224.42,237.104L1224.39,236.975L1224.36,236.846L1224.32,236.718L1224.29,236.589L1224.25,236.462L1224.21,236.334L1224.17,236.207L1224.13,236.08L1224.1,235.953L1224.06,235.827L1224.01,235.701L1223.97,235.576L1223.93,235.45L1223.89,235.325L1223.84,235.201L1223.8,235.077L1223.75,234.953L1223.7,234.829L1223.66,234.706L1223.61,234.584L1223.56,234.461L1223.51,234.339L1223.46,234.218L1223.41,234.096L1223.36,233.975L1223.31,233.855L1223.26,233.735L1223.2,233.615L1223.15,233.496L1223.09,233.377L1223.04,233.258L1222.98,233.14L1222.92,233.022L1222.87,232.905L1222.81,232.788L1222.75,232.671L1222.69,232.555L1222.63,232.439L1222.57,232.324L1222.51,232.209L1222.44,232.094L1222.38,231.98L1222.32,231.866L1222.25,231.753L1222.19,231.64L1222.12,231.528L1222.05,231.416L1221.99,231.304L1221.92,231.193L1221.85,231.082L1221.78,230.972L1221.71,230.862L1221.64,230.753L1221.57,230.644L1221.5,230.536L1221.43,230.428L1221.35,230.32L1221.28,230.213L1221.21,230.107L1221.13,230L1221.06,229.895L1220.98,229.79L1220.9,229.685L1220.83,229.581L1220.75,229.477L1220.67,229.374L1220.59,229.271L1220.51,229.169L1220.43,229.067L1220.35,228.965L1220.27,228.865L1220.19,228.764L1220.11,228.665L1220.02,228.565L1219.94,228.466L1219.85,228.368L1219.77,228.27L1219.68,228.173L1219.6,228.076L1219.51,227.98L1219.42,227.885L1219.34,227.789L1219.25,227.695L1219.16,227.601L1219.07,227.507L1218.98,227.414L1218.89,227.322L1218.8,227.23L1218.71,227.138L1218.61,227.047L1218.52,226.957L1218.43,226.867L1218.33,226.778L1218.24,226.69L1218.14,226.602L1218.05,226.514L1217.95,226.427L1217.86,226.341L1217.76,226.255L1217.66,226.17L1217.57,226.085L1217.47,226.001L1217.37,225.918L1217.27,225.835L1217.17,225.752L1217.07,225.671L1216.97,225.59L1216.87,225.509L1216.76,225.429L1216.66,225.35L1216.56,225.271L1216.46,225.193L1216.35,225.116L1216.25,225.039L1216.14,224.963L1216.04,224.887L1215.93,224.812L1215.83,224.737L1215.72,224.664L1215.61,224.591L1215.5,224.518L1215.4,224.446L1215.29,224.375L1215.18,224.304L1215.07,224.234L1214.96,224.165L1214.85,224.096L1214.74,224.028L1214.63,223.961L1214.52,223.894L1214.4,223.828L1214.29,223.763L1214.18,223.698L1214.07,223.634L1213.95,223.571L1213.84,223.508L1213.72,223.446L1213.61,223.385L1213.49,223.324L1213.38,223.264L1213.26,223.205L1213.14,223.146L1213.03,223.088L1212.91,223.031L1212.79,222.974L1212.67,222.919L1212.56,222.863L1212.44,222.809L1212.32,222.755L1212.2,222.702L1212.08,222.65L1211.96,222.598L1211.84,222.547L1211.71,222.497L1211.59,222.448L1211.47,222.399L1211.35,222.351L1211.23,222.304L1211.1,222.257L1210.98,222.211L1210.86,222.166L1210.73,222.122L1210.61,222.078L1210.48,222.036L1210.36,221.993L1210.23,221.952L1210.11,221.912L1209.98,221.872L1209.86,221.833L1209.73,221.794L1209.6,221.757L1209.47,221.72L1209.35,221.684L1209.22,221.649L1209.09,221.614L1208.96,221.581L1208.83,221.548L1208.7,221.515L1208.57,221.484L1208.44,221.454L1208.31,221.424L1208.18,221.395L1208.05,221.367L1207.92,221.339L1207.79,221.313L1207.66,221.287L1207.53,221.262L1207.39,221.238L1207.26,221.214L1207.13,221.192L1207,221.17L1206.86,221.149L1206.73,221.129L1206.59,221.11L1206.46,221.091L1206.33,221.074L1206.19,221.057L1206.06,221.041L1205.92,221.026L1205.79,221.012L1205.65,220.998L1205.51,220.986L1205.38,220.974L1205.24,220.963L1205.1,220.953L1204.97,220.944L1204.83,220.936L1204.69,220.928L1204.56,220.922L1204.42,220.916L1204.28,220.911L1204.14,220.907L1204,220.904L1203.86,220.902L1203.73,220.901L1203.58,220.9L1092.42,220.9Z" style="fill:rgb(70,93,115);"/>
    </g>
</svg>
