<?xml version="1.0" encoding="UTF-8" standalone="no"?>
<!DOCTYPE svg PUBLIC "-//W3C//DTD SVG 1.1//EN" "http://www.w3.org/Graphics/SVG/1.1/DTD/svg11.dtd">
<svg width="100%" height="100%" viewBox="0 0 293 84" version="1.1" xmlns="http://www.w3.org/2000/svg" xmlns:xlink="http://www.w3.org/1999/xlink" xml:space="preserve" style="fill-rule:evenodd;clip-rule:evenodd;stroke-linejoin:round;stroke-miterlimit:1.41421;">
    <g id="Orange-Button-Rounded-Outline" transform="matrix(1.87362,0,0,1.8665,-1307.79,-410.63)">
        <path d="M831.73,220L831.875,220.002L832.019,220.004L832.164,220.007L832.308,220.011L832.451,220.017L832.595,220.022L832.738,220.029L832.881,220.037L833.024,220.046L833.167,220.055L833.309,220.066L833.451,220.077L833.593,220.089L833.735,220.102L833.876,220.116L834.017,220.131L834.158,220.147L834.298,220.163L834.439,220.181L834.579,220.199L834.718,220.218L834.858,220.239L834.997,220.259L835.136,220.281L835.275,220.304L835.413,220.327L835.551,220.352L835.689,220.377L835.826,220.403L835.964,220.43L836.1,220.457L836.237,220.486L836.373,220.515L836.509,220.546L836.645,220.577L836.78,220.608L836.915,220.641L837.05,220.675L837.184,220.709L837.319,220.744L837.452,220.78L837.586,220.817L837.719,220.854L837.852,220.892L837.984,220.932L838.116,220.972L838.248,221.012L838.379,221.054L838.51,221.096L838.641,221.139L838.771,221.183L838.901,221.228L839.031,221.273L839.16,221.319L839.289,221.366L839.418,221.414L839.546,221.462L839.674,221.512L839.801,221.562L839.928,221.612L840.055,221.664L840.181,221.716L840.307,221.769L840.432,221.823L840.557,221.878L840.682,221.933L840.806,221.989L840.93,222.046L841.054,222.103L841.177,222.161L841.3,222.22L841.422,222.28L841.544,222.34L841.665,222.401L841.786,222.463L841.907,222.526L842.027,222.589L842.147,222.653L842.266,222.717L842.385,222.783L842.503,222.849L842.621,222.915L842.739,222.983L842.856,223.051L842.973,223.12L843.089,223.189L843.205,223.259L843.32,223.33L843.435,223.402L843.549,223.474L843.663,223.547L843.776,223.62L843.889,223.694L844.002,223.769L844.114,223.845L844.226,223.921L844.337,223.998L844.447,224.075L844.557,224.153L844.667,224.232L844.776,224.312L844.885,224.392L844.993,224.472L845.101,224.554L845.208,224.636L845.314,224.718L845.42,224.802L845.526,224.885L845.631,224.97L845.736,225.055L845.84,225.141L845.943,225.227L846.046,225.314L846.149,225.401L846.251,225.489L846.352,225.578L846.453,225.668L846.553,225.757L846.653,225.848L846.752,225.939L846.851,226.031L846.949,226.123L847.047,226.216L847.144,226.309L847.241,226.403L847.336,226.498L847.432,226.593L847.527,226.689L847.621,226.785L847.715,226.882L847.808,226.98L847.9,227.078L847.992,227.176L848.083,227.275L848.174,227.375L848.264,227.475L848.354,227.576L848.443,227.677L848.531,227.779L848.619,227.881L848.706,227.984L848.793,228.087L848.879,228.191L848.964,228.296L849.049,228.401L849.133,228.506L849.217,228.612L849.3,228.719L849.382,228.826L849.464,228.933L849.545,229.041L849.625,229.15L849.705,229.259L849.784,229.369L849.862,229.479L849.94,229.589L850.017,229.7L850.094,229.812L850.17,229.924L850.245,230.036L850.32,230.149L850.393,230.263L850.467,230.376L850.539,230.491L850.611,230.606L850.682,230.721L850.753,230.837L850.823,230.953L850.892,231.069L850.961,231.187L851.029,231.304L851.096,231.422L851.162,231.541L851.228,231.66L851.293,231.779L851.357,231.899L851.421,232.019L851.484,232.139L851.546,232.261L851.608,232.382L851.669,232.504L851.729,232.626L851.788,232.749L851.847,232.872L851.905,232.996L851.962,233.12L852.019,233.244L852.074,233.369L852.13,233.494L852.184,233.62L852.237,233.745L852.29,233.872L852.342,233.999L852.394,234.126L852.444,234.253L852.494,234.381L852.543,234.509L852.591,234.638L852.639,234.767L852.686,234.896L852.732,235.026L852.777,235.156L852.821,235.287L852.865,235.418L852.908,235.549L852.95,235.68L852.992,235.812L853.032,235.945L853.072,236.077L853.111,236.21L853.149,236.343L853.186,236.477L853.223,236.611L853.259,236.745L853.294,236.88L853.328,237.015L853.361,237.15L853.394,237.285L853.426,237.421L853.457,237.557L853.487,237.694L853.516,237.831L853.544,237.968L853.572,238.105L853.599,238.243L853.625,238.381L853.65,238.519L853.674,238.658L853.697,238.797L853.72,238.936L853.742,239.075L853.762,239.215L853.782,239.355L853.802,239.495L853.82,239.636L853.837,239.777L853.854,239.918L853.869,240.059L853.884,240.201L853.898,240.343L853.911,240.485L853.923,240.627L853.935,240.77L853.945,240.913L853.954,241.056L853.963,241.199L853.971,241.343L853.978,241.487L853.984,241.631L853.989,241.775L853.993,241.92L853.996,242.064L853.998,242.209L854,242.355L854,242.5L854,242.645L853.998,242.791L853.996,242.936L853.993,243.08L853.989,243.225L853.984,243.369L853.978,243.513L853.971,243.657L853.963,243.801L853.954,243.944L853.945,244.087L853.935,244.23L853.923,244.373L853.911,244.515L853.898,244.657L853.884,244.799L853.869,244.941L853.854,245.082L853.837,245.223L853.82,245.364L853.802,245.505L853.782,245.645L853.762,245.785L853.742,245.925L853.72,246.064L853.697,246.203L853.674,246.342L853.65,246.481L853.625,246.619L853.599,246.757L853.572,246.895L853.544,247.032L853.516,247.169L853.487,247.306L853.457,247.443L853.426,247.579L853.394,247.715L853.361,247.85L853.328,247.985L853.294,248.12L853.259,248.255L853.223,248.389L853.186,248.523L853.149,248.657L853.111,248.79L853.072,248.923L853.032,249.055L852.992,249.188L852.95,249.32L852.908,249.451L852.865,249.582L852.821,249.713L852.777,249.844L852.732,249.974L852.686,250.104L852.639,250.233L852.591,250.362L852.543,250.491L852.494,250.619L852.444,250.747L852.394,250.874L852.342,251.001L852.29,251.128L852.237,251.255L852.184,251.38L852.13,251.506L852.074,251.631L852.019,251.756L851.962,251.88L851.905,252.004L851.847,252.128L851.788,252.251L851.729,252.374L851.669,252.496L851.608,252.618L851.546,252.739L851.484,252.861L851.421,252.981L851.357,253.101L851.293,253.221L851.228,253.34L851.162,253.459L851.096,253.578L851.029,253.696L850.961,253.813L850.892,253.931L850.823,254.047L850.753,254.163L850.682,254.279L850.611,254.394L850.539,254.509L850.467,254.624L850.393,254.737L850.32,254.851L850.245,254.964L850.17,255.076L850.094,255.188L850.017,255.3L849.94,255.411L849.862,255.521L849.784,255.631L849.705,255.741L849.625,255.85L849.545,255.959L849.464,256.067L849.382,256.174L849.3,256.281L849.217,256.388L849.133,256.494L849.049,256.599L848.964,256.704L848.879,256.809L848.793,256.913L848.706,257.016L848.619,257.119L848.531,257.221L848.443,257.323L848.354,257.424L848.264,257.525L848.174,257.625L848.083,257.725L847.992,257.824L847.9,257.922L847.808,258.02L847.715,258.118L847.621,258.215L847.527,258.311L847.432,258.407L847.336,258.502L847.241,258.597L847.144,258.691L847.047,258.784L846.949,258.877L846.851,258.969L846.752,259.061L846.653,259.152L846.553,259.243L846.453,259.332L846.352,259.422L846.251,259.511L846.149,259.599L846.046,259.686L845.943,259.773L845.84,259.859L845.736,259.945L845.631,260.03L845.526,260.115L845.42,260.198L845.314,260.282L845.208,260.364L845.101,260.446L844.993,260.528L844.885,260.608L844.776,260.688L844.667,260.768L844.557,260.847L844.447,260.925L844.337,261.002L844.226,261.079L844.114,261.155L844.002,261.231L843.889,261.306L843.776,261.38L843.663,261.453L843.549,261.526L843.435,261.598L843.32,261.67L843.205,261.741L843.089,261.811L842.973,261.88L842.856,261.949L842.739,262.017L842.621,262.085L842.503,262.151L842.385,262.217L842.266,262.283L842.147,262.347L842.027,262.411L841.907,262.474L841.786,262.537L841.665,262.599L841.544,262.66L841.422,262.72L841.3,262.78L841.177,262.839L841.054,262.897L840.93,262.954L840.806,263.011L840.682,263.067L840.557,263.122L840.432,263.177L840.307,263.231L840.181,263.284L840.055,263.336L839.928,263.388L839.801,263.438L839.674,263.488L839.546,263.538L839.418,263.586L839.289,263.634L839.16,263.681L839.031,263.727L838.901,263.772L838.771,263.817L838.641,263.861L838.51,263.904L838.379,263.946L838.248,263.988L838.116,264.028L837.984,264.068L837.852,264.108L837.719,264.146L837.586,264.183L837.452,264.22L837.319,264.256L837.184,264.291L837.05,264.325L836.915,264.359L836.78,264.392L836.645,264.423L836.509,264.454L836.373,264.485L836.237,264.514L836.1,264.543L835.964,264.57L835.826,264.597L835.689,264.623L835.551,264.648L835.413,264.673L835.275,264.696L835.136,264.719L834.997,264.741L834.858,264.761L834.718,264.782L834.579,264.801L834.439,264.819L834.298,264.837L834.158,264.853L834.017,264.869L833.876,264.884L833.735,264.898L833.593,264.911L833.451,264.923L833.309,264.934L833.167,264.945L833.024,264.954L832.881,264.963L832.738,264.971L832.595,264.978L832.451,264.983L832.308,264.989L832.164,264.993L832.019,264.996L831.875,264.998L831.73,265L831.586,265L720.414,265L720.27,265L720.125,264.998L719.981,264.996L719.836,264.993L719.692,264.989L719.549,264.983L719.405,264.978L719.262,264.971L719.119,264.963L718.976,264.954L718.833,264.945L718.691,264.934L718.549,264.923L718.407,264.911L718.265,264.898L718.124,264.884L717.983,264.869L717.842,264.853L717.702,264.837L717.561,264.819L717.421,264.801L717.282,264.782L717.142,264.761L717.003,264.741L716.864,264.719L716.725,264.696L716.587,264.673L716.449,264.648L716.311,264.623L716.174,264.597L716.036,264.57L715.9,264.543L715.763,264.514L715.627,264.485L715.491,264.454L715.355,264.423L715.22,264.392L715.085,264.359L714.95,264.325L714.816,264.291L714.681,264.256L714.548,264.22L714.414,264.183L714.281,264.146L714.148,264.108L714.016,264.068L713.884,264.028L713.752,263.988L713.621,263.946L713.49,263.904L713.359,263.861L713.229,263.817L713.099,263.772L712.969,263.727L712.84,263.681L712.711,263.634L712.582,263.586L712.454,263.538L712.326,263.488L712.199,263.438L712.072,263.388L711.945,263.336L711.819,263.284L711.693,263.231L711.568,263.177L711.443,263.122L711.318,263.067L711.194,263.011L711.07,262.954L710.946,262.897L710.823,262.839L710.7,262.78L710.578,262.72L710.456,262.66L710.335,262.599L710.214,262.537L710.093,262.474L709.973,262.411L709.853,262.347L709.734,262.283L709.615,262.217L709.497,262.151L709.379,262.085L709.261,262.017L709.144,261.949L709.027,261.88L708.911,261.811L708.795,261.741L708.68,261.67L708.565,261.598L708.451,261.526L708.337,261.453L708.224,261.38L708.111,261.306L707.998,261.231L707.886,261.155L707.774,261.079L707.663,261.002L707.553,260.925L707.443,260.847L707.333,260.768L707.224,260.688L707.115,260.608L707.007,260.528L706.899,260.446L706.792,260.364L706.686,260.282L706.58,260.198L706.474,260.115L706.369,260.03L706.264,259.945L706.16,259.859L706.057,259.773L705.954,259.686L705.851,259.599L705.749,259.511L705.648,259.422L705.547,259.332L705.447,259.243L705.347,259.152L705.248,259.061L705.149,258.969L705.051,258.877L704.953,258.784L704.856,258.691L704.759,258.597L704.664,258.502L704.568,258.407L704.473,258.311L704.379,258.215L704.285,258.118L704.192,258.02L704.1,257.922L704.008,257.824L703.917,257.725L703.826,257.625L703.736,257.525L703.646,257.424L703.557,257.323L703.469,257.221L703.381,257.119L703.294,257.016L703.207,256.913L703.121,256.809L703.036,256.704L702.951,256.599L702.867,256.494L702.783,256.388L702.7,256.281L702.618,256.174L702.536,256.067L702.455,255.959L702.375,255.85L702.295,255.741L702.216,255.631L702.138,255.521L702.06,255.411L701.983,255.3L701.906,255.188L701.83,255.076L701.755,254.964L701.68,254.851L701.607,254.737L701.533,254.624L701.461,254.509L701.389,254.394L701.318,254.279L701.247,254.163L701.177,254.047L701.108,253.931L701.039,253.813L700.971,253.696L700.904,253.578L700.838,253.459L700.772,253.34L700.707,253.221L700.643,253.101L700.579,252.981L700.516,252.861L700.454,252.739L700.392,252.618L700.331,252.496L700.271,252.374L700.212,252.251L700.153,252.128L700.095,252.004L700.038,251.88L699.981,251.756L699.926,251.631L699.87,251.506L699.816,251.38L699.763,251.255L699.71,251.128L699.658,251.001L699.606,250.874L699.556,250.747L699.506,250.619L699.457,250.491L699.409,250.362L699.361,250.233L699.314,250.104L699.268,249.974L699.223,249.844L699.179,249.713L699.135,249.582L699.092,249.451L699.05,249.32L699.008,249.188L698.968,249.055L698.928,248.923L698.889,248.79L698.851,248.657L698.814,248.523L698.777,248.389L698.741,248.255L698.706,248.12L698.672,247.985L698.639,247.85L698.606,247.715L698.574,247.579L698.543,247.443L698.513,247.306L698.484,247.169L698.456,247.032L698.428,246.895L698.401,246.757L698.375,246.619L698.35,246.481L698.326,246.342L698.303,246.203L698.28,246.064L698.258,245.925L698.238,245.785L698.218,245.645L698.198,245.505L698.18,245.364L698.163,245.223L698.146,245.082L698.131,244.941L698.116,244.799L698.102,244.657L698.089,244.515L698.077,244.373L698.065,244.23L698.055,244.087L698.046,243.944L698.037,243.801L698.029,243.657L698.022,243.513L698.016,243.369L698.011,243.225L698.007,243.08L698.004,242.936L698.002,242.791L698,242.645L698,242.5L698,242.355L698.002,242.209L698.004,242.064L698.007,241.92L698.011,241.775L698.016,241.631L698.022,241.487L698.029,241.343L698.037,241.199L698.046,241.056L698.055,240.913L698.065,240.77L698.077,240.627L698.089,240.485L698.102,240.343L698.116,240.201L698.131,240.059L698.146,239.918L698.163,239.777L698.18,239.636L698.198,239.495L698.218,239.355L698.238,239.215L698.258,239.075L698.28,238.936L698.303,238.797L698.326,238.658L698.35,238.519L698.375,238.381L698.401,238.243L698.428,238.105L698.456,237.968L698.484,237.831L698.513,237.694L698.543,237.557L698.574,237.421L698.606,237.285L698.639,237.15L698.672,237.015L698.706,236.88L698.741,236.745L698.777,236.611L698.814,236.477L698.851,236.343L698.889,236.21L698.928,236.077L698.968,235.945L699.008,235.812L699.05,235.68L699.092,235.549L699.135,235.418L699.179,235.287L699.223,235.156L699.268,235.026L699.314,234.896L699.361,234.767L699.409,234.638L699.457,234.509L699.506,234.381L699.556,234.253L699.606,234.126L699.658,233.999L699.71,233.872L699.763,233.745L699.816,233.62L699.87,233.494L699.926,233.369L699.981,233.244L700.038,233.12L700.095,232.996L700.153,232.872L700.212,232.749L700.271,232.626L700.331,232.504L700.392,232.382L700.454,232.261L700.516,232.139L700.579,232.019L700.643,231.899L700.707,231.779L700.772,231.66L700.838,231.541L700.904,231.422L700.971,231.304L701.039,231.187L701.108,231.069L701.177,230.953L701.247,230.837L701.318,230.721L701.389,230.606L701.461,230.491L701.533,230.376L701.607,230.263L701.68,230.149L701.755,230.036L701.83,229.924L701.906,229.812L701.983,229.7L702.06,229.589L702.138,229.479L702.216,229.369L702.295,229.259L702.375,229.15L702.455,229.041L702.536,228.933L702.618,228.826L702.7,228.719L702.783,228.612L702.867,228.506L702.951,228.401L703.036,228.296L703.121,228.191L703.207,228.087L703.294,227.984L703.381,227.881L703.469,227.779L703.557,227.677L703.646,227.576L703.736,227.475L703.826,227.375L703.917,227.275L704.008,227.176L704.1,227.078L704.192,226.98L704.285,226.882L704.379,226.785L704.473,226.689L704.568,226.593L704.664,226.498L704.759,226.403L704.856,226.309L704.953,226.216L705.051,226.123L705.149,226.031L705.248,225.939L705.347,225.848L705.447,225.757L705.547,225.668L705.648,225.578L705.749,225.489L705.851,225.401L705.954,225.314L706.057,225.227L706.16,225.141L706.264,225.055L706.369,224.97L706.474,224.885L706.58,224.802L706.686,224.718L706.792,224.636L706.899,224.554L707.007,224.472L707.115,224.392L707.224,224.312L707.333,224.232L707.443,224.153L707.553,224.075L707.663,223.998L707.774,223.921L707.886,223.845L707.998,223.769L708.111,223.694L708.224,223.62L708.337,223.547L708.451,223.474L708.565,223.402L708.68,223.33L708.795,223.259L708.911,223.189L709.027,223.12L709.144,223.051L709.261,222.983L709.379,222.915L709.497,222.849L709.615,222.783L709.734,222.717L709.853,222.653L709.973,222.589L710.093,222.526L710.214,222.463L710.335,222.401L710.456,222.34L710.578,222.28L710.7,222.22L710.823,222.161L710.946,222.103L711.07,222.046L711.194,221.989L711.318,221.933L711.443,221.878L711.568,221.823L711.693,221.769L711.819,221.716L711.945,221.664L712.072,221.612L712.199,221.562L712.326,221.512L712.454,221.462L712.582,221.414L712.711,221.366L712.84,221.319L712.969,221.273L713.099,221.228L713.229,221.183L713.359,221.139L713.49,221.096L713.621,221.054L713.752,221.012L713.884,220.972L714.016,220.932L714.148,220.892L714.281,220.854L714.414,220.817L714.548,220.78L714.681,220.744L714.816,220.709L714.95,220.675L715.085,220.641L715.22,220.608L715.355,220.577L715.491,220.546L715.627,220.515L715.763,220.486L715.9,220.457L716.036,220.43L716.174,220.403L716.311,220.377L716.449,220.352L716.587,220.327L716.725,220.304L716.864,220.281L717.003,220.259L717.142,220.239L717.282,220.218L717.421,220.199L717.561,220.181L717.702,220.163L717.842,220.147L717.983,220.131L718.124,220.116L718.265,220.102L718.407,220.089L718.549,220.077L718.691,220.066L718.833,220.055L718.976,220.046L719.119,220.037L719.262,220.029L719.405,220.022L719.549,220.017L719.692,220.011L719.836,220.007L719.981,220.004L720.125,220.002L720.27,220L720.414,220L831.586,220L831.73,220ZM720.416,220.9L720.275,220.901L720.136,220.902L719.998,220.904L719.859,220.907L719.721,220.911L719.583,220.916L719.445,220.922L719.307,220.928L719.17,220.936L719.033,220.944L718.896,220.953L718.759,220.963L718.623,220.974L718.486,220.986L718.35,220.998L718.215,221.012L718.079,221.026L717.944,221.041L717.809,221.057L717.675,221.074L717.54,221.091L717.406,221.11L717.272,221.129L717.138,221.149L717.005,221.17L716.872,221.192L716.739,221.214L716.607,221.238L716.474,221.262L716.343,221.287L716.211,221.313L716.079,221.339L715.948,221.367L715.818,221.395L715.687,221.424L715.557,221.454L715.427,221.484L715.297,221.515L715.168,221.548L715.039,221.581L714.91,221.614L714.782,221.649L714.654,221.684L714.526,221.72L714.399,221.757L714.272,221.794L714.145,221.833L714.019,221.872L713.893,221.912L713.767,221.952L713.641,221.993L713.516,222.036L713.392,222.078L713.267,222.122L713.143,222.166L713.019,222.211L712.896,222.257L712.773,222.304L712.65,222.351L712.528,222.399L712.406,222.448L712.285,222.497L712.164,222.547L712.043,222.598L711.922,222.65L711.802,222.702L711.683,222.755L711.563,222.809L711.444,222.863L711.326,222.919L711.208,222.974L711.09,223.031L710.973,223.088L710.856,223.146L710.739,223.205L710.623,223.264L710.507,223.324L710.392,223.385L710.277,223.446L710.162,223.508L710.048,223.571L709.934,223.634L709.821,223.698L709.708,223.763L709.596,223.828L709.484,223.894L709.372,223.961L709.261,224.028L709.15,224.096L709.04,224.165L708.93,224.234L708.821,224.304L708.712,224.375L708.604,224.446L708.496,224.518L708.388,224.591L708.281,224.664L708.174,224.737L708.068,224.812L707.962,224.887L707.857,224.963L707.752,225.039L707.648,225.116L707.544,225.193L707.441,225.271L707.338,225.35L707.236,225.429L707.134,225.509L707.032,225.59L706.931,225.671L706.831,225.752L706.731,225.835L706.632,225.918L706.533,226.001L706.434,226.085L706.336,226.17L706.239,226.255L706.142,226.341L706.046,226.427L705.95,226.514L705.855,226.602L705.76,226.69L705.666,226.778L705.572,226.867L705.479,226.957L705.386,227.047L705.294,227.138L705.202,227.23L705.111,227.322L705.021,227.414L704.931,227.507L704.841,227.601L704.752,227.695L704.664,227.789L704.576,227.885L704.489,227.98L704.403,228.076L704.317,228.173L704.231,228.27L704.146,228.368L704.062,228.466L703.978,228.565L703.895,228.665L703.813,228.764L703.731,228.865L703.649,228.965L703.568,229.067L703.488,229.169L703.409,229.271L703.33,229.374L703.251,229.477L703.173,229.581L703.096,229.685L703.02,229.79L702.944,229.895L702.868,230L702.794,230.107L702.719,230.213L702.646,230.32L702.573,230.428L702.501,230.536L702.429,230.644L702.358,230.753L702.288,230.862L702.218,230.972L702.149,231.082L702.081,231.193L702.013,231.304L701.946,231.416L701.88,231.528L701.814,231.64L701.749,231.753L701.684,231.866L701.62,231.98L701.557,232.094L701.495,232.209L701.433,232.324L701.372,232.439L701.311,232.555L701.252,232.671L701.193,232.788L701.134,232.905L701.076,233.022L701.019,233.14L700.963,233.258L700.907,233.377L700.852,233.496L700.798,233.615L700.745,233.735L700.692,233.855L700.64,233.975L700.588,234.096L700.538,234.218L700.488,234.339L700.438,234.461L700.39,234.584L700.342,234.706L700.295,234.829L700.249,234.953L700.203,235.077L700.158,235.201L700.114,235.325L700.07,235.45L700.028,235.576L699.986,235.701L699.945,235.827L699.904,235.953L699.865,236.08L699.826,236.207L699.787,236.334L699.75,236.462L699.713,236.589L699.678,236.718L699.642,236.846L699.608,236.975L699.575,237.104L699.542,237.234L699.51,237.363L699.478,237.494L699.448,237.624L699.418,237.755L699.39,237.886L699.361,238.017L699.334,238.148L699.308,238.28L699.282,238.413L699.257,238.545L699.233,238.678L699.21,238.811L699.187,238.944L699.166,239.078L699.145,239.212L699.125,239.346L699.106,239.48L699.087,239.615L699.07,239.75L699.053,239.885L699.037,240.02L699.022,240.156L699.008,240.292L698.995,240.428L698.982,240.565L698.97,240.701L698.959,240.838L698.95,240.975L698.94,241.113L698.932,241.251L698.925,241.389L698.918,241.527L698.912,241.665L698.908,241.804L698.904,241.942L698.901,242.082L698.898,242.221L698.897,242.36L698.897,242.5L698.897,242.64L698.898,242.779L698.901,242.918L698.904,243.058L698.908,243.196L698.912,243.335L698.918,243.473L698.925,243.611L698.932,243.749L698.94,243.887L698.95,244.025L698.959,244.162L698.97,244.299L698.982,244.435L698.995,244.572L699.008,244.708L699.022,244.844L699.037,244.98L699.053,245.115L699.07,245.25L699.087,245.385L699.106,245.52L699.125,245.654L699.145,245.788L699.166,245.922L699.187,246.056L699.21,246.189L699.233,246.322L699.257,246.455L699.282,246.587L699.308,246.72L699.334,246.852L699.361,246.983L699.39,247.114L699.418,247.245L699.448,247.376L699.478,247.506L699.51,247.637L699.542,247.766L699.575,247.896L699.608,248.025L699.642,248.154L699.678,248.282L699.713,248.411L699.75,248.538L699.787,248.666L699.826,248.793L699.865,248.92L699.904,249.047L699.945,249.173L699.986,249.299L700.028,249.424L700.07,249.55L700.114,249.675L700.158,249.799L700.203,249.923L700.249,250.047L700.295,250.171L700.342,250.294L700.39,250.416L700.438,250.539L700.488,250.661L700.538,250.782L700.588,250.904L700.64,251.025L700.692,251.145L700.745,251.265L700.798,251.385L700.852,251.504L700.907,251.623L700.963,251.742L701.019,251.86L701.076,251.978L701.134,252.095L701.193,252.212L701.252,252.329L701.311,252.445L701.372,252.561L701.433,252.676L701.495,252.791L701.557,252.906L701.62,253.02L701.684,253.134L701.749,253.247L701.814,253.36L701.88,253.472L701.946,253.584L702.013,253.696L702.081,253.807L702.149,253.918L702.218,254.028L702.288,254.138L702.358,254.247L702.429,254.356L702.501,254.464L702.573,254.572L702.646,254.68L702.719,254.787L702.794,254.893L702.868,255L702.944,255.105L703.02,255.21L703.096,255.315L703.173,255.419L703.251,255.523L703.33,255.626L703.409,255.729L703.488,255.831L703.568,255.933L703.649,256.035L703.731,256.135L703.813,256.236L703.895,256.335L703.978,256.435L704.062,256.534L704.146,256.632L704.231,256.73L704.317,256.827L704.403,256.924L704.489,257.02L704.576,257.115L704.664,257.211L704.752,257.305L704.841,257.399L704.931,257.493L705.021,257.586L705.111,257.678L705.202,257.77L705.294,257.862L705.386,257.953L705.479,258.043L705.572,258.133L705.666,258.222L705.76,258.31L705.855,258.398L705.95,258.486L706.046,258.573L706.142,258.659L706.239,258.745L706.336,258.83L706.434,258.915L706.533,258.999L706.632,259.082L706.731,259.165L706.831,259.248L706.931,259.329L707.032,259.41L707.134,259.491L707.236,259.571L707.338,259.65L707.441,259.729L707.544,259.807L707.648,259.884L707.752,259.961L707.857,260.037L707.962,260.113L708.068,260.188L708.174,260.263L708.281,260.336L708.388,260.409L708.496,260.482L708.604,260.554L708.712,260.625L708.821,260.696L708.93,260.766L709.04,260.835L709.15,260.904L709.261,260.972L709.372,261.039L709.484,261.106L709.596,261.172L709.708,261.237L709.821,261.302L709.934,261.366L710.048,261.429L710.162,261.492L710.277,261.554L710.392,261.615L710.507,261.676L710.623,261.736L710.739,261.795L710.856,261.854L710.973,261.912L711.09,261.969L711.208,262.026L711.326,262.081L711.444,262.137L711.563,262.191L711.683,262.245L711.802,262.298L711.922,262.35L712.043,262.402L712.164,262.453L712.285,262.503L712.406,262.552L712.528,262.601L712.65,262.649L712.773,262.696L712.896,262.743L713.019,262.789L713.143,262.834L713.267,262.878L713.392,262.922L713.516,262.964L713.641,263.007L713.767,263.048L713.893,263.088L714.019,263.128L714.145,263.167L714.272,263.206L714.399,263.243L714.526,263.28L714.654,263.316L714.782,263.351L714.91,263.386L715.039,263.419L715.168,263.452L715.297,263.485L715.427,263.516L715.557,263.546L715.687,263.576L715.818,263.605L715.948,263.633L716.079,263.661L716.211,263.687L716.343,263.713L716.474,263.738L716.607,263.762L716.739,263.786L716.872,263.808L717.005,263.83L717.138,263.851L717.272,263.871L717.406,263.89L717.54,263.909L717.675,263.926L717.809,263.943L717.944,263.959L718.079,263.974L718.215,263.988L718.35,264.002L718.486,264.014L718.623,264.026L718.759,264.037L718.896,264.047L719.033,264.056L719.17,264.064L719.307,264.072L719.445,264.078L719.583,264.084L719.721,264.089L719.859,264.093L719.998,264.096L720.136,264.098L720.275,264.099L720.416,264.1L831.584,264.1L831.725,264.099L831.864,264.098L832.002,264.096L832.141,264.093L832.279,264.089L832.417,264.084L832.555,264.078L832.693,264.072L832.83,264.064L832.967,264.056L833.104,264.047L833.241,264.037L833.377,264.026L833.514,264.014L833.65,264.002L833.785,263.988L833.921,263.974L834.056,263.959L834.191,263.943L834.325,263.926L834.46,263.909L834.594,263.89L834.728,263.871L834.862,263.851L834.995,263.83L835.128,263.808L835.261,263.786L835.393,263.762L835.526,263.738L835.657,263.713L835.789,263.687L835.921,263.661L836.052,263.633L836.182,263.605L836.313,263.576L836.443,263.546L836.573,263.516L836.703,263.485L836.832,263.452L836.961,263.419L837.09,263.386L837.218,263.351L837.346,263.316L837.474,263.28L837.601,263.243L837.728,263.206L837.855,263.167L837.981,263.128L838.107,263.088L838.233,263.048L838.359,263.007L838.484,262.964L838.608,262.922L838.733,262.878L838.857,262.834L838.981,262.789L839.104,262.743L839.227,262.696L839.35,262.649L839.472,262.601L839.594,262.552L839.715,262.503L839.836,262.453L839.957,262.402L840.078,262.35L840.198,262.298L840.317,262.245L840.437,262.191L840.556,262.137L840.674,262.081L840.792,262.026L840.91,261.969L841.027,261.912L841.144,261.854L841.261,261.795L841.377,261.736L841.493,261.676L841.608,261.615L841.723,261.554L841.838,261.492L841.952,261.429L842.066,261.366L842.179,261.302L842.292,261.237L842.404,261.172L842.516,261.106L842.628,261.039L842.739,260.972L842.85,260.904L842.96,260.835L843.07,260.766L843.179,260.696L843.288,260.625L843.396,260.554L843.504,260.482L843.612,260.409L843.719,260.336L843.826,260.263L843.932,260.188L844.038,260.113L844.143,260.037L844.248,259.961L844.352,259.884L844.456,259.807L844.559,259.729L844.662,259.65L844.764,259.571L844.866,259.491L844.968,259.41L845.069,259.329L845.169,259.248L845.269,259.165L845.368,259.082L845.467,258.999L845.566,258.915L845.664,258.83L845.761,258.745L845.858,258.659L845.954,258.573L846.05,258.486L846.145,258.398L846.24,258.31L846.334,258.222L846.428,258.133L846.521,258.043L846.614,257.953L846.706,257.862L846.798,257.77L846.889,257.678L846.979,257.586L847.069,257.493L847.159,257.399L847.248,257.305L847.336,257.211L847.424,257.115L847.511,257.02L847.597,256.924L847.683,256.827L847.769,256.73L847.854,256.632L847.938,256.534L848.022,256.435L848.105,256.335L848.187,256.236L848.269,256.135L848.351,256.035L848.432,255.933L848.512,255.831L848.591,255.729L848.67,255.626L848.749,255.523L848.827,255.419L848.904,255.315L848.98,255.21L849.056,255.105L849.132,255L849.206,254.893L849.281,254.787L849.354,254.68L849.427,254.572L849.499,254.464L849.571,254.356L849.642,254.247L849.712,254.138L849.782,254.028L849.851,253.918L849.919,253.807L849.987,253.696L850.054,253.584L850.12,253.472L850.186,253.36L850.251,253.247L850.316,253.134L850.38,253.02L850.443,252.906L850.505,252.791L850.567,252.676L850.628,252.561L850.689,252.445L850.748,252.329L850.807,252.212L850.866,252.095L850.924,251.978L850.981,251.86L851.037,251.742L851.093,251.623L851.148,251.504L851.202,251.385L851.255,251.265L851.308,251.145L851.36,251.025L851.412,250.904L851.462,250.782L851.512,250.661L851.562,250.539L851.61,250.416L851.658,250.294L851.705,250.171L851.751,250.047L851.797,249.923L851.842,249.799L851.886,249.675L851.93,249.55L851.972,249.424L852.014,249.299L852.055,249.173L852.096,249.047L852.135,248.92L852.174,248.793L852.213,248.666L852.25,248.538L852.287,248.411L852.322,248.282L852.358,248.154L852.392,248.025L852.425,247.896L852.458,247.766L852.49,247.637L852.522,247.507L852.552,247.376L852.582,247.245L852.611,247.114L852.639,246.983L852.666,246.852L852.692,246.72L852.718,246.587L852.743,246.455L852.767,246.322L852.79,246.189L852.813,246.056L852.834,245.922L852.855,245.789L852.875,245.654L852.894,245.52L852.913,245.385L852.93,245.25L852.947,245.115L852.963,244.98L852.978,244.844L852.992,244.708L853.005,244.572L853.018,244.435L853.03,244.299L853.041,244.162L853.05,244.025L853.06,243.887L853.068,243.749L853.075,243.611L853.082,243.473L853.088,243.335L853.092,243.196L853.096,243.058L853.099,242.918L853.102,242.779L853.103,242.64L853.103,242.5L853.103,242.36L853.102,242.221L853.099,242.082L853.096,241.942L853.092,241.804L853.088,241.665L853.082,241.527L853.075,241.389L853.068,241.251L853.06,241.113L853.05,240.975L853.041,240.838L853.03,240.701L853.018,240.565L853.005,240.428L852.992,240.292L852.978,240.156L852.963,240.02L852.947,239.885L852.93,239.75L852.913,239.615L852.894,239.48L852.875,239.346L852.855,239.212L852.834,239.078L852.813,238.944L852.79,238.811L852.767,238.678L852.743,238.545L852.718,238.413L852.692,238.28L852.666,238.148L852.639,238.017L852.611,237.886L852.582,237.755L852.552,237.624L852.522,237.493L852.49,237.363L852.458,237.234L852.425,237.104L852.392,236.975L852.358,236.846L852.322,236.718L852.287,236.589L852.25,236.462L852.213,236.334L852.174,236.207L852.135,236.08L852.096,235.953L852.055,235.827L852.014,235.701L851.972,235.576L851.93,235.45L851.886,235.325L851.842,235.201L851.797,235.077L851.751,234.953L851.705,234.829L851.658,234.706L851.61,234.584L851.562,234.461L851.512,234.339L851.462,234.218L851.412,234.096L851.36,233.975L851.308,233.855L851.255,233.735L851.202,233.615L851.148,233.496L851.093,233.377L851.037,233.258L850.981,233.14L850.924,233.022L850.866,232.905L850.807,232.788L850.748,232.671L850.689,232.555L850.628,232.439L850.567,232.324L850.505,232.209L850.443,232.094L850.38,231.98L850.316,231.866L850.251,231.753L850.186,231.64L850.12,231.528L850.054,231.416L849.987,231.304L849.919,231.193L849.851,231.082L849.782,230.972L849.712,230.862L849.642,230.753L849.571,230.644L849.499,230.536L849.427,230.428L849.354,230.32L849.281,230.213L849.206,230.107L849.132,230L849.056,229.895L848.98,229.79L848.904,229.685L848.827,229.581L848.749,229.477L848.67,229.374L848.591,229.271L848.512,229.169L848.432,229.067L848.351,228.965L848.269,228.865L848.187,228.764L848.105,228.665L848.022,228.565L847.938,228.466L847.854,228.368L847.769,228.27L847.683,228.173L847.597,228.076L847.511,227.98L847.424,227.885L847.336,227.789L847.248,227.695L847.159,227.601L847.069,227.507L846.979,227.414L846.889,227.322L846.798,227.23L846.706,227.138L846.614,227.047L846.521,226.957L846.428,226.867L846.334,226.778L846.24,226.69L846.145,226.602L846.05,226.514L845.954,226.427L845.858,226.341L845.761,226.255L845.664,226.17L845.566,226.085L845.467,226.001L845.368,225.918L845.269,225.835L845.169,225.752L845.069,225.671L844.968,225.59L844.866,225.509L844.764,225.429L844.662,225.35L844.559,225.271L844.456,225.193L844.352,225.116L844.248,225.039L844.143,224.963L844.038,224.887L843.932,224.812L843.826,224.737L843.719,224.664L843.612,224.591L843.504,224.518L843.396,224.446L843.288,224.375L843.179,224.304L843.07,224.234L842.96,224.165L842.85,224.096L842.739,224.028L842.628,223.961L842.516,223.894L842.404,223.828L842.292,223.763L842.179,223.698L842.066,223.634L841.952,223.571L841.838,223.508L841.723,223.446L841.608,223.385L841.493,223.324L841.377,223.264L841.261,223.205L841.144,223.146L841.027,223.088L840.91,223.031L840.792,222.974L840.674,222.919L840.556,222.863L840.437,222.809L840.317,222.755L840.198,222.702L840.078,222.65L839.957,222.598L839.836,222.547L839.715,222.497L839.594,222.448L839.472,222.399L839.35,222.351L839.227,222.304L839.104,222.257L838.981,222.211L838.857,222.166L838.733,222.122L838.608,222.078L838.484,222.036L838.359,221.993L838.233,221.952L838.107,221.912L837.981,221.872L837.855,221.833L837.728,221.794L837.601,221.757L837.474,221.72L837.346,221.684L837.218,221.649L837.09,221.614L836.961,221.581L836.832,221.548L836.703,221.515L836.573,221.484L836.443,221.454L836.313,221.424L836.182,221.395L836.052,221.367L835.921,221.339L835.789,221.313L835.657,221.287L835.526,221.262L835.393,221.238L835.261,221.214L835.128,221.192L834.995,221.17L834.862,221.149L834.728,221.129L834.594,221.11L834.46,221.091L834.325,221.074L834.191,221.057L834.056,221.041L833.921,221.026L833.785,221.012L833.65,220.998L833.514,220.986L833.377,220.974L833.241,220.963L833.104,220.953L832.967,220.944L832.83,220.936L832.693,220.928L832.555,220.922L832.417,220.916L832.279,220.911L832.141,220.907L832.002,220.904L831.864,220.902L831.725,220.901L831.584,220.9L720.416,220.9Z" style="fill:rgb(255,146,58);"/>
    </g>
</svg>
