<?xml version="1.0" encoding="UTF-8" standalone="no"?>
<!DOCTYPE svg PUBLIC "-//W3C//DTD SVG 1.1//EN" "http://www.w3.org/Graphics/SVG/1.1/DTD/svg11.dtd">
<svg width="100%" height="100%" viewBox="0 0 293 84" version="1.1" xmlns="http://www.w3.org/2000/svg" xmlns:xlink="http://www.w3.org/1999/xlink" xml:space="preserve" style="fill-rule:evenodd;clip-rule:evenodd;stroke-linejoin:round;stroke-miterlimit:1.41421;">
    <g id="Red-Button-Rounded-Outline" transform="matrix(1.87362,0,0,1.8665,-1656.28,-410.63)">
        <path d="M1017.73,220L1017.88,220.002L1018.02,220.004L1018.16,220.007L1018.31,220.011L1018.45,220.017L1018.6,220.022L1018.74,220.029L1018.88,220.037L1019.02,220.046L1019.17,220.055L1019.31,220.066L1019.45,220.077L1019.59,220.089L1019.74,220.102L1019.88,220.116L1020.02,220.131L1020.16,220.147L1020.3,220.163L1020.44,220.181L1020.58,220.199L1020.72,220.218L1020.86,220.239L1021,220.259L1021.14,220.281L1021.27,220.304L1021.41,220.327L1021.55,220.352L1021.69,220.377L1021.83,220.403L1021.96,220.43L1022.1,220.457L1022.24,220.486L1022.37,220.515L1022.51,220.546L1022.64,220.577L1022.78,220.608L1022.92,220.641L1023.05,220.675L1023.18,220.709L1023.32,220.744L1023.45,220.78L1023.59,220.817L1023.72,220.854L1023.85,220.892L1023.98,220.932L1024.12,220.972L1024.25,221.012L1024.38,221.054L1024.51,221.096L1024.64,221.139L1024.77,221.183L1024.9,221.228L1025.03,221.273L1025.16,221.319L1025.29,221.366L1025.42,221.414L1025.55,221.462L1025.67,221.512L1025.8,221.562L1025.93,221.612L1026.06,221.664L1026.18,221.716L1026.31,221.769L1026.43,221.823L1026.56,221.878L1026.68,221.933L1026.81,221.989L1026.93,222.046L1027.05,222.103L1027.18,222.161L1027.3,222.22L1027.42,222.28L1027.54,222.34L1027.66,222.401L1027.79,222.463L1027.91,222.526L1028.03,222.589L1028.15,222.653L1028.27,222.717L1028.38,222.783L1028.5,222.849L1028.62,222.915L1028.74,222.983L1028.86,223.051L1028.97,223.12L1029.09,223.189L1029.2,223.259L1029.32,223.33L1029.43,223.402L1029.55,223.474L1029.66,223.547L1029.78,223.62L1029.89,223.694L1030,223.769L1030.11,223.845L1030.23,223.921L1030.34,223.998L1030.45,224.075L1030.56,224.153L1030.67,224.232L1030.78,224.312L1030.88,224.392L1030.99,224.472L1031.1,224.554L1031.21,224.636L1031.31,224.718L1031.42,224.802L1031.53,224.885L1031.63,224.97L1031.74,225.055L1031.84,225.141L1031.94,225.227L1032.05,225.314L1032.15,225.401L1032.25,225.489L1032.35,225.578L1032.45,225.668L1032.55,225.757L1032.65,225.848L1032.75,225.939L1032.85,226.031L1032.95,226.123L1033.05,226.216L1033.14,226.309L1033.24,226.403L1033.34,226.498L1033.43,226.593L1033.53,226.689L1033.62,226.785L1033.71,226.882L1033.81,226.98L1033.9,227.078L1033.99,227.176L1034.08,227.275L1034.17,227.375L1034.26,227.475L1034.35,227.576L1034.44,227.677L1034.53,227.779L1034.62,227.881L1034.71,227.984L1034.79,228.087L1034.88,228.191L1034.96,228.296L1035.05,228.401L1035.13,228.506L1035.22,228.612L1035.3,228.719L1035.38,228.826L1035.46,228.933L1035.55,229.041L1035.62,229.15L1035.7,229.259L1035.78,229.369L1035.86,229.479L1035.94,229.589L1036.02,229.7L1036.09,229.812L1036.17,229.924L1036.25,230.036L1036.32,230.149L1036.39,230.263L1036.47,230.376L1036.54,230.491L1036.61,230.606L1036.68,230.721L1036.75,230.837L1036.82,230.953L1036.89,231.069L1036.96,231.187L1037.03,231.304L1037.1,231.422L1037.16,231.541L1037.23,231.66L1037.29,231.779L1037.36,231.899L1037.42,232.019L1037.48,232.139L1037.55,232.261L1037.61,232.382L1037.67,232.504L1037.73,232.626L1037.79,232.749L1037.85,232.872L1037.9,232.996L1037.96,233.12L1038.02,233.244L1038.07,233.369L1038.13,233.494L1038.18,233.62L1038.24,233.745L1038.29,233.872L1038.34,233.999L1038.39,234.126L1038.44,234.253L1038.49,234.381L1038.54,234.509L1038.59,234.638L1038.64,234.767L1038.69,234.896L1038.73,235.026L1038.78,235.156L1038.82,235.287L1038.87,235.418L1038.91,235.549L1038.95,235.68L1038.99,235.812L1039.03,235.945L1039.07,236.077L1039.11,236.21L1039.15,236.343L1039.19,236.477L1039.22,236.611L1039.26,236.745L1039.29,236.88L1039.33,237.015L1039.36,237.15L1039.39,237.285L1039.43,237.421L1039.46,237.557L1039.49,237.694L1039.52,237.831L1039.54,237.968L1039.57,238.105L1039.6,238.243L1039.62,238.381L1039.65,238.519L1039.67,238.658L1039.7,238.797L1039.72,238.936L1039.74,239.075L1039.76,239.215L1039.78,239.355L1039.8,239.495L1039.82,239.636L1039.84,239.777L1039.85,239.918L1039.87,240.059L1039.88,240.201L1039.9,240.343L1039.91,240.485L1039.92,240.627L1039.93,240.77L1039.94,240.913L1039.95,241.056L1039.96,241.199L1039.97,241.343L1039.98,241.487L1039.98,241.631L1039.99,241.775L1039.99,241.92L1040,242.064L1040,242.209L1040,242.355L1040,242.5L1040,242.645L1040,242.791L1040,242.936L1039.99,243.08L1039.99,243.225L1039.98,243.369L1039.98,243.513L1039.97,243.657L1039.96,243.801L1039.95,243.944L1039.94,244.087L1039.93,244.23L1039.92,244.373L1039.91,244.515L1039.9,244.657L1039.88,244.799L1039.87,244.941L1039.85,245.082L1039.84,245.223L1039.82,245.364L1039.8,245.505L1039.78,245.645L1039.76,245.785L1039.74,245.925L1039.72,246.064L1039.7,246.203L1039.67,246.342L1039.65,246.481L1039.62,246.619L1039.6,246.757L1039.57,246.895L1039.54,247.032L1039.52,247.169L1039.49,247.306L1039.46,247.443L1039.43,247.579L1039.39,247.715L1039.36,247.85L1039.33,247.985L1039.29,248.12L1039.26,248.255L1039.22,248.389L1039.19,248.523L1039.15,248.657L1039.11,248.79L1039.07,248.923L1039.03,249.055L1038.99,249.188L1038.95,249.32L1038.91,249.451L1038.87,249.582L1038.82,249.713L1038.78,249.844L1038.73,249.974L1038.69,250.104L1038.64,250.233L1038.59,250.362L1038.54,250.491L1038.49,250.619L1038.44,250.747L1038.39,250.874L1038.34,251.001L1038.29,251.128L1038.24,251.255L1038.18,251.38L1038.13,251.506L1038.07,251.631L1038.02,251.756L1037.96,251.88L1037.9,252.004L1037.85,252.128L1037.79,252.251L1037.73,252.374L1037.67,252.496L1037.61,252.618L1037.55,252.739L1037.48,252.861L1037.42,252.981L1037.36,253.101L1037.29,253.221L1037.23,253.34L1037.16,253.459L1037.1,253.578L1037.03,253.696L1036.96,253.813L1036.89,253.931L1036.82,254.047L1036.75,254.163L1036.68,254.279L1036.61,254.394L1036.54,254.509L1036.47,254.624L1036.39,254.737L1036.32,254.851L1036.25,254.964L1036.17,255.076L1036.09,255.188L1036.02,255.3L1035.94,255.411L1035.86,255.521L1035.78,255.631L1035.7,255.741L1035.62,255.85L1035.55,255.959L1035.46,256.067L1035.38,256.174L1035.3,256.281L1035.22,256.388L1035.13,256.494L1035.05,256.599L1034.96,256.704L1034.88,256.809L1034.79,256.913L1034.71,257.016L1034.62,257.119L1034.53,257.221L1034.44,257.323L1034.35,257.424L1034.26,257.525L1034.17,257.625L1034.08,257.725L1033.99,257.824L1033.9,257.922L1033.81,258.02L1033.71,258.118L1033.62,258.215L1033.53,258.311L1033.43,258.407L1033.34,258.502L1033.24,258.597L1033.14,258.691L1033.05,258.784L1032.95,258.877L1032.85,258.969L1032.75,259.061L1032.65,259.152L1032.55,259.243L1032.45,259.332L1032.35,259.422L1032.25,259.511L1032.15,259.599L1032.05,259.686L1031.94,259.773L1031.84,259.859L1031.74,259.945L1031.63,260.03L1031.53,260.115L1031.42,260.198L1031.31,260.282L1031.21,260.364L1031.1,260.446L1030.99,260.528L1030.88,260.608L1030.78,260.688L1030.67,260.768L1030.56,260.847L1030.45,260.925L1030.34,261.002L1030.23,261.079L1030.11,261.155L1030,261.231L1029.89,261.306L1029.78,261.38L1029.66,261.453L1029.55,261.526L1029.43,261.598L1029.32,261.67L1029.2,261.741L1029.09,261.811L1028.97,261.88L1028.86,261.949L1028.74,262.017L1028.62,262.085L1028.5,262.151L1028.38,262.217L1028.27,262.283L1028.15,262.347L1028.03,262.411L1027.91,262.474L1027.79,262.537L1027.66,262.599L1027.54,262.66L1027.42,262.72L1027.3,262.78L1027.18,262.839L1027.05,262.897L1026.93,262.954L1026.81,263.011L1026.68,263.067L1026.56,263.122L1026.43,263.177L1026.31,263.231L1026.18,263.284L1026.06,263.336L1025.93,263.388L1025.8,263.438L1025.67,263.488L1025.55,263.538L1025.42,263.586L1025.29,263.634L1025.16,263.681L1025.03,263.727L1024.9,263.772L1024.77,263.817L1024.64,263.861L1024.51,263.904L1024.38,263.946L1024.25,263.988L1024.12,264.028L1023.98,264.068L1023.85,264.108L1023.72,264.146L1023.59,264.183L1023.45,264.22L1023.32,264.256L1023.18,264.291L1023.05,264.325L1022.92,264.359L1022.78,264.392L1022.64,264.423L1022.51,264.454L1022.37,264.485L1022.24,264.514L1022.1,264.543L1021.96,264.57L1021.83,264.597L1021.69,264.623L1021.55,264.648L1021.41,264.673L1021.27,264.696L1021.14,264.719L1021,264.741L1020.86,264.761L1020.72,264.782L1020.58,264.801L1020.44,264.819L1020.3,264.837L1020.16,264.853L1020.02,264.869L1019.88,264.884L1019.74,264.898L1019.59,264.911L1019.45,264.923L1019.31,264.934L1019.17,264.945L1019.02,264.954L1018.88,264.963L1018.74,264.971L1018.6,264.978L1018.45,264.983L1018.31,264.989L1018.16,264.993L1018.02,264.996L1017.88,264.998L1017.73,265L1017.59,265L906.414,265L906.27,265L906.125,264.998L905.981,264.996L905.836,264.993L905.692,264.989L905.549,264.983L905.405,264.978L905.262,264.971L905.119,264.963L904.976,264.954L904.833,264.945L904.691,264.934L904.549,264.923L904.407,264.911L904.265,264.898L904.124,264.884L903.983,264.869L903.842,264.853L903.702,264.837L903.561,264.819L903.421,264.801L903.282,264.782L903.142,264.761L903.003,264.741L902.864,264.719L902.725,264.696L902.587,264.673L902.449,264.648L902.311,264.623L902.174,264.597L902.036,264.57L901.9,264.543L901.763,264.514L901.627,264.485L901.491,264.454L901.355,264.423L901.22,264.392L901.085,264.359L900.95,264.325L900.816,264.291L900.681,264.256L900.548,264.22L900.414,264.183L900.281,264.146L900.148,264.108L900.016,264.068L899.884,264.028L899.752,263.988L899.621,263.946L899.49,263.904L899.359,263.861L899.229,263.817L899.099,263.772L898.969,263.727L898.84,263.681L898.711,263.634L898.582,263.586L898.454,263.538L898.326,263.488L898.199,263.438L898.072,263.388L897.945,263.336L897.819,263.284L897.693,263.231L897.568,263.177L897.443,263.122L897.318,263.067L897.194,263.011L897.07,262.954L896.946,262.897L896.823,262.839L896.7,262.78L896.578,262.72L896.456,262.66L896.335,262.599L896.214,262.537L896.093,262.474L895.973,262.411L895.853,262.347L895.734,262.283L895.615,262.217L895.497,262.151L895.379,262.085L895.261,262.017L895.144,261.949L895.027,261.88L894.911,261.811L894.795,261.741L894.68,261.67L894.565,261.598L894.451,261.526L894.337,261.453L894.224,261.38L894.111,261.306L893.998,261.231L893.886,261.155L893.774,261.079L893.663,261.002L893.553,260.925L893.443,260.847L893.333,260.768L893.224,260.688L893.115,260.608L893.007,260.528L892.899,260.446L892.792,260.364L892.686,260.282L892.58,260.198L892.474,260.115L892.369,260.03L892.264,259.945L892.16,259.859L892.057,259.773L891.954,259.686L891.851,259.599L891.749,259.511L891.648,259.422L891.547,259.332L891.447,259.243L891.347,259.152L891.248,259.061L891.149,258.969L891.051,258.877L890.953,258.784L890.856,258.691L890.759,258.597L890.664,258.502L890.568,258.407L890.473,258.311L890.379,258.215L890.285,258.118L890.192,258.02L890.1,257.922L890.008,257.824L889.917,257.725L889.826,257.625L889.736,257.525L889.646,257.424L889.557,257.323L889.469,257.221L889.381,257.119L889.294,257.016L889.207,256.913L889.121,256.809L889.036,256.704L888.951,256.599L888.867,256.494L888.783,256.388L888.7,256.281L888.618,256.174L888.536,256.067L888.455,255.959L888.375,255.85L888.295,255.741L888.216,255.631L888.138,255.521L888.06,255.411L887.983,255.3L887.906,255.188L887.83,255.076L887.755,254.964L887.68,254.851L887.607,254.737L887.533,254.624L887.461,254.509L887.389,254.394L887.318,254.279L887.247,254.163L887.177,254.047L887.108,253.931L887.039,253.813L886.971,253.696L886.904,253.578L886.838,253.459L886.772,253.34L886.707,253.221L886.643,253.101L886.579,252.981L886.516,252.861L886.454,252.739L886.392,252.618L886.331,252.496L886.271,252.374L886.212,252.251L886.153,252.128L886.095,252.004L886.038,251.88L885.981,251.756L885.926,251.631L885.87,251.506L885.816,251.38L885.763,251.255L885.71,251.128L885.658,251.001L885.606,250.874L885.556,250.747L885.506,250.619L885.457,250.491L885.409,250.362L885.361,250.233L885.314,250.104L885.268,249.974L885.223,249.844L885.179,249.713L885.135,249.582L885.092,249.451L885.05,249.32L885.008,249.188L884.968,249.055L884.928,248.923L884.889,248.79L884.851,248.657L884.814,248.523L884.777,248.389L884.741,248.255L884.706,248.12L884.672,247.985L884.639,247.85L884.606,247.715L884.574,247.579L884.543,247.443L884.513,247.306L884.484,247.169L884.456,247.032L884.428,246.895L884.401,246.757L884.375,246.619L884.35,246.481L884.326,246.342L884.303,246.203L884.28,246.064L884.258,245.925L884.238,245.785L884.218,245.645L884.198,245.505L884.18,245.364L884.163,245.223L884.146,245.082L884.131,244.941L884.116,244.799L884.102,244.657L884.089,244.515L884.077,244.373L884.065,244.23L884.055,244.087L884.046,243.944L884.037,243.801L884.029,243.657L884.022,243.513L884.016,243.369L884.011,243.225L884.007,243.08L884.004,242.936L884.002,242.791L884,242.645L884,242.5L884,242.355L884.002,242.209L884.004,242.064L884.007,241.92L884.011,241.775L884.016,241.631L884.022,241.487L884.029,241.343L884.037,241.199L884.046,241.056L884.055,240.913L884.065,240.77L884.077,240.627L884.089,240.485L884.102,240.343L884.116,240.201L884.131,240.059L884.146,239.918L884.163,239.777L884.18,239.636L884.198,239.495L884.218,239.355L884.238,239.215L884.258,239.075L884.28,238.936L884.303,238.797L884.326,238.658L884.35,238.519L884.375,238.381L884.401,238.243L884.428,238.105L884.456,237.968L884.484,237.831L884.513,237.694L884.543,237.557L884.574,237.421L884.606,237.285L884.639,237.15L884.672,237.015L884.706,236.88L884.741,236.745L884.777,236.611L884.814,236.477L884.851,236.343L884.889,236.21L884.928,236.077L884.968,235.945L885.008,235.812L885.05,235.68L885.092,235.549L885.135,235.418L885.179,235.287L885.223,235.156L885.268,235.026L885.314,234.896L885.361,234.767L885.409,234.638L885.457,234.509L885.506,234.381L885.556,234.253L885.606,234.126L885.658,233.999L885.71,233.872L885.763,233.745L885.816,233.62L885.87,233.494L885.926,233.369L885.981,233.244L886.038,233.12L886.095,232.996L886.153,232.872L886.212,232.749L886.271,232.626L886.331,232.504L886.392,232.382L886.454,232.261L886.516,232.139L886.579,232.019L886.643,231.899L886.707,231.779L886.772,231.66L886.838,231.541L886.904,231.422L886.971,231.304L887.039,231.187L887.108,231.069L887.177,230.953L887.247,230.837L887.318,230.721L887.389,230.606L887.461,230.491L887.533,230.376L887.607,230.263L887.68,230.149L887.755,230.036L887.83,229.924L887.906,229.812L887.983,229.7L888.06,229.589L888.138,229.479L888.216,229.369L888.295,229.259L888.375,229.15L888.455,229.041L888.536,228.933L888.618,228.826L888.7,228.719L888.783,228.612L888.867,228.506L888.951,228.401L889.036,228.296L889.121,228.191L889.207,228.087L889.294,227.984L889.381,227.881L889.469,227.779L889.557,227.677L889.646,227.576L889.736,227.475L889.826,227.375L889.917,227.275L890.008,227.176L890.1,227.078L890.192,226.98L890.285,226.882L890.379,226.785L890.473,226.689L890.568,226.593L890.664,226.498L890.759,226.403L890.856,226.309L890.953,226.216L891.051,226.123L891.149,226.031L891.248,225.939L891.347,225.848L891.447,225.757L891.547,225.668L891.648,225.578L891.749,225.489L891.851,225.401L891.954,225.314L892.057,225.227L892.16,225.141L892.264,225.055L892.369,224.97L892.474,224.885L892.58,224.802L892.686,224.718L892.792,224.636L892.899,224.554L893.007,224.472L893.115,224.392L893.224,224.312L893.333,224.232L893.443,224.153L893.553,224.075L893.663,223.998L893.774,223.921L893.886,223.845L893.998,223.769L894.111,223.694L894.224,223.62L894.337,223.547L894.451,223.474L894.565,223.402L894.68,223.33L894.795,223.259L894.911,223.189L895.027,223.12L895.144,223.051L895.261,222.983L895.379,222.915L895.497,222.849L895.615,222.783L895.734,222.717L895.853,222.653L895.973,222.589L896.093,222.526L896.214,222.463L896.335,222.401L896.456,222.34L896.578,222.28L896.7,222.22L896.823,222.161L896.946,222.103L897.07,222.046L897.194,221.989L897.318,221.933L897.443,221.878L897.568,221.823L897.693,221.769L897.819,221.716L897.945,221.664L898.072,221.612L898.199,221.562L898.326,221.512L898.454,221.462L898.582,221.414L898.711,221.366L898.84,221.319L898.969,221.273L899.099,221.228L899.229,221.183L899.359,221.139L899.49,221.096L899.621,221.054L899.752,221.012L899.884,220.972L900.016,220.932L900.148,220.892L900.281,220.854L900.414,220.817L900.548,220.78L900.681,220.744L900.816,220.709L900.95,220.675L901.085,220.641L901.22,220.608L901.355,220.577L901.491,220.546L901.627,220.515L901.763,220.486L901.9,220.457L902.036,220.43L902.174,220.403L902.311,220.377L902.449,220.352L902.587,220.327L902.725,220.304L902.864,220.281L903.003,220.259L903.142,220.239L903.282,220.218L903.421,220.199L903.561,220.181L903.702,220.163L903.842,220.147L903.983,220.131L904.124,220.116L904.265,220.102L904.407,220.089L904.549,220.077L904.691,220.066L904.833,220.055L904.976,220.046L905.119,220.037L905.262,220.029L905.405,220.022L905.549,220.017L905.692,220.011L905.836,220.007L905.981,220.004L906.125,220.002L906.27,220L906.414,220L1017.59,220L1017.73,220ZM906.416,220.9L906.275,220.901L906.136,220.902L905.998,220.904L905.859,220.907L905.721,220.911L905.583,220.916L905.445,220.922L905.307,220.928L905.17,220.936L905.033,220.944L904.896,220.953L904.759,220.963L904.623,220.974L904.486,220.986L904.35,220.998L904.215,221.012L904.079,221.026L903.944,221.041L903.809,221.057L903.675,221.074L903.54,221.091L903.406,221.11L903.272,221.129L903.138,221.149L903.005,221.17L902.872,221.192L902.739,221.214L902.607,221.238L902.474,221.262L902.343,221.287L902.211,221.313L902.079,221.339L901.948,221.367L901.818,221.395L901.687,221.424L901.557,221.454L901.427,221.484L901.297,221.515L901.168,221.548L901.039,221.581L900.91,221.614L900.782,221.649L900.654,221.684L900.526,221.72L900.399,221.757L900.272,221.794L900.145,221.833L900.019,221.872L899.893,221.912L899.767,221.952L899.641,221.993L899.516,222.036L899.392,222.078L899.267,222.122L899.143,222.166L899.019,222.211L898.896,222.257L898.773,222.304L898.65,222.351L898.528,222.399L898.406,222.448L898.285,222.497L898.164,222.547L898.043,222.598L897.922,222.65L897.802,222.702L897.683,222.755L897.563,222.809L897.444,222.863L897.326,222.919L897.208,222.974L897.09,223.031L896.973,223.088L896.856,223.146L896.739,223.205L896.623,223.264L896.507,223.324L896.392,223.385L896.277,223.446L896.162,223.508L896.048,223.571L895.934,223.634L895.821,223.698L895.708,223.763L895.596,223.828L895.484,223.894L895.372,223.961L895.261,224.028L895.15,224.096L895.04,224.165L894.93,224.234L894.821,224.304L894.712,224.375L894.604,224.446L894.496,224.518L894.388,224.591L894.281,224.664L894.174,224.737L894.068,224.812L893.962,224.887L893.857,224.963L893.752,225.039L893.648,225.116L893.544,225.193L893.441,225.271L893.338,225.35L893.236,225.429L893.134,225.509L893.032,225.59L892.931,225.671L892.831,225.752L892.731,225.835L892.632,225.918L892.533,226.001L892.434,226.085L892.336,226.17L892.239,226.255L892.142,226.341L892.046,226.427L891.95,226.514L891.855,226.602L891.76,226.69L891.666,226.778L891.572,226.867L891.479,226.957L891.386,227.047L891.294,227.138L891.202,227.23L891.111,227.322L891.021,227.414L890.931,227.507L890.841,227.601L890.752,227.695L890.664,227.789L890.576,227.885L890.489,227.98L890.403,228.076L890.317,228.173L890.231,228.27L890.146,228.368L890.062,228.466L889.978,228.565L889.895,228.665L889.813,228.764L889.731,228.865L889.649,228.965L889.568,229.067L889.488,229.169L889.409,229.271L889.33,229.374L889.251,229.477L889.173,229.581L889.096,229.685L889.02,229.79L888.944,229.895L888.868,230L888.794,230.107L888.719,230.213L888.646,230.32L888.573,230.428L888.501,230.536L888.429,230.644L888.358,230.753L888.288,230.862L888.218,230.972L888.149,231.082L888.081,231.193L888.013,231.304L887.946,231.416L887.88,231.528L887.814,231.64L887.749,231.753L887.684,231.866L887.62,231.98L887.557,232.094L887.495,232.209L887.433,232.324L887.372,232.439L887.311,232.555L887.252,232.671L887.193,232.788L887.134,232.905L887.076,233.022L887.019,233.14L886.963,233.258L886.907,233.377L886.852,233.496L886.798,233.615L886.745,233.735L886.692,233.855L886.64,233.975L886.588,234.096L886.538,234.218L886.488,234.339L886.438,234.461L886.39,234.584L886.342,234.706L886.295,234.829L886.249,234.953L886.203,235.077L886.158,235.201L886.114,235.325L886.07,235.45L886.028,235.576L885.986,235.701L885.945,235.827L885.904,235.953L885.865,236.08L885.826,236.207L885.787,236.334L885.75,236.462L885.713,236.589L885.678,236.718L885.642,236.846L885.608,236.975L885.575,237.104L885.542,237.234L885.51,237.363L885.478,237.494L885.448,237.624L885.418,237.755L885.39,237.886L885.361,238.017L885.334,238.148L885.308,238.28L885.282,238.413L885.257,238.545L885.233,238.678L885.21,238.811L885.187,238.944L885.166,239.078L885.145,239.212L885.125,239.346L885.106,239.48L885.087,239.615L885.07,239.75L885.053,239.885L885.037,240.02L885.022,240.156L885.008,240.292L884.995,240.428L884.982,240.565L884.97,240.701L884.959,240.838L884.95,240.975L884.94,241.113L884.932,241.251L884.925,241.389L884.918,241.527L884.912,241.665L884.908,241.804L884.904,241.942L884.901,242.082L884.898,242.221L884.897,242.36L884.897,242.5L884.897,242.64L884.898,242.779L884.901,242.918L884.904,243.058L884.908,243.196L884.912,243.335L884.918,243.473L884.925,243.611L884.932,243.749L884.94,243.887L884.95,244.025L884.959,244.162L884.97,244.299L884.982,244.435L884.995,244.572L885.008,244.708L885.022,244.844L885.037,244.98L885.053,245.115L885.07,245.25L885.087,245.385L885.106,245.52L885.125,245.654L885.145,245.788L885.166,245.922L885.187,246.056L885.21,246.189L885.233,246.322L885.257,246.455L885.282,246.587L885.308,246.72L885.334,246.852L885.361,246.983L885.39,247.114L885.418,247.245L885.448,247.376L885.478,247.506L885.51,247.637L885.542,247.766L885.575,247.896L885.608,248.025L885.642,248.154L885.678,248.282L885.713,248.411L885.75,248.538L885.787,248.666L885.826,248.793L885.865,248.92L885.904,249.047L885.945,249.173L885.986,249.299L886.028,249.424L886.07,249.55L886.114,249.675L886.158,249.799L886.203,249.923L886.249,250.047L886.295,250.171L886.342,250.294L886.39,250.416L886.438,250.539L886.488,250.661L886.538,250.782L886.588,250.904L886.64,251.025L886.692,251.145L886.745,251.265L886.798,251.385L886.852,251.504L886.907,251.623L886.963,251.742L887.019,251.86L887.076,251.978L887.134,252.095L887.193,252.212L887.252,252.329L887.311,252.445L887.372,252.561L887.433,252.676L887.495,252.791L887.557,252.906L887.62,253.02L887.684,253.134L887.749,253.247L887.814,253.36L887.88,253.472L887.946,253.584L888.013,253.696L888.081,253.807L888.149,253.918L888.218,254.028L888.288,254.138L888.358,254.247L888.429,254.356L888.501,254.464L888.573,254.572L888.646,254.68L888.719,254.787L888.794,254.893L888.868,255L888.944,255.105L889.02,255.21L889.096,255.315L889.173,255.419L889.251,255.523L889.33,255.626L889.409,255.729L889.488,255.831L889.568,255.933L889.649,256.035L889.731,256.135L889.813,256.236L889.895,256.335L889.978,256.435L890.062,256.534L890.146,256.632L890.231,256.73L890.317,256.827L890.403,256.924L890.489,257.02L890.576,257.115L890.664,257.211L890.752,257.305L890.841,257.399L890.931,257.493L891.021,257.586L891.111,257.678L891.202,257.77L891.294,257.862L891.386,257.953L891.479,258.043L891.572,258.133L891.666,258.222L891.76,258.31L891.855,258.398L891.95,258.486L892.046,258.573L892.142,258.659L892.239,258.745L892.336,258.83L892.434,258.915L892.533,258.999L892.632,259.082L892.731,259.165L892.831,259.248L892.931,259.329L893.032,259.41L893.134,259.491L893.236,259.571L893.338,259.65L893.441,259.729L893.544,259.807L893.648,259.884L893.752,259.961L893.857,260.037L893.962,260.113L894.068,260.188L894.174,260.263L894.281,260.336L894.388,260.409L894.496,260.482L894.604,260.554L894.712,260.625L894.821,260.696L894.93,260.766L895.04,260.835L895.15,260.904L895.261,260.972L895.372,261.039L895.484,261.106L895.596,261.172L895.708,261.237L895.821,261.302L895.934,261.366L896.048,261.429L896.162,261.492L896.277,261.554L896.392,261.615L896.507,261.676L896.623,261.736L896.739,261.795L896.856,261.854L896.973,261.912L897.09,261.969L897.208,262.026L897.326,262.081L897.444,262.137L897.563,262.191L897.683,262.245L897.802,262.298L897.922,262.35L898.043,262.402L898.164,262.453L898.285,262.503L898.406,262.552L898.528,262.601L898.65,262.649L898.773,262.696L898.896,262.743L899.019,262.789L899.143,262.834L899.267,262.878L899.392,262.922L899.516,262.964L899.641,263.007L899.767,263.048L899.893,263.088L900.019,263.128L900.145,263.167L900.272,263.206L900.399,263.243L900.526,263.28L900.654,263.316L900.782,263.351L900.91,263.386L901.039,263.419L901.168,263.452L901.297,263.485L901.427,263.516L901.557,263.546L901.687,263.576L901.818,263.605L901.948,263.633L902.079,263.661L902.211,263.687L902.343,263.713L902.474,263.738L902.607,263.762L902.739,263.786L902.872,263.808L903.005,263.83L903.138,263.851L903.272,263.871L903.406,263.89L903.54,263.909L903.675,263.926L903.809,263.943L903.944,263.959L904.079,263.974L904.215,263.988L904.35,264.002L904.486,264.014L904.623,264.026L904.759,264.037L904.896,264.047L905.033,264.056L905.17,264.064L905.307,264.072L905.445,264.078L905.583,264.084L905.721,264.089L905.859,264.093L905.998,264.096L906.136,264.098L906.275,264.099L906.416,264.1L1017.58,264.1L1017.73,264.099L1017.86,264.098L1018,264.096L1018.14,264.093L1018.28,264.089L1018.42,264.084L1018.56,264.078L1018.69,264.072L1018.83,264.064L1018.97,264.056L1019.1,264.047L1019.24,264.037L1019.38,264.026L1019.51,264.014L1019.65,264.002L1019.78,263.988L1019.92,263.974L1020.06,263.959L1020.19,263.943L1020.33,263.926L1020.46,263.909L1020.59,263.89L1020.73,263.871L1020.86,263.851L1021,263.83L1021.13,263.808L1021.26,263.786L1021.39,263.762L1021.53,263.738L1021.66,263.713L1021.79,263.687L1021.92,263.661L1022.05,263.633L1022.18,263.605L1022.31,263.576L1022.44,263.546L1022.57,263.516L1022.7,263.485L1022.83,263.452L1022.96,263.419L1023.09,263.386L1023.22,263.351L1023.35,263.316L1023.47,263.28L1023.6,263.243L1023.73,263.206L1023.86,263.167L1023.98,263.128L1024.11,263.088L1024.23,263.048L1024.36,263.007L1024.48,262.964L1024.61,262.922L1024.73,262.878L1024.86,262.834L1024.98,262.789L1025.1,262.743L1025.23,262.696L1025.35,262.649L1025.47,262.601L1025.59,262.552L1025.71,262.503L1025.84,262.453L1025.96,262.402L1026.08,262.35L1026.2,262.298L1026.32,262.245L1026.44,262.191L1026.56,262.137L1026.67,262.081L1026.79,262.026L1026.91,261.969L1027.03,261.912L1027.14,261.854L1027.26,261.795L1027.38,261.736L1027.49,261.676L1027.61,261.615L1027.72,261.554L1027.84,261.492L1027.95,261.429L1028.07,261.366L1028.18,261.302L1028.29,261.237L1028.4,261.172L1028.52,261.106L1028.63,261.039L1028.74,260.972L1028.85,260.904L1028.96,260.835L1029.07,260.766L1029.18,260.696L1029.29,260.625L1029.4,260.554L1029.5,260.482L1029.61,260.409L1029.72,260.336L1029.83,260.263L1029.93,260.188L1030.04,260.113L1030.14,260.037L1030.25,259.961L1030.35,259.884L1030.46,259.807L1030.56,259.729L1030.66,259.65L1030.76,259.571L1030.87,259.491L1030.97,259.41L1031.07,259.329L1031.17,259.248L1031.27,259.165L1031.37,259.082L1031.47,258.999L1031.57,258.915L1031.66,258.83L1031.76,258.745L1031.86,258.659L1031.95,258.573L1032.05,258.486L1032.14,258.398L1032.24,258.31L1032.33,258.222L1032.43,258.133L1032.52,258.043L1032.61,257.953L1032.71,257.862L1032.8,257.77L1032.89,257.678L1032.98,257.586L1033.07,257.493L1033.16,257.399L1033.25,257.305L1033.34,257.211L1033.42,257.115L1033.51,257.02L1033.6,256.924L1033.68,256.827L1033.77,256.73L1033.85,256.632L1033.94,256.534L1034.02,256.435L1034.11,256.335L1034.19,256.236L1034.27,256.135L1034.35,256.035L1034.43,255.933L1034.51,255.831L1034.59,255.729L1034.67,255.626L1034.75,255.523L1034.83,255.419L1034.9,255.315L1034.98,255.21L1035.06,255.105L1035.13,255L1035.21,254.893L1035.28,254.787L1035.35,254.68L1035.43,254.572L1035.5,254.464L1035.57,254.356L1035.64,254.247L1035.71,254.138L1035.78,254.028L1035.85,253.918L1035.92,253.807L1035.99,253.696L1036.05,253.584L1036.12,253.472L1036.19,253.36L1036.25,253.247L1036.32,253.134L1036.38,253.02L1036.44,252.906L1036.51,252.791L1036.57,252.676L1036.63,252.561L1036.69,252.445L1036.75,252.329L1036.81,252.212L1036.87,252.095L1036.92,251.978L1036.98,251.86L1037.04,251.742L1037.09,251.623L1037.15,251.504L1037.2,251.385L1037.26,251.265L1037.31,251.145L1037.36,251.025L1037.41,250.904L1037.46,250.782L1037.51,250.661L1037.56,250.539L1037.61,250.416L1037.66,250.294L1037.7,250.171L1037.75,250.047L1037.8,249.923L1037.84,249.799L1037.89,249.675L1037.93,249.55L1037.97,249.424L1038.01,249.299L1038.06,249.173L1038.1,249.047L1038.13,248.92L1038.17,248.793L1038.21,248.666L1038.25,248.538L1038.29,248.411L1038.32,248.282L1038.36,248.154L1038.39,248.025L1038.42,247.896L1038.46,247.766L1038.49,247.637L1038.52,247.507L1038.55,247.376L1038.58,247.245L1038.61,247.114L1038.64,246.983L1038.67,246.852L1038.69,246.72L1038.72,246.587L1038.74,246.455L1038.77,246.322L1038.79,246.189L1038.81,246.056L1038.83,245.922L1038.86,245.789L1038.88,245.654L1038.89,245.52L1038.91,245.385L1038.93,245.25L1038.95,245.115L1038.96,244.98L1038.98,244.844L1038.99,244.708L1039.01,244.572L1039.02,244.435L1039.03,244.299L1039.04,244.162L1039.05,244.025L1039.06,243.887L1039.07,243.749L1039.08,243.611L1039.08,243.473L1039.09,243.335L1039.09,243.196L1039.1,243.058L1039.1,242.918L1039.1,242.779L1039.1,242.64L1039.1,242.5L1039.1,242.36L1039.1,242.221L1039.1,242.082L1039.1,241.942L1039.09,241.804L1039.09,241.665L1039.08,241.527L1039.08,241.389L1039.07,241.251L1039.06,241.113L1039.05,240.975L1039.04,240.838L1039.03,240.701L1039.02,240.565L1039.01,240.428L1038.99,240.292L1038.98,240.156L1038.96,240.02L1038.95,239.885L1038.93,239.75L1038.91,239.615L1038.89,239.48L1038.88,239.346L1038.86,239.212L1038.83,239.078L1038.81,238.944L1038.79,238.811L1038.77,238.678L1038.74,238.545L1038.72,238.413L1038.69,238.28L1038.67,238.148L1038.64,238.017L1038.61,237.886L1038.58,237.755L1038.55,237.624L1038.52,237.493L1038.49,237.363L1038.46,237.234L1038.42,237.104L1038.39,236.975L1038.36,236.846L1038.32,236.718L1038.29,236.589L1038.25,236.462L1038.21,236.334L1038.17,236.207L1038.13,236.08L1038.1,235.953L1038.06,235.827L1038.01,235.701L1037.97,235.576L1037.93,235.45L1037.89,235.325L1037.84,235.201L1037.8,235.077L1037.75,234.953L1037.7,234.829L1037.66,234.706L1037.61,234.584L1037.56,234.461L1037.51,234.339L1037.46,234.218L1037.41,234.096L1037.36,233.975L1037.31,233.855L1037.26,233.735L1037.2,233.615L1037.15,233.496L1037.09,233.377L1037.04,233.258L1036.98,233.14L1036.92,233.022L1036.87,232.905L1036.81,232.788L1036.75,232.671L1036.69,232.555L1036.63,232.439L1036.57,232.324L1036.51,232.209L1036.44,232.094L1036.38,231.98L1036.32,231.866L1036.25,231.753L1036.19,231.64L1036.12,231.528L1036.05,231.416L1035.99,231.304L1035.92,231.193L1035.85,231.082L1035.78,230.972L1035.71,230.862L1035.64,230.753L1035.57,230.644L1035.5,230.536L1035.43,230.428L1035.35,230.32L1035.28,230.213L1035.21,230.107L1035.13,230L1035.06,229.895L1034.98,229.79L1034.9,229.685L1034.83,229.581L1034.75,229.477L1034.67,229.374L1034.59,229.271L1034.51,229.169L1034.43,229.067L1034.35,228.965L1034.27,228.865L1034.19,228.764L1034.11,228.665L1034.02,228.565L1033.94,228.466L1033.85,228.368L1033.77,228.27L1033.68,228.173L1033.6,228.076L1033.51,227.98L1033.42,227.885L1033.34,227.789L1033.25,227.695L1033.16,227.601L1033.07,227.507L1032.98,227.414L1032.89,227.322L1032.8,227.23L1032.71,227.138L1032.61,227.047L1032.52,226.957L1032.43,226.867L1032.33,226.778L1032.24,226.69L1032.14,226.602L1032.05,226.514L1031.95,226.427L1031.86,226.341L1031.76,226.255L1031.66,226.17L1031.57,226.085L1031.47,226.001L1031.37,225.918L1031.27,225.835L1031.17,225.752L1031.07,225.671L1030.97,225.59L1030.87,225.509L1030.76,225.429L1030.66,225.35L1030.56,225.271L1030.46,225.193L1030.35,225.116L1030.25,225.039L1030.14,224.963L1030.04,224.887L1029.93,224.812L1029.83,224.737L1029.72,224.664L1029.61,224.591L1029.5,224.518L1029.4,224.446L1029.29,224.375L1029.18,224.304L1029.07,224.234L1028.96,224.165L1028.85,224.096L1028.74,224.028L1028.63,223.961L1028.52,223.894L1028.4,223.828L1028.29,223.763L1028.18,223.698L1028.07,223.634L1027.95,223.571L1027.84,223.508L1027.72,223.446L1027.61,223.385L1027.49,223.324L1027.38,223.264L1027.26,223.205L1027.14,223.146L1027.03,223.088L1026.91,223.031L1026.79,222.974L1026.67,222.919L1026.56,222.863L1026.44,222.809L1026.32,222.755L1026.2,222.702L1026.08,222.65L1025.96,222.598L1025.84,222.547L1025.71,222.497L1025.59,222.448L1025.47,222.399L1025.35,222.351L1025.23,222.304L1025.1,222.257L1024.98,222.211L1024.86,222.166L1024.73,222.122L1024.61,222.078L1024.48,222.036L1024.36,221.993L1024.23,221.952L1024.11,221.912L1023.98,221.872L1023.86,221.833L1023.73,221.794L1023.6,221.757L1023.47,221.72L1023.35,221.684L1023.22,221.649L1023.09,221.614L1022.96,221.581L1022.83,221.548L1022.7,221.515L1022.57,221.484L1022.44,221.454L1022.31,221.424L1022.18,221.395L1022.05,221.367L1021.92,221.339L1021.79,221.313L1021.66,221.287L1021.53,221.262L1021.39,221.238L1021.26,221.214L1021.13,221.192L1021,221.17L1020.86,221.149L1020.73,221.129L1020.59,221.11L1020.46,221.091L1020.33,221.074L1020.19,221.057L1020.06,221.041L1019.92,221.026L1019.78,221.012L1019.65,220.998L1019.51,220.986L1019.38,220.974L1019.24,220.963L1019.1,220.953L1018.97,220.944L1018.83,220.936L1018.69,220.928L1018.56,220.922L1018.42,220.916L1018.28,220.911L1018.14,220.907L1018,220.904L1017.86,220.902L1017.73,220.901L1017.58,220.9L906.416,220.9Z" style="fill:rgb(243,65,80);"/>
    </g>
</svg>
