<?xml version="1.0" encoding="UTF-8" standalone="no"?>
<!DOCTYPE svg PUBLIC "-//W3C//DTD SVG 1.1//EN" "http://www.w3.org/Graphics/SVG/1.1/DTD/svg11.dtd">
<svg width="100%" height="100%" viewBox="0 0 293 84" version="1.1" xmlns="http://www.w3.org/2000/svg" xmlns:xlink="http://www.w3.org/1999/xlink" xml:space="preserve" style="fill-rule:evenodd;clip-rule:evenodd;stroke-linejoin:round;stroke-miterlimit:1.41421;">
    <g id="Turquoise-Button-Rounded-Outline" transform="matrix(1.87362,0,0,1.8665,-610.801,-410.63)">
        <path d="M459.73,220L459.875,220.002L460.019,220.004L460.164,220.007L460.308,220.011L460.451,220.017L460.595,220.022L460.738,220.029L460.881,220.037L461.024,220.046L461.167,220.055L461.309,220.066L461.451,220.077L461.593,220.089L461.735,220.102L461.876,220.116L462.017,220.131L462.158,220.147L462.298,220.163L462.439,220.181L462.579,220.199L462.718,220.218L462.858,220.239L462.997,220.259L463.136,220.281L463.275,220.304L463.413,220.327L463.551,220.352L463.689,220.377L463.826,220.403L463.964,220.43L464.1,220.457L464.237,220.486L464.373,220.515L464.509,220.546L464.645,220.577L464.78,220.608L464.915,220.641L465.05,220.675L465.184,220.709L465.319,220.744L465.452,220.78L465.586,220.817L465.719,220.854L465.852,220.892L465.984,220.932L466.116,220.972L466.248,221.012L466.379,221.054L466.51,221.096L466.641,221.139L466.771,221.183L466.901,221.228L467.031,221.273L467.16,221.319L467.289,221.366L467.418,221.414L467.546,221.462L467.674,221.512L467.801,221.562L467.928,221.612L468.055,221.664L468.181,221.716L468.307,221.769L468.432,221.823L468.557,221.878L468.682,221.933L468.806,221.989L468.93,222.046L469.054,222.103L469.177,222.161L469.3,222.22L469.422,222.28L469.544,222.34L469.665,222.401L469.786,222.463L469.907,222.526L470.027,222.589L470.147,222.653L470.266,222.717L470.385,222.783L470.503,222.849L470.621,222.915L470.739,222.983L470.856,223.051L470.973,223.12L471.089,223.189L471.205,223.259L471.32,223.33L471.435,223.402L471.549,223.474L471.663,223.547L471.776,223.62L471.889,223.694L472.002,223.769L472.114,223.845L472.226,223.921L472.337,223.998L472.447,224.075L472.557,224.153L472.667,224.232L472.776,224.312L472.885,224.392L472.993,224.472L473.101,224.554L473.208,224.636L473.314,224.718L473.42,224.802L473.526,224.885L473.631,224.97L473.736,225.055L473.84,225.141L473.943,225.227L474.046,225.314L474.149,225.401L474.251,225.489L474.352,225.578L474.453,225.668L474.553,225.757L474.653,225.848L474.752,225.939L474.851,226.031L474.949,226.123L475.047,226.216L475.144,226.309L475.241,226.403L475.336,226.498L475.432,226.593L475.527,226.689L475.621,226.785L475.715,226.882L475.808,226.98L475.9,227.078L475.992,227.176L476.083,227.275L476.174,227.375L476.264,227.475L476.354,227.576L476.443,227.677L476.531,227.779L476.619,227.881L476.706,227.984L476.793,228.087L476.879,228.191L476.964,228.296L477.049,228.401L477.133,228.506L477.217,228.612L477.3,228.719L477.382,228.826L477.464,228.933L477.545,229.041L477.625,229.15L477.705,229.259L477.784,229.369L477.862,229.479L477.94,229.589L478.017,229.7L478.094,229.812L478.17,229.924L478.245,230.036L478.32,230.149L478.393,230.263L478.467,230.376L478.539,230.491L478.611,230.606L478.682,230.721L478.753,230.837L478.823,230.953L478.892,231.069L478.961,231.187L479.029,231.304L479.096,231.422L479.162,231.541L479.228,231.66L479.293,231.779L479.357,231.899L479.421,232.019L479.484,232.139L479.546,232.261L479.608,232.382L479.669,232.504L479.729,232.626L479.788,232.749L479.847,232.872L479.905,232.996L479.962,233.12L480.019,233.244L480.074,233.369L480.13,233.494L480.184,233.62L480.237,233.745L480.29,233.872L480.342,233.999L480.394,234.126L480.444,234.253L480.494,234.381L480.543,234.509L480.591,234.638L480.639,234.767L480.686,234.896L480.732,235.026L480.777,235.156L480.821,235.287L480.865,235.418L480.908,235.549L480.95,235.68L480.992,235.812L481.032,235.945L481.072,236.077L481.111,236.21L481.149,236.343L481.186,236.477L481.223,236.611L481.259,236.745L481.294,236.88L481.328,237.015L481.361,237.15L481.394,237.285L481.426,237.421L481.457,237.557L481.487,237.694L481.516,237.831L481.544,237.968L481.572,238.105L481.599,238.243L481.625,238.381L481.65,238.519L481.674,238.658L481.697,238.797L481.72,238.936L481.742,239.075L481.762,239.215L481.782,239.355L481.802,239.495L481.82,239.636L481.837,239.777L481.854,239.918L481.869,240.059L481.884,240.201L481.898,240.343L481.911,240.485L481.923,240.627L481.935,240.77L481.945,240.913L481.954,241.056L481.963,241.199L481.971,241.343L481.978,241.487L481.984,241.631L481.989,241.775L481.993,241.92L481.996,242.064L481.998,242.209L482,242.355L482,242.5L482,242.645L481.998,242.791L481.996,242.936L481.993,243.08L481.989,243.225L481.984,243.369L481.978,243.513L481.971,243.657L481.963,243.801L481.954,243.944L481.945,244.087L481.935,244.23L481.923,244.373L481.911,244.515L481.898,244.657L481.884,244.799L481.869,244.941L481.854,245.082L481.837,245.223L481.82,245.364L481.802,245.505L481.782,245.645L481.762,245.785L481.742,245.925L481.72,246.064L481.697,246.203L481.674,246.342L481.65,246.481L481.625,246.619L481.599,246.757L481.572,246.895L481.544,247.032L481.516,247.169L481.487,247.306L481.457,247.443L481.426,247.579L481.394,247.715L481.361,247.85L481.328,247.985L481.294,248.12L481.259,248.255L481.223,248.389L481.186,248.523L481.149,248.657L481.111,248.79L481.072,248.923L481.032,249.055L480.992,249.188L480.95,249.32L480.908,249.451L480.865,249.582L480.821,249.713L480.777,249.844L480.732,249.974L480.686,250.104L480.639,250.233L480.591,250.362L480.543,250.491L480.494,250.619L480.444,250.747L480.394,250.874L480.342,251.001L480.29,251.128L480.237,251.255L480.184,251.38L480.13,251.506L480.074,251.631L480.019,251.756L479.962,251.88L479.905,252.004L479.847,252.128L479.788,252.251L479.729,252.374L479.669,252.496L479.608,252.618L479.546,252.739L479.484,252.861L479.421,252.981L479.357,253.101L479.293,253.221L479.228,253.34L479.162,253.459L479.096,253.578L479.029,253.696L478.961,253.813L478.892,253.931L478.823,254.047L478.753,254.163L478.682,254.279L478.611,254.394L478.539,254.509L478.467,254.624L478.393,254.737L478.32,254.851L478.245,254.964L478.17,255.076L478.094,255.188L478.017,255.3L477.94,255.411L477.862,255.521L477.784,255.631L477.705,255.741L477.625,255.85L477.545,255.959L477.464,256.067L477.382,256.174L477.3,256.281L477.217,256.388L477.133,256.494L477.049,256.599L476.964,256.704L476.879,256.809L476.793,256.913L476.706,257.016L476.619,257.119L476.531,257.221L476.443,257.323L476.354,257.424L476.264,257.525L476.174,257.625L476.083,257.725L475.992,257.824L475.9,257.922L475.808,258.02L475.715,258.118L475.621,258.215L475.527,258.311L475.432,258.407L475.336,258.502L475.241,258.597L475.144,258.691L475.047,258.784L474.949,258.877L474.851,258.969L474.752,259.061L474.653,259.152L474.553,259.243L474.453,259.332L474.352,259.422L474.251,259.511L474.149,259.599L474.046,259.686L473.943,259.773L473.84,259.859L473.736,259.945L473.631,260.03L473.526,260.115L473.42,260.198L473.314,260.282L473.208,260.364L473.101,260.446L472.993,260.528L472.885,260.608L472.776,260.688L472.667,260.768L472.557,260.847L472.447,260.925L472.337,261.002L472.226,261.079L472.114,261.155L472.002,261.231L471.889,261.306L471.776,261.38L471.663,261.453L471.549,261.526L471.435,261.598L471.32,261.67L471.205,261.741L471.089,261.811L470.973,261.88L470.856,261.949L470.739,262.017L470.621,262.085L470.503,262.151L470.385,262.217L470.266,262.283L470.147,262.347L470.027,262.411L469.907,262.474L469.786,262.537L469.665,262.599L469.544,262.66L469.422,262.72L469.3,262.78L469.177,262.839L469.054,262.897L468.93,262.954L468.806,263.011L468.682,263.067L468.557,263.122L468.432,263.177L468.307,263.231L468.181,263.284L468.055,263.336L467.928,263.388L467.801,263.438L467.674,263.488L467.546,263.538L467.418,263.586L467.289,263.634L467.16,263.681L467.031,263.727L466.901,263.772L466.771,263.817L466.641,263.861L466.51,263.904L466.379,263.946L466.248,263.988L466.116,264.028L465.984,264.068L465.852,264.108L465.719,264.146L465.586,264.183L465.452,264.22L465.319,264.256L465.184,264.291L465.05,264.325L464.915,264.359L464.78,264.392L464.645,264.423L464.509,264.454L464.373,264.485L464.237,264.514L464.1,264.543L463.964,264.57L463.826,264.597L463.689,264.623L463.551,264.648L463.413,264.673L463.275,264.696L463.136,264.719L462.997,264.741L462.858,264.761L462.718,264.782L462.579,264.801L462.439,264.819L462.298,264.837L462.158,264.853L462.017,264.869L461.876,264.884L461.735,264.898L461.593,264.911L461.451,264.923L461.309,264.934L461.167,264.945L461.024,264.954L460.881,264.963L460.738,264.971L460.595,264.978L460.451,264.983L460.308,264.989L460.164,264.993L460.019,264.996L459.875,264.998L459.73,265L459.586,265L348.414,265L348.27,265L348.125,264.998L347.981,264.996L347.836,264.993L347.692,264.989L347.549,264.983L347.405,264.978L347.262,264.971L347.119,264.963L346.976,264.954L346.833,264.945L346.691,264.934L346.549,264.923L346.407,264.911L346.265,264.898L346.124,264.884L345.983,264.869L345.842,264.853L345.702,264.837L345.561,264.819L345.421,264.801L345.282,264.782L345.142,264.761L345.003,264.741L344.864,264.719L344.725,264.696L344.587,264.673L344.449,264.648L344.311,264.623L344.174,264.597L344.036,264.57L343.9,264.543L343.763,264.514L343.627,264.485L343.491,264.454L343.355,264.423L343.22,264.392L343.085,264.359L342.95,264.325L342.816,264.291L342.681,264.256L342.548,264.22L342.414,264.183L342.281,264.146L342.148,264.108L342.016,264.068L341.884,264.028L341.752,263.988L341.621,263.946L341.49,263.904L341.359,263.861L341.229,263.817L341.099,263.772L340.969,263.727L340.84,263.681L340.711,263.634L340.582,263.586L340.454,263.538L340.326,263.488L340.199,263.438L340.072,263.388L339.945,263.336L339.819,263.284L339.693,263.231L339.568,263.177L339.443,263.122L339.318,263.067L339.194,263.011L339.07,262.954L338.946,262.897L338.823,262.839L338.7,262.78L338.578,262.72L338.456,262.66L338.335,262.599L338.214,262.537L338.093,262.474L337.973,262.411L337.853,262.347L337.734,262.283L337.615,262.217L337.497,262.151L337.379,262.085L337.261,262.017L337.144,261.949L337.027,261.88L336.911,261.811L336.795,261.741L336.68,261.67L336.565,261.598L336.451,261.526L336.337,261.453L336.224,261.38L336.111,261.306L335.998,261.231L335.886,261.155L335.774,261.079L335.663,261.002L335.553,260.925L335.443,260.847L335.333,260.768L335.224,260.688L335.115,260.608L335.007,260.528L334.899,260.446L334.792,260.364L334.686,260.282L334.58,260.198L334.474,260.115L334.369,260.03L334.264,259.945L334.16,259.859L334.057,259.773L333.954,259.686L333.851,259.599L333.749,259.511L333.648,259.422L333.547,259.332L333.447,259.243L333.347,259.152L333.248,259.061L333.149,258.969L333.051,258.877L332.953,258.784L332.856,258.691L332.759,258.597L332.664,258.502L332.568,258.407L332.473,258.311L332.379,258.215L332.285,258.118L332.192,258.02L332.1,257.922L332.008,257.824L331.917,257.725L331.826,257.625L331.736,257.525L331.646,257.424L331.557,257.323L331.469,257.221L331.381,257.119L331.294,257.016L331.207,256.913L331.121,256.809L331.036,256.704L330.951,256.599L330.867,256.494L330.783,256.388L330.7,256.281L330.618,256.174L330.536,256.067L330.455,255.959L330.375,255.85L330.295,255.741L330.216,255.631L330.138,255.521L330.06,255.411L329.983,255.3L329.906,255.188L329.83,255.076L329.755,254.964L329.68,254.851L329.607,254.737L329.533,254.624L329.461,254.509L329.389,254.394L329.318,254.279L329.247,254.163L329.177,254.047L329.108,253.931L329.039,253.813L328.971,253.696L328.904,253.578L328.838,253.459L328.772,253.34L328.707,253.221L328.643,253.101L328.579,252.981L328.516,252.861L328.454,252.739L328.392,252.618L328.331,252.496L328.271,252.374L328.212,252.251L328.153,252.128L328.095,252.004L328.038,251.88L327.981,251.756L327.926,251.631L327.87,251.506L327.816,251.38L327.763,251.255L327.71,251.128L327.658,251.001L327.606,250.874L327.556,250.747L327.506,250.619L327.457,250.491L327.409,250.362L327.361,250.233L327.314,250.104L327.268,249.974L327.223,249.844L327.179,249.713L327.135,249.582L327.092,249.451L327.05,249.32L327.008,249.188L326.968,249.055L326.928,248.923L326.889,248.79L326.851,248.657L326.814,248.523L326.777,248.389L326.741,248.255L326.706,248.12L326.672,247.985L326.639,247.85L326.606,247.715L326.574,247.579L326.543,247.443L326.513,247.306L326.484,247.169L326.456,247.032L326.428,246.895L326.401,246.757L326.375,246.619L326.35,246.481L326.326,246.342L326.303,246.203L326.28,246.064L326.258,245.925L326.238,245.785L326.218,245.645L326.198,245.505L326.18,245.364L326.163,245.223L326.146,245.082L326.131,244.941L326.116,244.799L326.102,244.657L326.089,244.515L326.077,244.373L326.065,244.23L326.055,244.087L326.046,243.944L326.037,243.801L326.029,243.657L326.022,243.513L326.016,243.369L326.011,243.225L326.007,243.08L326.004,242.936L326.002,242.791L326,242.645L326,242.5L326,242.355L326.002,242.209L326.004,242.064L326.007,241.92L326.011,241.775L326.016,241.631L326.022,241.487L326.029,241.343L326.037,241.199L326.046,241.056L326.055,240.913L326.065,240.77L326.077,240.627L326.089,240.485L326.102,240.343L326.116,240.201L326.131,240.059L326.146,239.918L326.163,239.777L326.18,239.636L326.198,239.495L326.218,239.355L326.238,239.215L326.258,239.075L326.28,238.936L326.303,238.797L326.326,238.658L326.35,238.519L326.375,238.381L326.401,238.243L326.428,238.105L326.456,237.968L326.484,237.831L326.513,237.694L326.543,237.557L326.574,237.421L326.606,237.285L326.639,237.15L326.672,237.015L326.706,236.88L326.741,236.745L326.777,236.611L326.814,236.477L326.851,236.343L326.889,236.21L326.928,236.077L326.968,235.945L327.008,235.812L327.05,235.68L327.092,235.549L327.135,235.418L327.179,235.287L327.223,235.156L327.268,235.026L327.314,234.896L327.361,234.767L327.409,234.638L327.457,234.509L327.506,234.381L327.556,234.253L327.606,234.126L327.658,233.999L327.71,233.872L327.763,233.745L327.816,233.62L327.87,233.494L327.926,233.369L327.981,233.244L328.038,233.12L328.095,232.996L328.153,232.872L328.212,232.749L328.271,232.626L328.331,232.504L328.392,232.382L328.454,232.261L328.516,232.139L328.579,232.019L328.643,231.899L328.707,231.779L328.772,231.66L328.838,231.541L328.904,231.422L328.971,231.304L329.039,231.187L329.108,231.069L329.177,230.953L329.247,230.837L329.318,230.721L329.389,230.606L329.461,230.491L329.533,230.376L329.607,230.263L329.68,230.149L329.755,230.036L329.83,229.924L329.906,229.812L329.983,229.7L330.06,229.589L330.138,229.479L330.216,229.369L330.295,229.259L330.375,229.15L330.455,229.041L330.536,228.933L330.618,228.826L330.7,228.719L330.783,228.612L330.867,228.506L330.951,228.401L331.036,228.296L331.121,228.191L331.207,228.087L331.294,227.984L331.381,227.881L331.469,227.779L331.557,227.677L331.646,227.576L331.736,227.475L331.826,227.375L331.917,227.275L332.008,227.176L332.1,227.078L332.192,226.98L332.285,226.882L332.379,226.785L332.473,226.689L332.568,226.593L332.664,226.498L332.759,226.403L332.856,226.309L332.953,226.216L333.051,226.123L333.149,226.031L333.248,225.939L333.347,225.848L333.447,225.757L333.547,225.668L333.648,225.578L333.749,225.489L333.851,225.401L333.954,225.314L334.057,225.227L334.16,225.141L334.264,225.055L334.369,224.97L334.474,224.885L334.58,224.802L334.686,224.718L334.792,224.636L334.899,224.554L335.007,224.472L335.115,224.392L335.224,224.312L335.333,224.232L335.443,224.153L335.553,224.075L335.663,223.998L335.774,223.921L335.886,223.845L335.998,223.769L336.111,223.694L336.224,223.62L336.337,223.547L336.451,223.474L336.565,223.402L336.68,223.33L336.795,223.259L336.911,223.189L337.027,223.12L337.144,223.051L337.261,222.983L337.379,222.915L337.497,222.849L337.615,222.783L337.734,222.717L337.853,222.653L337.973,222.589L338.093,222.526L338.214,222.463L338.335,222.401L338.456,222.34L338.578,222.28L338.7,222.22L338.823,222.161L338.946,222.103L339.07,222.046L339.194,221.989L339.318,221.933L339.443,221.878L339.568,221.823L339.693,221.769L339.819,221.716L339.945,221.664L340.072,221.612L340.199,221.562L340.326,221.512L340.454,221.462L340.582,221.414L340.711,221.366L340.84,221.319L340.969,221.273L341.099,221.228L341.229,221.183L341.359,221.139L341.49,221.096L341.621,221.054L341.752,221.012L341.884,220.972L342.016,220.932L342.148,220.892L342.281,220.854L342.414,220.817L342.548,220.78L342.681,220.744L342.816,220.709L342.95,220.675L343.085,220.641L343.22,220.608L343.355,220.577L343.491,220.546L343.627,220.515L343.763,220.486L343.9,220.457L344.036,220.43L344.174,220.403L344.311,220.377L344.449,220.352L344.587,220.327L344.725,220.304L344.864,220.281L345.003,220.259L345.142,220.239L345.282,220.218L345.421,220.199L345.561,220.181L345.702,220.163L345.842,220.147L345.983,220.131L346.124,220.116L346.265,220.102L346.407,220.089L346.549,220.077L346.691,220.066L346.833,220.055L346.976,220.046L347.119,220.037L347.262,220.029L347.405,220.022L347.549,220.017L347.692,220.011L347.836,220.007L347.981,220.004L348.125,220.002L348.27,220L348.414,220L459.586,220L459.73,220ZM348.416,220.9L348.275,220.901L348.136,220.902L347.998,220.904L347.859,220.907L347.721,220.911L347.583,220.916L347.445,220.922L347.307,220.928L347.17,220.936L347.033,220.944L346.896,220.953L346.759,220.963L346.623,220.974L346.486,220.986L346.35,220.998L346.215,221.012L346.079,221.026L345.944,221.041L345.809,221.057L345.675,221.074L345.54,221.091L345.406,221.11L345.272,221.129L345.138,221.149L345.005,221.17L344.872,221.192L344.739,221.214L344.607,221.238L344.474,221.262L344.343,221.287L344.211,221.313L344.079,221.339L343.948,221.367L343.818,221.395L343.687,221.424L343.557,221.454L343.427,221.484L343.297,221.515L343.168,221.548L343.039,221.581L342.91,221.614L342.782,221.649L342.654,221.684L342.526,221.72L342.399,221.757L342.272,221.794L342.145,221.833L342.019,221.872L341.893,221.912L341.767,221.952L341.641,221.993L341.516,222.036L341.392,222.078L341.267,222.122L341.143,222.166L341.019,222.211L340.896,222.257L340.773,222.304L340.65,222.351L340.528,222.399L340.406,222.448L340.285,222.497L340.164,222.547L340.043,222.598L339.922,222.65L339.802,222.702L339.683,222.755L339.563,222.809L339.444,222.863L339.326,222.919L339.208,222.974L339.09,223.031L338.973,223.088L338.856,223.146L338.739,223.205L338.623,223.264L338.507,223.324L338.392,223.385L338.277,223.446L338.162,223.508L338.048,223.571L337.934,223.634L337.821,223.698L337.708,223.763L337.596,223.828L337.484,223.894L337.372,223.961L337.261,224.028L337.15,224.096L337.04,224.165L336.93,224.234L336.821,224.304L336.712,224.375L336.604,224.446L336.496,224.518L336.388,224.591L336.281,224.664L336.174,224.737L336.068,224.812L335.962,224.887L335.857,224.963L335.752,225.039L335.648,225.116L335.544,225.193L335.441,225.271L335.338,225.35L335.236,225.429L335.134,225.509L335.032,225.59L334.931,225.671L334.831,225.752L334.731,225.835L334.632,225.918L334.533,226.001L334.434,226.085L334.336,226.17L334.239,226.255L334.142,226.341L334.046,226.427L333.95,226.514L333.855,226.602L333.76,226.69L333.666,226.778L333.572,226.867L333.479,226.957L333.386,227.047L333.294,227.138L333.202,227.23L333.111,227.322L333.021,227.414L332.931,227.507L332.841,227.601L332.752,227.695L332.664,227.789L332.576,227.885L332.489,227.98L332.403,228.076L332.317,228.173L332.231,228.27L332.146,228.368L332.062,228.466L331.978,228.565L331.895,228.665L331.813,228.764L331.731,228.865L331.649,228.965L331.568,229.067L331.488,229.169L331.409,229.271L331.33,229.374L331.251,229.477L331.173,229.581L331.096,229.685L331.02,229.79L330.944,229.895L330.868,230L330.794,230.107L330.719,230.213L330.646,230.32L330.573,230.428L330.501,230.536L330.429,230.644L330.358,230.753L330.288,230.862L330.218,230.972L330.149,231.082L330.081,231.193L330.013,231.304L329.946,231.416L329.88,231.528L329.814,231.64L329.749,231.753L329.684,231.866L329.62,231.98L329.557,232.094L329.495,232.209L329.433,232.324L329.372,232.439L329.311,232.555L329.252,232.671L329.193,232.788L329.134,232.905L329.076,233.022L329.019,233.14L328.963,233.258L328.907,233.377L328.852,233.496L328.798,233.615L328.745,233.735L328.692,233.855L328.64,233.975L328.588,234.096L328.538,234.218L328.488,234.339L328.438,234.461L328.39,234.584L328.342,234.706L328.295,234.829L328.249,234.953L328.203,235.077L328.158,235.201L328.114,235.325L328.07,235.45L328.028,235.576L327.986,235.701L327.945,235.827L327.904,235.953L327.865,236.08L327.826,236.207L327.787,236.334L327.75,236.462L327.713,236.589L327.678,236.718L327.642,236.846L327.608,236.975L327.575,237.104L327.542,237.234L327.51,237.363L327.478,237.494L327.448,237.624L327.418,237.755L327.39,237.886L327.361,238.017L327.334,238.148L327.308,238.28L327.282,238.413L327.257,238.545L327.233,238.678L327.21,238.811L327.187,238.944L327.166,239.078L327.145,239.212L327.125,239.346L327.106,239.48L327.087,239.615L327.07,239.75L327.053,239.885L327.037,240.02L327.022,240.156L327.008,240.292L326.995,240.428L326.982,240.565L326.97,240.701L326.959,240.838L326.95,240.975L326.94,241.113L326.932,241.251L326.925,241.389L326.918,241.527L326.912,241.665L326.908,241.804L326.904,241.942L326.901,242.082L326.898,242.221L326.897,242.36L326.897,242.5L326.897,242.64L326.898,242.779L326.901,242.918L326.904,243.058L326.908,243.196L326.912,243.335L326.918,243.473L326.925,243.611L326.932,243.749L326.94,243.887L326.95,244.025L326.959,244.162L326.97,244.299L326.982,244.435L326.995,244.572L327.008,244.708L327.022,244.844L327.037,244.98L327.053,245.115L327.07,245.25L327.087,245.385L327.106,245.52L327.125,245.654L327.145,245.788L327.166,245.922L327.187,246.056L327.21,246.189L327.233,246.322L327.257,246.455L327.282,246.587L327.308,246.72L327.334,246.852L327.361,246.983L327.39,247.114L327.418,247.245L327.448,247.376L327.478,247.506L327.51,247.637L327.542,247.766L327.575,247.896L327.608,248.025L327.642,248.154L327.678,248.282L327.713,248.411L327.75,248.538L327.787,248.666L327.826,248.793L327.865,248.92L327.904,249.047L327.945,249.173L327.986,249.299L328.028,249.424L328.07,249.55L328.114,249.675L328.158,249.799L328.203,249.923L328.249,250.047L328.295,250.171L328.342,250.294L328.39,250.416L328.438,250.539L328.488,250.661L328.538,250.782L328.588,250.904L328.64,251.025L328.692,251.145L328.745,251.265L328.798,251.385L328.852,251.504L328.907,251.623L328.963,251.742L329.019,251.86L329.076,251.978L329.134,252.095L329.193,252.212L329.252,252.329L329.311,252.445L329.372,252.561L329.433,252.676L329.495,252.791L329.557,252.906L329.62,253.02L329.684,253.134L329.749,253.247L329.814,253.36L329.88,253.472L329.946,253.584L330.013,253.696L330.081,253.807L330.149,253.918L330.218,254.028L330.288,254.138L330.358,254.247L330.429,254.356L330.501,254.464L330.573,254.572L330.646,254.68L330.719,254.787L330.794,254.893L330.868,255L330.944,255.105L331.02,255.21L331.096,255.315L331.173,255.419L331.251,255.523L331.33,255.626L331.409,255.729L331.488,255.831L331.568,255.933L331.649,256.035L331.731,256.135L331.813,256.236L331.895,256.335L331.978,256.435L332.062,256.534L332.146,256.632L332.231,256.73L332.317,256.827L332.403,256.924L332.489,257.02L332.576,257.115L332.664,257.211L332.752,257.305L332.841,257.399L332.931,257.493L333.021,257.586L333.111,257.678L333.202,257.77L333.294,257.862L333.386,257.953L333.479,258.043L333.572,258.133L333.666,258.222L333.76,258.31L333.855,258.398L333.95,258.486L334.046,258.573L334.142,258.659L334.239,258.745L334.336,258.83L334.434,258.915L334.533,258.999L334.632,259.082L334.731,259.165L334.831,259.248L334.931,259.329L335.032,259.41L335.134,259.491L335.236,259.571L335.338,259.65L335.441,259.729L335.544,259.807L335.648,259.884L335.752,259.961L335.857,260.037L335.962,260.113L336.068,260.188L336.174,260.263L336.281,260.336L336.388,260.409L336.496,260.482L336.604,260.554L336.712,260.625L336.821,260.696L336.93,260.766L337.04,260.835L337.15,260.904L337.261,260.972L337.372,261.039L337.484,261.106L337.596,261.172L337.708,261.237L337.821,261.302L337.934,261.366L338.048,261.429L338.162,261.492L338.277,261.554L338.392,261.615L338.507,261.676L338.623,261.736L338.739,261.795L338.856,261.854L338.973,261.912L339.09,261.969L339.208,262.026L339.326,262.081L339.444,262.137L339.563,262.191L339.683,262.245L339.802,262.298L339.922,262.35L340.043,262.402L340.164,262.453L340.285,262.503L340.406,262.552L340.528,262.601L340.65,262.649L340.773,262.696L340.896,262.743L341.019,262.789L341.143,262.834L341.267,262.878L341.392,262.922L341.516,262.964L341.641,263.007L341.767,263.048L341.893,263.088L342.019,263.128L342.145,263.167L342.272,263.206L342.399,263.243L342.526,263.28L342.654,263.316L342.782,263.351L342.91,263.386L343.039,263.419L343.168,263.452L343.297,263.485L343.427,263.516L343.557,263.546L343.687,263.576L343.818,263.605L343.948,263.633L344.079,263.661L344.211,263.687L344.343,263.713L344.474,263.738L344.607,263.762L344.739,263.786L344.872,263.808L345.005,263.83L345.138,263.851L345.272,263.871L345.406,263.89L345.54,263.909L345.675,263.926L345.809,263.943L345.944,263.959L346.079,263.974L346.215,263.988L346.35,264.002L346.486,264.014L346.623,264.026L346.759,264.037L346.896,264.047L347.033,264.056L347.17,264.064L347.307,264.072L347.445,264.078L347.583,264.084L347.721,264.089L347.859,264.093L347.998,264.096L348.136,264.098L348.275,264.099L348.416,264.1L459.584,264.1L459.725,264.099L459.864,264.098L460.002,264.096L460.141,264.093L460.279,264.089L460.417,264.084L460.555,264.078L460.693,264.072L460.83,264.064L460.967,264.056L461.104,264.047L461.241,264.037L461.377,264.026L461.514,264.014L461.65,264.002L461.785,263.988L461.921,263.974L462.056,263.959L462.191,263.943L462.325,263.926L462.46,263.909L462.594,263.89L462.728,263.871L462.862,263.851L462.995,263.83L463.128,263.808L463.261,263.786L463.393,263.762L463.526,263.738L463.657,263.713L463.789,263.687L463.921,263.661L464.052,263.633L464.182,263.605L464.313,263.576L464.443,263.546L464.573,263.516L464.703,263.485L464.832,263.452L464.961,263.419L465.09,263.386L465.218,263.351L465.346,263.316L465.474,263.28L465.601,263.243L465.728,263.206L465.855,263.167L465.981,263.128L466.107,263.088L466.233,263.048L466.359,263.007L466.484,262.964L466.608,262.922L466.733,262.878L466.857,262.834L466.981,262.789L467.104,262.743L467.227,262.696L467.35,262.649L467.472,262.601L467.594,262.552L467.715,262.503L467.836,262.453L467.957,262.402L468.078,262.35L468.198,262.298L468.317,262.245L468.437,262.191L468.556,262.137L468.674,262.081L468.792,262.026L468.91,261.969L469.027,261.912L469.144,261.854L469.261,261.795L469.377,261.736L469.493,261.676L469.608,261.615L469.723,261.554L469.838,261.492L469.952,261.429L470.066,261.366L470.179,261.302L470.292,261.237L470.404,261.172L470.516,261.106L470.628,261.039L470.739,260.972L470.85,260.904L470.96,260.835L471.07,260.766L471.179,260.696L471.288,260.625L471.396,260.554L471.504,260.482L471.612,260.409L471.719,260.336L471.826,260.263L471.932,260.188L472.038,260.113L472.143,260.037L472.248,259.961L472.352,259.884L472.456,259.807L472.559,259.729L472.662,259.65L472.764,259.571L472.866,259.491L472.968,259.41L473.069,259.329L473.169,259.248L473.269,259.165L473.368,259.082L473.467,258.999L473.566,258.915L473.664,258.83L473.761,258.745L473.858,258.659L473.954,258.573L474.05,258.486L474.145,258.398L474.24,258.31L474.334,258.222L474.428,258.133L474.521,258.043L474.614,257.953L474.706,257.862L474.798,257.77L474.889,257.678L474.979,257.586L475.069,257.493L475.159,257.399L475.248,257.305L475.336,257.211L475.424,257.115L475.511,257.02L475.597,256.924L475.683,256.827L475.769,256.73L475.854,256.632L475.938,256.534L476.022,256.435L476.105,256.335L476.187,256.236L476.269,256.135L476.351,256.035L476.432,255.933L476.512,255.831L476.591,255.729L476.67,255.626L476.749,255.523L476.827,255.419L476.904,255.315L476.98,255.21L477.056,255.105L477.132,255L477.206,254.893L477.281,254.787L477.354,254.68L477.427,254.572L477.499,254.464L477.571,254.356L477.642,254.247L477.712,254.138L477.782,254.028L477.851,253.918L477.919,253.807L477.987,253.696L478.054,253.584L478.12,253.472L478.186,253.36L478.251,253.247L478.316,253.134L478.38,253.02L478.443,252.906L478.505,252.791L478.567,252.676L478.628,252.561L478.689,252.445L478.748,252.329L478.807,252.212L478.866,252.095L478.924,251.978L478.981,251.86L479.037,251.742L479.093,251.623L479.148,251.504L479.202,251.385L479.255,251.265L479.308,251.145L479.36,251.025L479.412,250.904L479.462,250.782L479.512,250.661L479.562,250.539L479.61,250.416L479.658,250.294L479.705,250.171L479.751,250.047L479.797,249.923L479.842,249.799L479.886,249.675L479.93,249.55L479.972,249.424L480.014,249.299L480.055,249.173L480.096,249.047L480.135,248.92L480.174,248.793L480.213,248.666L480.25,248.538L480.287,248.411L480.322,248.282L480.358,248.154L480.392,248.025L480.425,247.896L480.458,247.766L480.49,247.637L480.522,247.507L480.552,247.376L480.582,247.245L480.611,247.114L480.639,246.983L480.666,246.852L480.692,246.72L480.718,246.587L480.743,246.455L480.767,246.322L480.79,246.189L480.813,246.056L480.834,245.922L480.855,245.789L480.875,245.654L480.894,245.52L480.913,245.385L480.93,245.25L480.947,245.115L480.963,244.98L480.978,244.844L480.992,244.708L481.005,244.572L481.018,244.435L481.03,244.299L481.041,244.162L481.05,244.025L481.06,243.887L481.068,243.749L481.075,243.611L481.082,243.473L481.088,243.335L481.092,243.196L481.096,243.058L481.099,242.918L481.102,242.779L481.103,242.64L481.103,242.5L481.103,242.36L481.102,242.221L481.099,242.082L481.096,241.942L481.092,241.804L481.088,241.665L481.082,241.527L481.075,241.389L481.068,241.251L481.06,241.113L481.05,240.975L481.041,240.838L481.03,240.701L481.018,240.565L481.005,240.428L480.992,240.292L480.978,240.156L480.963,240.02L480.947,239.885L480.93,239.75L480.913,239.615L480.894,239.48L480.875,239.346L480.855,239.212L480.834,239.078L480.813,238.944L480.79,238.811L480.767,238.678L480.743,238.545L480.718,238.413L480.692,238.28L480.666,238.148L480.639,238.017L480.611,237.886L480.582,237.755L480.552,237.624L480.522,237.493L480.49,237.363L480.458,237.234L480.425,237.104L480.392,236.975L480.358,236.846L480.322,236.718L480.287,236.589L480.25,236.462L480.213,236.334L480.174,236.207L480.135,236.08L480.096,235.953L480.055,235.827L480.014,235.701L479.972,235.576L479.93,235.45L479.886,235.325L479.842,235.201L479.797,235.077L479.751,234.953L479.705,234.829L479.658,234.706L479.61,234.584L479.562,234.461L479.512,234.339L479.462,234.218L479.412,234.096L479.36,233.975L479.308,233.855L479.255,233.735L479.202,233.615L479.148,233.496L479.093,233.377L479.037,233.258L478.981,233.14L478.924,233.022L478.866,232.905L478.807,232.788L478.748,232.671L478.689,232.555L478.628,232.439L478.567,232.324L478.505,232.209L478.443,232.094L478.38,231.98L478.316,231.866L478.251,231.753L478.186,231.64L478.12,231.528L478.054,231.416L477.987,231.304L477.919,231.193L477.851,231.082L477.782,230.972L477.712,230.862L477.642,230.753L477.571,230.644L477.499,230.536L477.427,230.428L477.354,230.32L477.281,230.213L477.206,230.107L477.132,230L477.056,229.895L476.98,229.79L476.904,229.685L476.827,229.581L476.749,229.477L476.67,229.374L476.591,229.271L476.512,229.169L476.432,229.067L476.351,228.965L476.269,228.865L476.187,228.764L476.105,228.665L476.022,228.565L475.938,228.466L475.854,228.368L475.769,228.27L475.683,228.173L475.597,228.076L475.511,227.98L475.424,227.885L475.336,227.789L475.248,227.695L475.159,227.601L475.069,227.507L474.979,227.414L474.889,227.322L474.798,227.23L474.706,227.138L474.614,227.047L474.521,226.957L474.428,226.867L474.334,226.778L474.24,226.69L474.145,226.602L474.05,226.514L473.954,226.427L473.858,226.341L473.761,226.255L473.664,226.17L473.566,226.085L473.467,226.001L473.368,225.918L473.269,225.835L473.169,225.752L473.069,225.671L472.968,225.59L472.866,225.509L472.764,225.429L472.662,225.35L472.559,225.271L472.456,225.193L472.352,225.116L472.248,225.039L472.143,224.963L472.038,224.887L471.932,224.812L471.826,224.737L471.719,224.664L471.612,224.591L471.504,224.518L471.396,224.446L471.288,224.375L471.179,224.304L471.07,224.234L470.96,224.165L470.85,224.096L470.739,224.028L470.628,223.961L470.516,223.894L470.404,223.828L470.292,223.763L470.179,223.698L470.066,223.634L469.952,223.571L469.838,223.508L469.723,223.446L469.608,223.385L469.493,223.324L469.377,223.264L469.261,223.205L469.144,223.146L469.027,223.088L468.91,223.031L468.792,222.974L468.674,222.919L468.556,222.863L468.437,222.809L468.317,222.755L468.198,222.702L468.078,222.65L467.957,222.598L467.836,222.547L467.715,222.497L467.594,222.448L467.472,222.399L467.35,222.351L467.227,222.304L467.104,222.257L466.981,222.211L466.857,222.166L466.733,222.122L466.608,222.078L466.484,222.036L466.359,221.993L466.233,221.952L466.107,221.912L465.981,221.872L465.855,221.833L465.728,221.794L465.601,221.757L465.474,221.72L465.346,221.684L465.218,221.649L465.09,221.614L464.961,221.581L464.832,221.548L464.703,221.515L464.573,221.484L464.443,221.454L464.313,221.424L464.182,221.395L464.052,221.367L463.921,221.339L463.789,221.313L463.657,221.287L463.526,221.262L463.393,221.238L463.261,221.214L463.128,221.192L462.995,221.17L462.862,221.149L462.728,221.129L462.594,221.11L462.46,221.091L462.325,221.074L462.191,221.057L462.056,221.041L461.921,221.026L461.785,221.012L461.65,220.998L461.514,220.986L461.377,220.974L461.241,220.963L461.104,220.953L460.967,220.944L460.83,220.936L460.693,220.928L460.555,220.922L460.417,220.916L460.279,220.911L460.141,220.907L460.002,220.904L459.864,220.902L459.725,220.901L459.584,220.9L348.416,220.9Z" style="fill:rgb(3,188,189);"/>
    </g>
</svg>
