<?xml version="1.0" encoding="UTF-8" standalone="no"?>
<!DOCTYPE svg PUBLIC "-//W3C//DTD SVG 1.1//EN" "http://www.w3.org/Graphics/SVG/1.1/DTD/svg11.dtd">
<svg width="100%" height="100%" viewBox="0 0 293 84" version="1.1" xmlns="http://www.w3.org/2000/svg" xmlns:xlink="http://www.w3.org/1999/xlink" xml:space="preserve" style="fill-rule:evenodd;clip-rule:evenodd;stroke-linejoin:round;stroke-miterlimit:1.41421;">
    <g id="Yellow-Button-Rounded-Outline" transform="matrix(1.87362,0,0,1.8665,-959.295,-410.63)">
        <path d="M645.73,220L645.875,220.002L646.019,220.004L646.164,220.007L646.308,220.011L646.451,220.017L646.595,220.022L646.738,220.029L646.881,220.037L647.024,220.046L647.167,220.055L647.309,220.066L647.451,220.077L647.593,220.089L647.735,220.102L647.876,220.116L648.017,220.131L648.158,220.147L648.298,220.163L648.439,220.181L648.579,220.199L648.718,220.218L648.858,220.239L648.997,220.259L649.136,220.281L649.275,220.304L649.413,220.327L649.551,220.352L649.689,220.377L649.826,220.403L649.964,220.43L650.1,220.457L650.237,220.486L650.373,220.515L650.509,220.546L650.645,220.577L650.78,220.608L650.915,220.641L651.05,220.675L651.184,220.709L651.319,220.744L651.452,220.78L651.586,220.817L651.719,220.854L651.852,220.892L651.984,220.932L652.116,220.972L652.248,221.012L652.379,221.054L652.51,221.096L652.641,221.139L652.771,221.183L652.901,221.228L653.031,221.273L653.16,221.319L653.289,221.366L653.418,221.414L653.546,221.462L653.674,221.512L653.801,221.562L653.928,221.612L654.055,221.664L654.181,221.716L654.307,221.769L654.432,221.823L654.557,221.878L654.682,221.933L654.806,221.989L654.93,222.046L655.054,222.103L655.177,222.161L655.3,222.22L655.422,222.28L655.544,222.34L655.665,222.401L655.786,222.463L655.907,222.526L656.027,222.589L656.147,222.653L656.266,222.717L656.385,222.783L656.503,222.849L656.621,222.915L656.739,222.983L656.856,223.051L656.973,223.12L657.089,223.189L657.205,223.259L657.32,223.33L657.435,223.402L657.549,223.474L657.663,223.547L657.776,223.62L657.889,223.694L658.002,223.769L658.114,223.845L658.226,223.921L658.337,223.998L658.447,224.075L658.557,224.153L658.667,224.232L658.776,224.312L658.885,224.392L658.993,224.472L659.101,224.554L659.208,224.636L659.314,224.718L659.42,224.802L659.526,224.885L659.631,224.97L659.736,225.055L659.84,225.141L659.943,225.227L660.046,225.314L660.149,225.401L660.251,225.489L660.352,225.578L660.453,225.668L660.553,225.757L660.653,225.848L660.752,225.939L660.851,226.031L660.949,226.123L661.047,226.216L661.144,226.309L661.241,226.403L661.336,226.498L661.432,226.593L661.527,226.689L661.621,226.785L661.715,226.882L661.808,226.98L661.9,227.078L661.992,227.176L662.083,227.275L662.174,227.375L662.264,227.475L662.354,227.576L662.443,227.677L662.531,227.779L662.619,227.881L662.706,227.984L662.793,228.087L662.879,228.191L662.964,228.296L663.049,228.401L663.133,228.506L663.217,228.612L663.3,228.719L663.382,228.826L663.464,228.933L663.545,229.041L663.625,229.15L663.705,229.259L663.784,229.369L663.862,229.479L663.94,229.589L664.017,229.7L664.094,229.812L664.17,229.924L664.245,230.036L664.32,230.149L664.393,230.263L664.467,230.376L664.539,230.491L664.611,230.606L664.682,230.721L664.753,230.837L664.823,230.953L664.892,231.069L664.961,231.187L665.029,231.304L665.096,231.422L665.162,231.541L665.228,231.66L665.293,231.779L665.357,231.899L665.421,232.019L665.484,232.139L665.546,232.261L665.608,232.382L665.669,232.504L665.729,232.626L665.788,232.749L665.847,232.872L665.905,232.996L665.962,233.12L666.019,233.244L666.074,233.369L666.13,233.494L666.184,233.62L666.237,233.745L666.29,233.872L666.342,233.999L666.394,234.126L666.444,234.253L666.494,234.381L666.543,234.509L666.591,234.638L666.639,234.767L666.686,234.896L666.732,235.026L666.777,235.156L666.821,235.287L666.865,235.418L666.908,235.549L666.95,235.68L666.992,235.812L667.032,235.945L667.072,236.077L667.111,236.21L667.149,236.343L667.186,236.477L667.223,236.611L667.259,236.745L667.294,236.88L667.328,237.015L667.361,237.15L667.394,237.285L667.426,237.421L667.457,237.557L667.487,237.694L667.516,237.831L667.544,237.968L667.572,238.105L667.599,238.243L667.625,238.381L667.65,238.519L667.674,238.658L667.697,238.797L667.72,238.936L667.742,239.075L667.762,239.215L667.782,239.355L667.802,239.495L667.82,239.636L667.837,239.777L667.854,239.918L667.869,240.059L667.884,240.201L667.898,240.343L667.911,240.485L667.923,240.627L667.935,240.77L667.945,240.913L667.954,241.056L667.963,241.199L667.971,241.343L667.978,241.487L667.984,241.631L667.989,241.775L667.993,241.92L667.996,242.064L667.998,242.209L668,242.355L668,242.5L668,242.645L667.998,242.791L667.996,242.936L667.993,243.08L667.989,243.225L667.984,243.369L667.978,243.513L667.971,243.657L667.963,243.801L667.954,243.944L667.945,244.087L667.935,244.23L667.923,244.373L667.911,244.515L667.898,244.657L667.884,244.799L667.869,244.941L667.854,245.082L667.837,245.223L667.82,245.364L667.802,245.505L667.782,245.645L667.762,245.785L667.742,245.925L667.72,246.064L667.697,246.203L667.674,246.342L667.65,246.481L667.625,246.619L667.599,246.757L667.572,246.895L667.544,247.032L667.516,247.169L667.487,247.306L667.457,247.443L667.426,247.579L667.394,247.715L667.361,247.85L667.328,247.985L667.294,248.12L667.259,248.255L667.223,248.389L667.186,248.523L667.149,248.657L667.111,248.79L667.072,248.923L667.032,249.055L666.992,249.188L666.95,249.32L666.908,249.451L666.865,249.582L666.821,249.713L666.777,249.844L666.732,249.974L666.686,250.104L666.639,250.233L666.591,250.362L666.543,250.491L666.494,250.619L666.444,250.747L666.394,250.874L666.342,251.001L666.29,251.128L666.237,251.255L666.184,251.38L666.13,251.506L666.074,251.631L666.019,251.756L665.962,251.88L665.905,252.004L665.847,252.128L665.788,252.251L665.729,252.374L665.669,252.496L665.608,252.618L665.546,252.739L665.484,252.861L665.421,252.981L665.357,253.101L665.293,253.221L665.228,253.34L665.162,253.459L665.096,253.578L665.029,253.696L664.961,253.813L664.892,253.931L664.823,254.047L664.753,254.163L664.682,254.279L664.611,254.394L664.539,254.509L664.467,254.624L664.393,254.737L664.32,254.851L664.245,254.964L664.17,255.076L664.094,255.188L664.017,255.3L663.94,255.411L663.862,255.521L663.784,255.631L663.705,255.741L663.625,255.85L663.545,255.959L663.464,256.067L663.382,256.174L663.3,256.281L663.217,256.388L663.133,256.494L663.049,256.599L662.964,256.704L662.879,256.809L662.793,256.913L662.706,257.016L662.619,257.119L662.531,257.221L662.443,257.323L662.354,257.424L662.264,257.525L662.174,257.625L662.083,257.725L661.992,257.824L661.9,257.922L661.808,258.02L661.715,258.118L661.621,258.215L661.527,258.311L661.432,258.407L661.336,258.502L661.241,258.597L661.144,258.691L661.047,258.784L660.949,258.877L660.851,258.969L660.752,259.061L660.653,259.152L660.553,259.243L660.453,259.332L660.352,259.422L660.251,259.511L660.149,259.599L660.046,259.686L659.943,259.773L659.84,259.859L659.736,259.945L659.631,260.03L659.526,260.115L659.42,260.198L659.314,260.282L659.208,260.364L659.101,260.446L658.993,260.528L658.885,260.608L658.776,260.688L658.667,260.768L658.557,260.847L658.447,260.925L658.337,261.002L658.226,261.079L658.114,261.155L658.002,261.231L657.889,261.306L657.776,261.38L657.663,261.453L657.549,261.526L657.435,261.598L657.32,261.67L657.205,261.741L657.089,261.811L656.973,261.88L656.856,261.949L656.739,262.017L656.621,262.085L656.503,262.151L656.385,262.217L656.266,262.283L656.147,262.347L656.027,262.411L655.907,262.474L655.786,262.537L655.665,262.599L655.544,262.66L655.422,262.72L655.3,262.78L655.177,262.839L655.054,262.897L654.93,262.954L654.806,263.011L654.682,263.067L654.557,263.122L654.432,263.177L654.307,263.231L654.181,263.284L654.055,263.336L653.928,263.388L653.801,263.438L653.674,263.488L653.546,263.538L653.418,263.586L653.289,263.634L653.16,263.681L653.031,263.727L652.901,263.772L652.771,263.817L652.641,263.861L652.51,263.904L652.379,263.946L652.248,263.988L652.116,264.028L651.984,264.068L651.852,264.108L651.719,264.146L651.586,264.183L651.452,264.22L651.319,264.256L651.184,264.291L651.05,264.325L650.915,264.359L650.78,264.392L650.645,264.423L650.509,264.454L650.373,264.485L650.237,264.514L650.1,264.543L649.964,264.57L649.826,264.597L649.689,264.623L649.551,264.648L649.413,264.673L649.275,264.696L649.136,264.719L648.997,264.741L648.858,264.761L648.718,264.782L648.579,264.801L648.439,264.819L648.298,264.837L648.158,264.853L648.017,264.869L647.876,264.884L647.735,264.898L647.593,264.911L647.451,264.923L647.309,264.934L647.167,264.945L647.024,264.954L646.881,264.963L646.738,264.971L646.595,264.978L646.451,264.983L646.308,264.989L646.164,264.993L646.019,264.996L645.875,264.998L645.73,265L645.586,265L534.414,265L534.27,265L534.125,264.998L533.981,264.996L533.836,264.993L533.692,264.989L533.549,264.983L533.405,264.978L533.262,264.971L533.119,264.963L532.976,264.954L532.833,264.945L532.691,264.934L532.549,264.923L532.407,264.911L532.265,264.898L532.124,264.884L531.983,264.869L531.842,264.853L531.702,264.837L531.561,264.819L531.421,264.801L531.282,264.782L531.142,264.761L531.003,264.741L530.864,264.719L530.725,264.696L530.587,264.673L530.449,264.648L530.311,264.623L530.174,264.597L530.036,264.57L529.9,264.543L529.763,264.514L529.627,264.485L529.491,264.454L529.355,264.423L529.22,264.392L529.085,264.359L528.95,264.325L528.816,264.291L528.681,264.256L528.548,264.22L528.414,264.183L528.281,264.146L528.148,264.108L528.016,264.068L527.884,264.028L527.752,263.988L527.621,263.946L527.49,263.904L527.359,263.861L527.229,263.817L527.099,263.772L526.969,263.727L526.84,263.681L526.711,263.634L526.582,263.586L526.454,263.538L526.326,263.488L526.199,263.438L526.072,263.388L525.945,263.336L525.819,263.284L525.693,263.231L525.568,263.177L525.443,263.122L525.318,263.067L525.194,263.011L525.07,262.954L524.946,262.897L524.823,262.839L524.7,262.78L524.578,262.72L524.456,262.66L524.335,262.599L524.214,262.537L524.093,262.474L523.973,262.411L523.853,262.347L523.734,262.283L523.615,262.217L523.497,262.151L523.379,262.085L523.261,262.017L523.144,261.949L523.027,261.88L522.911,261.811L522.795,261.741L522.68,261.67L522.565,261.598L522.451,261.526L522.337,261.453L522.224,261.38L522.111,261.306L521.998,261.231L521.886,261.155L521.774,261.079L521.663,261.002L521.553,260.925L521.443,260.847L521.333,260.768L521.224,260.688L521.115,260.608L521.007,260.528L520.899,260.446L520.792,260.364L520.686,260.282L520.58,260.198L520.474,260.115L520.369,260.03L520.264,259.945L520.16,259.859L520.057,259.773L519.954,259.686L519.851,259.599L519.749,259.511L519.648,259.422L519.547,259.332L519.447,259.243L519.347,259.152L519.248,259.061L519.149,258.969L519.051,258.877L518.953,258.784L518.856,258.691L518.759,258.597L518.664,258.502L518.568,258.407L518.473,258.311L518.379,258.215L518.285,258.118L518.192,258.02L518.1,257.922L518.008,257.824L517.917,257.725L517.826,257.625L517.736,257.525L517.646,257.424L517.557,257.323L517.469,257.221L517.381,257.119L517.294,257.016L517.207,256.913L517.121,256.809L517.036,256.704L516.951,256.599L516.867,256.494L516.783,256.388L516.7,256.281L516.618,256.174L516.536,256.067L516.455,255.959L516.375,255.85L516.295,255.741L516.216,255.631L516.138,255.521L516.06,255.411L515.983,255.3L515.906,255.188L515.83,255.076L515.755,254.964L515.68,254.851L515.607,254.737L515.533,254.624L515.461,254.509L515.389,254.394L515.318,254.279L515.247,254.163L515.177,254.047L515.108,253.931L515.039,253.813L514.971,253.696L514.904,253.578L514.838,253.459L514.772,253.34L514.707,253.221L514.643,253.101L514.579,252.981L514.516,252.861L514.454,252.739L514.392,252.618L514.331,252.496L514.271,252.374L514.212,252.251L514.153,252.128L514.095,252.004L514.038,251.88L513.981,251.756L513.926,251.631L513.87,251.506L513.816,251.38L513.763,251.255L513.71,251.128L513.658,251.001L513.606,250.874L513.556,250.747L513.506,250.619L513.457,250.491L513.409,250.362L513.361,250.233L513.314,250.104L513.268,249.974L513.223,249.844L513.179,249.713L513.135,249.582L513.092,249.451L513.05,249.32L513.008,249.188L512.968,249.055L512.928,248.923L512.889,248.79L512.851,248.657L512.814,248.523L512.777,248.389L512.741,248.255L512.706,248.12L512.672,247.985L512.639,247.85L512.606,247.715L512.574,247.579L512.543,247.443L512.513,247.306L512.484,247.169L512.456,247.032L512.428,246.895L512.401,246.757L512.375,246.619L512.35,246.481L512.326,246.342L512.303,246.203L512.28,246.064L512.258,245.925L512.238,245.785L512.218,245.645L512.198,245.505L512.18,245.364L512.163,245.223L512.146,245.082L512.131,244.941L512.116,244.799L512.102,244.657L512.089,244.515L512.077,244.373L512.065,244.23L512.055,244.087L512.046,243.944L512.037,243.801L512.029,243.657L512.022,243.513L512.016,243.369L512.011,243.225L512.007,243.08L512.004,242.936L512.002,242.791L512,242.645L512,242.5L512,242.355L512.002,242.209L512.004,242.064L512.007,241.92L512.011,241.775L512.016,241.631L512.022,241.487L512.029,241.343L512.037,241.199L512.046,241.056L512.055,240.913L512.065,240.77L512.077,240.627L512.089,240.485L512.102,240.343L512.116,240.201L512.131,240.059L512.146,239.918L512.163,239.777L512.18,239.636L512.198,239.495L512.218,239.355L512.238,239.215L512.258,239.075L512.28,238.936L512.303,238.797L512.326,238.658L512.35,238.519L512.375,238.381L512.401,238.243L512.428,238.105L512.456,237.968L512.484,237.831L512.513,237.694L512.543,237.557L512.574,237.421L512.606,237.285L512.639,237.15L512.672,237.015L512.706,236.88L512.741,236.745L512.777,236.611L512.814,236.477L512.851,236.343L512.889,236.21L512.928,236.077L512.968,235.945L513.008,235.812L513.05,235.68L513.092,235.549L513.135,235.418L513.179,235.287L513.223,235.156L513.268,235.026L513.314,234.896L513.361,234.767L513.409,234.638L513.457,234.509L513.506,234.381L513.556,234.253L513.606,234.126L513.658,233.999L513.71,233.872L513.763,233.745L513.816,233.62L513.87,233.494L513.926,233.369L513.981,233.244L514.038,233.12L514.095,232.996L514.153,232.872L514.212,232.749L514.271,232.626L514.331,232.504L514.392,232.382L514.454,232.261L514.516,232.139L514.579,232.019L514.643,231.899L514.707,231.779L514.772,231.66L514.838,231.541L514.904,231.422L514.971,231.304L515.039,231.187L515.108,231.069L515.177,230.953L515.247,230.837L515.318,230.721L515.389,230.606L515.461,230.491L515.533,230.376L515.607,230.263L515.68,230.149L515.755,230.036L515.83,229.924L515.906,229.812L515.983,229.7L516.06,229.589L516.138,229.479L516.216,229.369L516.295,229.259L516.375,229.15L516.455,229.041L516.536,228.933L516.618,228.826L516.7,228.719L516.783,228.612L516.867,228.506L516.951,228.401L517.036,228.296L517.121,228.191L517.207,228.087L517.294,227.984L517.381,227.881L517.469,227.779L517.557,227.677L517.646,227.576L517.736,227.475L517.826,227.375L517.917,227.275L518.008,227.176L518.1,227.078L518.192,226.98L518.285,226.882L518.379,226.785L518.473,226.689L518.568,226.593L518.664,226.498L518.759,226.403L518.856,226.309L518.953,226.216L519.051,226.123L519.149,226.031L519.248,225.939L519.347,225.848L519.447,225.757L519.547,225.668L519.648,225.578L519.749,225.489L519.851,225.401L519.954,225.314L520.057,225.227L520.16,225.141L520.264,225.055L520.369,224.97L520.474,224.885L520.58,224.802L520.686,224.718L520.792,224.636L520.899,224.554L521.007,224.472L521.115,224.392L521.224,224.312L521.333,224.232L521.443,224.153L521.553,224.075L521.663,223.998L521.774,223.921L521.886,223.845L521.998,223.769L522.111,223.694L522.224,223.62L522.337,223.547L522.451,223.474L522.565,223.402L522.68,223.33L522.795,223.259L522.911,223.189L523.027,223.12L523.144,223.051L523.261,222.983L523.379,222.915L523.497,222.849L523.615,222.783L523.734,222.717L523.853,222.653L523.973,222.589L524.093,222.526L524.214,222.463L524.335,222.401L524.456,222.34L524.578,222.28L524.7,222.22L524.823,222.161L524.946,222.103L525.07,222.046L525.194,221.989L525.318,221.933L525.443,221.878L525.568,221.823L525.693,221.769L525.819,221.716L525.945,221.664L526.072,221.612L526.199,221.562L526.326,221.512L526.454,221.462L526.582,221.414L526.711,221.366L526.84,221.319L526.969,221.273L527.099,221.228L527.229,221.183L527.359,221.139L527.49,221.096L527.621,221.054L527.752,221.012L527.884,220.972L528.016,220.932L528.148,220.892L528.281,220.854L528.414,220.817L528.548,220.78L528.681,220.744L528.816,220.709L528.95,220.675L529.085,220.641L529.22,220.608L529.355,220.577L529.491,220.546L529.627,220.515L529.763,220.486L529.9,220.457L530.036,220.43L530.174,220.403L530.311,220.377L530.449,220.352L530.587,220.327L530.725,220.304L530.864,220.281L531.003,220.259L531.142,220.239L531.282,220.218L531.421,220.199L531.561,220.181L531.702,220.163L531.842,220.147L531.983,220.131L532.124,220.116L532.265,220.102L532.407,220.089L532.549,220.077L532.691,220.066L532.833,220.055L532.976,220.046L533.119,220.037L533.262,220.029L533.405,220.022L533.549,220.017L533.692,220.011L533.836,220.007L533.981,220.004L534.125,220.002L534.27,220L534.414,220L645.586,220L645.73,220ZM534.416,220.9L534.275,220.901L534.136,220.902L533.998,220.904L533.859,220.907L533.721,220.911L533.583,220.916L533.445,220.922L533.307,220.928L533.17,220.936L533.033,220.944L532.896,220.953L532.759,220.963L532.623,220.974L532.486,220.986L532.35,220.998L532.215,221.012L532.079,221.026L531.944,221.041L531.809,221.057L531.675,221.074L531.54,221.091L531.406,221.11L531.272,221.129L531.138,221.149L531.005,221.17L530.872,221.192L530.739,221.214L530.607,221.238L530.474,221.262L530.343,221.287L530.211,221.313L530.079,221.339L529.948,221.367L529.818,221.395L529.687,221.424L529.557,221.454L529.427,221.484L529.297,221.515L529.168,221.548L529.039,221.581L528.91,221.614L528.782,221.649L528.654,221.684L528.526,221.72L528.399,221.757L528.272,221.794L528.145,221.833L528.019,221.872L527.893,221.912L527.767,221.952L527.641,221.993L527.516,222.036L527.392,222.078L527.267,222.122L527.143,222.166L527.019,222.211L526.896,222.257L526.773,222.304L526.65,222.351L526.528,222.399L526.406,222.448L526.285,222.497L526.164,222.547L526.043,222.598L525.922,222.65L525.802,222.702L525.683,222.755L525.563,222.809L525.444,222.863L525.326,222.919L525.208,222.974L525.09,223.031L524.973,223.088L524.856,223.146L524.739,223.205L524.623,223.264L524.507,223.324L524.392,223.385L524.277,223.446L524.162,223.508L524.048,223.571L523.934,223.634L523.821,223.698L523.708,223.763L523.596,223.828L523.484,223.894L523.372,223.961L523.261,224.028L523.15,224.096L523.04,224.165L522.93,224.234L522.821,224.304L522.712,224.375L522.604,224.446L522.496,224.518L522.388,224.591L522.281,224.664L522.174,224.737L522.068,224.812L521.962,224.887L521.857,224.963L521.752,225.039L521.648,225.116L521.544,225.193L521.441,225.271L521.338,225.35L521.236,225.429L521.134,225.509L521.032,225.59L520.931,225.671L520.831,225.752L520.731,225.835L520.632,225.918L520.533,226.001L520.434,226.085L520.336,226.17L520.239,226.255L520.142,226.341L520.046,226.427L519.95,226.514L519.855,226.602L519.76,226.69L519.666,226.778L519.572,226.867L519.479,226.957L519.386,227.047L519.294,227.138L519.202,227.23L519.111,227.322L519.021,227.414L518.931,227.507L518.841,227.601L518.752,227.695L518.664,227.789L518.576,227.885L518.489,227.98L518.403,228.076L518.317,228.173L518.231,228.27L518.146,228.368L518.062,228.466L517.978,228.565L517.895,228.665L517.813,228.764L517.731,228.865L517.649,228.965L517.568,229.067L517.488,229.169L517.409,229.271L517.33,229.374L517.251,229.477L517.173,229.581L517.096,229.685L517.02,229.79L516.944,229.895L516.868,230L516.794,230.107L516.719,230.213L516.646,230.32L516.573,230.428L516.501,230.536L516.429,230.644L516.358,230.753L516.288,230.862L516.218,230.972L516.149,231.082L516.081,231.193L516.013,231.304L515.946,231.416L515.88,231.528L515.814,231.64L515.749,231.753L515.684,231.866L515.62,231.98L515.557,232.094L515.495,232.209L515.433,232.324L515.372,232.439L515.311,232.555L515.252,232.671L515.193,232.788L515.134,232.905L515.076,233.022L515.019,233.14L514.963,233.258L514.907,233.377L514.852,233.496L514.798,233.615L514.745,233.735L514.692,233.855L514.64,233.975L514.588,234.096L514.538,234.218L514.488,234.339L514.438,234.461L514.39,234.584L514.342,234.706L514.295,234.829L514.249,234.953L514.203,235.077L514.158,235.201L514.114,235.325L514.07,235.45L514.028,235.576L513.986,235.701L513.945,235.827L513.904,235.953L513.865,236.08L513.826,236.207L513.787,236.334L513.75,236.462L513.713,236.589L513.678,236.718L513.642,236.846L513.608,236.975L513.575,237.104L513.542,237.234L513.51,237.363L513.478,237.494L513.448,237.624L513.418,237.755L513.39,237.886L513.361,238.017L513.334,238.148L513.308,238.28L513.282,238.413L513.257,238.545L513.233,238.678L513.21,238.811L513.187,238.944L513.166,239.078L513.145,239.212L513.125,239.346L513.106,239.48L513.087,239.615L513.07,239.75L513.053,239.885L513.037,240.02L513.022,240.156L513.008,240.292L512.995,240.428L512.982,240.565L512.97,240.701L512.959,240.838L512.95,240.975L512.94,241.113L512.932,241.251L512.925,241.389L512.918,241.527L512.912,241.665L512.908,241.804L512.904,241.942L512.901,242.082L512.898,242.221L512.897,242.36L512.897,242.5L512.897,242.64L512.898,242.779L512.901,242.918L512.904,243.058L512.908,243.196L512.912,243.335L512.918,243.473L512.925,243.611L512.932,243.749L512.94,243.887L512.95,244.025L512.959,244.162L512.97,244.299L512.982,244.435L512.995,244.572L513.008,244.708L513.022,244.844L513.037,244.98L513.053,245.115L513.07,245.25L513.087,245.385L513.106,245.52L513.125,245.654L513.145,245.788L513.166,245.922L513.187,246.056L513.21,246.189L513.233,246.322L513.257,246.455L513.282,246.587L513.308,246.72L513.334,246.852L513.361,246.983L513.39,247.114L513.418,247.245L513.448,247.376L513.478,247.506L513.51,247.637L513.542,247.766L513.575,247.896L513.608,248.025L513.642,248.154L513.678,248.282L513.713,248.411L513.75,248.538L513.787,248.666L513.826,248.793L513.865,248.92L513.904,249.047L513.945,249.173L513.986,249.299L514.028,249.424L514.07,249.55L514.114,249.675L514.158,249.799L514.203,249.923L514.249,250.047L514.295,250.171L514.342,250.294L514.39,250.416L514.438,250.539L514.488,250.661L514.538,250.782L514.588,250.904L514.64,251.025L514.692,251.145L514.745,251.265L514.798,251.385L514.852,251.504L514.907,251.623L514.963,251.742L515.019,251.86L515.076,251.978L515.134,252.095L515.193,252.212L515.252,252.329L515.311,252.445L515.372,252.561L515.433,252.676L515.495,252.791L515.557,252.906L515.62,253.02L515.684,253.134L515.749,253.247L515.814,253.36L515.88,253.472L515.946,253.584L516.013,253.696L516.081,253.807L516.149,253.918L516.218,254.028L516.288,254.138L516.358,254.247L516.429,254.356L516.501,254.464L516.573,254.572L516.646,254.68L516.719,254.787L516.794,254.893L516.868,255L516.944,255.105L517.02,255.21L517.096,255.315L517.173,255.419L517.251,255.523L517.33,255.626L517.409,255.729L517.488,255.831L517.568,255.933L517.649,256.035L517.731,256.135L517.813,256.236L517.895,256.335L517.978,256.435L518.062,256.534L518.146,256.632L518.231,256.73L518.317,256.827L518.403,256.924L518.489,257.02L518.576,257.115L518.664,257.211L518.752,257.305L518.841,257.399L518.931,257.493L519.021,257.586L519.111,257.678L519.202,257.77L519.294,257.862L519.386,257.953L519.479,258.043L519.572,258.133L519.666,258.222L519.76,258.31L519.855,258.398L519.95,258.486L520.046,258.573L520.142,258.659L520.239,258.745L520.336,258.83L520.434,258.915L520.533,258.999L520.632,259.082L520.731,259.165L520.831,259.248L520.931,259.329L521.032,259.41L521.134,259.491L521.236,259.571L521.338,259.65L521.441,259.729L521.544,259.807L521.648,259.884L521.752,259.961L521.857,260.037L521.962,260.113L522.068,260.188L522.174,260.263L522.281,260.336L522.388,260.409L522.496,260.482L522.604,260.554L522.712,260.625L522.821,260.696L522.93,260.766L523.04,260.835L523.15,260.904L523.261,260.972L523.372,261.039L523.484,261.106L523.596,261.172L523.708,261.237L523.821,261.302L523.934,261.366L524.048,261.429L524.162,261.492L524.277,261.554L524.392,261.615L524.507,261.676L524.623,261.736L524.739,261.795L524.856,261.854L524.973,261.912L525.09,261.969L525.208,262.026L525.326,262.081L525.444,262.137L525.563,262.191L525.683,262.245L525.802,262.298L525.922,262.35L526.043,262.402L526.164,262.453L526.285,262.503L526.406,262.552L526.528,262.601L526.65,262.649L526.773,262.696L526.896,262.743L527.019,262.789L527.143,262.834L527.267,262.878L527.392,262.922L527.516,262.964L527.641,263.007L527.767,263.048L527.893,263.088L528.019,263.128L528.145,263.167L528.272,263.206L528.399,263.243L528.526,263.28L528.654,263.316L528.782,263.351L528.91,263.386L529.039,263.419L529.168,263.452L529.297,263.485L529.427,263.516L529.557,263.546L529.687,263.576L529.818,263.605L529.948,263.633L530.079,263.661L530.211,263.687L530.343,263.713L530.474,263.738L530.607,263.762L530.739,263.786L530.872,263.808L531.005,263.83L531.138,263.851L531.272,263.871L531.406,263.89L531.54,263.909L531.675,263.926L531.809,263.943L531.944,263.959L532.079,263.974L532.215,263.988L532.35,264.002L532.486,264.014L532.623,264.026L532.759,264.037L532.896,264.047L533.033,264.056L533.17,264.064L533.307,264.072L533.445,264.078L533.583,264.084L533.721,264.089L533.859,264.093L533.998,264.096L534.136,264.098L534.275,264.099L534.416,264.1L645.584,264.1L645.725,264.099L645.864,264.098L646.002,264.096L646.141,264.093L646.279,264.089L646.417,264.084L646.555,264.078L646.693,264.072L646.83,264.064L646.967,264.056L647.104,264.047L647.241,264.037L647.377,264.026L647.514,264.014L647.65,264.002L647.785,263.988L647.921,263.974L648.056,263.959L648.191,263.943L648.325,263.926L648.46,263.909L648.594,263.89L648.728,263.871L648.862,263.851L648.995,263.83L649.128,263.808L649.261,263.786L649.393,263.762L649.526,263.738L649.657,263.713L649.789,263.687L649.921,263.661L650.052,263.633L650.182,263.605L650.313,263.576L650.443,263.546L650.573,263.516L650.703,263.485L650.832,263.452L650.961,263.419L651.09,263.386L651.218,263.351L651.346,263.316L651.474,263.28L651.601,263.243L651.728,263.206L651.855,263.167L651.981,263.128L652.107,263.088L652.233,263.048L652.359,263.007L652.484,262.964L652.608,262.922L652.733,262.878L652.857,262.834L652.981,262.789L653.104,262.743L653.227,262.696L653.35,262.649L653.472,262.601L653.594,262.552L653.715,262.503L653.836,262.453L653.957,262.402L654.078,262.35L654.198,262.298L654.317,262.245L654.437,262.191L654.556,262.137L654.674,262.081L654.792,262.026L654.91,261.969L655.027,261.912L655.144,261.854L655.261,261.795L655.377,261.736L655.493,261.676L655.608,261.615L655.723,261.554L655.838,261.492L655.952,261.429L656.066,261.366L656.179,261.302L656.292,261.237L656.404,261.172L656.516,261.106L656.628,261.039L656.739,260.972L656.85,260.904L656.96,260.835L657.07,260.766L657.179,260.696L657.288,260.625L657.396,260.554L657.504,260.482L657.612,260.409L657.719,260.336L657.826,260.263L657.932,260.188L658.038,260.113L658.143,260.037L658.248,259.961L658.352,259.884L658.456,259.807L658.559,259.729L658.662,259.65L658.764,259.571L658.866,259.491L658.968,259.41L659.069,259.329L659.169,259.248L659.269,259.165L659.368,259.082L659.467,258.999L659.566,258.915L659.664,258.83L659.761,258.745L659.858,258.659L659.954,258.573L660.05,258.486L660.145,258.398L660.24,258.31L660.334,258.222L660.428,258.133L660.521,258.043L660.614,257.953L660.706,257.862L660.798,257.77L660.889,257.678L660.979,257.586L661.069,257.493L661.159,257.399L661.248,257.305L661.336,257.211L661.424,257.115L661.511,257.02L661.597,256.924L661.683,256.827L661.769,256.73L661.854,256.632L661.938,256.534L662.022,256.435L662.105,256.335L662.187,256.236L662.269,256.135L662.351,256.035L662.432,255.933L662.512,255.831L662.591,255.729L662.67,255.626L662.749,255.523L662.827,255.419L662.904,255.315L662.98,255.21L663.056,255.105L663.132,255L663.206,254.893L663.281,254.787L663.354,254.68L663.427,254.572L663.499,254.464L663.571,254.356L663.642,254.247L663.712,254.138L663.782,254.028L663.851,253.918L663.919,253.807L663.987,253.696L664.054,253.584L664.12,253.472L664.186,253.36L664.251,253.247L664.316,253.134L664.38,253.02L664.443,252.906L664.505,252.791L664.567,252.676L664.628,252.561L664.689,252.445L664.748,252.329L664.807,252.212L664.866,252.095L664.924,251.978L664.981,251.86L665.037,251.742L665.093,251.623L665.148,251.504L665.202,251.385L665.255,251.265L665.308,251.145L665.36,251.025L665.412,250.904L665.462,250.782L665.512,250.661L665.562,250.539L665.61,250.416L665.658,250.294L665.705,250.171L665.751,250.047L665.797,249.923L665.842,249.799L665.886,249.675L665.93,249.55L665.972,249.424L666.014,249.299L666.055,249.173L666.096,249.047L666.135,248.92L666.174,248.793L666.213,248.666L666.25,248.538L666.287,248.411L666.322,248.282L666.358,248.154L666.392,248.025L666.425,247.896L666.458,247.766L666.49,247.637L666.522,247.507L666.552,247.376L666.582,247.245L666.611,247.114L666.639,246.983L666.666,246.852L666.692,246.72L666.718,246.587L666.743,246.455L666.767,246.322L666.79,246.189L666.813,246.056L666.834,245.922L666.855,245.789L666.875,245.654L666.894,245.52L666.913,245.385L666.93,245.25L666.947,245.115L666.963,244.98L666.978,244.844L666.992,244.708L667.005,244.572L667.018,244.435L667.03,244.299L667.041,244.162L667.05,244.025L667.06,243.887L667.068,243.749L667.075,243.611L667.082,243.473L667.088,243.335L667.092,243.196L667.096,243.058L667.099,242.918L667.102,242.779L667.103,242.64L667.103,242.5L667.103,242.36L667.102,242.221L667.099,242.082L667.096,241.942L667.092,241.804L667.088,241.665L667.082,241.527L667.075,241.389L667.068,241.251L667.06,241.113L667.05,240.975L667.041,240.838L667.03,240.701L667.018,240.565L667.005,240.428L666.992,240.292L666.978,240.156L666.963,240.02L666.947,239.885L666.93,239.75L666.913,239.615L666.894,239.48L666.875,239.346L666.855,239.212L666.834,239.078L666.813,238.944L666.79,238.811L666.767,238.678L666.743,238.545L666.718,238.413L666.692,238.28L666.666,238.148L666.639,238.017L666.611,237.886L666.582,237.755L666.552,237.624L666.522,237.493L666.49,237.363L666.458,237.234L666.425,237.104L666.392,236.975L666.358,236.846L666.322,236.718L666.287,236.589L666.25,236.462L666.213,236.334L666.174,236.207L666.135,236.08L666.096,235.953L666.055,235.827L666.014,235.701L665.972,235.576L665.93,235.45L665.886,235.325L665.842,235.201L665.797,235.077L665.751,234.953L665.705,234.829L665.658,234.706L665.61,234.584L665.562,234.461L665.512,234.339L665.462,234.218L665.412,234.096L665.36,233.975L665.308,233.855L665.255,233.735L665.202,233.615L665.148,233.496L665.093,233.377L665.037,233.258L664.981,233.14L664.924,233.022L664.866,232.905L664.807,232.788L664.748,232.671L664.689,232.555L664.628,232.439L664.567,232.324L664.505,232.209L664.443,232.094L664.38,231.98L664.316,231.866L664.251,231.753L664.186,231.64L664.12,231.528L664.054,231.416L663.987,231.304L663.919,231.193L663.851,231.082L663.782,230.972L663.712,230.862L663.642,230.753L663.571,230.644L663.499,230.536L663.427,230.428L663.354,230.32L663.281,230.213L663.206,230.107L663.132,230L663.056,229.895L662.98,229.79L662.904,229.685L662.827,229.581L662.749,229.477L662.67,229.374L662.591,229.271L662.512,229.169L662.432,229.067L662.351,228.965L662.269,228.865L662.187,228.764L662.105,228.665L662.022,228.565L661.938,228.466L661.854,228.368L661.769,228.27L661.683,228.173L661.597,228.076L661.511,227.98L661.424,227.885L661.336,227.789L661.248,227.695L661.159,227.601L661.069,227.507L660.979,227.414L660.889,227.322L660.798,227.23L660.706,227.138L660.614,227.047L660.521,226.957L660.428,226.867L660.334,226.778L660.24,226.69L660.145,226.602L660.05,226.514L659.954,226.427L659.858,226.341L659.761,226.255L659.664,226.17L659.566,226.085L659.467,226.001L659.368,225.918L659.269,225.835L659.169,225.752L659.069,225.671L658.968,225.59L658.866,225.509L658.764,225.429L658.662,225.35L658.559,225.271L658.456,225.193L658.352,225.116L658.248,225.039L658.143,224.963L658.038,224.887L657.932,224.812L657.826,224.737L657.719,224.664L657.612,224.591L657.504,224.518L657.396,224.446L657.288,224.375L657.179,224.304L657.07,224.234L656.96,224.165L656.85,224.096L656.739,224.028L656.628,223.961L656.516,223.894L656.404,223.828L656.292,223.763L656.179,223.698L656.066,223.634L655.952,223.571L655.838,223.508L655.723,223.446L655.608,223.385L655.493,223.324L655.377,223.264L655.261,223.205L655.144,223.146L655.027,223.088L654.91,223.031L654.792,222.974L654.674,222.919L654.556,222.863L654.437,222.809L654.317,222.755L654.198,222.702L654.078,222.65L653.957,222.598L653.836,222.547L653.715,222.497L653.594,222.448L653.472,222.399L653.35,222.351L653.227,222.304L653.104,222.257L652.981,222.211L652.857,222.166L652.733,222.122L652.608,222.078L652.484,222.036L652.359,221.993L652.233,221.952L652.107,221.912L651.981,221.872L651.855,221.833L651.728,221.794L651.601,221.757L651.474,221.72L651.346,221.684L651.218,221.649L651.09,221.614L650.961,221.581L650.832,221.548L650.703,221.515L650.573,221.484L650.443,221.454L650.313,221.424L650.182,221.395L650.052,221.367L649.921,221.339L649.789,221.313L649.657,221.287L649.526,221.262L649.393,221.238L649.261,221.214L649.128,221.192L648.995,221.17L648.862,221.149L648.728,221.129L648.594,221.11L648.46,221.091L648.325,221.074L648.191,221.057L648.056,221.041L647.921,221.026L647.785,221.012L647.65,220.998L647.514,220.986L647.377,220.974L647.241,220.963L647.104,220.953L646.967,220.944L646.83,220.936L646.693,220.928L646.555,220.922L646.417,220.916L646.279,220.911L646.141,220.907L646.002,220.904L645.864,220.902L645.725,220.901L645.584,220.9L534.416,220.9Z" style="fill:rgb(255,189,23);"/>
    </g>
</svg>
