<?xml version="1.0" encoding="UTF-8" standalone="no"?>
<!DOCTYPE svg PUBLIC "-//W3C//DTD SVG 1.1//EN" "http://www.w3.org/Graphics/SVG/1.1/DTD/svg11.dtd">
<svg width="100%" height="100%" viewBox="0 0 270 270" version="1.1" xmlns="http://www.w3.org/2000/svg" xmlns:xlink="http://www.w3.org/1999/xlink" xml:space="preserve" style="fill-rule:evenodd;clip-rule:evenodd;stroke-linejoin:round;stroke-miterlimit:1.41421;">
    <g transform="matrix(1,0,0,1,-201,-146)">
        <g transform="matrix(4.92819,0,0,4.92819,-1548.05,-715.894)">
            <g id="A-Button-Green" transform="matrix(1,0,0,1,-412.452,-48.2763)">
                <g transform="matrix(1,0,0,1,-133.629,90.1209)">
                    <circle cx="928.402" cy="160.507" r="27.32" style="fill:rgb(3,189,91);"/>
                </g>
                <g transform="matrix(1.42536,-8.12157e-33,-6.09118e-33,1.42536,-530.809,121.618)">
                    <path d="M932.697,94.909L927.291,94.909L926.263,97.992L922.985,97.992L928.555,83.029L931.412,83.029L937.013,97.992L933.735,97.992L932.697,94.909ZM928.123,92.412L931.864,92.412L929.984,86.811L928.123,92.412Z" style="fill:white;fill-rule:nonzero;"/>
                </g>
            </g>
        </g>
    </g>
</svg>
