<?xml version="1.0" encoding="UTF-8" standalone="no"?>
<!DOCTYPE svg PUBLIC "-//W3C//DTD SVG 1.1//EN" "http://www.w3.org/Graphics/SVG/1.1/DTD/svg11.dtd">
<svg width="100%" height="100%" viewBox="0 0 227 227" version="1.1" xmlns="http://www.w3.org/2000/svg" xmlns:xlink="http://www.w3.org/1999/xlink" xml:space="preserve" style="fill-rule:evenodd;clip-rule:evenodd;stroke-linejoin:round;stroke-miterlimit:1.41421;">
    <g transform="matrix(1,0,0,1,-223,-168)">
        <g transform="matrix(4.92819,0,0,4.92819,-1548.05,-715.894)">
            <g id="AddressBar-Button-White" transform="matrix(1,0,0,1,-1204.07,-12.2073)">
                <g transform="matrix(1.95066,0,0,1.95066,31.419,-336.238)">
                    <circle cx="797.154" cy="282.365" r="11.753" style="fill:white;"/>
                </g>
                <g transform="matrix(2.37388,0,0,2.37388,-399.643,-455.329)">
                    <g transform="matrix(1,0,0,0.892348,0.0868,29.9163)">
                        <rect x="835.556" y="280.638" width="6.454" height="1.531" style="fill:rgb(36,36,36);"/>
                    </g>
                    <g transform="matrix(1,0,0,0.892348,-4.576,26.9057)">
                        <rect x="835.556" y="280.638" width="6.454" height="1.531" style="fill:rgb(36,36,36);"/>
                    </g>
                    <g transform="matrix(1,0,0,0.892348,0.0299234,34.5413)">
                        <rect x="835.556" y="280.638" width="6.454" height="1.531" style="fill:rgb(36,36,36);"/>
                    </g>
                    <g transform="matrix(5.65834e-17,0.924077,-0.892348,5.46406e-17,1087.38,-491.775)">
                        <rect x="835.556" y="280.638" width="6.454" height="1.531" style="fill:rgb(36,36,36);"/>
                    </g>
                    <g transform="matrix(0.511087,0,0,0.892348,403.938,31.6221)">
                        <rect x="835.556" y="280.638" width="6.454" height="1.531" style="fill:rgb(36,36,36);"/>
                    </g>
                    <g transform="matrix(5.65834e-17,0.924077,-0.892348,5.46406e-17,1082.77,-494.785)">
                        <rect x="835.556" y="280.638" width="6.454" height="1.531" style="fill:rgb(36,36,36);"/>
                    </g>
                    <g transform="matrix(1.91243e-17,0.312323,-0.892348,5.46406e-17,1087.92,16.3691)">
                        <rect x="835.556" y="280.638" width="6.454" height="1.531" style="fill:rgb(36,36,36);"/>
                    </g>
                    <g transform="matrix(5.68066e-17,0.927722,-0.892348,5.46406e-17,1092.85,-494.82)">
                        <rect x="835.556" y="280.638" width="6.454" height="1.531" style="fill:rgb(36,36,36);"/>
                    </g>
                </g>
            </g>
        </g>
    </g>
</svg>
