<?xml version="1.0" encoding="UTF-8" standalone="no"?>
<!DOCTYPE svg PUBLIC "-//W3C//DTD SVG 1.1//EN" "http://www.w3.org/Graphics/SVG/1.1/DTD/svg11.dtd">
<svg width="100%" height="100%" viewBox="0 0 445 445" version="1.1" xmlns="http://www.w3.org/2000/svg" xmlns:xlink="http://www.w3.org/1999/xlink" xml:space="preserve" style="fill-rule:evenodd;clip-rule:evenodd;stroke-linejoin:round;stroke-miterlimit:1.41421;">
    <g transform="matrix(1,0,0,1,-114,-59)">
        <g transform="matrix(4.92819,0,0,4.92819,-1548.05,-715.894)">
            <g id="Arrow-None-Button-White" transform="matrix(1,0,0,1,-1335.36,19.3802)">
                <g transform="matrix(1,0,0,1,-122.09,-3.67346)">
                    <path d="M1854.41,172.021L1855.12,172.021L1855.12,201.312L1854.41,201.312L1854.41,201.531L1825.12,201.531L1825.12,201.312L1824.85,201.312L1824.85,172.021L1825.12,172.021L1825.12,171.552L1854.41,171.552L1854.41,172.021Z" style="fill:white;"/>
                </g>
                <g transform="matrix(1,0,0,1,0.0328709,0)">
                    <g transform="matrix(1,0,0,1,-19.8659,0)">
                        <path d="M1752.16,193.986L1752.16,220.694C1752.16,224.736 1748.88,228.017 1744.84,228.017L1730.19,228.017C1726.15,228.017 1722.87,224.736 1722.87,220.694L1722.87,193.986L1752.16,193.986Z" style="fill:white;"/>
                    </g>
                    <g transform="matrix(1.00031,0,0,1,-20.3988,0)">
                        <path d="M1744.84,137.925C1748.88,137.925 1752.16,141.207 1752.16,145.248L1752.16,170.403L1722.87,170.403L1722.87,145.248C1722.87,141.207 1726.15,137.925 1730.19,137.925L1744.84,137.925Z" style="fill:white;"/>
                    </g>
                </g>
                <g transform="matrix(1,0,0,1,0,0.0814026)">
                    <g transform="matrix(6.12323e-17,1,-1,6.12323e-17,1900.65,-1554.62)">
                        <path d="M1752.16,193.017L1752.16,220.694C1752.16,224.736 1748.88,228.017 1744.84,228.017L1730.19,228.017C1726.15,228.017 1722.87,224.736 1722.87,220.694L1722.87,193.017L1752.16,193.017Z" style="fill:white;"/>
                    </g>
                    <g transform="matrix(6.12511e-17,1.00031,-1,6.12323e-17,1900.65,-1555.16)">
                        <path d="M1744.84,137.925C1748.88,137.925 1752.16,141.207 1752.16,145.248L1752.16,174.404L1722.87,174.404L1722.87,145.248C1722.87,141.207 1726.15,137.925 1730.19,137.925L1744.84,137.925Z" style="fill:white;"/>
                    </g>
                </g>
            </g>
        </g>
    </g>
</svg>
