<?xml version="1.0" encoding="UTF-8" standalone="no"?>
<!DOCTYPE svg PUBLIC "-//W3C//DTD SVG 1.1//EN" "http://www.w3.org/Graphics/SVG/1.1/DTD/svg11.dtd">
<svg width="100%" height="100%" viewBox="0 0 270 270" version="1.1" xmlns="http://www.w3.org/2000/svg" xmlns:xlink="http://www.w3.org/1999/xlink" xml:space="preserve" style="fill-rule:evenodd;clip-rule:evenodd;stroke-linejoin:round;stroke-miterlimit:1.41421;">
    <g transform="matrix(1,0,0,1,-201,-146)">
        <g transform="matrix(4.92819,0,0,4.92819,-1548.05,-715.894)">
            <g id="B-Button-Yellow" transform="matrix(1,0,0,1,-485.815,-48.2763)">
                <g transform="matrix(1,0,0,1,-60.2665,90.1209)">
                    <circle cx="928.402" cy="160.507" r="27.32" style="fill:rgb(252,180,49);"/>
                </g>
                <g transform="matrix(1.42536,-8.12157e-33,-6.09118e-33,1.42536,-457.175,121.618)">
                    <path d="M924.249,97.992L924.249,83.029L929.49,83.029C930.36,83.029 931.138,83.111 931.823,83.275C932.508,83.44 933.089,83.692 933.565,84.031C934.041,84.37 934.404,84.796 934.654,85.31C934.905,85.824 935.03,86.43 935.03,87.129C935.03,87.472 934.987,87.801 934.901,88.116C934.815,88.431 934.685,88.726 934.511,89C934.336,89.274 934.115,89.522 933.848,89.745C933.581,89.967 933.262,90.151 932.892,90.294C933.33,90.404 933.706,90.57 934.017,90.793C934.329,91.016 934.586,91.274 934.788,91.569C934.99,91.863 935.137,92.184 935.23,92.53C935.322,92.876 935.369,93.23 935.369,93.593C935.369,95.046 934.901,96.142 933.966,96.882C933.031,97.622 931.7,97.992 929.973,97.992L924.249,97.992ZM927.332,91.476L927.332,95.515L929.973,95.515C930.371,95.515 930.713,95.466 931.001,95.366C931.289,95.267 931.529,95.13 931.72,94.955C931.912,94.78 932.054,94.575 932.147,94.338C932.239,94.102 932.286,93.843 932.286,93.563C932.286,93.241 932.244,92.951 932.162,92.694C932.08,92.437 931.952,92.218 931.777,92.036C931.602,91.855 931.374,91.716 931.093,91.62C930.813,91.524 930.477,91.476 930.086,91.476L927.332,91.476ZM927.332,89.298L929.614,89.298C930.401,89.284 930.987,89.118 931.371,88.799C931.755,88.481 931.946,88.027 931.946,87.437C931.946,86.759 931.749,86.271 931.356,85.973C930.962,85.675 930.34,85.526 929.49,85.526L927.332,85.526L927.332,89.298Z" style="fill:white;fill-rule:nonzero;"/>
                </g>
            </g>
        </g>
    </g>
</svg>
