<?xml version="1.0" encoding="UTF-8" standalone="no"?>
<!DOCTYPE svg PUBLIC "-//W3C//DTD SVG 1.1//EN" "http://www.w3.org/Graphics/SVG/1.1/DTD/svg11.dtd">
<svg width="100%" height="100%" viewBox="0 0 236 253" version="1.1" xmlns="http://www.w3.org/2000/svg" xmlns:xlink="http://www.w3.org/1999/xlink" xml:space="preserve" style="fill-rule:evenodd;clip-rule:evenodd;stroke-linejoin:round;stroke-miterlimit:1.41421;">
    <g transform="matrix(1,0,0,1,-218,-143)">
        <g transform="matrix(4.92819,0,0,4.92819,-1548.05,-715.894)">
            <g id="Back-Button-White" transform="matrix(1,0,0,1,-986.639,-18.7321)">
                <g transform="matrix(0.859253,-4.89595e-33,-3.67197e-33,0.859253,566.358,159.936)">
                    <text x="907.056px" y="97.992px" style="font-family:'Roboto-Bold', 'Roboto';font-weight:700;font-size:21.047px;fill:none;">BACK</text>
                    <text x="907.056px" y="97.992px" style="font-family:'Roboto-Bold', 'Roboto';font-weight:700;font-size:21.047px;fill:white;">BACK</text>
                </g>
                <g transform="matrix(-0.988252,0,0,0.957758,2689.86,63.5723)">
                    <path d="M1360.66,151.393C1360.66,142.496 1353.66,135.272 1345.03,135.272L1328.18,135.272C1319.56,135.272 1312.56,142.496 1312.56,151.393C1312.56,160.291 1319.56,167.514 1328.18,167.514L1345.03,167.514C1353.66,167.514 1360.66,160.291 1360.66,151.393Z" style="fill:white;"/>
                </g>
                <g id="Play-Icon" transform="matrix(-0.568436,0,0,0.513675,1540.13,-1531.91)">
                    <path d="M294,3377.36C294,3376.86 294.249,3376.43 294.685,3376.18C295.122,3375.93 295.617,3375.93 296.051,3376.19L314.322,3386.83C314.752,3387.08 314.996,3387.5 314.996,3388C314.996,3388.49 314.752,3388.92 314.322,3389.17L296.051,3399.81C295.617,3400.06 295.122,3400.07 294.685,3399.82C294.249,3399.57 294,3399.14 294,3398.64L294,3377.36Z" style="fill:rgb(36,36,36);"/>
                </g>
            </g>
        </g>
    </g>
</svg>
