<?xml version="1.0" encoding="UTF-8" standalone="no"?>
<!DOCTYPE svg PUBLIC "-//W3C//DTD SVG 1.1//EN" "http://www.w3.org/Graphics/SVG/1.1/DTD/svg11.dtd">
<svg width="100%" height="100%" viewBox="0 0 382 418" version="1.1" xmlns="http://www.w3.org/2000/svg" xmlns:xlink="http://www.w3.org/1999/xlink" xml:space="preserve" style="fill-rule:evenodd;clip-rule:evenodd;stroke-linejoin:round;stroke-miterlimit:1.41421;">
    <g transform="matrix(1,0,0,1,-145,-72)">
        <g transform="matrix(4.92819,0,0,4.92819,-1548.05,-715.894)">
            <g id="LT-Button-White" transform="matrix(1,0,0,1,-562.854,-14.6987)">
                <g transform="matrix(1,0,0,1,-122.891,24.7187)">
                    <g transform="matrix(0.995401,0,0,1,4.73432,0)">
                        <path d="M1107.05,226.763C1107.05,222.435 1103.52,218.921 1099.17,218.921L1037.31,218.921C1032.96,218.921 1029.43,222.435 1029.43,226.763C1029.43,231.092 1032.96,234.606 1037.31,234.606L1099.17,234.606C1103.52,234.606 1107.05,231.092 1107.05,226.763Z" style="fill:white;"/>
                    </g>
                    <g transform="matrix(0.511961,0,0,1,536.717,-68.862)">
                        <path d="M1107.05,226.763C1107.05,222.435 1100.18,218.921 1091.73,218.921L1044.75,218.921C1036.29,218.921 1029.43,222.435 1029.43,226.763C1029.43,231.092 1036.29,234.606 1044.75,234.606L1091.73,234.606C1100.18,234.606 1107.05,231.092 1107.05,226.763Z" style="fill:white;"/>
                    </g>
                    <g transform="matrix(1,0,0,1,-0.339062,0)">
                        <path d="M1064.36,155.836C1064.36,155.836 1058.26,179.521 1052.85,190.503C1047.1,202.187 1031.59,221.724 1031.59,221.724L1085.88,224.993L1083.67,158.088L1064.36,155.836Z" style="fill:white;"/>
                    </g>
                    <g transform="matrix(1,0,0,0.9706,0,4.31227)">
                        <rect x="1075.52" y="150.159" width="31.184" height="79.342" style="fill:white;"/>
                    </g>
                </g>
                <g transform="matrix(1.08885,-6.20419e-33,-4.65314e-33,1.08885,-54.9634,141.404)">
                    <text x="923.463px" y="97.992px" style="font-family:'Roboto-Bold', 'Roboto';font-weight:700;font-size:21.047px;fill:rgb(36,36,36);">L<tspan x="932.661px " y="97.992px ">T</tspan></text>
                </g>
            </g>
        </g>
    </g>
</svg>
