<?xml version="1.0" encoding="UTF-8" standalone="no"?>
<!DOCTYPE svg PUBLIC "-//W3C//DTD SVG 1.1//EN" "http://www.w3.org/Graphics/SVG/1.1/DTD/svg11.dtd">
<svg width="100%" height="100%" viewBox="0 0 591 456" version="1.1" xmlns="http://www.w3.org/2000/svg" xmlns:xlink="http://www.w3.org/1999/xlink" xml:space="preserve" style="fill-rule:evenodd;clip-rule:evenodd;stroke-linejoin:round;stroke-miterlimit:1.41421;">
    <g transform="matrix(1,0,0,1,-4,-6)">
        <g transform="matrix(4.92819,0,0,4.92819,-1548.05,-715.894)">
            <g id="XBox-Filled-Icon-White" transform="matrix(0.462088,0,0,0.462088,121.457,56.458)">
                <g transform="matrix(0.566281,0,0,0.566281,293.622,-277.7)">
                    <path d="M406.607,959.47C407.377,965.714 407.817,969.815 407.817,969.815L373.819,959.47L372.723,959.47L372.723,959.136L285.087,932.468C285.087,932.468 298.775,906.94 301.809,904.165C305.994,900.339 360.304,885.397 364.695,885.212C370.349,884.973 384.493,897.214 392.072,897.907L508.094,897.907C515.674,897.214 529.817,884.973 535.471,885.212C539.863,885.397 594.173,900.339 598.357,904.165C601.391,906.94 615.079,932.468 615.079,932.468L527.443,959.136L527.443,959.47L526.347,959.47L492.349,969.815C492.349,969.815 492.789,965.714 493.56,959.47L406.607,959.47Z" style="fill:rgb(59,59,59);"/>
                </g>
                <g transform="matrix(0.566281,0,0,0.566281,293.74,-277.7)">
                    <path d="M366.563,1109.45C359.004,1112.05 281.774,1187.66 268.658,1187.67C230.534,1187.71 209.19,1139.57 228.144,1066.36C234.394,1042.22 252.688,992.378 252.717,992.298L269.651,940.883C274.321,926.702 286.193,916.896 299.874,914.184L299.681,914.084C299.681,914.084 357.418,899.45 362.418,900.319C366.279,900.99 401.638,941.583 408.369,947.557L491.378,947.557C498.11,941.583 533.468,900.99 537.33,900.319C542.33,899.45 600.066,914.084 600.066,914.084L599.874,914.184C613.555,916.896 625.426,926.702 630.097,940.883L647.03,992.298C647.059,992.378 665.353,1042.22 671.604,1066.36C690.558,1139.57 669.214,1187.71 631.09,1187.67C617.974,1187.66 540.743,1112.05 533.185,1109.45L366.563,1109.45Z" style="fill:white;"/>
                </g>
                <g transform="matrix(0.566281,0,0,0.566281,294.184,-277.947)">
                    <circle cx="390.468" cy="1049.86" r="37.691" style="fill:rgb(59,59,59);"/>
                </g>
                <g transform="matrix(0.566281,0,0,0.566281,293.74,-277.7)">
                    <g transform="matrix(0.997978,0,0,0.997978,1.24657,1.5428)">
                        <path d="M333.904,939.596C353.359,939.596 369.154,955.391 369.154,974.846C369.154,994.301 353.359,1010.1 333.904,1010.1C314.449,1010.1 298.654,994.301 298.654,974.846C298.654,955.391 314.449,939.596 333.904,939.596ZM333.904,948.818C348.27,948.818 359.933,960.481 359.933,974.846C359.933,989.212 348.27,1000.88 333.904,1000.88C319.539,1000.88 307.875,989.212 307.875,974.846C307.875,960.481 319.539,948.818 333.904,948.818Z" style="fill:rgb(59,59,59);"/>
                    </g>
                    <g transform="matrix(1,0,0,1,2.77051,1.00488)">
                        <circle cx="331.705" cy="973.413" r="16.418" style="fill:rgb(59,59,59);"/>
                    </g>
                </g>
                <g transform="matrix(0.566281,0,0,0.566281,293.74,-277.7)">
                    <g transform="matrix(0.997978,0,0,0.997978,175.973,71.8885)">
                        <path d="M333.904,939.596C353.359,939.596 369.154,955.391 369.154,974.846C369.154,994.301 353.359,1010.1 333.904,1010.1C314.449,1010.1 298.654,994.301 298.654,974.846C298.654,955.391 314.449,939.596 333.904,939.596ZM333.904,948.818C348.27,948.818 359.933,960.481 359.933,974.846C359.933,989.212 348.27,1000.88 333.904,1000.88C319.539,1000.88 307.875,989.212 307.875,974.846C307.875,960.481 319.539,948.818 333.904,948.818Z" style="fill:rgb(59,59,59);"/>
                    </g>
                    <g transform="matrix(1,0,0,1,177.497,71.3506)">
                        <circle cx="331.705" cy="973.413" r="16.418" style="fill:rgb(59,59,59);"/>
                    </g>
                </g>
                <g transform="matrix(0.335279,0,0,0.335279,-60.6036,255.22)">
                    <g transform="matrix(1,0,0,1,-122.09,-3.67346)">
                        <path d="M1854.41,172.021L1855.12,172.021L1855.12,201.312L1854.41,201.312L1854.41,201.531L1825.12,201.531L1825.12,201.312L1824.85,201.312L1824.85,172.021L1825.12,172.021L1825.12,171.552L1854.41,171.552L1854.41,172.021Z" style="fill:white;"/>
                    </g>
                    <g transform="matrix(1,0,0,1,0.0328709,0)">
                        <g transform="matrix(1,0,0,1,-19.8659,0)">
                            <path d="M1752.16,193.986L1752.16,220.694C1752.16,224.736 1748.88,228.017 1744.84,228.017L1730.19,228.017C1726.15,228.017 1722.87,224.736 1722.87,220.694L1722.87,193.986L1752.16,193.986Z" style="fill:white;"/>
                        </g>
                        <g transform="matrix(1.00031,0,0,1,-20.3988,0)">
                            <path d="M1744.84,137.925C1748.88,137.925 1752.16,141.207 1752.16,145.248L1752.16,170.403L1722.87,170.403L1722.87,145.248C1722.87,141.207 1726.15,137.925 1730.19,137.925L1744.84,137.925Z" style="fill:white;"/>
                        </g>
                    </g>
                    <g transform="matrix(1,0,0,1,0,0.0814026)">
                        <g transform="matrix(6.12323e-17,1,-1,6.12323e-17,1900.65,-1554.62)">
                            <path d="M1752.16,193.017L1752.16,220.694C1752.16,224.736 1748.88,228.017 1744.84,228.017L1730.19,228.017C1726.15,228.017 1722.87,224.736 1722.87,220.694L1722.87,193.017L1752.16,193.017Z" style="fill:white;"/>
                        </g>
                        <g transform="matrix(6.12511e-17,1.00031,-1,6.12323e-17,1900.65,-1555.16)">
                            <path d="M1744.84,137.925C1748.88,137.925 1752.16,141.207 1752.16,145.248L1752.16,174.404L1722.87,174.404L1722.87,145.248C1722.87,141.207 1726.15,137.925 1730.19,137.925L1744.84,137.925Z" style="fill:white;"/>
                        </g>
                    </g>
                </g>
                <g transform="matrix(0.566281,0,0,0.566281,294.068,-277.7)">
                    <circle cx="416.406" cy="974.906" r="9.133" style="fill:rgb(59,59,59);"/>
                    <g transform="matrix(1,0,0,1,65.7812,0)">
                        <circle cx="416.406" cy="974.906" r="9.133" style="fill:rgb(59,59,59);"/>
                    </g>
                </g>
                <g transform="matrix(0.939593,0,0,0.939593,205.551,-641.397)">
                    <circle cx="416.406" cy="974.906" r="9.133" style="fill:rgb(59,59,59);"/>
                </g>
                <g transform="matrix(0.939593,0,0,0.939593,240.8,-641.397)">
                    <circle cx="416.406" cy="974.906" r="9.133" style="fill:rgb(59,59,59);"/>
                </g>
                <g transform="matrix(0.939593,0,0,0.939593,223.176,-659.007)">
                    <circle cx="416.406" cy="974.906" r="9.133" style="fill:rgb(59,59,59);"/>
                </g>
                <g transform="matrix(0.939593,0,0,0.939593,223.176,-623.788)">
                    <circle cx="416.406" cy="974.906" r="9.133" style="fill:rgb(59,59,59);"/>
                </g>
                <g transform="matrix(0.525699,-2.99539e-33,-2.24654e-33,0.525699,125.528,244.646)">
                    <path d="M932.697,94.909L927.291,94.909L926.263,97.992L922.985,97.992L928.555,83.029L931.412,83.029L937.013,97.992L933.735,97.992L932.697,94.909ZM928.123,92.412L931.864,92.412L929.984,86.811L928.123,92.412Z" style="fill:white;fill-rule:nonzero;"/>
                </g>
                <g transform="matrix(0.525699,-2.99539e-33,-2.24654e-33,0.525699,143.253,227.036)">
                    <path d="M924.249,97.992L924.249,83.029L929.49,83.029C930.36,83.029 931.138,83.111 931.823,83.275C932.508,83.44 933.089,83.692 933.565,84.031C934.041,84.37 934.404,84.796 934.654,85.31C934.905,85.824 935.03,86.43 935.03,87.129C935.03,87.472 934.987,87.801 934.901,88.116C934.815,88.431 934.685,88.726 934.511,89C934.336,89.274 934.115,89.522 933.848,89.745C933.581,89.967 933.262,90.151 932.892,90.294C933.33,90.404 933.706,90.57 934.017,90.793C934.329,91.016 934.586,91.274 934.788,91.569C934.99,91.863 935.137,92.184 935.23,92.53C935.322,92.876 935.369,93.23 935.369,93.593C935.369,95.046 934.901,96.142 933.966,96.882C933.031,97.622 931.7,97.992 929.973,97.992L924.249,97.992ZM927.332,91.476L927.332,95.515L929.973,95.515C930.371,95.515 930.713,95.466 931.001,95.366C931.289,95.267 931.529,95.13 931.72,94.955C931.912,94.78 932.054,94.575 932.147,94.338C932.239,94.102 932.286,93.843 932.286,93.563C932.286,93.241 932.244,92.951 932.162,92.694C932.08,92.437 931.952,92.218 931.777,92.036C931.602,91.855 931.374,91.716 931.093,91.62C930.813,91.524 930.477,91.476 930.086,91.476L927.332,91.476ZM927.332,89.298L929.614,89.298C930.401,89.284 930.987,89.118 931.371,88.799C931.755,88.481 931.946,88.027 931.946,87.437C931.946,86.759 931.749,86.271 931.356,85.973C930.962,85.675 930.34,85.526 929.49,85.526L927.332,85.526L927.332,89.298Z" style="fill:white;fill-rule:nonzero;"/>
                </g>
                <g transform="matrix(0.525699,-2.99539e-33,-2.24654e-33,0.525699,125.836,209.427)">
                    <path d="M929.408,89.77L932.522,83.029L935.893,83.029L930.98,92.566L930.98,97.992L927.846,97.992L927.846,92.566L922.934,83.029L926.315,83.029L929.408,89.77Z" style="fill:white;fill-rule:nonzero;"/>
                </g>
                <g transform="matrix(0.525699,-2.99539e-33,-2.24654e-33,0.525699,108.112,227.036)">
                    <path d="M929.603,88.188L932.409,83.029L935.954,83.029L931.597,90.449L936.068,97.992L932.481,97.992L929.603,92.751L926.726,97.992L923.139,97.992L927.61,90.449L923.252,83.029L926.798,83.029L929.603,88.188Z" style="fill:white;fill-rule:nonzero;"/>
                </g>
                <g transform="matrix(0.420963,0,0,0.420963,352.465,-282.644)">
                    <path d="M444.424,1270.02C448.63,1263.38 453.799,1256.74 459.836,1250.4C461.509,1248.64 463.207,1246.95 464.926,1245.33L465.156,1245.55C473.284,1253.29 480.009,1261.6 485.104,1269.83C480.237,1275.69 472.894,1279.43 464.686,1279.43C456.565,1279.43 449.291,1275.77 444.424,1270.02ZM481.315,1232.25C487.348,1237.11 491.21,1244.56 491.21,1252.9C491.21,1258.31 489.59,1263.34 486.808,1267.54C485.117,1258.2 480.136,1248.76 472.107,1241.11C471.715,1240.73 471.318,1240.37 470.918,1240.01C474.352,1237.15 477.834,1234.55 481.315,1232.25ZM448.377,1231.99C451.938,1234.4 455.489,1237.08 458.982,1240.02C457.75,1241.09 456.554,1242.23 455.398,1243.45C448.585,1250.6 444.258,1259.06 442.522,1267.47C439.766,1263.29 438.161,1258.28 438.161,1252.9C438.161,1244.41 442.161,1236.85 448.377,1231.99ZM452.453,1229.37C456.114,1227.46 460.275,1226.38 464.686,1226.38C469.372,1226.38 473.775,1227.6 477.597,1229.73C473.319,1230.96 469.078,1232.88 465.059,1235.45C461.03,1232.75 456.766,1230.72 452.453,1229.37Z" style="fill:white;"/>
                </g>
                <g transform="matrix(1.03245,0,0,1.03245,183.886,-688.872)">
                    <text x="271.422px" y="867.326px" style="font-family:'Vegur-Regular', 'Vegur';font-size:16px;fill:none;">LB</text>
                    <text x="271.422px" y="867.326px" style="font-family:'Vegur-Regular', 'Vegur';font-size:16px;fill:rgb(59,59,59);">LB</text>
                </g>
                <g transform="matrix(-0.0558716,0.0169431,0.0775645,0.255777,420.331,-9.59047)">
                    <rect x="212.449" y="841.928" width="9.699" height="70.629" style="fill:rgb(59,59,59);"/>
                </g>
                <g transform="matrix(1.03245,0,0,1.03245,331.24,-688.872)">
                    <text x="271.422px" y="867.326px" style="font-family:'Vegur-Regular', 'Vegur';font-size:16px;fill:none;">RB</text>
                    <text x="271.422px" y="867.326px" style="font-family:'Vegur-Regular', 'Vegur';font-size:16px;fill:rgb(59,59,59);">RB</text>
                </g>
                <g transform="matrix(0.0558716,0.0169431,-0.0775645,0.255777,671.525,-9.59047)">
                    <rect x="212.449" y="841.928" width="9.699" height="70.629" style="fill:rgb(59,59,59);"/>
                </g>
            </g>
        </g>
    </g>
</svg>
