<?xml version="1.0" encoding="UTF-8" standalone="no"?>
<!DOCTYPE svg PUBLIC "-//W3C//DTD SVG 1.1//EN" "http://www.w3.org/Graphics/SVG/1.1/DTD/svg11.dtd">
<svg width="100%" height="100%" viewBox="0 0 338 173" version="1.1" xmlns="http://www.w3.org/2000/svg" xmlns:xlink="http://www.w3.org/1999/xlink" xml:space="preserve" style="fill-rule:evenodd;clip-rule:evenodd;stroke-linejoin:round;stroke-miterlimit:1.41421;">
    <g transform="matrix(1,0,0,1,-167,-195)">
        <g transform="matrix(4.92819,0,0,4.92819,-4182.88,-964.605)">
            <g id="Arrow-Right-Button-White" transform="matrix(0.730102,0,0,0.730102,-353.191,141.385)">
                <g transform="matrix(1,0,0,0.989647,1494.02,-592.092)">
                    <path d="M292.532,740.435C292.532,733.771 287.178,728.361 280.583,728.361L210.757,728.361C204.162,728.361 198.808,733.771 198.808,740.435L198.808,764.584C198.808,771.248 204.162,776.658 210.757,776.658L280.583,776.658C287.178,776.658 292.532,771.248 292.532,764.584L292.532,740.435Z" style="fill:white;"/>
                </g>
                <g transform="matrix(6.77906e-17,1.1071,-1.30488,7.9901e-17,2847.47,-119.408)">
                    <path d="M245.718,832.18L258.2,857.144L233.235,857.144L245.718,832.18Z"/>
                </g>
            </g>
        </g>
    </g>
</svg>
