<?xml version="1.0" encoding="UTF-8" standalone="no"?>
<!DOCTYPE svg PUBLIC "-//W3C//DTD SVG 1.1//EN" "http://www.w3.org/Graphics/SVG/1.1/DTD/svg11.dtd">
<svg width="100%" height="100%" viewBox="0 0 289 289" version="1.1" xmlns="http://www.w3.org/2000/svg" xmlns:xlink="http://www.w3.org/1999/xlink" xml:space="preserve" style="fill-rule:evenodd;clip-rule:evenodd;stroke-linejoin:round;stroke-miterlimit:1.41421;">
    <g transform="matrix(1,0,0,1,-192,-137)">
        <g transform="matrix(4.92819,0,0,4.92819,-4182.88,-964.605)">
            <g id="B-Button-White" transform="matrix(0.883665,0,0,0.883665,251.767,-844.863)">
                <g transform="matrix(0.780325,0,0,0.780325,561.379,804.561)">
                    <circle cx="245.269" cy="560.831" r="42.382" style="fill:white;"/>
                </g>
                <g transform="matrix(2.70277,0,0,2.70277,120.358,492.97)">
                    <path d="M230.817,281.471L230.817,272.94L233.805,272.94C234.301,272.94 234.744,272.987 235.135,273.08C235.526,273.174 235.857,273.318 236.128,273.511C236.4,273.704 236.607,273.948 236.749,274.241C236.892,274.534 236.963,274.879 236.963,275.278C236.963,275.473 236.939,275.661 236.89,275.84C236.841,276.02 236.767,276.188 236.667,276.344C236.568,276.5 236.442,276.642 236.289,276.769C236.137,276.896 235.955,277 235.744,277.082C235.994,277.145 236.208,277.24 236.386,277.367C236.564,277.494 236.71,277.641 236.826,277.809C236.941,277.977 237.025,278.16 237.077,278.357C237.13,278.554 237.157,278.756 237.157,278.963C237.157,279.791 236.89,280.416 236.357,280.838C235.824,281.26 235.065,281.471 234.08,281.471L230.817,281.471ZM232.575,277.756L232.575,280.059L234.08,280.059C234.307,280.059 234.502,280.031 234.666,279.974C234.83,279.917 234.967,279.839 235.076,279.74C235.186,279.64 235.267,279.523 235.32,279.388C235.372,279.253 235.399,279.106 235.399,278.946C235.399,278.762 235.375,278.597 235.328,278.451C235.282,278.304 235.208,278.179 235.109,278.076C235.009,277.972 234.879,277.893 234.719,277.838C234.559,277.784 234.367,277.756 234.145,277.756L232.575,277.756ZM232.575,276.514L233.875,276.514C234.325,276.506 234.659,276.411 234.877,276.23C235.096,276.048 235.205,275.789 235.205,275.453C235.205,275.067 235.093,274.788 234.868,274.619C234.644,274.449 234.289,274.364 233.805,274.364L232.575,274.364L232.575,276.514Z" style="fill:rgb(59,59,59);fill-rule:nonzero;"/>
                </g>
            </g>
        </g>
    </g>
</svg>
