<?xml version="1.0" encoding="UTF-8" standalone="no"?>
<!DOCTYPE svg PUBLIC "-//W3C//DTD SVG 1.1//EN" "http://www.w3.org/Graphics/SVG/1.1/DTD/svg11.dtd">
<svg width="100%" height="100%" viewBox="0 0 439 439" version="1.1" xmlns="http://www.w3.org/2000/svg" xmlns:xlink="http://www.w3.org/1999/xlink" xml:space="preserve" style="fill-rule:evenodd;clip-rule:evenodd;stroke-linejoin:round;stroke-miterlimit:1.41421;">
    <g transform="matrix(1,0,0,1,-117,-62)">
        <g transform="matrix(4.92819,0,0,4.92819,-4182.88,-964.605)">
            <g id="Circle-Border-White" transform="matrix(1.01554,0,0,1.01554,666.125,-414.576)">
                <path d="M247,613.441C271.141,613.441 290.741,633.041 290.741,657.182C290.741,681.324 271.141,700.924 247,700.924C222.858,700.924 203.259,681.324 203.259,657.182C203.259,633.041 222.858,613.441 247,613.441ZM247,619.015C268.065,619.015 285.167,636.117 285.167,657.182C285.167,678.247 268.065,695.349 247,695.349C225.935,695.349 208.833,678.247 208.833,657.182C208.833,636.117 225.935,619.015 247,619.015Z" style="fill:white;"/>
            </g>
        </g>
    </g>
</svg>
