<?xml version="1.0" encoding="UTF-8" standalone="no"?>
<!DOCTYPE svg PUBLIC "-//W3C//DTD SVG 1.1//EN" "http://www.w3.org/Graphics/SVG/1.1/DTD/svg11.dtd">
<svg width="100%" height="100%" viewBox="0 0 294 263" version="1.1" xmlns="http://www.w3.org/2000/svg" xmlns:xlink="http://www.w3.org/1999/xlink" xml:space="preserve" style="fill-rule:evenodd;clip-rule:evenodd;stroke-linejoin:round;stroke-miterlimit:1.41421;">
    <g transform="matrix(1,0,0,1,-189,-150)">
        <g transform="matrix(4.92819,0,0,4.92819,-4182.88,-964.605)">
            <g id="LG-Button-White" transform="matrix(0.804554,0,0,0.804554,-68.2134,-710.892)">
                <g transform="matrix(0.968165,0,0,0.968165,988.663,747.377)">
                    <path d="M205.376,465.254L205.376,465.196C205.376,448.275 216.318,430.817 223.122,431.049L273.37,437.53C290.582,439.183 275.819,450.689 276.21,463.361C276.64,477.292 290.265,491.687 273.37,492.977L223.122,499.458C216.318,499.69 205.376,482.233 205.376,465.311L205.376,465.254Z" style="fill:white;"/>
                </g>
                <g transform="matrix(3.35337,0,0,3.35337,434.288,264.605)">
                    <path d="M232.159,280.418L234.942,280.418L234.942,281.471L230.848,281.471L230.848,275.111L232.159,275.111L232.159,280.418Z" style="fill:rgb(59,59,59);fill-rule:nonzero;"/>
                    <path d="M240.446,280.667C240.37,280.758 240.266,280.854 240.135,280.958C240.004,281.061 239.84,281.157 239.642,281.246C239.444,281.335 239.21,281.409 238.941,281.469C238.671,281.529 238.362,281.558 238.012,281.558C237.602,281.558 237.227,281.491 236.888,281.355C236.548,281.22 236.258,281.021 236.016,280.759C235.774,280.497 235.587,280.175 235.455,279.794C235.322,279.412 235.256,278.975 235.256,278.483L235.256,278.107C235.256,277.615 235.319,277.178 235.446,276.795C235.573,276.412 235.752,276.089 235.983,275.827C236.215,275.565 236.495,275.366 236.824,275.229C237.153,275.092 237.519,275.023 237.921,275.023C238.334,275.023 238.692,275.075 238.993,275.179C239.294,275.282 239.546,275.427 239.749,275.613C239.951,275.8 240.109,276.022 240.223,276.282C240.336,276.541 240.411,276.825 240.446,277.133L239.17,277.133C239.144,276.973 239.103,276.828 239.048,276.699C238.992,276.569 238.917,276.458 238.821,276.367C238.724,276.275 238.606,276.204 238.465,276.155C238.323,276.105 238.155,276.081 237.96,276.081C237.512,276.081 237.171,276.25 236.938,276.59C236.705,276.929 236.588,277.432 236.588,278.099L236.588,278.483C236.588,279.15 236.715,279.654 236.968,279.995C237.222,280.335 237.593,280.506 238.082,280.506C238.24,280.506 238.376,280.495 238.493,280.475C238.609,280.455 238.709,280.429 238.792,280.399C238.875,280.368 238.944,280.335 239,280.298C239.055,280.262 239.1,280.226 239.135,280.191L239.135,279.095L237.943,279.095L237.943,278.129L240.446,278.129L240.446,280.667Z" style="fill:rgb(59,59,59);fill-rule:nonzero;"/>
                </g>
            </g>
        </g>
    </g>
</svg>
