<?xml version="1.0" encoding="UTF-8" standalone="no"?>
<!DOCTYPE svg PUBLIC "-//W3C//DTD SVG 1.1//EN" "http://www.w3.org/Graphics/SVG/1.1/DTD/svg11.dtd">
<svg width="100%" height="100%" viewBox="0 0 293 293" version="1.1" xmlns="http://www.w3.org/2000/svg" xmlns:xlink="http://www.w3.org/1999/xlink" xml:space="preserve" style="fill-rule:evenodd;clip-rule:evenodd;stroke-linejoin:round;stroke-miterlimit:1.41421;">
    <g transform="matrix(1,0,0,1,-190,-135)">
        <g transform="matrix(4.92819,0,0,4.92819,-4182.88,-964.605)">
            <g id="LP-Button-White" transform="matrix(0.804554,0,0,0.804554,-163.757,-713.753)">
                <g transform="matrix(0.869003,0,0,0.869003,1130.11,714.012)">
                    <circle cx="245.269" cy="560.831" r="42.382" style="fill:white;"/>
                </g>
                <g transform="matrix(3.00991,0,0,3.00991,631.937,364.836)">
                    <path d="M232.373,280.298L235.473,280.298L235.473,281.471L230.913,281.471L230.913,274.385L232.373,274.385L232.373,280.298Z" style="fill:rgb(59,59,59);fill-rule:nonzero;"/>
                    <path d="M237.77,278.974L237.77,281.471L236.31,281.471L236.31,274.385L239.075,274.385C239.493,274.385 239.867,274.443 240.197,274.56C240.526,274.677 240.805,274.84 241.034,275.049C241.262,275.259 241.437,275.507 241.557,275.794C241.677,276.081 241.737,276.393 241.737,276.731C241.737,277.075 241.677,277.385 241.557,277.66C241.437,277.936 241.262,278.171 241.034,278.366C240.805,278.561 240.526,278.711 240.197,278.816C239.867,278.922 239.493,278.974 239.075,278.974L237.77,278.974ZM237.77,277.792L239.075,277.792C239.282,277.792 239.462,277.766 239.613,277.714C239.763,277.662 239.887,277.59 239.982,277.497C240.078,277.405 240.149,277.294 240.194,277.164C240.24,277.034 240.262,276.893 240.262,276.741C240.262,276.588 240.24,276.441 240.194,276.3C240.149,276.159 240.078,276.034 239.982,275.925C239.887,275.817 239.763,275.73 239.613,275.665C239.462,275.6 239.282,275.568 239.075,275.568L237.77,275.568L237.77,277.792Z" style="fill:rgb(59,59,59);fill-rule:nonzero;"/>
                </g>
            </g>
        </g>
    </g>
</svg>
