<?xml version="1.0" encoding="UTF-8" standalone="no"?>
<!DOCTYPE svg PUBLIC "-//W3C//DTD SVG 1.1//EN" "http://www.w3.org/Graphics/SVG/1.1/DTD/svg11.dtd">
<svg width="100%" height="100%" viewBox="0 0 438 438" version="1.1" xmlns="http://www.w3.org/2000/svg" xmlns:xlink="http://www.w3.org/1999/xlink" xml:space="preserve" style="fill-rule:evenodd;clip-rule:evenodd;stroke-linejoin:round;stroke-miterlimit:1.41421;">
    <g transform="matrix(1,0,0,1,-117,-62)">
        <g transform="matrix(4.92819,0,0,4.92819,-4182.88,-964.605)">
            <g id="None-Button-White" transform="matrix(0.919176,0,0,0.919176,-799.795,128.062)">
                <g transform="matrix(1,0,0,1.01401,772.94,-813.74)">
                    <path d="M1104.05,897.918C1104.05,892.868 1099.89,888.767 1094.77,888.767C1089.65,888.767 1085.5,892.868 1085.5,897.918L1085.5,974.773C1085.5,979.824 1089.65,983.924 1094.77,983.924C1099.89,983.924 1104.05,979.824 1104.05,974.773L1104.05,897.918Z" style="fill:white;"/>
                </g>
                <g transform="matrix(6.12323e-17,1,-1.01401,6.20903e-17,2817.18,-959.049)">
                    <path d="M1104.05,897.918C1104.05,892.868 1099.89,888.767 1094.77,888.767C1089.65,888.767 1085.5,892.868 1085.5,897.918L1085.5,974.773C1085.5,979.824 1089.65,983.924 1094.77,983.924C1099.89,983.924 1104.05,979.824 1104.05,974.773L1104.05,897.918Z" style="fill:white;"/>
                </g>
            </g>
        </g>
    </g>
</svg>
