<?xml version="1.0" encoding="UTF-8" standalone="no"?>
<!DOCTYPE svg PUBLIC "-//W3C//DTD SVG 1.1//EN" "http://www.w3.org/Graphics/SVG/1.1/DTD/svg11.dtd">
<svg width="100%" height="100%" viewBox="0 0 294 263" version="1.1" xmlns="http://www.w3.org/2000/svg" xmlns:xlink="http://www.w3.org/1999/xlink" xml:space="preserve" style="fill-rule:evenodd;clip-rule:evenodd;stroke-linejoin:round;stroke-miterlimit:1.41421;">
    <g transform="matrix(1,0,0,1,-189,-150)">
        <g transform="matrix(4.92819,0,0,4.92819,-4182.88,-964.605)">
            <g id="RG-Button-White" transform="matrix(0.804554,0,0,0.804554,-68.2134,-771.918)">
                <g transform="matrix(0.968165,0,0,0.968165,988.663,823.229)">
                    <path d="M205.376,465.254L205.376,465.196C205.376,448.275 216.318,430.817 223.122,431.049L273.37,437.53C290.582,439.183 275.819,450.689 276.21,463.361C276.64,477.292 290.265,491.687 273.37,492.977L223.122,499.458C216.318,499.69 205.376,482.233 205.376,465.311L205.376,465.254Z" style="fill:white;"/>
                </g>
                <g transform="matrix(3.35337,0,0,3.35337,432.369,340.457)">
                    <path d="M233.203,279.143L232.159,279.143L232.159,281.471L230.848,281.471L230.848,275.111L233.212,275.111C233.579,275.111 233.908,275.152 234.199,275.235C234.49,275.318 234.736,275.441 234.937,275.602C235.138,275.764 235.292,275.964 235.4,276.203C235.508,276.442 235.562,276.718 235.562,277.033C235.562,277.266 235.536,277.475 235.483,277.66C235.431,277.845 235.355,278.009 235.256,278.153C235.157,278.298 235.038,278.423 234.898,278.531C234.758,278.639 234.601,278.732 234.426,278.811L235.802,281.41L235.802,281.471L234.395,281.471L233.203,279.143ZM232.159,278.081L233.216,278.081C233.388,278.081 233.539,278.059 233.668,278.014C233.798,277.968 233.906,277.904 233.991,277.821C234.077,277.738 234.142,277.639 234.186,277.524C234.229,277.409 234.251,277.28 234.251,277.138C234.251,276.838 234.166,276.602 233.996,276.43C233.825,276.258 233.564,276.172 233.212,276.172L232.159,276.172L232.159,278.081Z" style="fill:rgb(59,59,59);fill-rule:nonzero;"/>
                    <path d="M241.59,280.667C241.514,280.758 241.411,280.854 241.28,280.958C241.149,281.061 240.984,281.157 240.786,281.246C240.588,281.335 240.355,281.409 240.085,281.469C239.816,281.529 239.506,281.558 239.157,281.558C238.746,281.558 238.371,281.491 238.032,281.355C237.693,281.22 237.402,281.021 237.161,280.759C236.919,280.497 236.732,280.175 236.599,279.794C236.467,279.412 236.401,278.975 236.401,278.483L236.401,278.107C236.401,277.615 236.464,277.178 236.591,276.795C236.717,276.412 236.896,276.089 237.128,275.827C237.359,275.565 237.64,275.366 237.969,275.229C238.298,275.092 238.663,275.023 239.065,275.023C239.479,275.023 239.836,275.075 240.138,275.179C240.439,275.282 240.691,275.427 240.893,275.613C241.096,275.8 241.254,276.022 241.367,276.282C241.481,276.541 241.555,276.825 241.59,277.133L240.314,277.133C240.288,276.973 240.248,276.828 240.192,276.699C240.137,276.569 240.061,276.458 239.965,276.367C239.869,276.275 239.75,276.204 239.609,276.155C239.468,276.105 239.3,276.081 239.104,276.081C238.656,276.081 238.315,276.25 238.082,276.59C237.849,276.929 237.733,277.432 237.733,278.099L237.733,278.483C237.733,279.15 237.86,279.654 238.113,279.995C238.366,280.335 238.738,280.506 239.227,280.506C239.384,280.506 239.521,280.495 239.637,280.475C239.754,280.455 239.854,280.429 239.937,280.399C240.02,280.368 240.089,280.335 240.144,280.298C240.199,280.262 240.245,280.226 240.28,280.191L240.28,279.095L239.087,279.095L239.087,278.129L241.59,278.129L241.59,280.667Z" style="fill:rgb(59,59,59);fill-rule:nonzero;"/>
                </g>
            </g>
        </g>
    </g>
</svg>
