<?xml version="1.0" encoding="UTF-8" standalone="no"?>
<!DOCTYPE svg PUBLIC "-//W3C//DTD SVG 1.1//EN" "http://www.w3.org/Graphics/SVG/1.1/DTD/svg11.dtd">
<svg width="100%" height="100%" viewBox="0 0 591 420" version="1.1" xmlns="http://www.w3.org/2000/svg" xmlns:xlink="http://www.w3.org/1999/xlink" xml:space="preserve" style="fill-rule:evenodd;clip-rule:evenodd;stroke-linejoin:round;stroke-miterlimit:1.41421;">
    <g transform="matrix(1,0,0,1,-5,-42)">
        <g transform="matrix(4.92819,0,0,4.92819,-4182.88,-964.605)">
            <g id="Steam-Controller-Icon-White" transform="matrix(0.555403,0,0,0.555403,819.729,-455.373)">
                <path d="M189.155,1294.86L134.709,1294.86C134.709,1294.86 126.065,1294.24 122.56,1296.77C119.565,1298.93 117.17,1303.58 117.17,1303.58C117.17,1303.58 110.364,1316.42 105.877,1324.9C97.663,1340.42 91.167,1343.18 78.399,1339.72C57.456,1334.04 53.19,1312.39 54.322,1295.48C56.641,1260.85 70.172,1216.2 79.665,1202.13C80.565,1200.32 81.754,1198.51 83.308,1197.08C83.867,1195.65 85.35,1192.71 88.473,1191.33C92.872,1189.38 116.1,1187.01 118.288,1188.47C119.374,1189.19 119.976,1189.9 120.307,1190.43C121.784,1190.5 122.818,1190.65 123.233,1190.88C124.46,1191.56 125.493,1192.75 126.261,1194.12C136.269,1193.83 147.686,1193.62 159.206,1193.61C172.531,1193.6 185.994,1193.84 197.574,1194.17C198.345,1192.78 199.389,1191.56 200.631,1190.88C201.046,1190.65 202.08,1190.5 203.558,1190.43C203.889,1189.9 204.49,1189.19 205.576,1188.47C207.764,1187.01 230.992,1189.38 235.391,1191.33C238.514,1192.71 239.997,1195.65 240.557,1197.08C242.11,1198.51 243.299,1200.32 244.199,1202.13C253.693,1216.2 267.223,1260.85 269.542,1295.48C270.675,1312.39 266.408,1334.04 245.465,1339.72C232.698,1343.18 226.202,1340.42 217.988,1324.9C213.5,1316.42 206.694,1303.58 206.694,1303.58C206.694,1303.58 204.3,1298.93 201.304,1296.77C197.814,1294.25 189.227,1294.85 189.155,1294.86ZM187.189,1271.07C190.537,1271.07 193.256,1273.79 193.256,1277.14C193.256,1280.49 190.537,1283.21 187.189,1283.21C183.84,1283.21 181.122,1280.49 181.122,1277.14C181.122,1273.79 183.84,1271.07 187.189,1271.07ZM189.172,1279.25L188.245,1279.25L187.952,1278.38L186.423,1278.38L186.133,1279.25L185.206,1279.25L186.781,1275.02L187.588,1275.02L189.172,1279.25ZM137.144,1252.93C144.33,1252.93 150.163,1258.77 150.163,1265.95C150.163,1273.14 144.33,1278.97 137.144,1278.97C129.959,1278.97 124.126,1273.14 124.126,1265.95C124.126,1258.77 129.959,1252.93 137.144,1252.93ZM137.144,1254.07C143.704,1254.07 149.029,1259.39 149.029,1265.95C149.029,1272.51 143.704,1277.84 137.144,1277.84C130.585,1277.84 125.259,1272.51 125.259,1265.95C125.259,1259.39 130.585,1254.07 137.144,1254.07ZM186.659,1277.68L187.716,1277.68L187.185,1276.09L186.659,1277.68ZM137.144,1258.19C141.429,1258.19 144.908,1261.67 144.908,1265.95C144.908,1270.24 141.429,1273.72 137.144,1273.72C132.86,1273.72 129.381,1270.24 129.381,1265.95C129.381,1261.67 132.86,1258.19 137.144,1258.19ZM175.12,1259.11C178.469,1259.11 181.187,1261.83 181.187,1265.18C181.187,1268.53 178.469,1271.25 175.12,1271.25C171.772,1271.25 169.053,1268.53 169.053,1265.18C169.053,1261.83 171.772,1259.11 175.12,1259.11ZM199.258,1259.11C202.606,1259.11 205.325,1261.83 205.325,1265.18C205.325,1268.53 202.606,1271.25 199.258,1271.25C195.909,1271.25 193.19,1268.53 193.19,1265.18C193.19,1261.83 195.909,1259.11 199.258,1259.11ZM174.307,1267.3L173.293,1267.3L174.557,1265.16L173.325,1263.07L174.327,1263.07L175.12,1264.52L175.913,1263.07L176.916,1263.07L175.684,1265.16L176.948,1267.3L175.934,1267.3L175.12,1265.81L174.307,1267.3ZM199.304,1267.3L197.686,1267.3L197.686,1263.07L199.167,1263.07C199.413,1263.07 199.633,1263.09 199.827,1263.14C200.021,1263.18 200.185,1263.25 200.319,1263.35C200.454,1263.44 200.557,1263.57 200.627,1263.71C200.698,1263.86 200.733,1264.03 200.733,1264.23C200.733,1264.32 200.721,1264.41 200.697,1264.5C200.673,1264.59 200.636,1264.68 200.587,1264.75C200.537,1264.83 200.475,1264.9 200.399,1264.96C200.324,1265.03 200.234,1265.08 200.129,1265.12C200.253,1265.15 200.359,1265.2 200.447,1265.26C200.535,1265.32 200.608,1265.4 200.665,1265.48C200.722,1265.56 200.764,1265.65 200.79,1265.75C200.816,1265.85 200.829,1265.95 200.829,1266.05C200.829,1266.46 200.697,1266.77 200.433,1266.98C200.168,1267.19 199.792,1267.3 199.304,1267.3ZM199.336,1265.45L198.557,1265.45L198.557,1266.6L199.304,1266.6C199.416,1266.6 199.513,1266.58 199.595,1266.55C199.676,1266.53 199.744,1266.49 199.798,1266.44C199.852,1266.39 199.892,1266.33 199.918,1266.26C199.945,1266.2 199.958,1266.12 199.958,1266.04C199.958,1265.95 199.946,1265.87 199.923,1265.8C199.9,1265.73 199.863,1265.66 199.814,1265.61C199.765,1265.56 199.7,1265.52 199.621,1265.5C199.541,1265.47 199.446,1265.45 199.336,1265.45ZM199.167,1263.77L198.557,1263.77L198.557,1264.84L199.202,1264.84C199.425,1264.83 199.591,1264.79 199.699,1264.7C199.808,1264.61 199.862,1264.48 199.862,1264.31C199.862,1264.12 199.806,1263.98 199.695,1263.9C199.583,1263.81 199.408,1263.77 199.167,1263.77ZM102.623,1206.41C117.96,1206.41 130.412,1218.86 130.412,1234.2C130.412,1249.53 117.96,1261.99 102.623,1261.99C87.286,1261.99 74.835,1249.53 74.835,1234.2C74.835,1218.86 87.286,1206.41 102.623,1206.41ZM220.393,1206.41C235.73,1206.41 248.182,1218.86 248.182,1234.2C248.182,1249.53 235.73,1261.99 220.393,1261.99C205.056,1261.99 192.604,1249.53 192.604,1234.2C192.604,1218.86 205.056,1206.41 220.393,1206.41ZM102.623,1207.67C117.264,1207.67 129.15,1219.56 129.15,1234.2C129.15,1248.84 117.264,1260.72 102.623,1260.72C87.983,1260.72 76.097,1248.84 76.097,1234.2C76.097,1219.56 87.983,1207.67 102.623,1207.67ZM220.393,1207.67C235.033,1207.67 246.919,1219.56 246.919,1234.2C246.919,1248.84 235.033,1260.72 220.393,1260.72C205.753,1260.72 193.867,1248.84 193.867,1234.2C193.867,1219.56 205.753,1207.67 220.393,1207.67ZM187.189,1247.16C190.537,1247.16 193.256,1249.87 193.256,1253.22C193.256,1256.57 190.537,1259.29 187.189,1259.29C183.84,1259.29 181.122,1256.57 181.122,1253.22C181.122,1249.87 183.84,1247.16 187.189,1247.16ZM98.266,1238.63L98.266,1252.88C98.266,1255.28 100.219,1257.23 102.623,1257.23C105.028,1257.23 106.981,1255.28 106.981,1252.88L106.981,1238.63L120.848,1238.63C123.293,1238.63 125.278,1236.64 125.278,1234.2C125.278,1231.75 123.293,1229.77 120.848,1229.77L106.981,1229.77L106.981,1215.52C106.981,1213.11 105.028,1211.16 102.623,1211.16C100.219,1211.16 98.266,1213.11 98.266,1215.52L98.266,1229.77L84.399,1229.77C81.954,1229.77 79.969,1231.75 79.969,1234.2C79.969,1236.64 81.954,1238.63 84.399,1238.63L98.266,1238.63ZM187.632,1255.34L186.746,1255.34L186.746,1253.8L185.357,1251.11L186.313,1251.11L187.187,1253.01L188.068,1251.11L189.021,1251.11L187.632,1253.8L187.632,1255.34ZM154.949,1232.73C155.86,1235.73 158.643,1237.91 161.932,1237.91C165.96,1237.91 169.23,1234.64 169.23,1230.61C169.23,1226.58 165.96,1223.31 161.932,1223.31C158.088,1223.31 154.933,1226.29 154.654,1230.06L158.463,1231.55C158.812,1231.31 159.238,1231.16 159.698,1231.16L159.712,1231.16C159.738,1231.16 159.765,1231.16 159.792,1231.16L161.548,1228.69C161.547,1228.68 161.547,1228.66 161.547,1228.65C161.547,1227.1 162.806,1225.84 164.356,1225.84C165.907,1225.84 167.166,1227.1 167.166,1228.65C167.166,1230.1 166.067,1231.29 164.658,1231.44L161.84,1233.23C161.84,1233.25 161.841,1233.28 161.841,1233.3C161.841,1234.48 160.888,1235.44 159.712,1235.45L159.698,1235.45C158.668,1235.45 157.807,1234.72 157.601,1233.75L154.949,1232.73ZM147.082,1229.89L140.725,1229.89C138.874,1229.89 137.372,1231.39 137.372,1233.25C137.372,1235.1 138.874,1236.6 140.725,1236.6L147.082,1236.6C148.933,1236.6 150.436,1235.1 150.436,1233.25C150.436,1231.39 148.933,1229.89 147.082,1229.89ZM182.516,1229.89L176.159,1229.89C174.308,1229.89 172.805,1231.39 172.805,1233.25C172.805,1235.1 174.308,1236.6 176.159,1236.6L182.516,1236.6C184.367,1236.6 185.869,1235.1 185.869,1233.25C185.869,1231.39 184.367,1229.89 182.516,1229.89ZM141.59,1233.25L145.558,1231.54L145.558,1234.95L141.59,1233.25ZM181.651,1233.25L177.683,1231.54L177.683,1234.95L181.651,1233.25ZM159.698,1231.81C159.542,1231.81 159.392,1231.83 159.25,1231.88L160.116,1232.23C160.719,1232.48 161.007,1233.17 160.76,1233.77C160.513,1234.37 159.824,1234.66 159.221,1234.41L158.422,1234.09C158.685,1234.52 159.158,1234.8 159.698,1234.8L159.707,1234.8C160.529,1234.8 161.195,1234.13 161.195,1233.3C161.195,1232.48 160.529,1231.81 159.707,1231.81L159.698,1231.81ZM164.356,1226.68C165.439,1226.68 166.319,1227.56 166.319,1228.65C166.319,1229.73 165.439,1230.61 164.356,1230.61C163.273,1230.61 162.394,1229.73 162.394,1228.65C162.394,1227.56 163.273,1226.68 164.356,1226.68ZM164.356,1227.24C165.135,1227.24 165.768,1227.87 165.768,1228.65C165.768,1229.42 165.135,1230.06 164.356,1230.06C163.577,1230.06 162.945,1229.42 162.945,1228.65C162.945,1227.87 163.577,1227.24 164.356,1227.24ZM124.26,1194.18C123.817,1193.55 123.304,1193.02 122.737,1192.69C120.48,1191.39 96.432,1193.02 87.992,1196.56C89.805,1196.17 91.915,1195.94 94.46,1195.66C97.841,1195.28 109.313,1194.64 124.26,1194.18ZM235.873,1196.56C227.432,1193.02 203.385,1191.39 201.128,1192.69C200.545,1193.03 200.02,1193.58 199.569,1194.23C214.533,1194.68 226.021,1195.28 229.405,1195.66C231.949,1195.94 234.059,1196.17 235.873,1196.56Z" style="fill:white;"/>
            </g>
        </g>
    </g>
</svg>
