<?xml version="1.0" encoding="UTF-8" standalone="no"?>
<!DOCTYPE svg PUBLIC "-//W3C//DTD SVG 1.1//EN" "http://www.w3.org/Graphics/SVG/1.1/DTD/svg11.dtd">
<svg width="100%" height="100%" viewBox="0 0 289 289" version="1.1" xmlns="http://www.w3.org/2000/svg" xmlns:xlink="http://www.w3.org/1999/xlink" xml:space="preserve" style="fill-rule:evenodd;clip-rule:evenodd;stroke-linejoin:round;stroke-miterlimit:1.41421;">
    <g transform="matrix(1,0,0,1,-192,-137)">
        <g transform="matrix(4.92819,0,0,4.92819,-4182.88,-964.605)">
            <g id="X-Button-White" transform="matrix(0.883665,0,0,0.883665,178.553,-844.863)">
                <g transform="matrix(0.780325,0,0,0.780325,644.232,804.561)">
                    <circle cx="245.269" cy="560.831" r="42.382" style="fill:white;"/>
                </g>
                <g transform="matrix(2.70277,0,0,2.70277,203.48,492.97)">
                    <path d="M233.887,275.881L235.487,272.94L237.508,272.94L235.024,277.17L237.573,281.471L235.528,281.471L233.887,278.483L232.246,281.471L230.201,281.471L232.75,277.17L230.266,272.94L232.287,272.94L233.887,275.881Z" style="fill:rgb(59,59,59);fill-rule:nonzero;"/>
                </g>
            </g>
        </g>
    </g>
</svg>
