<?xml version="1.0" encoding="UTF-8" standalone="no"?>
<!DOCTYPE svg PUBLIC "-//W3C//DTD SVG 1.1//EN" "http://www.w3.org/Graphics/SVG/1.1/DTD/svg11.dtd">
<svg width="100%" height="100%" viewBox="0 0 352 422" version="1.1" xmlns="http://www.w3.org/2000/svg" xmlns:xlink="http://www.w3.org/1999/xlink" xml:space="preserve" style="fill-rule:evenodd;clip-rule:evenodd;stroke-linejoin:round;stroke-miterlimit:1.41421;">
    <g transform="matrix(1,0,0,1,-160,-70)">
        <g transform="matrix(4.92819,0,0,4.92819,-1604.2,-2564.89)">
            <g id="L2-Button-White" transform="matrix(1,0,0,1,-564.765,20.2762)">
                <g transform="matrix(1,0,0,1,-111.752,-158.049)">
                    <g transform="matrix(1.05448,0,0,1.32354,-57.8673,-218.466)">
                        <path d="M1103.6,681.135C1103.6,676.77 1099.15,673.226 1093.68,673.226L1045.94,673.226C1040.46,673.226 1036.02,676.77 1036.02,681.135C1036.02,685.499 1040.46,689.043 1045.94,689.043L1093.68,689.043C1099.15,689.043 1103.6,685.499 1103.6,681.135Z" style="fill:white;"/>
                    </g>
                    <g transform="matrix(1.44539,0,0,0.969305,-492.498,22.2768)">
                        <path d="M1105.76,680.389L1056.68,683.879C1056.68,683.879 1058.28,694.768 1058.75,704.854C1059.18,714.097 1057.73,731.948 1057.73,731.948L1090.84,743.29C1090.84,743.29 1094.37,735.393 1097.61,731.896C1101.13,728.09 1105.76,725.736 1105.76,725.736L1105.76,680.389Z" style="fill:white;"/>
                    </g>
                    <g transform="matrix(0.803587,0.719594,-0.789195,0.881313,787.161,-676.205)">
                        <path d="M1082.67,726.354C1082.67,715.275 1072.81,706.281 1060.65,706.281C1048.51,706.281 1038.64,715.275 1038.64,726.354L1038.64,734.44C1038.64,745.519 1048.51,754.513 1060.65,754.513C1072.81,754.513 1082.67,745.519 1082.67,734.44L1082.67,726.354Z" style="fill:white;"/>
                    </g>
                </g>
                <g transform="matrix(1.08885,-6.20419e-33,-4.65314e-33,1.08885,-65.1079,440.375)">
                    <text x="922.337px" y="97.992px" style="font-family:'Roboto-Bold', 'Roboto';font-weight:700;font-size:21.047px;">L2</text>
                </g>
            </g>
        </g>
    </g>
</svg>
