<?xml version="1.0" encoding="UTF-8" standalone="no"?>
<!DOCTYPE svg PUBLIC "-//W3C//DTD SVG 1.1//EN" "http://www.w3.org/Graphics/SVG/1.1/DTD/svg11.dtd">
<svg width="100%" height="100%" viewBox="0 0 472 466" version="1.1" xmlns="http://www.w3.org/2000/svg" xmlns:xlink="http://www.w3.org/1999/xlink" xml:space="preserve" style="fill-rule:evenodd;clip-rule:evenodd;stroke-linejoin:round;stroke-miterlimit:1.41421;">
    <g transform="matrix(1,0,0,1,-100,-48)">
        <g transform="matrix(4.92819,0,0,4.92819,-1226.98,-2794.33)">
            <g id="Arrow-Button-Dark" transform="matrix(1,0,0,1,-1285.96,-86.089)">
                <g transform="matrix(1,0,0,1,-11.5365,0)">
                    <g transform="matrix(1.00017,0,0,1,-0.859825,0)">
                        <path d="M1630.19,670.176C1630.19,666.205 1626.97,662.981 1623,662.981L1606.39,662.981C1602.42,662.981 1599.2,666.205 1599.2,670.176L1599.2,684.564C1599.2,688.535 1602.42,691.759 1606.39,691.759L1623,691.759C1626.97,691.759 1630.19,688.535 1630.19,684.564L1630.19,670.176Z" style="fill:rgb(59,59,59);"/>
                    </g>
                    <g transform="matrix(0.917987,0,0,0.820179,131.607,126.176)">
                        <path d="M1631.03,684.719C1631.03,682.82 1598.86,683.111 1598.86,685.011C1598.86,685.011 1609.56,701.676 1611.46,701.676L1618.34,701.676C1620.24,701.676 1631.03,684.719 1631.03,684.719Z" style="fill:rgb(59,59,59);"/>
                    </g>
                </g>
                <g transform="matrix(6.12323e-17,1,-1,6.12323e-17,2313.84,-903.978)">
                    <g transform="matrix(1.00017,0,0,1,-0.859825,0)">
                        <path d="M1630.19,670.176C1630.19,666.205 1626.97,662.981 1623,662.981L1606.39,662.981C1602.42,662.981 1599.2,666.205 1599.2,670.176L1599.2,684.564C1599.2,688.535 1602.42,691.759 1606.39,691.759L1623,691.759C1626.97,691.759 1630.19,688.535 1630.19,684.564L1630.19,670.176Z" style="fill:rgb(59,59,59);"/>
                    </g>
                    <g transform="matrix(0.917987,0,0,0.820179,131.607,126.176)">
                        <path d="M1631.03,684.719C1631.03,682.82 1598.86,683.111 1598.86,685.011C1598.86,685.011 1609.56,701.676 1611.46,701.676L1618.34,701.676C1620.24,701.676 1631.03,684.719 1631.03,684.719Z" style="fill:rgb(59,59,59);"/>
                    </g>
                </g>
                <g transform="matrix(-1,-1.22465e-16,1.22465e-16,-1,3216.68,1420.37)">
                    <g transform="matrix(1.00017,0,0,1,-0.859825,0)">
                        <path d="M1630.19,670.176C1630.19,666.205 1626.97,662.981 1623,662.981L1606.39,662.981C1602.42,662.981 1599.2,666.205 1599.2,670.176L1599.2,684.564C1599.2,688.535 1602.42,691.759 1606.39,691.759L1623,691.759C1626.97,691.759 1630.19,688.535 1630.19,684.564L1630.19,670.176Z" style="fill:rgb(59,59,59);"/>
                    </g>
                    <g transform="matrix(0.917987,0,0,0.820179,131.607,126.176)">
                        <path d="M1631.03,684.719C1631.03,682.82 1598.86,683.111 1598.86,685.011C1598.86,685.011 1609.56,701.676 1611.46,701.676L1618.34,701.676C1620.24,701.676 1631.03,684.719 1631.03,684.719Z" style="fill:rgb(59,59,59);"/>
                    </g>
                </g>
                <g transform="matrix(6.12323e-17,-1,1,6.12323e-17,892.428,2324.24)">
                    <g transform="matrix(1.00017,0,0,1,-0.859825,0)">
                        <path d="M1630.19,670.176C1630.19,666.205 1626.97,662.981 1623,662.981L1606.39,662.981C1602.42,662.981 1599.2,666.205 1599.2,670.176L1599.2,684.564C1599.2,688.535 1602.42,691.759 1606.39,691.759L1623,691.759C1626.97,691.759 1630.19,688.535 1630.19,684.564L1630.19,670.176Z" style="fill:rgb(59,59,59);"/>
                    </g>
                    <g transform="matrix(0.917987,0,0,0.820179,131.607,126.176)">
                        <path d="M1631.03,684.719C1631.03,682.82 1598.86,683.111 1598.86,685.011C1598.86,685.011 1609.56,701.676 1611.46,701.676L1618.34,701.676C1620.24,701.676 1631.03,684.719 1631.03,684.719Z" style="fill:rgb(59,59,59);"/>
                    </g>
                </g>
            </g>
        </g>
    </g>
</svg>
