<?xml version="1.0" encoding="UTF-8" standalone="no"?>
<!DOCTYPE svg PUBLIC "-//W3C//DTD SVG 1.1//EN" "http://www.w3.org/Graphics/SVG/1.1/DTD/svg11.dtd">
<svg width="100%" height="100%" viewBox="0 0 284 293" version="1.1" xmlns="http://www.w3.org/2000/svg" xmlns:xlink="http://www.w3.org/1999/xlink" xml:space="preserve" style="fill-rule:evenodd;clip-rule:evenodd;stroke-linejoin:round;stroke-miterlimit:1.41421;">
    <g transform="matrix(1,0,0,1,-194,-126)">
        <g transform="matrix(4.92819,0,0,4.92819,-1226.98,-2794.33)">
            <g id="Options-Button-Dark" transform="matrix(1,0,0,1,-1005.29,-47.8462)">
                <g transform="matrix(0.865934,0,0,0.865934,204.056,95.9242)">
                    <text x="1257.77px" y="697.121px" style="font-family:'Roboto-Bold', 'Roboto';font-weight:700;font-size:16px;fill:none;">OPTIONS</text>
                    <text x="1257.77px" y="697.121px" style="font-family:'Roboto-Bold', 'Roboto';font-weight:700;font-size:16px;fill:rgb(59,59,59);">OPTIONS</text>
                </g>
                <g id="Options-Dark-Button" transform="matrix(1.04008,0,0,1,-52.9714,-10.8841)">
                    <path d="M1333.82,663.271C1333.82,656.734 1328.72,651.427 1322.43,651.427C1316.15,651.427 1311.05,656.734 1311.05,663.271L1311.05,679.088C1311.05,685.625 1316.15,690.932 1322.43,690.932C1328.72,690.932 1333.82,685.625 1333.82,679.088L1333.82,663.271Z" style="fill:rgb(59,59,59);"/>
                </g>
            </g>
        </g>
    </g>
</svg>
