<?xml version="1.0" encoding="UTF-8" standalone="no"?>
<!DOCTYPE svg PUBLIC "-//W3C//DTD SVG 1.1//EN" "http://www.w3.org/Graphics/SVG/1.1/DTD/svg11.dtd">
<svg width="100%" height="100%" viewBox="0 0 591 368" version="1.1" xmlns="http://www.w3.org/2000/svg" xmlns:xlink="http://www.w3.org/1999/xlink" xml:space="preserve" style="fill-rule:evenodd;clip-rule:evenodd;stroke-linejoin:round;stroke-miterlimit:1.41421;">
    <g transform="matrix(1,0,0,1,-3,-90)">
        <g transform="matrix(4.92819,0,0,4.92819,-1226.98,-2794.33)">
            <g transform="matrix(0.437498,0,0,0.437498,234.198,293.963)">
                <g id="PS4-Icon-Dark">
                    <path d="M148.217,773.693C143.22,778.458 136.459,781.384 129.02,781.384C122.082,781.384 115.734,778.84 110.86,774.634C103.229,776.702 103.055,791.379 99.543,802.139C90.411,830.113 77.084,839.012 60.084,835.357C39.775,830.99 30.925,814.102 37.162,783.967C37.162,783.967 43.405,733.437 49.994,710.939C52.435,702.605 55.826,691.623 61.829,684.855C66.051,680.095 68.474,670.871 75.904,668.277C78.781,667.273 94.771,663.885 104.876,669.029C104.804,669.021 104.846,671.598 104.846,671.598C104.846,671.598 108.283,675.333 112.986,674.845L112.991,674.859L126.003,674.859L126.003,673.875C126.003,672.881 126.81,672.074 127.804,672.074L216.231,672.074C217.225,672.074 218.032,672.881 218.032,673.875L218.032,674.859L231.044,674.859L231.049,674.845C235.752,675.333 239.189,671.598 239.189,671.598C239.189,671.598 239.23,669.021 239.159,669.029C249.264,663.885 265.254,667.273 268.13,668.277C275.561,670.871 277.984,680.095 282.206,684.855C288.208,691.623 291.6,702.605 294.041,710.939C300.63,733.437 306.873,783.967 306.873,783.967C313.11,814.102 304.26,830.99 283.951,835.357C266.951,839.012 253.624,830.113 244.492,802.139C240.98,791.379 240.805,776.702 233.175,774.634C228.3,778.84 221.953,781.384 215.015,781.384C207.576,781.384 200.814,778.458 195.818,773.693L148.217,773.693ZM215.005,726.555C228.329,726.555 239.146,737.372 239.146,750.696C239.146,764.02 228.329,774.837 215.005,774.837C201.681,774.837 190.864,764.02 190.864,750.696C190.864,737.372 201.681,726.555 215.005,726.555ZM128.108,726.555C141.432,726.555 152.249,737.372 152.249,750.696C152.249,764.02 141.432,774.837 128.108,774.837C114.785,774.837 103.967,764.02 103.967,750.696C103.967,737.372 114.785,726.555 128.108,726.555ZM215.005,732.87C224.843,732.87 232.831,740.858 232.831,750.696C232.831,760.534 224.843,768.522 215.005,768.522C205.167,768.522 197.18,760.534 197.18,750.696C197.18,740.858 205.167,732.87 215.005,732.87ZM128.108,732.87C137.946,732.87 145.934,740.858 145.934,750.696C145.934,760.534 137.946,768.522 128.108,768.522C118.27,768.522 110.283,760.534 110.283,750.696C110.283,740.858 118.27,732.87 128.108,732.87ZM128.108,739.43C134.326,739.43 139.375,744.478 139.375,750.696C139.375,756.914 134.326,761.963 128.108,761.963C121.89,761.963 116.842,756.914 116.842,750.696C116.842,744.478 121.89,739.43 128.108,739.43ZM215.005,739.43C221.223,739.43 226.272,744.478 226.272,750.696C226.272,756.914 221.223,761.963 215.005,761.963C208.787,761.963 203.739,756.914 203.739,750.696C203.739,744.478 208.787,739.43 215.005,739.43ZM172.038,745.485C175.796,745.485 178.847,748.536 178.847,752.294C178.847,756.051 175.796,759.102 172.038,759.102C168.281,759.102 165.23,756.051 165.23,752.294C165.23,748.536 168.281,745.485 172.038,745.485ZM256.713,725.066C261.43,725.066 265.26,728.896 265.26,733.613C265.26,738.33 261.43,742.16 256.713,742.16C251.996,742.16 248.167,738.33 248.167,733.613C248.167,728.896 251.996,725.066 256.713,725.066ZM167.248,738.822C167.963,738.822 168.544,739.403 168.544,740.118C168.544,740.833 167.963,741.414 167.248,741.414C166.532,741.414 165.952,740.833 165.952,740.118C165.952,739.403 166.532,738.822 167.248,738.822ZM172.046,738.822C172.761,738.822 173.342,739.403 173.342,740.118C173.342,740.833 172.761,741.414 172.046,741.414C171.33,741.414 170.75,740.833 170.75,740.118C170.75,739.403 171.33,738.822 172.046,738.822ZM176.844,738.822C177.559,738.822 178.14,739.403 178.14,740.118C178.14,740.833 177.559,741.414 176.844,741.414C176.128,741.414 175.548,740.833 175.548,740.118C175.548,739.403 176.128,738.822 176.844,738.822ZM169.609,735.158C170.324,735.158 170.905,735.738 170.905,736.454C170.905,737.169 170.324,737.75 169.609,737.75C168.894,737.75 168.313,737.169 168.313,736.454C168.313,735.738 168.894,735.158 169.609,735.158ZM179.205,735.158C179.92,735.158 180.501,735.738 180.501,736.454C180.501,737.169 179.92,737.75 179.205,737.75C178.49,737.75 177.909,737.169 177.909,736.454C177.909,735.738 178.49,735.158 179.205,735.158ZM174.407,735.158C175.122,735.158 175.703,735.738 175.703,736.454C175.703,737.169 175.122,737.75 174.407,737.75C173.692,737.75 173.111,737.169 173.111,736.454C173.111,735.738 173.692,735.158 174.407,735.158ZM164.811,735.158C165.526,735.158 166.107,735.738 166.107,736.454C166.107,737.169 165.526,737.75 164.811,737.75C164.096,737.75 163.515,737.169 163.515,736.454C163.515,735.738 164.096,735.158 164.811,735.158ZM256.886,732.767L259.051,730.603C259.291,730.362 259.682,730.362 259.923,730.603C260.164,730.843 260.164,731.234 259.923,731.475L257.758,733.64L259.923,735.804C260.164,736.045 260.164,736.436 259.923,736.677C259.682,736.917 259.291,736.917 259.051,736.677L256.886,734.512L254.721,736.677C254.481,736.917 254.09,736.917 253.849,736.677C253.608,736.436 253.608,736.045 253.849,735.804L256.014,733.64L253.849,731.475C253.608,731.234 253.608,730.843 253.849,730.603C254.09,730.362 254.481,730.362 254.721,730.603L256.886,732.767ZM88.225,717.702L85.367,717.702C84.755,717.706 81.944,721.458 80.697,723.165C80.471,723.395 80.279,723.66 80.129,723.95L80.099,723.992C80.099,723.997 80.099,724.001 80.1,724.006C79.887,724.439 79.767,724.926 79.767,725.441L79.767,731.948C79.767,733.744 81.225,735.202 83.021,735.202L90.533,735.202C92.329,735.202 93.787,733.744 93.787,731.948L93.787,725.441C93.787,724.901 93.655,724.392 93.422,723.944C93.444,723.924 93.455,723.904 93.455,723.884C93.455,723.884 89.016,717.706 88.225,717.702ZM172.024,731.507C172.739,731.507 173.32,732.088 173.32,732.803C173.32,733.518 172.739,734.099 172.024,734.099C171.309,734.099 170.728,733.518 170.728,732.803C170.728,732.088 171.309,731.507 172.024,731.507ZM176.822,731.507C177.537,731.507 178.118,732.088 178.118,732.803C178.118,733.518 177.537,734.099 176.822,734.099C176.107,734.099 175.526,733.518 175.526,732.803C175.526,732.088 176.107,731.507 176.822,731.507ZM167.226,731.507C167.941,731.507 168.522,732.088 168.522,732.803C168.522,733.518 167.941,734.099 167.226,734.099C166.511,734.099 165.93,733.518 165.93,732.803C165.93,732.088 166.511,731.507 167.226,731.507ZM181.62,731.507C182.335,731.507 182.916,732.088 182.916,732.803C182.916,733.518 182.335,734.099 181.62,734.099C180.905,734.099 180.324,733.518 180.324,732.803C180.324,732.088 180.905,731.507 181.62,731.507ZM162.428,731.507C163.143,731.507 163.724,732.088 163.724,732.803C163.724,733.518 163.143,734.099 162.428,734.099C161.713,734.099 161.132,733.518 161.132,732.803C161.132,732.088 161.713,731.507 162.428,731.507ZM236.287,705.358C241.004,705.358 244.834,709.187 244.834,713.904C244.834,718.622 241.004,722.451 236.287,722.451C231.57,722.451 227.74,718.622 227.74,713.904C227.74,709.187 231.57,705.358 236.287,705.358ZM277.14,705.358C281.857,705.358 285.686,709.187 285.686,713.904C285.686,718.622 281.857,722.451 277.14,722.451C272.423,722.451 268.593,718.622 268.593,713.904C268.593,709.187 272.423,705.358 277.14,705.358ZM105.36,706.821L98.852,706.821C98.312,706.821 97.803,706.952 97.355,707.185C97.336,707.163 97.316,707.152 97.295,707.152C97.295,707.152 91.114,711.594 91.114,712.383L91.114,715.241C91.114,715.85 94.868,718.663 96.576,719.91C96.807,720.137 97.071,720.329 97.361,720.479L97.403,720.509C97.408,720.509 97.413,720.508 97.417,720.507C97.85,720.72 98.337,720.84 98.852,720.84L105.36,720.84C107.155,720.84 108.613,719.382 108.613,717.587L108.613,710.074C108.613,708.279 107.156,706.821 105.36,706.821ZM75.209,706.821L68.701,706.821C66.905,706.821 65.448,708.279 65.448,710.074L65.448,717.587C65.448,719.382 66.906,720.84 68.701,720.84L75.209,720.84C75.749,720.84 76.258,720.709 76.706,720.476C76.725,720.498 76.745,720.509 76.766,720.509C76.766,720.509 82.947,716.067 82.947,715.278L82.947,712.42C82.947,711.811 79.193,708.998 77.485,707.751C77.254,707.524 76.99,707.332 76.7,707.182L76.658,707.152C76.653,707.152 76.648,707.153 76.644,707.154C76.211,706.941 75.724,706.821 75.209,706.821ZM215.809,673.835L128.226,673.835L128.226,720.432L215.809,720.432L215.809,673.835ZM277.312,709.462C279.779,709.462 281.781,711.464 281.781,713.931C281.781,716.397 279.779,718.4 277.312,718.4C274.846,718.4 272.843,716.397 272.843,713.931C272.843,711.464 274.846,709.462 277.312,709.462ZM239.688,717.848L233.226,717.848C233.137,717.848 233.053,717.826 232.979,717.788C232.806,717.698 232.687,717.517 232.687,717.309C232.687,717.309 232.687,710.553 232.687,710.553C232.687,710.256 232.929,710.014 233.226,710.014C233.255,710.014 233.283,710.017 233.31,710.021L239.609,710.021C239.637,710.017 239.665,710.014 239.694,710.014C239.991,710.014 240.232,710.256 240.232,710.553L240.232,717.309C240.232,717.606 239.991,717.848 239.694,717.848L239.691,717.848L239.688,717.848ZM277.312,710.56C279.173,710.56 280.684,712.07 280.684,713.931C280.684,715.792 279.173,717.302 277.312,717.302C275.452,717.302 273.941,715.792 273.941,713.931C273.941,712.07 275.452,710.56 277.312,710.56ZM239.155,711.098L233.764,711.098L233.764,716.771L239.155,716.771L239.155,711.098ZM90.533,692.508L83.021,692.508C81.225,692.508 79.767,693.966 79.767,695.761L79.767,702.269C79.767,702.808 79.899,703.317 80.132,703.766C80.11,703.785 80.099,703.805 80.099,703.826C80.099,703.826 84.54,710.007 85.329,710.007L88.187,710.007C88.798,710.006 91.61,706.252 92.857,704.545C93.083,704.314 93.275,704.05 93.425,703.76L93.455,703.718C93.455,703.713 93.455,703.708 93.454,703.704C93.667,703.271 93.787,702.784 93.787,702.269L93.787,695.761C93.787,693.966 92.329,692.508 90.533,692.508ZM256.713,685.649C261.43,685.649 265.26,689.479 265.26,694.196C265.26,698.913 261.43,702.742 256.713,702.742C251.996,702.742 248.167,698.913 248.167,694.196C248.167,689.479 251.996,685.649 256.713,685.649ZM260.564,697.399L253.208,697.399C252.867,697.399 252.591,697.122 252.591,696.782C252.591,696.631 252.645,696.493 252.734,696.386L256.308,690.196C256.357,690.066 256.449,689.952 256.578,689.877C256.677,689.82 256.785,689.793 256.891,689.794C256.998,689.793 257.106,689.82 257.205,689.877C257.334,689.952 257.426,690.066 257.474,690.196L261.099,696.473C261.269,696.768 261.168,697.146 260.873,697.316C260.776,697.372 260.669,697.399 260.565,697.399L260.564,697.399ZM254.287,696.165L259.496,696.165L256.891,691.654L254.287,696.165ZM121.229,683.895C121.229,681.728 119.47,679.969 117.304,679.969C115.137,679.969 113.378,681.728 113.378,683.895L113.378,690.775C113.378,692.942 115.137,694.701 117.304,694.701C119.47,694.701 121.229,692.942 121.229,690.775L121.229,683.895ZM228.57,683.895C228.57,681.728 226.811,679.969 224.645,679.969C222.478,679.969 220.719,681.728 220.719,683.895L220.719,690.775C220.719,692.942 222.478,694.701 224.645,694.701C226.811,694.701 228.57,692.942 228.57,690.775L228.57,683.895Z" style="fill:rgb(59,59,59);"/>
                </g>
            </g>
        </g>
    </g>
</svg>
