<?xml version="1.0" encoding="UTF-8" standalone="no"?>
<!DOCTYPE svg PUBLIC "-//W3C//DTD SVG 1.1//EN" "http://www.w3.org/Graphics/SVG/1.1/DTD/svg11.dtd">
<svg width="100%" height="100%" viewBox="0 0 270 270" version="1.1" xmlns="http://www.w3.org/2000/svg" xmlns:xlink="http://www.w3.org/1999/xlink" xml:space="preserve" style="fill-rule:evenodd;clip-rule:evenodd;stroke-linejoin:round;stroke-miterlimit:1.41421;">
    <g transform="matrix(1,0,0,1,-201,-146)">
        <g transform="matrix(4.92819,0,0,4.92819,-1226.98,-2794.33)">
            <g id="X-Button-Dark" transform="matrix(1,0,0,1,-75.8735,188.296)">
                <g transform="matrix(1,0,0,1,-535.359,275.292)">
                    <circle cx="928.402" cy="160.507" r="27.32" style="fill:rgb(59,59,59);"/>
                </g>
                <g transform="matrix(1,0,0,1,-599.562,-308.336)">
                    <g transform="matrix(-0.750534,1.94893e-16,-9.69211e-17,-0.872988,1691.49,1343.96)">
                        <path d="M947.255,674.725C947.255,673.636 946.227,672.753 944.961,672.753L917.438,672.753C916.172,672.753 915.144,673.636 915.144,674.725C915.144,675.813 916.172,676.697 917.438,676.697L944.961,676.697C946.227,676.697 947.255,675.813 947.255,674.725Z" style="fill:rgb(249,95,199);"/>
                    </g>
                    <g transform="matrix(-0.750534,1.94893e-16,-9.69211e-17,-0.872988,1691.49,1322.38)">
                        <path d="M947.255,674.725C947.255,673.636 946.227,672.753 944.961,672.753L917.438,672.753C916.172,672.753 915.144,673.636 915.144,674.725C915.144,675.813 916.172,676.697 917.438,676.697L944.961,676.697C946.227,676.697 947.255,675.813 947.255,674.725Z" style="fill:rgb(249,95,199);"/>
                    </g>
                    <g transform="matrix(-1.91554e-16,0.779789,-0.872988,-3.44218e-16,1571.29,17.9958)">
                        <path d="M947.255,674.725C947.255,673.636 946.266,672.753 945.047,672.753L917.352,672.753C916.134,672.753 915.144,673.636 915.144,674.725C915.144,675.813 916.134,676.697 917.352,676.697L945.047,676.697C946.266,676.697 947.255,675.813 947.255,674.725Z" style="fill:rgb(249,95,199);"/>
                    </g>
                    <g transform="matrix(-1.91554e-16,0.779789,-0.872988,-3.44218e-16,1591.97,17.9958)">
                        <path d="M947.255,674.725C947.255,673.636 946.266,672.753 945.047,672.753L917.352,672.753C916.134,672.753 915.144,673.636 915.144,674.725C915.144,675.813 916.134,676.697 917.352,676.697L945.047,676.697C946.266,676.697 947.255,675.813 947.255,674.725Z" style="fill:rgb(249,95,199);"/>
                    </g>
                </g>
            </g>
        </g>
    </g>
</svg>
