<?xml version="1.0" encoding="UTF-8" standalone="no"?>
<!DOCTYPE svg PUBLIC "-//W3C//DTD SVG 1.1//EN" "http://www.w3.org/Graphics/SVG/1.1/DTD/svg11.dtd">
<svg width="100%" height="100%" viewBox="0 0 348 100" version="1.1" xmlns="http://www.w3.org/2000/svg" xmlns:xlink="http://www.w3.org/1999/xlink" xml:space="preserve" style="fill-rule:evenodd;clip-rule:evenodd;stroke-linejoin:round;stroke-miterlimit:1.41421;">
    <g id="Green-Button-Outline" transform="matrix(2.2305,0,0,2.22202,-727.144,-488.845)">
        <path d="M477.575,220L477.633,220.001L477.69,220.003L477.748,220.006L477.805,220.009L477.862,220.013L477.919,220.018L477.975,220.023L478.032,220.029L478.088,220.036L478.144,220.044L478.199,220.052L478.255,220.061L478.31,220.07L478.365,220.081L478.42,220.091L478.475,220.103L478.529,220.115L478.583,220.128L478.637,220.142L478.69,220.156L478.744,220.171L478.797,220.186L478.85,220.202L478.902,220.219L478.954,220.237L479.006,220.255L479.058,220.273L479.109,220.292L479.16,220.312L479.211,220.333L479.261,220.354L479.311,220.376L479.361,220.398L479.411,220.421L479.46,220.444L479.509,220.468L479.557,220.493L479.605,220.518L479.653,220.543L479.701,220.57L479.748,220.597L479.795,220.624L479.841,220.652L479.887,220.68L479.933,220.709L479.978,220.739L480.023,220.769L480.067,220.8L480.111,220.831L480.155,220.862L480.199,220.894L480.242,220.927L480.284,220.96L480.326,220.994L480.368,221.028L480.409,221.063L480.45,221.098L480.491,221.134L480.531,221.17L480.57,221.206L480.609,221.243L480.648,221.281L480.686,221.319L480.724,221.357L480.762,221.396L480.798,221.435L480.835,221.475L480.871,221.515L480.906,221.556L480.941,221.597L480.976,221.638L481.01,221.68L481.043,221.722L481.076,221.765L481.109,221.808L481.141,221.852L481.172,221.896L481.203,221.94L481.234,221.985L481.264,222.03L481.293,222.075L481.322,222.121L481.351,222.167L481.378,222.214L481.406,222.261L481.432,222.308L481.459,222.356L481.484,222.404L481.509,222.452L481.534,222.501L481.558,222.55L481.581,222.599L481.604,222.649L481.626,222.699L481.647,222.749L481.668,222.8L481.689,222.851L481.709,222.902L481.728,222.953L481.746,223.005L481.764,223.057L481.782,223.11L481.798,223.162L481.814,223.215L481.83,223.269L481.845,223.322L481.859,223.376L481.872,223.43L481.885,223.484L481.897,223.539L481.909,223.594L481.92,223.649L481.93,223.704L481.939,223.759L481.948,223.815L481.956,223.871L481.964,223.927L481.971,223.984L481.977,224.04L481.982,224.097L481.987,224.154L481.991,224.211L481.994,224.269L481.997,224.326L481.999,224.384L482,224.442L482,224.5L482,260.5L482,260.558L481.999,260.616L481.997,260.674L481.994,260.731L481.991,260.789L481.987,260.846L481.982,260.903L481.977,260.96L481.971,261.016L481.964,261.073L481.956,261.129L481.948,261.185L481.939,261.241L481.93,261.296L481.92,261.351L481.909,261.406L481.897,261.461L481.885,261.516L481.872,261.57L481.859,261.624L481.845,261.678L481.83,261.731L481.814,261.785L481.798,261.838L481.782,261.89L481.764,261.943L481.746,261.995L481.728,262.047L481.709,262.098L481.689,262.149L481.668,262.2L481.647,262.251L481.626,262.301L481.604,262.351L481.581,262.401L481.558,262.45L481.534,262.499L481.509,262.548L481.484,262.596L481.459,262.644L481.432,262.692L481.406,262.739L481.378,262.786L481.351,262.833L481.322,262.879L481.293,262.925L481.264,262.97L481.234,263.015L481.203,263.06L481.172,263.104L481.141,263.148L481.109,263.192L481.076,263.235L481.043,263.278L481.01,263.32L480.976,263.362L480.941,263.403L480.906,263.444L480.871,263.485L480.835,263.525L480.798,263.565L480.762,263.604L480.724,263.643L480.686,263.681L480.648,263.719L480.609,263.757L480.57,263.794L480.531,263.83L480.491,263.866L480.45,263.902L480.409,263.937L480.368,263.972L480.326,264.006L480.284,264.04L480.242,264.073L480.199,264.106L480.155,264.138L480.111,264.169L480.067,264.2L480.023,264.231L479.978,264.261L479.933,264.291L479.887,264.32L479.841,264.348L479.795,264.376L479.748,264.403L479.701,264.43L479.653,264.457L479.605,264.482L479.557,264.507L479.509,264.532L479.46,264.556L479.411,264.579L479.361,264.602L479.311,264.624L479.261,264.646L479.211,264.667L479.16,264.688L479.109,264.708L479.058,264.727L479.006,264.745L478.954,264.763L478.902,264.781L478.85,264.798L478.797,264.814L478.744,264.829L478.69,264.844L478.637,264.858L478.583,264.872L478.529,264.885L478.475,264.897L478.42,264.909L478.365,264.919L478.31,264.93L478.255,264.939L478.199,264.948L478.144,264.956L478.088,264.964L478.032,264.971L477.975,264.977L477.919,264.982L477.862,264.987L477.805,264.991L477.748,264.994L477.69,264.997L477.633,264.999L477.575,265L477.517,265L330.483,265L330.425,265L330.367,264.999L330.31,264.997L330.252,264.994L330.195,264.991L330.138,264.987L330.081,264.982L330.025,264.977L329.968,264.971L329.912,264.964L329.856,264.956L329.801,264.948L329.745,264.939L329.69,264.93L329.635,264.919L329.58,264.909L329.525,264.897L329.471,264.885L329.417,264.872L329.363,264.858L329.31,264.844L329.256,264.829L329.203,264.814L329.15,264.798L329.098,264.781L329.046,264.763L328.994,264.745L328.942,264.727L328.891,264.708L328.84,264.688L328.789,264.667L328.739,264.646L328.689,264.624L328.639,264.602L328.589,264.579L328.54,264.556L328.491,264.532L328.443,264.507L328.395,264.482L328.347,264.457L328.299,264.43L328.252,264.403L328.205,264.376L328.159,264.348L328.113,264.32L328.067,264.291L328.022,264.261L327.977,264.231L327.933,264.2L327.889,264.169L327.845,264.138L327.801,264.106L327.758,264.073L327.716,264.04L327.674,264.006L327.632,263.972L327.591,263.937L327.55,263.902L327.509,263.866L327.469,263.83L327.43,263.794L327.391,263.757L327.352,263.719L327.314,263.681L327.276,263.643L327.238,263.604L327.202,263.565L327.165,263.525L327.129,263.485L327.094,263.444L327.059,263.403L327.024,263.362L326.99,263.32L326.957,263.278L326.924,263.235L326.891,263.192L326.859,263.148L326.828,263.104L326.797,263.06L326.766,263.015L326.736,262.97L326.707,262.925L326.678,262.879L326.649,262.833L326.622,262.786L326.594,262.739L326.568,262.692L326.541,262.644L326.516,262.596L326.491,262.548L326.466,262.499L326.442,262.45L326.419,262.401L326.396,262.351L326.374,262.301L326.353,262.251L326.332,262.2L326.311,262.149L326.291,262.098L326.272,262.047L326.254,261.995L326.236,261.943L326.218,261.89L326.202,261.838L326.186,261.785L326.17,261.731L326.155,261.678L326.141,261.624L326.128,261.57L326.115,261.516L326.103,261.461L326.091,261.406L326.08,261.351L326.07,261.296L326.061,261.241L326.052,261.185L326.044,261.129L326.036,261.073L326.029,261.016L326.023,260.96L326.018,260.903L326.013,260.846L326.009,260.789L326.006,260.731L326.003,260.674L326.001,260.616L326,260.558L326,260.5L326,224.5L326,224.442L326.001,224.384L326.003,224.326L326.006,224.269L326.009,224.211L326.013,224.154L326.018,224.097L326.023,224.04L326.029,223.984L326.036,223.927L326.044,223.871L326.052,223.815L326.061,223.759L326.07,223.704L326.08,223.649L326.091,223.594L326.103,223.539L326.115,223.484L326.128,223.43L326.141,223.376L326.155,223.322L326.17,223.269L326.186,223.215L326.202,223.162L326.218,223.11L326.236,223.057L326.254,223.005L326.272,222.953L326.291,222.902L326.311,222.851L326.332,222.8L326.353,222.749L326.374,222.699L326.396,222.649L326.419,222.599L326.442,222.55L326.466,222.501L326.491,222.452L326.516,222.404L326.541,222.356L326.568,222.308L326.594,222.261L326.622,222.214L326.649,222.167L326.678,222.121L326.707,222.075L326.736,222.03L326.766,221.985L326.797,221.94L326.828,221.896L326.859,221.852L326.891,221.808L326.924,221.765L326.957,221.722L326.99,221.68L327.024,221.638L327.059,221.597L327.094,221.556L327.129,221.515L327.165,221.475L327.202,221.435L327.238,221.396L327.276,221.357L327.314,221.319L327.352,221.281L327.391,221.243L327.43,221.206L327.469,221.17L327.509,221.134L327.55,221.098L327.591,221.063L327.632,221.028L327.674,220.994L327.716,220.96L327.758,220.927L327.801,220.894L327.845,220.862L327.889,220.831L327.933,220.8L327.977,220.769L328.022,220.739L328.067,220.709L328.113,220.68L328.159,220.652L328.205,220.624L328.252,220.597L328.299,220.57L328.347,220.543L328.395,220.518L328.443,220.493L328.491,220.468L328.54,220.444L328.589,220.421L328.639,220.398L328.689,220.376L328.739,220.354L328.789,220.333L328.84,220.312L328.891,220.292L328.942,220.273L328.994,220.255L329.046,220.237L329.098,220.219L329.15,220.202L329.203,220.186L329.256,220.171L329.31,220.156L329.363,220.142L329.417,220.128L329.471,220.115L329.525,220.103L329.58,220.091L329.635,220.081L329.69,220.07L329.745,220.061L329.801,220.052L329.856,220.044L329.912,220.036L329.968,220.029L330.025,220.023L330.081,220.018L330.138,220.013L330.195,220.009L330.252,220.006L330.31,220.003L330.367,220.001L330.425,220L330.483,220L477.517,220L477.575,220ZM330.486,220.9L330.436,220.9L330.39,220.901L330.344,220.903L330.298,220.905L330.252,220.907L330.206,220.911L330.161,220.914L330.116,220.919L330.07,220.924L330.025,220.929L329.981,220.935L329.936,220.942L329.892,220.949L329.848,220.956L329.804,220.965L329.76,220.973L329.716,220.983L329.673,220.992L329.63,221.003L329.587,221.013L329.544,221.025L329.501,221.037L329.459,221.049L329.417,221.062L329.375,221.075L329.333,221.089L329.292,221.104L329.251,221.118L329.21,221.134L329.169,221.15L329.128,221.166L329.088,221.183L329.048,221.2L329.008,221.218L328.969,221.236L328.93,221.255L328.89,221.274L328.852,221.294L328.813,221.314L328.775,221.334L328.737,221.355L328.699,221.377L328.662,221.399L328.625,221.421L328.588,221.444L328.551,221.467L328.515,221.491L328.479,221.515L328.444,221.539L328.408,221.564L328.373,221.589L328.339,221.615L328.304,221.641L328.27,221.668L328.236,221.695L328.203,221.722L328.17,221.75L328.137,221.778L328.105,221.807L328.072,221.836L328.041,221.865L328.009,221.895L327.978,221.925L327.948,221.955L327.917,221.986L327.887,222.017L327.858,222.049L327.829,222.08L327.8,222.113L327.771,222.145L327.743,222.178L327.716,222.211L327.688,222.245L327.662,222.279L327.635,222.313L327.609,222.347L327.583,222.382L327.558,222.417L327.533,222.453L327.509,222.489L327.485,222.525L327.461,222.561L327.438,222.598L327.416,222.635L327.393,222.672L327.372,222.71L327.35,222.748L327.329,222.786L327.309,222.824L327.289,222.863L327.269,222.902L327.25,222.941L327.231,222.98L327.213,223.02L327.196,223.06L327.178,223.1L327.162,223.14L327.145,223.181L327.129,223.222L327.114,223.263L327.099,223.304L327.085,223.346L327.071,223.388L327.058,223.43L327.045,223.472L327.033,223.515L327.021,223.557L327.01,223.6L326.999,223.644L326.989,223.687L326.979,223.73L326.97,223.774L326.961,223.818L326.953,223.862L326.945,223.907L326.938,223.951L326.932,223.996L326.926,224.041L326.92,224.086L326.915,224.131L326.911,224.177L326.907,224.222L326.904,224.268L326.901,224.314L326.899,224.36L326.898,224.407L326.897,224.453L326.897,224.503L326.897,260.497L326.897,260.547L326.898,260.593L326.899,260.64L326.901,260.686L326.904,260.732L326.907,260.778L326.911,260.823L326.915,260.869L326.92,260.914L326.926,260.959L326.932,261.004L326.938,261.049L326.945,261.093L326.953,261.138L326.961,261.182L326.97,261.226L326.979,261.27L326.989,261.313L326.999,261.356L327.01,261.4L327.021,261.443L327.033,261.485L327.045,261.528L327.058,261.57L327.071,261.612L327.085,261.654L327.099,261.696L327.114,261.737L327.129,261.778L327.145,261.819L327.162,261.86L327.178,261.9L327.196,261.94L327.213,261.98L327.231,262.02L327.25,262.059L327.269,262.098L327.289,262.137L327.309,262.176L327.329,262.214L327.35,262.252L327.372,262.29L327.393,262.328L327.416,262.365L327.438,262.402L327.461,262.439L327.485,262.475L327.509,262.511L327.533,262.547L327.558,262.583L327.583,262.618L327.609,262.653L327.635,262.687L327.662,262.721L327.688,262.755L327.716,262.789L327.743,262.822L327.771,262.855L327.8,262.887L327.829,262.92L327.858,262.951L327.887,262.983L327.917,263.014L327.948,263.045L327.978,263.075L328.009,263.105L328.041,263.135L328.072,263.164L328.105,263.193L328.137,263.222L328.17,263.25L328.203,263.278L328.236,263.305L328.27,263.332L328.304,263.359L328.339,263.385L328.373,263.411L328.408,263.436L328.444,263.461L328.479,263.485L328.515,263.509L328.551,263.533L328.588,263.556L328.625,263.579L328.662,263.601L328.699,263.623L328.737,263.645L328.775,263.666L328.813,263.686L328.852,263.706L328.891,263.726L328.93,263.745L328.969,263.764L329.008,263.782L329.048,263.8L329.088,263.817L329.128,263.834L329.169,263.85L329.21,263.866L329.251,263.882L329.292,263.896L329.333,263.911L329.375,263.925L329.417,263.938L329.459,263.951L329.501,263.963L329.544,263.975L329.587,263.987L329.63,263.997L329.673,264.008L329.716,264.017L329.76,264.027L329.804,264.035L329.848,264.044L329.892,264.051L329.936,264.058L329.981,264.065L330.025,264.071L330.07,264.076L330.116,264.081L330.161,264.086L330.206,264.089L330.252,264.093L330.298,264.095L330.344,264.097L330.39,264.099L330.436,264.1L330.486,264.1L477.514,264.1L477.564,264.1L477.61,264.099L477.656,264.097L477.702,264.095L477.748,264.093L477.794,264.089L477.839,264.086L477.884,264.081L477.93,264.076L477.975,264.071L478.019,264.065L478.064,264.058L478.108,264.051L478.152,264.044L478.196,264.035L478.24,264.027L478.284,264.017L478.327,264.008L478.37,263.997L478.413,263.987L478.456,263.975L478.499,263.963L478.541,263.951L478.583,263.938L478.625,263.925L478.667,263.911L478.708,263.896L478.749,263.882L478.79,263.866L478.831,263.85L478.872,263.834L478.912,263.817L478.952,263.8L478.992,263.782L479.031,263.764L479.07,263.745L479.109,263.726L479.148,263.706L479.187,263.686L479.225,263.666L479.263,263.645L479.301,263.623L479.338,263.601L479.375,263.579L479.412,263.556L479.449,263.533L479.485,263.509L479.521,263.485L479.556,263.461L479.592,263.436L479.627,263.411L479.661,263.385L479.696,263.359L479.73,263.332L479.764,263.305L479.797,263.278L479.83,263.25L479.863,263.222L479.895,263.193L479.928,263.164L479.959,263.135L479.991,263.105L480.022,263.075L480.052,263.045L480.083,263.014L480.113,262.983L480.142,262.951L480.171,262.92L480.2,262.887L480.229,262.855L480.257,262.822L480.284,262.789L480.311,262.755L480.338,262.721L480.365,262.687L480.391,262.653L480.417,262.618L480.442,262.583L480.467,262.547L480.491,262.511L480.515,262.475L480.539,262.439L480.562,262.402L480.584,262.365L480.607,262.328L480.628,262.29L480.65,262.253L480.671,262.214L480.691,262.176L480.711,262.137L480.731,262.098L480.75,262.059L480.769,262.02L480.787,261.98L480.804,261.94L480.822,261.9L480.838,261.86L480.855,261.819L480.871,261.778L480.886,261.737L480.901,261.696L480.915,261.654L480.929,261.612L480.942,261.57L480.955,261.528L480.967,261.485L480.979,261.442L480.99,261.4L481.001,261.356L481.011,261.313L481.021,261.27L481.03,261.226L481.039,261.182L481.047,261.138L481.055,261.093L481.062,261.049L481.068,261.004L481.074,260.959L481.08,260.914L481.085,260.869L481.089,260.823L481.093,260.778L481.096,260.732L481.099,260.686L481.101,260.64L481.102,260.593L481.103,260.547L481.103,260.497L481.103,224.503L481.103,224.453L481.102,224.407L481.101,224.36L481.099,224.314L481.096,224.268L481.093,224.222L481.089,224.177L481.085,224.131L481.08,224.086L481.074,224.041L481.068,223.996L481.062,223.951L481.055,223.907L481.047,223.862L481.039,223.818L481.03,223.774L481.021,223.73L481.011,223.687L481.001,223.644L480.99,223.6L480.979,223.558L480.967,223.515L480.955,223.472L480.942,223.43L480.929,223.388L480.915,223.346L480.901,223.304L480.886,223.263L480.871,223.222L480.855,223.181L480.838,223.14L480.822,223.1L480.804,223.06L480.787,223.02L480.769,222.98L480.75,222.941L480.731,222.902L480.711,222.863L480.691,222.824L480.671,222.786L480.65,222.747L480.628,222.71L480.607,222.672L480.584,222.635L480.562,222.598L480.539,222.561L480.515,222.525L480.491,222.489L480.467,222.453L480.442,222.417L480.417,222.382L480.391,222.347L480.365,222.313L480.338,222.279L480.312,222.245L480.284,222.211L480.257,222.178L480.229,222.145L480.2,222.113L480.171,222.08L480.142,222.049L480.113,222.017L480.083,221.986L480.052,221.955L480.022,221.925L479.991,221.895L479.959,221.865L479.928,221.836L479.895,221.807L479.863,221.778L479.83,221.75L479.797,221.722L479.764,221.695L479.73,221.668L479.696,221.641L479.661,221.615L479.627,221.589L479.592,221.564L479.556,221.539L479.521,221.515L479.485,221.491L479.449,221.467L479.412,221.444L479.375,221.421L479.338,221.399L479.301,221.377L479.263,221.355L479.225,221.334L479.187,221.314L479.148,221.294L479.109,221.274L479.07,221.255L479.031,221.236L478.992,221.218L478.952,221.2L478.912,221.183L478.872,221.166L478.831,221.15L478.79,221.134L478.749,221.118L478.708,221.104L478.667,221.089L478.625,221.075L478.583,221.062L478.541,221.049L478.499,221.037L478.456,221.025L478.413,221.013L478.37,221.003L478.327,220.992L478.284,220.983L478.24,220.973L478.196,220.965L478.152,220.956L478.108,220.949L478.064,220.942L478.019,220.935L477.975,220.929L477.93,220.924L477.884,220.919L477.839,220.914L477.794,220.911L477.748,220.907L477.702,220.905L477.656,220.903L477.61,220.901L477.564,220.9L477.514,220.9L330.486,220.9Z" style="fill:rgb(3,189,91);"/>
    </g>
</svg>
