<?xml version="1.0" encoding="UTF-8" standalone="no"?>
<!DOCTYPE svg PUBLIC "-//W3C//DTD SVG 1.1//EN" "http://www.w3.org/Graphics/SVG/1.1/DTD/svg11.dtd">
<svg width="100%" height="100%" viewBox="0 0 348 100" version="1.1" xmlns="http://www.w3.org/2000/svg" xmlns:xlink="http://www.w3.org/1999/xlink" xml:space="preserve" style="fill-rule:evenodd;clip-rule:evenodd;stroke-linejoin:round;stroke-miterlimit:1.41421;">
    <g id="Orange-Button-Outline" transform="matrix(2.2305,0,0,2.22202,-1556.89,-488.845)">
        <path d="M849.575,220L849.633,220.001L849.69,220.003L849.748,220.006L849.805,220.009L849.862,220.013L849.919,220.018L849.975,220.023L850.032,220.029L850.088,220.036L850.144,220.044L850.199,220.052L850.255,220.061L850.31,220.07L850.365,220.081L850.42,220.091L850.475,220.103L850.529,220.115L850.583,220.128L850.637,220.142L850.69,220.156L850.744,220.171L850.797,220.186L850.85,220.202L850.902,220.219L850.954,220.237L851.006,220.255L851.058,220.273L851.109,220.292L851.16,220.312L851.211,220.333L851.261,220.354L851.311,220.376L851.361,220.398L851.411,220.421L851.46,220.444L851.509,220.468L851.557,220.493L851.605,220.518L851.653,220.543L851.701,220.57L851.748,220.597L851.795,220.624L851.841,220.652L851.887,220.68L851.933,220.709L851.978,220.739L852.023,220.769L852.067,220.8L852.111,220.831L852.155,220.862L852.199,220.894L852.242,220.927L852.284,220.96L852.326,220.994L852.368,221.028L852.409,221.063L852.45,221.098L852.491,221.134L852.531,221.17L852.57,221.206L852.609,221.243L852.648,221.281L852.686,221.319L852.724,221.357L852.762,221.396L852.798,221.435L852.835,221.475L852.871,221.515L852.906,221.556L852.941,221.597L852.976,221.638L853.01,221.68L853.043,221.722L853.076,221.765L853.109,221.808L853.141,221.852L853.172,221.896L853.203,221.94L853.234,221.985L853.264,222.03L853.293,222.075L853.322,222.121L853.351,222.167L853.378,222.214L853.406,222.261L853.432,222.308L853.459,222.356L853.484,222.404L853.509,222.452L853.534,222.501L853.558,222.55L853.581,222.599L853.604,222.649L853.626,222.699L853.647,222.749L853.668,222.8L853.689,222.851L853.709,222.902L853.728,222.953L853.746,223.005L853.764,223.057L853.782,223.11L853.798,223.162L853.814,223.215L853.83,223.269L853.845,223.322L853.859,223.376L853.872,223.43L853.885,223.484L853.897,223.539L853.909,223.594L853.92,223.649L853.93,223.704L853.939,223.759L853.948,223.815L853.956,223.871L853.964,223.927L853.971,223.984L853.977,224.04L853.982,224.097L853.987,224.154L853.991,224.211L853.994,224.269L853.997,224.326L853.999,224.384L854,224.442L854,224.5L854,260.5L854,260.558L853.999,260.616L853.997,260.674L853.994,260.731L853.991,260.789L853.987,260.846L853.982,260.903L853.977,260.96L853.971,261.016L853.964,261.073L853.956,261.129L853.948,261.185L853.939,261.241L853.93,261.296L853.92,261.351L853.909,261.406L853.897,261.461L853.885,261.516L853.872,261.57L853.859,261.624L853.845,261.678L853.83,261.731L853.814,261.785L853.798,261.838L853.782,261.89L853.764,261.943L853.746,261.995L853.728,262.047L853.709,262.098L853.689,262.149L853.668,262.2L853.647,262.251L853.626,262.301L853.604,262.351L853.581,262.401L853.558,262.45L853.534,262.499L853.509,262.548L853.484,262.596L853.459,262.644L853.432,262.692L853.406,262.739L853.378,262.786L853.351,262.833L853.322,262.879L853.293,262.925L853.264,262.97L853.234,263.015L853.203,263.06L853.172,263.104L853.141,263.148L853.109,263.192L853.076,263.235L853.043,263.278L853.01,263.32L852.976,263.362L852.941,263.403L852.906,263.444L852.871,263.485L852.835,263.525L852.798,263.565L852.762,263.604L852.724,263.643L852.686,263.681L852.648,263.719L852.609,263.757L852.57,263.794L852.531,263.83L852.491,263.866L852.45,263.902L852.409,263.937L852.368,263.972L852.326,264.006L852.284,264.04L852.242,264.073L852.199,264.106L852.155,264.138L852.111,264.169L852.067,264.2L852.023,264.231L851.978,264.261L851.933,264.291L851.887,264.32L851.841,264.348L851.795,264.376L851.748,264.403L851.701,264.43L851.653,264.457L851.605,264.482L851.557,264.507L851.509,264.532L851.46,264.556L851.411,264.579L851.361,264.602L851.311,264.624L851.261,264.646L851.211,264.667L851.16,264.688L851.109,264.708L851.058,264.727L851.006,264.745L850.954,264.763L850.902,264.781L850.85,264.798L850.797,264.814L850.744,264.829L850.69,264.844L850.637,264.858L850.583,264.872L850.529,264.885L850.475,264.897L850.42,264.909L850.365,264.919L850.31,264.93L850.255,264.939L850.199,264.948L850.144,264.956L850.088,264.964L850.032,264.971L849.975,264.977L849.919,264.982L849.862,264.987L849.805,264.991L849.748,264.994L849.69,264.997L849.633,264.999L849.575,265L849.517,265L702.483,265L702.425,265L702.367,264.999L702.31,264.997L702.252,264.994L702.195,264.991L702.138,264.987L702.081,264.982L702.025,264.977L701.968,264.971L701.912,264.964L701.856,264.956L701.801,264.948L701.745,264.939L701.69,264.93L701.635,264.919L701.58,264.909L701.525,264.897L701.471,264.885L701.417,264.872L701.363,264.858L701.31,264.844L701.256,264.829L701.203,264.814L701.15,264.798L701.098,264.781L701.046,264.763L700.994,264.745L700.942,264.727L700.891,264.708L700.84,264.688L700.789,264.667L700.739,264.646L700.689,264.624L700.639,264.602L700.589,264.579L700.54,264.556L700.491,264.532L700.443,264.507L700.395,264.482L700.347,264.457L700.299,264.43L700.252,264.403L700.205,264.376L700.159,264.348L700.113,264.32L700.067,264.291L700.022,264.261L699.977,264.231L699.933,264.2L699.889,264.169L699.845,264.138L699.801,264.106L699.758,264.073L699.716,264.04L699.674,264.006L699.632,263.972L699.591,263.937L699.55,263.902L699.509,263.866L699.469,263.83L699.43,263.794L699.391,263.757L699.352,263.719L699.314,263.681L699.276,263.643L699.238,263.604L699.202,263.565L699.165,263.525L699.129,263.485L699.094,263.444L699.059,263.403L699.024,263.362L698.99,263.32L698.957,263.278L698.924,263.235L698.891,263.192L698.859,263.148L698.828,263.104L698.797,263.06L698.766,263.015L698.736,262.97L698.707,262.925L698.678,262.879L698.649,262.833L698.622,262.786L698.594,262.739L698.568,262.692L698.541,262.644L698.516,262.596L698.491,262.548L698.466,262.499L698.442,262.45L698.419,262.401L698.396,262.351L698.374,262.301L698.353,262.251L698.332,262.2L698.311,262.149L698.291,262.098L698.272,262.047L698.254,261.995L698.236,261.943L698.218,261.89L698.202,261.838L698.186,261.785L698.17,261.731L698.155,261.678L698.141,261.624L698.128,261.57L698.115,261.516L698.103,261.461L698.091,261.406L698.08,261.351L698.07,261.296L698.061,261.241L698.052,261.185L698.044,261.129L698.036,261.073L698.029,261.016L698.023,260.96L698.018,260.903L698.013,260.846L698.009,260.789L698.006,260.731L698.003,260.674L698.001,260.616L698,260.558L698,260.5L698,224.5L698,224.442L698.001,224.384L698.003,224.326L698.006,224.269L698.009,224.211L698.013,224.154L698.018,224.097L698.023,224.04L698.029,223.984L698.036,223.927L698.044,223.871L698.052,223.815L698.061,223.759L698.07,223.704L698.08,223.649L698.091,223.594L698.103,223.539L698.115,223.484L698.128,223.43L698.141,223.376L698.155,223.322L698.17,223.269L698.186,223.215L698.202,223.162L698.218,223.11L698.236,223.057L698.254,223.005L698.272,222.953L698.291,222.902L698.311,222.851L698.332,222.8L698.353,222.749L698.374,222.699L698.396,222.649L698.419,222.599L698.442,222.55L698.466,222.501L698.491,222.452L698.516,222.404L698.541,222.356L698.568,222.308L698.594,222.261L698.622,222.214L698.649,222.167L698.678,222.121L698.707,222.075L698.736,222.03L698.766,221.985L698.797,221.94L698.828,221.896L698.859,221.852L698.891,221.808L698.924,221.765L698.957,221.722L698.99,221.68L699.024,221.638L699.059,221.597L699.094,221.556L699.129,221.515L699.165,221.475L699.202,221.435L699.238,221.396L699.276,221.357L699.314,221.319L699.352,221.281L699.391,221.243L699.43,221.206L699.469,221.17L699.509,221.134L699.55,221.098L699.591,221.063L699.632,221.028L699.674,220.994L699.716,220.96L699.758,220.927L699.801,220.894L699.845,220.862L699.889,220.831L699.933,220.8L699.977,220.769L700.022,220.739L700.067,220.709L700.113,220.68L700.159,220.652L700.205,220.624L700.252,220.597L700.299,220.57L700.347,220.543L700.395,220.518L700.443,220.493L700.491,220.468L700.54,220.444L700.589,220.421L700.639,220.398L700.689,220.376L700.739,220.354L700.789,220.333L700.84,220.312L700.891,220.292L700.942,220.273L700.994,220.255L701.046,220.237L701.098,220.219L701.15,220.202L701.203,220.186L701.256,220.171L701.31,220.156L701.363,220.142L701.417,220.128L701.471,220.115L701.525,220.103L701.58,220.091L701.635,220.081L701.69,220.07L701.745,220.061L701.801,220.052L701.856,220.044L701.912,220.036L701.968,220.029L702.025,220.023L702.081,220.018L702.138,220.013L702.195,220.009L702.252,220.006L702.31,220.003L702.367,220.001L702.425,220L702.483,220L849.517,220L849.575,220ZM702.486,220.9L702.436,220.9L702.39,220.901L702.344,220.903L702.298,220.905L702.252,220.907L702.206,220.911L702.161,220.914L702.116,220.919L702.07,220.924L702.025,220.929L701.981,220.935L701.936,220.942L701.892,220.949L701.848,220.956L701.804,220.965L701.76,220.973L701.716,220.983L701.673,220.992L701.63,221.003L701.587,221.013L701.544,221.025L701.501,221.037L701.459,221.049L701.417,221.062L701.375,221.075L701.333,221.089L701.292,221.104L701.251,221.118L701.21,221.134L701.169,221.15L701.128,221.166L701.088,221.183L701.048,221.2L701.008,221.218L700.969,221.236L700.93,221.255L700.89,221.274L700.852,221.294L700.813,221.314L700.775,221.334L700.737,221.355L700.699,221.377L700.662,221.399L700.625,221.421L700.588,221.444L700.551,221.467L700.515,221.491L700.479,221.515L700.444,221.539L700.408,221.564L700.373,221.589L700.339,221.615L700.304,221.641L700.27,221.668L700.236,221.695L700.203,221.722L700.17,221.75L700.137,221.778L700.105,221.807L700.072,221.836L700.041,221.865L700.009,221.895L699.978,221.925L699.948,221.955L699.917,221.986L699.887,222.017L699.858,222.049L699.829,222.08L699.8,222.113L699.771,222.145L699.743,222.178L699.716,222.211L699.688,222.245L699.662,222.279L699.635,222.313L699.609,222.347L699.583,222.382L699.558,222.417L699.533,222.453L699.509,222.489L699.485,222.525L699.461,222.561L699.438,222.598L699.416,222.635L699.393,222.672L699.372,222.71L699.35,222.748L699.329,222.786L699.309,222.824L699.289,222.863L699.269,222.902L699.25,222.941L699.231,222.98L699.213,223.02L699.196,223.06L699.178,223.1L699.162,223.14L699.145,223.181L699.129,223.222L699.114,223.263L699.099,223.304L699.085,223.346L699.071,223.388L699.058,223.43L699.045,223.472L699.033,223.515L699.021,223.557L699.01,223.6L698.999,223.644L698.989,223.687L698.979,223.73L698.97,223.774L698.961,223.818L698.953,223.862L698.945,223.907L698.938,223.951L698.932,223.996L698.926,224.041L698.92,224.086L698.915,224.131L698.911,224.177L698.907,224.222L698.904,224.268L698.901,224.314L698.899,224.36L698.898,224.407L698.897,224.453L698.897,224.503L698.897,260.497L698.897,260.547L698.898,260.593L698.899,260.64L698.901,260.686L698.904,260.732L698.907,260.778L698.911,260.823L698.915,260.869L698.92,260.914L698.926,260.959L698.932,261.004L698.938,261.049L698.945,261.093L698.953,261.138L698.961,261.182L698.97,261.226L698.979,261.27L698.989,261.313L698.999,261.356L699.01,261.4L699.021,261.443L699.033,261.485L699.045,261.528L699.058,261.57L699.071,261.612L699.085,261.654L699.099,261.696L699.114,261.737L699.129,261.778L699.145,261.819L699.162,261.86L699.178,261.9L699.196,261.94L699.213,261.98L699.231,262.02L699.25,262.059L699.269,262.098L699.289,262.137L699.309,262.176L699.329,262.214L699.35,262.252L699.372,262.29L699.393,262.328L699.416,262.365L699.438,262.402L699.461,262.439L699.485,262.475L699.509,262.511L699.533,262.547L699.558,262.583L699.583,262.618L699.609,262.653L699.635,262.687L699.662,262.721L699.688,262.755L699.716,262.789L699.743,262.822L699.771,262.855L699.8,262.887L699.829,262.92L699.858,262.951L699.887,262.983L699.917,263.014L699.948,263.045L699.978,263.075L700.009,263.105L700.041,263.135L700.072,263.164L700.105,263.193L700.137,263.222L700.17,263.25L700.203,263.278L700.236,263.305L700.27,263.332L700.304,263.359L700.339,263.385L700.373,263.411L700.408,263.436L700.444,263.461L700.479,263.485L700.515,263.509L700.551,263.533L700.588,263.556L700.625,263.579L700.662,263.601L700.699,263.623L700.737,263.645L700.775,263.666L700.813,263.686L700.852,263.706L700.891,263.726L700.93,263.745L700.969,263.764L701.008,263.782L701.048,263.8L701.088,263.817L701.128,263.834L701.169,263.85L701.21,263.866L701.251,263.882L701.292,263.896L701.333,263.911L701.375,263.925L701.417,263.938L701.459,263.951L701.501,263.963L701.544,263.975L701.587,263.987L701.63,263.997L701.673,264.008L701.716,264.017L701.76,264.027L701.804,264.035L701.848,264.044L701.892,264.051L701.936,264.058L701.981,264.065L702.025,264.071L702.07,264.076L702.116,264.081L702.161,264.086L702.206,264.089L702.252,264.093L702.298,264.095L702.344,264.097L702.39,264.099L702.436,264.1L702.486,264.1L849.514,264.1L849.564,264.1L849.61,264.099L849.656,264.097L849.702,264.095L849.748,264.093L849.794,264.089L849.839,264.086L849.884,264.081L849.93,264.076L849.975,264.071L850.019,264.065L850.064,264.058L850.108,264.051L850.152,264.044L850.196,264.035L850.24,264.027L850.284,264.017L850.327,264.008L850.37,263.997L850.413,263.987L850.456,263.975L850.499,263.963L850.541,263.951L850.583,263.938L850.625,263.925L850.667,263.911L850.708,263.896L850.749,263.882L850.79,263.866L850.831,263.85L850.872,263.834L850.912,263.817L850.952,263.8L850.992,263.782L851.031,263.764L851.07,263.745L851.109,263.726L851.148,263.706L851.187,263.686L851.225,263.666L851.263,263.645L851.301,263.623L851.338,263.601L851.375,263.579L851.412,263.556L851.449,263.533L851.485,263.509L851.521,263.485L851.556,263.461L851.592,263.436L851.627,263.411L851.661,263.385L851.696,263.359L851.73,263.332L851.764,263.305L851.797,263.278L851.83,263.25L851.863,263.222L851.895,263.193L851.928,263.164L851.959,263.135L851.991,263.105L852.022,263.075L852.052,263.045L852.083,263.014L852.113,262.983L852.142,262.951L852.171,262.92L852.2,262.887L852.229,262.855L852.257,262.822L852.284,262.789L852.311,262.755L852.338,262.721L852.365,262.687L852.391,262.653L852.417,262.618L852.442,262.583L852.467,262.547L852.491,262.511L852.515,262.475L852.539,262.439L852.562,262.402L852.584,262.365L852.607,262.328L852.628,262.29L852.65,262.253L852.671,262.214L852.691,262.176L852.711,262.137L852.731,262.098L852.75,262.059L852.769,262.02L852.787,261.98L852.804,261.94L852.822,261.9L852.838,261.86L852.855,261.819L852.871,261.778L852.886,261.737L852.901,261.696L852.915,261.654L852.929,261.612L852.942,261.57L852.955,261.528L852.967,261.485L852.979,261.442L852.99,261.4L853.001,261.356L853.011,261.313L853.021,261.27L853.03,261.226L853.039,261.182L853.047,261.138L853.055,261.093L853.062,261.049L853.068,261.004L853.074,260.959L853.08,260.914L853.085,260.869L853.089,260.823L853.093,260.778L853.096,260.732L853.099,260.686L853.101,260.64L853.102,260.593L853.103,260.547L853.103,260.497L853.103,224.503L853.103,224.453L853.102,224.407L853.101,224.36L853.099,224.314L853.096,224.268L853.093,224.222L853.089,224.177L853.085,224.131L853.08,224.086L853.074,224.041L853.068,223.996L853.062,223.951L853.055,223.907L853.047,223.862L853.039,223.818L853.03,223.774L853.021,223.73L853.011,223.687L853.001,223.644L852.99,223.6L852.979,223.558L852.967,223.515L852.955,223.472L852.942,223.43L852.929,223.388L852.915,223.346L852.901,223.304L852.886,223.263L852.871,223.222L852.855,223.181L852.838,223.14L852.822,223.1L852.804,223.06L852.787,223.02L852.769,222.98L852.75,222.941L852.731,222.902L852.711,222.863L852.691,222.824L852.671,222.786L852.65,222.747L852.628,222.71L852.607,222.672L852.584,222.635L852.562,222.598L852.539,222.561L852.515,222.525L852.491,222.489L852.467,222.453L852.442,222.417L852.417,222.382L852.391,222.347L852.365,222.313L852.338,222.279L852.312,222.245L852.284,222.211L852.257,222.178L852.229,222.145L852.2,222.113L852.171,222.08L852.142,222.049L852.113,222.017L852.083,221.986L852.052,221.955L852.022,221.925L851.991,221.895L851.959,221.865L851.928,221.836L851.895,221.807L851.863,221.778L851.83,221.75L851.797,221.722L851.764,221.695L851.73,221.668L851.696,221.641L851.661,221.615L851.627,221.589L851.592,221.564L851.556,221.539L851.521,221.515L851.485,221.491L851.449,221.467L851.412,221.444L851.375,221.421L851.338,221.399L851.301,221.377L851.263,221.355L851.225,221.334L851.187,221.314L851.148,221.294L851.109,221.274L851.07,221.255L851.031,221.236L850.992,221.218L850.952,221.2L850.912,221.183L850.872,221.166L850.831,221.15L850.79,221.134L850.749,221.118L850.708,221.104L850.667,221.089L850.625,221.075L850.583,221.062L850.541,221.049L850.499,221.037L850.456,221.025L850.413,221.013L850.37,221.003L850.327,220.992L850.284,220.983L850.24,220.973L850.196,220.965L850.152,220.956L850.108,220.949L850.064,220.942L850.019,220.935L849.975,220.929L849.93,220.924L849.884,220.919L849.839,220.914L849.794,220.911L849.748,220.907L849.702,220.905L849.656,220.903L849.61,220.901L849.564,220.9L849.514,220.9L702.486,220.9Z" style="fill:rgb(255,146,58);"/>
    </g>
</svg>
