<?xml version="1.0" encoding="UTF-8" standalone="no"?>
<!DOCTYPE svg PUBLIC "-//W3C//DTD SVG 1.1//EN" "http://www.w3.org/Graphics/SVG/1.1/DTD/svg11.dtd">
<svg width="100%" height="100%" viewBox="0 0 348 100" version="1.1" xmlns="http://www.w3.org/2000/svg" xmlns:xlink="http://www.w3.org/1999/xlink" xml:space="preserve" style="fill-rule:evenodd;clip-rule:evenodd;stroke-linejoin:round;stroke-miterlimit:1.41421;">
    <g id="Purple-Button-Outline" transform="matrix(2.2305,0,0,2.22202,-2386.64,-488.845)">
        <path d="M1221.58,220L1221.63,220.001L1221.69,220.003L1221.75,220.006L1221.81,220.009L1221.86,220.013L1221.92,220.018L1221.98,220.023L1222.03,220.029L1222.09,220.036L1222.14,220.044L1222.2,220.052L1222.26,220.061L1222.31,220.07L1222.37,220.081L1222.42,220.091L1222.48,220.103L1222.53,220.115L1222.58,220.128L1222.64,220.142L1222.69,220.156L1222.74,220.171L1222.8,220.186L1222.85,220.202L1222.9,220.219L1222.95,220.237L1223.01,220.255L1223.06,220.273L1223.11,220.292L1223.16,220.312L1223.21,220.333L1223.26,220.354L1223.31,220.376L1223.36,220.398L1223.41,220.421L1223.46,220.444L1223.51,220.468L1223.56,220.493L1223.61,220.518L1223.65,220.543L1223.7,220.57L1223.75,220.597L1223.8,220.624L1223.84,220.652L1223.89,220.68L1223.93,220.709L1223.98,220.739L1224.02,220.769L1224.07,220.8L1224.11,220.831L1224.15,220.862L1224.2,220.894L1224.24,220.927L1224.28,220.96L1224.33,220.994L1224.37,221.028L1224.41,221.063L1224.45,221.098L1224.49,221.134L1224.53,221.17L1224.57,221.206L1224.61,221.243L1224.65,221.281L1224.69,221.319L1224.72,221.357L1224.76,221.396L1224.8,221.435L1224.84,221.475L1224.87,221.515L1224.91,221.556L1224.94,221.597L1224.98,221.638L1225.01,221.68L1225.04,221.722L1225.08,221.765L1225.11,221.808L1225.14,221.852L1225.17,221.896L1225.2,221.94L1225.23,221.985L1225.26,222.03L1225.29,222.075L1225.32,222.121L1225.35,222.167L1225.38,222.214L1225.41,222.261L1225.43,222.308L1225.46,222.356L1225.48,222.404L1225.51,222.452L1225.53,222.501L1225.56,222.55L1225.58,222.599L1225.6,222.649L1225.63,222.699L1225.65,222.749L1225.67,222.8L1225.69,222.851L1225.71,222.902L1225.73,222.953L1225.75,223.005L1225.76,223.057L1225.78,223.11L1225.8,223.162L1225.81,223.215L1225.83,223.269L1225.85,223.322L1225.86,223.376L1225.87,223.43L1225.88,223.484L1225.9,223.539L1225.91,223.594L1225.92,223.649L1225.93,223.704L1225.94,223.759L1225.95,223.815L1225.96,223.871L1225.96,223.927L1225.97,223.984L1225.98,224.04L1225.98,224.097L1225.99,224.154L1225.99,224.211L1225.99,224.269L1226,224.326L1226,224.384L1226,224.442L1226,224.5L1226,260.5L1226,260.558L1226,260.616L1226,260.674L1225.99,260.731L1225.99,260.789L1225.99,260.846L1225.98,260.903L1225.98,260.96L1225.97,261.016L1225.96,261.073L1225.96,261.129L1225.95,261.185L1225.94,261.241L1225.93,261.296L1225.92,261.351L1225.91,261.406L1225.9,261.461L1225.88,261.516L1225.87,261.57L1225.86,261.624L1225.85,261.678L1225.83,261.731L1225.81,261.785L1225.8,261.838L1225.78,261.89L1225.76,261.943L1225.75,261.995L1225.73,262.047L1225.71,262.098L1225.69,262.149L1225.67,262.2L1225.65,262.251L1225.63,262.301L1225.6,262.351L1225.58,262.401L1225.56,262.45L1225.53,262.499L1225.51,262.548L1225.48,262.596L1225.46,262.644L1225.43,262.692L1225.41,262.739L1225.38,262.786L1225.35,262.833L1225.32,262.879L1225.29,262.925L1225.26,262.97L1225.23,263.015L1225.2,263.06L1225.17,263.104L1225.14,263.148L1225.11,263.192L1225.08,263.235L1225.04,263.278L1225.01,263.32L1224.98,263.362L1224.94,263.403L1224.91,263.444L1224.87,263.485L1224.84,263.525L1224.8,263.565L1224.76,263.604L1224.72,263.643L1224.69,263.681L1224.65,263.719L1224.61,263.757L1224.57,263.794L1224.53,263.83L1224.49,263.866L1224.45,263.902L1224.41,263.937L1224.37,263.972L1224.33,264.006L1224.28,264.04L1224.24,264.073L1224.2,264.106L1224.15,264.138L1224.11,264.169L1224.07,264.2L1224.02,264.231L1223.98,264.261L1223.93,264.291L1223.89,264.32L1223.84,264.348L1223.8,264.376L1223.75,264.403L1223.7,264.43L1223.65,264.457L1223.61,264.482L1223.56,264.507L1223.51,264.532L1223.46,264.556L1223.41,264.579L1223.36,264.602L1223.31,264.624L1223.26,264.646L1223.21,264.667L1223.16,264.688L1223.11,264.708L1223.06,264.727L1223.01,264.745L1222.95,264.763L1222.9,264.781L1222.85,264.798L1222.8,264.814L1222.74,264.829L1222.69,264.844L1222.64,264.858L1222.58,264.872L1222.53,264.885L1222.48,264.897L1222.42,264.909L1222.37,264.919L1222.31,264.93L1222.26,264.939L1222.2,264.948L1222.14,264.956L1222.09,264.964L1222.03,264.971L1221.98,264.977L1221.92,264.982L1221.86,264.987L1221.81,264.991L1221.75,264.994L1221.69,264.997L1221.63,264.999L1221.58,265L1221.52,265L1074.48,265L1074.42,265L1074.37,264.999L1074.31,264.997L1074.25,264.994L1074.19,264.991L1074.14,264.987L1074.08,264.982L1074.03,264.977L1073.97,264.971L1073.91,264.964L1073.86,264.956L1073.8,264.948L1073.75,264.939L1073.69,264.93L1073.63,264.919L1073.58,264.909L1073.53,264.897L1073.47,264.885L1073.42,264.872L1073.36,264.858L1073.31,264.844L1073.26,264.829L1073.2,264.814L1073.15,264.798L1073.1,264.781L1073.05,264.763L1072.99,264.745L1072.94,264.727L1072.89,264.708L1072.84,264.688L1072.79,264.667L1072.74,264.646L1072.69,264.624L1072.64,264.602L1072.59,264.579L1072.54,264.556L1072.49,264.532L1072.44,264.507L1072.39,264.482L1072.35,264.457L1072.3,264.43L1072.25,264.403L1072.2,264.376L1072.16,264.348L1072.11,264.32L1072.07,264.291L1072.02,264.261L1071.98,264.231L1071.93,264.2L1071.89,264.169L1071.85,264.138L1071.8,264.106L1071.76,264.073L1071.72,264.04L1071.67,264.006L1071.63,263.972L1071.59,263.937L1071.55,263.902L1071.51,263.866L1071.47,263.83L1071.43,263.794L1071.39,263.757L1071.35,263.719L1071.31,263.681L1071.28,263.643L1071.24,263.604L1071.2,263.565L1071.16,263.525L1071.13,263.485L1071.09,263.444L1071.06,263.403L1071.02,263.362L1070.99,263.32L1070.96,263.278L1070.92,263.235L1070.89,263.192L1070.86,263.148L1070.83,263.104L1070.8,263.06L1070.77,263.015L1070.74,262.97L1070.71,262.925L1070.68,262.879L1070.65,262.833L1070.62,262.786L1070.59,262.739L1070.57,262.692L1070.54,262.644L1070.52,262.596L1070.49,262.548L1070.47,262.499L1070.44,262.45L1070.42,262.401L1070.4,262.351L1070.37,262.301L1070.35,262.251L1070.33,262.2L1070.31,262.149L1070.29,262.098L1070.27,262.047L1070.25,261.995L1070.24,261.943L1070.22,261.89L1070.2,261.838L1070.19,261.785L1070.17,261.731L1070.15,261.678L1070.14,261.624L1070.13,261.57L1070.12,261.516L1070.1,261.461L1070.09,261.406L1070.08,261.351L1070.07,261.296L1070.06,261.241L1070.05,261.185L1070.04,261.129L1070.04,261.073L1070.03,261.016L1070.02,260.96L1070.02,260.903L1070.01,260.846L1070.01,260.789L1070.01,260.731L1070,260.674L1070,260.616L1070,260.558L1070,260.5L1070,224.5L1070,224.442L1070,224.384L1070,224.326L1070.01,224.269L1070.01,224.211L1070.01,224.154L1070.02,224.097L1070.02,224.04L1070.03,223.984L1070.04,223.927L1070.04,223.871L1070.05,223.815L1070.06,223.759L1070.07,223.704L1070.08,223.649L1070.09,223.594L1070.1,223.539L1070.12,223.484L1070.13,223.43L1070.14,223.376L1070.15,223.322L1070.17,223.269L1070.19,223.215L1070.2,223.162L1070.22,223.11L1070.24,223.057L1070.25,223.005L1070.27,222.953L1070.29,222.902L1070.31,222.851L1070.33,222.8L1070.35,222.749L1070.37,222.699L1070.4,222.649L1070.42,222.599L1070.44,222.55L1070.47,222.501L1070.49,222.452L1070.52,222.404L1070.54,222.356L1070.57,222.308L1070.59,222.261L1070.62,222.214L1070.65,222.167L1070.68,222.121L1070.71,222.075L1070.74,222.03L1070.77,221.985L1070.8,221.94L1070.83,221.896L1070.86,221.852L1070.89,221.808L1070.92,221.765L1070.96,221.722L1070.99,221.68L1071.02,221.638L1071.06,221.597L1071.09,221.556L1071.13,221.515L1071.16,221.475L1071.2,221.435L1071.24,221.396L1071.28,221.357L1071.31,221.319L1071.35,221.281L1071.39,221.243L1071.43,221.206L1071.47,221.17L1071.51,221.134L1071.55,221.098L1071.59,221.063L1071.63,221.028L1071.67,220.994L1071.72,220.96L1071.76,220.927L1071.8,220.894L1071.85,220.862L1071.89,220.831L1071.93,220.8L1071.98,220.769L1072.02,220.739L1072.07,220.709L1072.11,220.68L1072.16,220.652L1072.2,220.624L1072.25,220.597L1072.3,220.57L1072.35,220.543L1072.39,220.518L1072.44,220.493L1072.49,220.468L1072.54,220.444L1072.59,220.421L1072.64,220.398L1072.69,220.376L1072.74,220.354L1072.79,220.333L1072.84,220.312L1072.89,220.292L1072.94,220.273L1072.99,220.255L1073.05,220.237L1073.1,220.219L1073.15,220.202L1073.2,220.186L1073.26,220.171L1073.31,220.156L1073.36,220.142L1073.42,220.128L1073.47,220.115L1073.53,220.103L1073.58,220.091L1073.63,220.081L1073.69,220.07L1073.75,220.061L1073.8,220.052L1073.86,220.044L1073.91,220.036L1073.97,220.029L1074.03,220.023L1074.08,220.018L1074.14,220.013L1074.19,220.009L1074.25,220.006L1074.31,220.003L1074.37,220.001L1074.42,220L1074.48,220L1221.52,220L1221.58,220ZM1074.49,220.9L1074.44,220.9L1074.39,220.901L1074.34,220.903L1074.3,220.905L1074.25,220.907L1074.21,220.911L1074.16,220.914L1074.12,220.919L1074.07,220.924L1074.03,220.929L1073.98,220.935L1073.94,220.942L1073.89,220.949L1073.85,220.956L1073.8,220.965L1073.76,220.973L1073.72,220.983L1073.67,220.992L1073.63,221.003L1073.59,221.013L1073.54,221.025L1073.5,221.037L1073.46,221.049L1073.42,221.062L1073.38,221.075L1073.33,221.089L1073.29,221.104L1073.25,221.118L1073.21,221.134L1073.17,221.15L1073.13,221.166L1073.09,221.183L1073.05,221.2L1073.01,221.218L1072.97,221.236L1072.93,221.255L1072.89,221.274L1072.85,221.294L1072.81,221.314L1072.78,221.334L1072.74,221.355L1072.7,221.377L1072.66,221.399L1072.62,221.421L1072.59,221.444L1072.55,221.467L1072.52,221.491L1072.48,221.515L1072.44,221.539L1072.41,221.564L1072.37,221.589L1072.34,221.615L1072.3,221.641L1072.27,221.668L1072.24,221.695L1072.2,221.722L1072.17,221.75L1072.14,221.778L1072.11,221.807L1072.07,221.836L1072.04,221.865L1072.01,221.895L1071.98,221.925L1071.95,221.955L1071.92,221.986L1071.89,222.017L1071.86,222.049L1071.83,222.08L1071.8,222.113L1071.77,222.145L1071.74,222.178L1071.72,222.211L1071.69,222.245L1071.66,222.279L1071.63,222.313L1071.61,222.347L1071.58,222.382L1071.56,222.417L1071.53,222.453L1071.51,222.489L1071.49,222.525L1071.46,222.561L1071.44,222.598L1071.42,222.635L1071.39,222.672L1071.37,222.71L1071.35,222.748L1071.33,222.786L1071.31,222.824L1071.29,222.863L1071.27,222.902L1071.25,222.941L1071.23,222.98L1071.21,223.02L1071.2,223.06L1071.18,223.1L1071.16,223.14L1071.14,223.181L1071.13,223.222L1071.11,223.263L1071.1,223.304L1071.09,223.346L1071.07,223.388L1071.06,223.43L1071.05,223.472L1071.03,223.515L1071.02,223.557L1071.01,223.6L1071,223.644L1070.99,223.687L1070.98,223.73L1070.97,223.774L1070.96,223.818L1070.95,223.862L1070.94,223.907L1070.94,223.951L1070.93,223.996L1070.93,224.041L1070.92,224.086L1070.91,224.131L1070.91,224.177L1070.91,224.222L1070.9,224.268L1070.9,224.314L1070.9,224.36L1070.9,224.407L1070.9,224.453L1070.9,224.503L1070.9,260.497L1070.9,260.547L1070.9,260.593L1070.9,260.64L1070.9,260.686L1070.9,260.732L1070.91,260.778L1070.91,260.823L1070.91,260.869L1070.92,260.914L1070.93,260.959L1070.93,261.004L1070.94,261.049L1070.94,261.093L1070.95,261.138L1070.96,261.182L1070.97,261.226L1070.98,261.27L1070.99,261.313L1071,261.356L1071.01,261.4L1071.02,261.443L1071.03,261.485L1071.05,261.528L1071.06,261.57L1071.07,261.612L1071.09,261.654L1071.1,261.696L1071.11,261.737L1071.13,261.778L1071.14,261.819L1071.16,261.86L1071.18,261.9L1071.2,261.94L1071.21,261.98L1071.23,262.02L1071.25,262.059L1071.27,262.098L1071.29,262.137L1071.31,262.176L1071.33,262.214L1071.35,262.252L1071.37,262.29L1071.39,262.328L1071.42,262.365L1071.44,262.402L1071.46,262.439L1071.49,262.475L1071.51,262.511L1071.53,262.547L1071.56,262.583L1071.58,262.618L1071.61,262.653L1071.63,262.687L1071.66,262.721L1071.69,262.755L1071.72,262.789L1071.74,262.822L1071.77,262.855L1071.8,262.887L1071.83,262.92L1071.86,262.951L1071.89,262.983L1071.92,263.014L1071.95,263.045L1071.98,263.075L1072.01,263.105L1072.04,263.135L1072.07,263.164L1072.11,263.193L1072.14,263.222L1072.17,263.25L1072.2,263.278L1072.24,263.305L1072.27,263.332L1072.3,263.359L1072.34,263.385L1072.37,263.411L1072.41,263.436L1072.44,263.461L1072.48,263.485L1072.52,263.509L1072.55,263.533L1072.59,263.556L1072.62,263.579L1072.66,263.601L1072.7,263.623L1072.74,263.645L1072.78,263.666L1072.81,263.686L1072.85,263.706L1072.89,263.726L1072.93,263.745L1072.97,263.764L1073.01,263.782L1073.05,263.8L1073.09,263.817L1073.13,263.834L1073.17,263.85L1073.21,263.866L1073.25,263.882L1073.29,263.896L1073.33,263.911L1073.38,263.925L1073.42,263.938L1073.46,263.951L1073.5,263.963L1073.54,263.975L1073.59,263.987L1073.63,263.997L1073.67,264.008L1073.72,264.017L1073.76,264.027L1073.8,264.035L1073.85,264.044L1073.89,264.051L1073.94,264.058L1073.98,264.065L1074.03,264.071L1074.07,264.076L1074.12,264.081L1074.16,264.086L1074.21,264.089L1074.25,264.093L1074.3,264.095L1074.34,264.097L1074.39,264.099L1074.44,264.1L1074.49,264.1L1221.51,264.1L1221.56,264.1L1221.61,264.099L1221.66,264.097L1221.7,264.095L1221.75,264.093L1221.79,264.089L1221.84,264.086L1221.88,264.081L1221.93,264.076L1221.98,264.071L1222.02,264.065L1222.06,264.058L1222.11,264.051L1222.15,264.044L1222.2,264.035L1222.24,264.027L1222.28,264.017L1222.33,264.008L1222.37,263.997L1222.41,263.987L1222.46,263.975L1222.5,263.963L1222.54,263.951L1222.58,263.938L1222.62,263.925L1222.67,263.911L1222.71,263.896L1222.75,263.882L1222.79,263.866L1222.83,263.85L1222.87,263.834L1222.91,263.817L1222.95,263.8L1222.99,263.782L1223.03,263.764L1223.07,263.745L1223.11,263.726L1223.15,263.706L1223.19,263.686L1223.23,263.666L1223.26,263.645L1223.3,263.623L1223.34,263.601L1223.38,263.579L1223.41,263.556L1223.45,263.533L1223.49,263.509L1223.52,263.485L1223.56,263.461L1223.59,263.436L1223.63,263.411L1223.66,263.385L1223.7,263.359L1223.73,263.332L1223.76,263.305L1223.8,263.278L1223.83,263.25L1223.86,263.222L1223.89,263.193L1223.93,263.164L1223.96,263.135L1223.99,263.105L1224.02,263.075L1224.05,263.045L1224.08,263.014L1224.11,262.983L1224.14,262.951L1224.17,262.92L1224.2,262.887L1224.23,262.855L1224.26,262.822L1224.28,262.789L1224.31,262.755L1224.34,262.721L1224.37,262.687L1224.39,262.653L1224.42,262.618L1224.44,262.583L1224.47,262.547L1224.49,262.511L1224.52,262.475L1224.54,262.439L1224.56,262.402L1224.58,262.365L1224.61,262.328L1224.63,262.29L1224.65,262.253L1224.67,262.214L1224.69,262.176L1224.71,262.137L1224.73,262.098L1224.75,262.059L1224.77,262.02L1224.79,261.98L1224.8,261.94L1224.82,261.9L1224.84,261.86L1224.86,261.819L1224.87,261.778L1224.89,261.737L1224.9,261.696L1224.91,261.654L1224.93,261.612L1224.94,261.57L1224.95,261.528L1224.97,261.485L1224.98,261.442L1224.99,261.4L1225,261.356L1225.01,261.313L1225.02,261.27L1225.03,261.226L1225.04,261.182L1225.05,261.138L1225.06,261.093L1225.06,261.049L1225.07,261.004L1225.07,260.959L1225.08,260.914L1225.09,260.869L1225.09,260.823L1225.09,260.778L1225.1,260.732L1225.1,260.686L1225.1,260.64L1225.1,260.593L1225.1,260.547L1225.1,260.497L1225.1,224.503L1225.1,224.453L1225.1,224.407L1225.1,224.36L1225.1,224.314L1225.1,224.268L1225.09,224.222L1225.09,224.177L1225.09,224.131L1225.08,224.086L1225.07,224.041L1225.07,223.996L1225.06,223.951L1225.06,223.907L1225.05,223.862L1225.04,223.818L1225.03,223.774L1225.02,223.73L1225.01,223.687L1225,223.644L1224.99,223.6L1224.98,223.558L1224.97,223.515L1224.95,223.472L1224.94,223.43L1224.93,223.388L1224.91,223.346L1224.9,223.304L1224.89,223.263L1224.87,223.222L1224.86,223.181L1224.84,223.14L1224.82,223.1L1224.8,223.06L1224.79,223.02L1224.77,222.98L1224.75,222.941L1224.73,222.902L1224.71,222.863L1224.69,222.824L1224.67,222.786L1224.65,222.747L1224.63,222.71L1224.61,222.672L1224.58,222.635L1224.56,222.598L1224.54,222.561L1224.52,222.525L1224.49,222.489L1224.47,222.453L1224.44,222.417L1224.42,222.382L1224.39,222.347L1224.37,222.313L1224.34,222.279L1224.31,222.245L1224.28,222.211L1224.26,222.178L1224.23,222.145L1224.2,222.113L1224.17,222.08L1224.14,222.049L1224.11,222.017L1224.08,221.986L1224.05,221.955L1224.02,221.925L1223.99,221.895L1223.96,221.865L1223.93,221.836L1223.89,221.807L1223.86,221.778L1223.83,221.75L1223.8,221.722L1223.76,221.695L1223.73,221.668L1223.7,221.641L1223.66,221.615L1223.63,221.589L1223.59,221.564L1223.56,221.539L1223.52,221.515L1223.49,221.491L1223.45,221.467L1223.41,221.444L1223.38,221.421L1223.34,221.399L1223.3,221.377L1223.26,221.355L1223.23,221.334L1223.19,221.314L1223.15,221.294L1223.11,221.274L1223.07,221.255L1223.03,221.236L1222.99,221.218L1222.95,221.2L1222.91,221.183L1222.87,221.166L1222.83,221.15L1222.79,221.134L1222.75,221.118L1222.71,221.104L1222.67,221.089L1222.62,221.075L1222.58,221.062L1222.54,221.049L1222.5,221.037L1222.46,221.025L1222.41,221.013L1222.37,221.003L1222.33,220.992L1222.28,220.983L1222.24,220.973L1222.2,220.965L1222.15,220.956L1222.11,220.949L1222.06,220.942L1222.02,220.935L1221.98,220.929L1221.93,220.924L1221.88,220.919L1221.84,220.914L1221.79,220.911L1221.75,220.907L1221.7,220.905L1221.66,220.903L1221.61,220.901L1221.56,220.9L1221.51,220.9L1074.49,220.9Z" style="fill:rgb(168,57,186);"/>
    </g>
</svg>
