<?xml version="1.0" encoding="UTF-8" standalone="no"?>
<!DOCTYPE svg PUBLIC "-//W3C//DTD SVG 1.1//EN" "http://www.w3.org/Graphics/SVG/1.1/DTD/svg11.dtd">
<svg width="100%" height="100%" viewBox="0 0 348 100" version="1.1" xmlns="http://www.w3.org/2000/svg" xmlns:xlink="http://www.w3.org/1999/xlink" xml:space="preserve" style="fill-rule:evenodd;clip-rule:evenodd;stroke-linejoin:round;stroke-miterlimit:1.41421;">
    <g id="Red-Button-Outline" transform="matrix(2.2305,0,0,2.22202,-1971.77,-488.845)">
        <path d="M1035.58,220L1035.63,220.001L1035.69,220.003L1035.75,220.006L1035.81,220.009L1035.86,220.013L1035.92,220.018L1035.97,220.023L1036.03,220.029L1036.09,220.036L1036.14,220.044L1036.2,220.052L1036.26,220.061L1036.31,220.07L1036.37,220.081L1036.42,220.091L1036.47,220.103L1036.53,220.115L1036.58,220.128L1036.64,220.142L1036.69,220.156L1036.74,220.171L1036.8,220.186L1036.85,220.202L1036.9,220.219L1036.95,220.237L1037.01,220.255L1037.06,220.273L1037.11,220.292L1037.16,220.312L1037.21,220.333L1037.26,220.354L1037.31,220.376L1037.36,220.398L1037.41,220.421L1037.46,220.444L1037.51,220.468L1037.56,220.493L1037.61,220.518L1037.65,220.543L1037.7,220.57L1037.75,220.597L1037.8,220.624L1037.84,220.652L1037.89,220.68L1037.93,220.709L1037.98,220.739L1038.02,220.769L1038.07,220.8L1038.11,220.831L1038.15,220.862L1038.2,220.894L1038.24,220.927L1038.28,220.96L1038.33,220.994L1038.37,221.028L1038.41,221.063L1038.45,221.098L1038.49,221.134L1038.53,221.17L1038.57,221.206L1038.61,221.243L1038.65,221.281L1038.69,221.319L1038.72,221.357L1038.76,221.396L1038.8,221.435L1038.84,221.475L1038.87,221.515L1038.91,221.556L1038.94,221.597L1038.98,221.638L1039.01,221.68L1039.04,221.722L1039.08,221.765L1039.11,221.808L1039.14,221.852L1039.17,221.896L1039.2,221.94L1039.23,221.985L1039.26,222.03L1039.29,222.075L1039.32,222.121L1039.35,222.167L1039.38,222.214L1039.41,222.261L1039.43,222.308L1039.46,222.356L1039.48,222.404L1039.51,222.452L1039.53,222.501L1039.56,222.55L1039.58,222.599L1039.6,222.649L1039.63,222.699L1039.65,222.749L1039.67,222.8L1039.69,222.851L1039.71,222.902L1039.73,222.953L1039.75,223.005L1039.76,223.057L1039.78,223.11L1039.8,223.162L1039.81,223.215L1039.83,223.269L1039.85,223.322L1039.86,223.376L1039.87,223.43L1039.88,223.484L1039.9,223.539L1039.91,223.594L1039.92,223.649L1039.93,223.704L1039.94,223.759L1039.95,223.815L1039.96,223.871L1039.96,223.927L1039.97,223.984L1039.98,224.04L1039.98,224.097L1039.99,224.154L1039.99,224.211L1039.99,224.269L1040,224.326L1040,224.384L1040,224.442L1040,224.5L1040,260.5L1040,260.558L1040,260.616L1040,260.674L1039.99,260.731L1039.99,260.789L1039.99,260.846L1039.98,260.903L1039.98,260.96L1039.97,261.016L1039.96,261.073L1039.96,261.129L1039.95,261.185L1039.94,261.241L1039.93,261.296L1039.92,261.351L1039.91,261.406L1039.9,261.461L1039.88,261.516L1039.87,261.57L1039.86,261.624L1039.85,261.678L1039.83,261.731L1039.81,261.785L1039.8,261.838L1039.78,261.89L1039.76,261.943L1039.75,261.995L1039.73,262.047L1039.71,262.098L1039.69,262.149L1039.67,262.2L1039.65,262.251L1039.63,262.301L1039.6,262.351L1039.58,262.401L1039.56,262.45L1039.53,262.499L1039.51,262.548L1039.48,262.596L1039.46,262.644L1039.43,262.692L1039.41,262.739L1039.38,262.786L1039.35,262.833L1039.32,262.879L1039.29,262.925L1039.26,262.97L1039.23,263.015L1039.2,263.06L1039.17,263.104L1039.14,263.148L1039.11,263.192L1039.08,263.235L1039.04,263.278L1039.01,263.32L1038.98,263.362L1038.94,263.403L1038.91,263.444L1038.87,263.485L1038.84,263.525L1038.8,263.565L1038.76,263.604L1038.72,263.643L1038.69,263.681L1038.65,263.719L1038.61,263.757L1038.57,263.794L1038.53,263.83L1038.49,263.866L1038.45,263.902L1038.41,263.937L1038.37,263.972L1038.33,264.006L1038.28,264.04L1038.24,264.073L1038.2,264.106L1038.15,264.138L1038.11,264.169L1038.07,264.2L1038.02,264.231L1037.98,264.261L1037.93,264.291L1037.89,264.32L1037.84,264.348L1037.8,264.376L1037.75,264.403L1037.7,264.43L1037.65,264.457L1037.61,264.482L1037.56,264.507L1037.51,264.532L1037.46,264.556L1037.41,264.579L1037.36,264.602L1037.31,264.624L1037.26,264.646L1037.21,264.667L1037.16,264.688L1037.11,264.708L1037.06,264.727L1037.01,264.745L1036.95,264.763L1036.9,264.781L1036.85,264.798L1036.8,264.814L1036.74,264.829L1036.69,264.844L1036.64,264.858L1036.58,264.872L1036.53,264.885L1036.47,264.897L1036.42,264.909L1036.37,264.919L1036.31,264.93L1036.26,264.939L1036.2,264.948L1036.14,264.956L1036.09,264.964L1036.03,264.971L1035.97,264.977L1035.92,264.982L1035.86,264.987L1035.81,264.991L1035.75,264.994L1035.69,264.997L1035.63,264.999L1035.58,265L1035.52,265L888.483,265L888.425,265L888.367,264.999L888.31,264.997L888.252,264.994L888.195,264.991L888.138,264.987L888.081,264.982L888.025,264.977L887.968,264.971L887.912,264.964L887.856,264.956L887.801,264.948L887.745,264.939L887.69,264.93L887.635,264.919L887.58,264.909L887.525,264.897L887.471,264.885L887.417,264.872L887.363,264.858L887.31,264.844L887.256,264.829L887.203,264.814L887.15,264.798L887.098,264.781L887.046,264.763L886.994,264.745L886.942,264.727L886.891,264.708L886.84,264.688L886.789,264.667L886.739,264.646L886.689,264.624L886.639,264.602L886.589,264.579L886.54,264.556L886.491,264.532L886.443,264.507L886.395,264.482L886.347,264.457L886.299,264.43L886.252,264.403L886.205,264.376L886.159,264.348L886.113,264.32L886.067,264.291L886.022,264.261L885.977,264.231L885.933,264.2L885.889,264.169L885.845,264.138L885.801,264.106L885.758,264.073L885.716,264.04L885.674,264.006L885.632,263.972L885.591,263.937L885.55,263.902L885.509,263.866L885.469,263.83L885.43,263.794L885.391,263.757L885.352,263.719L885.314,263.681L885.276,263.643L885.238,263.604L885.202,263.565L885.165,263.525L885.129,263.485L885.094,263.444L885.059,263.403L885.024,263.362L884.99,263.32L884.957,263.278L884.924,263.235L884.891,263.192L884.859,263.148L884.828,263.104L884.797,263.06L884.766,263.015L884.736,262.97L884.707,262.925L884.678,262.879L884.649,262.833L884.622,262.786L884.594,262.739L884.568,262.692L884.541,262.644L884.516,262.596L884.491,262.548L884.466,262.499L884.442,262.45L884.419,262.401L884.396,262.351L884.374,262.301L884.353,262.251L884.332,262.2L884.311,262.149L884.291,262.098L884.272,262.047L884.254,261.995L884.236,261.943L884.218,261.89L884.202,261.838L884.186,261.785L884.17,261.731L884.155,261.678L884.141,261.624L884.128,261.57L884.115,261.516L884.103,261.461L884.091,261.406L884.08,261.351L884.07,261.296L884.061,261.241L884.052,261.185L884.044,261.129L884.036,261.073L884.029,261.016L884.023,260.96L884.018,260.903L884.013,260.846L884.009,260.789L884.006,260.731L884.003,260.674L884.001,260.616L884,260.558L884,260.5L884,224.5L884,224.442L884.001,224.384L884.003,224.326L884.006,224.269L884.009,224.211L884.013,224.154L884.018,224.097L884.023,224.04L884.029,223.984L884.036,223.927L884.044,223.871L884.052,223.815L884.061,223.759L884.07,223.704L884.08,223.649L884.091,223.594L884.103,223.539L884.115,223.484L884.128,223.43L884.141,223.376L884.155,223.322L884.17,223.269L884.186,223.215L884.202,223.162L884.218,223.11L884.236,223.057L884.254,223.005L884.272,222.953L884.291,222.902L884.311,222.851L884.332,222.8L884.353,222.749L884.374,222.699L884.396,222.649L884.419,222.599L884.442,222.55L884.466,222.501L884.491,222.452L884.516,222.404L884.541,222.356L884.568,222.308L884.594,222.261L884.622,222.214L884.649,222.167L884.678,222.121L884.707,222.075L884.736,222.03L884.766,221.985L884.797,221.94L884.828,221.896L884.859,221.852L884.891,221.808L884.924,221.765L884.957,221.722L884.99,221.68L885.024,221.638L885.059,221.597L885.094,221.556L885.129,221.515L885.165,221.475L885.202,221.435L885.238,221.396L885.276,221.357L885.314,221.319L885.352,221.281L885.391,221.243L885.43,221.206L885.469,221.17L885.509,221.134L885.55,221.098L885.591,221.063L885.632,221.028L885.674,220.994L885.716,220.96L885.758,220.927L885.801,220.894L885.845,220.862L885.889,220.831L885.933,220.8L885.977,220.769L886.022,220.739L886.067,220.709L886.113,220.68L886.159,220.652L886.205,220.624L886.252,220.597L886.299,220.57L886.347,220.543L886.395,220.518L886.443,220.493L886.491,220.468L886.54,220.444L886.589,220.421L886.639,220.398L886.689,220.376L886.739,220.354L886.789,220.333L886.84,220.312L886.891,220.292L886.942,220.273L886.994,220.255L887.046,220.237L887.098,220.219L887.15,220.202L887.203,220.186L887.256,220.171L887.31,220.156L887.363,220.142L887.417,220.128L887.471,220.115L887.525,220.103L887.58,220.091L887.635,220.081L887.69,220.07L887.745,220.061L887.801,220.052L887.856,220.044L887.912,220.036L887.968,220.029L888.025,220.023L888.081,220.018L888.138,220.013L888.195,220.009L888.252,220.006L888.31,220.003L888.367,220.001L888.425,220L888.483,220L1035.52,220L1035.58,220ZM888.486,220.9L888.436,220.9L888.39,220.901L888.344,220.903L888.298,220.905L888.252,220.907L888.206,220.911L888.161,220.914L888.116,220.919L888.07,220.924L888.025,220.929L887.981,220.935L887.936,220.942L887.892,220.949L887.848,220.956L887.804,220.965L887.76,220.973L887.716,220.983L887.673,220.992L887.63,221.003L887.587,221.013L887.544,221.025L887.501,221.037L887.459,221.049L887.417,221.062L887.375,221.075L887.333,221.089L887.292,221.104L887.251,221.118L887.21,221.134L887.169,221.15L887.128,221.166L887.088,221.183L887.048,221.2L887.008,221.218L886.969,221.236L886.93,221.255L886.89,221.274L886.852,221.294L886.813,221.314L886.775,221.334L886.737,221.355L886.699,221.377L886.662,221.399L886.625,221.421L886.588,221.444L886.551,221.467L886.515,221.491L886.479,221.515L886.444,221.539L886.408,221.564L886.373,221.589L886.339,221.615L886.304,221.641L886.27,221.668L886.236,221.695L886.203,221.722L886.17,221.75L886.137,221.778L886.105,221.807L886.072,221.836L886.041,221.865L886.009,221.895L885.978,221.925L885.948,221.955L885.917,221.986L885.887,222.017L885.858,222.049L885.829,222.08L885.8,222.113L885.771,222.145L885.743,222.178L885.716,222.211L885.688,222.245L885.662,222.279L885.635,222.313L885.609,222.347L885.583,222.382L885.558,222.417L885.533,222.453L885.509,222.489L885.485,222.525L885.461,222.561L885.438,222.598L885.416,222.635L885.393,222.672L885.372,222.71L885.35,222.748L885.329,222.786L885.309,222.824L885.289,222.863L885.269,222.902L885.25,222.941L885.231,222.98L885.213,223.02L885.196,223.06L885.178,223.1L885.162,223.14L885.145,223.181L885.129,223.222L885.114,223.263L885.099,223.304L885.085,223.346L885.071,223.388L885.058,223.43L885.045,223.472L885.033,223.515L885.021,223.557L885.01,223.6L884.999,223.644L884.989,223.687L884.979,223.73L884.97,223.774L884.961,223.818L884.953,223.862L884.945,223.907L884.938,223.951L884.932,223.996L884.926,224.041L884.92,224.086L884.915,224.131L884.911,224.177L884.907,224.222L884.904,224.268L884.901,224.314L884.899,224.36L884.898,224.407L884.897,224.453L884.897,224.503L884.897,260.497L884.897,260.547L884.898,260.593L884.899,260.64L884.901,260.686L884.904,260.732L884.907,260.778L884.911,260.823L884.915,260.869L884.92,260.914L884.926,260.959L884.932,261.004L884.938,261.049L884.945,261.093L884.953,261.138L884.961,261.182L884.97,261.226L884.979,261.27L884.989,261.313L884.999,261.356L885.01,261.4L885.021,261.443L885.033,261.485L885.045,261.528L885.058,261.57L885.071,261.612L885.085,261.654L885.099,261.696L885.114,261.737L885.129,261.778L885.145,261.819L885.162,261.86L885.178,261.9L885.196,261.94L885.213,261.98L885.231,262.02L885.25,262.059L885.269,262.098L885.289,262.137L885.309,262.176L885.329,262.214L885.35,262.252L885.372,262.29L885.393,262.328L885.416,262.365L885.438,262.402L885.461,262.439L885.485,262.475L885.509,262.511L885.533,262.547L885.558,262.583L885.583,262.618L885.609,262.653L885.635,262.687L885.662,262.721L885.688,262.755L885.716,262.789L885.743,262.822L885.771,262.855L885.8,262.887L885.829,262.92L885.858,262.951L885.887,262.983L885.917,263.014L885.948,263.045L885.978,263.075L886.009,263.105L886.041,263.135L886.072,263.164L886.105,263.193L886.137,263.222L886.17,263.25L886.203,263.278L886.236,263.305L886.27,263.332L886.304,263.359L886.339,263.385L886.373,263.411L886.408,263.436L886.444,263.461L886.479,263.485L886.515,263.509L886.551,263.533L886.588,263.556L886.625,263.579L886.662,263.601L886.699,263.623L886.737,263.645L886.775,263.666L886.813,263.686L886.852,263.706L886.891,263.726L886.93,263.745L886.969,263.764L887.008,263.782L887.048,263.8L887.088,263.817L887.128,263.834L887.169,263.85L887.21,263.866L887.251,263.882L887.292,263.896L887.333,263.911L887.375,263.925L887.417,263.938L887.459,263.951L887.501,263.963L887.544,263.975L887.587,263.987L887.63,263.997L887.673,264.008L887.716,264.017L887.76,264.027L887.804,264.035L887.848,264.044L887.892,264.051L887.936,264.058L887.981,264.065L888.025,264.071L888.07,264.076L888.116,264.081L888.161,264.086L888.206,264.089L888.252,264.093L888.298,264.095L888.344,264.097L888.39,264.099L888.436,264.1L888.486,264.1L1035.51,264.1L1035.56,264.1L1035.61,264.099L1035.66,264.097L1035.7,264.095L1035.75,264.093L1035.79,264.089L1035.84,264.086L1035.88,264.081L1035.93,264.076L1035.97,264.071L1036.02,264.065L1036.06,264.058L1036.11,264.051L1036.15,264.044L1036.2,264.035L1036.24,264.027L1036.28,264.017L1036.33,264.008L1036.37,263.997L1036.41,263.987L1036.46,263.975L1036.5,263.963L1036.54,263.951L1036.58,263.938L1036.62,263.925L1036.67,263.911L1036.71,263.896L1036.75,263.882L1036.79,263.866L1036.83,263.85L1036.87,263.834L1036.91,263.817L1036.95,263.8L1036.99,263.782L1037.03,263.764L1037.07,263.745L1037.11,263.726L1037.15,263.706L1037.19,263.686L1037.22,263.666L1037.26,263.645L1037.3,263.623L1037.34,263.601L1037.38,263.579L1037.41,263.556L1037.45,263.533L1037.49,263.509L1037.52,263.485L1037.56,263.461L1037.59,263.436L1037.63,263.411L1037.66,263.385L1037.7,263.359L1037.73,263.332L1037.76,263.305L1037.8,263.278L1037.83,263.25L1037.86,263.222L1037.89,263.193L1037.93,263.164L1037.96,263.135L1037.99,263.105L1038.02,263.075L1038.05,263.045L1038.08,263.014L1038.11,262.983L1038.14,262.951L1038.17,262.92L1038.2,262.887L1038.23,262.855L1038.26,262.822L1038.28,262.789L1038.31,262.755L1038.34,262.721L1038.37,262.687L1038.39,262.653L1038.42,262.618L1038.44,262.583L1038.47,262.547L1038.49,262.511L1038.52,262.475L1038.54,262.439L1038.56,262.402L1038.58,262.365L1038.61,262.328L1038.63,262.29L1038.65,262.253L1038.67,262.214L1038.69,262.176L1038.71,262.137L1038.73,262.098L1038.75,262.059L1038.77,262.02L1038.79,261.98L1038.8,261.94L1038.82,261.9L1038.84,261.86L1038.86,261.819L1038.87,261.778L1038.89,261.737L1038.9,261.696L1038.91,261.654L1038.93,261.612L1038.94,261.57L1038.95,261.528L1038.97,261.485L1038.98,261.442L1038.99,261.4L1039,261.356L1039.01,261.313L1039.02,261.27L1039.03,261.226L1039.04,261.182L1039.05,261.138L1039.06,261.093L1039.06,261.049L1039.07,261.004L1039.07,260.959L1039.08,260.914L1039.09,260.869L1039.09,260.823L1039.09,260.778L1039.1,260.732L1039.1,260.686L1039.1,260.64L1039.1,260.593L1039.1,260.547L1039.1,260.497L1039.1,224.503L1039.1,224.453L1039.1,224.407L1039.1,224.36L1039.1,224.314L1039.1,224.268L1039.09,224.222L1039.09,224.177L1039.09,224.131L1039.08,224.086L1039.07,224.041L1039.07,223.996L1039.06,223.951L1039.06,223.907L1039.05,223.862L1039.04,223.818L1039.03,223.774L1039.02,223.73L1039.01,223.687L1039,223.644L1038.99,223.6L1038.98,223.558L1038.97,223.515L1038.95,223.472L1038.94,223.43L1038.93,223.388L1038.91,223.346L1038.9,223.304L1038.89,223.263L1038.87,223.222L1038.86,223.181L1038.84,223.14L1038.82,223.1L1038.8,223.06L1038.79,223.02L1038.77,222.98L1038.75,222.941L1038.73,222.902L1038.71,222.863L1038.69,222.824L1038.67,222.786L1038.65,222.747L1038.63,222.71L1038.61,222.672L1038.58,222.635L1038.56,222.598L1038.54,222.561L1038.52,222.525L1038.49,222.489L1038.47,222.453L1038.44,222.417L1038.42,222.382L1038.39,222.347L1038.37,222.313L1038.34,222.279L1038.31,222.245L1038.28,222.211L1038.26,222.178L1038.23,222.145L1038.2,222.113L1038.17,222.08L1038.14,222.049L1038.11,222.017L1038.08,221.986L1038.05,221.955L1038.02,221.925L1037.99,221.895L1037.96,221.865L1037.93,221.836L1037.89,221.807L1037.86,221.778L1037.83,221.75L1037.8,221.722L1037.76,221.695L1037.73,221.668L1037.7,221.641L1037.66,221.615L1037.63,221.589L1037.59,221.564L1037.56,221.539L1037.52,221.515L1037.49,221.491L1037.45,221.467L1037.41,221.444L1037.38,221.421L1037.34,221.399L1037.3,221.377L1037.26,221.355L1037.22,221.334L1037.19,221.314L1037.15,221.294L1037.11,221.274L1037.07,221.255L1037.03,221.236L1036.99,221.218L1036.95,221.2L1036.91,221.183L1036.87,221.166L1036.83,221.15L1036.79,221.134L1036.75,221.118L1036.71,221.104L1036.67,221.089L1036.62,221.075L1036.58,221.062L1036.54,221.049L1036.5,221.037L1036.46,221.025L1036.41,221.013L1036.37,221.003L1036.33,220.992L1036.28,220.983L1036.24,220.973L1036.2,220.965L1036.15,220.956L1036.11,220.949L1036.06,220.942L1036.02,220.935L1035.97,220.929L1035.93,220.924L1035.88,220.919L1035.84,220.914L1035.79,220.911L1035.75,220.907L1035.7,220.905L1035.66,220.903L1035.61,220.901L1035.56,220.9L1035.51,220.9L888.486,220.9Z" style="fill:rgb(243,65,80);"/>
    </g>
</svg>
