<?xml version="1.0" encoding="UTF-8" standalone="no"?>
<!DOCTYPE svg PUBLIC "-//W3C//DTD SVG 1.1//EN" "http://www.w3.org/Graphics/SVG/1.1/DTD/svg11.dtd">
<svg width="100%" height="100%" viewBox="0 0 348 100" version="1.1" xmlns="http://www.w3.org/2000/svg" xmlns:xlink="http://www.w3.org/1999/xlink" xml:space="preserve" style="fill-rule:evenodd;clip-rule:evenodd;stroke-linejoin:round;stroke-miterlimit:1.41421;">
    <g id="White-Button-Outline" transform="matrix(2.2305,0,0,2.22202,-312.271,-488.845)">
        <path d="M291.575,220L291.633,220.001L291.69,220.003L291.748,220.006L291.805,220.009L291.862,220.013L291.919,220.018L291.975,220.023L292.032,220.029L292.088,220.036L292.144,220.044L292.199,220.052L292.255,220.061L292.31,220.07L292.365,220.081L292.42,220.091L292.475,220.103L292.529,220.115L292.583,220.128L292.637,220.142L292.69,220.156L292.744,220.171L292.797,220.186L292.85,220.202L292.902,220.219L292.954,220.237L293.006,220.255L293.058,220.273L293.109,220.292L293.16,220.312L293.211,220.333L293.261,220.354L293.311,220.376L293.361,220.398L293.411,220.421L293.46,220.444L293.509,220.468L293.557,220.493L293.605,220.518L293.653,220.543L293.701,220.57L293.748,220.597L293.795,220.624L293.841,220.652L293.887,220.68L293.933,220.709L293.978,220.739L294.023,220.769L294.067,220.8L294.111,220.831L294.155,220.862L294.199,220.894L294.242,220.927L294.284,220.96L294.326,220.994L294.368,221.028L294.409,221.063L294.45,221.098L294.491,221.134L294.531,221.17L294.57,221.206L294.609,221.243L294.648,221.281L294.686,221.319L294.724,221.357L294.762,221.396L294.798,221.435L294.835,221.475L294.871,221.515L294.906,221.556L294.941,221.597L294.976,221.638L295.01,221.68L295.043,221.722L295.076,221.765L295.109,221.808L295.141,221.852L295.172,221.896L295.203,221.94L295.234,221.985L295.264,222.03L295.293,222.075L295.322,222.121L295.351,222.167L295.378,222.214L295.406,222.261L295.432,222.308L295.459,222.356L295.484,222.404L295.509,222.452L295.534,222.501L295.558,222.55L295.581,222.599L295.604,222.649L295.626,222.699L295.647,222.749L295.668,222.8L295.689,222.851L295.709,222.902L295.728,222.953L295.746,223.005L295.764,223.057L295.782,223.11L295.798,223.162L295.814,223.215L295.83,223.269L295.845,223.322L295.859,223.376L295.872,223.43L295.885,223.484L295.897,223.539L295.909,223.594L295.92,223.649L295.93,223.704L295.939,223.759L295.948,223.815L295.956,223.871L295.964,223.927L295.971,223.984L295.977,224.04L295.982,224.097L295.987,224.154L295.991,224.211L295.994,224.269L295.997,224.326L295.999,224.384L296,224.442L296,224.5L296,260.5L296,260.558L295.999,260.616L295.997,260.674L295.994,260.731L295.991,260.789L295.987,260.846L295.982,260.903L295.977,260.96L295.971,261.016L295.964,261.073L295.956,261.129L295.948,261.185L295.939,261.241L295.93,261.296L295.92,261.351L295.909,261.406L295.897,261.461L295.885,261.516L295.872,261.57L295.859,261.624L295.845,261.678L295.83,261.731L295.814,261.785L295.798,261.838L295.782,261.89L295.764,261.943L295.746,261.995L295.728,262.047L295.709,262.098L295.689,262.149L295.668,262.2L295.647,262.251L295.626,262.301L295.604,262.351L295.581,262.401L295.558,262.45L295.534,262.499L295.509,262.548L295.484,262.596L295.459,262.644L295.432,262.692L295.406,262.739L295.378,262.786L295.351,262.833L295.322,262.879L295.293,262.925L295.264,262.97L295.234,263.015L295.203,263.06L295.172,263.104L295.141,263.148L295.109,263.192L295.076,263.235L295.043,263.278L295.01,263.32L294.976,263.362L294.941,263.403L294.906,263.444L294.871,263.485L294.835,263.525L294.798,263.565L294.762,263.604L294.724,263.643L294.686,263.681L294.648,263.719L294.609,263.757L294.57,263.794L294.531,263.83L294.491,263.866L294.45,263.902L294.409,263.937L294.368,263.972L294.326,264.006L294.284,264.04L294.242,264.073L294.199,264.106L294.155,264.138L294.111,264.169L294.067,264.2L294.023,264.231L293.978,264.261L293.933,264.291L293.887,264.32L293.841,264.348L293.795,264.376L293.748,264.403L293.701,264.43L293.653,264.457L293.605,264.482L293.557,264.507L293.509,264.532L293.46,264.556L293.411,264.579L293.361,264.602L293.311,264.624L293.261,264.646L293.211,264.667L293.16,264.688L293.109,264.708L293.058,264.727L293.006,264.745L292.954,264.763L292.902,264.781L292.85,264.798L292.797,264.814L292.744,264.829L292.69,264.844L292.637,264.858L292.583,264.872L292.529,264.885L292.475,264.897L292.42,264.909L292.365,264.919L292.31,264.93L292.255,264.939L292.199,264.948L292.144,264.956L292.088,264.964L292.032,264.971L291.975,264.977L291.919,264.982L291.862,264.987L291.805,264.991L291.748,264.994L291.69,264.997L291.633,264.999L291.575,265L291.517,265L144.483,265L144.425,265L144.367,264.999L144.31,264.997L144.252,264.994L144.195,264.991L144.138,264.987L144.081,264.982L144.025,264.977L143.968,264.971L143.912,264.964L143.856,264.956L143.801,264.948L143.745,264.939L143.69,264.93L143.635,264.919L143.58,264.909L143.525,264.897L143.471,264.885L143.417,264.872L143.363,264.858L143.31,264.844L143.256,264.829L143.203,264.814L143.15,264.798L143.098,264.781L143.046,264.763L142.994,264.745L142.942,264.727L142.891,264.708L142.84,264.688L142.789,264.667L142.739,264.646L142.689,264.624L142.639,264.602L142.589,264.579L142.54,264.556L142.491,264.532L142.443,264.507L142.395,264.482L142.347,264.457L142.299,264.43L142.252,264.403L142.205,264.376L142.159,264.348L142.113,264.32L142.067,264.291L142.022,264.261L141.977,264.231L141.933,264.2L141.889,264.169L141.845,264.138L141.801,264.106L141.758,264.073L141.716,264.04L141.674,264.006L141.632,263.972L141.591,263.937L141.55,263.902L141.509,263.866L141.469,263.83L141.43,263.794L141.391,263.757L141.352,263.719L141.314,263.681L141.276,263.643L141.238,263.604L141.202,263.565L141.165,263.525L141.129,263.485L141.094,263.444L141.059,263.403L141.024,263.362L140.99,263.32L140.957,263.278L140.924,263.235L140.891,263.192L140.859,263.148L140.828,263.104L140.797,263.06L140.766,263.015L140.736,262.97L140.707,262.925L140.678,262.879L140.649,262.833L140.622,262.786L140.594,262.739L140.568,262.692L140.541,262.644L140.516,262.596L140.491,262.548L140.466,262.499L140.442,262.45L140.419,262.401L140.396,262.351L140.374,262.301L140.353,262.251L140.332,262.2L140.311,262.149L140.291,262.098L140.272,262.047L140.254,261.995L140.236,261.943L140.218,261.89L140.202,261.838L140.186,261.785L140.17,261.731L140.155,261.678L140.141,261.624L140.128,261.57L140.115,261.516L140.103,261.461L140.091,261.406L140.08,261.351L140.07,261.296L140.061,261.241L140.052,261.185L140.044,261.129L140.036,261.073L140.029,261.016L140.023,260.96L140.018,260.903L140.013,260.846L140.009,260.789L140.006,260.731L140.003,260.674L140.001,260.616L140,260.558L140,260.5L140,224.5L140,224.442L140.001,224.384L140.003,224.326L140.006,224.269L140.009,224.211L140.013,224.154L140.018,224.097L140.023,224.04L140.029,223.984L140.036,223.927L140.044,223.871L140.052,223.815L140.061,223.759L140.07,223.704L140.08,223.649L140.091,223.594L140.103,223.539L140.115,223.484L140.128,223.43L140.141,223.376L140.155,223.322L140.17,223.269L140.186,223.215L140.202,223.162L140.218,223.11L140.236,223.057L140.254,223.005L140.272,222.953L140.291,222.902L140.311,222.851L140.332,222.8L140.353,222.749L140.374,222.699L140.396,222.649L140.419,222.599L140.442,222.55L140.466,222.501L140.491,222.452L140.516,222.404L140.541,222.356L140.568,222.308L140.594,222.261L140.622,222.214L140.649,222.167L140.678,222.121L140.707,222.075L140.736,222.03L140.766,221.985L140.797,221.94L140.828,221.896L140.859,221.852L140.891,221.808L140.924,221.765L140.957,221.722L140.99,221.68L141.024,221.638L141.059,221.597L141.094,221.556L141.129,221.515L141.165,221.475L141.202,221.435L141.238,221.396L141.276,221.357L141.314,221.319L141.352,221.281L141.391,221.243L141.43,221.206L141.469,221.17L141.509,221.134L141.55,221.098L141.591,221.063L141.632,221.028L141.674,220.994L141.716,220.96L141.758,220.927L141.801,220.894L141.845,220.862L141.889,220.831L141.933,220.8L141.977,220.769L142.022,220.739L142.067,220.709L142.113,220.68L142.159,220.652L142.205,220.624L142.252,220.597L142.299,220.57L142.347,220.543L142.395,220.518L142.443,220.493L142.491,220.468L142.54,220.444L142.589,220.421L142.639,220.398L142.689,220.376L142.739,220.354L142.789,220.333L142.84,220.312L142.891,220.292L142.942,220.273L142.994,220.255L143.046,220.237L143.098,220.219L143.15,220.202L143.203,220.186L143.256,220.171L143.31,220.156L143.363,220.142L143.417,220.128L143.471,220.115L143.525,220.103L143.58,220.091L143.635,220.081L143.69,220.07L143.745,220.061L143.801,220.052L143.856,220.044L143.912,220.036L143.968,220.029L144.025,220.023L144.081,220.018L144.138,220.013L144.195,220.009L144.252,220.006L144.31,220.003L144.367,220.001L144.425,220L144.483,220L291.517,220L291.575,220ZM144.486,220.9L144.436,220.9L144.39,220.901L144.344,220.903L144.298,220.905L144.252,220.907L144.206,220.911L144.161,220.914L144.116,220.919L144.07,220.924L144.025,220.929L143.981,220.935L143.936,220.942L143.892,220.949L143.848,220.956L143.804,220.965L143.76,220.973L143.716,220.983L143.673,220.992L143.63,221.003L143.587,221.013L143.544,221.025L143.501,221.037L143.459,221.049L143.417,221.062L143.375,221.075L143.333,221.089L143.292,221.104L143.251,221.118L143.21,221.134L143.169,221.15L143.128,221.166L143.088,221.183L143.048,221.2L143.008,221.218L142.969,221.236L142.93,221.255L142.89,221.274L142.852,221.294L142.813,221.314L142.775,221.334L142.737,221.355L142.699,221.377L142.662,221.399L142.625,221.421L142.588,221.444L142.551,221.467L142.515,221.491L142.479,221.515L142.444,221.539L142.408,221.564L142.373,221.589L142.339,221.615L142.304,221.641L142.27,221.668L142.236,221.695L142.203,221.722L142.17,221.75L142.137,221.778L142.105,221.807L142.072,221.836L142.041,221.865L142.009,221.895L141.978,221.925L141.948,221.955L141.917,221.986L141.887,222.017L141.858,222.049L141.829,222.08L141.8,222.113L141.771,222.145L141.743,222.178L141.716,222.211L141.688,222.245L141.662,222.279L141.635,222.313L141.609,222.347L141.583,222.382L141.558,222.417L141.533,222.453L141.509,222.489L141.485,222.525L141.461,222.561L141.438,222.598L141.416,222.635L141.393,222.672L141.372,222.71L141.35,222.748L141.329,222.786L141.309,222.824L141.289,222.863L141.269,222.902L141.25,222.941L141.231,222.98L141.213,223.02L141.196,223.06L141.178,223.1L141.162,223.14L141.145,223.181L141.129,223.222L141.114,223.263L141.099,223.304L141.085,223.346L141.071,223.388L141.058,223.43L141.045,223.472L141.033,223.515L141.021,223.557L141.01,223.6L140.999,223.644L140.989,223.687L140.979,223.73L140.97,223.774L140.961,223.818L140.953,223.862L140.945,223.907L140.938,223.951L140.932,223.996L140.926,224.041L140.92,224.086L140.915,224.131L140.911,224.177L140.907,224.222L140.904,224.268L140.901,224.314L140.899,224.36L140.898,224.407L140.897,224.453L140.897,224.503L140.897,260.497L140.897,260.547L140.898,260.593L140.899,260.64L140.901,260.686L140.904,260.732L140.907,260.778L140.911,260.823L140.915,260.869L140.92,260.914L140.926,260.959L140.932,261.004L140.938,261.049L140.945,261.093L140.953,261.138L140.961,261.182L140.97,261.226L140.979,261.27L140.989,261.313L140.999,261.356L141.01,261.4L141.021,261.443L141.033,261.485L141.045,261.528L141.058,261.57L141.071,261.612L141.085,261.654L141.099,261.696L141.114,261.737L141.129,261.778L141.145,261.819L141.162,261.86L141.178,261.9L141.196,261.94L141.213,261.98L141.231,262.02L141.25,262.059L141.269,262.098L141.289,262.137L141.309,262.176L141.329,262.214L141.35,262.252L141.372,262.29L141.393,262.328L141.416,262.365L141.438,262.402L141.461,262.439L141.485,262.475L141.509,262.511L141.533,262.547L141.558,262.583L141.583,262.618L141.609,262.653L141.635,262.687L141.662,262.721L141.688,262.755L141.716,262.789L141.743,262.822L141.771,262.855L141.8,262.887L141.829,262.92L141.858,262.951L141.887,262.983L141.917,263.014L141.948,263.045L141.978,263.075L142.009,263.105L142.041,263.135L142.072,263.164L142.105,263.193L142.137,263.222L142.17,263.25L142.203,263.278L142.236,263.305L142.27,263.332L142.304,263.359L142.339,263.385L142.373,263.411L142.408,263.436L142.444,263.461L142.479,263.485L142.515,263.509L142.551,263.533L142.588,263.556L142.625,263.579L142.662,263.601L142.699,263.623L142.737,263.645L142.775,263.666L142.813,263.686L142.852,263.706L142.891,263.726L142.93,263.745L142.969,263.764L143.008,263.782L143.048,263.8L143.088,263.817L143.128,263.834L143.169,263.85L143.21,263.866L143.251,263.882L143.292,263.896L143.333,263.911L143.375,263.925L143.417,263.938L143.459,263.951L143.501,263.963L143.544,263.975L143.587,263.987L143.63,263.997L143.673,264.008L143.716,264.017L143.76,264.027L143.804,264.035L143.848,264.044L143.892,264.051L143.936,264.058L143.981,264.065L144.025,264.071L144.07,264.076L144.116,264.081L144.161,264.086L144.206,264.089L144.252,264.093L144.298,264.095L144.344,264.097L144.39,264.099L144.436,264.1L144.486,264.1L291.514,264.1L291.564,264.1L291.61,264.099L291.656,264.097L291.702,264.095L291.748,264.093L291.794,264.089L291.839,264.086L291.884,264.081L291.93,264.076L291.975,264.071L292.019,264.065L292.064,264.058L292.108,264.051L292.152,264.044L292.196,264.035L292.24,264.027L292.284,264.017L292.327,264.008L292.37,263.997L292.413,263.987L292.456,263.975L292.499,263.963L292.541,263.951L292.583,263.938L292.625,263.925L292.667,263.911L292.708,263.896L292.749,263.882L292.79,263.866L292.831,263.85L292.872,263.834L292.912,263.817L292.952,263.8L292.992,263.782L293.031,263.764L293.07,263.745L293.109,263.726L293.148,263.706L293.187,263.686L293.225,263.666L293.263,263.645L293.301,263.623L293.338,263.601L293.375,263.579L293.412,263.556L293.449,263.533L293.485,263.509L293.521,263.485L293.556,263.461L293.592,263.436L293.627,263.411L293.661,263.385L293.696,263.359L293.73,263.332L293.764,263.305L293.797,263.278L293.83,263.25L293.863,263.222L293.895,263.193L293.928,263.164L293.959,263.135L293.991,263.105L294.022,263.075L294.052,263.045L294.083,263.014L294.113,262.983L294.142,262.951L294.171,262.92L294.2,262.887L294.229,262.855L294.257,262.822L294.284,262.789L294.311,262.755L294.338,262.721L294.365,262.687L294.391,262.653L294.417,262.618L294.442,262.583L294.467,262.547L294.491,262.511L294.515,262.475L294.539,262.439L294.562,262.402L294.584,262.365L294.607,262.328L294.628,262.29L294.65,262.253L294.671,262.214L294.691,262.176L294.711,262.137L294.731,262.098L294.75,262.059L294.769,262.02L294.787,261.98L294.804,261.94L294.822,261.9L294.838,261.86L294.855,261.819L294.871,261.778L294.886,261.737L294.901,261.696L294.915,261.654L294.929,261.612L294.942,261.57L294.955,261.528L294.967,261.485L294.979,261.442L294.99,261.4L295.001,261.356L295.011,261.313L295.021,261.27L295.03,261.226L295.039,261.182L295.047,261.138L295.055,261.093L295.062,261.049L295.068,261.004L295.074,260.959L295.08,260.914L295.085,260.869L295.089,260.823L295.093,260.778L295.096,260.732L295.099,260.686L295.101,260.64L295.102,260.593L295.103,260.547L295.103,260.497L295.103,224.503L295.103,224.453L295.102,224.407L295.101,224.36L295.099,224.314L295.096,224.268L295.093,224.222L295.089,224.177L295.085,224.131L295.08,224.086L295.074,224.041L295.068,223.996L295.062,223.951L295.055,223.907L295.047,223.862L295.039,223.818L295.03,223.774L295.021,223.73L295.011,223.687L295.001,223.644L294.99,223.6L294.979,223.558L294.967,223.515L294.955,223.472L294.942,223.43L294.929,223.388L294.915,223.346L294.901,223.304L294.886,223.263L294.871,223.222L294.855,223.181L294.838,223.14L294.822,223.1L294.804,223.06L294.787,223.02L294.769,222.98L294.75,222.941L294.731,222.902L294.711,222.863L294.691,222.824L294.671,222.786L294.65,222.747L294.628,222.71L294.607,222.672L294.584,222.635L294.562,222.598L294.539,222.561L294.515,222.525L294.491,222.489L294.467,222.453L294.442,222.417L294.417,222.382L294.391,222.347L294.365,222.313L294.338,222.279L294.312,222.245L294.284,222.211L294.257,222.178L294.229,222.145L294.2,222.113L294.171,222.08L294.142,222.049L294.113,222.017L294.083,221.986L294.052,221.955L294.022,221.925L293.991,221.895L293.959,221.865L293.928,221.836L293.895,221.807L293.863,221.778L293.83,221.75L293.797,221.722L293.764,221.695L293.73,221.668L293.696,221.641L293.661,221.615L293.627,221.589L293.592,221.564L293.556,221.539L293.521,221.515L293.485,221.491L293.449,221.467L293.412,221.444L293.375,221.421L293.338,221.399L293.301,221.377L293.263,221.355L293.225,221.334L293.187,221.314L293.148,221.294L293.109,221.274L293.07,221.255L293.031,221.236L292.992,221.218L292.952,221.2L292.912,221.183L292.872,221.166L292.831,221.15L292.79,221.134L292.749,221.118L292.708,221.104L292.667,221.089L292.625,221.075L292.583,221.062L292.541,221.049L292.499,221.037L292.456,221.025L292.413,221.013L292.37,221.003L292.327,220.992L292.284,220.983L292.24,220.973L292.196,220.965L292.152,220.956L292.108,220.949L292.064,220.942L292.019,220.935L291.975,220.929L291.93,220.924L291.884,220.919L291.839,220.914L291.794,220.911L291.748,220.907L291.702,220.905L291.656,220.903L291.61,220.901L291.564,220.9L291.514,220.9L144.486,220.9Z" style="fill:white;"/>
    </g>
</svg>
