<?xml version="1.0" encoding="UTF-8" standalone="no"?>
<!DOCTYPE svg PUBLIC "-//W3C//DTD SVG 1.1//EN" "http://www.w3.org/Graphics/SVG/1.1/DTD/svg11.dtd">
<svg width="100%" height="100%" viewBox="0 0 348 100" version="1.1" xmlns="http://www.w3.org/2000/svg" xmlns:xlink="http://www.w3.org/1999/xlink" xml:space="preserve" style="fill-rule:evenodd;clip-rule:evenodd;stroke-linejoin:round;stroke-miterlimit:1.41421;">
    <g id="Yellow-Button-Outline" transform="matrix(2.2305,0,0,2.22202,-1142.02,-488.845)">
        <path d="M663.575,220L663.633,220.001L663.69,220.003L663.748,220.006L663.805,220.009L663.862,220.013L663.919,220.018L663.975,220.023L664.032,220.029L664.088,220.036L664.144,220.044L664.199,220.052L664.255,220.061L664.31,220.07L664.365,220.081L664.42,220.091L664.475,220.103L664.529,220.115L664.583,220.128L664.637,220.142L664.69,220.156L664.744,220.171L664.797,220.186L664.85,220.202L664.902,220.219L664.954,220.237L665.006,220.255L665.058,220.273L665.109,220.292L665.16,220.312L665.211,220.333L665.261,220.354L665.311,220.376L665.361,220.398L665.411,220.421L665.46,220.444L665.509,220.468L665.557,220.493L665.605,220.518L665.653,220.543L665.701,220.57L665.748,220.597L665.795,220.624L665.841,220.652L665.887,220.68L665.933,220.709L665.978,220.739L666.023,220.769L666.067,220.8L666.111,220.831L666.155,220.862L666.199,220.894L666.242,220.927L666.284,220.96L666.326,220.994L666.368,221.028L666.409,221.063L666.45,221.098L666.491,221.134L666.531,221.17L666.57,221.206L666.609,221.243L666.648,221.281L666.686,221.319L666.724,221.357L666.762,221.396L666.798,221.435L666.835,221.475L666.871,221.515L666.906,221.556L666.941,221.597L666.976,221.638L667.01,221.68L667.043,221.722L667.076,221.765L667.109,221.808L667.141,221.852L667.172,221.896L667.203,221.94L667.234,221.985L667.264,222.03L667.293,222.075L667.322,222.121L667.351,222.167L667.378,222.214L667.406,222.261L667.432,222.308L667.459,222.356L667.484,222.404L667.509,222.452L667.534,222.501L667.558,222.55L667.581,222.599L667.604,222.649L667.626,222.699L667.647,222.749L667.668,222.8L667.689,222.851L667.709,222.902L667.728,222.953L667.746,223.005L667.764,223.057L667.782,223.11L667.798,223.162L667.814,223.215L667.83,223.269L667.845,223.322L667.859,223.376L667.872,223.43L667.885,223.484L667.897,223.539L667.909,223.594L667.92,223.649L667.93,223.704L667.939,223.759L667.948,223.815L667.956,223.871L667.964,223.927L667.971,223.984L667.977,224.04L667.982,224.097L667.987,224.154L667.991,224.211L667.994,224.269L667.997,224.326L667.999,224.384L668,224.442L668,224.5L668,260.5L668,260.558L667.999,260.616L667.997,260.674L667.994,260.731L667.991,260.789L667.987,260.846L667.982,260.903L667.977,260.96L667.971,261.016L667.964,261.073L667.956,261.129L667.948,261.185L667.939,261.241L667.93,261.296L667.92,261.351L667.909,261.406L667.897,261.461L667.885,261.516L667.872,261.57L667.859,261.624L667.845,261.678L667.83,261.731L667.814,261.785L667.798,261.838L667.782,261.89L667.764,261.943L667.746,261.995L667.728,262.047L667.709,262.098L667.689,262.149L667.668,262.2L667.647,262.251L667.626,262.301L667.604,262.351L667.581,262.401L667.558,262.45L667.534,262.499L667.509,262.548L667.484,262.596L667.459,262.644L667.432,262.692L667.406,262.739L667.378,262.786L667.351,262.833L667.322,262.879L667.293,262.925L667.264,262.97L667.234,263.015L667.203,263.06L667.172,263.104L667.141,263.148L667.109,263.192L667.076,263.235L667.043,263.278L667.01,263.32L666.976,263.362L666.941,263.403L666.906,263.444L666.871,263.485L666.835,263.525L666.798,263.565L666.762,263.604L666.724,263.643L666.686,263.681L666.648,263.719L666.609,263.757L666.57,263.794L666.531,263.83L666.491,263.866L666.45,263.902L666.409,263.937L666.368,263.972L666.326,264.006L666.284,264.04L666.242,264.073L666.199,264.106L666.155,264.138L666.111,264.169L666.067,264.2L666.023,264.231L665.978,264.261L665.933,264.291L665.887,264.32L665.841,264.348L665.795,264.376L665.748,264.403L665.701,264.43L665.653,264.457L665.605,264.482L665.557,264.507L665.509,264.532L665.46,264.556L665.411,264.579L665.361,264.602L665.311,264.624L665.261,264.646L665.211,264.667L665.16,264.688L665.109,264.708L665.058,264.727L665.006,264.745L664.954,264.763L664.902,264.781L664.85,264.798L664.797,264.814L664.744,264.829L664.69,264.844L664.637,264.858L664.583,264.872L664.529,264.885L664.475,264.897L664.42,264.909L664.365,264.919L664.31,264.93L664.255,264.939L664.199,264.948L664.144,264.956L664.088,264.964L664.032,264.971L663.975,264.977L663.919,264.982L663.862,264.987L663.805,264.991L663.748,264.994L663.69,264.997L663.633,264.999L663.575,265L663.517,265L516.483,265L516.425,265L516.367,264.999L516.31,264.997L516.252,264.994L516.195,264.991L516.138,264.987L516.081,264.982L516.025,264.977L515.968,264.971L515.912,264.964L515.856,264.956L515.801,264.948L515.745,264.939L515.69,264.93L515.635,264.919L515.58,264.909L515.525,264.897L515.471,264.885L515.417,264.872L515.363,264.858L515.31,264.844L515.256,264.829L515.203,264.814L515.15,264.798L515.098,264.781L515.046,264.763L514.994,264.745L514.942,264.727L514.891,264.708L514.84,264.688L514.789,264.667L514.739,264.646L514.689,264.624L514.639,264.602L514.589,264.579L514.54,264.556L514.491,264.532L514.443,264.507L514.395,264.482L514.347,264.457L514.299,264.43L514.252,264.403L514.205,264.376L514.159,264.348L514.113,264.32L514.067,264.291L514.022,264.261L513.977,264.231L513.933,264.2L513.889,264.169L513.845,264.138L513.801,264.106L513.758,264.073L513.716,264.04L513.674,264.006L513.632,263.972L513.591,263.937L513.55,263.902L513.509,263.866L513.469,263.83L513.43,263.794L513.391,263.757L513.352,263.719L513.314,263.681L513.276,263.643L513.238,263.604L513.202,263.565L513.165,263.525L513.129,263.485L513.094,263.444L513.059,263.403L513.024,263.362L512.99,263.32L512.957,263.278L512.924,263.235L512.891,263.192L512.859,263.148L512.828,263.104L512.797,263.06L512.766,263.015L512.736,262.97L512.707,262.925L512.678,262.879L512.649,262.833L512.622,262.786L512.594,262.739L512.568,262.692L512.541,262.644L512.516,262.596L512.491,262.548L512.466,262.499L512.442,262.45L512.419,262.401L512.396,262.351L512.374,262.301L512.353,262.251L512.332,262.2L512.311,262.149L512.291,262.098L512.272,262.047L512.254,261.995L512.236,261.943L512.218,261.89L512.202,261.838L512.186,261.785L512.17,261.731L512.155,261.678L512.141,261.624L512.128,261.57L512.115,261.516L512.103,261.461L512.091,261.406L512.08,261.351L512.07,261.296L512.061,261.241L512.052,261.185L512.044,261.129L512.036,261.073L512.029,261.016L512.023,260.96L512.018,260.903L512.013,260.846L512.009,260.789L512.006,260.731L512.003,260.674L512.001,260.616L512,260.558L512,260.5L512,224.5L512,224.442L512.001,224.384L512.003,224.326L512.006,224.269L512.009,224.211L512.013,224.154L512.018,224.097L512.023,224.04L512.029,223.984L512.036,223.927L512.044,223.871L512.052,223.815L512.061,223.759L512.07,223.704L512.08,223.649L512.091,223.594L512.103,223.539L512.115,223.484L512.128,223.43L512.141,223.376L512.155,223.322L512.17,223.269L512.186,223.215L512.202,223.162L512.218,223.11L512.236,223.057L512.254,223.005L512.272,222.953L512.291,222.902L512.311,222.851L512.332,222.8L512.353,222.749L512.374,222.699L512.396,222.649L512.419,222.599L512.442,222.55L512.466,222.501L512.491,222.452L512.516,222.404L512.541,222.356L512.568,222.308L512.594,222.261L512.622,222.214L512.649,222.167L512.678,222.121L512.707,222.075L512.736,222.03L512.766,221.985L512.797,221.94L512.828,221.896L512.859,221.852L512.891,221.808L512.924,221.765L512.957,221.722L512.99,221.68L513.024,221.638L513.059,221.597L513.094,221.556L513.129,221.515L513.165,221.475L513.202,221.435L513.238,221.396L513.276,221.357L513.314,221.319L513.352,221.281L513.391,221.243L513.43,221.206L513.469,221.17L513.509,221.134L513.55,221.098L513.591,221.063L513.632,221.028L513.674,220.994L513.716,220.96L513.758,220.927L513.801,220.894L513.845,220.862L513.889,220.831L513.933,220.8L513.977,220.769L514.022,220.739L514.067,220.709L514.113,220.68L514.159,220.652L514.205,220.624L514.252,220.597L514.299,220.57L514.347,220.543L514.395,220.518L514.443,220.493L514.491,220.468L514.54,220.444L514.589,220.421L514.639,220.398L514.689,220.376L514.739,220.354L514.789,220.333L514.84,220.312L514.891,220.292L514.942,220.273L514.994,220.255L515.046,220.237L515.098,220.219L515.15,220.202L515.203,220.186L515.256,220.171L515.31,220.156L515.363,220.142L515.417,220.128L515.471,220.115L515.525,220.103L515.58,220.091L515.635,220.081L515.69,220.07L515.745,220.061L515.801,220.052L515.856,220.044L515.912,220.036L515.968,220.029L516.025,220.023L516.081,220.018L516.138,220.013L516.195,220.009L516.252,220.006L516.31,220.003L516.367,220.001L516.425,220L516.483,220L663.517,220L663.575,220ZM516.486,220.9L516.436,220.9L516.39,220.901L516.344,220.903L516.298,220.905L516.252,220.907L516.206,220.911L516.161,220.914L516.116,220.919L516.07,220.924L516.025,220.929L515.981,220.935L515.936,220.942L515.892,220.949L515.848,220.956L515.804,220.965L515.76,220.973L515.716,220.983L515.673,220.992L515.63,221.003L515.587,221.013L515.544,221.025L515.501,221.037L515.459,221.049L515.417,221.062L515.375,221.075L515.333,221.089L515.292,221.104L515.251,221.118L515.21,221.134L515.169,221.15L515.128,221.166L515.088,221.183L515.048,221.2L515.008,221.218L514.969,221.236L514.93,221.255L514.89,221.274L514.852,221.294L514.813,221.314L514.775,221.334L514.737,221.355L514.699,221.377L514.662,221.399L514.625,221.421L514.588,221.444L514.551,221.467L514.515,221.491L514.479,221.515L514.444,221.539L514.408,221.564L514.373,221.589L514.339,221.615L514.304,221.641L514.27,221.668L514.236,221.695L514.203,221.722L514.17,221.75L514.137,221.778L514.105,221.807L514.072,221.836L514.041,221.865L514.009,221.895L513.978,221.925L513.948,221.955L513.917,221.986L513.887,222.017L513.858,222.049L513.829,222.08L513.8,222.113L513.771,222.145L513.743,222.178L513.716,222.211L513.688,222.245L513.662,222.279L513.635,222.313L513.609,222.347L513.583,222.382L513.558,222.417L513.533,222.453L513.509,222.489L513.485,222.525L513.461,222.561L513.438,222.598L513.416,222.635L513.393,222.672L513.372,222.71L513.35,222.748L513.329,222.786L513.309,222.824L513.289,222.863L513.269,222.902L513.25,222.941L513.231,222.98L513.213,223.02L513.196,223.06L513.178,223.1L513.162,223.14L513.145,223.181L513.129,223.222L513.114,223.263L513.099,223.304L513.085,223.346L513.071,223.388L513.058,223.43L513.045,223.472L513.033,223.515L513.021,223.557L513.01,223.6L512.999,223.644L512.989,223.687L512.979,223.73L512.97,223.774L512.961,223.818L512.953,223.862L512.945,223.907L512.938,223.951L512.932,223.996L512.926,224.041L512.92,224.086L512.915,224.131L512.911,224.177L512.907,224.222L512.904,224.268L512.901,224.314L512.899,224.36L512.898,224.407L512.897,224.453L512.897,224.503L512.897,260.497L512.897,260.547L512.898,260.593L512.899,260.64L512.901,260.686L512.904,260.732L512.907,260.778L512.911,260.823L512.915,260.869L512.92,260.914L512.926,260.959L512.932,261.004L512.938,261.049L512.945,261.093L512.953,261.138L512.961,261.182L512.97,261.226L512.979,261.27L512.989,261.313L512.999,261.356L513.01,261.4L513.021,261.443L513.033,261.485L513.045,261.528L513.058,261.57L513.071,261.612L513.085,261.654L513.099,261.696L513.114,261.737L513.129,261.778L513.145,261.819L513.162,261.86L513.178,261.9L513.196,261.94L513.213,261.98L513.231,262.02L513.25,262.059L513.269,262.098L513.289,262.137L513.309,262.176L513.329,262.214L513.35,262.252L513.372,262.29L513.393,262.328L513.416,262.365L513.438,262.402L513.461,262.439L513.485,262.475L513.509,262.511L513.533,262.547L513.558,262.583L513.583,262.618L513.609,262.653L513.635,262.687L513.662,262.721L513.688,262.755L513.716,262.789L513.743,262.822L513.771,262.855L513.8,262.887L513.829,262.92L513.858,262.951L513.887,262.983L513.917,263.014L513.948,263.045L513.978,263.075L514.009,263.105L514.041,263.135L514.072,263.164L514.105,263.193L514.137,263.222L514.17,263.25L514.203,263.278L514.236,263.305L514.27,263.332L514.304,263.359L514.339,263.385L514.373,263.411L514.408,263.436L514.444,263.461L514.479,263.485L514.515,263.509L514.551,263.533L514.588,263.556L514.625,263.579L514.662,263.601L514.699,263.623L514.737,263.645L514.775,263.666L514.813,263.686L514.852,263.706L514.891,263.726L514.93,263.745L514.969,263.764L515.008,263.782L515.048,263.8L515.088,263.817L515.128,263.834L515.169,263.85L515.21,263.866L515.251,263.882L515.292,263.896L515.333,263.911L515.375,263.925L515.417,263.938L515.459,263.951L515.501,263.963L515.544,263.975L515.587,263.987L515.63,263.997L515.673,264.008L515.716,264.017L515.76,264.027L515.804,264.035L515.848,264.044L515.892,264.051L515.936,264.058L515.981,264.065L516.025,264.071L516.07,264.076L516.116,264.081L516.161,264.086L516.206,264.089L516.252,264.093L516.298,264.095L516.344,264.097L516.39,264.099L516.436,264.1L516.486,264.1L663.514,264.1L663.564,264.1L663.61,264.099L663.656,264.097L663.702,264.095L663.748,264.093L663.794,264.089L663.839,264.086L663.884,264.081L663.93,264.076L663.975,264.071L664.019,264.065L664.064,264.058L664.108,264.051L664.152,264.044L664.196,264.035L664.24,264.027L664.284,264.017L664.327,264.008L664.37,263.997L664.413,263.987L664.456,263.975L664.499,263.963L664.541,263.951L664.583,263.938L664.625,263.925L664.667,263.911L664.708,263.896L664.749,263.882L664.79,263.866L664.831,263.85L664.872,263.834L664.912,263.817L664.952,263.8L664.992,263.782L665.031,263.764L665.07,263.745L665.109,263.726L665.148,263.706L665.187,263.686L665.225,263.666L665.263,263.645L665.301,263.623L665.338,263.601L665.375,263.579L665.412,263.556L665.449,263.533L665.485,263.509L665.521,263.485L665.556,263.461L665.592,263.436L665.627,263.411L665.661,263.385L665.696,263.359L665.73,263.332L665.764,263.305L665.797,263.278L665.83,263.25L665.863,263.222L665.895,263.193L665.928,263.164L665.959,263.135L665.991,263.105L666.022,263.075L666.052,263.045L666.083,263.014L666.113,262.983L666.142,262.951L666.171,262.92L666.2,262.887L666.229,262.855L666.257,262.822L666.284,262.789L666.311,262.755L666.338,262.721L666.365,262.687L666.391,262.653L666.417,262.618L666.442,262.583L666.467,262.547L666.491,262.511L666.515,262.475L666.539,262.439L666.562,262.402L666.584,262.365L666.607,262.328L666.628,262.29L666.65,262.253L666.671,262.214L666.691,262.176L666.711,262.137L666.731,262.098L666.75,262.059L666.769,262.02L666.787,261.98L666.804,261.94L666.822,261.9L666.838,261.86L666.855,261.819L666.871,261.778L666.886,261.737L666.901,261.696L666.915,261.654L666.929,261.612L666.942,261.57L666.955,261.528L666.967,261.485L666.979,261.442L666.99,261.4L667.001,261.356L667.011,261.313L667.021,261.27L667.03,261.226L667.039,261.182L667.047,261.138L667.055,261.093L667.062,261.049L667.068,261.004L667.074,260.959L667.08,260.914L667.085,260.869L667.089,260.823L667.093,260.778L667.096,260.732L667.099,260.686L667.101,260.64L667.102,260.593L667.103,260.547L667.103,260.497L667.103,224.503L667.103,224.453L667.102,224.407L667.101,224.36L667.099,224.314L667.096,224.268L667.093,224.222L667.089,224.177L667.085,224.131L667.08,224.086L667.074,224.041L667.068,223.996L667.062,223.951L667.055,223.907L667.047,223.862L667.039,223.818L667.03,223.774L667.021,223.73L667.011,223.687L667.001,223.644L666.99,223.6L666.979,223.558L666.967,223.515L666.955,223.472L666.942,223.43L666.929,223.388L666.915,223.346L666.901,223.304L666.886,223.263L666.871,223.222L666.855,223.181L666.838,223.14L666.822,223.1L666.804,223.06L666.787,223.02L666.769,222.98L666.75,222.941L666.731,222.902L666.711,222.863L666.691,222.824L666.671,222.786L666.65,222.747L666.628,222.71L666.607,222.672L666.584,222.635L666.562,222.598L666.539,222.561L666.515,222.525L666.491,222.489L666.467,222.453L666.442,222.417L666.417,222.382L666.391,222.347L666.365,222.313L666.338,222.279L666.312,222.245L666.284,222.211L666.257,222.178L666.229,222.145L666.2,222.113L666.171,222.08L666.142,222.049L666.113,222.017L666.083,221.986L666.052,221.955L666.022,221.925L665.991,221.895L665.959,221.865L665.928,221.836L665.895,221.807L665.863,221.778L665.83,221.75L665.797,221.722L665.764,221.695L665.73,221.668L665.696,221.641L665.661,221.615L665.627,221.589L665.592,221.564L665.556,221.539L665.521,221.515L665.485,221.491L665.449,221.467L665.412,221.444L665.375,221.421L665.338,221.399L665.301,221.377L665.263,221.355L665.225,221.334L665.187,221.314L665.148,221.294L665.109,221.274L665.07,221.255L665.031,221.236L664.992,221.218L664.952,221.2L664.912,221.183L664.872,221.166L664.831,221.15L664.79,221.134L664.749,221.118L664.708,221.104L664.667,221.089L664.625,221.075L664.583,221.062L664.541,221.049L664.499,221.037L664.456,221.025L664.413,221.013L664.37,221.003L664.327,220.992L664.284,220.983L664.24,220.973L664.196,220.965L664.152,220.956L664.108,220.949L664.064,220.942L664.019,220.935L663.975,220.929L663.93,220.924L663.884,220.919L663.839,220.914L663.794,220.911L663.748,220.907L663.702,220.905L663.656,220.903L663.61,220.901L663.564,220.9L663.514,220.9L516.486,220.9Z" style="fill:rgb(255,189,23);"/>
    </g>
</svg>
