<?xml version="1.0" encoding="UTF-8" standalone="no"?>
<!DOCTYPE svg PUBLIC "-//W3C//DTD SVG 1.1//EN" "http://www.w3.org/Graphics/SVG/1.1/DTD/svg11.dtd">
<svg width="100%" height="100%" viewBox="0 0 330 331" version="1.1" xmlns="http://www.w3.org/2000/svg" xmlns:xlink="http://www.w3.org/1999/xlink" xml:space="preserve" style="fill-rule:evenodd;clip-rule:evenodd;stroke-linejoin:round;stroke-miterlimit:1.41421;">
    <g transform="matrix(1,0,0,1,-171,-116)">
        <g transform="matrix(4.92819,0,0,4.92819,-2107.45,-544.803)">
            <g id="Command-Button-Dark" transform="matrix(1,0,0,1,-676.905,-584.997)">
                <g transform="matrix(1,0,0,1,234.262,-561.328)">
                    <path d="M971.93,1286.53C971.93,1283.2 969.232,1280.5 965.908,1280.5L911.04,1280.5C907.717,1280.5 905.018,1283.2 905.018,1286.53L905.018,1341.39C905.018,1344.72 907.717,1347.42 911.04,1347.42L965.908,1347.42C969.232,1347.42 971.93,1344.72 971.93,1341.39L971.93,1286.53Z" style="fill:rgb(59,59,59);"/>
                </g>
                <g transform="matrix(2.98527,0,0,2.98527,-2756.15,-3206.96)">
                    <path d="M1313.81,1325.35L1312.46,1325.35C1311.71,1325.35 1311.08,1325.08 1310.55,1324.56C1310.03,1324.03 1309.76,1323.4 1309.76,1322.65C1309.76,1321.91 1310.03,1321.27 1310.55,1320.75C1311.08,1320.22 1311.71,1319.96 1312.46,1319.96C1313.2,1319.96 1313.84,1320.22 1314.37,1320.75C1314.9,1321.27 1315.16,1321.91 1315.16,1322.65L1315.16,1324L1316.51,1324L1316.51,1322.65C1316.51,1321.91 1316.78,1321.27 1317.3,1320.75C1317.83,1320.22 1318.46,1319.96 1319.21,1319.96C1319.95,1319.96 1320.59,1320.22 1321.11,1320.75C1321.64,1321.27 1321.9,1321.91 1321.9,1322.65C1321.9,1323.4 1321.64,1324.03 1321.11,1324.56C1320.59,1325.08 1319.95,1325.35 1319.21,1325.35L1317.86,1325.35L1317.86,1326.7L1319.21,1326.7C1319.95,1326.7 1320.59,1326.96 1321.11,1327.49C1321.64,1328.02 1321.9,1328.66 1321.9,1329.4C1321.9,1330.15 1321.64,1330.78 1321.11,1331.31C1320.59,1331.83 1319.95,1332.1 1319.21,1332.1C1318.46,1332.1 1317.83,1331.83 1317.3,1331.31C1316.78,1330.78 1316.51,1330.15 1316.51,1329.4L1316.51,1328.05L1315.16,1328.05L1315.16,1329.4C1315.16,1330.15 1314.9,1330.78 1314.37,1331.31C1313.84,1331.83 1313.2,1332.1 1312.46,1332.1C1311.71,1332.1 1311.08,1331.83 1310.55,1331.31C1310.03,1330.78 1309.76,1330.15 1309.76,1329.4C1309.76,1328.66 1310.03,1328.02 1310.55,1327.49C1311.08,1326.96 1311.71,1326.7 1312.46,1326.7L1313.81,1326.7L1313.81,1325.35ZM1315.16,1326.7L1316.51,1326.7L1316.51,1325.35L1315.16,1325.35L1315.16,1326.7ZM1313.81,1324L1313.81,1322.65C1313.81,1322.28 1313.68,1321.96 1313.41,1321.7C1313.15,1321.43 1312.83,1321.3 1312.46,1321.3C1312.09,1321.3 1311.77,1321.43 1311.51,1321.7C1311.25,1321.96 1311.11,1322.28 1311.11,1322.65C1311.11,1323.03 1311.25,1323.35 1311.51,1323.61C1311.77,1323.87 1312.09,1324 1312.46,1324L1313.81,1324ZM1317.86,1324L1319.21,1324C1319.58,1324 1319.9,1323.87 1320.16,1323.6C1320.43,1323.34 1320.56,1323.02 1320.56,1322.65C1320.56,1322.28 1320.43,1321.96 1320.16,1321.7C1319.89,1321.43 1319.58,1321.3 1319.21,1321.3C1318.83,1321.3 1318.51,1321.43 1318.25,1321.7C1317.99,1321.96 1317.86,1322.28 1317.86,1322.65L1317.86,1324ZM1317.86,1328.05L1317.86,1329.4C1317.86,1329.77 1317.99,1330.09 1318.26,1330.35C1318.52,1330.61 1318.84,1330.75 1319.21,1330.75C1319.58,1330.75 1319.9,1330.61 1320.16,1330.35C1320.43,1330.09 1320.56,1329.77 1320.56,1329.39C1320.56,1329.02 1320.43,1328.71 1320.16,1328.44C1319.89,1328.18 1319.58,1328.05 1319.21,1328.05L1317.86,1328.05ZM1313.81,1328.05L1312.46,1328.05C1312.09,1328.05 1311.77,1328.18 1311.51,1328.44C1311.25,1328.71 1311.11,1329.03 1311.11,1329.4C1311.11,1329.77 1311.25,1330.09 1311.51,1330.35C1311.77,1330.61 1312.09,1330.75 1312.46,1330.75C1312.83,1330.75 1313.15,1330.61 1313.41,1330.35C1313.68,1330.09 1313.81,1329.77 1313.81,1329.4L1313.81,1328.05Z" style="fill:white;fill-rule:nonzero;"/>
                </g>
            </g>
        </g>
    </g>
</svg>
