<?xml version="1.0" encoding="UTF-8" standalone="no"?>
<!DOCTYPE svg PUBLIC "-//W3C//DTD SVG 1.1//EN" "http://www.w3.org/Graphics/SVG/1.1/DTD/svg11.dtd">
<svg width="100%" height="100%" viewBox="0 0 414 385" version="1.1" xmlns="http://www.w3.org/2000/svg" xmlns:xlink="http://www.w3.org/1999/xlink" xml:space="preserve" style="fill-rule:evenodd;clip-rule:evenodd;stroke-linejoin:round;stroke-miterlimit:1.41421;">
    <g transform="matrix(1,0,0,1,-129,-89)">
        <g transform="matrix(4.92819,0,0,4.92819,-2107.45,-544.803)">
            <g id="Enter-Button-Dark" transform="matrix(1,0,0,1,-419.777,-409.397)">
                <g transform="matrix(1,0,0,1,-285.219,-729.609)">
                    <path d="M1242.67,1294.09C1242.67,1291.28 1240.38,1289 1237.57,1289L1164.08,1289C1161.27,1289 1158.99,1291.28 1158.99,1294.09L1158.99,1340.51C1158.99,1343.32 1161.27,1345.6 1164.08,1345.6L1237.57,1345.6C1240.38,1345.6 1242.67,1343.32 1242.67,1340.51L1242.67,1294.09Z" style="fill:rgb(59,59,59);"/>
                    <g transform="matrix(1,0,0,1.18267,0,-231.529)">
                        <path d="M1242.57,1270.53C1242.57,1268.94 1241.04,1267.64 1239.15,1267.64L1208.02,1267.64C1206.13,1267.64 1204.6,1268.94 1204.6,1270.53L1204.6,1330.64C1204.6,1332.24 1206.13,1333.53 1208.02,1333.53L1239.15,1333.53C1241.04,1333.53 1242.57,1332.24 1242.57,1330.64L1242.57,1270.53Z" style="fill:rgb(59,59,59);"/>
                    </g>
                </g>
                <g transform="matrix(1.55883,0,0,1.55883,-522.854,-1456.71)">
                    <path d="M912.777,1311.27L908.277,1311.27L908.277,1314.32L913.558,1314.32L913.558,1316.2L905.933,1316.2L905.933,1304.82L913.543,1304.82L913.543,1306.72L908.277,1306.72L908.277,1309.43L912.777,1309.43L912.777,1311.27Z" style="fill:white;fill-rule:nonzero;"/>
                    <path d="M916.863,1307.75L916.933,1308.72C917.225,1308.36 917.576,1308.08 917.988,1307.88C918.399,1307.69 918.858,1307.59 919.363,1307.59C919.764,1307.59 920.129,1307.64 920.457,1307.76C920.785,1307.87 921.066,1308.05 921.3,1308.31C921.535,1308.56 921.716,1308.9 921.843,1309.31C921.971,1309.72 922.035,1310.22 922.035,1310.82L922.035,1316.2L919.777,1316.2L919.777,1310.81C919.777,1310.54 919.747,1310.31 919.687,1310.14C919.627,1309.96 919.54,1309.82 919.425,1309.71C919.311,1309.61 919.17,1309.54 919.004,1309.49C918.837,1309.45 918.644,1309.42 918.425,1309.42C918.092,1309.42 917.807,1309.5 917.57,1309.64C917.333,1309.79 917.142,1309.99 916.996,1310.24L916.996,1316.2L914.738,1316.2L914.738,1307.75L916.863,1307.75Z" style="fill:white;fill-rule:nonzero;"/>
                    <path d="M926.449,1305.67L926.449,1307.75L927.894,1307.75L927.894,1309.4L926.449,1309.4L926.449,1313.62C926.449,1313.8 926.467,1313.94 926.504,1314.06C926.54,1314.17 926.595,1314.26 926.668,1314.33C926.741,1314.39 926.83,1314.44 926.937,1314.46C927.044,1314.48 927.17,1314.5 927.316,1314.5C927.451,1314.5 927.575,1314.49 927.687,1314.48C927.799,1314.47 927.897,1314.46 927.98,1314.44L927.98,1316.15C927.793,1316.21 927.588,1316.26 927.367,1316.3C927.145,1316.34 926.894,1316.35 926.613,1316.35C926.243,1316.35 925.91,1316.31 925.613,1316.22C925.316,1316.13 925.062,1315.98 924.851,1315.78C924.64,1315.59 924.477,1315.33 924.363,1315.01C924.248,1314.69 924.191,1314.31 924.191,1313.86L924.191,1309.4L922.957,1309.4L922.957,1307.75L924.191,1307.75L924.191,1305.67L926.449,1305.67Z" style="fill:white;fill-rule:nonzero;"/>
                    <path d="M933.043,1316.35C932.386,1316.35 931.799,1316.25 931.281,1316.03C930.763,1315.82 930.323,1315.53 929.961,1315.16C929.599,1314.79 929.323,1314.36 929.132,1313.86C928.942,1313.36 928.847,1312.83 928.847,1312.26L928.847,1311.96C928.847,1311.32 928.94,1310.73 929.125,1310.19C929.31,1309.66 929.573,1309.2 929.914,1308.82C930.255,1308.43 930.669,1308.13 931.156,1307.91C931.643,1307.7 932.188,1307.59 932.793,1307.59C933.402,1307.59 933.938,1307.69 934.402,1307.89C934.866,1308.09 935.255,1308.37 935.57,1308.73C935.885,1309.1 936.122,1309.53 936.281,1310.04C936.44,1310.55 936.519,1311.12 936.519,1311.75L936.519,1312.71L931.136,1312.71C931.173,1312.98 931.247,1313.23 931.359,1313.46C931.471,1313.68 931.614,1313.87 931.789,1314.03C931.963,1314.19 932.168,1314.31 932.402,1314.4C932.636,1314.49 932.899,1314.53 933.191,1314.53C933.602,1314.53 933.983,1314.46 934.332,1314.3C934.681,1314.15 934.98,1313.91 935.23,1313.59L936.339,1314.83C936.204,1315.02 936.035,1315.21 935.832,1315.39C935.629,1315.58 935.389,1315.74 935.113,1315.88C934.837,1316.03 934.526,1316.14 934.179,1316.23C933.833,1316.31 933.454,1316.35 933.043,1316.35ZM932.785,1309.42C932.54,1309.42 932.325,1309.46 932.14,1309.55C931.955,1309.63 931.796,1309.75 931.664,1309.9C931.531,1310.06 931.423,1310.24 931.339,1310.46C931.256,1310.67 931.196,1310.91 931.16,1311.17L934.3,1311.17L934.3,1310.99C934.295,1310.76 934.263,1310.56 934.203,1310.36C934.143,1310.17 934.052,1310 933.929,1309.86C933.807,1309.72 933.651,1309.61 933.461,1309.53C933.27,1309.46 933.045,1309.42 932.785,1309.42Z" style="fill:white;fill-rule:nonzero;"/>
                    <path d="M942.55,1309.86C942.436,1309.85 942.302,1309.83 942.148,1309.82C941.994,1309.81 941.858,1309.8 941.738,1309.8C941.295,1309.8 940.937,1309.87 940.664,1310.02C940.39,1310.17 940.188,1310.39 940.058,1310.67L940.058,1316.2L937.8,1316.2L937.8,1307.75L939.933,1307.75L939.996,1308.75C940.209,1308.39 940.472,1308.1 940.785,1307.9C941.097,1307.69 941.462,1307.59 941.879,1307.59C941.998,1307.59 942.125,1307.6 942.257,1307.62C942.39,1307.64 942.498,1307.66 942.582,1307.69L942.55,1309.86Z" style="fill:white;fill-rule:nonzero;"/>
                </g>
            </g>
        </g>
    </g>
</svg>
