<?xml version="1.0" encoding="UTF-8" standalone="no"?>
<!DOCTYPE svg PUBLIC "-//W3C//DTD SVG 1.1//EN" "http://www.w3.org/Graphics/SVG/1.1/DTD/svg11.dtd">
<svg width="100%" height="100%" viewBox="0 0 330 331" version="1.1" xmlns="http://www.w3.org/2000/svg" xmlns:xlink="http://www.w3.org/1999/xlink" xml:space="preserve" style="fill-rule:evenodd;clip-rule:evenodd;stroke-linejoin:round;stroke-miterlimit:1.41421;">
    <g transform="matrix(1,0,0,1,-171,-116)">
        <g transform="matrix(4.92819,0,0,4.92819,-2107.45,-544.803)">
            <g id="Escape-Button-Dark" transform="matrix(1,0,0,1,-17.9812,-584.997)">
                <g transform="matrix(1,0,0,1,-424.662,-561.328)">
                    <path d="M971.93,1286.53C971.93,1283.2 969.232,1280.5 965.908,1280.5L911.04,1280.5C907.717,1280.5 905.018,1283.2 905.018,1286.53L905.018,1341.39C905.018,1344.72 907.717,1347.42 911.04,1347.42L965.908,1347.42C969.232,1347.42 971.93,1344.72 971.93,1341.39L971.93,1286.53Z" style="fill:rgb(59,59,59);"/>
                </g>
                <g transform="matrix(1.59982,0,0,1.59982,-964.645,-1336.16)">
                    <path d="M918.918,1311.27L914.418,1311.27L914.418,1314.32L919.699,1314.32L919.699,1316.2L912.074,1316.2L912.074,1304.82L919.683,1304.82L919.683,1306.72L914.418,1306.72L914.418,1309.43L918.918,1309.43L918.918,1311.27Z" style="fill:white;fill-rule:nonzero;"/>
                    <path d="M925.504,1313.86C925.504,1313.74 925.48,1313.63 925.433,1313.53C925.386,1313.43 925.298,1313.34 925.168,1313.26C925.037,1313.17 924.86,1313.09 924.636,1313.01C924.412,1312.93 924.123,1312.86 923.769,1312.78C923.337,1312.69 922.937,1312.57 922.57,1312.43C922.203,1312.29 921.885,1312.12 921.617,1311.91C921.349,1311.7 921.139,1311.46 920.988,1311.18C920.837,1310.91 920.761,1310.59 920.761,1310.22C920.761,1309.87 920.838,1309.53 920.992,1309.21C921.145,1308.9 921.367,1308.62 921.656,1308.37C921.945,1308.13 922.299,1307.94 922.718,1307.8C923.138,1307.66 923.61,1307.59 924.136,1307.59C924.683,1307.59 925.175,1307.66 925.613,1307.79C926.05,1307.93 926.421,1308.12 926.726,1308.36C927.031,1308.6 927.265,1308.89 927.429,1309.22C927.593,1309.56 927.675,1309.92 927.675,1310.32L925.418,1310.32C925.418,1309.99 925.313,1309.73 925.105,1309.51C924.897,1309.3 924.571,1309.2 924.129,1309.2C923.748,1309.2 923.454,1309.28 923.246,1309.46C923.037,1309.63 922.933,1309.85 922.933,1310.11C922.933,1310.24 922.961,1310.35 923.015,1310.44C923.07,1310.54 923.158,1310.63 923.281,1310.71C923.403,1310.79 923.565,1310.87 923.765,1310.93C923.966,1311 924.212,1311.06 924.504,1311.12C924.962,1311.21 925.386,1311.32 925.777,1311.45C926.168,1311.58 926.505,1311.75 926.789,1311.95C927.073,1312.16 927.295,1312.41 927.457,1312.7C927.618,1313 927.699,1313.35 927.699,1313.77C927.699,1314.14 927.616,1314.49 927.449,1314.8C927.282,1315.12 927.044,1315.39 926.734,1315.62C926.424,1315.85 926.05,1316.03 925.613,1316.16C925.175,1316.29 924.686,1316.35 924.144,1316.35C923.55,1316.35 923.027,1316.27 922.574,1316.1C922.121,1315.94 921.739,1315.72 921.429,1315.45C921.119,1315.18 920.886,1314.87 920.73,1314.53C920.574,1314.19 920.496,1313.85 920.496,1313.51L922.636,1313.51C922.647,1313.73 922.695,1313.92 922.781,1314.08C922.867,1314.24 922.98,1314.37 923.121,1314.46C923.261,1314.56 923.424,1314.64 923.609,1314.68C923.794,1314.73 923.988,1314.75 924.191,1314.75C924.623,1314.75 924.95,1314.67 925.171,1314.51C925.393,1314.34 925.504,1314.13 925.504,1313.86Z" style="fill:white;fill-rule:nonzero;"/>
                    <path d="M932.668,1314.53C932.876,1314.53 933.066,1314.5 933.238,1314.44C933.41,1314.38 933.558,1314.3 933.683,1314.19C933.808,1314.08 933.906,1313.95 933.976,1313.8C934.046,1313.64 934.084,1313.47 934.089,1313.28L936.207,1313.28C936.201,1313.72 936.108,1314.14 935.925,1314.51C935.743,1314.89 935.496,1315.22 935.183,1315.49C934.871,1315.76 934.502,1315.98 934.078,1316.13C933.653,1316.28 933.196,1316.35 932.707,1316.35C932.05,1316.35 931.477,1316.24 930.988,1316.02C930.498,1315.8 930.092,1315.5 929.769,1315.12C929.446,1314.73 929.204,1314.28 929.043,1313.76C928.881,1313.25 928.8,1312.69 928.8,1312.09L928.8,1311.87C928.8,1311.27 928.881,1310.71 929.043,1310.19C929.204,1309.67 929.446,1309.22 929.769,1308.83C930.092,1308.44 930.497,1308.14 930.984,1307.92C931.471,1307.7 932.04,1307.59 932.691,1307.59C933.212,1307.59 933.687,1307.67 934.117,1307.82C934.546,1307.97 934.915,1308.19 935.222,1308.48C935.53,1308.77 935.769,1309.11 935.941,1309.52C936.113,1309.93 936.201,1310.39 936.207,1310.89L934.089,1310.89C934.084,1310.69 934.049,1310.5 933.984,1310.32C933.919,1310.14 933.826,1309.98 933.707,1309.85C933.587,1309.72 933.438,1309.61 933.261,1309.53C933.084,1309.46 932.881,1309.42 932.652,1309.42C932.324,1309.42 932.056,1309.49 931.847,1309.62C931.639,1309.76 931.476,1309.94 931.359,1310.16C931.242,1310.39 931.162,1310.65 931.121,1310.95C931.079,1311.25 931.058,1311.55 931.058,1311.87L931.058,1312.09C931.058,1312.41 931.079,1312.72 931.121,1313.02C931.162,1313.32 931.242,1313.58 931.359,1313.8C931.476,1314.02 931.639,1314.2 931.847,1314.34C932.056,1314.47 932.329,1314.53 932.668,1314.53Z" style="fill:white;fill-rule:nonzero;"/>
                </g>
            </g>
        </g>
    </g>
</svg>
