<?xml version="1.0" encoding="UTF-8" standalone="no"?>
<!DOCTYPE svg PUBLIC "-//W3C//DTD SVG 1.1//EN" "http://www.w3.org/Graphics/SVG/1.1/DTD/svg11.dtd">
<svg width="100%" height="100%" viewBox="0 0 298 423" version="1.1" xmlns="http://www.w3.org/2000/svg" xmlns:xlink="http://www.w3.org/1999/xlink" xml:space="preserve" style="fill-rule:evenodd;clip-rule:evenodd;stroke-linejoin:round;stroke-miterlimit:1.41421;">
    <g transform="matrix(1,0,0,1,-187,-70)">
        <g transform="matrix(4.92819,0,0,4.92819,-2107.45,-544.803)">
            <g id="Mouser-Left-Button-Dark" transform="matrix(1,0,0,1,-939.994,-1138)">
                <path d="M1463.9,1301.53L1465.9,1329.27C1465.9,1339.84 1457.32,1348.41 1446.75,1348.41L1424.9,1348.41C1414.33,1348.41 1405.75,1339.84 1405.75,1329.27L1407.75,1301.53L1463.9,1301.53Z" style="fill:rgb(59,59,59);"/>
                <path d="M1436.56,1267.17L1436.56,1262.86L1449.94,1262.86C1457.21,1262.86 1463.11,1268.77 1463.11,1276.04L1463.11,1298.2L1436.56,1298.2L1436.56,1294.05C1441.84,1293.62 1445.99,1289.19 1445.99,1283.81L1445.99,1277.41C1445.99,1272.03 1441.84,1267.6 1436.56,1267.17Z" style="fill:rgb(59,59,59);"/>
                <path d="M1434.24,1267.25C1429.26,1267.96 1425.44,1272.25 1425.44,1277.41L1425.44,1283.81C1425.44,1288.97 1429.26,1293.26 1434.24,1293.98L1434.24,1298.2L1407.68,1298.2L1407.68,1276.04C1407.68,1268.77 1413.59,1262.86 1420.86,1262.86L1434.24,1262.86L1434.24,1267.25Z" style="fill:rgb(241,50,66);"/>
                <g transform="matrix(1,0,0,1,-0.020552,1.43599)">
                    <path d="M1442.69,1275.8C1442.69,1271.96 1439.58,1268.85 1435.74,1268.85C1431.89,1268.85 1428.78,1271.96 1428.78,1275.8L1428.78,1282.55C1428.78,1286.38 1431.89,1289.5 1435.74,1289.5C1439.58,1289.5 1442.69,1286.38 1442.69,1282.55L1442.69,1275.8Z" style="fill:rgb(59,59,59);"/>
                </g>
            </g>
        </g>
    </g>
</svg>
