<?xml version="1.0" encoding="UTF-8" standalone="no"?>
<!DOCTYPE svg PUBLIC "-//W3C//DTD SVG 1.1//EN" "http://www.w3.org/Graphics/SVG/1.1/DTD/svg11.dtd">
<svg width="100%" height="100%" viewBox="0 0 435 565" version="1.1" xmlns="http://www.w3.org/2000/svg" xmlns:xlink="http://www.w3.org/1999/xlink" xml:space="preserve" style="fill-rule:evenodd;clip-rule:evenodd;stroke-linecap:round;stroke-linejoin:round;stroke-miterlimit:1.5;">
    <g transform="matrix(1,0,0,1,-44,-2)">
        <g transform="matrix(4.92819,0,0,4.92819,-2107.45,-544.803)">
            <g id="PC-Icon-Dark" transform="matrix(0.370575,0,0,0.370575,329.623,-272.938)">
                <g transform="matrix(0.707107,0.707107,-0.707107,0.707107,866.482,6.54332)">
                    <path d="M540.78,1168.5C548.45,1169.67 572.898,1173.11 593.832,1172.84C616.296,1172.54 636.953,1170.01 645.745,1168.78L645.745,1231.36C645.745,1252.45 628.624,1269.57 607.536,1269.57L578.988,1269.57C557.901,1269.57 540.78,1252.45 540.78,1231.36L540.78,1168.5ZM607.536,1104.48C628.625,1104.48 645.745,1121.6 645.745,1142.69L645.745,1158.7C637.437,1159.92 618.689,1162.36 599.339,1162.69L599.339,1104.48L607.536,1104.48ZM589.227,1104.48L589.227,1162.66C567.102,1162.21 547.461,1159.44 540.78,1158.4L540.78,1142.69C540.78,1121.6 557.9,1104.48 578.988,1104.48L589.227,1104.48Z" style="fill:rgb(59,59,59);"/>
                </g>
                <path d="M390.919,1231.96L295.334,1231.96C291.73,1231.96 288.805,1229.06 288.805,1225.47L288.805,1115.76C288.805,1112.18 291.73,1109.27 295.334,1109.27L499.588,1109.27C503.192,1109.27 506.117,1112.18 506.117,1115.76L506.117,1192.9L502.743,1189.54C483.656,1170.56 452.664,1170.56 433.577,1189.54L390.919,1231.96ZM315.575,1202.48C315.575,1201.91 315.114,1201.45 314.547,1201.45L300.481,1201.45C299.914,1201.45 299.454,1201.91 299.454,1202.48L299.454,1216.55C299.454,1217.11 299.914,1217.57 300.481,1217.57L314.547,1217.57C315.114,1217.57 315.575,1217.11 315.575,1216.55L315.575,1202.48ZM391.079,1201.45L327.345,1201.45C326.778,1201.45 326.317,1201.91 326.317,1202.48L326.317,1216.55C326.317,1217.11 326.778,1217.57 327.345,1217.57L391.079,1217.57C391.646,1217.57 392.106,1217.11 392.106,1216.55L392.106,1202.48C392.106,1201.91 391.646,1201.45 391.079,1201.45ZM314.547,1175.52L300.481,1175.52C299.914,1175.52 299.454,1175.98 299.454,1176.55L299.454,1190.62C299.454,1191.18 299.914,1191.64 300.481,1191.64L314.547,1191.64C315.114,1191.64 315.575,1191.18 315.575,1190.62L315.575,1176.55C315.575,1175.98 315.115,1175.52 314.547,1175.52ZM341.274,1176.55C341.274,1175.98 340.813,1175.52 340.246,1175.52L326.181,1175.52C325.613,1175.52 325.153,1175.98 325.153,1176.55L325.153,1190.62C325.153,1191.18 325.613,1191.64 326.181,1191.64L340.246,1191.64C340.813,1191.64 341.274,1191.18 341.274,1190.62L341.274,1176.55ZM365.945,1175.52L351.88,1175.52C351.312,1175.52 350.852,1175.98 350.852,1176.55L350.852,1190.62C350.852,1191.18 351.312,1191.64 351.88,1191.64L365.945,1191.64C366.513,1191.64 366.973,1191.18 366.973,1190.62L366.973,1176.55C366.973,1175.98 366.513,1175.52 365.945,1175.52ZM392.672,1176.55C392.672,1175.98 392.212,1175.52 391.644,1175.52L377.579,1175.52C377.011,1175.52 376.551,1175.98 376.551,1176.55L376.551,1190.62C376.551,1191.18 377.011,1191.64 377.579,1191.64L391.644,1191.64C392.212,1191.64 392.672,1191.18 392.672,1190.62L392.672,1176.55ZM417.343,1175.52L403.278,1175.52C402.71,1175.52 402.25,1175.98 402.25,1176.55L402.25,1190.62C402.25,1191.18 402.71,1191.64 403.278,1191.64L417.343,1191.64C417.911,1191.64 418.371,1191.18 418.371,1190.62L418.371,1176.55C418.371,1175.98 417.911,1175.52 417.343,1175.52ZM314.547,1149.59L300.481,1149.59C299.914,1149.59 299.454,1150.05 299.454,1150.62L299.454,1164.68C299.454,1165.25 299.914,1165.71 300.481,1165.71L314.547,1165.71C315.114,1165.71 315.575,1165.25 315.575,1164.68L315.575,1150.62C315.575,1150.05 315.115,1149.59 314.547,1149.59ZM341.274,1150.62C341.274,1150.05 340.813,1149.59 340.246,1149.59L326.181,1149.59C325.613,1149.59 325.153,1150.05 325.153,1150.62L325.153,1164.68C325.153,1165.25 325.613,1165.71 326.181,1165.71L340.246,1165.71C340.813,1165.71 341.274,1165.25 341.274,1164.68L341.274,1150.62ZM365.945,1149.59L351.88,1149.59C351.312,1149.59 350.852,1150.05 350.852,1150.62L350.852,1164.68C350.852,1165.25 351.312,1165.71 351.88,1165.71L365.945,1165.71C366.513,1165.71 366.973,1165.25 366.973,1164.68L366.973,1150.62C366.973,1150.05 366.513,1149.59 365.945,1149.59ZM392.672,1150.62C392.672,1150.05 392.212,1149.59 391.644,1149.59L377.579,1149.59C377.011,1149.59 376.551,1150.05 376.551,1150.62L376.551,1164.68C376.551,1165.25 377.011,1165.71 377.579,1165.71L391.644,1165.71C392.212,1165.71 392.672,1165.25 392.672,1164.68L392.672,1150.62ZM417.343,1149.59L403.278,1149.59C402.71,1149.59 402.25,1150.05 402.25,1150.62L402.25,1164.68C402.25,1165.25 402.71,1165.71 403.278,1165.71L417.343,1165.71C417.911,1165.71 418.371,1165.25 418.371,1164.68L418.371,1150.62C418.371,1150.05 417.911,1149.59 417.343,1149.59ZM444.07,1150.62C444.07,1150.05 443.61,1149.59 443.042,1149.59L428.977,1149.59C428.409,1149.59 427.949,1150.05 427.949,1150.62L427.949,1164.68C427.949,1165.25 428.409,1165.71 428.977,1165.71L443.042,1165.71C443.61,1165.71 444.07,1165.25 444.07,1164.68L444.07,1150.62ZM468.741,1149.59L454.676,1149.59C454.108,1149.59 453.648,1150.05 453.648,1150.62L453.648,1164.68C453.648,1165.25 454.109,1165.71 454.676,1165.71L468.741,1165.71C469.309,1165.71 469.769,1165.25 469.769,1164.68L469.769,1150.62C469.769,1150.05 469.309,1149.59 468.741,1149.59ZM495.468,1150.62C495.468,1150.05 495.008,1149.59 494.441,1149.59L480.375,1149.59C479.808,1149.59 479.347,1150.05 479.347,1150.62L479.347,1164.68C479.347,1165.25 479.808,1165.71 480.375,1165.71L494.441,1165.71C495.008,1165.71 495.468,1165.25 495.468,1164.68L495.468,1150.62ZM314.547,1123.66L300.481,1123.66C299.914,1123.66 299.454,1124.12 299.454,1124.69L299.454,1138.75C299.454,1139.32 299.914,1139.78 300.481,1139.78L314.547,1139.78C315.114,1139.78 315.575,1139.32 315.575,1138.75L315.575,1124.69C315.575,1124.12 315.115,1123.66 314.547,1123.66ZM341.274,1124.69C341.274,1124.12 340.813,1123.66 340.246,1123.66L326.181,1123.66C325.613,1123.66 325.153,1124.12 325.153,1124.69L325.153,1138.75C325.153,1139.32 325.613,1139.78 326.181,1139.78L340.246,1139.78C340.813,1139.78 341.274,1139.32 341.274,1138.75L341.274,1124.69ZM365.945,1123.66L351.88,1123.66C351.312,1123.66 350.852,1124.12 350.852,1124.69L350.852,1138.75C350.852,1139.32 351.312,1139.78 351.88,1139.78L365.945,1139.78C366.513,1139.78 366.973,1139.32 366.973,1138.75L366.973,1124.69C366.973,1124.12 366.513,1123.66 365.945,1123.66ZM392.672,1124.69C392.672,1124.12 392.212,1123.66 391.644,1123.66L377.579,1123.66C377.011,1123.66 376.551,1124.12 376.551,1124.69L376.551,1138.75C376.551,1139.32 377.011,1139.78 377.579,1139.78L391.644,1139.78C392.212,1139.78 392.672,1139.32 392.672,1138.75L392.672,1124.69ZM417.343,1123.66L403.278,1123.66C402.71,1123.66 402.25,1124.12 402.25,1124.69L402.25,1138.75C402.25,1139.32 402.71,1139.78 403.278,1139.78L417.343,1139.78C417.911,1139.78 418.371,1139.32 418.371,1138.75L418.371,1124.69C418.371,1124.12 417.911,1123.66 417.343,1123.66ZM444.07,1124.69C444.07,1124.12 443.61,1123.66 443.042,1123.66L428.977,1123.66C428.409,1123.66 427.949,1124.12 427.949,1124.69L427.949,1138.75C427.949,1139.32 428.409,1139.78 428.977,1139.78L443.042,1139.78C443.61,1139.78 444.07,1139.32 444.07,1138.75L444.07,1124.69ZM468.741,1123.66L454.676,1123.66C454.108,1123.66 453.648,1124.12 453.648,1124.69L453.648,1138.75C453.648,1139.32 454.109,1139.78 454.676,1139.78L468.741,1139.78C469.309,1139.78 469.769,1139.32 469.769,1138.75L469.769,1124.69C469.769,1124.12 469.309,1123.66 468.741,1123.66ZM495.468,1124.69C495.468,1124.12 495.008,1123.66 494.441,1123.66L480.375,1123.66C479.808,1123.66 479.347,1124.12 479.347,1124.69L479.347,1138.75C479.347,1139.32 479.808,1139.78 480.375,1139.78L494.441,1139.78C495.008,1139.78 495.468,1139.32 495.468,1138.75L495.468,1124.69Z" style="fill:rgb(59,59,59);"/>
                <g transform="matrix(1,0,0,1,-883.703,128.773)">
                    <path d="M1330.9,909.167C1330.9,909.167 1320.96,938.175 1296.96,936.273C1272.96,934.371 1245.67,921.739 1232.7,943.068C1224.05,957.299 1226.92,984.483 1226.92,984.483" style="fill:none;stroke:rgb(59,59,59);stroke-width:3.83px;"/>
                </g>
            </g>
        </g>
    </g>
</svg>
