<?xml version="1.0" encoding="UTF-8" standalone="no"?>
<!DOCTYPE svg PUBLIC "-//W3C//DTD SVG 1.1//EN" "http://www.w3.org/Graphics/SVG/1.1/DTD/svg11.dtd">
<svg width="100%" height="100%" viewBox="0 0 330 331" version="1.1" xmlns="http://www.w3.org/2000/svg" xmlns:xlink="http://www.w3.org/1999/xlink" xml:space="preserve" style="fill-rule:evenodd;clip-rule:evenodd;stroke-linejoin:round;stroke-miterlimit:1.41421;">
    <g transform="matrix(1,0,0,1,-171,-116)">
        <g transform="matrix(4.92819,0,0,4.92819,-2107.45,-544.803)">
            <g id="W-Button-Dark" transform="matrix(1,0,0,1,64.2625,-584.997)">
                <g transform="matrix(1,0,0,1,-506.906,-561.328)">
                    <path d="M971.93,1286.53C971.93,1283.2 969.232,1280.5 965.908,1280.5L911.04,1280.5C907.717,1280.5 905.018,1283.2 905.018,1286.53L905.018,1341.39C905.018,1344.72 907.717,1347.42 911.04,1347.42L965.908,1347.42C969.232,1347.42 971.93,1344.72 971.93,1341.39L971.93,1286.53Z" style="fill:white;"/>
                </g>
                <g transform="matrix(1,0,0,1,-506.906,-561.328)">
                    <path d="M971.93,1286.53C971.93,1283.2 969.232,1280.5 965.908,1280.5L911.04,1280.5C907.717,1280.5 905.018,1283.2 905.018,1286.53L905.018,1341.39C905.018,1344.72 907.717,1347.42 911.04,1347.42L965.908,1347.42C969.232,1347.42 971.93,1344.72 971.93,1341.39L971.93,1286.53Z" style="fill:rgb(59,59,59);"/>
                </g>
                <g transform="matrix(2.22005,0,0,2.22005,-1619.43,-2156.76)">
                    <path d="M926.722,1312.92L928.254,1304.82L930.589,1304.82L928.066,1316.2L925.707,1316.2L923.855,1308.59L922.004,1316.2L919.644,1316.2L917.121,1304.82L919.457,1304.82L920.996,1312.9L922.871,1304.82L924.855,1304.82L926.722,1312.92Z" style="fill:white;fill-rule:nonzero;"/>
                </g>
            </g>
        </g>
    </g>
</svg>
