<?xml version="1.0" encoding="UTF-8" standalone="no"?>
<!DOCTYPE svg PUBLIC "-//W3C//DTD SVG 1.1//EN" "http://www.w3.org/Graphics/SVG/1.1/DTD/svg11.dtd">
<svg width="100%" height="100%" viewBox="0 0 444 444" version="1.1" xmlns="http://www.w3.org/2000/svg" xmlns:xlink="http://www.w3.org/1999/xlink" xml:space="preserve" style="fill-rule:evenodd;clip-rule:evenodd;stroke-linejoin:round;stroke-miterlimit:1.41421;">
    <g transform="matrix(1,0,0,1,-77,-15)">
        <g id="Angry-Smiley-Outline" transform="matrix(6.08625,0,0,6.08625,-8055.35,-795.81)">
            <path d="M1372.62,133.337C1392.72,133.337 1409.04,149.653 1409.04,169.751C1409.04,189.848 1392.72,206.164 1372.62,206.164C1352.53,206.164 1336.21,189.848 1336.21,169.751C1336.21,149.653 1352.53,133.337 1372.62,133.337ZM1372.62,138.101C1390.09,138.101 1404.27,152.283 1404.27,169.751C1404.27,187.218 1390.09,201.4 1372.62,201.4C1355.16,201.4 1340.98,187.218 1340.98,169.751C1340.98,152.283 1355.16,138.101 1372.62,138.101ZM1372.74,175.378C1378.31,175.459 1383.22,177.05 1386.8,179.616C1386.8,179.616 1389.02,181.099 1389.81,181.754C1390.6,182.418 1391.04,183.84 1390.33,184.82C1389.62,185.8 1387.75,185.696 1386.95,185.042C1386.35,184.549 1383.08,182.284 1383.08,182.284C1380.28,180.508 1376.63,179.411 1372.62,179.353C1368.62,179.411 1364.97,180.508 1362.17,182.284C1362.17,182.284 1358.9,184.549 1358.3,185.042C1357.5,185.696 1355.63,185.8 1354.92,184.82C1354.21,183.84 1354.65,182.418 1355.44,181.754C1356.23,181.099 1358.45,179.616 1358.45,179.616C1362.03,177.05 1366.94,175.459 1372.51,175.378L1372.51,175.375L1372.74,175.375L1372.74,175.378ZM1377.02,164.754C1376.14,164.79 1375.27,164.347 1374.79,163.529C1374.12,162.355 1374.52,160.852 1375.69,160.174L1388.39,152.841C1389.57,152.164 1391.07,152.566 1391.75,153.74C1392.43,154.914 1392.02,156.417 1390.85,157.094L1385.38,160.253C1386.11,161.101 1386.54,162.202 1386.54,163.405C1386.54,166.085 1384.37,168.26 1381.69,168.26C1379.48,168.26 1377.61,166.778 1377.02,164.754ZM1360.18,160.253L1354.71,157.094C1353.54,156.417 1353.13,154.914 1353.81,153.74C1354.49,152.566 1355.99,152.164 1357.17,152.841L1369.87,160.174C1371.04,160.852 1371.44,162.355 1370.77,163.529C1370.29,164.347 1369.42,164.79 1368.54,164.754C1367.95,166.778 1366.08,168.26 1363.87,168.26C1361.19,168.26 1359.02,166.085 1359.02,163.405C1359.02,162.202 1359.45,161.101 1360.18,160.253Z" style="fill:white;"/>
        </g>
    </g>
</svg>
