<?xml version="1.0" encoding="UTF-8" standalone="no"?>
<!DOCTYPE svg PUBLIC "-//W3C//DTD SVG 1.1//EN" "http://www.w3.org/Graphics/SVG/1.1/DTD/svg11.dtd">
<svg width="100%" height="100%" viewBox="0 0 444 444" version="1.1" xmlns="http://www.w3.org/2000/svg" xmlns:xlink="http://www.w3.org/1999/xlink" xml:space="preserve" style="fill-rule:evenodd;clip-rule:evenodd;stroke-linejoin:round;stroke-miterlimit:1.41421;">
    <g transform="matrix(1,0,0,1,-77,-15)">
        <g id="Basic-Smiley-Outline" transform="matrix(6.08625,0,0,6.08625,-277.108,-795.81)">
            <path d="M94.622,133.337C114.719,133.337 131.035,149.653 131.035,169.751C131.035,189.848 114.719,206.164 94.622,206.164C74.524,206.164 58.208,189.848 58.208,169.751C58.208,149.653 74.524,133.337 94.622,133.337ZM94.622,138.101C112.089,138.101 126.271,152.283 126.271,169.751C126.271,187.218 112.089,201.4 94.622,201.4C77.154,201.4 62.972,187.218 62.972,169.751C62.972,152.283 77.154,138.101 94.622,138.101ZM72.447,174.146C72.03,172.786 72.795,171.344 74.154,170.925C75.514,170.506 76.959,171.271 77.378,172.631C77.378,172.631 77.802,174.027 77.82,174.124C80.085,181.059 86.611,186.075 94.298,186.075C102.028,186.075 108.584,181.002 110.814,174.007C110.827,173.951 111.232,172.632 111.232,172.632C111.65,171.273 113.093,170.509 114.453,170.928C115.812,171.346 116.576,172.789 116.157,174.149L116.11,174.302C113.633,184.038 104.801,191.248 94.298,191.248C83.739,191.248 74.869,183.961 72.447,174.146ZM79.76,151.284C82.99,151.284 85.613,153.907 85.613,157.137C85.613,160.368 82.99,162.991 79.76,162.991C76.529,162.991 73.906,160.368 73.906,157.137C73.906,153.907 76.529,151.284 79.76,151.284ZM109.529,151.284C112.76,151.284 115.383,153.907 115.383,157.137C115.383,160.368 112.76,162.991 109.529,162.991C106.298,162.991 103.676,160.368 103.676,157.137C103.676,153.907 106.298,151.284 109.529,151.284Z" style="fill:white;"/>
        </g>
    </g>
</svg>
