<?xml version="1.0" encoding="UTF-8" standalone="no"?>
<!DOCTYPE svg PUBLIC "-//W3C//DTD SVG 1.1//EN" "http://www.w3.org/Graphics/SVG/1.1/DTD/svg11.dtd">
<svg width="100%" height="100%" viewBox="0 0 444 444" version="1.1" xmlns="http://www.w3.org/2000/svg" xmlns:xlink="http://www.w3.org/1999/xlink" xml:space="preserve" style="fill-rule:evenodd;clip-rule:evenodd;stroke-linejoin:round;stroke-miterlimit:1.41421;">
    <g transform="matrix(1,0,0,1,-77,-15)">
        <g id="Cry-Strong-Smiley-Outline" transform="matrix(6.08625,0,0,6.08625,-5935.09,-795.81)">
            <path d="M1024.26,133.337C1044.35,133.337 1060.67,149.653 1060.67,169.751C1060.67,189.848 1044.35,206.164 1024.26,206.164C1004.16,206.164 987.841,189.848 987.841,169.751C987.841,149.653 1004.16,133.337 1024.26,133.337ZM1024.26,138.101C1041.72,138.101 1055.9,152.283 1055.9,169.751C1055.9,187.218 1041.72,201.4 1024.26,201.4C1006.79,201.4 992.605,187.218 992.605,169.751C992.605,152.283 1006.79,138.101 1024.26,138.101ZM1042.31,187.773C1042.33,187.448 1042.34,187.123 1042.34,186.798C1042.34,177.652 1034.23,170.226 1024.26,170.226C1014.27,170.226 1006.17,177.652 1006.17,186.798C1006.17,187.123 1006.18,187.448 1006.2,187.773L1042.31,187.773ZM1045.26,164.271C1045.26,164.271 1040.84,170.224 1040.84,172.775C1040.84,175.214 1042.82,177.195 1045.26,177.195C1047.7,177.195 1049.68,175.214 1049.68,172.775C1049.68,170.224 1045.26,164.271 1045.26,164.271ZM1002.14,164.271C1002.14,164.271 997.724,170.224 997.724,172.775C997.724,175.214 999.704,177.195 1002.14,177.195C1004.58,177.195 1006.56,175.214 1006.56,172.775C1006.56,170.224 1002.14,164.271 1002.14,164.271ZM1002.59,159.457C1002.21,158.032 1003.06,156.566 1004.48,156.185L1013.42,153.789C1014.85,153.407 1016.31,154.253 1016.7,155.678C1017.08,157.102 1016.23,158.568 1014.81,158.949L1005.86,161.346C1004.44,161.727 1002.97,160.881 1002.59,159.457ZM1045.92,159.457C1046.3,158.032 1045.45,156.566 1044.03,156.185L1035.09,153.789C1033.66,153.407 1032.2,154.253 1031.82,155.678C1031.43,157.102 1032.28,158.568 1033.7,158.949L1042.65,161.346C1044.07,161.727 1045.54,160.881 1045.92,159.457Z" style="fill:white;"/>
        </g>
    </g>
</svg>
