<?xml version="1.0" encoding="UTF-8" standalone="no"?>
<!DOCTYPE svg PUBLIC "-//W3C//DTD SVG 1.1//EN" "http://www.w3.org/Graphics/SVG/1.1/DTD/svg11.dtd">
<svg width="100%" height="100%" viewBox="0 0 444 444" version="1.1" xmlns="http://www.w3.org/2000/svg" xmlns:xlink="http://www.w3.org/1999/xlink" xml:space="preserve" style="fill-rule:evenodd;clip-rule:evenodd;stroke-linejoin:round;stroke-miterlimit:1.41421;">
    <g transform="matrix(1,0,0,1,-77,-15)">
        <g id="Cry-Smiley-Outline" transform="matrix(6.08625,0,0,6.08625,-5227.84,-795.81)">
            <path d="M908.051,133.337C928.148,133.337 944.464,149.653 944.464,169.751C944.464,189.848 928.148,206.164 908.051,206.164C887.953,206.164 871.637,189.848 871.637,169.751C871.637,149.653 887.953,133.337 908.051,133.337ZM908.051,138.101C925.518,138.101 939.7,152.283 939.7,169.751C939.7,187.218 925.518,201.4 908.051,201.4C890.583,201.4 876.401,187.218 876.401,169.751C876.401,152.283 890.583,138.101 908.051,138.101ZM887.539,184.802C887.148,186.078 887.865,187.432 889.141,187.825C890.418,188.218 891.773,187.5 892.166,186.224C892.166,186.224 892.564,184.913 892.581,184.822C894.708,178.314 900.832,173.607 908.046,173.607C915.302,173.607 921.454,178.367 923.547,184.932C923.559,184.985 923.939,186.223 923.939,186.223C924.331,187.498 925.686,188.215 926.962,187.822C928.237,187.43 928.954,186.075 928.561,184.799L928.517,184.656C926.192,175.518 917.903,168.751 908.046,168.751C898.137,168.751 889.812,175.59 887.539,184.802ZM931.05,163.018C931.05,163.018 925.794,170.097 925.794,173.131C925.794,176.032 928.15,178.387 931.05,178.387C933.951,178.387 936.306,176.032 936.306,173.131C936.306,170.097 931.05,163.018 931.05,163.018ZM893.189,151.284C896.419,151.284 899.042,153.907 899.042,157.137C899.042,160.368 896.419,162.991 893.189,162.991C889.958,162.991 887.335,160.368 887.335,157.137C887.335,153.907 889.958,151.284 893.189,151.284ZM922.958,151.284C926.189,151.284 928.812,153.907 928.812,157.137C928.812,160.368 926.189,162.991 922.958,162.991C919.727,162.991 917.104,160.368 917.104,157.137C917.104,153.907 919.727,151.284 922.958,151.284Z" style="fill:white;"/>
        </g>
    </g>
</svg>
