<?xml version="1.0" encoding="UTF-8" standalone="no"?>
<!DOCTYPE svg PUBLIC "-//W3C//DTD SVG 1.1//EN" "http://www.w3.org/Graphics/SVG/1.1/DTD/svg11.dtd">
<svg width="100%" height="100%" viewBox="0 0 444 444" version="1.1" xmlns="http://www.w3.org/2000/svg" xmlns:xlink="http://www.w3.org/1999/xlink" xml:space="preserve" style="fill-rule:evenodd;clip-rule:evenodd;stroke-linejoin:round;stroke-miterlimit:1.41421;">
    <g transform="matrix(1,0,0,1,-77,-15)">
        <g id="Emotionless-Smiley-Outline" transform="matrix(6.08625,0,0,6.08625,-3813.35,-795.81)">
            <path d="M675.642,133.337C695.739,133.337 712.056,149.653 712.056,169.751C712.056,189.848 695.739,206.164 675.642,206.164C655.545,206.164 639.229,189.848 639.229,169.751C639.229,149.653 655.545,133.337 675.642,133.337ZM675.642,138.101C693.11,138.101 707.292,152.283 707.292,169.751C707.292,187.218 693.11,201.4 675.642,201.4C658.175,201.4 643.993,187.218 643.993,169.751C643.993,152.283 658.175,138.101 675.642,138.101ZM691.096,176.389C692.778,176.389 694.143,177.755 694.143,179.436C694.143,181.118 692.778,182.483 691.096,182.483L660.188,182.483C658.507,182.483 657.142,181.118 657.142,179.436C657.142,177.755 658.507,176.389 660.188,176.389L691.096,176.389ZM660.78,151.284C664.011,151.284 666.634,153.907 666.634,157.137C666.634,160.368 664.011,162.991 660.78,162.991C657.55,162.991 654.927,160.368 654.927,157.137C654.927,153.907 657.55,151.284 660.78,151.284ZM690.55,151.284C693.781,151.284 696.403,153.907 696.403,157.137C696.403,160.368 693.781,162.991 690.55,162.991C687.319,162.991 684.696,160.368 684.696,157.137C684.696,153.907 687.319,151.284 690.55,151.284Z" style="fill:white;"/>
        </g>
    </g>
</svg>
