<?xml version="1.0" encoding="UTF-8" standalone="no"?>
<!DOCTYPE svg PUBLIC "-//W3C//DTD SVG 1.1//EN" "http://www.w3.org/Graphics/SVG/1.1/DTD/svg11.dtd">
<svg width="100%" height="100%" viewBox="0 0 450 467" version="1.1" xmlns="http://www.w3.org/2000/svg" xmlns:xlink="http://www.w3.org/1999/xlink" xml:space="preserve" style="fill-rule:evenodd;clip-rule:evenodd;stroke-linejoin:round;stroke-miterlimit:1.41421;">
    <g transform="matrix(1,0,0,1,-74,-4)">
        <g id="Evil-Smiley-Outline" transform="matrix(6.08625,0,0,6.08625,-5935.09,-1469.23)">
            <path d="M1042.33,250.647C1047.38,249.836 1056.21,247.672 1061.12,242.122C1061.69,249.119 1057.12,257.323 1054.29,261.67C1058.31,267.527 1060.67,274.62 1060.67,282.258C1060.67,302.355 1044.35,318.672 1024.26,318.672C1004.16,318.672 987.841,302.355 987.841,282.258C987.841,274.62 990.198,267.527 994.224,261.67C991.389,257.323 986.819,249.119 987.39,242.122C992.298,247.672 1001.13,249.836 1006.18,250.647C1011.51,247.592 1017.68,245.845 1024.26,245.845C1030.83,245.845 1037,247.592 1042.33,250.647ZM1024.26,250.609C1041.72,250.609 1055.9,264.79 1055.9,282.258C1055.9,299.726 1041.72,313.907 1024.26,313.907C1006.79,313.907 992.605,299.726 992.605,282.258C992.605,264.79 1006.79,250.609 1024.26,250.609ZM1012.38,292.21C1013.46,293.16 1015.41,294.416 1017.45,293.548C1021.8,291.706 1026.86,287.463 1030.74,287.064C1035.7,286.555 1041.22,291.425 1041.22,291.425C1042.39,292.494 1042.53,294.219 1041.46,295.392C1040.4,296.565 1038.69,296.538 1037.52,295.47C1037.52,295.47 1033.66,291.639 1030.68,292.688C1027.84,293.685 1021.24,299.77 1015.86,299.437C1010.71,299.119 1008.05,296.217 1007.09,295.057C1006.97,294.924 1006.67,294.494 1006.67,294.494L1006.68,294.488C1006.08,293.407 1006.23,292.018 1007.14,291.089C1008.25,289.954 1010,290.068 1011.12,291.089C1011.12,291.089 1011.93,291.819 1012.38,292.21ZM1001.67,267.453L1020.58,272.94C1018.99,276.325 1015.54,278.672 1011.56,278.672C1006.06,278.672 1001.59,274.206 1001.59,268.706C1001.59,268.281 1001.62,267.863 1001.67,267.453ZM1046.84,267.453L1027.93,272.94C1029.52,276.325 1032.97,278.672 1036.95,278.672C1042.45,278.672 1046.92,274.206 1046.92,268.706C1046.92,268.281 1046.89,267.863 1046.84,267.453Z" style="fill:white;"/>
        </g>
    </g>
</svg>
