<?xml version="1.0" encoding="UTF-8" standalone="no"?>
<!DOCTYPE svg PUBLIC "-//W3C//DTD SVG 1.1//EN" "http://www.w3.org/Graphics/SVG/1.1/DTD/svg11.dtd">
<svg width="100%" height="100%" viewBox="0 0 444 444" version="1.1" xmlns="http://www.w3.org/2000/svg" xmlns:xlink="http://www.w3.org/1999/xlink" xml:space="preserve" style="fill-rule:evenodd;clip-rule:evenodd;stroke-linejoin:round;stroke-miterlimit:1.41421;">
    <g transform="matrix(1,0,0,1,-77,-15)">
        <g id="Eyes-Pressed-Smiley-Outline" transform="matrix(6.08625,0,0,6.08625,-6641.13,-795.81)">
            <path d="M1140.26,133.337C1160.36,133.337 1176.67,149.653 1176.67,169.751C1176.67,189.848 1160.36,206.164 1140.26,206.164C1120.16,206.164 1103.85,189.848 1103.85,169.751C1103.85,149.653 1120.16,133.337 1140.26,133.337ZM1140.26,138.101C1157.73,138.101 1171.91,152.283 1171.91,169.751C1171.91,187.218 1157.73,201.4 1140.26,201.4C1122.79,201.4 1108.61,187.218 1108.61,169.751C1108.61,152.283 1122.79,138.101 1140.26,138.101ZM1153.27,175.625C1154.8,175.625 1156.05,176.872 1156.05,178.408C1156.05,179.944 1154.8,181.191 1153.27,181.191L1127.25,181.191C1125.72,181.191 1124.47,179.944 1124.47,178.408C1124.47,176.872 1125.72,175.625 1127.25,175.625L1153.27,175.625ZM1125.48,159.594L1120.47,155.52C1119.35,154.604 1119.18,152.947 1120.1,151.822C1121.01,150.697 1122.67,150.528 1123.79,151.444L1131.12,157.407C1131.33,157.548 1131.52,157.722 1131.69,157.928C1132.09,158.418 1132.28,159.008 1132.28,159.594C1132.28,160.181 1132.09,160.771 1131.69,161.261C1131.52,161.467 1131.33,161.641 1131.12,161.782L1123.79,167.745C1122.67,168.661 1121.01,168.492 1120.1,167.367C1119.18,166.242 1119.35,164.585 1120.47,163.669L1125.48,159.594ZM1155.04,159.594L1160.05,155.52C1161.17,154.604 1161.34,152.947 1160.42,151.822C1159.51,150.697 1157.85,150.528 1156.73,151.444L1149.41,157.407C1149.2,157.548 1149,157.722 1148.84,157.928C1148.44,158.418 1148.24,159.008 1148.25,159.594C1148.24,160.181 1148.44,160.771 1148.84,161.261C1149,161.467 1149.2,161.641 1149.41,161.782L1156.73,167.745C1157.85,168.661 1159.51,168.492 1160.42,167.367C1161.34,166.242 1161.17,164.585 1160.05,163.669L1155.04,159.594Z" style="fill:white;"/>
        </g>
    </g>
</svg>
