<?xml version="1.0" encoding="UTF-8" standalone="no"?>
<!DOCTYPE svg PUBLIC "-//W3C//DTD SVG 1.1//EN" "http://www.w3.org/Graphics/SVG/1.1/DTD/svg11.dtd">
<svg width="100%" height="100%" viewBox="0 0 444 444" version="1.1" xmlns="http://www.w3.org/2000/svg" xmlns:xlink="http://www.w3.org/1999/xlink" xml:space="preserve" style="fill-rule:evenodd;clip-rule:evenodd;stroke-linejoin:round;stroke-miterlimit:1.41421;">
    <g transform="matrix(1,0,0,1,-77,-15)">
        <g id="Glasses-Smiley-Outline" transform="matrix(6.08625,0,0,6.08625,-6642.33,-1469.23)">
            <path d="M1140.46,243.984C1160.56,243.984 1176.87,260.3 1176.87,280.397C1176.87,300.494 1160.56,316.81 1140.46,316.81C1120.36,316.81 1104.05,300.494 1104.05,280.397C1104.05,260.3 1120.36,243.984 1140.46,243.984ZM1140.46,248.748C1157.93,248.748 1172.11,262.929 1172.11,280.397C1172.11,297.865 1157.93,312.046 1140.46,312.046C1122.99,312.046 1108.81,297.865 1108.81,280.397C1108.81,262.929 1122.99,248.748 1140.46,248.748ZM1118.28,288.986C1117.87,287.626 1118.63,286.184 1119.99,285.765C1121.35,285.346 1122.8,286.111 1123.21,287.471C1123.21,287.471 1123.64,288.867 1123.66,288.964C1125.92,295.899 1132.45,300.915 1140.13,300.915C1147.87,300.915 1154.42,295.843 1156.65,288.847C1156.66,288.791 1157.07,287.472 1157.07,287.472C1157.49,286.113 1158.93,285.349 1160.29,285.768C1161.65,286.186 1162.41,287.63 1161.99,288.989L1161.95,289.142C1159.47,298.878 1150.64,306.088 1140.13,306.088C1129.58,306.088 1120.71,298.801 1118.28,288.986ZM1163.95,263.514L1163.95,263.514C1163.96,263.514 1163.97,263.514 1163.97,263.514C1165.22,263.514 1166.23,264.526 1166.23,265.773L1166.23,279.837C1166.24,279.924 1166.25,280.012 1166.25,280.101C1166.25,281.347 1165.24,282.359 1163.99,282.359L1144.64,282.359C1143.49,282.359 1142.54,281.497 1142.4,280.384C1142.38,280.273 1142.37,280.158 1142.37,280.042L1142.37,268.032L1138.53,268.032L1138.53,279.837C1138.54,279.924 1138.55,280.012 1138.55,280.101C1138.55,281.347 1137.54,282.359 1136.29,282.359L1116.94,282.359C1115.79,282.359 1114.84,281.497 1114.7,280.384C1114.68,280.273 1114.67,280.158 1114.67,280.042L1114.67,265.773C1114.67,264.526 1115.68,263.514 1116.93,263.514L1116.93,263.514L1116.94,263.514L1163.93,263.514L1163.95,263.514ZM1146.89,268.032L1146.89,277.842L1161.71,277.842L1161.71,268.032L1146.89,268.032ZM1119.19,268.032L1119.19,277.842L1134.02,277.842L1134.02,268.032L1119.19,268.032ZM1126.65,270.433C1127.93,270.433 1128.97,271.471 1128.97,272.75C1128.97,274.028 1127.93,275.066 1126.65,275.066C1125.38,275.066 1124.34,274.028 1124.34,272.75C1124.34,271.471 1125.38,270.433 1126.65,270.433ZM1154.26,270.433C1155.54,270.433 1156.58,271.471 1156.58,272.75C1156.58,274.028 1155.54,275.066 1154.26,275.066C1152.98,275.066 1151.95,274.028 1151.95,272.75C1151.95,271.471 1152.98,270.433 1154.26,270.433Z" style="fill:white;"/>
        </g>
    </g>
</svg>
