<?xml version="1.0" encoding="UTF-8" standalone="no"?>
<!DOCTYPE svg PUBLIC "-//W3C//DTD SVG 1.1//EN" "http://www.w3.org/Graphics/SVG/1.1/DTD/svg11.dtd">
<svg width="100%" height="100%" viewBox="0 0 444 444" version="1.1" xmlns="http://www.w3.org/2000/svg" xmlns:xlink="http://www.w3.org/1999/xlink" xml:space="preserve" style="fill-rule:evenodd;clip-rule:evenodd;stroke-linejoin:round;stroke-miterlimit:1.41421;">
    <g transform="matrix(1,0,0,1,-77,-15)">
        <g id="Happy-Smiley-Outline" transform="matrix(6.08625,0,0,6.08625,-2398.85,-795.81)">
            <path d="M443.234,133.337C463.331,133.337 479.647,149.653 479.647,169.751C479.647,189.848 463.331,206.164 443.234,206.164C423.137,206.164 406.821,189.848 406.821,169.751C406.821,149.653 423.137,133.337 443.234,133.337ZM443.234,138.101C460.702,138.101 474.883,152.283 474.883,169.751C474.883,187.218 460.702,201.4 443.234,201.4C425.766,201.4 411.585,187.218 411.585,169.751C411.585,152.283 425.766,138.101 443.234,138.101ZM425.155,171.362C425.147,171.579 425.143,171.796 425.143,172.013C425.143,181.998 433.249,190.104 443.234,190.104C453.219,190.104 461.325,181.998 461.325,172.013C461.325,171.796 461.321,171.579 461.313,171.362L425.155,171.362ZM433.251,161.489L423.993,161.489C422.519,161.489 421.322,160.292 421.322,158.817C421.322,157.343 422.519,156.146 423.993,156.146L433.251,156.146C434.726,156.146 435.923,157.343 435.923,158.817C435.923,160.292 434.726,161.489 433.251,161.489ZM462.475,155.813C463.949,155.813 465.146,157.01 465.146,158.484C465.146,159.959 463.949,161.156 462.475,161.156L453.217,161.156C451.742,161.156 450.545,159.959 450.545,158.484C450.545,157.01 451.742,155.813 453.217,155.813L462.475,155.813Z" style="fill:white;"/>
        </g>
    </g>
</svg>
