<?xml version="1.0" encoding="UTF-8" standalone="no"?>
<!DOCTYPE svg PUBLIC "-//W3C//DTD SVG 1.1//EN" "http://www.w3.org/Graphics/SVG/1.1/DTD/svg11.dtd">
<svg width="100%" height="100%" viewBox="0 0 454 465" version="1.1" xmlns="http://www.w3.org/2000/svg" xmlns:xlink="http://www.w3.org/1999/xlink" xml:space="preserve" style="fill-rule:evenodd;clip-rule:evenodd;stroke-linejoin:round;stroke-miterlimit:1.41421;">
    <g transform="matrix(1,0,0,1,-72,-5)">
        <g id="Love-Smiley-Outline" transform="matrix(6.08625,0,0,6.08625,-7348.24,-795.81)">
            <path d="M1292.08,171.223L1292.08,171.445C1292.08,191.542 1275.76,207.859 1255.67,207.859C1235.57,207.859 1219.25,191.542 1219.25,171.445C1219.25,151.348 1235.57,135.032 1255.67,135.032C1258.91,135.032 1262.05,135.456 1265.04,136.253C1263.83,137.576 1262.89,139.114 1262.45,140.525C1260.26,140.048 1257.99,139.796 1255.67,139.796C1238.2,139.796 1224.02,153.977 1224.02,171.445C1224.02,188.913 1238.2,203.094 1255.67,203.094C1272.41,203.094 1286.13,190.064 1287.24,173.599C1288.93,173.081 1290.66,172.238 1292.08,171.223ZM1233.49,175.84C1233.08,174.481 1233.84,173.038 1235.2,172.62C1236.56,172.201 1238,172.965 1238.42,174.326C1238.42,174.326 1238.85,175.722 1238.86,175.819C1241.13,182.753 1247.65,187.769 1255.34,187.769C1263.07,187.769 1269.63,182.697 1271.86,175.702C1271.87,175.646 1272.28,174.327 1272.28,174.327C1272.69,172.967 1274.14,172.204 1275.5,172.622C1276.86,173.041 1277.62,174.484 1277.2,175.843L1277.15,175.996C1274.68,185.733 1265.85,192.943 1255.34,192.943C1244.78,192.943 1235.91,185.655 1233.49,175.84ZM1286.54,159.803C1288.87,157.285 1291.96,158.112 1293.11,159.991C1294.26,161.871 1293.47,164.803 1291.14,167.321C1289.48,169.231 1285.8,170.827 1283.74,170.276C1281.68,169.724 1279.29,166.502 1278.8,164.013C1278.04,160.668 1278.83,157.736 1280.76,156.683C1282.7,155.631 1285.79,156.458 1286.54,159.803ZM1240.63,165.37L1240.64,164.057C1240.64,160.825 1243.26,158.202 1246.49,158.202C1249.72,158.202 1252.35,160.825 1252.35,164.057L1252.34,165.37C1252.34,166.372 1251.53,167.186 1250.53,167.186C1249.53,167.186 1248.71,166.372 1248.71,165.37L1248.71,164.41C1248.71,164.385 1248.71,164.36 1248.71,164.334C1248.69,163.123 1247.7,161.971 1246.49,161.971C1245.27,161.971 1244.27,163.15 1244.27,164.376L1244.27,165.37C1244.27,166.372 1243.45,167.186 1242.45,167.186C1241.45,167.186 1240.63,166.372 1240.63,165.37ZM1258.19,165.37L1258.19,164.057C1258.19,160.825 1260.82,158.202 1264.05,158.202C1267.28,158.202 1269.9,160.825 1269.9,164.057L1269.9,165.37C1269.9,166.372 1269.09,167.186 1268.09,167.186C1267.08,167.186 1266.27,166.372 1266.27,165.37L1266.27,164.41C1266.27,164.385 1266.27,164.36 1266.27,164.334C1266.25,163.123 1265.26,161.971 1264.05,161.971C1262.82,161.971 1261.83,163.15 1261.83,164.376L1261.83,165.37C1261.83,166.372 1261.01,167.186 1260.01,167.186C1259.01,167.186 1258.19,166.372 1258.19,165.37ZM1275.86,138.244C1275.67,133.33 1279.64,131.039 1282.71,131.778C1285.78,132.518 1287.96,136.287 1288.15,141.201C1288.39,144.829 1286.28,150.179 1283.64,151.706C1280.99,153.233 1275.3,152.388 1272.28,150.363C1268.12,147.739 1265.95,143.97 1266.84,140.941C1267.74,137.911 1271.7,135.62 1275.86,138.244Z" style="fill:white;"/>
        </g>
    </g>
</svg>
