<?xml version="1.0" encoding="UTF-8" standalone="no"?>
<!DOCTYPE svg PUBLIC "-//W3C//DTD SVG 1.1//EN" "http://www.w3.org/Graphics/SVG/1.1/DTD/svg11.dtd">
<svg width="100%" height="100%" viewBox="0 0 444 444" version="1.1" xmlns="http://www.w3.org/2000/svg" xmlns:xlink="http://www.w3.org/1999/xlink" xml:space="preserve" style="fill-rule:evenodd;clip-rule:evenodd;stroke-linejoin:round;stroke-miterlimit:1.41421;">
    <g transform="matrix(1,0,0,1,-77,-15)">
        <g id="Love-Eyes-Smiley-Outline" transform="matrix(6.08625,0,0,6.08625,-5227.84,-1469.23)">
            <path d="M908.051,243.984C928.148,243.984 944.464,260.3 944.464,280.397C944.464,300.494 928.148,316.81 908.051,316.81C887.953,316.81 871.637,300.494 871.637,280.397C871.637,260.3 887.953,243.984 908.051,243.984ZM908.051,248.748C925.518,248.748 939.7,262.929 939.7,280.397C939.7,297.865 925.518,312.046 908.051,312.046C890.583,312.046 876.401,297.865 876.401,280.397C876.401,262.929 890.583,248.748 908.051,248.748ZM885.876,284.792C885.459,283.433 886.224,281.99 887.583,281.572C888.943,281.153 890.388,281.917 890.807,283.277C890.807,283.277 891.231,284.674 891.249,284.771C893.514,291.705 900.04,296.721 907.727,296.721C915.457,296.721 922.013,291.649 924.243,284.654C924.256,284.598 924.661,283.278 924.661,283.278C925.079,281.919 926.522,281.155 927.882,281.574C929.241,281.993 930.004,283.436 929.586,284.795L929.539,284.948C927.062,294.684 918.23,301.895 907.727,301.895C897.168,301.895 888.298,294.607 885.876,284.792ZM895.595,264.629C897.413,261.174 901.05,261.174 902.868,262.901C904.686,264.629 904.686,268.083 902.868,271.538C901.595,274.129 898.019,276.968 895.595,276.968C893.171,276.968 889.595,274.129 888.322,271.538C886.504,268.083 886.504,264.629 888.322,262.901C890.14,261.174 893.777,261.174 895.595,264.629ZM920.506,264.629C922.324,261.174 925.961,261.174 927.779,262.901C929.597,264.629 929.597,268.083 927.779,271.538C926.506,274.129 922.93,276.968 920.506,276.968C918.082,276.968 914.506,274.129 913.233,271.538C911.415,268.083 911.415,264.629 913.233,262.901C915.051,261.174 918.688,261.174 920.506,264.629Z" style="fill:white;"/>
        </g>
    </g>
</svg>
