<?xml version="1.0" encoding="UTF-8" standalone="no"?>
<!DOCTYPE svg PUBLIC "-//W3C//DTD SVG 1.1//EN" "http://www.w3.org/Graphics/SVG/1.1/DTD/svg11.dtd">
<svg width="100%" height="100%" viewBox="0 0 444 444" version="1.1" xmlns="http://www.w3.org/2000/svg" xmlns:xlink="http://www.w3.org/1999/xlink" xml:space="preserve" style="fill-rule:evenodd;clip-rule:evenodd;stroke-linejoin:round;stroke-miterlimit:1.41421;">
    <g transform="matrix(1,0,0,1,-77,-15)">
        <g id="Mouth-Opened-Smiley-Outline" transform="matrix(6.08625,0,0,6.08625,-277.108,-1469.23)">
            <path d="M94.622,243.984C114.719,243.984 131.035,260.3 131.035,280.397C131.035,300.494 114.719,316.81 94.622,316.81C74.524,316.81 58.208,300.494 58.208,280.397C58.208,260.3 74.524,243.984 94.622,243.984ZM94.622,248.748C112.089,248.748 126.271,262.929 126.271,280.397C126.271,297.865 112.089,312.046 94.622,312.046C77.154,312.046 62.972,297.865 62.972,280.397C62.972,262.929 77.154,248.748 94.622,248.748ZM94.622,279.218C99.879,279.218 104.148,283.925 104.148,289.722C104.148,295.519 99.879,300.226 94.622,300.226C89.364,300.226 85.095,295.519 85.095,289.722C85.095,283.925 89.364,279.218 94.622,279.218ZM79.76,261.93C82.99,261.93 85.613,264.553 85.613,267.784C85.613,271.015 82.99,273.637 79.76,273.637C76.529,273.637 73.906,271.015 73.906,267.784C73.906,264.553 76.529,261.93 79.76,261.93ZM109.529,261.93C112.76,261.93 115.383,264.553 115.383,267.784C115.383,271.015 112.76,273.637 109.529,273.637C106.298,273.637 103.676,271.015 103.676,267.784C103.676,264.553 106.298,261.93 109.529,261.93Z" style="fill:white;"/>
        </g>
    </g>
</svg>
