<?xml version="1.0" encoding="UTF-8" standalone="no"?>
<!DOCTYPE svg PUBLIC "-//W3C//DTD SVG 1.1//EN" "http://www.w3.org/Graphics/SVG/1.1/DTD/svg11.dtd">
<svg width="100%" height="100%" viewBox="0 0 444 444" version="1.1" xmlns="http://www.w3.org/2000/svg" xmlns:xlink="http://www.w3.org/1999/xlink" xml:space="preserve" style="fill-rule:evenodd;clip-rule:evenodd;stroke-linejoin:round;stroke-miterlimit:1.41421;">
    <g transform="matrix(1,0,0,1,-77,-15)">
        <g id="Mouth-Shut-Smiley-Outline" transform="matrix(6.08625,0,0,6.08625,-3813.35,-1469.23)">
            <path d="M675.642,243.984C695.739,243.984 712.056,260.3 712.056,280.397C712.056,300.494 695.739,316.81 675.642,316.81C655.545,316.81 639.229,300.494 639.229,280.397C639.229,260.3 655.545,243.984 675.642,243.984ZM675.642,248.748C693.11,248.748 707.292,262.929 707.292,280.397C707.292,297.865 693.11,312.046 675.642,312.046C658.175,312.046 643.993,297.865 643.993,280.397C643.993,262.929 658.175,248.748 675.642,248.748ZM675.642,286.56L679.939,282.263C681.101,281.101 682.987,281.101 684.149,282.263C685.311,283.425 685.311,285.312 684.149,286.474L679.853,290.77L684.149,295.067C685.311,296.229 685.311,298.115 684.149,299.277C682.987,300.439 681.101,300.439 679.939,299.277L675.642,294.981L671.346,299.277C670.184,300.439 668.297,300.439 667.135,299.277C665.973,298.115 665.973,296.229 667.135,295.067L671.432,290.77L667.135,286.474C665.973,285.312 665.973,283.425 667.135,282.263C668.297,281.101 670.184,281.101 671.346,282.263L675.642,286.56ZM660.78,261.93C664.011,261.93 666.634,264.553 666.634,267.784C666.634,271.015 664.011,273.637 660.78,273.637C657.55,273.637 654.927,271.015 654.927,267.784C654.927,264.553 657.55,261.93 660.78,261.93ZM690.55,261.93C693.781,261.93 696.403,264.553 696.403,267.784C696.403,271.015 693.781,273.637 690.55,273.637C687.319,273.637 684.696,271.015 684.696,267.784C684.696,264.553 687.319,261.93 690.55,261.93Z" style="fill:white;"/>
        </g>
    </g>
</svg>
