<?xml version="1.0" encoding="UTF-8" standalone="no"?>
<!DOCTYPE svg PUBLIC "-//W3C//DTD SVG 1.1//EN" "http://www.w3.org/Graphics/SVG/1.1/DTD/svg11.dtd">
<svg width="100%" height="100%" viewBox="0 0 444 444" version="1.1" xmlns="http://www.w3.org/2000/svg" xmlns:xlink="http://www.w3.org/1999/xlink" xml:space="preserve" style="fill-rule:evenodd;clip-rule:evenodd;stroke-linejoin:round;stroke-miterlimit:1.41421;">
    <g transform="matrix(1,0,0,1,-77,-15)">
        <g id="Pirate-Smiley-Outline" transform="matrix(6.08625,0,0,6.08625,-8762.47,-795.81)">
            <path d="M1488.81,133.337C1508.9,133.337 1525.22,149.653 1525.22,169.751C1525.22,189.848 1508.9,206.164 1488.81,206.164C1468.71,206.164 1452.39,189.848 1452.39,169.751C1452.39,149.653 1468.71,133.337 1488.81,133.337ZM1477.86,140.05C1465.78,144.51 1457.16,156.132 1457.16,169.751C1457.16,187.218 1471.34,201.4 1488.81,201.4C1502.43,201.4 1514.05,192.779 1518.51,180.702L1509.39,171.589C1504.16,173.455 1498.23,172.405 1494.2,168.377C1490.17,164.348 1489.12,158.418 1490.99,153.185L1477.86,140.05ZM1499.78,182.304C1501.21,182.304 1502.37,183.463 1502.37,184.89C1502.37,186.317 1501.21,187.476 1499.78,187.476L1477.83,187.476C1476.41,187.476 1475.25,186.317 1475.25,184.89C1475.25,183.463 1476.41,182.304 1477.83,182.304L1499.78,182.304ZM1520,175.106C1520.3,173.365 1520.46,171.576 1520.46,169.751C1520.46,152.283 1506.28,138.101 1488.81,138.101C1486.98,138.101 1485.19,138.256 1483.45,138.553L1493.53,148.636C1493.9,148.178 1494.3,147.735 1494.72,147.31C1495.24,146.791 1495.79,146.316 1496.35,145.884L1516.7,166.227C1516.26,166.794 1515.79,167.34 1515.27,167.859C1514.85,168.284 1514.4,168.68 1513.94,169.046L1520,175.106ZM1474.94,158.368L1478.76,154.554C1479.79,153.522 1481.46,153.522 1482.5,154.554C1483.53,155.585 1483.53,157.26 1482.5,158.291L1478.68,162.105L1482.5,165.919C1483.53,166.951 1483.53,168.625 1482.5,169.657C1481.46,170.688 1479.79,170.688 1478.76,169.657L1474.94,165.843L1471.13,169.657C1470.1,170.688 1468.42,170.688 1467.39,169.657C1466.36,168.625 1466.36,166.951 1467.39,165.919L1471.21,162.105L1467.39,158.291C1466.36,157.26 1466.36,155.585 1467.39,154.554C1468.42,153.522 1470.1,153.522 1471.13,154.554L1474.94,158.368Z" style="fill:white;"/>
        </g>
    </g>
</svg>
