<?xml version="1.0" encoding="UTF-8" standalone="no"?>
<!DOCTYPE svg PUBLIC "-//W3C//DTD SVG 1.1//EN" "http://www.w3.org/Graphics/SVG/1.1/DTD/svg11.dtd">
<svg width="100%" height="100%" viewBox="0 0 444 444" version="1.1" xmlns="http://www.w3.org/2000/svg" xmlns:xlink="http://www.w3.org/1999/xlink" xml:space="preserve" style="fill-rule:evenodd;clip-rule:evenodd;stroke-linejoin:round;stroke-miterlimit:1.41421;">
    <g transform="matrix(1,0,0,1,-77,-15)">
        <g id="Sad-Smiley-Outline" transform="matrix(6.08625,0,0,6.08625,-4506.64,-795.81)">
            <path d="M789.553,133.337C809.65,133.337 825.967,149.653 825.967,169.751C825.967,189.848 809.65,206.164 789.553,206.164C769.456,206.164 753.14,189.848 753.14,169.751C753.14,149.653 769.456,133.337 789.553,133.337ZM789.553,138.101C807.021,138.101 821.202,152.283 821.202,169.751C821.202,187.218 807.021,201.4 789.553,201.4C772.085,201.4 757.904,187.218 757.904,169.751C757.904,152.283 772.085,138.101 789.553,138.101ZM767.379,183.451C766.962,184.811 767.726,186.253 769.085,186.672C770.446,187.091 771.89,186.326 772.309,184.966C772.309,184.966 772.733,183.569 772.751,183.473C775.017,176.538 781.542,171.522 789.23,171.522C796.96,171.522 803.515,176.594 805.746,183.589C805.759,183.646 806.163,184.965 806.163,184.965C806.582,186.324 808.025,187.088 809.384,186.669C810.743,186.251 811.507,184.807 811.089,183.448L811.041,183.295C808.564,173.559 799.732,166.349 789.23,166.349C778.671,166.349 769.801,173.636 767.379,183.451ZM774.691,151.284C777.922,151.284 780.545,153.907 780.545,157.137C780.545,160.368 777.922,162.991 774.691,162.991C771.461,162.991 768.838,160.368 768.838,157.137C768.838,153.907 771.461,151.284 774.691,151.284ZM804.461,151.284C807.691,151.284 810.314,153.907 810.314,157.137C810.314,160.368 807.691,162.991 804.461,162.991C801.23,162.991 798.607,160.368 798.607,157.137C798.607,153.907 801.23,151.284 804.461,151.284Z" style="fill:white;"/>
        </g>
    </g>
</svg>
