<?xml version="1.0" encoding="UTF-8" standalone="no"?>
<!DOCTYPE svg PUBLIC "-//W3C//DTD SVG 1.1//EN" "http://www.w3.org/Graphics/SVG/1.1/DTD/svg11.dtd">
<svg width="100%" height="100%" viewBox="0 0 449 444" version="1.1" xmlns="http://www.w3.org/2000/svg" xmlns:xlink="http://www.w3.org/1999/xlink" xml:space="preserve" style="fill-rule:evenodd;clip-rule:evenodd;stroke-linejoin:round;stroke-miterlimit:1.41421;">
    <g transform="matrix(1,0,0,1,-74,-15)">
        <g id="Shocked-Smiley-Outline" transform="matrix(6.08625,0,0,6.08625,-8055.35,-1469.23)">
            <path d="M1359.4,309.153C1363.42,311.01 1367.9,312.046 1372.62,312.046C1377.35,312.046 1381.83,311.01 1385.85,309.153C1385.85,309.284 1385.85,309.415 1385.85,309.546C1385.85,310.98 1386.27,312.462 1387.01,313.853C1382.6,315.756 1377.73,316.81 1372.62,316.81C1367.52,316.81 1362.65,315.756 1358.24,313.853C1358.98,312.462 1359.4,310.98 1359.4,309.546C1359.4,309.415 1359.4,309.284 1359.4,309.153ZM1406.21,308.294C1406.21,308.294 1406.19,299.041 1406.37,298.102C1406.7,296.382 1412.06,287.306 1407.86,285.092C1400.87,281.405 1389.57,293.986 1389.56,308.294C1389.56,312.219 1393.29,316.62 1397.89,316.62C1402.48,316.62 1406.21,312.89 1406.21,308.294ZM1339.04,308.294C1339.04,308.294 1339.06,299.041 1338.88,298.102C1338.55,296.382 1333.19,287.306 1337.39,285.092C1344.38,281.405 1355.68,293.986 1355.69,308.294C1355.69,312.219 1351.96,316.62 1347.36,316.62C1342.77,316.62 1339.04,312.89 1339.04,308.294ZM1378.98,289.387C1378.98,285.877 1376.13,283.027 1372.62,283.027C1369.12,283.027 1366.27,285.877 1366.27,289.387L1366.27,296.68C1366.27,300.19 1369.12,303.04 1372.62,303.04C1376.13,303.04 1378.98,300.19 1378.98,296.68L1378.98,289.387ZM1362.92,263.079C1367.6,265.215 1369.36,271.414 1366.84,276.914C1364.33,282.413 1358.5,285.144 1353.82,283.008C1349.14,280.871 1347.39,274.672 1349.9,269.173C1352.41,263.673 1358.25,260.943 1362.92,263.079ZM1382.33,263.079C1377.65,265.215 1375.89,271.414 1378.4,276.914C1380.92,282.413 1386.75,285.144 1391.43,283.008C1396.11,280.871 1397.86,274.672 1395.35,269.173C1392.84,263.673 1387,260.943 1382.33,263.079ZM1336.22,281.375C1336.22,281.05 1336.21,280.724 1336.21,280.397C1336.21,260.3 1352.53,243.984 1372.62,243.984C1392.72,243.984 1409.04,260.3 1409.04,280.397C1409.04,280.724 1409.03,281.05 1409.03,281.375C1407.43,280.834 1405.83,280.637 1404.27,280.744C1404.27,280.629 1404.27,280.513 1404.27,280.397C1404.27,262.929 1390.09,248.748 1372.62,248.748C1355.16,248.748 1340.98,262.929 1340.98,280.397C1340.98,280.513 1340.98,280.629 1340.98,280.744C1339.42,280.637 1337.82,280.834 1336.22,281.375Z" style="fill:white;"/>
        </g>
    </g>
</svg>
