<?xml version="1.0" encoding="UTF-8" standalone="no"?>
<!DOCTYPE svg PUBLIC "-//W3C//DTD SVG 1.1//EN" "http://www.w3.org/Graphics/SVG/1.1/DTD/svg11.dtd">
<svg width="100%" height="100%" viewBox="0 0 499 456" version="1.1" xmlns="http://www.w3.org/2000/svg" xmlns:xlink="http://www.w3.org/1999/xlink" xml:space="preserve" style="fill-rule:evenodd;clip-rule:evenodd;stroke-linejoin:round;stroke-miterlimit:1.41421;">
    <g transform="matrix(1,0,0,1,-49,-9)">
        <g id="Sleeping-Smiley-Outline" transform="matrix(6.08625,0,0,6.08625,-3668.38,-795.933)">
            <path d="M683.62,173.954C681.984,192.541 666.357,207.139 647.348,207.139C627.251,207.139 610.935,190.822 610.935,170.725C610.935,150.628 627.251,134.312 647.348,134.312C652.605,134.312 657.602,135.428 662.117,137.436L657.874,140.871C654.581,139.709 651.038,139.076 647.348,139.076C629.881,139.076 615.699,153.258 615.699,170.725C615.699,188.193 629.881,202.375 647.348,202.375C663.753,202.375 677.26,189.866 678.842,173.875L683.62,173.954ZM647.008,179.571C649.882,179.571 652.216,181.904 652.216,184.779C652.216,187.653 649.882,189.987 647.008,189.987C644.134,189.987 641.8,187.653 641.8,184.779C641.8,181.904 644.134,179.571 647.008,179.571ZM689.929,169.712L676.635,169.712L676.635,166.807L684.405,158.693L677.39,158.693L677.39,155.701L689.642,155.701L689.642,158.502L681.786,166.701L689.929,166.701L689.929,169.712ZM636.592,166.733L628.277,166.733C626.659,166.733 625.345,165.419 625.345,163.802C625.345,162.184 626.659,160.87 628.277,160.87L636.592,160.87C638.21,160.87 639.523,162.184 639.523,163.802C639.523,165.419 638.21,166.732 636.592,166.733ZM666.42,166.733L658.105,166.733C656.487,166.733 655.174,165.419 655.174,163.802C655.174,162.184 656.487,160.87 658.105,160.87L666.42,160.87C668.038,160.87 669.351,162.184 669.351,163.802C669.351,165.419 668.038,166.732 666.42,166.733ZM674.563,154.252L662.303,154.252L662.303,151.572L669.469,144.09L663,144.09L663,141.331L674.298,141.331L674.298,143.913L667.054,151.475L674.563,151.475L674.563,154.252ZM692.713,149.013L676.952,149.013L676.952,145.569L686.164,135.949L677.847,135.949L677.847,132.403L692.373,132.403L692.373,135.723L683.059,145.444L692.713,145.444L692.713,149.013Z" style="fill:white;"/>
        </g>
    </g>
</svg>
