<?xml version="1.0" encoding="UTF-8" standalone="no"?>
<!DOCTYPE svg PUBLIC "-//W3C//DTD SVG 1.1//EN" "http://www.w3.org/Graphics/SVG/1.1/DTD/svg11.dtd">
<svg width="100%" height="100%" viewBox="0 0 444 444" version="1.1" xmlns="http://www.w3.org/2000/svg" xmlns:xlink="http://www.w3.org/1999/xlink" xml:space="preserve" style="fill-rule:evenodd;clip-rule:evenodd;stroke-linejoin:round;stroke-miterlimit:1.41421;">
    <g transform="matrix(1,0,0,1,-77,-15)">
        <g id="Smile-Smiley-Outline" transform="matrix(6.08625,0,0,6.08625,-1691.6,-795.81)">
            <path d="M327.03,133.337C347.127,133.337 363.443,149.653 363.443,169.751C363.443,189.848 347.127,206.164 327.03,206.164C306.933,206.164 290.616,189.848 290.616,169.751C290.616,149.653 306.933,133.337 327.03,133.337ZM327.03,138.101C344.498,138.101 358.679,152.283 358.679,169.751C358.679,187.218 344.498,201.4 327.03,201.4C309.562,201.4 295.381,187.218 295.381,169.751C295.381,152.283 309.562,138.101 327.03,138.101ZM341.739,171.15C341.754,171.42 341.761,171.691 341.761,171.962C341.761,180.061 335.212,186.642 327.125,186.693L327.03,186.693C318.899,186.693 312.298,180.092 312.298,171.962C312.298,171.673 312.307,171.384 312.324,171.096L341.736,171.096L341.739,171.15ZM312.168,151.284C315.399,151.284 318.022,153.907 318.022,157.137C318.022,160.368 315.399,162.991 312.168,162.991C308.937,162.991 306.314,160.368 306.314,157.137C306.314,153.907 308.937,151.284 312.168,151.284ZM341.937,151.284C345.168,151.284 347.791,153.907 347.791,157.137C347.791,160.368 345.168,162.991 341.937,162.991C338.707,162.991 336.084,160.368 336.084,157.137C336.084,153.907 338.707,151.284 341.937,151.284Z" style="fill:white;"/>
        </g>
    </g>
</svg>
