<?xml version="1.0" encoding="UTF-8" standalone="no"?>
<!DOCTYPE svg PUBLIC "-//W3C//DTD SVG 1.1//EN" "http://www.w3.org/Graphics/SVG/1.1/DTD/svg11.dtd">
<svg width="100%" height="100%" viewBox="0 0 388 413" version="1.1" xmlns="http://www.w3.org/2000/svg" xmlns:xlink="http://www.w3.org/1999/xlink" xml:space="preserve" style="fill-rule:evenodd;clip-rule:evenodd;stroke-linejoin:round;stroke-miterlimit:1.41421;">
    <g transform="matrix(1,0,0,1,-105,-31)">
        <g id="Speech-Bubble-Icon-Outline" transform="matrix(6.08625,0,0,6.08625,-12995.1,-797.528)">
            <path d="M2195.73,186.568L2184.3,203.933L2172.86,186.568L2155,186.568C2153.61,186.568 2152.48,185.438 2152.48,184.046L2152.48,138.654C2152.48,137.262 2153.61,136.132 2155,136.132L2213.5,136.132C2214.89,136.132 2216.02,137.262 2216.02,138.654L2216.02,184.046C2216.02,185.438 2214.89,186.568 2213.5,186.568L2195.73,186.568ZM2211.47,140.803L2157.03,140.803L2157.03,181.897L2175.48,181.897L2184.3,194.575L2193.08,181.965L2211.47,181.897L2211.47,140.803ZM2183.13,168.206C2183.77,168.206 2184.28,168.722 2184.28,169.359L2184.28,171.664C2184.28,172.3 2183.77,172.817 2183.13,172.817L2167.24,172.817C2166.6,172.817 2166.08,172.3 2166.08,171.664L2166.08,169.359C2166.08,168.722 2166.6,168.206 2167.24,168.206L2183.13,168.206ZM2201.26,159.087C2201.9,159.087 2202.42,159.603 2202.42,160.239L2202.42,162.545C2202.42,163.181 2201.9,163.697 2201.26,163.697L2167.24,163.697C2166.6,163.697 2166.08,163.181 2166.08,162.545L2166.08,160.239C2166.08,159.603 2166.6,159.087 2167.24,159.087L2201.26,159.087ZM2201.26,150.129C2201.9,150.129 2202.42,150.646 2202.42,151.282L2202.42,153.587C2202.42,154.224 2201.9,154.74 2201.26,154.74L2167.24,154.74C2166.6,154.74 2166.08,154.224 2166.08,153.587L2166.08,151.282C2166.08,150.646 2166.6,150.129 2167.24,150.129L2201.26,150.129Z" style="fill:white;"/>
        </g>
    </g>
</svg>
