<?xml version="1.0" encoding="UTF-8" standalone="no"?>
<!DOCTYPE svg PUBLIC "-//W3C//DTD SVG 1.1//EN" "http://www.w3.org/Graphics/SVG/1.1/DTD/svg11.dtd">
<svg width="100%" height="100%" viewBox="0 0 444 444" version="1.1" xmlns="http://www.w3.org/2000/svg" xmlns:xlink="http://www.w3.org/1999/xlink" xml:space="preserve" style="fill-rule:evenodd;clip-rule:evenodd;stroke-linejoin:round;stroke-miterlimit:1.41421;">
    <g transform="matrix(1,0,0,1,-77,-15)">
        <g id="Star-EyesSmiley-Outline" transform="matrix(6.08625,0,0,6.08625,-7348.24,-1469.23)">
            <path d="M1256.44,243.984C1276.54,243.984 1292.86,260.3 1292.86,280.397C1292.86,300.494 1276.54,316.81 1256.44,316.81C1236.35,316.81 1220.03,300.494 1220.03,280.397C1220.03,260.3 1236.35,243.984 1256.44,243.984ZM1256.44,248.748C1273.91,248.748 1288.09,262.929 1288.09,280.397C1288.09,297.865 1273.91,312.046 1256.44,312.046C1238.98,312.046 1224.79,297.865 1224.79,280.397C1224.79,262.929 1238.98,248.748 1256.44,248.748ZM1275.87,284.299C1276.31,293.013 1269.96,303.061 1256.6,303.061C1243.23,303.061 1236.28,292.685 1237.05,284.299L1275.87,284.299ZM1242.59,259.041C1242.66,258.831 1242.85,258.697 1243.08,258.697C1243.3,258.697 1243.49,258.831 1243.56,259.041L1245.54,264.657C1245.61,264.863 1245.79,264.995 1246.01,265L1251.95,265.153C1252.17,265.158 1252.36,265.296 1252.42,265.507C1252.49,265.718 1252.43,265.937 1252.25,266.073L1247.53,269.706C1247.36,269.838 1247.29,270.05 1247.35,270.258L1249.04,275.979C1249.1,276.192 1249.03,276.41 1248.85,276.54C1248.67,276.671 1248.44,276.673 1248.25,276.546L1243.37,273.171C1243.19,273.046 1242.96,273.046 1242.78,273.171L1237.9,276.546C1237.71,276.673 1237.48,276.671 1237.3,276.54C1237.12,276.41 1237.05,276.192 1237.11,275.979L1238.8,270.258C1238.86,270.05 1238.79,269.838 1238.62,269.706L1233.9,266.073C1233.73,265.937 1233.66,265.718 1233.73,265.507C1233.8,265.296 1233.98,265.158 1234.2,265.153L1240.14,265C1240.36,264.995 1240.54,264.863 1240.61,264.657L1242.59,259.041ZM1269.32,259.041C1269.4,258.831 1269.59,258.697 1269.81,258.697C1270.03,258.697 1270.22,258.831 1270.3,259.041L1272.27,264.657C1272.35,264.863 1272.53,264.995 1272.75,265L1278.68,265.153C1278.9,265.158 1279.09,265.296 1279.16,265.507C1279.23,265.718 1279.16,265.937 1278.98,266.073L1274.26,269.706C1274.09,269.838 1274.02,270.05 1274.09,270.258L1275.78,275.979C1275.84,276.192 1275.76,276.41 1275.58,276.54C1275.4,276.671 1275.17,276.673 1274.99,276.546L1270.1,273.171C1269.92,273.046 1269.7,273.046 1269.52,273.171L1264.63,276.546C1264.45,276.673 1264.22,276.671 1264.04,276.54C1263.86,276.41 1263.78,276.192 1263.84,275.979L1265.54,270.258C1265.6,270.05 1265.53,269.838 1265.36,269.706L1260.64,266.073C1260.46,265.937 1260.39,265.718 1260.46,265.507C1260.53,265.296 1260.71,265.158 1260.94,265.153L1266.87,265C1267.09,264.995 1267.28,264.863 1267.35,264.657L1269.32,259.041Z" style="fill:white;"/>
        </g>
    </g>
</svg>
