<?xml version="1.0" encoding="UTF-8" standalone="no"?>
<!DOCTYPE svg PUBLIC "-//W3C//DTD SVG 1.1//EN" "http://www.w3.org/Graphics/SVG/1.1/DTD/svg11.dtd">
<svg width="100%" height="100%" viewBox="0 0 444 444" version="1.1" xmlns="http://www.w3.org/2000/svg" xmlns:xlink="http://www.w3.org/1999/xlink" xml:space="preserve" style="fill-rule:evenodd;clip-rule:evenodd;stroke-linejoin:round;stroke-miterlimit:1.41421;">
    <g transform="matrix(1,0,0,1,-77,-15)">
        <g id="Sunglasses-Smiley-Outline" transform="matrix(6.08625,0,0,6.08625,-984.356,-1469.23)">
            <path d="M210.826,243.984C230.923,243.984 247.239,260.3 247.239,280.397C247.239,300.494 230.923,316.81 210.826,316.81C190.729,316.81 174.412,300.494 174.412,280.397C174.412,260.3 190.729,243.984 210.826,243.984ZM210.826,248.748C228.293,248.748 242.475,262.929 242.475,280.397C242.475,297.865 228.293,312.046 210.826,312.046C193.358,312.046 179.176,297.865 179.176,280.397C179.176,262.929 193.358,248.748 210.826,248.748ZM188.651,284.792C188.234,283.433 188.999,281.99 190.358,281.572C191.718,281.153 193.163,281.917 193.582,283.277C193.582,283.277 194.006,284.674 194.024,284.771C196.29,291.705 202.815,296.721 210.502,296.721C218.233,296.721 224.788,291.649 227.018,284.654C227.032,284.598 227.436,283.278 227.436,283.278C227.854,281.919 229.298,281.155 230.657,281.574C232.016,281.993 232.78,283.436 232.361,284.795L232.314,284.948C229.837,294.684 221.005,301.895 210.502,301.895C199.943,301.895 191.073,294.607 188.651,284.792ZM234.63,263.476L234.63,266.986C234.63,272.773 229.932,277.471 224.145,277.471C218.64,277.471 214.121,273.219 213.694,267.824L207.958,267.824C207.531,273.219 203.011,277.471 197.506,277.471C191.72,277.471 187.022,272.773 187.022,266.986L187.022,263.476L234.63,263.476Z" style="fill:white;"/>
        </g>
    </g>
</svg>
