<?xml version="1.0" encoding="UTF-8" standalone="no"?>
<!DOCTYPE svg PUBLIC "-//W3C//DTD SVG 1.1//EN" "http://www.w3.org/Graphics/SVG/1.1/DTD/svg11.dtd">
<svg width="100%" height="100%" viewBox="0 0 444 444" version="1.1" xmlns="http://www.w3.org/2000/svg" xmlns:xlink="http://www.w3.org/1999/xlink" xml:space="preserve" style="fill-rule:evenodd;clip-rule:evenodd;stroke-linejoin:round;stroke-miterlimit:1.41421;">
    <g transform="matrix(1,0,0,1,-77,-15)">
        <g id="Surprised-Smiley-Outline" transform="matrix(6.08625,0,0,6.08625,-9466.78,-793.701)">
            <path d="M1604.53,132.991C1624.62,132.991 1640.94,149.307 1640.94,169.404C1640.94,189.501 1624.62,205.817 1604.53,205.817C1584.43,205.817 1568.12,189.501 1568.12,169.404C1568.12,149.307 1584.43,132.991 1604.53,132.991ZM1604.53,137.755C1622,137.755 1636.18,151.936 1636.18,169.404C1636.18,186.872 1622,201.053 1604.53,201.053C1587.06,201.053 1572.88,186.872 1572.88,169.404C1572.88,151.936 1587.06,137.755 1604.53,137.755ZM1604.53,182.487C1607.17,182.487 1609.31,184.851 1609.31,187.762C1609.31,190.674 1607.17,193.038 1604.53,193.038C1601.89,193.038 1599.74,190.674 1599.74,187.762C1599.74,184.851 1601.89,182.487 1604.53,182.487ZM1590.08,149.994C1597.35,149.994 1603.26,155.903 1603.26,163.181C1603.26,170.459 1597.35,176.367 1590.08,176.367C1582.8,176.367 1576.89,170.459 1576.89,163.181C1576.89,155.903 1582.8,149.994 1590.08,149.994ZM1618.98,149.994C1626.26,149.994 1632.17,155.903 1632.17,163.181C1632.17,170.459 1626.26,176.367 1618.98,176.367C1611.7,176.367 1605.8,170.459 1605.8,163.181C1605.8,155.903 1611.7,149.994 1618.98,149.994ZM1590.08,153.95C1595.17,153.95 1599.31,158.086 1599.31,163.181C1599.31,168.275 1595.17,172.411 1590.08,172.411C1584.98,172.411 1580.84,168.275 1580.84,163.181C1580.84,158.086 1584.98,153.95 1590.08,153.95ZM1618.98,153.95C1624.08,153.95 1628.21,158.086 1628.21,163.181C1628.21,168.275 1624.08,172.411 1618.98,172.411C1613.89,172.411 1609.75,168.275 1609.75,163.181C1609.75,158.086 1613.89,153.95 1618.98,153.95ZM1590.08,160.399C1591.61,160.399 1592.86,161.645 1592.86,163.181C1592.86,164.716 1591.61,165.963 1590.08,165.963C1588.54,165.963 1587.29,164.716 1587.29,163.181C1587.29,161.645 1588.54,160.399 1590.08,160.399ZM1618.98,160.399C1620.52,160.399 1621.76,161.645 1621.76,163.181C1621.76,164.716 1620.52,165.963 1618.98,165.963C1617.45,165.963 1616.2,164.716 1616.2,163.181C1616.2,161.645 1617.45,160.399 1618.98,160.399Z" style="fill:white;"/>
        </g>
    </g>
</svg>
