<?xml version="1.0" encoding="UTF-8" standalone="no"?>
<!DOCTYPE svg PUBLIC "-//W3C//DTD SVG 1.1//EN" "http://www.w3.org/Graphics/SVG/1.1/DTD/svg11.dtd">
<svg width="100%" height="100%" viewBox="0 0 444 444" version="1.1" xmlns="http://www.w3.org/2000/svg" xmlns:xlink="http://www.w3.org/1999/xlink" xml:space="preserve" style="fill-rule:evenodd;clip-rule:evenodd;stroke-linejoin:round;stroke-miterlimit:1.41421;">
    <g transform="matrix(1,0,0,1,-77,-15)">
        <g id="Tired-Smiley-Outline" transform="matrix(6.08625,0,0,6.08625,-3106.1,-1469.23)">
            <path d="M559.438,243.984C579.535,243.984 595.852,260.3 595.852,280.397C595.852,300.494 579.535,316.81 559.438,316.81C539.341,316.81 523.025,300.494 523.025,280.397C523.025,260.3 539.341,243.984 559.438,243.984ZM559.438,248.748C576.906,248.748 591.087,262.929 591.087,280.397C591.087,297.865 576.906,312.046 559.438,312.046C541.97,312.046 527.789,297.865 527.789,280.397C527.789,262.929 541.97,248.748 559.438,248.748ZM559.098,289.242C561.972,289.242 564.306,291.576 564.306,294.45C564.306,297.325 561.972,299.658 559.098,299.658C556.223,299.658 553.89,297.325 553.89,294.45C553.89,291.576 556.223,289.242 559.098,289.242ZM548.681,270.542C550.299,270.542 551.613,271.855 551.613,273.473C551.613,275.091 550.299,276.404 548.681,276.404L540.366,276.404C538.749,276.404 537.435,275.091 537.435,273.473C537.435,271.855 538.749,270.542 540.366,270.542L548.681,270.542ZM578.51,270.542C580.128,270.542 581.441,271.855 581.441,273.473C581.441,275.091 580.128,276.404 578.51,276.404L570.195,276.404C568.577,276.404 567.264,275.091 567.264,273.473C567.264,271.855 568.577,270.542 570.195,270.542L578.51,270.542Z" style="fill:white;"/>
        </g>
    </g>
</svg>
