<?xml version="1.0" encoding="UTF-8" standalone="no"?>
<!DOCTYPE svg PUBLIC "-//W3C//DTD SVG 1.1//EN" "http://www.w3.org/Graphics/SVG/1.1/DTD/svg11.dtd">
<svg width="100%" height="100%" viewBox="0 0 444 444" version="1.1" xmlns="http://www.w3.org/2000/svg" xmlns:xlink="http://www.w3.org/1999/xlink" xml:space="preserve" style="fill-rule:evenodd;clip-rule:evenodd;stroke-linejoin:round;stroke-miterlimit:1.41421;">
    <g transform="matrix(1,0,0,1,-77,-15)">
        <g id="Tongue-Smiley-Outline" transform="matrix(6.08625,0,0,6.08625,-2398.85,-1469.23)">
            <path d="M443.234,243.984C463.331,243.984 479.647,260.3 479.647,280.397C479.647,300.494 463.331,316.81 443.234,316.81C423.137,316.81 406.821,300.494 406.821,280.397C406.821,260.3 423.137,243.984 443.234,243.984ZM443.234,248.748C460.702,248.748 474.883,262.929 474.883,280.397C474.883,297.865 460.702,312.046 443.234,312.046C425.766,312.046 411.585,297.865 411.585,280.397C411.585,262.929 425.766,248.748 443.234,248.748ZM447.539,299.447C446.149,299.739 444.707,299.893 443.23,299.893C433.431,299.893 425.199,293.13 422.951,284.021C422.564,282.76 423.274,281.421 424.535,281.032C425.797,280.644 427.138,281.353 427.527,282.615C427.527,282.615 427.92,283.911 427.937,284.001C430.04,290.437 436.096,295.092 443.23,295.092C450.404,295.092 456.488,290.385 458.558,283.893C458.57,283.841 458.945,282.616 458.945,282.616C459.334,281.355 460.673,280.646 461.934,281.035C463.196,281.423 463.905,282.762 463.516,284.024L463.472,284.166C462.663,287.348 461.122,290.239 459.04,292.65L461.065,296.157C462.908,299.349 461.812,303.438 458.62,305.281C455.427,307.124 451.339,306.028 449.496,302.836L447.539,299.447ZM428.372,261.93C431.603,261.93 434.226,264.553 434.226,267.784C434.226,271.015 431.603,273.637 428.372,273.637C425.141,273.637 422.519,271.015 422.519,267.784C422.519,264.553 425.141,261.93 428.372,261.93ZM458.142,261.93C461.372,261.93 463.995,264.553 463.995,267.784C463.995,271.015 461.372,273.637 458.142,273.637C454.911,273.637 452.288,271.015 452.288,267.784C452.288,264.553 454.911,261.93 458.142,261.93Z" style="fill:white;"/>
        </g>
    </g>
</svg>
