<?xml version="1.0" encoding="UTF-8" standalone="no"?>
<!DOCTYPE svg PUBLIC "-//W3C//DTD SVG 1.1//EN" "http://www.w3.org/Graphics/SVG/1.1/DTD/svg11.dtd">
<svg width="100%" height="100%" viewBox="0 0 444 444" version="1.1" xmlns="http://www.w3.org/2000/svg" xmlns:xlink="http://www.w3.org/1999/xlink" xml:space="preserve" style="fill-rule:evenodd;clip-rule:evenodd;stroke-linejoin:round;stroke-miterlimit:1.41421;">
    <g transform="matrix(1,0,0,1,-77,-15)">
        <g id="Unsure-Smiley-Outline" transform="matrix(6.08625,0,0,6.08625,-3106.1,-795.81)">
            <path d="M559.438,133.337C579.535,133.337 595.852,149.653 595.852,169.751C595.852,189.848 579.535,206.164 559.438,206.164C539.341,206.164 523.025,189.848 523.025,169.751C523.025,149.653 539.341,133.337 559.438,133.337ZM559.438,138.101C576.906,138.101 591.087,152.283 591.087,169.751C591.087,187.218 576.906,201.4 559.438,201.4C541.97,201.4 527.789,187.218 527.789,169.751C527.789,152.283 541.97,138.101 559.438,138.101ZM574.647,175.912C574.21,174.347 572.585,173.43 571.019,173.867L546.274,180.773C544.708,181.21 543.792,182.836 544.229,184.401C544.666,185.967 546.292,186.883 547.857,186.446L572.602,179.54C574.168,179.103 575.084,177.477 574.647,175.912ZM544.576,154.534C547.807,154.534 550.43,157.157 550.43,160.388C550.43,163.619 547.807,166.241 544.576,166.241C541.346,166.241 538.723,163.619 538.723,160.388C538.723,157.157 541.346,154.534 544.576,154.534ZM574.346,154.534C577.576,154.534 580.199,157.157 580.199,160.388C580.199,163.619 577.576,166.241 574.346,166.241C571.115,166.241 568.492,163.619 568.492,160.388C568.492,157.157 571.115,154.534 574.346,154.534Z" style="fill:white;"/>
        </g>
    </g>
</svg>
