<?xml version="1.0" encoding="UTF-8" standalone="no"?>
<!DOCTYPE svg PUBLIC "-//W3C//DTD SVG 1.1//EN" "http://www.w3.org/Graphics/SVG/1.1/DTD/svg11.dtd">
<svg width="100%" height="100%" viewBox="0 0 444 444" version="1.1" xmlns="http://www.w3.org/2000/svg" xmlns:xlink="http://www.w3.org/1999/xlink" xml:space="preserve" style="fill-rule:evenodd;clip-rule:evenodd;stroke-linejoin:round;stroke-miterlimit:1.41421;">
    <g transform="matrix(1,0,0,1,-77,-15)">
        <g id="Wink-Smiley-Outline" transform="matrix(6.08625,0,0,6.08625,-984.356,-795.81)">
            <path d="M210.826,133.337C230.923,133.337 247.239,149.653 247.239,169.751C247.239,189.848 230.923,206.164 210.826,206.164C190.729,206.164 174.412,189.848 174.412,169.751C174.412,149.653 190.729,133.337 210.826,133.337ZM210.826,138.101C228.293,138.101 242.475,152.283 242.475,169.751C242.475,187.218 228.293,201.4 210.826,201.4C193.358,201.4 179.176,187.218 179.176,169.751C179.176,152.283 193.358,138.101 210.826,138.101ZM188.651,174.146C188.234,172.786 188.999,171.344 190.358,170.925C191.718,170.506 193.163,171.271 193.582,172.631C193.582,172.631 194.006,174.027 194.024,174.124C196.29,181.059 202.815,186.075 210.502,186.075C218.233,186.075 224.788,181.002 227.018,174.007C227.032,173.951 227.436,172.632 227.436,172.632C227.854,171.273 229.298,170.509 230.657,170.928C232.016,171.346 232.78,172.789 232.361,174.149L232.314,174.302C229.837,184.038 221.005,191.248 210.502,191.248C199.943,191.248 191.073,183.961 188.651,174.146ZM195.964,151.284C199.195,151.284 201.818,153.907 201.818,157.137C201.818,160.368 199.195,162.991 195.964,162.991C192.733,162.991 190.11,160.368 190.11,157.137C190.11,153.907 192.733,151.284 195.964,151.284ZM230.295,154.36C231.682,154.36 232.808,155.485 232.808,156.872C232.808,158.258 231.682,159.384 230.295,159.384L220.426,159.384C219.04,159.384 217.914,158.258 217.914,156.872C217.914,155.485 219.04,154.36 220.426,154.36L230.295,154.36Z" style="fill:white;"/>
        </g>
    </g>
</svg>
