<?xml version="1.0" encoding="UTF-8" standalone="no"?>
<!DOCTYPE svg PUBLIC "-//W3C//DTD SVG 1.1//EN" "http://www.w3.org/Graphics/SVG/1.1/DTD/svg11.dtd">
<svg width="100%" height="100%" viewBox="0 0 444 444" version="1.1" xmlns="http://www.w3.org/2000/svg" xmlns:xlink="http://www.w3.org/1999/xlink" xml:space="preserve" style="fill-rule:evenodd;clip-rule:evenodd;stroke-linejoin:round;stroke-miterlimit:1.41421;">
    <g transform="matrix(1,0,0,1,-77,-15)">
        <g id="X-Eyes-Smiley-Outline" transform="matrix(6.08625,0,0,6.08625,-1691.6,-1469.23)">
            <path d="M327.03,243.984C347.127,243.984 363.443,260.3 363.443,280.397C363.443,300.494 347.127,316.81 327.03,316.81C306.933,316.81 290.616,300.494 290.616,280.397C290.616,260.3 306.933,243.984 327.03,243.984ZM327.03,248.748C344.498,248.748 358.679,262.929 358.679,280.397C358.679,297.865 344.498,312.046 327.03,312.046C309.562,312.046 295.381,297.865 295.381,280.397C295.381,262.929 309.562,248.748 327.03,248.748ZM342.484,292.029C344.165,292.029 345.531,293.394 345.531,295.076C345.531,296.757 344.165,298.123 342.484,298.123L311.576,298.123C309.894,298.123 308.529,296.757 308.529,295.076C308.529,293.394 309.894,292.029 311.576,292.029L342.484,292.029ZM313.167,269.014L316.981,265.2C318.013,264.169 319.687,264.169 320.719,265.2C321.75,266.232 321.75,267.907 320.719,268.938L316.905,272.752L320.719,276.566C321.75,277.597 321.75,279.272 320.719,280.303C319.687,281.335 318.013,281.335 316.981,280.303L313.167,276.489L309.354,280.303C308.322,281.335 306.647,281.335 305.616,280.303C304.585,279.272 304.585,277.597 305.616,276.566L309.43,272.752L305.616,268.938C304.585,267.907 304.585,266.232 305.616,265.2C306.647,264.169 308.322,264.169 309.354,265.2L313.167,269.014ZM340.892,269.014L344.706,265.2C345.738,264.169 347.412,264.169 348.444,265.2C349.475,266.232 349.475,267.907 348.444,268.938L344.63,272.752L348.444,276.566C349.475,277.597 349.475,279.272 348.444,280.303C347.412,281.335 345.738,281.335 344.706,280.303L340.892,276.489L337.078,280.303C336.047,281.335 334.372,281.335 333.341,280.303C332.309,279.272 332.309,277.597 333.341,276.566L337.155,272.752L333.341,268.938C332.309,267.907 332.309,266.232 333.341,265.2C334.372,264.169 336.047,264.169 337.078,265.2L340.892,269.014Z" style="fill:white;"/>
        </g>
    </g>
</svg>
