<?xml version="1.0" encoding="UTF-8" standalone="no"?>
<!DOCTYPE svg PUBLIC "-//W3C//DTD SVG 1.1//EN" "http://www.w3.org/Graphics/SVG/1.1/DTD/svg11.dtd">
<svg width="100%" height="100%" viewBox="0 0 444 444" version="1.1" xmlns="http://www.w3.org/2000/svg" xmlns:xlink="http://www.w3.org/1999/xlink" xml:space="preserve" style="fill-rule:evenodd;clip-rule:evenodd;stroke-linejoin:round;stroke-miterlimit:1.41421;">
    <g transform="matrix(1,0,0,1,-77,-15)">
        <path id="Angry-Smiley" d="M298.782,15.713C421.098,15.713 520.403,115.018 520.403,237.334C520.403,359.65 421.098,458.955 298.782,458.955C176.466,458.955 77.161,359.65 77.161,237.334C77.161,115.018 176.466,15.713 298.782,15.713ZM299.485,271.581C333.371,272.079 363.256,281.762 385.049,297.379C385.049,297.379 398.593,306.406 403.353,310.391C408.18,314.43 410.834,323.083 406.526,329.05C402.218,335.018 390.846,334.381 385.978,330.402C382.31,327.404 362.4,313.616 362.4,313.616C345.376,302.808 323.152,296.13 298.782,295.776C274.413,296.13 252.188,302.808 235.165,313.616C235.165,313.616 215.254,327.404 211.586,330.402C206.719,334.381 195.347,335.018 191.039,329.05C186.731,323.083 189.385,314.43 194.211,310.391C198.971,306.406 212.515,297.379 212.515,297.379C234.308,281.762 264.193,272.079 298.079,271.581L298.079,271.566L299.485,271.566L299.485,271.581ZM325.55,206.926C320.174,207.144 314.859,204.445 311.984,199.466C307.86,192.322 310.311,183.175 317.454,179.051L394.756,134.42C401.899,130.296 411.047,132.747 415.171,139.89C419.295,147.034 416.844,156.181 409.701,160.306L376.409,179.527C380.824,184.691 383.492,191.393 383.492,198.713C383.492,215.022 370.251,228.263 353.942,228.263C340.482,228.263 329.112,219.245 325.55,206.926ZM223.041,179.527L189.749,160.306C182.606,156.181 180.155,147.034 184.279,139.89C188.403,132.747 197.55,130.296 204.694,134.42L281.996,179.051C289.139,183.175 291.59,192.322 287.466,199.466C284.591,204.445 279.276,207.144 273.9,206.926C270.338,219.245 258.968,228.263 245.508,228.263C229.199,228.263 215.958,215.022 215.958,198.713C215.958,191.393 218.625,184.691 223.041,179.527Z" style="fill:white;"/>
    </g>
</svg>
