<?xml version="1.0" encoding="UTF-8" standalone="no"?>
<!DOCTYPE svg PUBLIC "-//W3C//DTD SVG 1.1//EN" "http://www.w3.org/Graphics/SVG/1.1/DTD/svg11.dtd">
<svg width="100%" height="100%" viewBox="0 0 444 444" version="1.1" xmlns="http://www.w3.org/2000/svg" xmlns:xlink="http://www.w3.org/1999/xlink" xml:space="preserve" style="fill-rule:evenodd;clip-rule:evenodd;stroke-linejoin:round;stroke-miterlimit:1.41421;">
    <g transform="matrix(1,0,0,1,-77,-15)">
        <path id="Basic-Smiley" d="M298.782,15.713C421.098,15.713 520.403,115.018 520.403,237.334C520.403,359.65 421.098,458.955 298.782,458.955C176.466,458.955 77.161,359.65 77.161,237.334C77.161,115.018 176.466,15.713 298.782,15.713ZM163.822,264.083C161.286,255.81 165.937,247.03 174.21,244.482C182.49,241.933 191.282,246.585 193.831,254.864C193.831,254.864 196.411,263.363 196.521,263.953C210.312,306.159 250.025,336.686 296.813,336.686C343.863,336.686 383.759,305.815 397.334,263.241C397.415,262.9 399.875,254.87 399.875,254.87C402.422,246.598 411.206,241.95 419.479,244.497C427.751,247.045 432.399,255.829 429.852,264.101L429.565,265.034C414.488,324.291 360.734,368.173 296.813,368.173C232.549,368.173 178.563,323.821 163.822,264.083ZM208.33,124.941C227.992,124.941 243.956,140.904 243.956,160.567C243.956,180.23 227.992,196.194 208.33,196.194C188.667,196.194 172.703,180.23 172.703,160.567C172.703,140.904 188.667,124.941 208.33,124.941ZM389.513,124.941C409.176,124.941 425.14,140.904 425.14,160.567C425.14,180.23 409.176,196.194 389.513,196.194C369.85,196.194 353.887,180.23 353.887,160.567C353.887,140.904 369.85,124.941 389.513,124.941Z" style="fill:white;"/>
    </g>
</svg>
