<?xml version="1.0" encoding="UTF-8" standalone="no"?>
<!DOCTYPE svg PUBLIC "-//W3C//DTD SVG 1.1//EN" "http://www.w3.org/Graphics/SVG/1.1/DTD/svg11.dtd">
<svg width="100%" height="100%" viewBox="0 0 444 444" version="1.1" xmlns="http://www.w3.org/2000/svg" xmlns:xlink="http://www.w3.org/1999/xlink" xml:space="preserve" style="fill-rule:evenodd;clip-rule:evenodd;stroke-linejoin:round;stroke-miterlimit:1.41421;">
    <g transform="matrix(1,0,0,1,-77,-15)">
        <path id="Cry-Smiley" d="M298.782,15.713C421.098,15.713 520.403,115.018 520.403,237.334C520.403,359.65 421.098,458.955 298.782,458.955C176.466,458.955 77.161,359.65 77.161,237.334C77.161,115.018 176.466,15.713 298.782,15.713ZM173.944,328.942C171.564,336.707 175.929,344.946 183.693,347.337C191.464,349.73 199.715,345.364 202.108,337.594C202.108,337.594 204.529,329.618 204.632,329.064C217.575,289.453 254.846,260.803 298.757,260.803C342.913,260.803 380.357,289.776 393.097,329.732C393.173,330.052 395.481,337.588 395.481,337.588C397.872,345.352 406.116,349.714 413.88,347.323C421.644,344.932 426.006,336.688 423.615,328.925L423.346,328.049C409.196,272.436 358.748,231.252 298.757,231.252C238.445,231.252 187.779,272.877 173.944,328.942ZM438.765,196.361C438.765,196.361 406.776,239.444 406.776,257.908C406.776,275.563 421.11,289.897 438.765,289.897C456.42,289.897 470.754,275.563 470.754,257.908C470.754,239.444 438.765,196.361 438.765,196.361ZM208.33,124.941C227.992,124.941 243.956,140.904 243.956,160.567C243.956,180.23 227.992,196.194 208.33,196.194C188.667,196.194 172.703,180.23 172.703,160.567C172.703,140.904 188.667,124.941 208.33,124.941ZM389.513,124.941C409.176,124.941 425.14,140.904 425.14,160.567C425.14,180.23 409.176,196.194 389.513,196.194C369.85,196.194 353.887,180.23 353.887,160.567C353.887,140.904 369.85,124.941 389.513,124.941Z" style="fill:rgb(255,254,255);"/>
    </g>
</svg>
