<?xml version="1.0" encoding="UTF-8" standalone="no"?>
<!DOCTYPE svg PUBLIC "-//W3C//DTD SVG 1.1//EN" "http://www.w3.org/Graphics/SVG/1.1/DTD/svg11.dtd">
<svg width="100%" height="100%" viewBox="0 0 444 444" version="1.1" xmlns="http://www.w3.org/2000/svg" xmlns:xlink="http://www.w3.org/1999/xlink" xml:space="preserve" style="fill-rule:evenodd;clip-rule:evenodd;stroke-linejoin:round;stroke-miterlimit:1.41421;">
    <g transform="matrix(1,0,0,1,-77,-15)">
        <path id="Cry-Strong-Smiley" d="M298.782,15.713C421.098,15.713 520.403,115.018 520.403,237.334C520.403,359.65 421.098,458.955 298.782,458.955C176.466,458.955 77.161,359.65 77.161,237.334C77.161,115.018 176.466,15.713 298.782,15.713ZM408.643,347.021C408.77,345.047 408.834,343.069 408.834,341.092C408.834,285.423 359.521,240.227 298.782,240.227C238.043,240.227 188.731,285.423 188.731,341.092C188.731,343.069 188.794,345.047 188.921,347.021L408.643,347.021ZM426.64,203.985C426.64,203.985 399.74,240.214 399.74,255.74C399.74,270.587 411.793,282.64 426.64,282.64C441.486,282.64 453.54,270.587 453.54,255.74C453.54,240.214 426.64,203.985 426.64,203.985ZM164.207,203.985C164.207,203.985 137.307,240.214 137.307,255.74C137.307,270.587 149.361,282.64 164.207,282.64C179.054,282.64 191.107,270.587 191.107,255.74C191.107,240.214 164.207,203.985 164.207,203.985ZM166.934,174.682C164.612,166.014 169.763,157.092 178.431,154.769L232.857,140.186C241.525,137.863 250.448,143.015 252.77,151.682C255.093,160.35 249.941,169.273 241.273,171.595L186.847,186.179C178.18,188.501 169.257,183.35 166.934,174.682ZM430.63,174.682C432.953,166.014 427.801,157.092 419.133,154.769L364.707,140.186C356.04,137.863 347.117,143.015 344.794,151.682C342.472,160.35 347.623,169.273 356.291,171.595L410.717,186.179C419.385,188.501 428.308,183.35 430.63,174.682Z" style="fill:rgb(255,254,255);"/>
    </g>
</svg>
