<?xml version="1.0" encoding="UTF-8" standalone="no"?>
<!DOCTYPE svg PUBLIC "-//W3C//DTD SVG 1.1//EN" "http://www.w3.org/Graphics/SVG/1.1/DTD/svg11.dtd">
<svg width="100%" height="100%" viewBox="0 0 450 467" version="1.1" xmlns="http://www.w3.org/2000/svg" xmlns:xlink="http://www.w3.org/1999/xlink" xml:space="preserve" style="fill-rule:evenodd;clip-rule:evenodd;stroke-linejoin:round;stroke-miterlimit:1.41421;">
    <g transform="matrix(1,0,0,1,-74,-4)">
        <g id="Evil-Smiley" transform="matrix(6.08625,0,0,6.08625,-5935.1,-3620.26)">
            <path d="M1042.33,604.071C1047.38,603.26 1056.21,601.096 1061.12,595.546C1061.69,602.543 1057.12,610.747 1054.29,615.094C1058.31,620.952 1060.67,628.044 1060.67,635.682C1060.67,655.779 1044.35,672.096 1024.26,672.096C1004.16,672.096 987.843,655.779 987.843,635.682C987.843,628.044 990.2,620.952 994.226,615.094C991.391,610.747 986.821,602.543 987.392,595.546C992.3,601.096 1001.13,603.26 1006.18,604.071C1011.51,601.016 1017.68,599.269 1024.26,599.269C1030.83,599.269 1037.01,601.016 1042.33,604.071ZM1012.38,645.634C1013.47,646.584 1015.41,647.84 1017.46,646.972C1021.8,645.13 1026.86,640.887 1030.74,640.488C1035.7,639.979 1041.22,644.849 1041.22,644.849C1042.39,645.918 1042.54,647.643 1041.47,648.816C1040.4,649.989 1038.69,649.962 1037.52,648.894C1037.52,648.894 1033.66,645.063 1030.68,646.112C1027.84,647.109 1021.25,653.194 1015.86,652.861C1010.71,652.543 1008.06,649.641 1007.09,648.482C1006.97,648.348 1006.67,647.918 1006.67,647.918L1006.68,647.912C1006.08,646.831 1006.23,645.442 1007.14,644.513C1008.25,643.378 1010.01,643.492 1011.12,644.514C1011.12,644.514 1011.93,645.243 1012.38,645.634ZM1001.67,620.877L1020.58,626.364C1018.99,629.75 1015.55,632.096 1011.56,632.096C1006.06,632.096 1001.59,627.63 1001.59,622.13C1001.59,621.706 1001.62,621.287 1001.67,620.877ZM1046.84,620.877L1027.93,626.364C1029.53,629.75 1032.97,632.096 1036.95,632.096C1042.45,632.096 1046.92,627.63 1046.92,622.13C1046.92,621.706 1046.89,621.287 1046.84,620.877Z" style="fill:white;"/>
        </g>
    </g>
</svg>
