<?xml version="1.0" encoding="UTF-8" standalone="no"?>
<!DOCTYPE svg PUBLIC "-//W3C//DTD SVG 1.1//EN" "http://www.w3.org/Graphics/SVG/1.1/DTD/svg11.dtd">
<svg width="100%" height="100%" viewBox="0 0 444 444" version="1.1" xmlns="http://www.w3.org/2000/svg" xmlns:xlink="http://www.w3.org/1999/xlink" xml:space="preserve" style="fill-rule:evenodd;clip-rule:evenodd;stroke-linejoin:round;stroke-miterlimit:1.41421;">
    <g transform="matrix(1,0,0,1,-77,-15)">
        <path id="Eyes-Pressed-Smiley" d="M298.782,15.713C421.098,15.713 520.403,115.018 520.403,237.334C520.403,359.65 421.098,458.955 298.782,458.955C176.466,458.955 77.161,359.65 77.161,237.334C77.161,115.018 176.466,15.713 298.782,15.713ZM377.948,273.088L219.616,273.088C210.268,273.089 202.679,280.678 202.679,290.026C202.679,299.373 210.268,306.963 219.616,306.963L377.948,306.963C387.296,306.963 394.886,299.373 394.886,290.026C394.886,280.678 387.296,273.089 377.948,273.088ZM208.806,175.521L178.356,150.723C171.509,145.147 170.478,135.062 176.053,128.216C181.629,121.369 191.714,120.338 198.56,125.913L243.123,162.205C244.4,163.064 245.573,164.123 246.595,165.378C249.022,168.358 250.197,171.953 250.186,175.521C250.197,179.09 249.022,182.684 246.595,185.665C245.573,186.919 244.4,187.979 243.123,188.838L198.56,225.13C191.714,230.705 181.629,229.674 176.053,222.827C170.478,215.981 171.509,205.896 178.356,200.32L208.806,175.521ZM388.758,175.521L419.209,150.723C426.055,145.147 427.087,135.062 421.511,128.216C415.936,121.369 405.85,120.338 399.004,125.913L354.442,162.205C353.164,163.064 351.991,164.123 350.969,165.378C348.542,168.358 347.367,171.953 347.379,175.521C347.367,179.09 348.542,182.684 350.969,185.665C351.991,186.919 353.164,187.979 354.442,188.838L399.004,225.13C405.85,230.705 415.936,229.674 421.511,222.827C427.087,215.981 426.055,205.896 419.209,200.32L388.758,175.521Z" style="fill:rgb(255,254,255);"/>
    </g>
</svg>
