<?xml version="1.0" encoding="UTF-8" standalone="no"?>
<!DOCTYPE svg PUBLIC "-//W3C//DTD SVG 1.1//EN" "http://www.w3.org/Graphics/SVG/1.1/DTD/svg11.dtd">
<svg width="100%" height="100%" viewBox="0 0 444 444" version="1.1" xmlns="http://www.w3.org/2000/svg" xmlns:xlink="http://www.w3.org/1999/xlink" xml:space="preserve" style="fill-rule:evenodd;clip-rule:evenodd;stroke-linejoin:round;stroke-miterlimit:1.41421;">
    <g transform="matrix(1,0,0,1,-77,-15)">
        <path id="Glasses-Smiley" d="M298.782,15.713C421.098,15.713 520.403,115.018 520.403,237.334C520.403,359.65 421.098,458.955 298.782,458.955C176.466,458.955 77.161,359.65 77.161,237.334C77.161,115.018 176.466,15.713 298.782,15.713ZM163.822,289.607C161.286,281.334 165.937,272.554 174.21,270.006C182.49,267.457 191.282,272.109 193.831,280.388C193.831,280.388 196.411,288.887 196.521,289.477C210.312,331.683 250.025,362.21 296.813,362.21C343.863,362.21 383.759,331.34 397.334,288.766C397.415,288.424 399.875,280.395 399.875,280.395C402.422,272.122 411.206,267.474 419.479,270.021C427.751,272.569 432.399,281.353 429.852,289.626L429.565,290.558C414.488,349.815 360.734,393.697 296.813,393.697C232.549,393.697 178.563,349.345 163.822,289.607ZM441.99,249.278C449.577,249.278 455.736,243.118 455.736,235.532C455.736,234.989 455.705,234.454 455.643,233.928L455.643,148.328C455.643,140.741 449.484,134.582 441.897,134.582C441.857,134.582 441.817,134.582 441.777,134.582L441.746,134.582L441.657,134.582L155.624,134.582L155.6,134.582L155.575,134.582C147.988,134.582 141.828,140.741 141.828,148.328L141.828,235.173C141.828,235.882 141.882,236.578 141.985,237.257C142.835,244.031 148.622,249.278 155.624,249.278L273.4,249.278C280.987,249.278 287.147,243.118 287.147,235.532C287.147,234.989 287.115,234.454 287.054,233.928L287.054,162.075L310.418,162.075L310.418,235.173C310.418,235.882 310.472,236.578 310.575,237.257C311.425,244.031 317.212,249.278 324.214,249.278L441.99,249.278ZM337.911,162.075L428.15,162.075L428.15,221.785L337.911,221.785L337.911,162.075ZM169.321,162.075L259.561,162.075L259.561,221.785L169.321,221.785L169.321,162.075ZM214.77,176.693C222.551,176.693 228.868,183.01 228.868,190.791C228.868,198.572 222.551,204.889 214.77,204.889C206.989,204.889 200.672,198.572 200.672,190.791C200.672,183.01 206.989,176.693 214.77,176.693ZM382.794,176.693C390.575,176.693 396.892,183.01 396.892,190.791C396.892,198.572 390.575,204.889 382.794,204.889C375.013,204.889 368.696,198.572 368.696,190.791C368.696,183.01 375.013,176.693 382.794,176.693Z" style="fill:rgb(255,254,255);"/>
    </g>
</svg>
