<?xml version="1.0" encoding="UTF-8" standalone="no"?>
<!DOCTYPE svg PUBLIC "-//W3C//DTD SVG 1.1//EN" "http://www.w3.org/Graphics/SVG/1.1/DTD/svg11.dtd">
<svg width="100%" height="100%" viewBox="0 0 444 444" version="1.1" xmlns="http://www.w3.org/2000/svg" xmlns:xlink="http://www.w3.org/1999/xlink" xml:space="preserve" style="fill-rule:evenodd;clip-rule:evenodd;stroke-linejoin:round;stroke-miterlimit:1.41421;">
    <g transform="matrix(1,0,0,1,-77,-15)">
        <path id="Happy-Smiley" d="M298.782,15.713C421.098,15.713 520.403,115.018 520.403,237.334C520.403,359.65 421.098,458.955 298.782,458.955C176.466,458.955 77.161,359.65 77.161,237.334C77.161,115.018 176.466,15.713 298.782,15.713ZM188.748,247.142C188.701,248.463 188.677,249.784 188.677,251.106C188.677,311.874 238.014,361.211 298.782,361.211C359.551,361.211 408.887,311.874 408.887,251.106C408.887,249.784 408.864,248.463 408.816,247.142L188.748,247.142ZM165.42,170.791C165.42,161.818 172.706,154.532 181.679,154.532L238.025,154.532C246.999,154.532 254.284,161.818 254.284,170.791C254.284,179.765 246.999,187.05 238.025,187.05L181.679,187.05C172.706,187.05 165.42,179.765 165.42,170.791ZM432.144,168.764C432.144,159.791 424.859,152.505 415.885,152.505L359.539,152.505C350.566,152.505 343.28,159.791 343.28,168.764C343.28,177.738 350.566,185.023 359.539,185.023L415.885,185.023C424.859,185.023 432.144,177.738 432.144,168.764Z" style="fill:rgb(255,254,255);"/>
    </g>
</svg>
