<?xml version="1.0" encoding="UTF-8" standalone="no"?>
<!DOCTYPE svg PUBLIC "-//W3C//DTD SVG 1.1//EN" "http://www.w3.org/Graphics/SVG/1.1/DTD/svg11.dtd">
<svg width="100%" height="100%" viewBox="0 0 454 465" version="1.1" xmlns="http://www.w3.org/2000/svg" xmlns:xlink="http://www.w3.org/1999/xlink" xml:space="preserve" style="fill-rule:evenodd;clip-rule:evenodd;stroke-linejoin:round;stroke-miterlimit:1.41421;">
    <g transform="matrix(1,0,0,1,-72,-5)">
        <path id="Love-Smiley" d="M515.672,246.295L515.676,247.648C515.676,369.964 416.371,469.269 294.055,469.269C171.739,469.269 72.434,369.964 72.434,247.648C72.434,125.332 171.739,26.027 294.055,26.027C313.784,26.027 332.915,28.61 351.127,33.458C343.498,41.787 337.661,51.514 335.051,60.343C327.512,85.845 345.828,117.569 380.84,139.653C390.203,145.929 402.374,150.859 415.128,153.941C408.788,168.969 406.001,187.309 411.211,205.812C417.682,228.789 438.035,258.25 457.464,263.187C472.796,267.082 498.083,258.864 515.672,246.295ZM159.095,274.397C156.559,266.124 161.21,257.344 169.483,254.796C177.762,252.247 186.554,256.899 189.104,265.178C189.104,265.178 191.684,273.677 191.793,274.267C205.584,316.473 245.298,347 292.085,347C339.135,347 379.031,316.129 392.607,273.556C392.687,273.214 395.147,265.185 395.147,265.185C397.695,256.912 406.479,252.264 414.751,254.811C423.024,257.359 427.672,266.143 425.125,274.416L424.837,275.348C409.76,334.605 356.007,378.487 292.085,378.487C227.822,378.487 173.836,334.135 159.095,274.397ZM481.986,176.792C496.16,161.464 514.944,166.497 521.945,177.936C528.947,189.375 524.165,207.22 509.991,222.548C499.831,234.17 477.43,243.886 464.908,240.53C452.385,237.175 437.843,217.561 434.855,202.415C430.244,182.054 435.026,164.209 446.809,157.803C458.592,151.398 477.376,156.431 481.986,176.792ZM202.568,210.67L202.58,202.679C202.58,183.012 218.548,167.044 238.215,167.044C257.883,167.044 273.85,183.012 273.85,202.679L273.838,210.67C273.838,216.772 268.884,221.725 262.782,221.725C256.681,221.725 251.727,216.772 251.727,210.67L251.727,204.833C251.727,204.678 251.73,204.524 251.736,204.37C251.6,196.999 245.594,189.988 238.215,189.988C230.751,189.988 224.691,197.161 224.691,204.625L224.679,210.67C224.679,216.772 219.725,221.725 213.624,221.725C207.522,221.725 202.568,216.772 202.568,210.67ZM309.429,210.67L309.441,202.679C309.441,183.012 325.408,167.044 345.076,167.044C364.744,167.044 380.711,183.012 380.711,202.679L380.699,210.67C380.699,216.772 375.745,221.725 369.643,221.725C363.542,221.725 358.588,216.772 358.588,210.67L358.588,204.833C358.588,204.678 358.591,204.524 358.597,204.37C358.461,196.999 352.455,189.988 345.076,189.988C337.612,189.988 331.552,197.161 331.552,204.625L331.54,210.67C331.54,216.772 326.586,221.725 320.485,221.725C314.383,221.725 309.429,216.772 309.429,210.67ZM416.987,45.578C415.816,15.668 439.962,1.727 458.658,6.226C477.353,10.725 490.597,33.664 491.767,63.574C493.249,85.658 480.389,118.217 464.291,127.511C448.193,136.805 413.566,131.663 395.182,119.338C369.865,103.369 356.621,80.43 362.072,61.99C367.523,43.55 391.67,29.609 416.987,45.578Z" style="fill:white;"/>
    </g>
</svg>
