<?xml version="1.0" encoding="UTF-8" standalone="no"?>
<!DOCTYPE svg PUBLIC "-//W3C//DTD SVG 1.1//EN" "http://www.w3.org/Graphics/SVG/1.1/DTD/svg11.dtd">
<svg width="100%" height="100%" viewBox="0 0 444 444" version="1.1" xmlns="http://www.w3.org/2000/svg" xmlns:xlink="http://www.w3.org/1999/xlink" xml:space="preserve" style="fill-rule:evenodd;clip-rule:evenodd;stroke-linejoin:round;stroke-miterlimit:1.41421;">
    <g transform="matrix(1,0,0,1,-77,-15)">
        <path id="Love-Eyes-Smiley" d="M298.782,15.713C421.098,15.713 520.403,115.018 520.403,237.334C520.403,359.65 421.098,458.955 298.782,458.955C176.466,458.955 77.161,359.65 77.161,237.334C77.161,115.018 176.466,15.713 298.782,15.713ZM163.822,264.083C161.286,255.81 165.937,247.03 174.21,244.482C182.49,241.933 191.282,246.585 193.831,254.864C193.831,254.864 196.411,263.363 196.521,263.953C210.312,306.159 250.025,336.686 296.813,336.686C343.863,336.686 383.759,305.815 397.334,263.241C397.415,262.9 399.875,254.87 399.875,254.87C402.422,246.598 411.206,241.95 419.479,244.497C427.751,247.045 432.399,255.829 429.852,264.101L429.565,265.034C414.488,324.291 360.734,368.173 296.813,368.173C232.549,368.173 178.563,323.821 163.822,264.083ZM222.975,141.364C234.042,120.338 256.174,120.338 267.241,130.851C278.308,141.364 278.308,162.39 267.241,183.416C259.494,199.185 237.731,216.464 222.975,216.464C208.22,216.464 186.457,199.185 178.71,183.416C167.644,162.39 167.644,141.364 178.71,130.851C189.776,120.338 211.909,120.338 222.975,141.364ZM374.589,141.364C385.655,120.338 407.788,120.338 418.854,130.851C429.921,141.364 429.921,162.39 418.854,183.416C411.108,199.185 389.344,216.464 374.589,216.464C359.834,216.464 338.07,199.185 330.323,183.416C319.257,162.39 319.257,141.364 330.323,130.851C341.39,120.338 363.522,120.338 374.589,141.364Z" style="fill:rgb(255,254,255);"/>
    </g>
</svg>
