<?xml version="1.0" encoding="UTF-8" standalone="no"?>
<!DOCTYPE svg PUBLIC "-//W3C//DTD SVG 1.1//EN" "http://www.w3.org/Graphics/SVG/1.1/DTD/svg11.dtd">
<svg width="100%" height="100%" viewBox="0 0 444 444" version="1.1" xmlns="http://www.w3.org/2000/svg" xmlns:xlink="http://www.w3.org/1999/xlink" xml:space="preserve" style="fill-rule:evenodd;clip-rule:evenodd;stroke-linejoin:round;stroke-miterlimit:1.41421;">
    <g transform="matrix(1,0,0,1,-77,-15)">
        <path id="Mouth-Shut-Smiley" d="M298.782,15.713C421.098,15.713 520.403,115.018 520.403,237.334C520.403,359.65 421.098,458.955 298.782,458.955C176.466,458.955 77.161,359.65 77.161,237.334C77.161,115.018 176.466,15.713 298.782,15.713ZM298.782,274.842L324.932,248.693C332.003,241.621 343.486,241.621 350.558,248.693C357.63,255.764 357.63,267.247 350.558,274.319L324.409,300.469L350.558,326.618C357.63,333.69 357.63,345.173 350.558,352.244C343.486,359.316 332.003,359.316 324.932,352.244L298.782,326.095L272.633,352.244C265.561,359.316 254.078,359.316 247.006,352.244C239.934,345.173 239.934,333.69 247.006,326.618L273.156,300.469L247.006,274.319C239.934,267.247 239.934,255.764 247.006,248.693C254.078,241.621 265.561,241.621 272.633,248.693L298.782,274.842ZM208.33,124.941C227.992,124.941 243.956,140.904 243.956,160.567C243.956,180.23 227.992,196.194 208.33,196.194C188.667,196.194 172.703,180.23 172.703,160.567C172.703,140.904 188.667,124.941 208.33,124.941ZM389.513,124.941C409.176,124.941 425.14,140.904 425.14,160.567C425.14,180.23 409.176,196.194 389.513,196.194C369.85,196.194 353.887,180.23 353.887,160.567C353.887,140.904 369.85,124.941 389.513,124.941Z" style="fill:rgb(255,254,255);"/>
    </g>
</svg>
