<?xml version="1.0" encoding="UTF-8" standalone="no"?>
<!DOCTYPE svg PUBLIC "-//W3C//DTD SVG 1.1//EN" "http://www.w3.org/Graphics/SVG/1.1/DTD/svg11.dtd">
<svg width="100%" height="100%" viewBox="0 0 444 444" version="1.1" xmlns="http://www.w3.org/2000/svg" xmlns:xlink="http://www.w3.org/1999/xlink" xml:space="preserve" style="fill-rule:evenodd;clip-rule:evenodd;stroke-linejoin:round;stroke-miterlimit:1.41421;">
    <g transform="matrix(1,0,0,1,-77,-15)">
        <g id="Pirate-Smiley" transform="matrix(6.08625,0,0,6.08625,-8620.94,-2283.92)">
            <path d="M1450.94,380.895L1467.74,397.69C1465.87,402.922 1466.92,408.853 1470.95,412.881C1474.98,416.909 1480.91,417.959 1486.14,416.093L1498.91,428.865C1493.28,441.697 1480.45,450.668 1465.55,450.668C1445.46,450.668 1429.14,434.352 1429.14,414.255C1429.14,399.352 1438.11,386.529 1450.94,380.895ZM1479.11,429.394C1479.11,427.967 1477.95,426.808 1476.53,426.808L1454.58,426.808C1453.15,426.808 1451.99,427.967 1451.99,429.394C1451.99,430.821 1453.15,431.98 1454.58,431.98L1476.53,431.98C1477.95,431.98 1479.11,430.821 1479.11,429.394ZM1456.2,379.057C1459.18,378.264 1462.32,377.841 1465.55,377.841C1485.65,377.841 1501.97,394.158 1501.97,414.255C1501.97,417.489 1501.54,420.625 1500.75,423.611L1490.69,413.55C1491.15,413.184 1491.59,412.788 1492.02,412.363C1492.54,411.844 1493.01,411.299 1493.44,410.731L1473.1,390.388C1472.53,390.82 1471.99,391.295 1471.47,391.814C1471.04,392.239 1470.65,392.682 1470.28,393.14L1456.2,379.057ZM1451.69,402.872L1455.5,399.058C1456.54,398.027 1458.21,398.027 1459.24,399.058C1460.27,400.089 1460.27,401.764 1459.24,402.796L1455.43,406.61L1459.24,410.423C1460.27,411.455 1460.27,413.13 1459.24,414.161C1458.21,415.192 1456.54,415.192 1455.5,414.161L1451.69,410.347L1447.88,414.161C1446.85,415.192 1445.17,415.192 1444.14,414.161C1443.11,413.13 1443.11,411.455 1444.14,410.423L1447.95,406.61L1444.14,402.796C1443.11,401.764 1443.11,400.089 1444.14,399.058C1445.17,398.027 1446.85,398.027 1447.88,399.058L1451.69,402.872Z" style="fill:white;"/>
        </g>
    </g>
</svg>
