<?xml version="1.0" encoding="UTF-8" standalone="no"?>
<!DOCTYPE svg PUBLIC "-//W3C//DTD SVG 1.1//EN" "http://www.w3.org/Graphics/SVG/1.1/DTD/svg11.dtd">
<svg width="100%" height="100%" viewBox="0 0 449 444" version="1.1" xmlns="http://www.w3.org/2000/svg" xmlns:xlink="http://www.w3.org/1999/xlink" xml:space="preserve" style="fill-rule:evenodd;clip-rule:evenodd;stroke-linejoin:round;stroke-miterlimit:1.41421;">
    <g transform="matrix(1,0,0,1,-74,-15)">
        <g id="Shocked-Smiley" transform="matrix(6.08625,0,0,6.08625,-8055.35,-3620.27)">
            <path d="M1336.22,634.801C1336.22,634.476 1336.21,634.15 1336.21,633.823C1336.21,613.726 1352.53,597.409 1372.62,597.409C1392.72,597.409 1409.04,613.726 1409.04,633.823C1409.04,634.15 1409.03,634.476 1409.03,634.801C1397.34,630.845 1385.86,645.259 1385.85,662.972C1385.85,664.405 1386.27,665.888 1387.01,667.279C1382.6,669.182 1377.73,670.236 1372.62,670.236C1367.52,670.236 1362.65,669.182 1358.24,667.279C1358.98,665.888 1359.4,664.405 1359.4,662.972C1359.39,645.259 1347.91,630.845 1336.22,634.801ZM1406.21,661.72C1406.21,661.72 1406.19,652.467 1406.37,651.528C1406.7,649.808 1412.06,640.732 1407.86,638.518C1400.87,634.831 1389.57,647.412 1389.56,661.72C1389.56,665.645 1393.29,670.046 1397.89,670.046C1402.48,670.046 1406.21,666.315 1406.21,661.72ZM1339.04,661.72C1339.04,661.72 1339.06,652.467 1338.88,651.528C1338.55,649.808 1333.19,640.732 1337.39,638.518C1344.38,634.831 1355.68,647.412 1355.69,661.72C1355.69,665.645 1351.96,670.046 1347.36,670.046C1342.77,670.046 1339.04,666.315 1339.04,661.72ZM1378.98,642.813C1378.98,639.303 1376.13,636.453 1372.62,636.453C1369.12,636.453 1366.27,639.303 1366.27,642.813L1366.27,650.106C1366.27,653.616 1369.12,656.466 1372.62,656.466C1376.13,656.466 1378.98,653.616 1378.98,650.106L1378.98,642.813ZM1362.92,616.505C1367.6,618.641 1369.36,624.84 1366.84,630.34C1364.33,635.839 1358.5,638.57 1353.82,636.433C1349.14,634.297 1347.39,628.098 1349.9,622.598C1352.41,617.099 1358.25,614.368 1362.92,616.505ZM1382.33,616.505C1377.65,618.641 1375.89,624.84 1378.4,630.34C1380.92,635.839 1386.75,638.57 1391.43,636.433C1396.11,634.297 1397.86,628.098 1395.35,622.598C1392.84,617.099 1387,614.368 1382.33,616.505Z" style="fill:white;"/>
        </g>
    </g>
</svg>
