<?xml version="1.0" encoding="UTF-8" standalone="no"?>
<!DOCTYPE svg PUBLIC "-//W3C//DTD SVG 1.1//EN" "http://www.w3.org/Graphics/SVG/1.1/DTD/svg11.dtd">
<svg width="100%" height="100%" viewBox="0 0 502 461" version="1.1" xmlns="http://www.w3.org/2000/svg" xmlns:xlink="http://www.w3.org/1999/xlink" xml:space="preserve" style="fill-rule:evenodd;clip-rule:evenodd;stroke-linejoin:round;stroke-miterlimit:1.41421;">
    <g transform="matrix(1,0,0,1,-48,-7)">
        <path id="Sleeping-Smiley" d="M491.354,254.086C487.03,372.607 389.451,467.5 269.883,467.5C147.567,467.5 48.261,368.195 48.261,245.879C48.261,123.563 147.567,24.257 269.883,24.257C297.519,24.257 323.98,29.327 348.386,38.586L348.386,91.261L355.68,98.555L342.561,111.674L342.561,162.97L430.842,162.97L430.842,181.785L441.502,192.444L425.259,208.687L425.259,254.086L491.354,254.086ZM267.81,299.714C285.304,299.714 299.507,313.916 299.507,331.41C299.507,348.904 285.304,363.107 267.81,363.107C250.316,363.107 236.113,348.904 236.113,331.41C236.113,313.916 250.316,299.714 267.81,299.714ZM532.358,234.241L451.449,234.241L451.449,216.559L498.738,167.176L456.044,167.176L456.044,148.97L530.613,148.97L530.613,166.012L482.8,215.919L532.358,215.919L532.358,234.241ZM204.415,185.899L153.808,185.899C143.961,185.899 135.967,193.893 135.967,203.739C135.967,213.585 143.961,221.579 153.808,221.579L204.415,221.579C214.261,221.579 222.255,213.585 222.255,203.739C222.255,193.893 214.262,185.899 204.415,185.899ZM385.958,185.899L335.35,185.899C325.503,185.899 317.51,193.893 317.51,203.739C317.51,213.585 325.504,221.579 335.35,221.579L385.958,221.579C395.804,221.579 403.798,213.585 403.798,203.739C403.798,193.893 395.805,185.899 385.958,185.899ZM438.838,140.146L364.224,140.146L364.224,123.839L407.833,78.298L368.461,78.298L368.461,61.509L437.228,61.509L437.228,77.226L393.136,123.249L438.838,123.249L438.838,140.146ZM549.303,108.265L453.378,108.265L453.378,87.301L509.443,28.753L458.826,28.753L458.826,7.168L547.234,7.168L547.234,27.374L490.548,86.542L549.303,86.542L549.303,108.265Z" style="fill:rgb(255,254,255);"/>
    </g>
</svg>
