<?xml version="1.0" encoding="UTF-8" standalone="no"?>
<!DOCTYPE svg PUBLIC "-//W3C//DTD SVG 1.1//EN" "http://www.w3.org/Graphics/SVG/1.1/DTD/svg11.dtd">
<svg width="100%" height="100%" viewBox="0 0 444 444" version="1.1" xmlns="http://www.w3.org/2000/svg" xmlns:xlink="http://www.w3.org/1999/xlink" xml:space="preserve" style="fill-rule:evenodd;clip-rule:evenodd;stroke-linejoin:round;stroke-miterlimit:1.41421;">
    <g transform="matrix(1,0,0,1,-77,-15)">
        <path id="Smile-Smiley" d="M298.782,15.713C421.098,15.713 520.403,115.018 520.403,237.334C520.403,359.65 421.098,458.955 298.782,458.955C176.466,458.955 77.161,359.65 77.161,237.334C77.161,115.018 176.466,15.713 298.782,15.713ZM388.286,245.521L209.278,245.521C209.175,247.276 209.123,249.034 209.123,250.792C209.123,300.276 249.298,340.451 298.782,340.451L299.362,340.449C348.58,340.137 388.442,300.083 388.442,250.792C388.442,249.144 388.396,247.496 388.305,245.85L388.286,245.521ZM208.33,124.941C227.992,124.941 243.956,140.904 243.956,160.567C243.956,180.23 227.992,196.194 208.33,196.194C188.667,196.194 172.703,180.23 172.703,160.567C172.703,140.904 188.667,124.941 208.33,124.941ZM389.513,124.941C409.176,124.941 425.14,140.904 425.14,160.567C425.14,180.23 409.176,196.194 389.513,196.194C369.85,196.194 353.887,180.23 353.887,160.567C353.887,140.904 369.85,124.941 389.513,124.941Z" style="fill:rgb(255,254,255);"/>
    </g>
</svg>
