<?xml version="1.0" encoding="UTF-8" standalone="no"?>
<!DOCTYPE svg PUBLIC "-//W3C//DTD SVG 1.1//EN" "http://www.w3.org/Graphics/SVG/1.1/DTD/svg11.dtd">
<svg width="100%" height="100%" viewBox="0 0 388 409" version="1.1" xmlns="http://www.w3.org/2000/svg" xmlns:xlink="http://www.w3.org/1999/xlink" xml:space="preserve" style="fill-rule:evenodd;clip-rule:evenodd;stroke-linejoin:round;stroke-miterlimit:1.41421;">
    <g transform="matrix(1,0,0,1,-105,-33)">
        <g id="Speech-Bubble-Icon" transform="matrix(5.25748,0,0,5.25748,-9391.82,-3792.42)">
            <path d="M1856.5,786.122L1843.26,805.224L1830.02,786.122L1809.34,786.122C1807.73,786.122 1806.42,784.813 1806.42,783.202L1806.42,730.655C1806.42,729.043 1807.73,727.735 1809.34,727.735L1877.07,727.735C1878.68,727.735 1879.99,729.043 1879.99,730.655L1879.99,783.202C1879.99,784.813 1878.68,786.121 1877.07,786.122L1856.5,786.122ZM1841.91,764.865L1823.51,764.865C1822.77,764.865 1822.17,765.463 1822.17,766.199L1822.17,768.868C1822.17,769.605 1822.77,770.202 1823.51,770.202L1841.91,770.202C1842.64,770.202 1843.24,769.605 1843.24,768.868L1843.24,766.199C1843.24,765.463 1842.64,764.865 1841.91,764.865ZM1864.24,755.643C1864.24,754.906 1863.64,754.308 1862.9,754.308L1823.51,754.308C1822.77,754.308 1822.17,754.906 1822.17,755.643L1822.17,758.311C1822.17,759.048 1822.77,759.646 1823.51,759.646L1862.9,759.646C1863.64,759.646 1864.24,759.048 1864.24,758.311L1864.24,755.643ZM1862.9,743.939L1823.51,743.939C1822.77,743.939 1822.17,744.537 1822.17,745.273L1822.17,747.942C1822.17,748.678 1822.77,749.276 1823.51,749.276L1862.9,749.276C1863.64,749.276 1864.24,748.678 1864.24,747.942L1864.24,745.273C1864.24,744.537 1863.64,743.939 1862.9,743.939Z" style="fill:white;"/>
        </g>
    </g>
</svg>
