<?xml version="1.0" encoding="UTF-8" standalone="no"?>
<!DOCTYPE svg PUBLIC "-//W3C//DTD SVG 1.1//EN" "http://www.w3.org/Graphics/SVG/1.1/DTD/svg11.dtd">
<svg width="100%" height="100%" viewBox="0 0 444 444" version="1.1" xmlns="http://www.w3.org/2000/svg" xmlns:xlink="http://www.w3.org/1999/xlink" xml:space="preserve" style="fill-rule:evenodd;clip-rule:evenodd;stroke-linejoin:round;stroke-miterlimit:1.41421;">
    <g transform="matrix(1,0,0,1,-77,-15)">
        <path id="Star-Eyes-Smiley" d="M298.782,15.713C421.098,15.713 520.403,115.018 520.403,237.334C520.403,359.65 421.098,458.955 298.782,458.955C176.466,458.955 77.161,359.65 77.161,237.334C77.161,115.018 176.466,15.713 298.782,15.713ZM417.009,261.082C419.701,314.118 381.037,375.27 299.715,375.27C218.394,375.27 176.089,312.122 180.776,261.082L417.009,261.082ZM214.462,107.354C214.912,106.078 216.063,105.262 217.425,105.262C218.787,105.262 219.937,106.078 220.387,107.354L232.413,141.534C232.855,142.788 233.963,143.593 235.295,143.625L271.423,144.553C272.78,144.587 273.905,145.423 274.326,146.71C274.748,147.993 274.335,149.329 273.261,150.156L244.535,172.266C243.487,173.072 243.069,174.361 243.443,175.626L253.734,210.444C254.118,211.741 253.663,213.069 252.561,213.862C251.459,214.655 250.051,214.668 248.933,213.896L219.214,193.353C218.114,192.595 216.735,192.595 215.635,193.353L185.916,213.896C184.799,214.668 183.391,214.655 182.289,213.862C181.186,213.069 180.731,211.741 181.115,210.444L191.406,175.626C191.781,174.361 191.362,173.072 190.314,172.266L161.588,150.156C160.514,149.329 160.103,147.993 160.523,146.71C160.945,145.423 162.07,144.587 163.426,144.553L199.555,143.625C200.887,143.593 201.995,142.788 202.436,141.534L214.462,107.354ZM377.177,107.354C377.627,106.078 378.778,105.262 380.14,105.262C381.502,105.262 382.651,106.078 383.102,107.354L395.128,141.534C395.57,142.788 396.677,143.593 398.01,143.625L434.138,144.553C435.495,144.587 436.62,145.423 437.041,146.71C437.463,147.993 437.05,149.329 435.976,150.156L407.25,172.266C406.202,173.072 405.784,174.361 406.157,175.626L416.449,210.444C416.833,211.741 416.377,213.069 415.275,213.862C414.173,214.655 412.766,214.668 411.648,213.896L381.928,193.353C380.829,192.595 379.45,192.595 378.35,193.353L348.631,213.896C347.514,214.668 346.106,214.655 345.004,213.862C343.901,213.069 343.446,211.741 343.83,210.444L354.121,175.626C354.496,174.361 354.077,173.072 353.029,172.266L324.303,150.156C323.229,149.329 322.817,147.993 323.238,146.71C323.66,145.423 324.785,144.587 326.141,144.553L362.269,143.625C363.602,143.593 364.71,142.788 365.151,141.534L377.177,107.354Z" style="fill:white;"/>
    </g>
</svg>
