<?xml version="1.0" encoding="UTF-8" standalone="no"?>
<!DOCTYPE svg PUBLIC "-//W3C//DTD SVG 1.1//EN" "http://www.w3.org/Graphics/SVG/1.1/DTD/svg11.dtd">
<svg width="100%" height="100%" viewBox="0 0 445 444" version="1.1" xmlns="http://www.w3.org/2000/svg" xmlns:xlink="http://www.w3.org/1999/xlink" xml:space="preserve" style="fill-rule:evenodd;clip-rule:evenodd;stroke-linejoin:round;stroke-miterlimit:1.41421;">
    <g transform="matrix(1,0,0,1,-76,-51)">
        <g id="Surprised-Smiley" transform="matrix(6.08625,0,0,6.08625,-9328.42,-2248.27)">
            <path d="M1581.74,377.841C1601.83,377.841 1618.15,394.158 1618.15,414.255C1618.15,434.352 1601.83,450.668 1581.74,450.668C1561.64,450.668 1545.32,434.352 1545.32,414.255C1545.32,394.158 1561.64,377.841 1581.74,377.841ZM1581.74,427.338C1584.38,427.338 1586.52,429.702 1586.52,432.613C1586.52,435.525 1584.38,437.888 1581.74,437.888C1579.1,437.888 1576.95,435.525 1576.95,432.613C1576.95,429.702 1579.1,427.338 1581.74,427.338ZM1567.28,394.845C1574.56,394.845 1580.47,400.754 1580.47,408.031C1580.47,415.309 1574.56,421.218 1567.28,421.218C1560,421.218 1554.1,415.309 1554.1,408.031C1554.1,400.754 1560,394.845 1567.28,394.845ZM1596.19,394.845C1603.47,394.845 1609.38,400.754 1609.38,408.031C1609.38,415.309 1603.47,421.218 1596.19,421.218C1588.91,421.218 1583,415.309 1583,408.031C1583,400.754 1588.91,394.845 1596.19,394.845ZM1567.28,398.801C1572.38,398.801 1576.51,402.937 1576.51,408.031C1576.51,413.126 1572.38,417.262 1567.28,417.262C1562.19,417.262 1558.05,413.126 1558.05,408.031C1558.05,402.937 1562.19,398.801 1567.28,398.801ZM1596.19,398.801C1601.28,398.801 1605.42,402.937 1605.42,408.031C1605.42,413.126 1601.28,417.262 1596.19,417.262C1591.09,417.262 1586.96,413.126 1586.96,408.031C1586.96,402.937 1591.09,398.801 1596.19,398.801ZM1567.28,405.249C1568.82,405.249 1570.06,406.496 1570.06,408.031C1570.06,409.567 1568.82,410.814 1567.28,410.814C1565.75,410.814 1564.5,409.567 1564.5,408.031C1564.5,406.496 1565.75,405.249 1567.28,405.249ZM1596.19,405.249C1597.72,405.249 1598.97,406.496 1598.97,408.031C1598.97,409.567 1597.72,410.814 1596.19,410.814C1594.65,410.814 1593.41,409.567 1593.41,408.031C1593.41,406.496 1594.65,405.249 1596.19,405.249Z" style="fill:white;"/>
        </g>
    </g>
</svg>
