<?xml version="1.0" encoding="UTF-8" standalone="no"?>
<!DOCTYPE svg PUBLIC "-//W3C//DTD SVG 1.1//EN" "http://www.w3.org/Graphics/SVG/1.1/DTD/svg11.dtd">
<svg width="100%" height="100%" viewBox="0 0 444 444" version="1.1" xmlns="http://www.w3.org/2000/svg" xmlns:xlink="http://www.w3.org/1999/xlink" xml:space="preserve" style="fill-rule:evenodd;clip-rule:evenodd;stroke-linejoin:round;stroke-miterlimit:1.41421;">
    <g transform="matrix(1,0,0,1,-77,-15)">
        <path id="Tired-Smiley" d="M298.782,15.713C421.098,15.713 520.403,115.018 520.403,237.334C520.403,359.65 421.098,458.955 298.782,458.955C176.466,458.955 77.161,359.65 77.161,237.334C77.161,115.018 176.466,15.713 298.782,15.713ZM296.71,291.169C314.204,291.169 328.407,305.372 328.407,322.866C328.407,340.36 314.204,354.563 296.71,354.563C279.216,354.563 265.013,340.36 265.013,322.866C265.013,305.372 279.216,291.169 296.71,291.169ZM251.155,195.194C251.155,185.348 243.161,177.354 233.315,177.354L182.707,177.354C172.861,177.354 164.867,185.348 164.867,195.194C164.867,205.041 172.861,213.035 182.707,213.035L233.315,213.035C243.161,213.035 251.155,205.041 251.155,195.194ZM414.857,177.354L364.25,177.354C354.403,177.354 346.41,185.348 346.41,195.194C346.41,205.041 354.404,213.035 364.25,213.035L414.857,213.035C424.704,213.035 432.698,205.041 432.698,195.194C432.698,185.348 424.704,177.354 414.857,177.354Z" style="fill:rgb(255,254,255);"/>
    </g>
</svg>
