<?xml version="1.0" encoding="UTF-8" standalone="no"?>
<!DOCTYPE svg PUBLIC "-//W3C//DTD SVG 1.1//EN" "http://www.w3.org/Graphics/SVG/1.1/DTD/svg11.dtd">
<svg width="100%" height="100%" viewBox="0 0 444 444" version="1.1" xmlns="http://www.w3.org/2000/svg" xmlns:xlink="http://www.w3.org/1999/xlink" xml:space="preserve" style="fill-rule:evenodd;clip-rule:evenodd;stroke-linejoin:round;stroke-miterlimit:1.41421;">
    <g transform="matrix(1,0,0,1,-77,-15)">
        <path id="Tongue-Smiley" d="M298.782,15.713C421.098,15.713 520.403,115.018 520.403,237.334C520.403,359.65 421.098,458.955 298.782,458.955C176.466,458.955 77.161,359.65 77.161,237.334C77.161,115.018 176.466,15.713 298.782,15.713ZM324.987,353.278C316.522,355.057 307.748,355.992 298.757,355.992C239.117,355.992 189.015,314.831 175.335,259.391C172.981,251.713 177.298,243.565 184.975,241.201C192.659,238.834 200.819,243.152 203.185,250.836C203.185,250.836 205.579,258.723 205.681,259.27C218.479,298.44 255.336,326.771 298.757,326.771C342.422,326.771 379.448,298.121 392.046,258.61C392.121,258.293 394.404,250.841 394.404,250.841C396.768,243.164 404.921,238.85 412.598,241.215C420.275,243.579 424.589,251.731 422.225,259.408L421.958,260.274C417.031,279.639 407.653,297.235 394.979,311.906L407.304,333.252C418.522,352.682 411.854,377.564 392.424,388.782C372.995,400 348.112,393.333 336.894,373.903L324.987,353.278ZM208.33,124.941C227.992,124.941 243.956,140.904 243.956,160.567C243.956,180.23 227.992,196.194 208.33,196.194C188.667,196.194 172.703,180.23 172.703,160.567C172.703,140.904 188.667,124.941 208.33,124.941ZM389.513,124.941C409.176,124.941 425.14,140.904 425.14,160.567C425.14,180.23 409.176,196.194 389.513,196.194C369.85,196.194 353.887,180.23 353.887,160.567C353.887,140.904 369.85,124.941 389.513,124.941Z" style="fill:rgb(255,254,255);"/>
    </g>
</svg>
