<?xml version="1.0" encoding="UTF-8" standalone="no"?>
<!DOCTYPE svg PUBLIC "-//W3C//DTD SVG 1.1//EN" "http://www.w3.org/Graphics/SVG/1.1/DTD/svg11.dtd">
<svg width="100%" height="100%" viewBox="0 0 444 444" version="1.1" xmlns="http://www.w3.org/2000/svg" xmlns:xlink="http://www.w3.org/1999/xlink" xml:space="preserve" style="fill-rule:evenodd;clip-rule:evenodd;stroke-linejoin:round;stroke-miterlimit:1.41421;">
    <g transform="matrix(1,0,0,1,-77,-15)">
        <path id="Unsure-Smiley" d="M298.782,15.713C421.098,15.713 520.403,115.018 520.403,237.334C520.403,359.65 421.098,458.955 298.782,458.955C176.466,458.955 77.161,359.65 77.161,237.334C77.161,115.018 176.466,15.713 298.782,15.713ZM391.348,274.834C388.689,265.306 378.795,259.73 369.267,262.389L218.661,304.422C209.134,307.081 203.557,316.975 206.216,326.503C208.876,336.031 218.77,341.607 228.298,338.948L378.903,296.915C388.431,294.256 394.007,284.362 391.348,274.834ZM208.33,144.723C227.992,144.723 243.956,160.687 243.956,180.35C243.956,200.013 227.992,215.977 208.33,215.977C188.667,215.977 172.703,200.013 172.703,180.35C172.703,160.687 188.667,144.723 208.33,144.723ZM389.513,144.723C409.176,144.723 425.14,160.687 425.14,180.35C425.14,200.013 409.176,215.977 389.513,215.977C369.85,215.977 353.887,200.013 353.887,180.35C353.887,160.687 369.85,144.723 389.513,144.723Z" style="fill:rgb(255,254,255);"/>
    </g>
</svg>
