<?xml version="1.0" encoding="UTF-8" standalone="no"?>
<!DOCTYPE svg PUBLIC "-//W3C//DTD SVG 1.1//EN" "http://www.w3.org/Graphics/SVG/1.1/DTD/svg11.dtd">
<svg width="100%" height="100%" viewBox="0 0 444 444" version="1.1" xmlns="http://www.w3.org/2000/svg" xmlns:xlink="http://www.w3.org/1999/xlink" xml:space="preserve" style="fill-rule:evenodd;clip-rule:evenodd;stroke-linejoin:round;stroke-miterlimit:1.41421;">
    <g transform="matrix(1,0,0,1,-77,-15)">
        <path id="X-Eyes-Smiley" d="M298.782,15.713C421.098,15.713 520.403,115.018 520.403,237.334C520.403,359.65 421.098,458.955 298.782,458.955C176.466,458.955 77.161,359.65 77.161,237.334C77.161,115.018 176.466,15.713 298.782,15.713ZM392.839,308.13L204.726,308.13C194.491,308.13 186.183,316.439 186.183,326.673C186.183,336.908 194.492,345.216 204.726,345.216L392.839,345.216C403.073,345.216 411.382,336.908 411.382,326.673C411.382,316.439 403.073,308.13 392.839,308.13ZM214.412,168.055L237.624,144.843C243.901,138.566 254.094,138.566 260.372,144.843C266.649,151.121 266.649,161.314 260.372,167.591L237.16,190.803L260.372,214.015C266.649,220.293 266.649,230.486 260.372,236.763C254.094,243.041 243.901,243.041 237.624,236.763L214.412,213.551L191.2,236.763C184.922,243.041 174.729,243.041 168.452,236.763C162.174,230.486 162.174,220.293 168.452,214.015L191.664,190.803L168.452,167.591C162.174,161.314 162.174,151.121 168.452,144.843C174.729,138.566 184.922,138.566 191.2,144.843L214.412,168.055ZM383.153,168.055L406.365,144.843C412.642,138.566 422.835,138.566 429.113,144.843C435.39,151.121 435.39,161.314 429.113,167.591L405.901,190.803L429.113,214.015C435.39,220.293 435.39,230.486 429.113,236.763C422.835,243.041 412.642,243.041 406.365,236.763L383.153,213.551L359.941,236.763C353.663,243.041 343.47,243.041 337.193,236.763C330.915,230.486 330.915,220.293 337.193,214.015L360.405,190.803L337.193,167.591C330.915,161.314 330.915,151.121 337.193,144.843C343.47,138.566 353.663,138.566 359.941,144.843L383.153,168.055Z" style="fill:white;"/>
    </g>
</svg>
