<?xml version="1.0" encoding="UTF-8" standalone="no"?>
<!DOCTYPE svg PUBLIC "-//W3C//DTD SVG 1.1//EN" "http://www.w3.org/Graphics/SVG/1.1/DTD/svg11.dtd">
<svg width="100%" height="100%" viewBox="0 0 572 570" version="1.1" xmlns="http://www.w3.org/2000/svg" xmlns:xlink="http://www.w3.org/1999/xlink" xml:space="preserve" style="fill-rule:evenodd;clip-rule:evenodd;stroke-linejoin:round;stroke-miterlimit:1.41421;">
    <g transform="matrix(1,0,0,1,-14,-15)">
        <g id="Arrow-Down-Circle-Icon" transform="matrix(-1.83697e-16,1,-1,-1.83697e-16,600,7.27596e-12)">
            <path d="M299.999,585.001C142.598,585.001 15,457.407 15,300.003C15,142.607 142.598,14.999 299.999,14.999C457.4,14.999 585,142.607 585,300.003C585,457.407 457.4,585.001 299.999,585.001ZM315.729,328.463L280.503,363.552C268.842,375.156 268.842,393.991 280.503,405.603C292.162,417.223 311.065,417.223 322.724,405.603L405.893,322.76C412.12,316.558 414.761,308.329 414.337,300.21C414.915,291.972 412.225,283.553 405.893,277.24L322.724,194.397C311.065,182.777 292.162,182.777 280.503,194.397C268.842,206.017 268.842,224.836 280.503,236.456L315.729,271.537L214.158,271.537C198.379,271.537 185.587,284.282 185.587,300.004C185.587,315.718 198.379,328.463 214.158,328.463L315.729,328.463Z" style="fill:white;"/>
        </g>
    </g>
</svg>
