<?xml version="1.0" encoding="UTF-8" standalone="no"?>
<!DOCTYPE svg PUBLIC "-//W3C//DTD SVG 1.1//EN" "http://www.w3.org/Graphics/SVG/1.1/DTD/svg11.dtd">
<svg width="100%" height="100%" viewBox="0 0 570 572" version="1.1" xmlns="http://www.w3.org/2000/svg" xmlns:xlink="http://www.w3.org/1999/xlink" xml:space="preserve" style="fill-rule:evenodd;clip-rule:evenodd;stroke-linejoin:round;stroke-miterlimit:1.41421;">
    <path d="M284.999,571.001C127.598,571.001 0,443.407 0,286.003C0,128.607 127.598,0.999 284.999,0.999C442.4,0.999 570,128.607 570,286.003C570,443.407 442.4,571.001 284.999,571.001ZM355.763,438.179C360.991,438.178 365.258,433.921 365.258,428.683L365.258,409.698C365.258,404.459 360.991,400.207 355.763,400.207L214.291,400.207C209.009,400.207 204.795,404.459 204.795,409.698L204.795,428.683C204.795,433.922 209.009,438.179 214.291,438.179L355.763,438.179ZM307.112,389.821L307.112,361.58C383.876,343.192 394.012,223.132 397.052,133.821L172.948,133.821C175.988,222.444 187.458,341.335 262.888,361.132L262.888,389.821L307.112,389.821ZM99.278,172.166L99.224,172.139C99.171,288.747 151.45,321.48 198.66,326.649C192.152,316.028 186.711,304.089 182.123,291.191C134.912,272.007 130.965,210.564 130.058,199.5L163.399,199.532C162.492,190.464 161.799,181.315 161.212,172.166L99.278,172.166ZM408.468,172.166L470.722,172.166L470.776,172.139C470.829,287.696 419.511,320.883 372.62,326.5C379.021,315.847 384.303,303.849 388.73,290.844C435.141,271.271 439.035,210.495 439.942,199.5L406.388,199.532C407.241,190.496 407.935,181.352 408.468,172.166Z" style="fill:white;"/>
</svg>
