<?xml version="1.0" encoding="UTF-8" standalone="no"?>
<!DOCTYPE svg PUBLIC "-//W3C//DTD SVG 1.1//EN" "http://www.w3.org/Graphics/SVG/1.1/DTD/svg11.dtd">
<svg width="100%" height="100%" viewBox="0 0 570 572" version="1.1" xmlns="http://www.w3.org/2000/svg" xmlns:xlink="http://www.w3.org/1999/xlink" xml:space="preserve" style="fill-rule:evenodd;clip-rule:evenodd;stroke-linejoin:round;stroke-miterlimit:1.41421;">
    <g transform="matrix(1,0,0,1,-15,-14)">
        <path id="Help-Circle-Icon" d="M299.999,585.001C142.598,585.001 15,457.407 15,300.003C15,142.607 142.598,14.999 299.999,14.999C457.4,14.999 585,142.607 585,300.003C585,457.407 457.4,585.001 299.999,585.001ZM297.449,460.927C288.804,460.927 281.257,458.128 274.809,452.53C268.36,446.932 265.136,439.102 265.136,429.04C265.136,420.111 268.254,412.6 274.49,406.506C280.726,400.411 288.379,397.364 297.449,397.364C306.378,397.364 313.889,400.411 319.983,406.506C326.077,412.6 329.124,420.111 329.124,429.04C329.124,438.96 325.935,446.755 319.558,452.424C313.18,458.093 305.811,460.927 297.449,460.927ZM193.707,227.933C193.707,214.47 198.03,200.829 206.675,187.011C215.32,173.193 227.933,161.748 244.515,152.678C261.097,143.608 280.442,139.073 302.551,139.073C323.101,139.073 341.242,142.864 356.973,150.446C372.704,158.028 384.857,168.338 393.431,181.377C402.006,194.416 406.293,208.588 406.293,223.894C406.293,235.941 403.848,246.499 398.959,255.57C394.069,264.64 388.259,272.47 381.527,279.06C374.795,285.65 362.713,296.74 345.281,312.33C340.462,316.723 336.6,320.585 333.695,323.916C330.79,327.246 328.628,330.293 327.211,333.057C325.794,335.821 324.695,338.584 323.916,341.348C323.136,344.112 321.967,348.966 320.408,355.91C317.715,370.649 309.283,378.019 295.111,378.019C287.741,378.019 281.54,375.61 276.509,370.791C271.478,365.972 268.962,358.815 268.962,349.32C268.962,337.415 270.805,327.105 274.49,318.389C278.175,309.673 283.064,302.02 289.158,295.429C295.252,288.839 303.472,281.009 313.818,271.939C322.888,264.002 329.443,258.014 333.482,253.975C337.521,249.936 340.923,245.436 343.686,240.476C346.45,235.516 347.832,230.13 347.832,224.319C347.832,212.982 343.616,203.415 335.183,195.62C326.75,187.826 315.873,183.928 302.551,183.928C286.961,183.928 275.482,187.861 268.112,195.727C260.742,203.592 254.507,215.178 249.405,230.484C244.586,246.499 235.445,254.507 221.981,254.507C214.044,254.507 207.348,251.708 201.892,246.109C196.435,240.511 193.707,234.453 193.707,227.933Z" style="fill:white;"/>
    </g>
</svg>
