<?xml version="1.0" encoding="UTF-8" standalone="no"?>
<!DOCTYPE svg PUBLIC "-//W3C//DTD SVG 1.1//EN" "http://www.w3.org/Graphics/SVG/1.1/DTD/svg11.dtd">
<svg width="100%" height="100%" viewBox="0 0 570 572" version="1.1" xmlns="http://www.w3.org/2000/svg" xmlns:xlink="http://www.w3.org/1999/xlink" xml:space="preserve" style="fill-rule:evenodd;clip-rule:evenodd;stroke-linejoin:round;stroke-miterlimit:1.41421;">
    <g transform="matrix(1,0,0,1,-15,-14)">
        <path id="Plus-Circle-Icon" d="M299.999,585.001C142.598,585.001 15,457.407 15,300.003C15,142.607 142.598,14.999 299.999,14.999C457.4,14.999 585,142.607 585,300.003C585,457.407 457.4,585.001 299.999,585.001ZM271.374,328.622L271.374,385.889C271.374,401.69 284.189,414.515 300.001,414.515C315.813,414.515 328.631,401.69 328.631,385.889L328.631,328.622L385.883,328.622C401.695,328.622 414.512,315.805 414.512,300.004C414.512,284.187 401.695,271.37 385.883,271.37L328.631,271.37L328.631,214.111C328.631,198.31 315.813,185.485 300.001,185.485C284.189,185.485 271.374,198.31 271.374,214.111L271.374,271.37L214.12,271.37C198.155,271.523 185.488,284.281 185.488,300.004C185.488,315.711 198.155,328.469 214.12,328.622L271.374,328.622Z" style="fill:white;"/>
    </g>
</svg>
