<?xml version="1.0" encoding="UTF-8" standalone="no"?>
<!DOCTYPE svg PUBLIC "-//W3C//DTD SVG 1.1//EN" "http://www.w3.org/Graphics/SVG/1.1/DTD/svg11.dtd">
<svg width="100%" height="100%" viewBox="0 0 505 505" version="1.1" xmlns="http://www.w3.org/2000/svg" xmlns:xlink="http://www.w3.org/1999/xlink" xml:space="preserve" style="fill-rule:evenodd;clip-rule:evenodd;stroke-linejoin:round;stroke-miterlimit:1.41421;">
    <g transform="matrix(1,0,0,1,-54,-44)">
        <g transform="matrix(1,0,0,1,-0.861292,-1.10687)">
            <g transform="matrix(0.97701,0,0,0.97701,11.5901,9.12877)">
                <path d="M303.929,63.805C367.085,64.062 424.308,89.665 465.945,130.96L484.828,112.077L486.188,113.437L467.305,132.319C508.6,173.956 534.203,231.179 534.46,294.336L561.119,294.336L561.119,296.259L534.46,296.259C534.203,359.415 508.6,416.639 467.305,458.275L486.188,477.158L484.828,478.518L465.945,459.635C424.309,500.93 367.085,526.533 303.929,526.79L303.929,553.449L302.006,553.449L302.006,526.79C238.849,526.533 181.626,500.93 139.989,459.635L121.106,478.518L119.747,477.158L138.629,458.275C97.334,416.639 71.732,359.416 71.475,296.259L44.816,296.259L44.816,294.336L71.475,294.336C71.732,231.179 97.334,173.956 138.629,132.319L119.747,113.437L121.106,112.077L139.989,130.96C181.626,89.665 238.849,64.062 302.006,63.805L302.006,37.146L303.929,37.146L303.929,63.805ZM206.456,393.169L147.472,452.152C187.193,491.532 241.77,515.949 302.006,516.206L302.006,432.774C264.793,432.519 231.073,417.447 206.456,393.169ZM399.479,393.169C374.861,417.447 341.141,432.519 303.929,432.774L303.929,516.206C364.164,515.949 418.742,491.532 458.462,452.152L399.479,393.169ZM165.491,296.259L82.059,296.259C82.316,356.495 106.733,411.072 146.112,450.793L205.096,391.809C180.817,367.192 165.746,333.472 165.491,296.259ZM523.875,296.259L440.444,296.259C440.189,333.472 425.117,367.192 400.839,391.809L459.822,450.793C499.201,411.072 523.618,356.495 523.875,296.259ZM303.929,161.013L303.929,271.418C303.61,271.406 303.289,271.399 302.967,271.399C302.645,271.399 302.325,271.406 302.006,271.418L302.006,161.013C265.674,161.268 232.752,175.982 208.712,199.683L286.766,277.736C286.294,278.171 285.841,278.625 285.406,279.096L207.353,201.043C183.652,225.082 168.938,258.004 168.683,294.336L279.088,294.336C279.076,294.655 279.069,294.975 279.069,295.297C279.069,295.619 279.076,295.939 279.088,296.259L168.683,296.259C168.938,332.591 183.652,365.513 207.353,389.552L285.406,311.499C285.841,311.97 286.294,312.424 286.766,312.859L208.712,390.912C232.752,414.613 265.674,429.327 302.006,429.582L302.006,319.176C302.325,319.189 302.645,319.195 302.967,319.195C303.289,319.195 303.61,319.189 303.929,319.176L303.929,429.582C340.261,429.327 373.183,414.613 397.222,390.912L319.169,312.859C319.64,312.424 320.094,311.97 320.529,311.499L398.582,389.552C422.282,365.513 436.996,332.591 437.251,296.259L326.846,296.259C326.859,295.94 326.865,295.619 326.865,295.297C326.865,294.975 326.859,294.655 326.846,294.336L437.251,294.336C436.996,258.004 422.282,225.082 398.582,201.043L320.529,279.096C320.094,278.625 319.64,278.171 319.169,277.736L397.222,199.683C373.182,175.982 340.261,161.268 303.929,161.013ZM459.822,139.802L400.839,198.786C425.117,223.403 440.189,257.123 440.444,294.336L523.875,294.336C523.618,234.1 499.201,179.523 459.822,139.802ZM146.112,139.802C106.733,179.523 82.316,234.1 82.059,294.336L165.491,294.336C165.746,257.123 180.817,223.403 205.096,198.786L146.112,139.802ZM302.006,74.389C241.77,74.646 187.193,99.063 147.472,138.443L206.456,197.426C231.073,173.148 264.793,158.076 302.006,157.821L302.006,74.389ZM303.929,74.389L303.929,157.821C341.141,158.076 374.861,173.148 399.479,197.426L458.462,138.443C418.742,99.063 364.164,74.646 303.929,74.389Z" style="fill:white;"/>
            </g>
        </g>
    </g>
</svg>
