<?xml version="1.0" encoding="UTF-8" standalone="no"?>
<!DOCTYPE svg PUBLIC "-//W3C//DTD SVG 1.1//EN" "http://www.w3.org/Graphics/SVG/1.1/DTD/svg11.dtd">
<svg width="100%" height="100%" viewBox="0 0 600 600" version="1.1" xmlns="http://www.w3.org/2000/svg" xmlns:xlink="http://www.w3.org/1999/xlink" xml:space="preserve" style="fill-rule:evenodd;clip-rule:evenodd;stroke-linejoin:round;stroke-miterlimit:1.41421;">
    <g id="Compass" transform="matrix(1,0,0,1,-0.861292,-1.10687)">
        <g id="Text" transform="matrix(1,0,0,1,0.861292,1.10687)">
            <path d="M299.308,590.703C300.762,591.414 302.994,591.752 304.55,591.752C309.825,591.752 314.019,589.249 314.019,584.413C314.019,581.505 312.429,579.341 308.675,578.157C305.733,577.244 304.584,576.196 304.584,574.302C304.584,572.476 306.139,571.326 308.574,571.326C310.13,571.326 311.956,571.867 313.207,572.679L313.545,568.654C312.531,568.046 310.671,567.538 308.642,567.538C304.144,567.538 299.883,569.635 299.883,574.539C299.883,577.853 301.438,579.949 305.192,581.133C307.83,581.979 309.217,583.061 309.217,584.887C309.217,586.781 307.39,587.964 304.651,587.964C303.197,587.964 301.168,587.558 299.646,586.781L299.308,590.703ZM590.043,284.553L590.043,288.341L580.438,288.341L580.438,294.056L588.961,294.056L588.961,297.843L580.438,297.843L580.438,303.897L590.178,303.897L590.178,307.684L575.975,307.684L575.975,284.553L590.043,284.553ZM13.508,282.605L16.619,296.132C17.025,297.958 17.465,300.089 17.702,301.915C18.006,300.089 18.446,297.958 18.919,296.132L22.335,282.605L27.204,282.605L30.451,296.132C30.89,297.958 31.33,300.089 31.634,301.915C31.905,300.089 32.311,297.958 32.75,296.132L35.997,282.605L40.697,282.605L34.171,305.871L28.895,305.871L26.088,294.745C25.547,292.547 24.972,290.112 24.566,287.914C24.127,290.18 23.62,292.48 23.045,294.745L20.272,305.871L14.996,305.871L8.571,282.605L13.508,282.605ZM304.612,2.364L310.53,15.147C311.477,17.176 312.018,18.529 312.897,21.234C312.762,18.529 312.728,17.176 312.728,15.147L312.728,2.364L317.057,2.364L317.057,25.63L310.428,25.63L304.51,12.847C303.563,10.818 303.022,9.466 302.143,6.76C302.278,9.466 302.312,10.818 302.312,12.847L302.312,25.63L297.983,25.63L297.983,2.364L304.612,2.364Z" style="fill:none;"/>
        </g>
        <g transform="matrix(0.97701,0,0,0.97701,11.5901,9.12877)">
            <path d="M303.929,63.805C367.085,64.062 424.308,89.665 465.945,130.96L484.828,112.077L486.188,113.437L467.305,132.319C508.6,173.956 534.203,231.179 534.46,294.336L561.119,294.336L561.119,296.259L534.46,296.259C534.203,359.415 508.6,416.639 467.305,458.275L486.188,477.158L484.828,478.518L465.945,459.635C424.309,500.93 367.085,526.533 303.929,526.79L303.929,553.449L302.006,553.449L302.006,526.79C238.849,526.533 181.626,500.93 139.989,459.635L121.106,478.518L119.747,477.158L138.629,458.275C97.334,416.639 71.732,359.416 71.475,296.259L44.816,296.259L44.816,294.336L71.475,294.336C71.732,231.179 97.334,173.956 138.629,132.319L119.747,113.437L121.106,112.077L139.989,130.96C181.626,89.665 238.849,64.062 302.006,63.805L302.006,37.146L303.929,37.146L303.929,63.805ZM206.456,393.169L147.472,452.152C187.193,491.532 241.77,515.949 302.006,516.206L302.006,432.774C264.793,432.519 231.073,417.447 206.456,393.169ZM399.479,393.169C374.861,417.447 341.141,432.519 303.929,432.774L303.929,516.206C364.164,515.949 418.742,491.532 458.462,452.152L399.479,393.169ZM165.491,296.259L82.059,296.259C82.316,356.495 106.733,411.072 146.112,450.793L205.096,391.809C180.817,367.192 165.746,333.472 165.491,296.259ZM523.875,296.259L440.444,296.259C440.189,333.472 425.117,367.192 400.839,391.809L459.822,450.793C499.201,411.072 523.618,356.495 523.875,296.259ZM303.929,161.013L303.929,271.418C303.61,271.406 303.289,271.399 302.967,271.399C302.645,271.399 302.325,271.406 302.006,271.418L302.006,161.013C265.674,161.268 232.752,175.982 208.712,199.683L286.766,277.736C286.294,278.171 285.841,278.625 285.406,279.096L207.353,201.043C183.652,225.082 168.938,258.004 168.683,294.336L279.088,294.336C279.076,294.655 279.069,294.975 279.069,295.297C279.069,295.619 279.076,295.939 279.088,296.259L168.683,296.259C168.938,332.591 183.652,365.513 207.353,389.552L285.406,311.499C285.841,311.97 286.294,312.424 286.766,312.859L208.712,390.912C232.752,414.613 265.674,429.327 302.006,429.582L302.006,319.176C302.325,319.189 302.645,319.195 302.967,319.195C303.289,319.195 303.61,319.189 303.929,319.176L303.929,429.582C340.261,429.327 373.183,414.613 397.222,390.912L319.169,312.859C319.64,312.424 320.094,311.97 320.529,311.499L398.582,389.552C422.282,365.513 436.996,332.591 437.251,296.259L326.846,296.259C326.859,295.94 326.865,295.619 326.865,295.297C326.865,294.975 326.859,294.655 326.846,294.336L437.251,294.336C436.996,258.004 422.282,225.082 398.582,201.043L320.529,279.096C320.094,278.625 319.64,278.171 319.169,277.736L397.222,199.683C373.182,175.982 340.261,161.268 303.929,161.013ZM459.822,139.802L400.839,198.786C425.117,223.403 440.189,257.123 440.444,294.336L523.875,294.336C523.618,234.1 499.201,179.523 459.822,139.802ZM146.112,139.802C106.733,179.523 82.316,234.1 82.059,294.336L165.491,294.336C165.746,257.123 180.817,223.403 205.096,198.786L146.112,139.802ZM302.006,74.389C241.77,74.646 187.193,99.063 147.472,138.443L206.456,197.426C231.073,173.148 264.793,158.076 302.006,157.821L302.006,74.389ZM303.929,74.389L303.929,157.821C341.141,158.076 374.861,173.148 399.479,197.426L458.462,138.443C418.742,99.063 364.164,74.646 303.929,74.389Z" style="fill:white;"/>
        </g>
        <g id="Arrow" transform="matrix(0.97701,2.61657e-16,-2.61657e-16,0.97701,11.5901,9.12877)">
            <g transform="matrix(1.05498,0,-9.74555e-16,1.05498,-255.46,-1029.99)">
                <path d="M529.323,1226.9C545.95,1226.9 559.448,1240.4 559.448,1257.03C559.448,1273.65 545.95,1287.15 529.323,1287.15C512.697,1287.15 499.198,1273.65 499.198,1257.03C499.198,1240.4 512.697,1226.9 529.323,1226.9ZM529.323,1237.45C540.128,1237.45 548.9,1246.22 548.9,1257.03C548.9,1267.83 540.128,1276.6 529.323,1276.6C518.519,1276.6 509.747,1267.83 509.747,1257.03C509.747,1246.22 518.519,1237.45 529.323,1237.45Z" style="fill:white;"/>
            </g>
            <g transform="matrix(1.85476,0,-2.81831e-15,3.0509,-683.967,-3518.88)">
                <path d="M532.05,1158.88L544.313,1235.89L519.787,1235.89L532.05,1158.88Z" style="fill:white;"/>
            </g>
            <g transform="matrix(0.566743,0,-5.23536e-16,0.566743,3.31863,-416.542)">
                <circle cx="528.72" cy="1257.52" r="12.428" style="fill:white;"/>
            </g>
            <g transform="matrix(1.19132,0,-5.8959e-16,0.638248,-321.482,-555.145)">
                <rect x="518.276" y="1220.4" width="11.776" height="69.818" style="fill:white;"/>
            </g>
            <g transform="matrix(1.85476,0,-2.81831e-15,-3.0509,-683.967,4110.49)">
                <path d="M532.05,1158.88L544.313,1235.89L519.787,1235.89L532.05,1158.88Z" style="fill:white;fill-opacity:0;"/>
            </g>
            <g transform="matrix(1.85476,0,-1.84632e-15,-1.99869,-683.967,2810.07)">
                <path d="M532.05,1158.88L544.313,1235.89L519.787,1235.89L532.05,1158.88Z" style="fill:white;"/>
            </g>
            <g transform="matrix(1.19132,0,-5.8959e-16,-0.638248,-321.482,1146.76)">
                <rect x="518.276" y="1220.4" width="11.776" height="69.818" style="fill:white;"/>
            </g>
        </g>
    </g>
</svg>
