<?xml version="1.0" encoding="UTF-8" standalone="no"?>
<!DOCTYPE svg PUBLIC "-//W3C//DTD SVG 1.1//EN" "http://www.w3.org/Graphics/SVG/1.1/DTD/svg11.dtd">
<svg width="100%" height="100%" viewBox="0 0 583 590" version="1.1" xmlns="http://www.w3.org/2000/svg" xmlns:xlink="http://www.w3.org/1999/xlink" xml:space="preserve" style="fill-rule:evenodd;clip-rule:evenodd;stroke-linejoin:round;stroke-miterlimit:1.41421;">
    <g transform="matrix(1,0,0,1,-8,-2)">
        <g transform="matrix(1,0,0,1,-0.861292,-1.10687)">
            <g id="Text" transform="matrix(1,0,0,1,0.861292,1.10687)">
                <path d="M299.308,590.703C300.762,591.414 302.994,591.752 304.55,591.752C309.825,591.752 314.019,589.249 314.019,584.413C314.019,581.505 312.429,579.341 308.675,578.157C305.733,577.244 304.584,576.196 304.584,574.302C304.584,572.476 306.139,571.326 308.574,571.326C310.13,571.326 311.956,571.867 313.207,572.679L313.545,568.654C312.531,568.046 310.671,567.538 308.642,567.538C304.144,567.538 299.883,569.635 299.883,574.539C299.883,577.853 301.438,579.949 305.192,581.133C307.83,581.979 309.217,583.061 309.217,584.887C309.217,586.781 307.39,587.964 304.651,587.964C303.197,587.964 301.168,587.558 299.646,586.781L299.308,590.703ZM590.043,284.553L590.043,288.341L580.438,288.341L580.438,294.056L588.961,294.056L588.961,297.843L580.438,297.843L580.438,303.897L590.178,303.897L590.178,307.684L575.975,307.684L575.975,284.553L590.043,284.553ZM13.508,282.605L16.619,296.132C17.025,297.958 17.465,300.089 17.702,301.915C18.006,300.089 18.446,297.958 18.919,296.132L22.335,282.605L27.204,282.605L30.451,296.132C30.89,297.958 31.33,300.089 31.634,301.915C31.905,300.089 32.311,297.958 32.75,296.132L35.997,282.605L40.697,282.605L34.171,305.871L28.895,305.871L26.088,294.745C25.547,292.547 24.972,290.112 24.566,287.914C24.127,290.18 23.62,292.48 23.045,294.745L20.272,305.871L14.996,305.871L8.571,282.605L13.508,282.605ZM304.612,2.364L310.53,15.147C311.477,17.176 312.018,18.529 312.897,21.234C312.762,18.529 312.728,17.176 312.728,15.147L312.728,2.364L317.057,2.364L317.057,25.63L310.428,25.63L304.51,12.847C303.563,10.818 303.022,9.466 302.143,6.76C302.278,9.466 302.312,10.818 302.312,12.847L302.312,25.63L297.983,25.63L297.983,2.364L304.612,2.364Z" style="fill:white;"/>
            </g>
        </g>
    </g>
</svg>
