<?xml version="1.0" encoding="UTF-8" standalone="no"?>
<!DOCTYPE svg PUBLIC "-//W3C//DTD SVG 1.1//EN" "http://www.w3.org/Graphics/SVG/1.1/DTD/svg11.dtd">
<svg width="100%" height="100%" viewBox="0 0 569 552" version="1.1" xmlns="http://www.w3.org/2000/svg" xmlns:xlink="http://www.w3.org/1999/xlink" xml:space="preserve" style="fill-rule:evenodd;clip-rule:evenodd;stroke-linejoin:round;stroke-miterlimit:1.41421;">
    <g transform="matrix(1,0,0,1,-15,-24)">
        <g id="Aim-Border-Icon" transform="matrix(6.91344,0,0,6.91344,-2485.83,-6457.83)">
            <path d="M443.918,1017.38L426.247,1017.38L426.247,1012.8L439.283,1012.8L439.283,999.92L443.918,999.92L443.918,1017.38ZM366.512,1012.8L379.548,1012.8L379.548,1017.38L361.877,1017.38L361.877,1012.8L361.877,999.92L366.512,999.92L366.512,1012.8ZM405.598,1010.79L400.197,1010.79L400.197,1003.42C388.12,1002.18 378.511,992.681 377.251,980.747L369.793,980.747L369.793,975.41L377.251,975.41C378.511,963.476 388.12,953.98 400.197,952.736L400.197,945.366L405.598,945.366L405.598,952.736C417.675,953.98 427.285,963.476 428.544,975.41L436.002,975.41L436.002,980.747L428.544,980.747C427.285,992.681 417.675,1002.18 405.598,1003.42L405.598,1010.79ZM390.083,980.747L383.016,980.747C384.217,989.556 391.283,996.538 400.197,997.725L400.197,990.741C395.136,989.691 391.146,985.749 390.083,980.747ZM422.78,980.747L415.712,980.747C414.649,985.749 410.659,989.691 405.598,990.741L405.598,997.725C414.513,996.538 421.578,989.556 422.78,980.747ZM402.898,969.959C407.432,969.959 411.114,973.597 411.114,978.079C411.114,982.56 407.432,986.198 402.898,986.198C398.363,986.198 394.681,982.56 394.681,978.079C394.681,973.597 398.363,969.959 402.898,969.959ZM405.598,958.432L405.598,965.416C410.66,966.466 414.649,970.408 415.712,975.41L422.78,975.41C421.578,966.601 414.513,959.619 405.598,958.432ZM400.197,958.432C391.283,959.619 384.217,966.601 383.016,975.41L390.083,975.41C391.146,970.408 395.136,966.466 400.197,965.416L400.197,958.432ZM379.548,942.182L366.512,942.182L366.512,955.063L361.877,955.063L361.877,937.601L379.548,937.601L379.548,942.182ZM443.918,937.601L443.918,955.063L439.283,955.063L439.283,942.182L426.247,942.182L426.247,937.601L443.918,937.601Z" style="fill:white;"/>
        </g>
    </g>
</svg>
