<?xml version="1.0" encoding="UTF-8" standalone="no"?>
<!DOCTYPE svg PUBLIC "-//W3C//DTD SVG 1.1//EN" "http://www.w3.org/Graphics/SVG/1.1/DTD/svg11.dtd">
<svg width="100%" height="100%" viewBox="0 0 576 576" version="1.1" xmlns="http://www.w3.org/2000/svg" xmlns:xlink="http://www.w3.org/1999/xlink" xml:space="preserve" style="fill-rule:evenodd;clip-rule:evenodd;stroke-linejoin:round;stroke-miterlimit:1.41421;">
    <g transform="matrix(1,0,0,1,-10,-14)">
        <path id="Aim-Icon_2" d="M10.114,472.035L29.911,472.035L29.911,570.168L128.044,570.168L128.044,589.965L10.114,589.965L10.114,472.035ZM585.879,589.965L467.949,589.965L467.949,570.168L566.082,570.168L566.082,472.035L585.879,472.035L585.879,589.965ZM290.856,134.595L290.856,69.938L305.137,69.938L305.137,134.595C391.941,138.241 461.759,208.06 465.406,294.864L512.508,294.864L512.508,309.145L465.406,309.145C461.759,395.949 391.941,465.767 305.137,469.414L305.137,534.07L290.856,534.07L290.856,469.414C204.052,465.767 134.234,395.949 130.587,309.145L83.485,309.145L83.485,294.864L130.587,294.864C134.234,208.059 204.052,138.241 290.856,134.595ZM217.936,309.145L148.008,309.145C151.63,386.341 213.659,448.371 290.856,451.992L290.856,382.065C252.188,378.654 221.346,347.812 217.936,309.145ZM447.985,309.145L378.057,309.145C374.646,347.812 343.805,378.654 305.137,382.065L305.137,451.992C382.334,448.371 444.363,386.341 447.985,309.145ZM290.856,367.011L290.856,309.145L232.99,309.145C236.296,339.537 260.464,363.704 290.856,367.011ZM363.003,309.145L305.137,309.145L305.137,367.011C335.529,363.704 359.697,339.537 363.003,309.145ZM305.137,236.997L305.137,294.864L363.003,294.864C359.697,264.471 335.529,240.304 305.137,236.997ZM290.856,152.016C213.659,155.637 151.63,217.667 148.008,294.864L217.936,294.864C221.346,256.196 252.188,225.354 290.856,221.944L290.856,152.016ZM290.856,236.997C260.464,240.304 236.296,264.471 232.99,294.864L290.856,294.864L290.856,236.997ZM305.137,152.016L305.137,221.944C343.805,225.354 374.646,256.196 378.057,294.864L447.985,294.864C444.363,217.667 382.334,155.637 305.137,152.016ZM29.911,131.973L10.114,131.973L10.114,33.84L10.114,14.043L128.044,14.043L128.044,33.84L29.911,33.84L29.911,131.973ZM585.879,33.84L585.879,131.973L566.082,131.973L566.082,33.84L467.949,33.84L467.949,14.043L585.879,14.043L585.879,33.84Z" style="fill:white;"/>
    </g>
</svg>
