<?xml version="1.0" encoding="UTF-8" standalone="no"?>
<!DOCTYPE svg PUBLIC "-//W3C//DTD SVG 1.1//EN" "http://www.w3.org/Graphics/SVG/1.1/DTD/svg11.dtd">
<svg width="100%" height="100%" viewBox="0 0 535 536" version="1.1" xmlns="http://www.w3.org/2000/svg" xmlns:xlink="http://www.w3.org/1999/xlink" xml:space="preserve" style="fill-rule:evenodd;clip-rule:evenodd;stroke-linejoin:round;stroke-miterlimit:1.41421;">
    <g transform="matrix(1,0,0,1,-32,-32)">
        <g id="Aim-Icon" transform="matrix(8.29908,0,0,8.29908,-3896.32,-7827.84)">
            <path d="M505.586,947.176C523.353,947.176 537.777,961.601 537.777,979.367C537.777,997.133 523.353,1011.56 505.586,1011.56C487.82,1011.56 473.396,997.133 473.396,979.367C473.396,961.601 487.82,947.176 505.586,947.176ZM509.486,952.281L509.486,963.183L501.686,963.183L501.686,952.281C489.703,953.994 480.213,963.484 478.5,975.467L489.402,975.467L489.402,983.267L478.5,983.267C480.213,995.25 489.703,1004.74 501.686,1006.45L501.686,995.551L509.486,995.551L509.486,1006.45C521.469,1004.74 530.959,995.25 532.672,983.267L521.77,983.267L521.77,975.467L532.672,975.467C530.959,963.484 521.469,953.994 509.486,952.281ZM505.586,975.235C507.867,975.235 509.718,977.087 509.718,979.367C509.718,981.648 507.867,983.499 505.586,983.499C503.306,983.499 501.454,981.648 501.454,979.367C501.454,977.087 503.306,975.235 505.586,975.235Z" style="fill:white;"/>
        </g>
    </g>
</svg>
