<?xml version="1.0" encoding="UTF-8" standalone="no"?>
<!DOCTYPE svg PUBLIC "-//W3C//DTD SVG 1.1//EN" "http://www.w3.org/Graphics/SVG/1.1/DTD/svg11.dtd">
<svg width="100%" height="100%" viewBox="0 0 580 522" version="1.1" xmlns="http://www.w3.org/2000/svg" xmlns:xlink="http://www.w3.org/1999/xlink" xml:space="preserve" style="fill-rule:evenodd;clip-rule:evenodd;stroke-linejoin:round;stroke-miterlimit:1.41421;">
    <g transform="matrix(1,0,0,1,-9,-21)">
        <g id="Amulet-Icon" transform="matrix(3.62034,0,0,3.62034,-578.881,-542.966)">
            <path d="M257.855,215.228L282.95,229.716L282.95,276.541L242.398,299.954L201.846,276.541L201.846,229.716L226.941,215.228C228.177,217.511 230.593,219.063 233.37,219.063L251.426,219.063C254.203,219.063 256.619,217.511 257.855,215.228ZM242.398,223.769L267.825,238.449L267.825,267.809L242.398,282.489L216.971,267.809L216.971,238.449L242.398,223.769ZM242.398,239.478L254.22,246.303L254.22,259.954L242.398,266.779L230.576,259.954L230.576,246.303L242.398,239.478ZM245.744,188.523C247.591,188.523 249.091,190.022 249.091,191.869L249.091,208.886C249.091,210.733 247.591,212.232 245.744,212.232L239.052,212.232C237.205,212.232 235.705,210.733 235.705,208.886L235.705,191.869C235.705,190.022 237.205,188.523 239.052,188.523L245.744,188.523ZM226.065,205.63C200.102,201.346 177.507,187.022 162.407,166.784C165.169,162.977 168.196,159.374 171.46,156.003C184.045,174.26 203.493,187.428 226.065,191.769L226.065,205.63ZM258.731,191.769C281.303,187.428 300.751,174.26 313.336,156.003C316.6,159.374 319.627,162.977 322.389,166.784C307.289,187.022 284.694,201.346 258.731,205.63L258.731,191.769Z" style="fill:white;"/>
        </g>
    </g>
</svg>
