<?xml version="1.0" encoding="UTF-8" standalone="no"?>
<!DOCTYPE svg PUBLIC "-//W3C//DTD SVG 1.1//EN" "http://www.w3.org/Graphics/SVG/1.1/DTD/svg11.dtd">
<svg width="100%" height="100%" viewBox="0 0 527 480" version="1.1" xmlns="http://www.w3.org/2000/svg" xmlns:xlink="http://www.w3.org/1999/xlink" xml:space="preserve" style="fill-rule:evenodd;clip-rule:evenodd;stroke-linejoin:round;stroke-miterlimit:1.41421;">
    <g transform="matrix(1,0,0,1,-36,-60)">
        <g id="Analytics-Icon" transform="matrix(9.77305,0,0,9.77305,-14919.5,-13168.8)">
            <path d="M1581.31,1402.68L1533.19,1402.68C1531.61,1402.68 1530.33,1401.4 1530.33,1399.82C1530.33,1399.8 1530.33,1399.78 1530.33,1399.76C1530.33,1399.74 1530.33,1399.73 1530.33,1399.7L1530.33,1356.59C1530.33,1355.01 1531.61,1353.73 1533.19,1353.73C1534.76,1353.73 1536.04,1355.01 1536.04,1356.59L1536.04,1396.97L1581.31,1396.97C1582.88,1396.97 1584.16,1398.25 1584.16,1399.82C1584.16,1401.4 1582.88,1402.68 1581.31,1402.68ZM1581.19,1389.84L1541.47,1389.84L1551.18,1380.36L1559.72,1384.22L1571.09,1373.11L1581.19,1378.63L1581.19,1389.84ZM1581.19,1359.16L1581.19,1372.87L1569.84,1367.2L1558.21,1378.56L1548.86,1374.5L1541.19,1382L1541.19,1370.64L1551.18,1360.88L1559.72,1364.75L1571.09,1353.63L1581.19,1359.16Z" style="fill:white;"/>
        </g>
    </g>
</svg>
