<?xml version="1.0" encoding="UTF-8" standalone="no"?>
<!DOCTYPE svg PUBLIC "-//W3C//DTD SVG 1.1//EN" "http://www.w3.org/Graphics/SVG/1.1/DTD/svg11.dtd">
<svg width="100%" height="100%" viewBox="0 0 558 468" version="1.1" xmlns="http://www.w3.org/2000/svg" xmlns:xlink="http://www.w3.org/1999/xlink" xml:space="preserve" style="fill-rule:evenodd;clip-rule:evenodd;stroke-linejoin:round;stroke-miterlimit:1.41421;">
    <g transform="matrix(1,0,0,1,-20,-13)">
        <g id="Angel-Icon" transform="matrix(1,0,0,1,7.65625,-2.85938)">
            <path d="M399.32,322.316C439.681,348.717 463.115,385.954 466.178,420.435C470.033,463.841 423.539,480.92 303.2,483.74C299.234,483.833 295.302,483.865 291.408,483.836C287.513,483.865 283.582,483.833 279.616,483.74C159.277,480.92 112.783,463.841 116.638,420.435C119.701,385.955 143.134,348.719 183.494,322.317C212.247,353.161 252.544,370.032 291.405,370.032C330.266,370.032 370.565,353.161 399.32,322.316ZM36.737,244.598C23.358,235.865 14.51,220.762 14.51,203.608C14.51,176.611 36.503,156.71 63.425,154.692C127.203,149.913 141.711,258.346 159.032,293.692C118.077,322.037 90.325,360.051 77.77,397.304C68.92,395.618 59.497,395.602 50.551,394.009L50.545,394.051C30.101,391.318 13.242,374.143 13.242,352.957C13.242,337.027 22.169,323.165 35.289,316.107C22.681,309.5 14.071,296.285 14.071,281.076C14.071,266.586 21.886,253.906 33.528,247.026C34.545,246.202 35.614,245.392 36.737,244.598ZM546.079,244.598C559.457,235.865 568.306,220.762 568.306,203.608C568.306,176.611 546.312,156.71 519.391,154.692C455.613,149.913 441.104,258.346 423.784,293.692C464.739,322.037 492.49,360.051 505.045,397.304C513.896,395.618 523.319,395.602 532.265,394.009L532.271,394.051C552.715,391.318 569.574,374.143 569.574,352.957C569.574,337.027 560.647,323.165 547.527,316.107C560.134,309.5 568.744,296.285 568.744,281.076C568.744,266.586 560.929,253.906 549.288,247.026C548.271,246.202 547.202,245.392 546.079,244.598ZM405.349,140.421C412,156.482 415.905,183.48 415.905,202.252C415.905,283.386 351.6,331.586 291.406,331.586C231.211,331.586 166.911,283.386 166.911,202.252C166.911,183.93 170.358,158.665 177.187,141.59C203.195,158.343 334.634,175.084 405.349,140.421ZM291.408,16.155C376.041,16.155 444.752,42.386 444.752,74.694C444.752,107.002 376.041,133.232 291.408,133.232C206.775,133.232 138.064,107.002 138.064,74.694C138.064,42.386 206.775,16.155 291.408,16.155ZM291.408,34.932C346.392,34.932 391.032,48.481 391.032,65.171C391.032,81.86 346.392,95.409 291.408,95.409C236.424,95.409 191.784,81.86 191.784,65.171C191.784,48.481 236.424,34.932 291.408,34.932ZM238.964,70.759C253.38,64.954 270.721,61.803 291.406,61.77C311.745,61.738 328.851,64.751 343.122,70.357C330.722,74.14 311.688,76.563 290.362,76.563C269.803,76.563 251.373,74.311 238.964,70.759Z" style="fill:white;"/>
        </g>
    </g>
</svg>
