<?xml version="1.0" encoding="UTF-8" standalone="no"?>
<!DOCTYPE svg PUBLIC "-//W3C//DTD SVG 1.1//EN" "http://www.w3.org/Graphics/SVG/1.1/DTD/svg11.dtd">
<svg width="100%" height="100%" viewBox="0 0 493 544" version="1.1" xmlns="http://www.w3.org/2000/svg" xmlns:xlink="http://www.w3.org/1999/xlink" xml:space="preserve" style="fill-rule:evenodd;clip-rule:evenodd;stroke-linejoin:round;stroke-miterlimit:1.41421;">
    <g transform="matrix(1,0,0,1,-53,-28)">
        <g id="Apple-Icon" transform="matrix(8.81592,0,0,8.81592,-2287.91,-10962.6)">
            <path d="M293.153,1267.21C308.848,1255.89 321.361,1265.32 321.361,1280.6C321.361,1295.87 308.878,1308.27 293.502,1308.27C278.126,1308.27 265.642,1295.87 265.642,1280.6C265.642,1265.32 278.672,1254.38 293.153,1267.21ZM305.395,1271.67C308.583,1271.67 311.172,1274.23 311.172,1277.38C311.172,1280.53 308.583,1283.09 305.395,1283.09C302.206,1283.09 299.617,1280.53 299.617,1277.38C299.617,1274.23 302.206,1271.67 305.395,1271.67ZM296.949,1251.07C299.657,1247.46 304.93,1246.78 304.93,1246.78C304.93,1246.78 305.805,1251.97 303.096,1255.57C300.387,1259.18 295.114,1259.86 295.114,1259.86C295.114,1259.86 294.24,1254.67 296.949,1251.07Z" style="fill:white;"/>
        </g>
    </g>
</svg>
