<?xml version="1.0" encoding="UTF-8" standalone="no"?>
<!DOCTYPE svg PUBLIC "-//W3C//DTD SVG 1.1//EN" "http://www.w3.org/Graphics/SVG/1.1/DTD/svg11.dtd">
<svg width="100%" height="100%" viewBox="0 0 529 545" version="1.1" xmlns="http://www.w3.org/2000/svg" xmlns:xlink="http://www.w3.org/1999/xlink" xml:space="preserve" style="fill-rule:evenodd;clip-rule:evenodd;stroke-linejoin:round;stroke-miterlimit:1.41421;">
    <g transform="matrix(1,0,0,1,-37,-46)">
        <g id="Arm-Muscles-Icon" transform="matrix(4.45406,0,0,4.45406,-4064.66,-4058.09)">
            <path d="M939.132,1043.48C937.759,1043.65 936.362,1043.75 934.945,1043.75C933.529,1043.75 932.131,1043.65 930.759,1043.48L939.132,1043.48ZM920.902,972.271C925.195,970.213 929.947,969.07 934.945,969.07C945.537,969.07 955.025,974.205 961.381,982.29C965.981,976.268 974.034,972.273 983.192,972.273C988.611,972.273 996.565,974.328 1000.72,976.718C996.419,968.632 996.643,951.608 997.388,941.998L989.991,941.504C989.991,941.504 989.608,946.719 987.241,947.815C984.317,949.169 967.487,947.653 966.102,943.782C964.616,939.628 965.86,930.655 970.813,927.922C973.649,926.357 982.556,920.804 989.633,921.575C993.417,921.987 1000.29,924.805 1008.72,934.273C1018.32,945.067 1037.09,966.127 1039.55,994.393C1039.96,999.135 1026.54,1009.42 1019.61,1009.7C1014.95,1020.94 999.659,1029.2 981.542,1029.2C970.22,1029.2 960.003,1025.97 952.794,1020.81C949.074,1031.87 936.749,1040 922.136,1040C921.722,1040 921.311,1040 920.902,1039.98L920.902,972.271Z" style="fill:white;"/>
        </g>
    </g>
</svg>
