<?xml version="1.0" encoding="UTF-8" standalone="no"?>
<!DOCTYPE svg PUBLIC "-//W3C//DTD SVG 1.1//EN" "http://www.w3.org/Graphics/SVG/1.1/DTD/svg11.dtd">
<svg width="100%" height="100%" viewBox="0 0 306 528" version="1.1" xmlns="http://www.w3.org/2000/svg" xmlns:xlink="http://www.w3.org/1999/xlink" xml:space="preserve" style="fill-rule:evenodd;clip-rule:evenodd;stroke-linejoin:round;stroke-miterlimit:1.41421;">
    <g transform="matrix(1,0,0,1,-147,-36)">
        <g id="Arrow-Right-Icon" transform="matrix(25.4068,0,0,25.1061,-7423.65,-79248.5)">
            <path d="M298.443,3160.59L306.364,3168.49L298.443,3176.4C297.849,3176.99 297.849,3177.95 298.443,3178.54C299.037,3179.14 299.999,3179.14 300.593,3178.54L309.557,3169.6C309.862,3169.29 310.008,3168.89 310,3168.49C310.008,3168.09 309.862,3167.69 309.557,3167.39L300.593,3158.44C299.999,3157.85 299.037,3157.85 298.443,3158.44C297.849,3159.03 297.849,3160 298.443,3160.59Z" style="fill:white;"/>
        </g>
    </g>
</svg>
