<?xml version="1.0" encoding="UTF-8" standalone="no"?>
<!DOCTYPE svg PUBLIC "-//W3C//DTD SVG 1.1//EN" "http://www.w3.org/Graphics/SVG/1.1/DTD/svg11.dtd">
<svg width="100%" height="100%" viewBox="0 0 555 526" version="1.1" xmlns="http://www.w3.org/2000/svg" xmlns:xlink="http://www.w3.org/1999/xlink" xml:space="preserve" style="fill-rule:evenodd;clip-rule:evenodd;stroke-linejoin:round;stroke-miterlimit:1.41421;">
    <g transform="matrix(1,0,0,1,-22,-37)">
        <g id="Axe-Icon" transform="matrix(9.2653,-5.14328e-16,0,9.2653,-1470.89,-5077.42)">
            <path d="M186.94,574.942L168.332,606.789C167.271,608.606 164.924,609.235 163.096,608.192C161.268,607.149 160.646,604.827 161.708,603.01L190.357,553.976C191.419,552.158 193.765,551.53 195.593,552.573C197.421,553.616 198.043,555.938 196.981,557.755L196.347,558.841C198.969,561.409 207.151,567.974 220.617,565.908C223.268,577.757 210.88,592.264 202.792,593.966C201.575,584.212 190.541,577.04 186.94,574.942Z" style="fill:white;"/>
        </g>
    </g>
</svg>
