<?xml version="1.0" encoding="UTF-8" standalone="no"?>
<!DOCTYPE svg PUBLIC "-//W3C//DTD SVG 1.1//EN" "http://www.w3.org/Graphics/SVG/1.1/DTD/svg11.dtd">
<svg width="100%" height="100%" viewBox="0 0 551 552" version="1.1" xmlns="http://www.w3.org/2000/svg" xmlns:xlink="http://www.w3.org/1999/xlink" xml:space="preserve" style="fill-rule:evenodd;clip-rule:evenodd;stroke-linejoin:round;stroke-miterlimit:1.41421;">
    <g transform="matrix(1,0,0,1,-24,-24)">
        <g id="Bag-Icon" transform="matrix(9.33776,0,0,9.33776,-505.988,-2367)">
            <path d="M114.108,315.122L58.432,315.122C57.559,315.122 56.849,314.421 56.849,313.558L56.849,295.153L56.85,295.136L68.36,295.136L68.36,297.268C68.36,299.633 70.304,301.554 72.697,301.554C75.091,301.554 77.034,299.633 77.034,297.268L77.034,295.136L95.506,295.136L95.506,297.268C95.506,299.633 97.449,301.554 99.843,301.554C102.236,301.554 104.18,299.633 104.18,297.268L104.18,295.136L115.69,295.136L115.691,295.153L115.691,313.558C115.691,314.421 114.982,315.122 114.108,315.122ZM69.967,273.836L69.967,272.22C69.967,263.322 77.266,256.108 86.27,256.108C95.274,256.108 102.573,263.322 102.573,272.22L102.573,273.836L104.28,273.836C110.578,273.837 115.691,278.889 115.691,285.112L115.691,291.653L104.18,291.653L104.18,289.295C104.18,286.93 102.236,285.009 99.843,285.009C97.449,285.009 95.506,286.93 95.506,289.295L95.506,291.653L77.034,291.653L77.034,289.295C77.034,286.93 75.091,285.009 72.697,285.009C70.304,285.009 68.36,286.93 68.36,289.295L68.36,291.653L56.849,291.653L56.849,285.112C56.849,278.889 61.962,273.837 68.26,273.836L69.967,273.836ZM97.139,273.836L97.139,272.22C97.139,266.288 92.273,261.479 86.27,261.479C80.267,261.479 75.401,266.288 75.401,272.22L75.401,273.836L97.139,273.836Z" style="fill:white;"/>
        </g>
    </g>
</svg>
