<?xml version="1.0" encoding="UTF-8" standalone="no"?>
<!DOCTYPE svg PUBLIC "-//W3C//DTD SVG 1.1//EN" "http://www.w3.org/Graphics/SVG/1.1/DTD/svg11.dtd">
<svg width="100%" height="100%" viewBox="0 0 467 538" version="1.1" xmlns="http://www.w3.org/2000/svg" xmlns:xlink="http://www.w3.org/1999/xlink" xml:space="preserve" style="fill-rule:evenodd;clip-rule:evenodd;stroke-linejoin:round;stroke-miterlimit:1.41421;">
    <g transform="matrix(1,0,0,1,-66,-31)">
        <g id="Beach-Icon" transform="matrix(8.3097,0,0,8.3097,-389.679,-10315.8)">
            <path d="M55.084,1301.49C57.027,1302.55 59.536,1303.66 61.861,1303.91C66.562,1304.42 67.954,1299.93 72.118,1299.69C74.197,1299.56 78.557,1303.9 82.921,1303.9C87.302,1303.9 91.688,1299.56 93.774,1299.69C97.939,1299.93 99.331,1304.42 104.032,1303.91C106.357,1303.66 108.866,1302.55 110.809,1301.49C110.908,1302.2 110.959,1302.92 110.959,1303.65C110.959,1304.62 110.869,1305.58 110.695,1306.52C109.217,1307.95 106.487,1310.1 103.683,1309.77C99.53,1309.27 98.074,1305.27 93.646,1305.27C91.424,1305.27 87.156,1309.8 82.897,1309.8C78.67,1309.8 74.452,1305.27 72.246,1305.27C67.819,1305.27 66.362,1309.27 62.209,1309.77C59.406,1310.1 56.676,1307.95 55.197,1306.52C55.024,1305.58 54.934,1304.62 54.934,1303.65C54.934,1302.92 54.985,1302.2 55.084,1301.49ZM80.015,1262.38C74.705,1260.56 62.915,1265.58 58.817,1270.67C57.426,1265.09 64.87,1254.11 75.18,1255.16C71.324,1251.42 65.619,1248.1 61.46,1247.49C65.563,1243.59 78.421,1244.35 82.946,1253.13C87.472,1244.35 100.33,1243.59 104.433,1247.49C100.274,1248.1 94.568,1251.42 90.713,1255.16C101.023,1254.11 108.467,1265.09 107.076,1270.67C102.978,1265.58 91.188,1260.56 85.878,1262.38L85.878,1282.93C96.73,1283.77 105.748,1289.23 109.316,1296.61C107.799,1297.79 105.761,1298.91 103.683,1298.66C99.53,1298.16 98.074,1294.16 93.646,1294.16C91.424,1294.16 87.156,1298.69 82.897,1298.69C78.67,1298.69 74.452,1294.16 72.246,1294.16C67.819,1294.16 66.362,1298.16 62.209,1298.66C60.132,1298.91 58.094,1297.79 56.576,1296.61C60.145,1289.23 69.163,1283.77 80.015,1282.93L80.015,1262.38Z" style="fill:white;"/>
        </g>
    </g>
</svg>
