<?xml version="1.0" encoding="UTF-8" standalone="no"?>
<!DOCTYPE svg PUBLIC "-//W3C//DTD SVG 1.1//EN" "http://www.w3.org/Graphics/SVG/1.1/DTD/svg11.dtd">
<svg width="100%" height="100%" viewBox="0 0 238 583" version="1.1" xmlns="http://www.w3.org/2000/svg" xmlns:xlink="http://www.w3.org/1999/xlink" xml:space="preserve" style="fill-rule:evenodd;clip-rule:evenodd;stroke-linejoin:round;stroke-miterlimit:1.41421;">
    <g transform="matrix(1,0,0,1,-181,-11)">
        <g id="Body-Man-Icon" transform="matrix(0.906839,0,0,0.906839,31.9818,-6.61197)">
            <path d="M205.641,210.343L205.641,369.151C205.641,380.342 196.554,389.429 185.361,389.429C174.168,389.429 165.081,380.342 165.081,369.151L165.081,206.569C165.081,204.707 165.333,202.903 165.804,201.189C170.907,164.524 202.422,136.261 240.486,136.261L350.533,136.261C388.598,136.261 420.112,164.524 425.215,201.189C425.686,202.903 425.938,204.707 425.938,206.569L425.938,369.151C425.938,380.342 416.851,389.429 405.658,389.429C394.465,389.429 385.378,380.342 385.378,369.151L385.378,210.343L361.727,210.343L361.722,634.381C361.722,649.382 349.542,661.561 334.54,661.561C319.538,661.561 307.358,649.382 307.358,634.381L307.358,384.533C307.358,384.533 298.194,384.513 289.867,384.473C286.804,384.513 283.661,384.533 283.661,384.533L283.661,634.381C283.661,649.382 271.481,661.561 256.479,661.561C241.477,661.561 229.297,649.382 229.297,634.381L229.292,210.343L205.641,210.343ZM295.51,19.828C325.116,19.828 349.153,43.864 349.153,73.471C349.153,103.077 325.116,127.114 295.51,127.114C265.903,127.114 241.866,103.077 241.866,73.471C241.866,43.864 265.903,19.828 295.51,19.828Z" style="fill:white;"/>
        </g>
    </g>
</svg>
