<?xml version="1.0" encoding="UTF-8" standalone="no"?>
<!DOCTYPE svg PUBLIC "-//W3C//DTD SVG 1.1//EN" "http://www.w3.org/Graphics/SVG/1.1/DTD/svg11.dtd">
<svg width="100%" height="100%" viewBox="0 0 282 583" version="1.1" xmlns="http://www.w3.org/2000/svg" xmlns:xlink="http://www.w3.org/1999/xlink" xml:space="preserve" style="fill-rule:evenodd;clip-rule:evenodd;stroke-linejoin:round;stroke-miterlimit:1.41421;">
    <g transform="matrix(1,0,0,1,-159,-11)">
        <g id="Body-Woman-Icon" transform="matrix(0.906839,0,0,0.906839,-244.902,-6.61197)">
            <path d="M529.203,206.527C529.067,207.233 528.893,207.936 528.68,208.637L486.793,346.486C483.471,357.418 471.914,363.593 461,360.265C450.086,356.937 443.923,345.36 447.245,334.427L489.132,196.578C489.198,196.36 489.267,196.144 489.34,195.93L494.982,177.363C503.533,149.221 526.31,137.158 559.234,136.261L642.442,136.261C675.366,137.159 698.142,149.221 706.693,177.363L712.335,195.93C712.408,196.144 712.478,196.36 712.544,196.578L754.431,334.427C757.753,345.36 751.589,356.937 740.676,360.265C729.762,363.593 718.204,357.418 714.883,346.486L672.996,208.637C672.783,207.936 672.609,207.232 672.472,206.527L654.013,206.527L724.364,446.436L658.137,446.436L658.137,639.03C658.137,651.465 648.059,661.561 635.645,661.561C623.231,661.561 613.153,651.465 613.153,639.03L613.153,446.436L588.523,446.436L588.523,639.03C588.523,651.465 578.444,661.561 566.031,661.561C553.617,661.561 543.538,651.465 543.538,639.03L543.538,446.436L477.312,446.436L547.662,206.527L529.203,206.527ZM600.838,19.828C630.444,19.828 654.481,43.864 654.481,73.471C654.481,103.077 630.444,127.114 600.838,127.114C571.231,127.114 547.195,103.077 547.195,73.471C547.195,43.864 571.231,19.828 600.838,19.828Z" style="fill:white;"/>
        </g>
    </g>
</svg>
