<?xml version="1.0" encoding="UTF-8" standalone="no"?>
<!DOCTYPE svg PUBLIC "-//W3C//DTD SVG 1.1//EN" "http://www.w3.org/Graphics/SVG/1.1/DTD/svg11.dtd">
<svg width="100%" height="100%" viewBox="0 0 517 572" version="1.1" xmlns="http://www.w3.org/2000/svg" xmlns:xlink="http://www.w3.org/1999/xlink" xml:space="preserve" style="fill-rule:evenodd;clip-rule:evenodd;stroke-linejoin:round;stroke-miterlimit:1.41421;">
    <g transform="matrix(1,0,0,1,-41,-14)">
        <g id="Book-Icon" transform="matrix(10.1765,0,0,10.1765,-17686.3,-3628.35)">
            <path d="M1748.44,414.053L1744.59,414.053C1743.2,414.053 1742.06,413.046 1742.06,411.805L1742.06,360.237C1742.06,358.996 1743.2,357.988 1744.59,357.988L1748.44,357.988L1748.44,414.053ZM1783.59,357.988L1790.18,357.988C1791.58,357.988 1792.72,358.996 1792.72,360.237L1792.72,411.805C1792.72,413.046 1791.58,414.053 1790.18,414.053L1750.87,414.053L1750.87,357.988L1771.46,357.988L1771.46,383.565L1777.53,376.518L1783.59,383.565L1783.59,357.988Z" style="fill:white;"/>
        </g>
    </g>
</svg>
