<?xml version="1.0" encoding="UTF-8" standalone="no"?>
<!DOCTYPE svg PUBLIC "-//W3C//DTD SVG 1.1//EN" "http://www.w3.org/Graphics/SVG/1.1/DTD/svg11.dtd">
<svg width="100%" height="100%" viewBox="0 0 541 336" version="1.1" xmlns="http://www.w3.org/2000/svg" xmlns:xlink="http://www.w3.org/1999/xlink" xml:space="preserve" style="fill-rule:evenodd;clip-rule:evenodd;stroke-linejoin:round;stroke-miterlimit:1.41421;">
    <g transform="matrix(1,0,0,1,-29,-132)">
        <g id="Book-Opened-Icon" transform="matrix(7.63885,0,0,7.63885,-16415.2,-10201.8)">
            <path d="M2188.07,1396.7L2152.81,1396.7L2152.81,1359.34L2156.08,1359.34L2156.08,1389.4C2156.08,1390.19 2156.75,1390.82 2157.57,1390.82C2157.58,1390.82 2161.97,1390.41 2164.27,1390.41C2173.12,1390.41 2180.66,1392.11 2185.92,1395.29C2186.95,1395.92 2187.74,1396.45 2188.07,1396.7ZM2223.43,1396.7L2188.45,1396.7C2188.87,1396.42 2189.77,1395.82 2190.5,1395.42C2196.08,1392.32 2203.33,1390.41 2212.16,1390.41C2214.47,1390.41 2216.53,1390.5 2218.67,1390.8C2218.67,1390.8 2218.77,1390.82 2218.87,1390.82C2219.69,1390.87 2220.35,1390.19 2220.35,1389.4L2220.35,1359.34L2223.43,1359.34L2223.43,1396.7ZM2188.26,1394.74C2188.18,1394.64 2187.32,1394.04 2186.07,1393.29C2181.11,1390.31 2174,1387.84 2165.66,1387.84C2163.48,1387.84 2159.35,1388.23 2159.34,1388.23C2158.57,1388.23 2157.94,1387.63 2157.94,1386.89L2157.94,1354.61C2157.94,1353.87 2158.58,1353.32 2159.36,1353.26C2159.78,1353.23 2163.6,1352.89 2165.74,1352.89C2174.86,1352.89 2182.98,1355.37 2188.23,1359.23C2193.48,1355.37 2201.61,1352.89 2210.72,1352.89C2212.87,1352.89 2215.05,1352.96 2217.05,1353.27C2217.5,1353.34 2218.5,1353.5 2218.53,1354.8L2218.53,1386.89C2218.53,1387.63 2217.91,1388.27 2217.13,1388.23C2217.04,1388.22 2216.95,1388.21 2216.95,1388.21C2214.93,1387.93 2212.98,1387.84 2210.81,1387.84C2202.48,1387.84 2195.64,1390.5 2190.39,1393.4C2189.52,1393.88 2188.39,1394.65 2188.26,1394.74C2188.27,1394.75 2188.27,1394.75 2188.25,1394.74L2188.26,1394.74ZM2186.12,1361C2181.43,1357.64 2174.05,1355.47 2165.74,1355.47C2164.03,1355.47 2162.36,1355.56 2160.75,1355.73L2160.75,1385.5C2162.34,1385.34 2163.74,1385.26 2165.41,1385.26C2173.42,1385.26 2180.91,1387.17 2186.11,1390.25L2186.11,1361.05L2186.08,1361.05C2186.09,1361.03 2186.11,1361.02 2186.12,1361ZM2190.39,1361.05L2190.39,1390.23C2195.59,1387.16 2202.82,1385.26 2210.81,1385.26C2212.48,1385.26 2214.12,1385.34 2215.72,1385.5L2215.72,1355.73C2214.1,1355.56 2212.43,1355.47 2210.72,1355.47C2202.42,1355.47 2195.03,1357.64 2190.35,1361L2190.38,1361.04L2190.39,1361.04L2190.39,1361.05L2190.39,1361.05L2190.39,1361.05Z" style="fill:white;"/>
        </g>
    </g>
</svg>
