<?xml version="1.0" encoding="UTF-8" standalone="no"?>
<!DOCTYPE svg PUBLIC "-//W3C//DTD SVG 1.1//EN" "http://www.w3.org/Graphics/SVG/1.1/DTD/svg11.dtd">
<svg width="100%" height="100%" viewBox="0 0 501 502" version="1.1" xmlns="http://www.w3.org/2000/svg" xmlns:xlink="http://www.w3.org/1999/xlink" xml:space="preserve" style="fill-rule:evenodd;clip-rule:evenodd;stroke-linejoin:round;stroke-miterlimit:1.41421;">
    <g transform="matrix(1,0,0,1,-2,-5)">
        <g id="Border-Selection-Icon" transform="matrix(6.10025,0,0,6.10025,-11302.5,-6242.57)">
            <path d="M1855.56,1103.94L1870.87,1103.94L1870.87,1106.28L1853.2,1106.28L1853.2,1088.84L1855.56,1088.84L1855.56,1103.94ZM1935.24,1106.28L1917.57,1106.28L1917.57,1103.94L1932.88,1103.94L1932.88,1088.84L1935.24,1088.84L1935.24,1106.28ZM1870.87,1026.61L1855.56,1026.61L1855.56,1041.72L1853.2,1041.72L1853.2,1024.28L1870.87,1024.28L1870.87,1026.61ZM1935.24,1041.72L1932.88,1041.72L1932.88,1026.61L1917.57,1026.61L1917.57,1024.28L1935.24,1024.28L1935.24,1041.72Z" style="fill:white;"/>
        </g>
    </g>
</svg>
