<?xml version="1.0" encoding="UTF-8" standalone="no"?>
<!DOCTYPE svg PUBLIC "-//W3C//DTD SVG 1.1//EN" "http://www.w3.org/Graphics/SVG/1.1/DTD/svg11.dtd">
<svg width="100%" height="100%" viewBox="0 0 475 466" version="1.1" xmlns="http://www.w3.org/2000/svg" xmlns:xlink="http://www.w3.org/1999/xlink" xml:space="preserve" style="fill-rule:evenodd;clip-rule:evenodd;stroke-linejoin:round;stroke-miterlimit:1.41421;">
    <g transform="matrix(1,0,0,1,-62,-67)">
        <g id="Box-Outline-Icon" transform="matrix(7.60872,0,0,7.60872,-4321.26,-5659.51)">
            <path d="M576.436,764.676C576.646,764.288 576.992,763.972 577.437,763.806L606.8,752.849C607.145,752.72 607.505,752.699 607.841,752.768C607.978,752.786 608.115,752.819 608.25,752.868L637.196,763.454C637.931,763.722 638.4,764.4 638.439,765.135C638.441,765.174 638.442,765.213 638.442,765.252L638.442,800.899C638.442,801.193 638.376,801.47 638.256,801.718C638.061,802.185 637.681,802.573 637.17,802.764L608.205,813.573C608.082,813.619 607.957,813.651 607.832,813.67C607.441,813.799 607.006,813.802 606.59,813.65L577.443,802.991C576.741,802.734 576.282,802.105 576.208,801.408C576.186,801.293 576.175,801.174 576.175,801.052L576.175,765.683C576.175,765.498 576.201,765.32 576.251,765.151C576.267,765.081 576.288,765.012 576.313,764.944C576.348,764.85 576.389,764.76 576.436,764.676ZM579.967,799.876L605.483,809.207L605.483,777.63L579.967,768.299L579.967,799.876ZM609.275,777.578L609.275,809.126L634.65,799.657L634.65,768.108L609.275,777.578ZM583.552,765.572L607.314,774.262L631.267,765.323L607.505,756.634L583.552,765.572Z" style="fill:white;"/>
        </g>
    </g>
</svg>
