<?xml version="1.0" encoding="UTF-8" standalone="no"?>
<!DOCTYPE svg PUBLIC "-//W3C//DTD SVG 1.1//EN" "http://www.w3.org/Graphics/SVG/1.1/DTD/svg11.dtd">
<svg width="100%" height="100%" viewBox="0 0 544 466" version="1.1" xmlns="http://www.w3.org/2000/svg" xmlns:xlink="http://www.w3.org/1999/xlink" xml:space="preserve" style="fill-rule:evenodd;clip-rule:evenodd;stroke-linejoin:round;stroke-miterlimit:1.41421;">
    <g transform="matrix(1,0,0,1,-28,-67)">
        <g id="Bubbles-x2-Icon" transform="matrix(8.78043,0,0,8.78043,-17987.1,-10923.3)">
            <path d="M2104.12,1266.9C2109.88,1270.1 2113.66,1275.52 2113.66,1281.68C2113.66,1287.61 2110.14,1292.84 2104.74,1296.08C2104.76,1296.06 2108.9,1304.7 2108.9,1304.7C2108.9,1304.7 2096.35,1299.12 2096.34,1299.12C2094.97,1299.35 2093.56,1299.47 2092.11,1299.47C2086.76,1299.47 2081.87,1297.86 2078.1,1295.2C2093.07,1293.87 2104.71,1283.81 2104.71,1271.6C2104.71,1269.99 2104.51,1268.42 2104.12,1266.9ZM2075.99,1291.75C2074.37,1291.75 2072.78,1291.61 2071.24,1291.36C2071.23,1291.36 2057.12,1297.63 2057.12,1297.63C2057.12,1297.63 2061.77,1287.91 2061.8,1287.93C2055.73,1284.29 2051.76,1278.41 2051.76,1271.74C2051.76,1260.69 2062.61,1251.74 2075.99,1251.74C2089.38,1251.74 2100.22,1260.69 2100.22,1271.74C2100.22,1282.79 2089.38,1291.75 2075.99,1291.75Z" style="fill:white;"/>
        </g>
    </g>
</svg>
