<?xml version="1.0" encoding="UTF-8" standalone="no"?>
<!DOCTYPE svg PUBLIC "-//W3C//DTD SVG 1.1//EN" "http://www.w3.org/Graphics/SVG/1.1/DTD/svg11.dtd">
<svg width="100%" height="100%" viewBox="0 0 434 558" version="1.1" xmlns="http://www.w3.org/2000/svg" xmlns:xlink="http://www.w3.org/1999/xlink" xml:space="preserve" style="fill-rule:evenodd;clip-rule:evenodd;stroke-linejoin:round;stroke-miterlimit:1.41421;">
    <g transform="matrix(1,0,0,1,-83,-18)">
        <g id="Creature-Icon" transform="matrix(1.76847,0,0,1.76847,-212.592,-221.011)">
            <path d="M202.512,220.778C204.911,198.367 212.197,137.081 220.286,135.293C225.315,134.181 237.857,159.1 248.377,182.377C260.569,177.288 274.437,174.444 290.172,174.444C306.105,174.444 320.106,177.444 332.38,182.797C342.864,159.631 355.295,134.992 360.297,136.098C368.549,137.922 375.965,201.673 378.21,222.893C404.028,262.004 412.514,317.563 412.514,361.527C412.514,437.677 353.17,450.23 290.336,450.23C227.501,450.23 167.188,434.552 167.188,358.402C167.188,314.087 176.027,259.05 202.512,220.778ZM338.633,251.077C348.362,251.077 356.261,258.975 356.261,268.704C356.261,278.433 348.362,286.332 338.633,286.332C328.904,286.332 321.006,278.433 321.006,268.704C321.006,258.975 328.904,251.077 338.633,251.077ZM241.069,251.077C250.798,251.077 258.697,258.975 258.697,268.704C258.697,278.433 250.798,286.332 241.069,286.332C231.34,286.332 223.442,278.433 223.442,268.704C223.442,258.975 231.34,251.077 241.069,251.077Z" style="fill:white;"/>
        </g>
    </g>
</svg>
