<?xml version="1.0" encoding="UTF-8" standalone="no"?>
<!DOCTYPE svg PUBLIC "-//W3C//DTD SVG 1.1//EN" "http://www.w3.org/Graphics/SVG/1.1/DTD/svg11.dtd">
<svg width="100%" height="100%" viewBox="0 0 535 536" version="1.1" xmlns="http://www.w3.org/2000/svg" xmlns:xlink="http://www.w3.org/1999/xlink" xml:space="preserve" style="fill-rule:evenodd;clip-rule:evenodd;stroke-linejoin:round;stroke-miterlimit:1.41421;">
    <g transform="matrix(1,0,0,1,-32,-32)">
        <g id="Button-Icon" transform="matrix(8.00542,0,0,8.00542,-4366.59,-3197.63)">
            <path d="M582.877,403.551C601.288,403.551 616.235,418.498 616.235,436.908C616.235,455.319 601.288,470.266 582.877,470.266C564.467,470.266 549.52,455.319 549.52,436.908C549.52,418.498 564.467,403.551 582.877,403.551ZM572.116,440.526C574.872,440.526 577.108,442.763 577.108,445.518C577.108,448.274 574.872,450.511 572.116,450.511C569.361,450.511 567.124,448.274 567.124,445.518C567.124,442.763 569.361,440.526 572.116,440.526ZM593.638,440.526C596.393,440.526 598.63,442.763 598.63,445.518C598.63,448.274 596.393,450.511 593.638,450.511C590.883,450.511 588.646,448.274 588.646,445.518C588.646,442.763 590.883,440.526 593.638,440.526ZM572.116,423.306C574.872,423.306 577.108,425.543 577.108,428.298C577.108,431.053 574.872,433.29 572.116,433.29C569.361,433.29 567.124,431.053 567.124,428.298C567.124,425.543 569.361,423.306 572.116,423.306ZM593.638,423.306C596.393,423.306 598.63,425.543 598.63,428.298C598.63,431.053 596.393,433.29 593.638,433.29C590.883,433.29 588.646,431.053 588.646,428.298C588.646,425.543 590.883,423.306 593.638,423.306Z" style="fill:white;"/>
        </g>
    </g>
</svg>
