<?xml version="1.0" encoding="UTF-8" standalone="no"?>
<!DOCTYPE svg PUBLIC "-//W3C//DTD SVG 1.1//EN" "http://www.w3.org/Graphics/SVG/1.1/DTD/svg11.dtd">
<svg width="100%" height="100%" viewBox="0 0 521 518" version="1.1" xmlns="http://www.w3.org/2000/svg" xmlns:xlink="http://www.w3.org/1999/xlink" xml:space="preserve" style="fill-rule:evenodd;clip-rule:evenodd;stroke-linejoin:round;stroke-miterlimit:1.41421;">
    <g transform="matrix(1,0,0,1,-39,-41)">
        <g id="Calendar-Icon" transform="matrix(8.43388,0,0,8.43388,-17271.3,-7968.22)">
            <path d="M2108.01,1010.96L2058.72,1010.96C2055.3,1010.96 2052.51,1008.21 2052.51,1004.82L2052.51,961.249C2052.51,957.863 2055.3,955.115 2058.72,955.115L2064,955.115L2064,959.977C2064,962.816 2066.33,965.121 2069.2,965.121C2072.07,965.121 2074.41,962.816 2074.41,959.977L2074.41,955.115L2092.32,955.115L2092.32,959.977C2092.32,962.816 2094.66,965.121 2097.53,965.121C2100.4,965.121 2102.74,962.816 2102.74,959.977L2102.74,955.115L2108.01,955.115C2111.43,955.115 2114.22,957.863 2114.22,961.249L2114.22,1004.82C2114.22,1008.21 2111.43,1010.96 2108.01,1010.96ZM2107.82,1006.73C2108.83,1006.73 2109.65,1005.92 2109.65,1004.92L2109.65,971.428L2057.08,971.428L2057.08,1004.92C2057.08,1005.92 2057.9,1006.73 2058.91,1006.73L2107.82,1006.73ZM2104.76,985.254L2104.76,1002.14L2085.83,1002.14L2085.83,985.254L2104.76,985.254ZM2069.29,949.758C2070.57,949.758 2071.61,950.797 2071.61,952.077L2071.61,959.881C2071.61,961.161 2070.57,962.2 2069.29,962.2L2068.97,962.2C2067.69,962.2 2066.65,961.161 2066.65,959.881L2066.65,952.077C2066.65,950.797 2067.69,949.758 2068.97,949.758L2069.29,949.758ZM2097.91,949.758C2099.19,949.758 2100.23,950.797 2100.23,952.077L2100.23,959.881C2100.23,961.161 2099.19,962.2 2097.91,962.2L2097.6,962.2C2096.32,962.2 2095.28,961.161 2095.28,959.881L2095.28,952.077C2095.28,950.797 2096.32,949.758 2097.6,949.758L2097.91,949.758Z" style="fill:white;"/>
        </g>
    </g>
</svg>
