<?xml version="1.0" encoding="UTF-8" standalone="no"?>
<!DOCTYPE svg PUBLIC "-//W3C//DTD SVG 1.1//EN" "http://www.w3.org/Graphics/SVG/1.1/DTD/svg11.dtd">
<svg width="100%" height="100%" viewBox="0 0 537 228" version="1.1" xmlns="http://www.w3.org/2000/svg" xmlns:xlink="http://www.w3.org/1999/xlink" xml:space="preserve" style="fill-rule:evenodd;clip-rule:evenodd;stroke-linejoin:round;stroke-miterlimit:1.41421;">
    <g transform="matrix(1,0,0,1,-31,-186)">
        <g id="Candy-Icon" transform="matrix(7.20903,0,0,7.20903,-10924.2,-9661.14)">
            <path d="M1556.9,1365.95C1567.91,1365.95 1576.86,1373.03 1576.86,1381.76C1576.86,1390.49 1567.91,1397.57 1556.9,1397.57C1545.88,1397.57 1536.94,1390.49 1536.94,1381.76C1536.94,1373.03 1545.88,1365.95 1556.9,1365.95ZM1536.22,1390.53L1525.64,1396.56L1525.62,1396.56C1525.04,1396.88 1524.38,1397.06 1523.67,1397.06C1521.47,1397.06 1519.68,1395.28 1519.68,1393.1L1519.68,1370.42C1519.68,1368.23 1521.47,1366.46 1523.67,1366.46C1524.33,1366.46 1524.95,1366.62 1525.5,1366.9L1525.51,1366.9L1525.52,1366.91C1525.73,1367.02 1525.93,1367.15 1526.12,1367.29C1527.6,1368.24 1531.59,1370.83 1535.77,1373.68C1534.32,1376.13 1533.51,1378.86 1533.51,1381.75C1533.51,1384.92 1534.49,1387.91 1536.22,1390.53ZM1578.03,1373.68C1582.21,1370.83 1586.2,1368.24 1587.68,1367.29C1587.87,1367.15 1588.07,1367.02 1588.27,1366.91L1588.29,1366.9L1588.3,1366.9C1588.85,1366.62 1589.47,1366.46 1590.13,1366.46C1592.33,1366.46 1594.12,1368.23 1594.12,1370.42L1594.12,1393.1C1594.12,1395.28 1592.33,1397.06 1590.13,1397.06C1589.42,1397.06 1588.76,1396.88 1588.18,1396.56L1588.15,1396.56L1577.58,1390.53C1579.31,1387.91 1580.29,1384.92 1580.29,1381.75C1580.29,1378.86 1579.48,1376.13 1578.03,1373.68Z" style="fill:white;"/>
        </g>
    </g>
</svg>
