<?xml version="1.0" encoding="UTF-8" standalone="no"?>
<!DOCTYPE svg PUBLIC "-//W3C//DTD SVG 1.1//EN" "http://www.w3.org/Graphics/SVG/1.1/DTD/svg11.dtd">
<svg width="100%" height="100%" viewBox="0 0 505 448" version="1.1" xmlns="http://www.w3.org/2000/svg" xmlns:xlink="http://www.w3.org/1999/xlink" xml:space="preserve" style="fill-rule:evenodd;clip-rule:evenodd;stroke-linejoin:round;stroke-miterlimit:1.41421;">
    <g transform="matrix(1,0,0,1,-47,-76)">
        <g id="Car-Icon" transform="matrix(5.95652,0,0,5.88602,-4664.9,-2961.6)">
            <path d="M805.284,582.185L805.284,588.647C805.284,590.593 803.705,592.172 801.758,592.173L794.707,592.173C792.761,592.173 791.181,590.593 791.181,588.647L791.181,550.012C791.181,549.805 791.199,549.603 791.233,549.406C791.266,549.173 791.321,548.939 791.399,548.708L801.621,518.638C802.154,517.069 803.622,516.08 805.193,516.08L805.217,516.08L805.241,516.08L861.663,516.08L861.688,516.08L861.712,516.08C863.283,516.08 864.751,517.069 865.284,518.638L875.506,548.708C875.584,548.939 875.639,549.173 875.671,549.406C875.706,549.603 875.723,549.805 875.723,550.012L875.723,588.647C875.723,590.593 874.144,592.173 872.198,592.173L865.146,592.173C863.2,592.173 861.621,590.593 861.621,588.647L861.621,582.185L805.284,582.185ZM807.408,553.949C811.396,553.949 814.633,557.187 814.633,561.174C814.633,565.162 811.396,568.399 807.408,568.399C803.421,568.399 800.183,565.162 800.183,561.174C800.183,557.187 803.421,553.949 807.408,553.949ZM859.496,553.949C855.509,553.949 852.272,557.187 852.272,561.174C852.272,565.162 855.509,568.399 859.496,568.399C863.484,568.399 866.721,565.162 866.721,561.174C866.721,557.187 863.484,553.949 859.496,553.949ZM859.013,523.621L807.891,523.621L800.885,544.233L866.02,544.233L859.013,523.621Z" style="fill:white;"/>
        </g>
    </g>
</svg>
