<?xml version="1.0" encoding="UTF-8" standalone="no"?>
<!DOCTYPE svg PUBLIC "-//W3C//DTD SVG 1.1//EN" "http://www.w3.org/Graphics/SVG/1.1/DTD/svg11.dtd">
<svg width="100%" height="100%" viewBox="0 0 533 442" version="1.1" xmlns="http://www.w3.org/2000/svg" xmlns:xlink="http://www.w3.org/1999/xlink" xml:space="preserve" style="fill-rule:evenodd;clip-rule:evenodd;stroke-linejoin:round;stroke-miterlimit:1.41421;">
    <g transform="matrix(1,0,0,1,-33,-79)">
        <g id="Carton-Icon" transform="matrix(8.87407,0,0,8.87407,-406.953,-7509.88)">
            <path d="M101.997,904.918L57.239,904.918C55.41,904.918 53.925,903.451 53.925,901.644L53.925,871.788L105.311,871.788L105.311,901.644C105.311,903.451 103.826,904.918 101.997,904.918ZM85.422,880.069L73.814,880.069C71.83,880.069 70.219,881.661 70.219,883.621C70.219,885.582 71.83,887.174 73.814,887.174L85.422,887.174C87.406,887.174 89.017,885.582 89.017,883.621C89.017,881.661 87.406,880.069 85.422,880.069ZM106.053,855.241C107.984,855.241 109.553,856.809 109.553,858.741L109.553,865.74C109.553,867.672 107.984,869.24 106.053,869.24L53.183,869.24C51.251,869.24 49.683,867.672 49.683,865.74L49.683,858.741C49.683,856.809 51.251,855.241 53.183,855.241L106.053,855.241Z" style="fill:white;"/>
        </g>
    </g>
</svg>
