<?xml version="1.0" encoding="UTF-8" standalone="no"?>
<!DOCTYPE svg PUBLIC "-//W3C//DTD SVG 1.1//EN" "http://www.w3.org/Graphics/SVG/1.1/DTD/svg11.dtd">
<svg width="100%" height="100%" viewBox="0 0 542 514" version="1.1" xmlns="http://www.w3.org/2000/svg" xmlns:xlink="http://www.w3.org/1999/xlink" xml:space="preserve" style="fill-rule:evenodd;clip-rule:evenodd;stroke-linejoin:round;stroke-miterlimit:1.41421;">
    <g transform="matrix(1,0,0,1,-29,-43)">
        <g id="Chat-Bubble-Amount-Icon" transform="matrix(8.78043,0,0,8.78043,-18958.5,-10917.2)">
            <path d="M2185.27,1256.54C2183.92,1259.44 2183.16,1262.66 2183.16,1266.06C2183.16,1278.64 2193.48,1288.83 2206.21,1288.83C2208.62,1288.83 2210.95,1288.47 2213.13,1287.79C2208.83,1295.15 2199.71,1300.24 2189.15,1300.24C2187.36,1300.24 2185.62,1300.09 2183.93,1299.81C2183.91,1299.81 2168.42,1306.7 2168.42,1306.7C2168.42,1306.7 2173.53,1296.03 2173.56,1296.05C2166.9,1292.05 2162.55,1285.59 2162.55,1278.27C2162.55,1267.23 2172.42,1258.09 2185.27,1256.54ZM2206.21,1248.35C2216.11,1248.35 2224.13,1256.28 2224.13,1266.06C2224.13,1275.84 2216.11,1283.77 2206.21,1283.77C2196.31,1283.77 2188.29,1275.84 2188.29,1266.06C2188.29,1256.28 2196.31,1248.35 2206.21,1248.35Z" style="fill:white;"/>
        </g>
    </g>
</svg>
