<?xml version="1.0" encoding="UTF-8" standalone="no"?>
<!DOCTYPE svg PUBLIC "-//W3C//DTD SVG 1.1//EN" "http://www.w3.org/Graphics/SVG/1.1/DTD/svg11.dtd">
<svg width="100%" height="100%" viewBox="0 0 588 451" version="1.1" xmlns="http://www.w3.org/2000/svg" xmlns:xlink="http://www.w3.org/1999/xlink" xml:space="preserve" style="fill-rule:evenodd;clip-rule:evenodd;stroke-linejoin:round;stroke-miterlimit:1.41421;">
    <g transform="matrix(1,0,0,1,-5,-12)">
        <g id="Chat-Off-Icon" transform="matrix(6.08625,0,0,6.08625,-12292.3,-2948.59)">
            <path d="M2036.86,512.179L2021.53,496.936C2020.27,495.684 2020.27,493.651 2021.53,492.399C2022.79,491.146 2024.84,491.146 2026.1,492.399L2089.01,554.95C2090.27,556.203 2090.27,558.236 2089.01,559.488C2087.76,560.741 2085.71,560.741 2084.45,559.488L2079.05,554.118C2065.57,554.478 2030.94,554.377 2029.41,553.815C2027.55,553.129 2026.59,551.059 2027.28,549.196L2027.9,547.494C2027.93,547.412 2027.97,547.331 2028,547.252C2029.96,541.448 2033.62,536.425 2038.39,532.779C2043.01,537.378 2049.37,540.223 2056.4,540.223C2059.02,540.223 2061.55,539.826 2063.93,539.09L2059.04,534.223C2058.17,534.339 2057.29,534.399 2056.4,534.399C2045.53,534.399 2036.7,525.574 2036.7,514.704C2036.7,513.849 2036.76,513.006 2036.86,512.179ZM2043.06,500.221C2046.57,496.986 2051.25,495.009 2056.4,495.009C2067.27,495.009 2076.09,503.834 2076.09,514.704C2076.09,519.807 2074.15,524.46 2070.96,527.96L2043.06,500.221ZM2098.06,518.1C2096.79,518.1 2095.55,517.992 2094.35,517.793C2094.34,517.791 2083.33,522.749 2083.33,522.749C2083.33,522.749 2086.96,515.072 2086.98,515.084C2082.25,512.212 2079.15,507.562 2079.15,502.297C2079.15,493.57 2087.62,486.496 2098.06,486.496C2108.51,486.496 2116.97,493.57 2116.97,502.297C2116.97,511.025 2108.51,518.1 2098.06,518.1ZM2088.89,500.066C2090.34,500.066 2091.52,501.243 2091.52,502.693C2091.52,504.143 2090.34,505.32 2088.89,505.32C2087.45,505.32 2086.27,504.143 2086.27,502.693C2086.27,501.243 2087.45,500.066 2088.89,500.066ZM2098.06,500.066C2099.51,500.066 2100.69,501.243 2100.69,502.693C2100.69,504.143 2099.51,505.32 2098.06,505.32C2096.61,505.32 2095.44,504.143 2095.44,502.693C2095.44,501.243 2096.61,500.066 2098.06,500.066ZM2107.23,500.066C2108.68,500.066 2109.86,501.243 2109.86,502.693C2109.86,504.143 2108.68,505.32 2107.23,505.32C2105.78,505.32 2104.61,504.143 2104.61,502.693C2104.61,501.243 2105.78,500.066 2107.23,500.066Z" style="fill:white;"/>
        </g>
    </g>
</svg>
