<?xml version="1.0" encoding="UTF-8" standalone="no"?>
<!DOCTYPE svg PUBLIC "-//W3C//DTD SVG 1.1//EN" "http://www.w3.org/Graphics/SVG/1.1/DTD/svg11.dtd">
<svg width="100%" height="100%" viewBox="0 0 588 451" version="1.1" xmlns="http://www.w3.org/2000/svg" xmlns:xlink="http://www.w3.org/1999/xlink" xml:space="preserve" style="fill-rule:evenodd;clip-rule:evenodd;stroke-linejoin:round;stroke-miterlimit:1.41421;">
    <g transform="matrix(1,0,0,1,-5,-12)">
        <g id="Chat-Off-Icon-Outline" transform="matrix(6.08625,0,0,6.08625,-12291.3,-797.528)">
            <path d="M2037.28,159.384L2021.31,143.507C2020.05,142.255 2020.05,140.222 2021.31,138.969C2022.57,137.717 2024.61,137.717 2025.87,138.97L2088.79,201.521C2090.05,202.774 2090.05,204.807 2088.79,206.059C2087.53,207.312 2085.48,207.312 2084.22,206.059L2058.39,180.38C2057.81,180.336 2057.22,180.313 2056.62,180.313C2046.33,180.313 2037.59,187.011 2034.53,196.283C2034.5,196.385 2034.47,196.487 2034.43,196.589L2033.8,198.291C2033.12,200.154 2031.05,201.109 2029.18,200.423C2027.32,199.737 2026.37,197.667 2027.05,195.804L2027.68,194.102C2027.71,194.02 2027.74,193.939 2027.78,193.86C2030.51,185.758 2036.56,179.177 2044.31,175.741C2039.99,172.182 2037.23,166.789 2037.23,160.756C2037.23,160.295 2037.24,159.837 2037.28,159.384ZM2043,146.958C2046.5,143.497 2051.32,141.36 2056.62,141.36C2067.33,141.36 2076.02,150.051 2076.02,160.756C2076.02,166.024 2073.92,170.804 2070.5,174.301L2065.62,169.446C2067.79,167.195 2069.13,164.131 2069.13,160.756C2069.13,153.852 2063.53,148.248 2056.62,148.248C2053.22,148.248 2050.14,149.608 2047.88,151.813L2043,146.958ZM2097.95,164.671C2096.68,164.671 2095.44,164.563 2094.24,164.364C2094.23,164.362 2083.22,169.32 2083.22,169.32C2083.22,169.32 2086.85,161.643 2086.87,161.655C2082.13,158.783 2079.04,154.133 2079.04,148.868C2079.04,140.141 2087.51,133.067 2097.95,133.067C2108.4,133.067 2116.86,140.141 2116.86,148.868C2116.86,157.596 2108.4,164.671 2097.95,164.671ZM2088.78,146.637C2090.23,146.637 2091.41,147.814 2091.41,149.264C2091.41,150.714 2090.23,151.891 2088.78,151.891C2087.33,151.891 2086.16,150.714 2086.16,149.264C2086.16,147.814 2087.33,146.637 2088.78,146.637ZM2097.95,146.637C2099.4,146.637 2100.58,147.814 2100.58,149.264C2100.58,150.714 2099.4,151.891 2097.95,151.891C2096.5,151.891 2095.32,150.714 2095.32,149.264C2095.32,147.814 2096.5,146.637 2097.95,146.637ZM2107.12,146.637C2108.57,146.637 2109.75,147.814 2109.75,149.264C2109.75,150.714 2108.57,151.891 2107.12,151.891C2105.67,151.891 2104.49,150.714 2104.49,149.264C2104.49,147.814 2105.67,146.637 2107.12,146.637Z" style="fill:white;"/>
        </g>
    </g>
</svg>
