<?xml version="1.0" encoding="UTF-8" standalone="no"?>
<!DOCTYPE svg PUBLIC "-//W3C//DTD SVG 1.1//EN" "http://www.w3.org/Graphics/SVG/1.1/DTD/svg11.dtd">
<svg width="100%" height="100%" viewBox="0 0 548 414" version="1.1" xmlns="http://www.w3.org/2000/svg" xmlns:xlink="http://www.w3.org/1999/xlink" xml:space="preserve" style="fill-rule:evenodd;clip-rule:evenodd;stroke-linejoin:round;stroke-miterlimit:1.41421;">
    <g transform="matrix(1,0,0,1,-25,-30)">
        <g id="Chat-User-Icon" transform="matrix(6.08625,0,0,6.08625,-11585.2,-2948.59)">
            <path d="M1955.37,535.438C1960.38,539.101 1964.23,544.256 1966.26,550.248C1966.31,550.343 1966.35,550.441 1966.38,550.541L1967.01,552.245C1967.7,554.107 1966.74,556.177 1964.88,556.863C1963.02,557.549 1911.86,557.551 1909.99,556.864C1908.13,556.178 1907.17,554.109 1907.86,552.245L1908.49,550.543C1908.52,550.461 1908.55,550.38 1908.59,550.302C1910.54,544.497 1914.2,539.474 1918.97,535.828C1923.59,540.427 1929.95,543.272 1936.98,543.272C1944.2,543.272 1950.73,540.266 1955.37,535.438ZM1936.98,498.058C1947.85,498.058 1956.67,506.883 1956.67,517.753C1956.67,528.624 1947.85,537.449 1936.98,537.449C1926.11,537.449 1917.28,528.624 1917.28,517.753C1917.28,506.883 1926.11,498.058 1936.98,498.058ZM1978.65,521.149C1977.38,521.149 1976.14,521.041 1974.94,520.842C1974.93,520.84 1963.91,525.798 1963.91,525.798C1963.91,525.798 1967.55,518.121 1967.57,518.133C1962.83,515.261 1959.74,510.612 1959.74,505.346C1959.74,496.62 1968.2,489.545 1978.65,489.545C1989.09,489.545 1997.56,496.62 1997.56,505.346C1997.56,514.074 1989.09,521.149 1978.65,521.149ZM1969.48,503.115C1970.93,503.115 1972.11,504.292 1972.11,505.742C1972.11,507.192 1970.93,508.369 1969.48,508.369C1968.03,508.369 1966.85,507.192 1966.85,505.742C1966.85,504.292 1968.03,503.115 1969.48,503.115ZM1978.65,503.115C1980.1,503.115 1981.27,504.292 1981.27,505.742C1981.27,507.192 1980.1,508.369 1978.65,508.369C1977.2,508.369 1976.02,507.192 1976.02,505.742C1976.02,504.292 1977.2,503.115 1978.65,503.115ZM1987.82,503.115C1989.27,503.115 1990.44,504.292 1990.44,505.742C1990.44,507.192 1989.27,508.369 1987.82,508.369C1986.37,508.369 1985.19,507.192 1985.19,505.742C1985.19,504.292 1986.37,503.115 1987.82,503.115Z" style="fill:white;"/>
        </g>
    </g>
</svg>
