<?xml version="1.0" encoding="UTF-8" standalone="no"?>
<!DOCTYPE svg PUBLIC "-//W3C//DTD SVG 1.1//EN" "http://www.w3.org/Graphics/SVG/1.1/DTD/svg11.dtd">
<svg width="100%" height="100%" viewBox="0 0 549 412" version="1.1" xmlns="http://www.w3.org/2000/svg" xmlns:xlink="http://www.w3.org/1999/xlink" xml:space="preserve" style="fill-rule:evenodd;clip-rule:evenodd;stroke-linejoin:round;stroke-miterlimit:1.41421;">
    <g transform="matrix(1,0,0,1,-24,-31)">
        <g id="Chat-User-Icon-Outline" transform="matrix(6.08625,0,0,6.08625,-11584.2,-797.528)">
            <path d="M1908.36,197.037C1911.09,188.934 1917.14,182.354 1924.9,178.917C1920.57,175.359 1917.81,169.965 1917.81,163.932C1917.81,153.227 1926.5,144.536 1937.21,144.536C1947.91,144.536 1956.6,153.227 1956.6,163.932C1956.6,169.965 1953.84,175.359 1949.52,178.917C1957.25,182.346 1963.3,188.905 1966.04,196.983C1966.08,197.078 1966.12,197.176 1966.16,197.277L1966.79,198.98C1967.47,200.843 1966.52,202.912 1964.65,203.598C1962.79,204.284 1960.72,203.329 1960.04,201.466L1959.41,199.763C1959.39,199.71 1959.37,199.657 1959.35,199.603L1959.35,199.603C1956.33,190.257 1947.55,183.49 1937.21,183.49C1926.91,183.49 1918.17,190.188 1915.11,199.459C1915.08,199.561 1915.05,199.664 1915.01,199.765L1914.39,201.467C1913.7,203.33 1911.63,204.286 1909.77,203.6C1907.9,202.914 1906.95,200.844 1907.63,198.981L1908.26,197.279C1908.29,197.196 1908.33,197.116 1908.36,197.037ZM1938.67,176.356C1944.89,175.63 1949.72,170.341 1949.72,163.932C1949.72,157.029 1944.11,151.424 1937.21,151.424C1930.3,151.424 1924.7,157.029 1924.7,163.932C1924.7,170.341 1929.53,175.63 1935.74,176.356C1936.23,176.333 1936.72,176.321 1937.21,176.321C1937.7,176.321 1938.19,176.333 1938.67,176.356ZM1978.54,167.847C1977.27,167.847 1976.03,167.739 1974.83,167.54C1974.81,167.538 1963.8,172.496 1963.8,172.496C1963.8,172.496 1967.43,164.819 1967.46,164.831C1962.72,161.959 1959.62,157.31 1959.62,152.044C1959.62,143.318 1968.09,136.243 1978.54,136.243C1988.98,136.243 1997.45,143.318 1997.45,152.044C1997.45,160.772 1988.98,167.847 1978.54,167.847ZM1969.37,149.814C1970.82,149.814 1971.99,150.991 1971.99,152.44C1971.99,153.89 1970.82,155.067 1969.37,155.067C1967.92,155.067 1966.74,153.89 1966.74,152.44C1966.74,150.991 1967.92,149.814 1969.37,149.814ZM1978.54,149.814C1979.99,149.814 1981.16,150.991 1981.16,152.44C1981.16,153.89 1979.99,155.067 1978.54,155.067C1977.09,155.067 1975.91,153.89 1975.91,152.44C1975.91,150.991 1977.09,149.814 1978.54,149.814ZM1987.7,149.814C1989.15,149.814 1990.33,150.991 1990.33,152.44C1990.33,153.89 1989.15,155.067 1987.7,155.067C1986.26,155.067 1985.08,153.89 1985.08,152.44C1985.08,150.991 1986.26,149.814 1987.7,149.814Z" style="fill:white;"/>
        </g>
    </g>
</svg>
