<?xml version="1.0" encoding="UTF-8" standalone="no"?>
<!DOCTYPE svg PUBLIC "-//W3C//DTD SVG 1.1//EN" "http://www.w3.org/Graphics/SVG/1.1/DTD/svg11.dtd">
<svg width="100%" height="100%" viewBox="0 0 540 388" version="1.1" xmlns="http://www.w3.org/2000/svg" xmlns:xlink="http://www.w3.org/1999/xlink" xml:space="preserve" style="fill-rule:evenodd;clip-rule:evenodd;stroke-linejoin:round;stroke-miterlimit:1.41421;">
    <g transform="matrix(1,0,0,1,-30,-106)">
        <g id="Checked-Icon" transform="matrix(24.4747,0,0,24.185,-20478.8,-78978.4)">
            <path d="M857.397,3270.44L845.492,3282.36L840.588,3277.44C839.995,3276.85 839.034,3276.85 838.442,3277.44C837.849,3278.04 837.849,3279 838.442,3279.59L844.388,3285.56C844.692,3285.86 845.093,3286.01 845.492,3286C845.891,3286.01 846.292,3285.86 846.597,3285.56L859.543,3272.59C860.135,3272 860.135,3271.04 859.543,3270.44C858.95,3269.85 857.989,3269.85 857.397,3270.44Z" style="fill:white;"/>
        </g>
    </g>
</svg>
