<?xml version="1.0" encoding="UTF-8" standalone="no"?>
<!DOCTYPE svg PUBLIC "-//W3C//DTD SVG 1.1//EN" "http://www.w3.org/Graphics/SVG/1.1/DTD/svg11.dtd">
<svg width="100%" height="100%" viewBox="0 0 538 440" version="1.1" xmlns="http://www.w3.org/2000/svg" xmlns:xlink="http://www.w3.org/1999/xlink" xml:space="preserve" style="fill-rule:evenodd;clip-rule:evenodd;stroke-linejoin:round;stroke-miterlimit:1.41421;">
    <g transform="matrix(1,0,0,1,-31,-80)">
        <g id="Chest-Icon" transform="matrix(12.1766,0,0,12.0325,-8757.44,-1494.77)">
            <path d="M728.93,167.404L721.815,167.404L721.815,146.883L728.93,146.883L728.93,167.404ZM755.827,167.404L731.853,167.404L731.853,146.883L737.74,146.883C737.769,150.354 740.596,153.163 744.074,153.163C747.551,153.163 750.378,150.354 750.408,146.883L755.827,146.883L755.827,167.404ZM765.865,167.404L758.75,167.404L758.75,146.883L765.865,146.883L765.865,167.404ZM745.113,149.334L742.567,149.334L743.264,146.704C742.622,146.469 742.163,145.852 742.163,145.128C742.163,144.203 742.914,143.451 743.84,143.451C744.766,143.451 745.518,144.203 745.518,145.128C745.518,145.852 745.058,146.469 744.416,146.704L745.113,149.334ZM728.93,143.96L721.815,143.96L721.815,139.667C721.815,135.397 724.881,131.837 728.93,131.071L728.93,143.96ZM755.827,143.96L750.408,143.96L750.408,141.02L737.739,141.02L737.739,143.96L731.853,143.96L731.853,130.918L755.827,130.918L755.827,143.96ZM765.865,143.96L758.75,143.96L758.75,131.071C762.799,131.837 765.865,135.397 765.865,139.667L765.865,143.96Z" style="fill:white;"/>
        </g>
    </g>
</svg>
