<?xml version="1.0" encoding="UTF-8" standalone="no"?>
<!DOCTYPE svg PUBLIC "-//W3C//DTD SVG 1.1//EN" "http://www.w3.org/Graphics/SVG/1.1/DTD/svg11.dtd">
<svg width="100%" height="100%" viewBox="0 0 536 440" version="1.1" xmlns="http://www.w3.org/2000/svg" xmlns:xlink="http://www.w3.org/1999/xlink" xml:space="preserve" style="fill-rule:evenodd;clip-rule:evenodd;stroke-linejoin:round;stroke-miterlimit:1.41421;">
    <g transform="matrix(1,0,0,1,-32,-80)">
        <g id="Chest-Outline-Icon" transform="matrix(12.1766,0,0,12.0325,-8157.27,-1468.5)">
            <path d="M716.54,165.204L672.563,165.204L672.563,137.36C672.563,132.609 676.42,128.751 681.172,128.751L707.931,128.751C712.683,128.751 716.54,132.609 716.54,137.36L716.54,165.204ZM679.17,144.78L675.336,144.78L675.336,162.53L679.17,162.53L679.17,144.78ZM688.453,144.78L682.113,144.78L682.113,162.53L706.99,162.53L706.99,144.78L701.007,144.78C700.878,148.133 698.115,150.816 694.73,150.816C691.346,150.816 688.583,148.133 688.453,144.78ZM713.768,144.78L709.933,144.78L709.933,162.53L713.768,162.53L713.768,144.78ZM695.825,147.157L695.127,144.527C695.77,144.292 696.229,143.675 696.229,142.951C696.229,142.025 695.477,141.274 694.552,141.274C693.626,141.274 692.874,142.025 692.874,142.951C692.874,143.675 693.333,144.292 693.976,144.527L693.278,147.157L695.825,147.157ZM679.17,132.019C676.915,132.999 675.336,135.247 675.336,137.861L675.336,141.837L679.17,141.837L679.17,132.019ZM706.99,131.495L682.113,131.495L682.113,141.837L688.448,141.837L688.448,139.641C688.448,139.366 688.466,139.095 688.501,138.829L700.96,138.829C700.994,139.095 701.012,139.366 701.012,139.641L701.012,141.837L706.99,141.837L706.99,131.495ZM709.933,132.019L709.933,141.837L713.768,141.837L713.768,137.861C713.768,135.247 712.189,132.999 709.933,132.019Z" style="fill:white;"/>
        </g>
    </g>
</svg>
