<?xml version="1.0" encoding="UTF-8" standalone="no"?>
<!DOCTYPE svg PUBLIC "-//W3C//DTD SVG 1.1//EN" "http://www.w3.org/Graphics/SVG/1.1/DTD/svg11.dtd">
<svg width="100%" height="100%" viewBox="0 0 526 526" version="1.1" xmlns="http://www.w3.org/2000/svg" xmlns:xlink="http://www.w3.org/1999/xlink" xml:space="preserve" style="fill-rule:evenodd;clip-rule:evenodd;stroke-linejoin:round;stroke-miterlimit:1.41421;">
    <g transform="matrix(1,0,0,1,-37,-37)">
        <g id="Clock-Basic-Icon" transform="matrix(8.46913,0,0,8.46913,-7520.21,-8830.42)">
            <path d="M923.379,1047.07C940.497,1047.07 954.395,1060.96 954.395,1078.08C954.395,1095.2 940.497,1109.1 923.379,1109.1C906.26,1109.1 892.362,1095.2 892.362,1078.08C892.362,1060.96 906.26,1047.07 923.379,1047.07ZM923.379,1052.03C937.757,1052.03 949.43,1063.7 949.43,1078.08C949.43,1092.46 937.757,1104.13 923.379,1104.13C909,1104.13 897.327,1092.46 897.327,1078.08C897.327,1063.7 909,1052.03 923.379,1052.03ZM923.379,1093.49C924.862,1093.49 926.067,1094.69 926.067,1096.17C926.067,1097.66 924.862,1098.86 923.379,1098.86C921.895,1098.86 920.69,1097.66 920.69,1096.17C920.69,1094.69 921.895,1093.49 923.379,1093.49ZM905.125,1074.91C906.608,1074.91 907.813,1076.11 907.813,1077.6C907.813,1079.08 906.608,1080.29 905.125,1080.29C903.641,1080.29 902.436,1079.08 902.436,1077.6C902.436,1076.11 903.641,1074.91 905.125,1074.91ZM925.117,1075.14L941.857,1075.14L941.857,1079.38L920.883,1079.38L920.883,1058.4L925.117,1058.4L925.117,1075.14Z" style="fill:white;"/>
        </g>
    </g>
</svg>
