<?xml version="1.0" encoding="UTF-8" standalone="no"?>
<!DOCTYPE svg PUBLIC "-//W3C//DTD SVG 1.1//EN" "http://www.w3.org/Graphics/SVG/1.1/DTD/svg11.dtd">
<svg width="100%" height="100%" viewBox="0 0 569 428" version="1.1" xmlns="http://www.w3.org/2000/svg" xmlns:xlink="http://www.w3.org/1999/xlink" xml:space="preserve" style="fill-rule:evenodd;clip-rule:evenodd;stroke-linejoin:round;stroke-miterlimit:1.41421;">
    <g transform="matrix(1,0,0,1,-15,-86)">
        <g id="Cloud-Icon" transform="matrix(23.6592,0,0,23.7506,-22365.9,-72329.3)">
            <path d="M970,3061.5C970,3064.54 967.538,3067 964.5,3067C964.499,3067 964.498,3067 964.497,3067L964.497,3067L952.497,3067L952.497,3067C948.908,3067 946,3064.09 946,3060.5C946,3057.24 948.415,3054.56 951.552,3054.1C952.715,3051.12 955.607,3049 959,3049C963.289,3049 966.779,3052.38 966.981,3056.62C968.765,3057.53 970,3059.36 970,3061.5Z" style="fill:white;"/>
        </g>
    </g>
</svg>
