<?xml version="1.0" encoding="UTF-8" standalone="no"?>
<!DOCTYPE svg PUBLIC "-//W3C//DTD SVG 1.1//EN" "http://www.w3.org/Graphics/SVG/1.1/DTD/svg11.dtd">
<svg width="100%" height="100%" viewBox="0 0 519 526" version="1.1" xmlns="http://www.w3.org/2000/svg" xmlns:xlink="http://www.w3.org/1999/xlink" xml:space="preserve" style="fill-rule:evenodd;clip-rule:evenodd;stroke-linejoin:round;stroke-miterlimit:1.41421;">
    <g transform="matrix(1,0,0,1,-40,-37)">
        <g id="Coffee-Icon" transform="matrix(8.73078,0,0,8.73078,-12373.6,-8259.28)">
            <path d="M1467.64,1005.98C1468.26,1005.98 1468.76,1006.48 1468.76,1007.1L1468.76,1009.33C1468.76,1009.95 1468.26,1010.45 1467.64,1010.45L1425.02,1010.45C1424.4,1010.45 1423.9,1009.95 1423.9,1009.33L1423.9,1007.1C1423.9,1006.48 1424.4,1005.98 1425.02,1005.98L1467.64,1005.98ZM1459.04,1003.74L1432.23,1003.74C1432.23,1003.74 1425.82,998.113 1423.17,987.411C1420.9,978.244 1422.26,968.805 1422.26,968.805L1468.99,968.805C1468.99,968.805 1469.1,970.411 1469.13,972.828C1469.8,972.673 1470.49,972.572 1471.18,972.533C1477.71,972.153 1482.16,977.346 1481.1,984.122C1480.04,990.898 1473.88,996.707 1467.34,997.086C1466.08,997.159 1464.9,997.026 1463.83,996.715C1461.36,1001.2 1459.04,1003.73 1459.04,1003.74ZM1466.41,991.228C1466.85,991.352 1467.34,991.405 1467.87,991.374C1471.13,991.185 1474.76,988.786 1475.72,983.818C1476.64,979.09 1473.82,977.125 1470.55,977.314C1470.05,977.343 1469.54,977.469 1469.04,977.672C1468.87,981.322 1468.4,985.464 1467.29,988.787C1467.01,989.631 1466.71,990.445 1466.41,991.228ZM1437.62,953.128C1437.62,951.547 1436.34,950.262 1434.76,950.262C1433.17,950.262 1431.89,951.547 1431.89,953.128L1431.89,962.509C1431.89,964.091 1433.17,965.375 1434.76,965.375C1436.34,965.375 1437.62,964.091 1437.62,962.509L1437.62,953.128ZM1448.84,953.128C1448.84,951.547 1447.56,950.262 1445.98,950.262C1444.4,950.262 1443.11,951.547 1443.11,953.128L1443.11,962.509C1443.11,964.091 1444.4,965.375 1445.98,965.375C1447.56,965.375 1448.84,964.091 1448.84,962.509L1448.84,953.128ZM1459.1,953.128C1459.1,951.547 1457.82,950.262 1456.23,950.262C1454.65,950.262 1453.37,951.547 1453.37,953.128L1453.37,962.509C1453.37,964.091 1454.65,965.375 1456.23,965.375C1457.82,965.375 1459.1,964.091 1459.1,962.509L1459.1,953.128Z" style="fill:white;"/>
        </g>
    </g>
</svg>
