<?xml version="1.0" encoding="UTF-8" standalone="no"?>
<!DOCTYPE svg PUBLIC "-//W3C//DTD SVG 1.1//EN" "http://www.w3.org/Graphics/SVG/1.1/DTD/svg11.dtd">
<svg width="100%" height="100%" viewBox="0 0 366 562" version="1.1" xmlns="http://www.w3.org/2000/svg" xmlns:xlink="http://www.w3.org/1999/xlink" xml:space="preserve" style="fill-rule:evenodd;clip-rule:evenodd;stroke-linejoin:round;stroke-miterlimit:1.41421;">
    <g transform="matrix(1,0,0,1,-117,-19)">
        <g id="Coins-x5-Icon" transform="matrix(9.34389,0,0,9.23329,-18956.7,-1661.49)">
            <path d="M2080.45,226.925L2080.45,234.645C2080.44,234.659 2080.43,234.674 2080.42,234.689C2079.71,239.239 2071.21,242.836 2060.84,242.836C2050.76,242.836 2042.45,239.441 2041.33,235.076L2041.33,227.356C2042.45,231.721 2050.76,235.116 2060.84,235.116C2071.21,235.116 2079.71,231.519 2080.42,226.969C2080.43,226.954 2080.44,226.939 2080.45,226.925ZM2080.45,216.109L2080.45,223.829C2080.44,223.843 2080.43,223.858 2080.42,223.873C2079.71,228.423 2071.21,232.02 2060.84,232.02C2050.76,232.02 2042.45,228.625 2041.33,224.26L2041.33,216.54C2042.45,220.905 2050.76,224.3 2060.84,224.3C2071.21,224.3 2079.71,220.703 2080.42,216.153C2080.43,216.138 2080.44,216.123 2080.45,216.109ZM2080.45,205.293L2080.45,213.013C2080.44,213.028 2080.43,213.042 2080.42,213.057C2079.71,217.607 2071.21,221.204 2060.84,221.204C2050.76,221.204 2042.45,217.809 2041.33,213.444L2041.33,205.724C2042.45,210.089 2050.76,213.484 2060.84,213.484C2071.21,213.484 2079.71,209.887 2080.42,205.337C2080.43,205.322 2080.44,205.308 2080.45,205.293ZM2080.45,194.477L2080.45,202.197C2080.44,202.212 2080.43,202.226 2080.42,202.241C2079.71,206.791 2071.21,210.388 2060.84,210.388C2050.76,210.388 2042.45,206.993 2041.33,202.628L2041.33,194.908C2042.45,199.273 2050.76,202.668 2060.84,202.668C2071.21,202.668 2079.71,199.071 2080.42,194.521C2080.43,194.506 2080.44,194.492 2080.45,194.477ZM2060.82,182.037C2071.57,182.037 2080.31,185.966 2080.31,190.805C2080.31,195.644 2071.57,199.573 2060.82,199.573C2050.06,199.573 2041.33,195.644 2041.33,190.805C2041.33,185.966 2050.06,182.037 2060.82,182.037Z" style="fill:white;"/>
        </g>
    </g>
</svg>
