<?xml version="1.0" encoding="UTF-8" standalone="no"?>
<!DOCTYPE svg PUBLIC "-//W3C//DTD SVG 1.1//EN" "http://www.w3.org/Graphics/SVG/1.1/DTD/svg11.dtd">
<svg width="100%" height="100%" viewBox="0 0 536 530" version="1.1" xmlns="http://www.w3.org/2000/svg" xmlns:xlink="http://www.w3.org/1999/xlink" xml:space="preserve" style="fill-rule:evenodd;clip-rule:evenodd;stroke-linejoin:round;stroke-miterlimit:1.41421;">
    <g transform="matrix(1,0,0,1,-32,-35)">
        <g id="Coin-Euro-Icon" transform="matrix(8.64773,0,0,8.64773,-8685.31,-7321.25)">
            <path d="M1039.04,850.752C1056.1,850.752 1069.95,864.44 1069.95,881.301C1069.95,898.161 1056.1,911.85 1039.04,911.85C1021.97,911.85 1008.12,898.161 1008.12,881.301C1008.12,864.44 1021.97,850.752 1039.04,850.752ZM1039.04,856.862C1052.69,856.862 1063.77,867.813 1063.77,881.301C1063.77,894.789 1052.69,905.74 1039.04,905.74C1025.39,905.74 1014.31,894.789 1014.31,881.301C1014.31,867.813 1025.39,856.862 1039.04,856.862ZM1039.04,860.896C1050.43,860.896 1059.69,870.039 1059.69,881.301C1059.69,892.563 1050.43,901.706 1039.04,901.706C1027.64,901.706 1018.39,892.563 1018.39,881.301C1018.39,870.039 1027.64,860.896 1039.04,860.896ZM1034,883.66C1034.03,884.761 1034.25,885.724 1034.64,886.552C1035.04,887.379 1035.57,888.07 1036.25,888.624C1036.92,889.178 1037.72,889.596 1038.63,889.878C1039.55,890.159 1040.55,890.3 1041.63,890.3C1042.22,890.3 1042.79,890.266 1043.36,890.199C1043.92,890.132 1044.46,890.039 1044.99,889.922L1044.44,886.533C1044.09,886.667 1043.73,886.764 1043.36,886.823C1042.99,886.881 1042.6,886.911 1042.19,886.911C1041.66,886.911 1041.17,886.865 1040.73,886.772C1040.29,886.68 1039.9,886.512 1039.58,886.268C1039.26,886.025 1039,885.693 1038.81,885.273C1038.62,884.853 1038.51,884.316 1038.49,883.66L1042.46,883.66L1042.46,881.645L1038.49,881.645L1038.49,880.108L1042.46,880.108L1042.46,878.105L1038.52,878.105C1038.58,877.525 1038.71,877.029 1038.9,876.618C1039.1,876.206 1039.36,875.873 1039.68,875.616C1040.01,875.36 1040.39,875.173 1040.82,875.056C1041.26,874.938 1041.76,874.879 1042.31,874.879C1042.67,874.879 1043.04,874.915 1043.42,874.986C1043.8,875.058 1044.14,875.152 1044.44,875.27L1044.99,871.868C1044.5,871.751 1044.01,871.656 1043.51,871.585C1043.02,871.514 1042.52,871.478 1042.03,871.478C1040.91,871.478 1039.88,871.621 1038.94,871.906C1038,872.192 1037.18,872.612 1036.48,873.166C1035.79,873.72 1035.22,874.411 1034.8,875.238C1034.38,876.066 1034.12,877.021 1034.04,878.105L1031.89,878.105L1031.89,880.108L1034,880.108L1034,881.645L1031.89,881.645L1031.89,883.66L1034,883.66Z" style="fill:white;"/>
        </g>
    </g>
</svg>
