<?xml version="1.0" encoding="UTF-8" standalone="no"?>
<!DOCTYPE svg PUBLIC "-//W3C//DTD SVG 1.1//EN" "http://www.w3.org/Graphics/SVG/1.1/DTD/svg11.dtd">
<svg width="100%" height="100%" viewBox="0 0 546 566" version="1.1" xmlns="http://www.w3.org/2000/svg" xmlns:xlink="http://www.w3.org/1999/xlink" xml:space="preserve" style="fill-rule:evenodd;clip-rule:evenodd;stroke-linejoin:round;stroke-miterlimit:1.41421;">
    <g transform="matrix(1,0,0,1,-27,-17)">
        <g id="Coins-Minus-Icon" transform="matrix(9.1789,0,0,9.1789,-3399.57,-7810.4)">
            <path d="M414.785,878.934C424.683,878.934 432.708,886.863 432.708,896.645C432.708,906.426 424.683,914.356 414.785,914.356C404.886,914.356 396.862,906.426 396.862,896.645C396.862,886.863 404.886,878.934 414.785,878.934ZM412.184,899.214L422.432,899.214C423.867,899.214 425.032,898.063 425.032,896.645C425.032,895.227 423.867,894.075 422.432,894.075L417.385,894.075L412.184,894.075L407.138,894.075C405.703,894.075 404.538,895.227 404.538,896.645C404.538,898.063 405.703,899.214 407.138,899.214L412.184,899.214ZM393.952,906.39C383.298,906.259 374.589,902.669 373.396,898.077L373.396,889.803C374.507,894.08 382.136,897.487 391.784,898.041C391.966,901.014 392.725,903.833 393.952,906.39ZM391.822,894.725C382.156,894.178 374.508,890.767 373.396,886.485L373.396,878.212C374.596,882.83 383.398,886.435 394.136,886.527C392.876,889.033 392.069,891.8 391.822,894.725ZM415.824,873.897C415.48,873.882 415.133,873.874 414.785,873.874C407.155,873.874 400.392,877.538 396.198,883.183C395.655,883.201 395.107,883.211 394.554,883.211C383.627,883.211 374.611,879.572 373.396,874.894L373.396,866.62C374.611,871.299 383.627,874.937 394.554,874.937C405.802,874.937 415.024,871.082 415.799,866.206C415.808,866.19 415.816,866.174 415.824,866.159L415.824,873.897ZM394.534,852.827C406.201,852.827 415.672,857.037 415.672,862.223C415.672,867.409 406.201,871.619 394.534,871.619C382.868,871.619 373.396,867.409 373.396,862.223C373.396,857.037 382.868,852.827 394.534,852.827Z" style="fill:white;"/>
        </g>
    </g>
</svg>
