<?xml version="1.0" encoding="UTF-8" standalone="no"?>
<!DOCTYPE svg PUBLIC "-//W3C//DTD SVG 1.1//EN" "http://www.w3.org/Graphics/SVG/1.1/DTD/svg11.dtd">
<svg width="100%" height="100%" viewBox="0 0 452 554" version="1.1" xmlns="http://www.w3.org/2000/svg" xmlns:xlink="http://www.w3.org/1999/xlink" xml:space="preserve" style="fill-rule:evenodd;clip-rule:evenodd;stroke-linejoin:round;stroke-miterlimit:1.41421;">
    <g transform="matrix(1,0,0,1,-74,-23)">
        <g id="Coin-Sack-Crown-Icon" transform="matrix(7.88652,0,0,7.88652,-12821.5,-6486.77)">
            <path d="M1672.34,850.896C1692.91,862.058 1707.87,895.552 1664.11,895.552C1620.35,895.552 1633.97,863.11 1654.5,850.896L1672.34,850.896ZM1672.89,882.915L1676.44,867.075L1669.21,871.785L1663.76,863.533L1658.37,871.785L1651.14,867.075L1654.7,882.915L1672.89,882.915ZM1673.15,846.784L1655.07,846.784L1645.74,838.078C1645.74,838.078 1646.2,835.138 1648.78,833.216C1649.45,832.711 1650.11,832.325 1650.72,832.03L1658.4,841.535L1653.8,827.895C1656.56,826.438 1660.16,825.554 1664.11,825.554C1668.06,825.554 1671.66,826.438 1674.42,827.895L1669.82,841.535L1677.5,832.03C1678.11,832.325 1678.77,832.711 1679.44,833.216C1682.01,835.138 1682.48,838.078 1682.48,838.078L1673.15,846.784Z" style="fill:white;"/>
        </g>
    </g>
</svg>
