<?xml version="1.0" encoding="UTF-8" standalone="no"?>
<!DOCTYPE svg PUBLIC "-//W3C//DTD SVG 1.1//EN" "http://www.w3.org/Graphics/SVG/1.1/DTD/svg11.dtd">
<svg width="100%" height="100%" viewBox="0 0 560 498" version="1.1" xmlns="http://www.w3.org/2000/svg" xmlns:xlink="http://www.w3.org/1999/xlink" xml:space="preserve" style="fill-rule:evenodd;clip-rule:evenodd;stroke-linejoin:round;stroke-miterlimit:1.41421;">
    <g transform="matrix(1,0,0,1,-20,-51)">
        <g id="Coins-x3-Coins-Icon" transform="matrix(7.2027,0,0,7.2027,-5629.27,-6039.08)">
            <path d="M861.961,901.342L861.961,907.742C861.955,907.754 861.948,907.766 861.942,907.778C861.342,911.55 854.208,914.532 845.508,914.532C837.055,914.532 830.081,911.718 829.141,908.099L829.141,901.699C830.081,905.318 837.055,908.132 845.508,908.132C854.208,908.132 861.342,905.15 861.942,901.378C861.948,901.366 861.955,901.353 861.961,901.342ZM817.263,893.508L817.263,899.908C817.256,899.919 817.25,899.932 817.243,899.944C816.644,903.716 809.51,906.698 800.809,906.698C792.357,906.698 785.382,903.884 784.442,900.265L784.442,893.865C785.382,897.484 792.357,900.298 800.809,900.298C809.51,900.298 816.644,897.316 817.243,893.544C817.25,893.532 817.256,893.519 817.263,893.508ZM861.961,892.375L861.961,898.775C861.955,898.787 861.948,898.799 861.942,898.812C861.342,902.584 854.208,905.566 845.508,905.566C837.055,905.566 830.081,902.751 829.141,899.132L829.141,892.732C830.081,896.351 837.055,899.166 845.508,899.166C854.208,899.166 861.342,896.183 861.942,892.412C861.948,892.399 861.955,892.387 861.961,892.375ZM817.263,884.563L817.263,890.963C817.256,890.975 817.25,890.987 817.243,890.999C816.644,894.771 809.51,897.753 800.809,897.753C792.357,897.753 785.382,894.939 784.442,891.32L784.442,884.92C785.382,888.539 792.357,891.353 800.809,891.353C809.51,891.353 816.644,888.371 817.243,884.599C817.25,884.587 817.256,884.575 817.263,884.563ZM861.961,883.408L861.961,889.808C861.955,889.82 861.948,889.832 861.942,889.845C861.342,893.617 854.208,896.599 845.508,896.599C837.055,896.599 830.081,893.784 829.141,890.165L829.141,883.765C830.081,887.384 837.055,890.199 845.508,890.199C854.208,890.199 861.342,887.217 861.942,883.445C861.948,883.432 861.955,883.42 861.961,883.408ZM825.958,896.012C825.285,896.049 824.6,896.068 823.905,896.068C822.66,896.068 821.447,896.007 820.281,895.891L820.266,889.49C821.437,889.606 822.655,889.668 823.905,889.668C824.608,889.668 825.301,889.648 825.98,889.611L825.958,896.012ZM800.794,874.271C809.818,874.271 817.145,877.528 817.145,881.54C817.145,885.552 809.818,888.809 800.794,888.809C791.769,888.809 784.442,885.552 784.442,881.54C784.442,877.528 791.769,874.271 800.794,874.271ZM845.492,873.095C854.517,873.095 861.844,876.352 861.844,880.364C861.844,884.375 854.517,887.632 845.492,887.632C836.468,887.632 829.141,884.375 829.141,880.364C829.141,876.352 836.468,873.095 845.492,873.095ZM825.989,887.044C825.307,887.082 824.611,887.101 823.905,887.101C822.653,887.101 821.432,887.04 820.26,886.922L820.244,880.521C821.422,880.639 822.647,880.701 823.905,880.701C824.619,880.701 825.322,880.681 826.012,880.642L825.989,887.044ZM840.359,870.374C832.488,871.299 826.589,874.367 826.074,878.072C825.364,878.113 824.64,878.135 823.905,878.135C822.431,878.135 821.001,878.049 819.641,877.888C818.123,875.129 813.554,872.893 807.602,871.918C807.579,871.846 807.557,871.774 807.538,871.701L807.538,865.301C808.478,868.92 815.453,871.735 823.905,871.735C832.606,871.735 839.74,868.753 840.339,864.981C840.346,864.968 840.353,864.956 840.359,864.944L840.359,870.374ZM840.359,855.977L840.359,862.378C840.353,862.389 840.346,862.401 840.339,862.414C839.74,866.186 832.606,869.168 823.905,869.168C815.453,869.168 808.478,866.353 807.538,862.734L807.538,856.334C808.478,859.953 815.453,862.768 823.905,862.768C832.606,862.768 839.74,859.786 840.339,856.014C840.346,856.001 840.353,855.989 840.359,855.977ZM823.89,845.664C832.914,845.664 840.241,848.921 840.241,852.933C840.241,856.944 832.914,860.201 823.89,860.201C814.865,860.201 807.538,856.944 807.538,852.933C807.538,848.921 814.865,845.664 823.89,845.664Z" style="fill:white;"/>
        </g>
    </g>
</svg>
