<?xml version="1.0" encoding="UTF-8" standalone="no"?>
<!DOCTYPE svg PUBLIC "-//W3C//DTD SVG 1.1//EN" "http://www.w3.org/Graphics/SVG/1.1/DTD/svg11.dtd">
<svg width="100%" height="100%" viewBox="0 0 438 552" version="1.1" xmlns="http://www.w3.org/2000/svg" xmlns:xlink="http://www.w3.org/1999/xlink" xml:space="preserve" style="fill-rule:evenodd;clip-rule:evenodd;stroke-linejoin:round;stroke-miterlimit:1.41421;">
    <g transform="matrix(1,0,0,1,-81,-24)">
        <g id="Coins-x4-Icon" transform="matrix(11.1658,0,0,11.0336,-23220.3,-2273.53)">
            <path d="M2126.03,242.326L2126.03,250.046C2126.02,250.06 2126.01,250.075 2126.01,250.09C2125.29,254.64 2116.79,258.237 2106.42,258.237C2096.34,258.237 2088.03,254.842 2086.91,250.476L2086.91,242.756C2088.03,247.122 2096.34,250.517 2106.42,250.517C2116.79,250.517 2125.29,246.92 2126.01,242.37C2126.01,242.355 2126.02,242.34 2126.03,242.326ZM2126.03,231.51L2126.03,239.23C2126.02,239.244 2126.01,239.259 2126.01,239.274C2125.29,243.824 2116.79,247.421 2106.42,247.421C2096.34,247.421 2088.03,244.026 2086.91,239.66L2086.91,231.94C2088.03,236.306 2096.34,239.701 2106.42,239.701C2116.79,239.701 2125.29,236.104 2126.01,231.554C2126.01,231.539 2126.02,231.524 2126.03,231.51ZM2126.03,220.694L2126.03,228.414C2126.02,228.428 2126.01,228.443 2126.01,228.458C2125.29,233.008 2116.79,236.605 2106.42,236.605C2096.34,236.605 2088.03,233.21 2086.91,228.844L2086.91,221.124C2088.03,225.49 2096.34,228.885 2106.42,228.885C2116.79,228.885 2125.29,225.288 2126.01,220.738C2126.01,220.723 2126.02,220.708 2126.03,220.694ZM2106.4,208.253C2117.16,208.253 2125.89,212.182 2125.89,217.021C2125.89,221.86 2117.16,225.789 2106.4,225.789C2095.64,225.789 2086.91,221.86 2086.91,217.021C2086.91,212.182 2095.64,208.253 2106.4,208.253Z" style="fill:white;"/>
        </g>
    </g>
</svg>
