<?xml version="1.0" encoding="UTF-8" standalone="no"?>
<!DOCTYPE svg PUBLIC "-//W3C//DTD SVG 1.1//EN" "http://www.w3.org/Graphics/SVG/1.1/DTD/svg11.dtd">
<svg width="100%" height="100%" viewBox="0 0 536 530" version="1.1" xmlns="http://www.w3.org/2000/svg" xmlns:xlink="http://www.w3.org/1999/xlink" xml:space="preserve" style="fill-rule:evenodd;clip-rule:evenodd;stroke-linejoin:round;stroke-miterlimit:1.41421;">
    <g transform="matrix(1,0,0,1,-32,-35)">
        <g id="Coin-Empty-Icon" transform="matrix(8.64773,0,0,8.64773,-10506.1,-7321.25)">
            <path d="M1249.59,850.752C1266.65,850.752 1280.51,864.44 1280.51,881.301C1280.51,898.161 1266.65,911.85 1249.59,911.85C1232.53,911.85 1218.68,898.161 1218.68,881.301C1218.68,864.44 1232.53,850.752 1249.59,850.752ZM1249.59,856.862C1263.24,856.862 1274.32,867.813 1274.32,881.301C1274.32,894.789 1263.24,905.74 1249.59,905.74C1235.94,905.74 1224.86,894.789 1224.86,881.301C1224.86,867.813 1235.94,856.862 1249.59,856.862ZM1249.59,860.896C1260.99,860.896 1270.24,870.039 1270.24,881.301C1270.24,892.563 1260.99,901.706 1249.59,901.706C1238.19,901.706 1228.94,892.563 1228.94,881.301C1228.94,870.039 1238.19,860.896 1249.59,860.896Z" style="fill:white;"/>
        </g>
    </g>
</svg>
