<?xml version="1.0" encoding="UTF-8" standalone="no"?>
<!DOCTYPE svg PUBLIC "-//W3C//DTD SVG 1.1//EN" "http://www.w3.org/Graphics/SVG/1.1/DTD/svg11.dtd">
<svg width="100%" height="100%" viewBox="0 0 452 554" version="1.1" xmlns="http://www.w3.org/2000/svg" xmlns:xlink="http://www.w3.org/1999/xlink" xml:space="preserve" style="fill-rule:evenodd;clip-rule:evenodd;stroke-linejoin:round;stroke-miterlimit:1.41421;">
    <g transform="matrix(1,0,0,1,-74,-23)">
        <g id="Coins-Sack-Pound-Icon" transform="matrix(7.88652,0,0,7.88652,-11985.3,-6486.77)">
            <path d="M1566.31,850.896C1586.88,862.058 1601.84,895.552 1558.08,895.552C1514.32,895.552 1527.93,863.11 1548.47,850.896L1566.31,850.896ZM1550.93,879.113L1550.93,882.515L1564.56,882.515L1564.56,879.113L1556.81,879.113C1557.08,878.819 1557.28,878.49 1557.39,878.124C1557.51,877.759 1557.56,877.337 1557.56,876.858L1557.5,875.447L1561.27,875.447L1561.27,872.159L1557.36,872.159L1557.24,869.425C1557.24,868.711 1557.38,868.184 1557.64,867.844C1557.9,867.504 1558.25,867.334 1558.68,867.334C1558.92,867.334 1559.15,867.368 1559.36,867.435C1559.57,867.502 1559.76,867.611 1559.91,867.762C1560.07,867.914 1560.19,868.115 1560.28,868.367C1560.37,868.619 1560.42,868.934 1560.42,869.312L1564.62,869.312C1564.62,868.506 1564.49,867.773 1564.23,867.114C1563.97,866.454 1563.58,865.887 1563.06,865.413C1562.55,864.938 1561.92,864.573 1561.16,864.317C1560.41,864.061 1559.55,863.933 1558.57,863.933C1557.69,863.933 1556.89,864.056 1556.18,864.304C1555.47,864.552 1554.86,864.909 1554.36,865.375C1553.85,865.841 1553.46,866.416 1553.19,867.101C1552.92,867.786 1552.78,868.56 1552.78,869.425L1552.86,872.159L1550.89,872.159L1550.89,875.447L1552.96,875.447L1553.02,877.148C1553.02,877.383 1553.02,877.608 1553.01,877.822C1553,878.036 1552.97,878.232 1552.92,878.408C1552.87,878.584 1552.79,878.733 1552.69,878.855C1552.58,878.977 1552.43,879.063 1552.25,879.113L1550.93,879.113ZM1567.12,846.784L1549.04,846.784L1539.71,838.078C1539.71,838.078 1540.17,835.138 1542.75,833.216C1543.42,832.711 1544.07,832.325 1544.69,832.03L1552.37,841.535L1547.77,827.895C1550.52,826.438 1554.13,825.554 1558.08,825.554C1562.02,825.554 1565.63,826.438 1568.39,827.895L1563.79,841.535L1571.47,832.03C1572.08,832.325 1572.74,832.711 1573.41,833.216C1575.98,835.138 1576.44,838.078 1576.44,838.078L1567.12,846.784Z" style="fill:white;"/>
        </g>
    </g>
</svg>
