<?xml version="1.0" encoding="UTF-8" standalone="no"?>
<!DOCTYPE svg PUBLIC "-//W3C//DTD SVG 1.1//EN" "http://www.w3.org/Graphics/SVG/1.1/DTD/svg11.dtd">
<svg width="100%" height="100%" viewBox="0 0 452 554" version="1.1" xmlns="http://www.w3.org/2000/svg" xmlns:xlink="http://www.w3.org/1999/xlink" xml:space="preserve" style="fill-rule:evenodd;clip-rule:evenodd;stroke-linejoin:round;stroke-miterlimit:1.41421;">
    <g transform="matrix(1,0,0,1,-74,-23)">
        <g id="Coins-Sack-Euro-Icon" transform="matrix(7.88652,0,0,7.88652,-11136.2,-6486.77)">
            <path d="M1458.64,850.896C1479.21,862.058 1494.17,895.552 1450.41,895.552C1406.65,895.552 1420.27,863.11 1440.81,850.896L1458.64,850.896ZM1444.99,876.446C1445.03,877.726 1445.28,878.846 1445.73,879.808C1446.18,880.77 1446.8,881.573 1447.58,882.218C1448.35,882.862 1449.27,883.348 1450.32,883.675C1451.37,884.003 1452.52,884.166 1453.77,884.166C1454.44,884.166 1455.1,884.127 1455.74,884.049C1456.39,883.971 1457.01,883.863 1457.62,883.727L1456.99,879.786C1456.59,879.943 1456.17,880.055 1455.75,880.123C1455.33,880.192 1454.88,880.226 1454.41,880.226C1453.8,880.226 1453.23,880.172 1452.73,880.065C1452.22,879.957 1451.78,879.762 1451.41,879.479C1451.04,879.195 1450.74,878.81 1450.52,878.321C1450.3,877.833 1450.18,877.208 1450.15,876.446L1454.72,876.446L1454.72,874.103L1450.15,874.103L1450.15,872.316L1454.72,872.316L1454.72,869.986L1450.19,869.986C1450.26,869.313 1450.41,868.736 1450.63,868.258C1450.86,867.779 1451.15,867.391 1451.52,867.093C1451.89,866.796 1452.33,866.578 1452.84,866.442C1453.34,866.305 1453.91,866.236 1454.54,866.236C1454.95,866.236 1455.38,866.278 1455.82,866.361C1456.26,866.444 1456.65,866.554 1456.99,866.691L1457.62,862.735C1457.06,862.599 1456.5,862.489 1455.93,862.406C1455.36,862.323 1454.79,862.281 1454.22,862.281C1452.93,862.281 1451.75,862.447 1450.67,862.779C1449.59,863.111 1448.65,863.6 1447.85,864.244C1447.05,864.889 1446.4,865.692 1445.91,866.654C1445.43,867.616 1445.13,868.727 1445.04,869.986L1442.57,869.986L1442.57,872.316L1444.99,872.316L1444.99,874.103L1442.57,874.103L1442.57,876.446L1444.99,876.446ZM1459.45,846.784L1441.37,846.784L1432.05,838.078C1432.05,838.078 1432.51,835.138 1435.08,833.216C1435.76,832.711 1436.41,832.325 1437.02,832.03L1444.7,841.535L1440.1,827.895C1442.86,826.438 1446.47,825.554 1450.41,825.554C1454.36,825.554 1457.97,826.438 1460.72,827.895L1456.12,841.535L1463.81,832.03C1464.42,832.325 1465.07,832.711 1465.75,833.216C1468.32,835.138 1468.78,838.078 1468.78,838.078L1459.45,846.784Z" style="fill:white;"/>
        </g>
    </g>
</svg>
