<?xml version="1.0" encoding="UTF-8" standalone="no"?>
<!DOCTYPE svg PUBLIC "-//W3C//DTD SVG 1.1//EN" "http://www.w3.org/Graphics/SVG/1.1/DTD/svg11.dtd">
<svg width="100%" height="100%" viewBox="0 0 536 530" version="1.1" xmlns="http://www.w3.org/2000/svg" xmlns:xlink="http://www.w3.org/1999/xlink" xml:space="preserve" style="fill-rule:evenodd;clip-rule:evenodd;stroke-linejoin:round;stroke-miterlimit:1.41421;">
    <g transform="matrix(1,0,0,1,-32,-35)">
        <g id="Coin-Pound-Icon" transform="matrix(8.64773,0,0,8.64773,-9595.72,-7321.25)">
            <path d="M1144.31,850.752C1161.38,850.752 1175.23,864.44 1175.23,881.301C1175.23,898.161 1161.38,911.85 1144.31,911.85C1127.25,911.85 1113.4,898.161 1113.4,881.301C1113.4,864.44 1127.25,850.752 1144.31,850.752ZM1144.31,856.862C1157.96,856.862 1169.05,867.813 1169.05,881.301C1169.05,894.789 1157.96,905.74 1144.31,905.74C1130.66,905.74 1119.58,894.789 1119.58,881.301C1119.58,867.813 1130.66,856.862 1144.31,856.862ZM1144.31,860.896C1155.71,860.896 1164.96,870.039 1164.96,881.301C1164.96,892.563 1155.71,901.706 1144.31,901.706C1132.92,901.706 1123.66,892.563 1123.66,881.301C1123.66,870.039 1132.92,860.896 1144.31,860.896ZM1137.83,886.659L1137.83,890.06L1151.46,890.06L1151.46,886.659L1143.71,886.659C1143.98,886.365 1144.17,886.035 1144.29,885.67C1144.4,885.304 1144.46,884.882 1144.46,884.404L1144.4,882.993L1148.17,882.993L1148.17,879.704L1144.26,879.704L1144.14,876.971C1144.14,876.257 1144.27,875.73 1144.54,875.39C1144.8,875.049 1145.15,874.879 1145.58,874.879C1145.82,874.879 1146.05,874.913 1146.26,874.98C1146.47,875.047 1146.66,875.157 1146.81,875.308C1146.97,875.459 1147.09,875.66 1147.18,875.912C1147.27,876.164 1147.32,876.479 1147.32,876.857L1151.52,876.857C1151.52,876.051 1151.39,875.318 1151.13,874.659C1150.87,874 1150.48,873.433 1149.96,872.958C1149.45,872.484 1148.82,872.118 1148.06,871.862C1147.31,871.606 1146.44,871.478 1145.47,871.478C1144.58,871.478 1143.79,871.602 1143.08,871.849C1142.37,872.097 1141.76,872.454 1141.25,872.92C1140.75,873.386 1140.36,873.962 1140.09,874.646C1139.82,875.331 1139.68,876.106 1139.68,876.971L1139.76,879.704L1137.79,879.704L1137.79,882.993L1139.86,882.993L1139.92,884.693C1139.92,884.929 1139.92,885.153 1139.91,885.367C1139.9,885.582 1139.87,885.777 1139.82,885.953C1139.77,886.13 1139.69,886.279 1139.58,886.4C1139.48,886.522 1139.33,886.608 1139.14,886.659L1137.83,886.659Z" style="fill:white;"/>
        </g>
    </g>
</svg>
