<?xml version="1.0" encoding="UTF-8" standalone="no"?>
<!DOCTYPE svg PUBLIC "-//W3C//DTD SVG 1.1//EN" "http://www.w3.org/Graphics/SVG/1.1/DTD/svg11.dtd">
<svg width="100%" height="100%" viewBox="0 0 452 554" version="1.1" xmlns="http://www.w3.org/2000/svg" xmlns:xlink="http://www.w3.org/1999/xlink" xml:space="preserve" style="fill-rule:evenodd;clip-rule:evenodd;stroke-linejoin:round;stroke-miterlimit:1.41421;">
    <g transform="matrix(1,0,0,1,-74,-23)">
        <g id="Coins-Sack-Dollar-Icon" transform="matrix(7.88652,0,0,7.88652,-10307.5,-6486.77)">
            <path d="M1353.57,850.896C1374.14,862.058 1389.1,895.552 1345.34,895.552C1301.57,895.552 1315.19,863.11 1335.73,850.896L1353.57,850.896ZM1346.54,861.237L1344.51,861.237L1344.51,863.895C1343.71,863.97 1342.98,864.145 1342.33,864.418C1341.67,864.691 1341.11,865.047 1340.65,865.488C1340.18,865.929 1339.82,866.448 1339.56,867.044C1339.31,867.641 1339.18,868.296 1339.18,869.01C1339.18,869.866 1339.32,870.597 1339.6,871.202C1339.88,871.806 1340.28,872.331 1340.79,872.777C1341.3,873.222 1341.9,873.616 1342.61,873.961C1343.32,874.305 1344.09,874.645 1344.93,874.981C1345.33,875.149 1345.67,875.317 1345.95,875.485C1346.23,875.653 1346.46,875.836 1346.63,876.033C1346.81,876.231 1346.93,876.455 1347.02,876.707C1347.1,876.959 1347.14,877.257 1347.14,877.602C1347.14,877.87 1347.1,878.12 1347.03,878.351C1346.96,878.582 1346.84,878.784 1346.69,878.956C1346.54,879.128 1346.34,879.265 1346.11,879.365C1345.88,879.466 1345.6,879.517 1345.28,879.517C1344.95,879.517 1344.64,879.468 1344.34,879.372C1344.05,879.275 1343.78,879.113 1343.55,878.887C1343.32,878.66 1343.14,878.36 1343.01,877.986C1342.87,877.612 1342.8,877.144 1342.8,876.581L1338.51,876.581C1338.51,877.614 1338.67,878.498 1338.99,879.233C1339.31,879.968 1339.74,880.579 1340.28,881.066C1340.81,881.553 1341.43,881.923 1342.12,882.175C1342.81,882.427 1343.52,882.591 1344.26,882.666L1344.26,885.211L1346.28,885.211L1346.28,882.679C1347.06,882.603 1347.76,882.433 1348.39,882.169C1349.03,881.904 1349.57,881.555 1350.02,881.123C1350.47,880.69 1350.82,880.178 1351.06,879.586C1351.31,878.994 1351.43,878.324 1351.43,877.576C1351.43,876.728 1351.29,876.002 1351,875.397C1350.71,874.792 1350.31,874.263 1349.8,873.81C1349.29,873.356 1348.68,872.951 1347.98,872.594C1347.28,872.237 1346.52,871.886 1345.69,871.542C1345.27,871.357 1344.92,871.174 1344.63,870.994C1344.35,870.813 1344.12,870.626 1343.95,870.433C1343.78,870.24 1343.66,870.03 1343.59,869.803C1343.52,869.577 1343.49,869.32 1343.49,869.035C1343.49,868.766 1343.52,868.512 1343.59,868.273C1343.66,868.033 1343.76,867.825 1343.9,867.649C1344.04,867.473 1344.23,867.332 1344.45,867.227C1344.68,867.122 1344.95,867.07 1345.26,867.07C1345.54,867.07 1345.8,867.12 1346.04,867.221C1346.28,867.321 1346.49,867.483 1346.66,867.706C1346.84,867.928 1346.98,868.212 1347.08,868.556C1347.18,868.9 1347.23,869.312 1347.23,869.791L1351.54,869.791C1351.54,868.968 1351.42,868.22 1351.18,867.548C1350.94,866.876 1350.6,866.291 1350.16,865.791C1349.73,865.291 1349.2,864.886 1348.58,864.575C1347.97,864.264 1347.29,864.054 1346.54,863.945L1346.54,861.237ZM1354.38,846.784L1336.3,846.784L1326.97,838.078C1326.97,838.078 1327.43,835.138 1330.01,833.216C1330.68,832.711 1331.33,832.325 1331.95,832.03L1339.63,841.535L1335.03,827.895C1337.78,826.438 1341.39,825.554 1345.34,825.554C1349.28,825.554 1352.89,826.438 1355.65,827.895L1351.05,841.535L1358.73,832.03C1359.34,832.325 1359.99,832.711 1360.67,833.216C1363.24,835.138 1363.7,838.078 1363.7,838.078L1354.38,846.784Z" style="fill:white;"/>
        </g>
    </g>
</svg>
