<?xml version="1.0" encoding="UTF-8" standalone="no"?>
<!DOCTYPE svg PUBLIC "-//W3C//DTD SVG 1.1//EN" "http://www.w3.org/Graphics/SVG/1.1/DTD/svg11.dtd">
<svg width="100%" height="100%" viewBox="0 0 478 554" version="1.1" xmlns="http://www.w3.org/2000/svg" xmlns:xlink="http://www.w3.org/1999/xlink" xml:space="preserve" style="fill-rule:evenodd;clip-rule:evenodd;stroke-linejoin:round;stroke-miterlimit:1.41421;">
    <g transform="matrix(1,0,0,1,-61,-23)">
        <g id="Coins-Sack-Plus-Icon" transform="matrix(1.17188,0,0,1.17188,-12.6855,0)">
            <path d="M246.494,191.009C229.722,214.124 219.828,242.548 219.828,273.264C219.828,350.686 282.685,413.543 360.107,413.543C393.639,413.543 424.44,401.752 448.584,382.093C447.149,442.251 395.848,491.536 258.133,491.536C-36.381,491.536 55.283,273.207 193.486,191.009L246.494,191.009ZM360.107,164.408C420.946,164.408 470.266,213.144 470.266,273.264C470.266,333.385 420.946,382.121 360.107,382.121C299.268,382.121 249.948,333.385 249.948,273.264C249.948,213.144 299.268,164.408 360.107,164.408ZM344.124,289.058L344.124,319.708C344.124,328.425 351.285,335.502 360.107,335.502C368.928,335.502 376.09,328.425 376.09,319.708L376.09,289.058L407.106,289.058C415.928,289.058 423.089,281.981 423.089,273.264C423.089,264.548 415.928,257.471 407.106,257.471L376.09,257.471L376.09,226.821C376.09,218.104 368.928,211.027 360.107,211.027C351.285,211.027 344.124,218.104 344.124,226.821L344.124,257.471L313.107,257.471C304.284,257.472 297.124,264.549 297.124,273.264C297.124,281.98 304.284,289.057 313.107,289.058L344.124,289.058ZM272.993,163.34L197.299,163.34L134.527,104.747C134.527,104.747 137.647,84.964 154.95,72.03C159.498,68.63 163.898,66.03 168.016,64.043L219.714,128.011L188.759,36.219C207.301,26.411 231.578,20.464 258.137,20.464C284.696,20.464 308.973,26.411 327.515,36.219L296.56,128.011L348.258,64.043C352.376,66.03 356.777,68.63 361.324,72.03C378.627,84.964 381.747,104.747 381.747,104.747L351.195,133.265C321.747,135.115 294.752,146.068 272.993,163.34Z" style="fill:white;"/>
        </g>
    </g>
</svg>
