<?xml version="1.0" encoding="UTF-8" standalone="no"?>
<!DOCTYPE svg PUBLIC "-//W3C//DTD SVG 1.1//EN" "http://www.w3.org/Graphics/SVG/1.1/DTD/svg11.dtd">
<svg width="100%" height="100%" viewBox="0 0 536 530" version="1.1" xmlns="http://www.w3.org/2000/svg" xmlns:xlink="http://www.w3.org/1999/xlink" xml:space="preserve" style="fill-rule:evenodd;clip-rule:evenodd;stroke-linejoin:round;stroke-miterlimit:1.41421;">
    <g transform="matrix(1,0,0,1,-32,-35)">
        <g id="Coin-Dollar-Icon" transform="matrix(8.64773,0,0,8.64773,-7706.93,-7327.02)">
            <path d="M925.899,851.419C942.962,851.419 956.814,865.107 956.814,881.968C956.814,898.828 942.962,912.517 925.899,912.517C908.837,912.517 894.985,898.828 894.985,881.968C894.985,865.107 908.837,851.419 925.899,851.419ZM925.899,857.528C939.549,857.528 950.631,868.479 950.631,881.968C950.631,895.456 939.549,906.407 925.899,906.407C912.25,906.407 901.168,895.456 901.168,881.968C901.168,868.479 912.25,857.528 925.899,857.528ZM925.899,861.563C937.296,861.563 946.549,870.706 946.549,881.968C946.549,893.229 937.296,902.372 925.899,902.372C914.503,902.372 905.25,893.229 905.25,881.968C905.25,870.706 914.503,861.563 925.899,861.563ZM927.429,869.499L925.402,869.499L925.402,872.157C924.603,872.233 923.877,872.407 923.222,872.68C922.568,872.953 922.007,873.31 921.539,873.751C921.072,874.192 920.711,874.71 920.456,875.307C920.201,875.903 920.073,876.558 920.073,877.272C920.073,878.129 920.213,878.859 920.494,879.464C920.774,880.069 921.17,880.594 921.679,881.039C922.189,881.484 922.797,881.879 923.503,882.223C924.208,882.567 924.982,882.908 925.823,883.244C926.222,883.412 926.562,883.58 926.843,883.747C927.123,883.915 927.351,884.098 927.525,884.296C927.699,884.493 927.827,884.718 927.907,884.97C927.988,885.221 928.029,885.52 928.029,885.864C928.029,886.133 927.992,886.383 927.92,886.614C927.848,886.845 927.735,887.046 927.582,887.218C927.429,887.39 927.236,887.527 927.002,887.628C926.769,887.729 926.49,887.779 926.167,887.779C925.844,887.779 925.534,887.731 925.237,887.634C924.939,887.537 924.676,887.376 924.446,887.149C924.217,886.922 924.034,886.622 923.898,886.248C923.762,885.875 923.694,885.406 923.694,884.844L919.397,884.844C919.397,885.877 919.559,886.761 919.882,887.495C920.205,888.23 920.634,888.841 921.17,889.329C921.705,889.816 922.319,890.185 923.012,890.437C923.704,890.689 924.416,890.853 925.147,890.929L925.147,893.473L927.174,893.473L927.174,890.941C927.948,890.866 928.651,890.695 929.284,890.431C929.918,890.166 930.459,889.818 930.91,889.385C931.36,888.953 931.709,888.44 931.955,887.848C932.202,887.256 932.325,886.586 932.325,885.839C932.325,884.991 932.181,884.264 931.892,883.659C931.603,883.055 931.203,882.525 930.693,882.072C930.183,881.618 929.578,881.213 928.876,880.856C928.175,880.499 927.412,880.149 926.588,879.804C926.163,879.619 925.808,879.437 925.523,879.256C925.239,879.076 925.011,878.889 924.841,878.696C924.671,878.502 924.552,878.292 924.484,878.066C924.416,877.839 924.382,877.583 924.382,877.297C924.382,877.028 924.416,876.774 924.484,876.535C924.552,876.296 924.656,876.088 924.797,875.911C924.937,875.735 925.12,875.594 925.345,875.489C925.57,875.384 925.84,875.332 926.154,875.332C926.435,875.332 926.694,875.382 926.932,875.483C927.17,875.584 927.378,875.745 927.557,875.968C927.735,876.191 927.873,876.474 927.971,876.818C928.069,877.163 928.118,877.574 928.118,878.053L932.427,878.053C932.427,877.23 932.308,876.482 932.07,875.811C931.832,875.139 931.494,874.553 931.057,874.053C930.619,873.553 930.092,873.148 929.476,872.837C928.859,872.527 928.177,872.317 927.429,872.207L927.429,869.499Z" style="fill:white;"/>
        </g>
    </g>
</svg>
