<?xml version="1.0" encoding="UTF-8" standalone="no"?>
<!DOCTYPE svg PUBLIC "-//W3C//DTD SVG 1.1//EN" "http://www.w3.org/Graphics/SVG/1.1/DTD/svg11.dtd">
<svg width="100%" height="100%" viewBox="0 0 478 472" version="1.1" xmlns="http://www.w3.org/2000/svg" xmlns:xlink="http://www.w3.org/1999/xlink" xml:space="preserve" style="fill-rule:evenodd;clip-rule:evenodd;stroke-linejoin:round;stroke-miterlimit:1.41421;">
    <g transform="matrix(1,0,0,1,-61,-64)">
        <g id="Coins-x3-Icon" transform="matrix(12.2074,0,0,12.0629,-24301.8,-2414.68)">
            <path d="M2034.89,228.691L2034.89,236.411C2034.88,236.425 2034.87,236.44 2034.86,236.455C2034.15,241.005 2025.64,244.602 2015.27,244.602C2005.2,244.602 1996.88,241.207 1995.77,236.841L1995.77,229.121C1996.88,233.487 2005.2,236.882 2015.27,236.882C2025.64,236.882 2034.15,233.285 2034.86,228.735C2034.87,228.72 2034.88,228.705 2034.89,228.691ZM2034.89,217.901L2034.89,225.621C2034.88,225.635 2034.87,225.65 2034.86,225.665C2034.15,230.215 2025.64,233.812 2015.27,233.812C2005.2,233.812 1996.88,230.417 1995.77,226.052L1995.77,218.332C1996.88,222.697 2005.2,226.092 2015.27,226.092C2025.64,226.092 2034.15,222.495 2034.86,217.945C2034.87,217.93 2034.88,217.915 2034.89,217.901ZM2015.26,205.487C2026.01,205.487 2034.75,209.416 2034.75,214.255C2034.75,219.094 2026.01,223.023 2015.26,223.023C2004.5,223.023 1995.77,219.094 1995.77,214.255C1995.77,209.416 2004.5,205.487 2015.26,205.487Z" style="fill:white;"/>
        </g>
    </g>
</svg>
