<?xml version="1.0" encoding="UTF-8" standalone="no"?>
<!DOCTYPE svg PUBLIC "-//W3C//DTD SVG 1.1//EN" "http://www.w3.org/Graphics/SVG/1.1/DTD/svg11.dtd">
<svg width="100%" height="100%" viewBox="0 0 529 524" version="1.1" xmlns="http://www.w3.org/2000/svg" xmlns:xlink="http://www.w3.org/1999/xlink" xml:space="preserve" style="fill-rule:evenodd;clip-rule:evenodd;stroke-linejoin:round;stroke-miterlimit:1.41421;">
    <g transform="matrix(1,0,0,1,-35,-38)">
        <g id="Compass-Icon" transform="matrix(7.76037,0,0,7.76037,-4415.78,-7300.76)">
            <path d="M607.62,945.796C626.407,945.796 641.659,960.868 641.659,979.432C641.659,997.997 626.407,1013.07 607.62,1013.07C588.833,1013.07 573.581,997.997 573.581,979.432C573.581,960.868 588.833,945.796 607.62,945.796ZM607.62,950.842C623.589,950.842 636.553,963.653 636.553,979.432C636.553,995.212 623.589,1008.02 607.62,1008.02C591.651,1008.02 578.687,995.212 578.687,979.432C578.687,963.653 591.651,950.842 607.62,950.842ZM615.56,988.009L615.595,988.044L615.542,988.061L615.524,988.114L615.489,988.079L590.792,996.214L599.024,971.809L598.988,971.774L599.042,971.756L599.059,971.704L599.095,971.739L623.792,963.604L615.56,988.009ZM596.275,990.795L612.593,985.217L601.92,974.671L596.275,990.795Z" style="fill:white;"/>
        </g>
    </g>
</svg>
