<?xml version="1.0" encoding="UTF-8" standalone="no"?>
<!DOCTYPE svg PUBLIC "-//W3C//DTD SVG 1.1//EN" "http://www.w3.org/Graphics/SVG/1.1/DTD/svg11.dtd">
<svg width="100%" height="100%" viewBox="0 0 567 506" version="1.1" xmlns="http://www.w3.org/2000/svg" xmlns:xlink="http://www.w3.org/1999/xlink" xml:space="preserve" style="fill-rule:evenodd;clip-rule:evenodd;stroke-linejoin:round;stroke-miterlimit:1.41421;">
    <g transform="matrix(1,0,0,1,-16,-47)">
        <g id="Controller-Icon" transform="matrix(7.5304,0,0,7.5304,-15375.2,-1860.96)">
            <path d="M2081.54,284.931C2088.84,284.73 2093.05,277.956 2102.56,279.084C2115.48,280.617 2126.58,317.273 2112.65,320.086C2097.91,323.065 2100.84,307.652 2082.28,306.659C2082.03,306.646 2081.78,306.628 2081.54,306.606C2081.3,306.628 2081.05,306.646 2080.8,306.659C2062.24,307.652 2065.17,323.065 2050.42,320.086C2036.5,317.273 2047.6,280.617 2060.52,279.084C2070.03,277.956 2074.24,284.73 2081.54,284.931ZM2102.78,301.546C2102.78,303.399 2101.26,304.904 2099.39,304.904C2097.51,304.904 2095.99,303.399 2095.99,301.546C2095.99,299.692 2097.51,298.188 2099.39,298.188C2101.26,298.188 2102.78,299.692 2102.78,301.546ZM2060.59,297.978L2060.59,302.238C2060.59,303.683 2061.78,304.857 2063.24,304.857C2064.7,304.857 2065.89,303.683 2065.89,302.238L2065.89,297.978L2070.2,297.978C2071.66,297.978 2072.85,296.805 2072.85,295.36C2072.85,293.915 2071.66,292.742 2070.2,292.742L2065.89,292.742L2065.89,288.482C2065.89,287.037 2064.7,285.864 2063.24,285.864C2061.78,285.864 2060.59,287.037 2060.59,288.482L2060.59,292.742L2056.28,292.742C2054.82,292.742 2053.63,293.915 2053.63,295.36C2053.63,296.805 2054.82,297.978 2056.28,297.978L2060.59,297.978ZM2092.23,291.12C2094.11,291.12 2095.63,292.624 2095.63,294.478C2095.63,296.331 2094.11,297.836 2092.23,297.836C2090.36,297.836 2088.84,296.331 2088.84,294.478C2088.84,292.624 2090.36,291.12 2092.23,291.12ZM2106.54,291.12C2108.41,291.12 2109.94,292.624 2109.94,294.478C2109.94,296.331 2108.41,297.836 2106.54,297.836C2104.66,297.836 2103.14,296.331 2103.14,294.478C2103.14,292.624 2104.66,291.12 2106.54,291.12ZM2102.78,287.41C2102.78,289.263 2101.26,290.768 2099.39,290.768C2097.51,290.768 2095.99,289.263 2095.99,287.41C2095.99,285.557 2097.51,284.052 2099.39,284.052C2101.26,284.052 2102.78,285.557 2102.78,287.41ZM2110.84,255.171C2110.86,253.109 2115.08,252.454 2115.08,255.837C2115.08,259.221 2113.36,266.805 2106.72,269.294C2100.08,271.784 2094.58,270.129 2090.52,271.329C2083.82,273.309 2084.22,279.73 2084.22,279.73L2079.15,279.849C2079.15,279.849 2080.17,271.606 2085.7,268.626C2092.39,265.023 2095.69,267.63 2103.15,265.655C2109.14,264.069 2110.83,257.695 2110.84,255.171Z" style="fill:white;"/>
        </g>
    </g>
</svg>
