<?xml version="1.0" encoding="UTF-8" standalone="no"?>
<!DOCTYPE svg PUBLIC "-//W3C//DTD SVG 1.1//EN" "http://www.w3.org/Graphics/SVG/1.1/DTD/svg11.dtd">
<svg width="100%" height="100%" viewBox="0 0 562 332" version="1.1" xmlns="http://www.w3.org/2000/svg" xmlns:xlink="http://www.w3.org/1999/xlink" xml:space="preserve" style="fill-rule:evenodd;clip-rule:evenodd;stroke-linejoin:round;stroke-miterlimit:1.41421;">
    <g transform="matrix(1,0,0,1,-19,-134)">
        <g id="Credit-Pound-Icon" transform="matrix(7.73141,0,0,7.73141,-15058.7,-6513.69)">
            <path d="M2014.71,902.678L1952.03,902.678C1951.04,902.678 1950.23,901.881 1950.23,900.899L1950.23,868.186C1950.23,867.204 1951.04,866.407 1952.03,866.407L2014.71,866.407C2015.7,866.407 2016.51,867.204 2016.51,868.186L2016.51,900.899C2016.51,901.881 2015.7,902.677 2014.71,902.678ZM2013.45,868.853L1953.29,868.853C1953.01,868.854 1952.78,869.079 1952.78,869.357L1952.78,899.728C1952.78,900.006 1953.01,900.231 1953.29,900.231L2013.45,900.231C2013.73,900.231 2013.96,900.006 2013.96,899.728L2013.96,869.357C2013.96,869.079 2013.73,868.854 2013.45,868.853ZM1983.21,872.525C1989.91,872.525 1995.34,877.898 1995.34,884.517C1995.34,891.135 1989.91,896.508 1983.21,896.508C1976.51,896.508 1971.07,891.135 1971.07,884.517C1971.07,877.898 1976.51,872.525 1983.21,872.525ZM2021.04,896.194L2020.29,896.194L2020.29,876.547C2020.29,876.539 2020.29,876.532 2020.29,876.524L2020.29,862.633C2020.29,862.484 2020.17,862.363 2020.02,862.362L1956.56,862.462L1956.56,861.703C1956.56,860.721 1957.37,859.924 1958.36,859.924L2021.04,859.924C2022.03,859.924 2022.84,860.721 2022.84,861.703L2022.84,894.416C2022.84,895.397 2022.03,896.194 2021.04,896.194ZM1988.11,881.722C1988.11,881.146 1988.02,880.623 1987.83,880.152C1987.64,879.681 1987.36,879.276 1987,878.937C1986.63,878.598 1986.18,878.337 1985.64,878.154C1985.1,877.971 1984.49,877.88 1983.79,877.88C1983.16,877.88 1982.59,877.968 1982.08,878.145C1981.57,878.322 1981.14,878.577 1980.78,878.91C1980.42,879.243 1980.14,879.654 1979.94,880.143C1979.75,880.632 1979.65,881.185 1979.65,881.803L1979.71,883.756L1978.31,883.756L1978.31,886.105L1979.78,886.105L1979.83,887.32C1979.83,887.488 1979.82,887.648 1979.82,887.801C1979.81,887.954 1979.79,888.094 1979.75,888.22C1979.72,888.346 1979.66,888.452 1979.58,888.539C1979.51,888.626 1979.4,888.687 1979.27,888.723L1978.33,888.723L1978.33,891.153L1988.07,891.153L1988.07,888.723L1982.53,888.723C1982.73,888.513 1982.86,888.278 1982.94,888.017C1983.03,887.756 1983.07,887.455 1983.07,887.113L1983.02,886.105L1985.72,886.105L1985.72,883.756L1982.92,883.756L1982.84,881.803C1982.84,881.293 1982.93,880.917 1983.12,880.674C1983.31,880.431 1983.56,880.31 1983.87,880.31C1984.04,880.31 1984.2,880.334 1984.35,880.382C1984.5,880.43 1984.64,880.508 1984.75,880.616C1984.86,880.724 1984.95,880.868 1985.01,881.048C1985.08,881.227 1985.11,881.452 1985.11,881.722L1988.11,881.722Z" style="fill:white;"/>
        </g>
    </g>
</svg>
