<?xml version="1.0" encoding="UTF-8" standalone="no"?>
<!DOCTYPE svg PUBLIC "-//W3C//DTD SVG 1.1//EN" "http://www.w3.org/Graphics/SVG/1.1/DTD/svg11.dtd">
<svg width="100%" height="100%" viewBox="0 0 562 332" version="1.1" xmlns="http://www.w3.org/2000/svg" xmlns:xlink="http://www.w3.org/1999/xlink" xml:space="preserve" style="fill-rule:evenodd;clip-rule:evenodd;stroke-linejoin:round;stroke-miterlimit:1.41421;">
    <g transform="matrix(1,0,0,1,-19,-134)">
        <g id="Credit-Crown-Icon" transform="matrix(7.73141,0,0,7.73141,-15872.7,-6513.69)">
            <path d="M2119.99,902.678L2057.31,902.678C2056.32,902.678 2055.51,901.881 2055.51,900.899L2055.51,868.186C2055.51,867.204 2056.32,866.407 2057.31,866.407L2119.99,866.407C2120.98,866.407 2121.79,867.204 2121.79,868.186L2121.79,900.899C2121.79,901.881 2120.98,902.677 2119.99,902.678ZM2118.73,868.853L2058.57,868.853C2058.28,868.854 2058.06,869.079 2058.06,869.357L2058.06,899.728C2058.06,900.006 2058.29,900.231 2058.57,900.231L2118.73,900.231C2119.01,900.231 2119.24,900.006 2119.24,899.728L2119.24,869.357C2119.24,869.079 2119.01,868.854 2118.73,868.853ZM2088.49,872.525C2095.18,872.525 2100.62,877.898 2100.62,884.517C2100.62,891.135 2095.18,896.508 2088.49,896.508C2081.79,896.508 2076.35,891.135 2076.35,884.517C2076.35,877.898 2081.79,872.525 2088.49,872.525ZM2126.32,896.194L2125.56,896.194L2125.57,876.547C2125.57,876.539 2125.57,876.532 2125.57,876.524L2125.57,862.633C2125.57,862.484 2125.45,862.363 2125.3,862.362L2061.84,862.462L2061.84,861.703C2061.84,860.721 2062.65,859.924 2063.64,859.924L2126.32,859.924C2127.31,859.924 2128.12,860.721 2128.12,861.703L2128.12,894.416C2128.12,895.397 2127.31,896.194 2126.32,896.194ZM2093.19,890.101L2095.03,880.973L2091.29,883.687L2088.47,878.932L2085.68,883.687L2081.95,880.973L2083.78,890.101L2093.19,890.101Z" style="fill:white;"/>
        </g>
    </g>
</svg>
