<?xml version="1.0" encoding="UTF-8" standalone="no"?>
<!DOCTYPE svg PUBLIC "-//W3C//DTD SVG 1.1//EN" "http://www.w3.org/Graphics/SVG/1.1/DTD/svg11.dtd">
<svg width="100%" height="100%" viewBox="0 0 562 332" version="1.1" xmlns="http://www.w3.org/2000/svg" xmlns:xlink="http://www.w3.org/1999/xlink" xml:space="preserve" style="fill-rule:evenodd;clip-rule:evenodd;stroke-linejoin:round;stroke-miterlimit:1.41421;">
    <g transform="matrix(1,0,0,1,-19,-134)">
        <g id="Credit-Euro-Icon" transform="matrix(7.73141,0,0,7.73141,-14244.8,-6513.69)">
            <path d="M1909.43,902.678L1846.75,902.678C1845.76,902.678 1844.95,901.881 1844.95,900.899L1844.95,868.186C1844.95,867.204 1845.76,866.407 1846.75,866.407L1909.43,866.407C1910.42,866.407 1911.23,867.204 1911.23,868.186L1911.23,900.899C1911.23,901.881 1910.42,902.677 1909.43,902.678ZM1908.17,868.853L1848.01,868.853C1847.73,868.854 1847.5,869.079 1847.5,869.357L1847.5,899.728C1847.5,900.006 1847.73,900.231 1848.01,900.231L1908.17,900.231C1908.45,900.231 1908.68,900.006 1908.68,899.728L1908.68,869.357C1908.68,869.079 1908.45,868.854 1908.17,868.853ZM1877.93,872.525C1884.63,872.525 1890.07,877.898 1890.07,884.517C1890.07,891.135 1884.63,896.508 1877.93,896.508C1871.23,896.508 1865.8,891.135 1865.8,884.517C1865.8,877.898 1871.23,872.525 1877.93,872.525ZM1915.76,896.194L1915.01,896.194L1915.01,876.547C1915.01,876.539 1915.01,876.532 1915.01,876.524L1915.01,862.633C1915.01,862.484 1914.89,862.363 1914.74,862.362L1851.28,862.462L1851.28,861.703C1851.28,860.721 1852.09,859.924 1853.08,859.924L1915.76,859.924C1916.76,859.924 1917.56,860.721 1917.56,861.703L1917.56,894.416C1917.56,895.397 1916.76,896.194 1915.76,896.194ZM1877.51,882.528C1877.56,882.114 1877.65,881.76 1877.79,881.466C1877.92,881.172 1878.11,880.934 1878.34,880.751C1878.57,880.568 1878.84,880.434 1879.16,880.35C1879.47,880.266 1879.82,880.224 1880.22,880.224C1880.47,880.224 1880.74,880.25 1881.01,880.301C1881.28,880.352 1881.53,880.419 1881.74,880.503L1882.13,878.073C1881.78,877.989 1881.43,877.922 1881.08,877.871C1880.72,877.82 1880.37,877.794 1880.02,877.794C1879.22,877.794 1878.48,877.896 1877.81,878.1C1877.14,878.304 1876.55,878.604 1876.06,879C1875.56,879.396 1875.16,879.89 1874.85,880.481C1874.55,881.072 1874.37,881.754 1874.31,882.528L1872.78,882.528L1872.78,883.959L1874.28,883.959L1874.28,885.056L1872.78,885.056L1872.78,886.496L1874.28,886.496C1874.3,887.282 1874.46,887.971 1874.74,888.561C1875.02,889.152 1875.4,889.646 1875.89,890.042C1876.37,890.438 1876.94,890.736 1877.59,890.937C1878.24,891.138 1878.96,891.239 1879.73,891.239C1880.15,891.239 1880.56,891.215 1880.96,891.167C1881.36,891.119 1881.75,891.053 1882.13,890.969L1881.74,888.548C1881.49,888.644 1881.23,888.713 1880.97,888.755C1880.7,888.797 1880.43,888.818 1880.13,888.818C1879.75,888.818 1879.4,888.785 1879.09,888.719C1878.77,888.653 1878.5,888.533 1878.27,888.359C1878.04,888.185 1877.85,887.948 1877.72,887.648C1877.58,887.348 1877.5,886.964 1877.49,886.496L1880.33,886.496L1880.33,885.056L1877.49,885.056L1877.49,883.959L1880.33,883.959L1880.33,882.528L1877.51,882.528Z" style="fill:white;"/>
        </g>
    </g>
</svg>
