<?xml version="1.0" encoding="UTF-8" standalone="no"?>
<!DOCTYPE svg PUBLIC "-//W3C//DTD SVG 1.1//EN" "http://www.w3.org/Graphics/SVG/1.1/DTD/svg11.dtd">
<svg width="100%" height="100%" viewBox="0 0 562 332" version="1.1" xmlns="http://www.w3.org/2000/svg" xmlns:xlink="http://www.w3.org/1999/xlink" xml:space="preserve" style="fill-rule:evenodd;clip-rule:evenodd;stroke-linejoin:round;stroke-miterlimit:1.41421;">
    <g transform="matrix(1,0,0,1,-19,-134)">
        <g id="Credit-Dollar-Icon" transform="matrix(7.73141,0,0,7.73141,-13430.8,-6513.69)">
            <path d="M1804.15,902.678L1741.48,902.678C1740.48,902.678 1739.68,901.881 1739.68,900.899L1739.68,868.186C1739.68,867.204 1740.48,866.407 1741.48,866.407L1804.15,866.407C1805.15,866.407 1805.95,867.204 1805.95,868.186L1805.95,900.899C1805.95,901.881 1805.15,902.677 1804.15,902.678ZM1802.9,868.853L1742.73,868.853C1742.45,868.854 1742.22,869.079 1742.22,869.357L1742.22,899.728C1742.22,900.006 1742.45,900.231 1742.73,900.231L1802.9,900.231C1803.18,900.231 1803.41,900.006 1803.41,899.728L1803.41,869.357C1803.41,869.079 1803.18,868.854 1802.9,868.853ZM1772.65,872.525C1779.35,872.525 1784.79,877.898 1784.79,884.517C1784.79,891.135 1779.35,896.508 1772.65,896.508C1765.96,896.508 1760.52,891.135 1760.52,884.517C1760.52,877.898 1765.96,872.525 1772.65,872.525ZM1810.48,896.194L1809.73,896.194L1809.74,876.547C1809.74,876.539 1809.74,876.532 1809.74,876.524L1809.74,862.633C1809.74,862.484 1809.61,862.363 1809.46,862.362L1746.01,862.462L1746.01,861.703C1746.01,860.721 1746.81,859.924 1747.81,859.924L1810.48,859.924C1811.48,859.924 1812.28,860.721 1812.28,861.703L1812.28,894.416C1812.28,895.397 1811.48,896.194 1810.48,896.194ZM1777.29,881.775C1777.29,881.187 1777.2,880.653 1777.03,880.174C1776.86,879.694 1776.62,879.275 1776.31,878.918C1776,878.561 1775.62,878.272 1775.18,878.05C1774.74,877.828 1774.25,877.678 1773.72,877.6L1773.72,875.665L1772.27,875.665L1772.27,877.564C1771.7,877.618 1771.18,877.742 1770.71,877.937C1770.25,878.132 1769.85,878.387 1769.51,878.702C1769.18,879.017 1768.92,879.388 1768.74,879.814C1768.56,880.24 1768.46,880.708 1768.46,881.217C1768.46,881.829 1768.56,882.351 1768.76,882.783C1768.97,883.215 1769.25,883.59 1769.61,883.908C1769.98,884.226 1770.41,884.508 1770.91,884.754C1771.42,885 1771.97,885.243 1772.57,885.483C1772.86,885.603 1773.1,885.723 1773.3,885.843C1773.5,885.963 1773.66,886.093 1773.79,886.234C1773.91,886.375 1774,886.536 1774.06,886.716C1774.12,886.896 1774.15,887.109 1774.15,887.355C1774.15,887.547 1774.12,887.725 1774.07,887.89C1774.02,888.055 1773.94,888.199 1773.83,888.322C1773.72,888.445 1773.58,888.542 1773.41,888.614C1773.25,888.686 1773.05,888.722 1772.82,888.722C1772.59,888.722 1772.36,888.688 1772.15,888.619C1771.94,888.55 1771.75,888.434 1771.59,888.272C1771.42,888.11 1771.29,887.896 1771.2,887.629C1771.1,887.362 1771.05,887.028 1771.05,886.626L1767.98,886.626C1767.98,887.364 1768.1,887.995 1768.33,888.52C1768.56,889.045 1768.86,889.481 1769.25,889.829C1769.63,890.177 1770.07,890.441 1770.56,890.621C1771.06,890.801 1771.57,890.918 1772.09,890.972L1772.09,892.79L1773.54,892.79L1773.54,890.981C1774.09,890.927 1774.59,890.806 1775.04,890.617C1775.5,890.428 1775.88,890.179 1776.2,889.87C1776.53,889.561 1776.78,889.195 1776.95,888.772C1777.13,888.349 1777.22,887.871 1777.22,887.337C1777.22,886.731 1777.11,886.212 1776.91,885.78C1776.7,885.348 1776.41,884.97 1776.05,884.646C1775.68,884.322 1775.25,884.033 1774.75,883.778C1774.25,883.523 1773.71,883.272 1773.12,883.026C1772.81,882.894 1772.56,882.764 1772.36,882.635C1772.15,882.506 1771.99,882.372 1771.87,882.234C1771.75,882.096 1771.66,881.946 1771.62,881.784C1771.57,881.622 1771.54,881.439 1771.54,881.235C1771.54,881.043 1771.57,880.862 1771.62,880.691C1771.66,880.52 1771.74,880.372 1771.84,880.246C1771.94,880.12 1772.07,880.019 1772.23,879.944C1772.39,879.869 1772.58,879.832 1772.81,879.832C1773.01,879.832 1773.19,879.868 1773.36,879.94C1773.53,880.012 1773.68,880.127 1773.81,880.286C1773.94,880.445 1774.04,880.648 1774.11,880.893C1774.17,881.139 1774.21,881.433 1774.21,881.775L1777.29,881.775Z" style="fill:white;"/>
        </g>
    </g>
</svg>
