<?xml version="1.0" encoding="UTF-8" standalone="no"?>
<!DOCTYPE svg PUBLIC "-//W3C//DTD SVG 1.1//EN" "http://www.w3.org/Graphics/SVG/1.1/DTD/svg11.dtd">
<svg width="100%" height="100%" viewBox="0 0 559 548" version="1.1" xmlns="http://www.w3.org/2000/svg" xmlns:xlink="http://www.w3.org/1999/xlink" xml:space="preserve" style="fill-rule:evenodd;clip-rule:evenodd;stroke-linejoin:round;stroke-miterlimit:1.41421;">
    <g transform="matrix(1,0,0,1,-20,-26)">
        <g id="Cross-Icon" transform="matrix(8.35979,0,0,8.35979,-7429.05,-4580.26)">
            <path d="M927.874,551.052C928.773,551.053 929.503,551.783 929.503,552.682L929.503,560.764L939.633,560.764C940.522,560.764 941.244,561.486 941.244,562.375L941.244,569.041C941.244,569.93 940.522,570.651 939.633,570.651L929.503,570.651L929.503,594.404C942.46,596.194 953.206,604.838 957.865,616.504L891.136,616.504C895.795,604.838 906.541,596.194 919.498,594.404L919.498,570.651L909.368,570.651C908.479,570.651 907.758,569.93 907.758,569.041L907.758,562.375C907.758,561.486 908.479,560.764 909.368,560.764L919.498,560.764L919.498,552.682C919.498,551.783 920.228,551.053 921.128,551.052L927.874,551.052Z" style="fill:white;"/>
        </g>
    </g>
</svg>
