<?xml version="1.0" encoding="UTF-8" standalone="no"?>
<!DOCTYPE svg PUBLIC "-//W3C//DTD SVG 1.1//EN" "http://www.w3.org/Graphics/SVG/1.1/DTD/svg11.dtd">
<svg width="100%" height="100%" viewBox="0 0 389 586" version="1.1" xmlns="http://www.w3.org/2000/svg" xmlns:xlink="http://www.w3.org/1999/xlink" xml:space="preserve" style="fill-rule:evenodd;clip-rule:evenodd;stroke-linejoin:round;stroke-miterlimit:1.41421;">
    <g transform="matrix(1,0,0,1,-5,-8)">
        <g id="Cross-Basic-Icon" transform="matrix(3.06561,0,0,3.06561,-5002.66,-1228.04)">
            <path d="M1711.97,403.357C1714.04,403.357 1715.71,405.032 1715.71,407.096L1715.71,441.239L1756.55,441.239C1758.62,441.24 1760.29,442.915 1760.29,444.979L1760.29,474.898C1760.29,476.962 1758.62,478.638 1756.55,478.638L1715.71,478.638L1715.71,590.546C1715.71,592.61 1714.04,594.286 1711.97,594.286L1682.05,594.286C1679.99,594.286 1678.31,592.61 1678.31,590.546L1678.31,478.638L1637.47,478.638C1635.41,478.638 1633.73,476.962 1633.73,474.898L1633.73,444.979C1633.73,442.915 1635.41,441.24 1637.47,441.239L1678.31,441.239L1678.31,407.096C1678.31,405.032 1679.99,403.357 1682.05,403.357L1711.97,403.357Z" style="fill:white;"/>
        </g>
    </g>
</svg>
