<?xml version="1.0" encoding="UTF-8" standalone="no"?>
<!DOCTYPE svg PUBLIC "-//W3C//DTD SVG 1.1//EN" "http://www.w3.org/Graphics/SVG/1.1/DTD/svg11.dtd">
<svg width="100%" height="100%" viewBox="0 0 550 450" version="1.1" xmlns="http://www.w3.org/2000/svg" xmlns:xlink="http://www.w3.org/1999/xlink" xml:space="preserve" style="fill-rule:evenodd;clip-rule:evenodd;stroke-linejoin:round;stroke-miterlimit:1.41421;">
    <g transform="matrix(1,0,0,1,-25,-75)">
        <g id="Cup-Icon" transform="matrix(7.88011,0,0,7.88011,-11138.4,-5864.18)">
            <path d="M1464.82,803.654C1465.8,803.654 1466.6,804.451 1466.6,805.433L1466.6,808.992C1466.6,809.974 1465.8,810.772 1464.82,810.772L1438.3,810.772C1437.31,810.772 1436.52,809.974 1436.52,808.992L1436.52,805.433C1436.52,804.451 1437.31,803.654 1438.3,803.654L1464.82,803.654ZM1447.41,796.329C1433.27,792.618 1431.12,770.331 1430.55,753.718L1472.56,753.718C1471.99,770.46 1470.09,792.966 1455.7,796.413L1455.7,801.707L1447.41,801.707L1447.41,796.329ZM1416.74,760.906L1428.35,760.906C1428.46,762.621 1428.59,764.336 1428.76,766.036L1422.51,766.03C1422.68,768.104 1423.42,779.622 1432.27,783.218C1433.13,785.636 1434.15,787.874 1435.37,789.865C1426.52,788.896 1416.72,782.76 1416.73,760.901L1416.74,760.906ZM1474.7,760.906L1486.37,760.906L1486.38,760.901C1486.39,782.563 1476.77,788.784 1467.98,789.837C1469.18,787.84 1470.17,785.591 1471,783.153C1479.7,779.484 1480.43,768.091 1480.6,766.03L1474.31,766.036C1474.47,764.342 1474.6,762.628 1474.7,760.906Z" style="fill:white;"/>
        </g>
    </g>
</svg>
