<?xml version="1.0" encoding="UTF-8" standalone="no"?>
<!DOCTYPE svg PUBLIC "-//W3C//DTD SVG 1.1//EN" "http://www.w3.org/Graphics/SVG/1.1/DTD/svg11.dtd">
<svg width="100%" height="100%" viewBox="0 0 507 522" version="1.1" xmlns="http://www.w3.org/2000/svg" xmlns:xlink="http://www.w3.org/1999/xlink" xml:space="preserve" style="fill-rule:evenodd;clip-rule:evenodd;stroke-linejoin:round;stroke-miterlimit:1.41421;">
    <g transform="matrix(1,0,0,1,-46,-39)">
        <g id="Cupcake-Icon" transform="matrix(7.74187,0,0,7.74187,-12568.3,-7289.79)">
            <path d="M1675.32,1014.05L1648.9,1014.05C1646.43,1014.05 1644.42,1012.07 1644.42,1009.62L1643.14,996.152L1651.14,996.152L1651.14,1008.82C1651.14,1009.85 1651.99,1010.69 1653.03,1010.69C1654.07,1010.69 1654.92,1009.85 1654.92,1008.82L1654.92,996.152L1660.22,996.152L1660.22,1008.82C1660.22,1009.85 1661.07,1010.69 1662.11,1010.69C1663.15,1010.69 1664,1009.85 1664,1008.82L1664,996.152L1669.3,996.152L1669.3,1008.82C1669.3,1009.85 1670.15,1010.69 1671.19,1010.69C1672.23,1010.69 1673.08,1009.85 1673.08,1008.82L1673.08,996.152L1681.09,996.152L1679.8,1009.62C1679.8,1012.07 1677.8,1014.05 1675.32,1014.05ZM1683.43,993.882L1640.79,993.882C1634.51,993.882 1629.41,988.842 1629.41,982.633C1629.41,976.425 1634.51,971.384 1640.79,971.384C1641.85,971.384 1642.88,971.528 1643.86,971.798C1645.16,966.25 1649,961.655 1654.09,959.265C1655.87,961.827 1658.85,963.51 1662.23,963.51C1665.57,963.51 1668.53,961.864 1670.31,959.349C1675.32,961.762 1679.07,966.314 1680.36,971.798C1681.34,971.528 1682.37,971.384 1683.43,971.384C1689.72,971.384 1694.82,976.425 1694.82,982.633C1694.82,988.842 1689.72,993.882 1683.43,993.882ZM1662.11,946.665C1666.1,946.665 1669.34,949.864 1669.34,953.804C1669.34,957.745 1666.1,960.944 1662.11,960.944C1658.12,960.944 1654.89,957.745 1654.89,953.804C1654.89,949.864 1658.12,946.665 1662.11,946.665Z" style="fill:white;"/>
        </g>
    </g>
</svg>
