<?xml version="1.0" encoding="UTF-8" standalone="no"?>
<!DOCTYPE svg PUBLIC "-//W3C//DTD SVG 1.1//EN" "http://www.w3.org/Graphics/SVG/1.1/DTD/svg11.dtd">
<svg width="100%" height="100%" viewBox="0 0 576 452" version="1.1" xmlns="http://www.w3.org/2000/svg" xmlns:xlink="http://www.w3.org/1999/xlink" xml:space="preserve" style="fill-rule:evenodd;clip-rule:evenodd;stroke-linejoin:round;stroke-miterlimit:1.41421;">
    <g transform="matrix(1,0,0,1,-12,-74)">
        <g id="Demon" transform="matrix(1.37284,0,0,1.37284,-51.7414,-57.3331)">
            <path d="M248.493,424.617C243.97,424.617 240.297,420.987 240.297,416.517L240.297,399.102L234.919,399.102L234.919,416.517C234.919,420.987 231.247,424.616 226.722,424.617L210.329,424.617C205.805,424.617 202.132,420.987 202.132,416.517L202.132,368.387C167.159,353.126 133.396,348.589 131.936,288.059C-17.604,257.712 72.789,70.703 84.818,98.828C87.286,104.599 83.549,246.717 164.407,180.932C173.598,173.454 205.802,150.759 253.423,150.759C301.043,150.759 338.404,173.109 348.021,180.932C428.879,246.717 425.141,104.599 427.61,98.828C439.638,70.703 530.032,257.712 380.491,288.059C379.031,348.589 345.268,353.126 310.295,368.387L310.295,416.517C310.295,420.987 306.622,424.617 302.098,424.617L285.705,424.617C281.181,424.616 277.508,420.987 277.508,416.517L277.508,399.102L272.131,399.102L272.131,416.517C272.131,420.987 268.458,424.617 263.934,424.617L248.493,424.617ZM256.214,324.102L240.47,348.553L271.957,348.553L256.214,324.102ZM165.68,281.545C164.856,283.379 162.856,315.792 187.774,323.441C215.658,332.001 233.566,316.265 240.41,303.039L165.68,281.545ZM346.747,281.545C347.571,283.379 349.571,315.792 324.654,323.441C296.769,332.001 278.861,316.265 272.018,303.039L346.747,281.545Z" style="fill:white;"/>
        </g>
    </g>
</svg>
