<?xml version="1.0" encoding="UTF-8" standalone="no"?>
<!DOCTYPE svg PUBLIC "-//W3C//DTD SVG 1.1//EN" "http://www.w3.org/Graphics/SVG/1.1/DTD/svg11.dtd">
<svg width="100%" height="100%" viewBox="0 0 548 488" version="1.1" xmlns="http://www.w3.org/2000/svg" xmlns:xlink="http://www.w3.org/1999/xlink" xml:space="preserve" style="fill-rule:evenodd;clip-rule:evenodd;stroke-linejoin:round;stroke-miterlimit:1.41421;">
    <g transform="matrix(1,0,0,1,-14,-78)">
        <g id="Diamond-Outline-Amount-Icon" transform="matrix(1.17188,0,0,1.17188,0,0)">
            <path d="M176.147,215.333L235.528,409.304L235.623,408.995C241.356,426.818 250.562,443.09 262.441,457.014L247.065,476.919C243.965,480.933 239.337,483.014 234.676,482.981C230.014,483.014 225.387,480.933 222.286,476.919L15.688,209.459C14.338,207.711 13.407,205.765 12.879,203.744C11.356,198.964 12.083,193.527 15.299,189.229L101.946,73.436C103.177,71.791 104.663,70.459 106.306,69.454C108.717,67.9 111.576,66.999 114.64,66.999L355.651,66.999C356.858,66.999 358.034,67.139 359.163,67.404C362.934,68.052 366.48,70.1 368.976,73.436L454.835,188.176C455.935,189.646 456.744,191.249 457.271,192.914C458.91,197.686 458.278,203.157 455.16,207.505C454.463,208.707 453.615,209.808 452.643,210.78L430.268,239.746C420.413,234.967 409.916,231.307 398.943,228.934L409.45,215.333L327.586,215.333L321.884,233.958C307.545,239.1 294.282,246.514 282.532,255.763L294.909,215.333L176.147,215.333ZM369.193,257.189C430.031,257.189 479.352,305.925 479.352,366.046C479.352,426.166 430.031,474.902 369.193,474.902C308.354,474.902 259.034,426.166 259.034,366.046C259.034,305.925 308.354,257.189 369.193,257.189ZM143.47,215.333L59.902,215.333L198.332,394.544L143.47,215.333ZM179.762,98.731L122.226,98.731L58.718,183.602L143.466,183.602L179.762,98.731ZM257.449,98.731L212.989,98.731L177.337,183.602L293.925,183.602L257.449,98.731ZM348.697,98.731L291.499,98.731L327.796,183.602L412.205,183.602L348.697,98.731Z" style="fill:white;"/>
        </g>
    </g>
</svg>
