<?xml version="1.0" encoding="UTF-8" standalone="no"?>
<!DOCTYPE svg PUBLIC "-//W3C//DTD SVG 1.1//EN" "http://www.w3.org/Graphics/SVG/1.1/DTD/svg11.dtd">
<svg width="100%" height="100%" viewBox="0 0 556 518" version="1.1" xmlns="http://www.w3.org/2000/svg" xmlns:xlink="http://www.w3.org/1999/xlink" xml:space="preserve" style="fill-rule:evenodd;clip-rule:evenodd;stroke-linejoin:round;stroke-miterlimit:1.41421;">
    <g transform="matrix(1,0,0,1,-22,-41)">
        <g id="Diamond-Outline-Icon" transform="matrix(2.85633,0,0,2.90499,-596.804,-1009.56)">
            <path d="M366.412,361.81C366.938,361.81 367.449,361.87 367.941,361.983C369.581,362.26 371.124,363.137 372.211,364.564L409.571,413.655C410.049,414.284 410.401,414.97 410.631,415.682C411.344,417.723 411.069,420.064 409.712,421.925C409.409,422.439 409.04,422.91 408.616,423.326L319.163,537.192C317.814,538.909 315.801,539.799 313.772,539.785C311.744,539.799 309.73,538.909 308.381,537.192L218.484,422.761C217.896,422.013 217.491,421.18 217.261,420.316C216.599,418.271 216.915,415.944 218.314,414.106L256.017,364.564C256.553,363.86 257.2,363.291 257.914,362.86C258.964,362.195 260.208,361.81 261.541,361.81L366.412,361.81ZM288.304,425.274L314.143,508.263L339.982,425.274L288.304,425.274ZM237.722,425.274L297.958,501.948L274.086,425.274L237.722,425.274ZM354.2,425.274L330.815,500.384L389.822,425.274L354.2,425.274ZM289.878,375.386L264.842,375.386L237.207,411.698L274.084,411.698L289.878,375.386ZM288.822,411.698L339.553,411.698L323.682,375.386L304.336,375.386L288.822,411.698ZM354.292,411.698L391.021,411.698L363.386,375.386L338.498,375.386L354.292,411.698Z" style="fill:white;"/>
        </g>
    </g>
</svg>
