<?xml version="1.0" encoding="UTF-8" standalone="no"?>
<!DOCTYPE svg PUBLIC "-//W3C//DTD SVG 1.1//EN" "http://www.w3.org/Graphics/SVG/1.1/DTD/svg11.dtd">
<svg width="100%" height="100%" viewBox="0 0 538 500" version="1.1" xmlns="http://www.w3.org/2000/svg" xmlns:xlink="http://www.w3.org/1999/xlink" xml:space="preserve" style="fill-rule:evenodd;clip-rule:evenodd;stroke-linejoin:round;stroke-miterlimit:1.41421;">
    <g transform="matrix(1,0,0,1,-31,-50)">
        <g id="Diamond-Icon" transform="matrix(13.9722,0,0,13.9538,-16303.2,-9792.16)">
            <path d="M1188.29,741.162L1180.62,717.062L1195.95,717.062L1188.29,741.162ZM1169.12,717.081L1183.9,737.856L1177.55,717.062L1169.12,717.081ZM1207.26,717.081L1192.49,737.856L1198.83,717.062L1207.26,717.081ZM1177.85,705.35L1183.92,705.35L1178.53,714.111L1169.53,714.111L1177.85,705.35ZM1186.98,705.35L1189.97,705.35L1195.38,714.111L1181.63,714.111L1186.98,705.35ZM1193.09,705.35L1199.17,705.35L1207.49,714.111L1198.49,714.111L1193.09,705.35Z" style="fill:white;"/>
        </g>
    </g>
</svg>
