<?xml version="1.0" encoding="UTF-8" standalone="no"?>
<!DOCTYPE svg PUBLIC "-//W3C//DTD SVG 1.1//EN" "http://www.w3.org/Graphics/SVG/1.1/DTD/svg11.dtd">
<svg width="100%" height="100%" viewBox="0 0 545 485" version="1.1" xmlns="http://www.w3.org/2000/svg" xmlns:xlink="http://www.w3.org/1999/xlink" xml:space="preserve" style="fill-rule:evenodd;clip-rule:evenodd;stroke-linejoin:round;stroke-miterlimit:1.41421;">
    <g transform="matrix(1,0,0,1,-17,-73)">
        <g id="Diamond-Minus-Icon" transform="matrix(1.17188,0,0,1.17188,0,0)">
            <path d="M308.69,240.986L304.601,253.918L304.039,255.693L296.731,278.805C316.076,262.169 341.355,252.096 369.014,252.096C429.852,252.096 479.172,300.831 479.172,360.952C479.172,421.073 429.852,469.808 369.014,469.808C317.573,469.808 274.368,434.968 262.246,387.863L248.209,432.257M234.463,475.728L146.665,198.066L322.261,198.066L234.463,475.728ZM14.83,198.29L184.166,437.638L111.479,198.066L14.83,198.29ZM308.69,240.986L311.173,233.134C262.572,255.183 228.734,304.147 228.734,360.952C228.734,386.978 235.837,411.358 248.209,432.257L262.246,387.863C260.031,379.256 258.854,370.24 258.854,360.952C258.854,328.164 273.524,298.761 296.731,278.805L304.039,255.693L304.601,253.918L308.69,240.986ZM353.03,376.746L416.013,376.746C424.835,376.745 431.996,369.669 431.996,360.952C431.996,352.236 424.835,345.159 416.013,345.158L384.996,345.158L353.03,345.158L322.013,345.158C313.19,345.16 306.03,352.236 306.03,360.952C306.03,369.668 313.19,376.744 322.013,376.746L353.03,376.746ZM347.903,222.255L355.242,198.066L451.892,198.29L427.146,233.267C409.431,225.18 389.744,220.673 369.013,220.673C361.839,220.673 354.789,221.213 347.903,222.255ZM122.603,164.069L19.507,164.069L114.815,63.129L184.463,63.129L122.603,164.069ZM315.727,164.069L158.128,164.069L219.506,63.129L253.71,63.129L315.727,164.069ZM454.483,164.069L351.386,164.069L289.526,63.129L359.175,63.129L454.483,164.069Z" style="fill:white;"/>
        </g>
    </g>
</svg>
