<?xml version="1.0" encoding="UTF-8" standalone="no"?>
<!DOCTYPE svg PUBLIC "-//W3C//DTD SVG 1.1//EN" "http://www.w3.org/Graphics/SVG/1.1/DTD/svg11.dtd">
<svg width="100%" height="100%" viewBox="0 0 537 530" version="1.1" xmlns="http://www.w3.org/2000/svg" xmlns:xlink="http://www.w3.org/1999/xlink" xml:space="preserve" style="fill-rule:evenodd;clip-rule:evenodd;stroke-linejoin:round;stroke-miterlimit:1.41421;">
    <g transform="matrix(1,0,0,1,-31,-35)">
        <g id="Enter-Icon" transform="matrix(22.3083,0,0,22.0443,-18640.2,-81660.7)">
            <path d="M859.5,3730L846.5,3730C845.672,3730 845,3729.33 845,3728.5L845,3728L845,3727L845,3726.5C845,3725.67 845.672,3725 846.5,3725C847.328,3725 848,3725.67 848,3726.5L848,3727L858,3727L858,3709L854.5,3709L848,3709L848,3709.5C848,3710.33 847.328,3711 846.5,3711C845.672,3711 845,3710.33 845,3709.5L845,3709L845,3708L845,3707.5C845,3706.67 845.672,3706 846.5,3706L859.5,3706C860.329,3706 861,3706.67 861,3707.5L861,3728.5C861,3729.33 860.329,3730 859.5,3730ZM850,3717.99C850,3717.99 850,3717.99 850,3718L850,3718C850.005,3718.26 849.908,3718.53 849.705,3718.73L844.737,3723.7C844.342,3724.09 843.701,3724.09 843.305,3723.7C842.91,3723.3 842.91,3722.66 843.305,3722.26L846.579,3718.99L838,3718.99C837.448,3718.99 837,3718.55 837,3718C837,3717.44 837.448,3717 838,3717L846.579,3717L843.305,3713.72C842.91,3713.33 842.91,3712.69 843.305,3712.3C843.701,3711.9 844.342,3711.9 844.737,3712.3L849.705,3717.26C849.908,3717.46 850.005,3717.73 850,3717.99Z" style="fill:white;"/>
        </g>
    </g>
</svg>
