<?xml version="1.0" encoding="UTF-8" standalone="no"?>
<!DOCTYPE svg PUBLIC "-//W3C//DTD SVG 1.1//EN" "http://www.w3.org/Graphics/SVG/1.1/DTD/svg11.dtd">
<svg width="100%" height="100%" viewBox="0 0 550 443" version="1.1" xmlns="http://www.w3.org/2000/svg" xmlns:xlink="http://www.w3.org/1999/xlink" xml:space="preserve" style="fill-rule:evenodd;clip-rule:evenodd;stroke-linejoin:round;stroke-miterlimit:1.41421;">
    <g transform="matrix(1,0,0,1,-24,-72)">
        <g id="Eye-Off-Outline-Icon" transform="matrix(8.04589,0,0,8.04589,-4603.75,-8391.51)">
            <path d="M586.166,1064.2L578.42,1056.54C577.349,1055.49 577.349,1053.77 578.42,1052.71C579.492,1051.65 581.231,1051.65 582.303,1052.71L590.762,1061.07L590.769,1061.06L595.134,1065.37L595.126,1065.38L602.838,1073L602.844,1072.99L607.248,1077.35L607.242,1077.35L611.421,1081.48L611.427,1081.47L615.832,1085.83L615.826,1085.83L623.54,1093.46L623.547,1093.45L627.951,1097.8L627.944,1097.81L632.472,1102.28C633.543,1103.34 633.543,1105.06 632.472,1106.12C631.401,1107.18 629.661,1107.18 628.589,1106.12L622.616,1100.22C618.843,1101.55 614.444,1102.37 609.335,1102.37C582.301,1102.37 575.177,1079.41 575.177,1079.41C575.177,1079.41 577.933,1070.86 586.166,1064.2ZM590.46,1068.44C584.506,1073.36 582.712,1079.41 582.712,1079.41C582.712,1079.41 587.781,1096.6 609.335,1096.6C612.548,1096.6 615.396,1096.22 617.914,1095.57L610.655,1088.4C610.224,1088.46 609.783,1088.49 609.335,1088.49C604.265,1088.49 600.149,1084.42 600.149,1079.41C600.149,1078.97 600.181,1078.53 600.243,1078.11L590.46,1068.44ZM596.08,1058.64C599.852,1057.29 604.243,1056.46 609.335,1056.46C636.095,1056.46 643.492,1079.41 643.492,1079.41C643.492,1079.41 640.824,1088.01 632.557,1094.68L628.214,1090.39C634.171,1085.47 635.957,1079.41 635.957,1079.41C635.957,1079.41 630.86,1062.22 609.335,1062.22C606.122,1062.22 603.275,1062.61 600.757,1063.26L596.08,1058.64ZM608.014,1070.43C608.445,1070.37 608.886,1070.34 609.335,1070.34C614.404,1070.34 618.52,1074.4 618.52,1079.41C618.52,1079.86 618.488,1080.29 618.426,1080.72L608.014,1070.43Z" style="fill:white;"/>
        </g>
    </g>
</svg>
