<?xml version="1.0" encoding="UTF-8" standalone="no"?>
<!DOCTYPE svg PUBLIC "-//W3C//DTD SVG 1.1//EN" "http://www.w3.org/Graphics/SVG/1.1/DTD/svg11.dtd">
<svg width="100%" height="100%" viewBox="0 0 550 371" version="1.1" xmlns="http://www.w3.org/2000/svg" xmlns:xlink="http://www.w3.org/1999/xlink" xml:space="preserve" style="fill-rule:evenodd;clip-rule:evenodd;stroke-linejoin:round;stroke-miterlimit:1.41421;">
    <g transform="matrix(1,0,0,1,-24,-108)">
        <g id="Eye-Outline-Icon" transform="matrix(7.50288,0,0,7.41407,-5322.28,-7450.21)">
            <path d="M749.201,1019.53C777.898,1019.53 785.831,1044.44 785.831,1044.44C785.831,1044.44 778.192,1069.35 749.201,1069.35C720.211,1069.35 712.572,1044.44 712.572,1044.44C712.572,1044.44 720.504,1019.53 749.201,1019.53ZM749.201,1025.78C772.285,1025.78 777.75,1044.44 777.75,1044.44C777.75,1044.44 772.314,1063.09 749.201,1063.09C726.088,1063.09 720.652,1044.44 720.652,1044.44C720.652,1044.44 726.117,1025.78 749.201,1025.78ZM749.201,1034.59C754.638,1034.59 759.052,1039 759.052,1044.44C759.052,1049.87 754.638,1054.29 749.201,1054.29C743.765,1054.29 739.351,1049.87 739.351,1044.44C739.351,1039 743.765,1034.59 749.201,1034.59ZM749.201,1042.14C750.471,1042.14 751.501,1043.17 751.501,1044.44C751.501,1045.71 750.471,1046.74 749.201,1046.74C747.932,1046.74 746.901,1045.71 746.901,1044.44C746.901,1043.17 747.932,1042.14 749.201,1042.14Z" style="fill:white;"/>
        </g>
    </g>
</svg>
