<?xml version="1.0" encoding="UTF-8" standalone="no"?>
<!DOCTYPE svg PUBLIC "-//W3C//DTD SVG 1.1//EN" "http://www.w3.org/Graphics/SVG/1.1/DTD/svg11.dtd">
<svg width="100%" height="100%" viewBox="0 0 518 443" version="1.1" xmlns="http://www.w3.org/2000/svg" xmlns:xlink="http://www.w3.org/1999/xlink" xml:space="preserve" style="fill-rule:evenodd;clip-rule:evenodd;stroke-linejoin:round;stroke-miterlimit:1.41421;">
    <g transform="matrix(1,0,0,1,-40,-72)">
        <g id="Eye-Off-Icon" transform="matrix(8.04589,0,0,8.04589,-6319.76,-8391.51)">
            <path d="M803.59,1063.92L796.122,1056.54C795.051,1055.49 795.051,1053.77 796.122,1052.71C797.193,1051.65 798.933,1051.65 800.005,1052.71L819.61,1072.08C820.543,1071.75 821.555,1071.57 822.613,1071.57C827.258,1071.57 831.029,1075.08 831.029,1079.41C831.029,1080.56 830.764,1081.65 830.289,1082.63L850.174,1102.28C851.245,1103.34 851.245,1105.06 850.174,1106.12C849.102,1107.18 847.363,1107.18 846.291,1106.12L836.875,1096.81C820.828,1103.47 799.304,1099.74 790.556,1079.49L790.489,1079.49L790.523,1079.41L790.489,1079.34L790.556,1079.34C793.606,1072.28 798.208,1067.23 803.59,1063.92ZM810.8,1071.05C808.904,1073.37 807.778,1076.27 807.778,1079.41C807.778,1087.05 814.425,1093.25 822.613,1093.25C825.675,1093.25 828.521,1092.38 830.885,1090.89L826.372,1086.43C825.24,1086.96 823.964,1087.26 822.613,1087.26C817.968,1087.26 814.197,1083.74 814.197,1079.41C814.197,1077.99 814.603,1076.66 815.313,1075.51L810.8,1071.05ZM814.595,1059.67C830.881,1056.48 849.245,1064.72 854.68,1079.34L854.737,1079.34L854.708,1079.41L854.737,1079.49L854.68,1079.49C852.999,1084.01 850.081,1087.92 846.369,1091.07L837.188,1082C837.359,1081.16 837.448,1080.3 837.448,1079.41C837.448,1071.78 830.801,1065.58 822.613,1065.58C821.96,1065.58 821.318,1065.62 820.687,1065.69L814.595,1059.67Z" style="fill:white;"/>
        </g>
    </g>
</svg>
