<?xml version="1.0" encoding="UTF-8" standalone="no"?>
<!DOCTYPE svg PUBLIC "-//W3C//DTD SVG 1.1//EN" "http://www.w3.org/Graphics/SVG/1.1/DTD/svg11.dtd">
<svg width="100%" height="100%" viewBox="0 0 518 329" version="1.1" xmlns="http://www.w3.org/2000/svg" xmlns:xlink="http://www.w3.org/1999/xlink" xml:space="preserve" style="fill-rule:evenodd;clip-rule:evenodd;stroke-linejoin:round;stroke-miterlimit:1.41421;">
    <g transform="matrix(1,0,0,1,-40,-129)">
        <g id="Eye-Icon" transform="matrix(8.04589,0,0,8.04589,-5444.48,-8391.17)">
            <path d="M745.893,1079.45C737.152,1102.96 694.953,1109.96 681.769,1079.45L681.703,1079.45L681.736,1079.37L681.703,1079.29L681.769,1079.29C694.953,1048.78 737.152,1055.78 745.893,1079.29L745.95,1079.29L745.922,1079.37L745.95,1079.45L745.893,1079.45ZM713.827,1065.54C722.014,1065.54 728.662,1071.74 728.662,1079.37C728.662,1087.01 722.014,1093.2 713.827,1093.2C705.639,1093.2 698.992,1087.01 698.992,1079.37C698.992,1071.74 705.639,1065.54 713.827,1065.54ZM713.827,1071.52C718.472,1071.52 722.243,1075.04 722.243,1079.37C722.243,1083.7 718.472,1087.22 713.827,1087.22C709.182,1087.22 705.411,1083.7 705.411,1079.37C705.411,1075.04 709.182,1071.52 713.827,1071.52Z" style="fill:white;"/>
        </g>
    </g>
</svg>
