<?xml version="1.0" encoding="UTF-8" standalone="no"?>
<!DOCTYPE svg PUBLIC "-//W3C//DTD SVG 1.1//EN" "http://www.w3.org/Graphics/SVG/1.1/DTD/svg11.dtd">
<svg width="100%" height="100%" viewBox="0 0 314 532" version="1.1" xmlns="http://www.w3.org/2000/svg" xmlns:xlink="http://www.w3.org/1999/xlink" xml:space="preserve" style="fill-rule:evenodd;clip-rule:evenodd;stroke-linejoin:round;stroke-miterlimit:1.41421;">
    <g transform="matrix(1,0,0,1,-143,-34)">
        <g id="Facebook-Icon" transform="matrix(22.4075,0,0,22.1423,-8954.45,-84460.7)">
            <path d="M410.156,3840L410.156,3829.02L406.006,3829.02L406.006,3824.82L410.157,3824.82L410.157,3821.65C410.157,3818 412.627,3815.99 416.282,3815.99C418.032,3815.99 419.568,3816.1 420.007,3816.15L420.007,3820.02L417.412,3820.02C415.424,3820.02 415.052,3820.86 415.052,3822.1L415.052,3824.82L419.809,3824.82L419.191,3829.02L415.052,3829.02L415.052,3840L410.156,3840Z" style="fill:white;fill-rule:nonzero;"/>
        </g>
    </g>
</svg>
