<?xml version="1.0" encoding="UTF-8" standalone="no"?>
<!DOCTYPE svg PUBLIC "-//W3C//DTD SVG 1.1//EN" "http://www.w3.org/Graphics/SVG/1.1/DTD/svg11.dtd">
<svg width="100%" height="100%" viewBox="0 0 553 230" version="1.1" xmlns="http://www.w3.org/2000/svg" xmlns:xlink="http://www.w3.org/1999/xlink" xml:space="preserve" style="fill-rule:evenodd;clip-rule:evenodd;stroke-linejoin:round;stroke-miterlimit:1.41421;">
    <g transform="matrix(1,0,0,1,-23,-185)">
        <g id="Field-Glasses-Icon" transform="matrix(6.08607,0,0,6.08607,-2127.25,-4460.8)">
            <path d="M425.077,763.446C435.576,763.446 444.101,771.87 444.101,782.245C444.101,792.62 435.576,801.043 425.077,801.043C414.577,801.043 406.053,792.62 406.053,782.245C406.053,771.87 414.577,763.446 425.077,763.446ZM372.426,763.446C382.926,763.446 391.45,771.87 391.45,782.245C391.45,792.62 382.926,801.043 372.426,801.043C361.927,801.043 353.403,792.62 353.403,782.245C353.403,771.87 361.927,763.446 372.426,763.446ZM387.194,797.284C391.167,793.474 393.637,788.142 393.637,782.245C393.637,777.725 392.187,773.538 389.721,770.114C391.699,767.859 394.866,766.397 398.433,766.397C402.215,766.397 405.548,768.041 407.489,770.531C405.202,773.876 403.866,777.907 403.866,782.245C403.866,788.142 406.336,793.474 410.309,797.284C407.184,795.527 403.151,794.468 398.752,794.468C394.352,794.468 390.32,795.527 387.194,797.284ZM425.077,769.086C432.427,769.086 438.394,774.982 438.394,782.245C438.394,789.508 432.427,795.404 425.077,795.404C417.727,795.404 411.76,789.508 411.76,782.245C411.76,774.982 417.727,769.086 425.077,769.086ZM372.426,769.086C379.776,769.086 385.743,774.982 385.743,782.245C385.743,789.508 379.776,795.404 372.426,795.404C365.077,795.404 359.11,789.508 359.11,782.245C359.11,774.982 365.077,769.086 372.426,769.086ZM398.752,769.576C399.977,769.576 400.972,770.559 400.972,771.77C400.972,772.981 399.977,773.965 398.752,773.965C397.526,773.965 396.531,772.981 396.531,771.77C396.531,770.559 397.526,769.576 398.752,769.576Z" style="fill:white;"/>
        </g>
    </g>
</svg>
