<?xml version="1.0" encoding="UTF-8" standalone="no"?>
<!DOCTYPE svg PUBLIC "-//W3C//DTD SVG 1.1//EN" "http://www.w3.org/Graphics/SVG/1.1/DTD/svg11.dtd">
<svg width="100%" height="100%" viewBox="0 0 563 540" version="1.1" xmlns="http://www.w3.org/2000/svg" xmlns:xlink="http://www.w3.org/1999/xlink" xml:space="preserve" style="fill-rule:evenodd;clip-rule:evenodd;stroke-linejoin:round;stroke-miterlimit:1.41421;">
    <g transform="matrix(1,0,0,1,-18,-30)">
        <g id="Fight-Icon" transform="matrix(9.18502,0,0,9.18502,-3357.46,-5050.73)">
            <path d="M410.622,600.1L406.958,603.721C405.915,604.751 404.222,604.751 403.179,603.721L402.235,602.787C401.192,601.757 401.192,600.084 402.235,599.054L415.76,585.689C416.803,584.658 418.496,584.658 419.538,585.689L420.483,586.622C421.526,587.652 421.526,589.325 420.483,590.355L416.819,593.977L424.908,601.971L425.87,601.02C426.525,600.373 427.588,600.373 428.242,601.02C428.897,601.667 428.897,602.717 428.243,603.364L420.122,611.388C419.468,612.035 418.405,612.035 417.75,611.388C417.096,610.742 417.096,609.691 417.75,609.044L418.712,608.094L410.622,600.1ZM379.488,593.599L375.824,589.978C374.781,588.947 374.781,587.274 375.824,586.244L376.768,585.311C377.811,584.28 379.504,584.28 380.546,585.311L394.072,598.676C395.115,599.706 395.115,601.379 394.072,602.409L393.127,603.343C392.085,604.373 390.392,604.373 389.349,603.343L385.685,599.722L377.595,607.716L378.557,608.666C379.211,609.313 379.211,610.364 378.557,611.01C377.902,611.657 376.839,611.657 376.185,611.011L368.064,602.986C367.41,602.34 367.41,601.289 368.064,600.642C368.719,599.995 369.782,599.995 370.436,600.642L371.398,601.593L379.488,593.599ZM408.199,584.077L411.423,587.653L404.223,594.769L399.912,590.974L408.199,584.077ZM425.197,565.241L426.54,553.227L414.382,554.554L384.883,587.275L392.084,594.391L425.197,565.241ZM387.65,580.179L371.11,565.618L369.767,553.605L381.924,554.932L395.929,570.466L387.65,580.179Z" style="fill:white;"/>
        </g>
    </g>
</svg>
