<?xml version="1.0" encoding="UTF-8" standalone="no"?>
<!DOCTYPE svg PUBLIC "-//W3C//DTD SVG 1.1//EN" "http://www.w3.org/Graphics/SVG/1.1/DTD/svg11.dtd">
<svg width="100%" height="100%" viewBox="0 0 499 560" version="1.1" xmlns="http://www.w3.org/2000/svg" xmlns:xlink="http://www.w3.org/1999/xlink" xml:space="preserve" style="fill-rule:evenodd;clip-rule:evenodd;stroke-linejoin:round;stroke-miterlimit:1.41421;">
    <g transform="matrix(1,0,0,1,-50,-20)">
        <g id="Fire-Icon" transform="matrix(2.538,0,0,2.50796,-2164.21,-1293.24)">
            <path d="M955.133,523.723C1007.93,546.749 1016.49,606.343 1016.49,606.343C1016.49,606.343 1027.66,591.514 1022.02,565.414C1113.74,657.732 1049.35,739.458 1007.08,746.822C1016.23,734.371 1035.71,657.454 973.871,616.029C983.027,661.475 954.116,677.597 954.116,677.597L948.771,645.03C945.895,685.758 900.063,689.316 927.808,746.136C826.596,682.842 894.238,633.357 903.149,588.857C914.652,600.093 912.152,625.697 912.152,625.697C912.152,625.697 956.915,591.958 955.133,523.723Z" style="fill:white;"/>
        </g>
    </g>
</svg>
