<?xml version="1.0" encoding="UTF-8" standalone="no"?>
<!DOCTYPE svg PUBLIC "-//W3C//DTD SVG 1.1//EN" "http://www.w3.org/Graphics/SVG/1.1/DTD/svg11.dtd">
<svg width="100%" height="100%" viewBox="0 0 557 530" version="1.1" xmlns="http://www.w3.org/2000/svg" xmlns:xlink="http://www.w3.org/1999/xlink" xml:space="preserve" style="fill-rule:evenodd;clip-rule:evenodd;stroke-linejoin:round;stroke-miterlimit:1.41421;">
    <g transform="matrix(1,0,0,1,-21,-35)">
        <g id="Flower-Icon" transform="matrix(9.10829,0,0,9.10829,-19605.1,-6804.45)">
            <path d="M2174.3,767.231C2174.3,758.252 2179.25,750.963 2185.34,750.963C2191.43,750.963 2196.38,758.252 2196.38,767.231C2205.02,764.456 2213.56,766.852 2215.45,772.578C2217.33,778.304 2211.84,785.205 2203.2,787.98C2208.54,795.244 2208.88,804.014 2203.95,807.553C2199.02,811.091 2190.68,808.067 2185.34,800.803C2180,808.067 2171.66,811.091 2166.73,807.553C2161.8,804.014 2162.14,795.244 2167.48,787.98C2158.84,785.205 2153.35,778.304 2155.23,772.578C2157.11,766.852 2165.66,764.456 2174.3,767.231ZM2185.34,769.582C2191.09,769.582 2195.76,774.249 2195.76,779.998C2195.76,785.747 2191.09,790.414 2185.34,790.414C2179.59,790.414 2174.92,785.747 2174.92,779.998C2174.92,774.249 2179.59,769.582 2185.34,769.582Z" style="fill:white;"/>
        </g>
    </g>
</svg>
