<?xml version="1.0" encoding="UTF-8" standalone="no"?>
<!DOCTYPE svg PUBLIC "-//W3C//DTD SVG 1.1//EN" "http://www.w3.org/Graphics/SVG/1.1/DTD/svg11.dtd">
<svg width="100%" height="100%" viewBox="0 0 451 538" version="1.1" xmlns="http://www.w3.org/2000/svg" xmlns:xlink="http://www.w3.org/1999/xlink" xml:space="preserve" style="fill-rule:evenodd;clip-rule:evenodd;stroke-linejoin:round;stroke-miterlimit:1.41421;">
    <g transform="matrix(1,0,0,1,-74,-31)">
        <g id="Gangster-Icon" transform="matrix(5.24195,0,0,5.24195,-8545.99,-2480.46)">
            <path d="M1712.47,538.508C1726.99,544.974 1729.46,554.632 1730.44,564.615C1730.97,569.988 1711.68,581.604 1688.91,581.715C1665.17,581.831 1643.92,570.216 1644.48,564.615C1645.45,554.68 1647.85,545.088 1662.22,538.621C1666.47,545.883 1677.57,551.247 1687.31,551.247C1697.09,551.247 1706.34,547.571 1712.47,538.508ZM1666.93,531.857C1667.88,532.171 1668.88,532.403 1669.92,532.544C1682.12,534.183 1684.65,524.591 1687,524.591C1689.35,524.591 1691.89,534.183 1704.08,532.544C1705.78,532.315 1707.36,531.845 1708.8,531.175C1704.01,539.713 1696.09,543.195 1687.66,543.195C1679.47,543.195 1671.74,540.004 1666.93,531.857ZM1687.03,504.988C1694.98,504.688 1707.74,496.278 1712.56,505.548C1717.1,514.28 1710.19,525.729 1699.7,526.19C1692.53,526.506 1691.61,519.044 1687.56,518.485C1687.52,518.486 1687.47,518.484 1687.43,518.477C1687.29,518.462 1687.16,518.454 1687.03,518.453C1686.9,518.454 1686.77,518.462 1686.63,518.477C1686.58,518.484 1686.54,518.486 1686.49,518.485C1682.44,519.044 1681.37,526.432 1673.91,525.886C1663.44,525.118 1656.95,514.28 1661.5,505.548C1666.32,496.278 1679.08,504.688 1687.03,504.988ZM1667.25,508.313L1681.21,513.383C1680.58,516.024 1676.94,519.932 1672.82,519.251C1665.09,517.975 1666.47,508.958 1667.25,508.313ZM1707.67,508.313L1693.71,513.383C1694.34,516.024 1697.98,519.932 1702.1,519.251C1709.83,517.975 1708.45,508.958 1707.67,508.313ZM1662.89,496.547C1665.32,485.21 1672.48,479.159 1687.66,479.135C1703.28,479.111 1710.42,485.626 1712.64,497.524C1706,492.28 1695.47,498.449 1687,499.018C1679.15,498.491 1669.54,493.156 1662.89,496.547Z" style="fill:white;"/>
        </g>
    </g>
</svg>
