<?xml version="1.0" encoding="UTF-8" standalone="no"?>
<!DOCTYPE svg PUBLIC "-//W3C//DTD SVG 1.1//EN" "http://www.w3.org/Graphics/SVG/1.1/DTD/svg11.dtd">
<svg width="100%" height="100%" viewBox="0 0 477 477" version="1.1" xmlns="http://www.w3.org/2000/svg" xmlns:xlink="http://www.w3.org/1999/xlink" xml:space="preserve" style="fill-rule:evenodd;clip-rule:evenodd;stroke-linejoin:round;stroke-miterlimit:1.41421;">
    <g transform="matrix(1,0,0,1,-55,-65)">
        <g id="Gender-Male-Icon" transform="matrix(-2.01061,-2.01061,2.01061,-2.01061,183.457,1566.73)">
            <path d="M279.798,383.919C246.265,380.416 220.089,352.028 220.089,317.574C220.089,280.756 249.98,250.865 286.798,250.865C323.615,250.865 353.507,280.756 353.507,317.574C353.507,352.028 327.33,380.416 293.798,383.919L293.798,433.021L307.327,419.492C310.059,416.76 314.495,416.76 317.227,419.492C319.958,422.224 319.958,426.659 317.227,429.391L291.85,454.768C290.458,456.16 288.624,456.842 286.798,456.816C284.972,456.842 283.137,456.16 281.745,454.768L256.369,429.391C253.637,426.659 253.637,422.224 256.369,419.492C259.101,416.76 263.536,416.76 266.268,419.492L279.798,433.021L279.798,383.919ZM286.798,264.207C316.252,264.207 340.165,288.12 340.165,317.574C340.165,347.028 316.252,370.941 286.798,370.941C257.343,370.941 233.43,347.028 233.43,317.574C233.43,288.12 257.343,264.207 286.798,264.207Z" style="fill:white;"/>
        </g>
    </g>
</svg>
