<?xml version="1.0" encoding="UTF-8" standalone="no"?>
<!DOCTYPE svg PUBLIC "-//W3C//DTD SVG 1.1//EN" "http://www.w3.org/Graphics/SVG/1.1/DTD/svg11.dtd">
<svg width="100%" height="100%" viewBox="0 0 381 583" version="1.1" xmlns="http://www.w3.org/2000/svg" xmlns:xlink="http://www.w3.org/1999/xlink" xml:space="preserve" style="fill-rule:evenodd;clip-rule:evenodd;stroke-linejoin:round;stroke-miterlimit:1.41421;">
    <g transform="matrix(1,0,0,1,-103,-12)">
        <g id="Gender-Female-Icon" transform="matrix(2.84343,0,0,2.84343,-21.8943,-525.598)">
            <path d="M103.925,322.297C70.392,318.793 44.216,290.405 44.216,255.951C44.216,219.134 74.108,189.242 110.925,189.242C147.743,189.242 177.634,219.134 177.634,255.951C177.634,290.405 151.458,318.793 117.925,322.297L117.925,346.695L148.001,346.695C151.865,346.695 155.001,349.831 155.001,353.695C155.001,357.558 151.865,360.695 148.001,360.695L117.925,360.695L117.925,386.852C117.925,390.716 114.789,393.852 110.925,393.852C107.062,393.852 103.925,390.716 103.925,386.852L103.925,360.695L73.849,360.695C69.986,360.695 66.849,357.558 66.849,353.695C66.849,349.831 69.986,346.695 73.849,346.695L103.925,346.695L103.925,322.297ZM110.925,202.584C140.379,202.584 164.292,226.497 164.292,255.951C164.292,285.406 140.379,309.319 110.925,309.319C81.471,309.319 57.558,285.406 57.558,255.951C57.558,226.497 81.471,202.584 110.925,202.584Z" style="fill:white;"/>
        </g>
    </g>
</svg>
