<?xml version="1.0" encoding="UTF-8" standalone="no"?>
<!DOCTYPE svg PUBLIC "-//W3C//DTD SVG 1.1//EN" "http://www.w3.org/Graphics/SVG/1.1/DTD/svg11.dtd">
<svg width="100%" height="100%" viewBox="0 0 545 565" version="1.1" xmlns="http://www.w3.org/2000/svg" xmlns:xlink="http://www.w3.org/1999/xlink" xml:space="preserve" style="fill-rule:evenodd;clip-rule:evenodd;stroke-linejoin:round;stroke-miterlimit:1.41421;">
    <g transform="matrix(1,0,0,1,-20,-13)">
        <g id="Ghost-Head-Icon" transform="matrix(4.92665,0,0,4.92665,-465.811,-769.843)">
            <path d="M153.559,159.01C187.226,159.625 208.133,180.721 209.108,215.457C210.031,248.317 192.001,264.183 166.105,270.669C120.816,282.012 99.037,259.532 98.783,214.328C98.579,177.944 120.793,158.41 153.559,159.01ZM149.13,237.837C152.754,237.837 155.696,240.759 155.696,244.358C155.696,247.958 152.754,250.88 149.13,250.88C145.506,250.88 142.564,247.958 142.564,244.358C142.564,240.759 145.506,237.837 149.13,237.837ZM124.927,188.614C131.92,188.614 137.597,194.253 137.597,201.198C137.597,208.143 131.92,213.781 124.927,213.781C117.934,213.781 112.257,208.143 112.257,201.198C112.257,194.253 117.934,188.614 124.927,188.614ZM180.618,189.811C187,189.811 192.181,194.956 192.181,201.295C192.181,207.633 187,212.779 180.618,212.779C174.236,212.779 169.055,207.633 169.055,201.295C169.055,194.956 174.236,189.811 180.618,189.811Z" style="fill:white;"/>
        </g>
    </g>
</svg>
