<?xml version="1.0" encoding="UTF-8" standalone="no"?>
<!DOCTYPE svg PUBLIC "-//W3C//DTD SVG 1.1//EN" "http://www.w3.org/Graphics/SVG/1.1/DTD/svg11.dtd">
<svg width="100%" height="100%" viewBox="0 0 444 582" version="1.1" xmlns="http://www.w3.org/2000/svg" xmlns:xlink="http://www.w3.org/1999/xlink" xml:space="preserve" style="fill-rule:evenodd;clip-rule:evenodd;stroke-linejoin:round;stroke-miterlimit:1.41421;">
    <g transform="matrix(1,0,0,1,-78,-17)">
        <g id="Ghost-Icon" transform="matrix(4.3287,0,0,4.3287,-1001.01,-1347.54)">
            <path d="M351.704,446.629C345.954,446.597 344.178,443.019 338.478,443.019C332.778,443.019 330.809,446.447 325.632,446.447C320.57,446.447 319.287,443.019 312.763,443.019C306.24,443.019 305.463,446.455 300.511,446.455C295.492,446.455 293.572,443.019 287.711,443.019C281.85,443.019 280.042,446.447 274.864,446.447C269.803,446.447 267.547,443.019 261.996,443.019C256.446,443.019 253.574,446.769 249.404,446.246L249.404,449.562L249.404,366.558C249.404,338.33 272.323,315.413 300.554,315.413C328.784,315.413 351.704,338.33 351.704,366.558L351.704,446.629ZM278.082,362.67C283.22,362.67 287.391,366.841 287.391,371.978C287.391,377.115 283.22,381.286 278.082,381.286C272.944,381.286 268.773,377.115 268.773,371.978C268.773,366.841 272.944,362.67 278.082,362.67ZM323.025,362.67C328.163,362.67 332.334,366.841 332.334,371.978C332.334,377.115 328.163,381.286 323.025,381.286C317.888,381.286 313.716,377.115 313.716,371.978C313.716,366.841 317.888,362.67 323.025,362.67Z" style="fill:white;"/>
        </g>
    </g>
</svg>
