<?xml version="1.0" encoding="UTF-8" standalone="no"?>
<!DOCTYPE svg PUBLIC "-//W3C//DTD SVG 1.1//EN" "http://www.w3.org/Graphics/SVG/1.1/DTD/svg11.dtd">
<svg width="100%" height="100%" viewBox="0 0 532 494" version="1.1" xmlns="http://www.w3.org/2000/svg" xmlns:xlink="http://www.w3.org/1999/xlink" xml:space="preserve" style="fill-rule:evenodd;clip-rule:evenodd;stroke-linejoin:round;stroke-miterlimit:1.41421;">
    <g transform="matrix(1,0,0,1,-34,-53)">
        <g id="Gift-Plus-Icon" transform="matrix(1.28311,0,0,1.28311,-52.5369,-20.4832)">
            <path d="M371.42,224.439C432.258,224.439 481.578,273.175 481.578,333.296C481.578,393.416 432.258,442.152 371.42,442.152C310.58,442.152 261.26,393.416 261.26,333.296C261.26,273.175 310.58,224.439 371.42,224.439ZM228.588,266.174L228.588,428.82L105.467,428.82C94.542,428.82 85.673,420.056 85.673,409.26L85.673,266.174L228.588,266.174ZM355.436,349.09L355.436,379.739C355.436,388.456 362.598,395.533 371.419,395.533C380.241,395.533 387.402,388.456 387.402,379.739L387.402,349.09L418.419,349.09C427.241,349.089 434.402,342.012 434.402,333.296C434.402,324.579 427.241,317.503 418.419,317.502L387.402,317.502L387.402,286.852C387.402,278.136 380.241,271.059 371.419,271.059C362.598,271.059 355.436,278.136 355.436,286.852L355.436,317.502L324.42,317.502C315.597,317.504 308.437,324.58 308.437,333.296C308.437,342.012 315.597,349.088 324.42,349.09L355.436,349.09ZM228.588,147.93L228.588,231.777L67.924,231.777L67.924,166.954C67.924,156.455 76.549,147.931 87.175,147.93L228.588,147.93ZM278.466,228.27L278.466,147.93L419.878,147.93C430.504,147.931 439.129,156.455 439.129,166.954L439.129,210.435C419.05,199.336 395.967,193.017 371.419,193.017C335.777,193.017 303.222,206.338 278.466,228.27ZM253.527,112.345C264.543,95.992 286.226,71.236 321.835,59.52C366.902,44.693 402.403,111.541 365.014,125.674C327.674,139.788 274.535,133.236 253.527,129.79C232.518,133.236 179.379,139.788 142.039,125.674C104.65,111.541 140.151,44.693 185.218,59.52C220.827,71.236 242.51,95.992 253.527,112.345ZM185.662,76.641C222.21,90.169 237.433,118.822 237.433,118.822C237.433,118.822 185.588,125.899 157.047,113.191C130.475,101.36 158.271,66.503 185.662,76.641ZM321.391,76.641C284.843,90.169 269.62,118.822 269.62,118.822C269.62,118.822 321.465,125.899 350.007,113.191C376.578,101.36 348.782,66.503 321.391,76.641Z" style="fill:white;"/>
        </g>
    </g>
</svg>
