<?xml version="1.0" encoding="UTF-8" standalone="no"?>
<!DOCTYPE svg PUBLIC "-//W3C//DTD SVG 1.1//EN" "http://www.w3.org/Graphics/SVG/1.1/DTD/svg11.dtd">
<svg width="100%" height="100%" viewBox="0 0 528 522" version="1.1" xmlns="http://www.w3.org/2000/svg" xmlns:xlink="http://www.w3.org/1999/xlink" xml:space="preserve" style="fill-rule:evenodd;clip-rule:evenodd;stroke-linejoin:round;stroke-miterlimit:1.41421;">
    <g transform="matrix(1,0,0,1,-36,-39)">
        <g id="Google--Icon" transform="matrix(21.992,0,0,21.7317,-11179.8,-82889)">
            <path d="M534,3827.76L530.769,3827.76L530.769,3831.06L528.923,3831.06L528.923,3827.76L525.769,3827.76L525.769,3825.83L528.923,3825.83L528.923,3822.44L530.769,3822.44L530.769,3825.83L534,3825.83L534,3827.76ZM520.867,3817.14C521.055,3817.26 521.267,3817.44 521.502,3817.67C521.728,3817.92 521.95,3818.22 522.166,3818.58C522.373,3818.92 522.557,3819.32 522.717,3819.78C522.849,3820.24 522.915,3820.78 522.915,3821.4C522.897,3822.52 522.66,3823.43 522.204,3824.1C521.981,3824.43 521.744,3824.73 521.494,3825.01C521.217,3825.29 520.922,3825.57 520.61,3825.85C520.431,3826.05 520.266,3826.27 520.114,3826.51C519.935,3826.77 519.846,3827.07 519.846,3827.41C519.846,3827.74 519.938,3828.01 520.121,3828.22C520.276,3828.43 520.428,3828.61 520.575,3828.76L521.592,3829.64C522.224,3830.18 522.778,3830.78 523.255,3831.44C523.704,3832.1 523.938,3832.97 523.956,3834.05C523.956,3835.58 523.315,3836.93 522.031,3838.11C520.701,3839.33 518.781,3839.96 516.272,3840C514.172,3839.98 512.604,3839.51 511.568,3838.59C510.522,3837.73 509.999,3836.7 509.999,3835.5C509.999,3834.92 510.17,3834.27 510.51,3833.56C510.84,3832.84 511.437,3832.21 512.302,3831.67C513.273,3831.08 514.293,3830.69 515.362,3830.5C516.421,3830.34 517.3,3830.24 517.999,3830.22C517.783,3829.93 517.59,3829.61 517.421,3829.27C517.224,3828.94 517.125,3828.54 517.125,3828.08C517.125,3827.8 517.163,3827.57 517.238,3827.38C517.304,3827.18 517.365,3827 517.421,3826.84C517.081,3826.88 516.76,3826.9 516.458,3826.9C514.862,3826.88 513.645,3826.35 512.808,3825.32C511.932,3824.35 511.494,3823.23 511.494,3821.95C511.494,3820.4 512.115,3819 513.356,3817.74C514.208,3817 515.094,3816.52 516.013,3816.29C516.923,3816.1 517.775,3816 518.571,3816L524.568,3816L522.716,3817.14L520.867,3817.14ZM516.97,3831.14C516.349,3831.24 515.714,3831.39 515.065,3831.59C514.912,3831.65 514.697,3831.74 514.421,3831.87C514.144,3832 513.862,3832.19 513.576,3832.44C513.299,3832.69 513.065,3833.01 512.874,3833.39C512.654,3833.79 512.545,3834.27 512.545,3834.84C512.545,3835.94 513.022,3836.86 513.977,3837.57C514.884,3838.29 516.125,3838.66 517.7,3838.68C519.113,3838.66 520.192,3838.33 520.937,3837.7C521.662,3837.07 522.025,3836.27 522.025,3835.28C522.025,3834.48 521.777,3833.78 521.281,3833.19C520.755,3832.63 519.934,3831.93 518.817,3831.12C518.626,3831.09 518.402,3831.08 518.144,3831.08C517.991,3831.06 517.6,3831.08 516.97,3831.14ZM519.465,3819.09C519.182,3818.49 518.809,3817.99 518.346,3817.61C517.873,3817.26 517.33,3817.06 516.715,3817.04C515.903,3817.06 515.227,3817.41 514.688,3818.08C514.234,3818.78 514.017,3819.56 514.036,3820.42C514.036,3821.56 514.354,3822.74 514.989,3823.98C515.296,3824.55 515.692,3825.04 516.178,3825.44C516.664,3825.84 517.22,3826.04 517.844,3826.04C518.634,3826.01 519.291,3825.71 519.818,3825.15C520.071,3824.75 520.235,3824.34 520.307,3823.92C520.351,3823.49 520.372,3823.14 520.372,3822.85C520.372,3821.61 520.07,3820.36 519.465,3819.09Z" style="fill:white;"/>
        </g>
    </g>
</svg>
