<?xml version="1.0" encoding="UTF-8" standalone="no"?>
<!DOCTYPE svg PUBLIC "-//W3C//DTD SVG 1.1//EN" "http://www.w3.org/Graphics/SVG/1.1/DTD/svg11.dtd">
<svg width="100%" height="100%" viewBox="0 0 440 465" version="1.1" xmlns="http://www.w3.org/2000/svg" xmlns:xlink="http://www.w3.org/1999/xlink" xml:space="preserve" style="fill-rule:evenodd;clip-rule:evenodd;stroke-linejoin:round;stroke-miterlimit:1.41421;">
    <g transform="matrix(1,0,0,1,-79,-5)">
        <g id="Grave-Icon-Outline" transform="matrix(6.08625,0,0,6.08625,-8762.47,-1478.95)">
            <path d="M1522.31,309.92C1523.72,309.92 1524.87,311.068 1524.87,312.482L1524.87,317.605C1524.87,319.018 1523.72,320.166 1522.31,320.166L1455.3,320.166C1453.89,320.166 1452.74,319.018 1452.74,317.605L1452.74,312.482C1452.74,311.068 1453.89,309.92 1455.3,309.92L1522.31,309.92ZM1519.49,305.969L1458.13,305.969L1458.13,274.5C1458.13,257.568 1471.87,243.821 1488.81,243.821C1505.74,243.821 1519.49,257.568 1519.49,274.5L1519.49,305.969ZM1513.21,300.653L1513.21,274.443C1513.21,260.973 1502.28,250.037 1488.81,250.037C1475.34,250.037 1464.4,260.973 1464.4,274.443L1464.4,300.653L1513.21,300.653ZM1490.62,297.191L1486.44,297.191C1485.29,297.191 1484.35,296.255 1484.35,295.102L1484.35,278.216L1476.38,278.216C1475.23,278.216 1474.3,277.281 1474.3,276.128L1474.3,271.951C1474.3,270.798 1475.23,269.863 1476.38,269.863L1484.35,269.863L1484.35,261.318C1484.35,260.165 1485.29,259.229 1486.44,259.229L1490.62,259.229C1491.77,259.229 1492.71,260.165 1492.71,261.318L1492.71,269.863L1501.23,269.863C1502.38,269.863 1503.32,270.798 1503.32,271.951L1503.32,276.128C1503.32,277.281 1502.38,278.216 1501.23,278.216L1492.71,278.216L1492.71,295.102C1492.71,296.255 1491.77,297.191 1490.62,297.191Z" style="fill:white;"/>
        </g>
    </g>
</svg>
