<?xml version="1.0" encoding="UTF-8" standalone="no"?>
<!DOCTYPE svg PUBLIC "-//W3C//DTD SVG 1.1//EN" "http://www.w3.org/Graphics/SVG/1.1/DTD/svg11.dtd">
<svg width="100%" height="100%" viewBox="0 0 440 465" version="1.1" xmlns="http://www.w3.org/2000/svg" xmlns:xlink="http://www.w3.org/1999/xlink" xml:space="preserve" style="fill-rule:evenodd;clip-rule:evenodd;stroke-linejoin:round;stroke-miterlimit:1.41421;">
    <g transform="matrix(1,0,0,1,-79,-5)">
        <g id="Grave-Smiley" transform="matrix(6.08625,0,0,6.08625,-8762.47,-3629.99)">
            <path d="M1522.31,663.346C1523.72,663.346 1524.87,664.494 1524.87,665.908L1524.87,671.031C1524.87,672.444 1523.72,673.592 1522.31,673.592L1455.3,673.592C1453.89,673.592 1452.74,672.444 1452.74,671.031L1452.74,665.908C1452.74,664.494 1453.89,663.346 1455.3,663.346L1522.31,663.346ZM1519.49,659.395L1458.13,659.395L1458.13,627.926C1458.13,610.994 1471.87,597.247 1488.81,597.247C1505.74,597.247 1519.49,610.994 1519.49,627.926L1519.49,659.395ZM1490.62,612.655L1486.44,612.655C1485.29,612.655 1484.35,613.591 1484.35,614.743L1484.35,623.288L1476.38,623.288C1475.23,623.289 1474.3,624.224 1474.3,625.377L1474.3,629.554C1474.3,630.707 1475.23,631.642 1476.38,631.642L1484.35,631.642L1484.35,648.528C1484.35,649.681 1485.29,650.616 1486.44,650.616L1490.62,650.616C1491.77,650.616 1492.71,649.681 1492.71,648.528L1492.71,631.642L1501.23,631.642C1502.38,631.642 1503.32,630.706 1503.32,629.554L1503.32,625.377C1503.32,624.224 1502.38,623.289 1501.23,623.288L1492.71,623.288L1492.71,614.743C1492.71,613.591 1491.77,612.655 1490.62,612.655Z" style="fill:white;"/>
        </g>
    </g>
</svg>
