<?xml version="1.0" encoding="UTF-8" standalone="no"?>
<!DOCTYPE svg PUBLIC "-//W3C//DTD SVG 1.1//EN" "http://www.w3.org/Graphics/SVG/1.1/DTD/svg11.dtd">
<svg width="100%" height="100%" viewBox="0 0 577 390" version="1.1" xmlns="http://www.w3.org/2000/svg" xmlns:xlink="http://www.w3.org/1999/xlink" xml:space="preserve" style="fill-rule:evenodd;clip-rule:evenodd;stroke-linejoin:round;stroke-miterlimit:1.41421;">
    <g transform="matrix(1,0,0,1,-11,-105)">
        <g id="Gun-Icon" transform="matrix(7.5304,0,0,7.5304,-4322.07,-4137.76)">
            <path d="M588.069,582.376L578.725,582.376C577.216,582.376 575.991,581.165 575.991,579.675L575.991,566.2C575.991,564.71 577.216,563.499 578.725,563.499L640.566,563.499C642.074,563.499 643.299,564.71 643.299,566.2L643.299,579.675C643.299,581.165 642.074,582.376 640.566,582.376L627.916,582.376C626.302,591.399 618.32,598.263 608.728,598.263C607.172,598.263 605.657,598.082 604.206,597.74L600.533,609.067C599.163,612.411 599.126,615.127 595.741,615.127L579.653,615.127C576.269,615.127 574.633,612.411 576.002,609.067L588.069,582.376ZM610.633,582.376L609.188,582.376L605.076,595.058C606.251,595.318 607.474,595.456 608.728,595.456C616.747,595.456 623.449,589.841 625.024,582.376L613.87,582.376C614.045,584.932 614.755,587.489 616.045,589.883C616.069,589.921 616.266,590.284 616.266,590.284C616.671,591.04 616.379,591.978 615.615,592.379C614.85,592.779 613.9,592.491 613.495,591.735C613.495,591.735 613.306,591.38 613.291,591.345C611.694,588.496 610.827,585.434 610.633,582.376ZM649.538,577.961L645.104,577.961L645.104,567.914L649.538,567.914C650.868,567.914 651.948,568.981 651.948,570.296L651.948,575.579C651.948,576.894 650.868,577.961 649.538,577.961ZM584.38,570.266C585.872,570.266 587.083,571.463 587.083,572.937C587.083,574.412 585.872,575.609 584.38,575.609C582.888,575.609 581.676,574.412 581.676,572.937C581.676,571.463 582.888,570.266 584.38,570.266Z" style="fill:white;"/>
        </g>
    </g>
</svg>
