<?xml version="1.0" encoding="UTF-8" standalone="no"?>
<!DOCTYPE svg PUBLIC "-//W3C//DTD SVG 1.1//EN" "http://www.w3.org/Graphics/SVG/1.1/DTD/svg11.dtd">
<svg width="100%" height="100%" viewBox="0 0 454 562" version="1.1" xmlns="http://www.w3.org/2000/svg" xmlns:xlink="http://www.w3.org/1999/xlink" xml:space="preserve" style="fill-rule:evenodd;clip-rule:evenodd;stroke-linejoin:round;stroke-miterlimit:1.41421;">
    <g transform="matrix(1,0,0,1,-73,-19)">
        <g id="Hammer-Icon" transform="matrix(8.95995,4.97377e-16,4.97377e-16,8.95995,-444.822,-3159.37)">
            <path d="M84.541,388.537L69.363,414.515C67.969,416.901 65.401,418.019 63.633,417.011L59.362,414.574C57.594,413.565 57.291,410.809 58.685,408.423L73.863,382.445L84.541,388.537ZM98.275,367.352L107.242,372.468C108.307,373.075 108.67,374.428 108.051,375.487L99.083,390.836C98.465,391.895 97.098,392.261 96.032,391.653L65.586,374.283C64.521,373.675 64.158,372.322 64.777,371.263L73.745,355.915C74.363,354.856 75.73,354.49 76.795,355.097L85.762,360.213L86.612,358.759C87.23,357.7 88.598,357.333 89.663,357.941L98.316,362.878C99.381,363.486 99.744,364.839 99.125,365.898L98.275,367.352Z" style="fill:white;"/>
        </g>
    </g>
</svg>
