<?xml version="1.0" encoding="UTF-8" standalone="no"?>
<!DOCTYPE svg PUBLIC "-//W3C//DTD SVG 1.1//EN" "http://www.w3.org/Graphics/SVG/1.1/DTD/svg11.dtd">
<svg width="100%" height="100%" viewBox="0 0 578 466" version="1.1" xmlns="http://www.w3.org/2000/svg" xmlns:xlink="http://www.w3.org/1999/xlink" xml:space="preserve" style="fill-rule:evenodd;clip-rule:evenodd;stroke-linejoin:round;stroke-miterlimit:1.41421;">
    <g transform="matrix(1,0,0,1,-11,-67)">
        <g id="Headphones-Icon" transform="matrix(2.48195,0,0,2.45257,-933.68,-393.668)">
            <path d="M401.998,283.973L401.998,283.443C401.998,230.843 444.703,188.139 497.303,188.139C549.903,188.139 592.608,230.843 592.608,283.443L592.608,283.992C604.117,284.586 613.279,294.118 613.279,305.774L613.279,355.716C613.279,367.754 603.506,377.528 591.468,377.528L567.596,377.528L567.596,377.089C567.461,377.235 567.327,377.382 567.191,377.528L567.191,282.888C567.191,244.315 535.875,212.999 497.303,212.999C458.73,212.999 427.415,244.315 427.415,282.888L427.415,377.528C427.116,377.206 426.821,376.883 426.527,376.557L426.527,377.528L402.655,377.528C390.617,377.528 380.843,367.754 380.843,355.716L380.843,305.774C380.843,293.956 390.263,284.32 401.998,283.973ZM450.212,291.967C450.212,287.423 446.523,283.734 441.979,283.734C437.435,283.734 433.746,287.423 433.746,291.967L433.746,369.295C433.746,373.839 437.435,377.528 441.979,377.528C446.523,377.528 450.212,373.839 450.212,369.295L450.212,291.967ZM560.68,291.967C560.68,287.423 556.991,283.734 552.447,283.734C547.903,283.734 544.214,287.423 544.214,291.967L544.214,369.295C544.214,373.839 547.903,377.528 552.447,377.528C556.991,377.528 560.68,373.839 560.68,369.295L560.68,291.967Z" style="fill:white;"/>
        </g>
    </g>
</svg>
