<?xml version="1.0" encoding="UTF-8" standalone="no"?>
<!DOCTYPE svg PUBLIC "-//W3C//DTD SVG 1.1//EN" "http://www.w3.org/Graphics/SVG/1.1/DTD/svg11.dtd">
<svg width="100%" height="100%" viewBox="0 0 586 537" version="1.1" xmlns="http://www.w3.org/2000/svg" xmlns:xlink="http://www.w3.org/1999/xlink" xml:space="preserve" style="fill-rule:evenodd;clip-rule:evenodd;stroke-linejoin:round;stroke-miterlimit:1.41421;">
    <g transform="matrix(1,0,0,1,-3,-1)">
        <path id="Heart-MoreLives-Shop-Icon" d="M377.322,494.408C347.377,515.058 318.715,530.662 295.999,537.902C224.745,516.663 92.535,408.199 49.376,322.875C-12.28,209.11 -12.28,95.345 49.376,38.462C111.032,-18.421 234.343,-18.421 295.999,95.345C357.655,-18.421 480.966,-18.421 542.622,38.462C594.423,86.251 602.704,174.19 567.465,268.547C540.991,243.615 505.332,228.328 466.132,228.328C384.52,228.328 318.261,294.587 318.261,376.2C318.261,424.496 341.464,467.415 377.322,494.408ZM466.133,266.054C527.692,266.054 577.596,315.367 577.596,376.2C577.596,437.033 527.692,486.346 466.133,486.346C404.572,486.346 354.668,437.033 354.668,376.2C354.668,315.367 404.572,266.054 466.133,266.054ZM449.96,392.181L449.96,423.193C449.96,432.014 457.206,439.174 466.132,439.174C475.058,439.174 482.304,432.014 482.304,423.193L482.304,392.181L513.688,392.181C522.615,392.18 529.861,385.02 529.861,376.2C529.861,367.38 522.615,360.22 513.688,360.219L482.304,360.219L482.304,329.206C482.304,320.386 475.058,313.225 466.132,313.225C457.206,313.225 449.96,320.386 449.96,329.206L449.96,360.219L418.576,360.219C409.649,360.22 402.403,367.38 402.403,376.2C402.403,385.019 409.649,392.18 418.576,392.181L449.96,392.181Z" style="fill:white;"/>
    </g>
</svg>
