<?xml version="1.0" encoding="UTF-8" standalone="no"?>
<!DOCTYPE svg PUBLIC "-//W3C//DTD SVG 1.1//EN" "http://www.w3.org/Graphics/SVG/1.1/DTD/svg11.dtd">
<svg width="100%" height="100%" viewBox="0 0 592 539" version="1.1" xmlns="http://www.w3.org/2000/svg" xmlns:xlink="http://www.w3.org/1999/xlink" xml:space="preserve" style="fill-rule:evenodd;clip-rule:evenodd;stroke-linejoin:round;stroke-miterlimit:1.41421;">
    <g transform="matrix(1,0,0,1,-4,-31)">
        <g id="Heart-More-Outline-Icon" transform="matrix(3.8137,0,0,3.8137,-35.2232,-1495.24)">
            <path d="M106.423,528.598C99.749,532.919 93.436,536.173 88.314,537.778C70.232,532.477 36.682,505.404 25.729,484.107C10.083,455.711 10.083,427.315 25.729,413.116C41.375,398.918 72.668,398.918 88.314,427.315C103.96,398.918 135.252,398.918 150.899,413.116C163.683,424.717 164.913,445.58 156.807,468.392" style="fill:none;stroke:white;stroke-width:7px;"/>
            <g transform="matrix(1.62284,0,0,1.62284,-2613.85,-334.107)">
                <path d="M1692.33,495.599C1702.23,495.599 1710.26,503.528 1710.26,513.31C1710.26,523.091 1702.23,531.02 1692.33,531.02C1682.43,531.02 1674.41,523.091 1674.41,513.31C1674.41,503.528 1682.43,495.599 1692.33,495.599ZM1694.93,510.74L1694.93,505.753C1694.93,504.335 1693.77,503.184 1692.33,503.184C1690.9,503.184 1689.73,504.335 1689.73,505.753L1689.73,510.74L1684.69,510.74C1683.25,510.74 1682.09,511.891 1682.09,513.31C1682.09,514.728 1683.25,515.879 1684.69,515.879L1689.73,515.879L1689.73,520.866C1689.73,522.284 1690.9,523.435 1692.33,523.435C1693.77,523.435 1694.93,522.284 1694.93,520.866L1694.93,515.879L1699.98,515.879C1701.41,515.879 1702.58,514.728 1702.58,513.31C1702.58,511.891 1701.41,510.74 1699.98,510.74L1694.93,510.74Z" style="fill:white;"/>
            </g>
        </g>
    </g>
</svg>
