<?xml version="1.0" encoding="UTF-8" standalone="no"?>
<!DOCTYPE svg PUBLIC "-//W3C//DTD SVG 1.1//EN" "http://www.w3.org/Graphics/SVG/1.1/DTD/svg11.dtd">
<svg width="100%" height="100%" viewBox="0 0 462 416" version="1.1" xmlns="http://www.w3.org/2000/svg" xmlns:xlink="http://www.w3.org/1999/xlink" xml:space="preserve" style="fill-rule:evenodd;clip-rule:evenodd;stroke-linejoin:round;stroke-miterlimit:1.41421;">
    <g transform="matrix(1,0,0,1,-69,-92)">
        <g id="Heart-Health-Icon" transform="matrix(7.7018,0,0,7.61064,-7991.9,-1304.56)">
            <path d="M1076.62,193.126C1082.92,181.56 1095.51,181.56 1101.81,187.343C1108.11,193.126 1108.11,204.692 1101.81,216.258C1097.4,224.932 1083.96,235.788 1076.62,238.119C1069.34,235.959 1055.84,224.932 1051.43,216.258C1045.13,204.692 1045.13,193.126 1051.43,187.343C1057.73,181.56 1070.32,181.56 1076.62,193.126ZM1079.41,209.506L1079.41,204.095C1079.41,202.556 1078.16,201.306 1076.62,201.306C1075.08,201.306 1073.83,202.556 1073.83,204.095L1073.83,209.506L1068.42,209.506C1066.88,209.506 1065.63,210.756 1065.63,212.295C1065.63,213.834 1066.88,215.084 1068.42,215.084L1073.83,215.084L1073.83,220.495C1073.83,222.034 1075.08,223.284 1076.62,223.284C1078.16,223.284 1079.41,222.034 1079.41,220.495L1079.41,215.084L1084.82,215.084C1086.36,215.083 1087.61,213.834 1087.61,212.295C1087.61,210.756 1086.36,209.506 1084.82,209.506L1079.41,209.506Z" style="fill:white;"/>
        </g>
    </g>
</svg>
