<?xml version="1.0" encoding="UTF-8" standalone="no"?>
<!DOCTYPE svg PUBLIC "-//W3C//DTD SVG 1.1//EN" "http://www.w3.org/Graphics/SVG/1.1/DTD/svg11.dtd">
<svg width="100%" height="100%" viewBox="0 0 580 438" version="1.1" xmlns="http://www.w3.org/2000/svg" xmlns:xlink="http://www.w3.org/1999/xlink" xml:space="preserve" style="fill-rule:evenodd;clip-rule:evenodd;stroke-linejoin:round;stroke-miterlimit:1.41421;">
    <g transform="matrix(1,0,0,1,-10,-81)">
        <g id="Heart-Minus-Icon" transform="matrix(8.2592,0,0,8.2592,-6471.64,-1251.98)">
            <path d="M837.061,178.956C846.96,178.956 854.984,186.886 854.984,196.667C854.984,206.449 846.96,214.378 837.061,214.378C827.163,214.378 819.139,206.449 819.139,196.667C819.139,186.886 827.163,178.956 837.061,178.956ZM817.874,209.282C815.972,210.407 814.194,211.257 812.689,211.729C805.903,209.739 793.311,199.578 789.2,191.584C783.327,180.927 783.327,170.269 789.2,164.94C795.072,159.611 806.817,159.611 812.689,170.269C818.562,159.611 830.307,159.611 836.179,164.94C838.66,167.191 840.093,170.394 840.478,174.145C839.363,173.981 838.222,173.897 837.061,173.897C824.335,173.897 814.018,184.091 814.018,196.667C814.018,201.333 815.438,205.671 817.874,209.282ZM834.461,199.237L844.708,199.237C846.143,199.237 847.309,198.085 847.309,196.667C847.309,195.249 846.144,194.098 844.708,194.098L839.662,194.098L834.461,194.098L829.415,194.098C827.979,194.098 826.814,195.249 826.814,196.667C826.814,198.085 827.979,199.237 829.415,199.237L834.461,199.237Z" style="fill:white;"/>
        </g>
    </g>
</svg>
