<?xml version="1.0" encoding="UTF-8" standalone="no"?>
<!DOCTYPE svg PUBLIC "-//W3C//DTD SVG 1.1//EN" "http://www.w3.org/Graphics/SVG/1.1/DTD/svg11.dtd">
<svg width="100%" height="100%" viewBox="0 0 545 410" version="1.1" xmlns="http://www.w3.org/2000/svg" xmlns:xlink="http://www.w3.org/1999/xlink" xml:space="preserve" style="fill-rule:evenodd;clip-rule:evenodd;stroke-linejoin:round;stroke-miterlimit:1.41421;">
    <g transform="matrix(1,0,0,1,-27,-95)">
        <g id="Hotel-Icon" transform="matrix(7.79574,0,0,7.79574,-16741,-6545.73)">
            <path d="M2161.98,895.536L2161.98,901.39C2161.98,903.068 2160.62,904.43 2158.94,904.43C2157.26,904.43 2155.9,903.068 2155.9,901.39L2155.9,870.314C2155.9,868.636 2157.26,867.274 2158.94,867.274C2160.62,867.274 2161.98,868.636 2161.98,870.314L2161.98,888.852L2208.63,888.852L2208.63,877.684C2208.63,876.006 2209.99,874.644 2211.67,874.644C2213.35,874.644 2214.71,876.006 2214.71,877.684L2214.71,901.39C2214.71,903.068 2213.35,904.43 2211.67,904.43C2209.99,904.43 2208.63,903.068 2208.63,901.39L2208.63,895.536L2161.98,895.536ZM2174.49,882.574L2174.49,877.043C2174.49,875.641 2175.63,874.503 2177.03,874.503C2178.43,874.503 2179.57,875.641 2179.57,877.043L2179.57,885.165C2179.57,886.567 2178.43,887.705 2177.03,887.705C2176.74,887.705 2176.47,887.657 2176.21,887.568C2175.99,887.625 2175.77,887.655 2175.54,887.655L2165.63,887.655C2164.23,887.655 2163.09,886.517 2163.09,885.115C2163.09,883.713 2164.23,882.574 2165.63,882.574L2174.49,882.574ZM2207.37,887.252L2180.4,887.252L2180.4,875.224L2202.48,875.224C2205.18,875.224 2207.37,877.418 2207.37,880.12L2207.37,887.252ZM2168.29,871.12C2171.26,871.12 2173.66,873.527 2173.66,876.492C2173.66,879.457 2171.26,881.864 2168.29,881.864C2165.33,881.864 2162.92,879.457 2162.92,876.492C2162.92,873.527 2165.33,871.12 2168.29,871.12ZM2185.74,851.893C2186.07,851.823 2186.41,851.825 2186.76,851.911L2219,859.933C2220.22,860.236 2220.96,861.467 2220.65,862.682C2220.35,863.897 2219.12,864.637 2217.91,864.335L2185.96,856.387L2153.86,864.377C2152.64,864.679 2151.41,863.939 2151.11,862.724C2150.8,861.509 2151.55,860.278 2152.76,859.975L2185,851.953C2185.25,851.891 2185.5,851.873 2185.74,851.893Z" style="fill:white;"/>
        </g>
    </g>
</svg>
