<?xml version="1.0" encoding="UTF-8" standalone="no"?>
<!DOCTYPE svg PUBLIC "-//W3C//DTD SVG 1.1//EN" "http://www.w3.org/Graphics/SVG/1.1/DTD/svg11.dtd">
<svg width="100%" height="100%" viewBox="0 0 552 500" version="1.1" xmlns="http://www.w3.org/2000/svg" xmlns:xlink="http://www.w3.org/1999/xlink" xml:space="preserve" style="fill-rule:evenodd;clip-rule:evenodd;stroke-linejoin:round;stroke-miterlimit:1.41421;">
    <g transform="matrix(1,0,0,1,-24,-50)">
        <g id="Hourglass-x2-Icon" transform="matrix(7.87866,0,0,7.87866,-8647.98,-5082.62)">
            <path d="M1152.82,679.471C1162.71,679.471 1170.74,687.4 1170.74,697.182C1170.74,706.963 1162.71,714.892 1152.82,714.892C1142.92,714.892 1134.89,706.963 1134.89,697.182C1134.89,687.4 1142.92,679.471 1152.82,679.471ZM1137.57,714.256L1102.64,714.256C1101.57,714.256 1100.71,713.402 1100.71,712.349L1100.71,708.536C1100.71,707.484 1101.57,706.63 1102.64,706.63L1106.05,706.63C1106.27,702.953 1106.73,698.461 1107.84,695.866C1110.33,690.009 1116.01,689.278 1116.07,683.677C1116.13,678.554 1108.75,676.117 1107.17,670.872C1105.96,666.872 1105.9,663.042 1105.9,659.111L1102.64,659.111C1101.57,659.111 1100.71,658.257 1100.71,657.205L1100.71,653.392C1100.71,652.34 1101.57,651.485 1102.64,651.485L1143.75,651.485C1144.81,651.485 1145.68,652.34 1145.68,653.392L1145.68,657.205C1145.68,658.257 1144.81,659.111 1143.75,659.111L1140.49,659.111C1140.48,663.042 1140.42,666.872 1139.22,670.872C1137.63,676.117 1130.25,678.554 1130.31,683.677C1130.34,685.453 1130.92,686.739 1131.79,687.854C1131.16,689.242 1130.66,690.703 1130.32,692.222C1127.32,689.412 1124.87,686.846 1126.35,681.782C1127.46,677.999 1130.49,676.185 1134.16,671.397C1136.13,668.837 1136.13,663.173 1135.94,659.111L1110.45,659.111C1110.26,663.173 1110.26,668.837 1112.22,671.397C1115.9,676.185 1118.92,677.999 1120.03,681.782C1122.11,688.868 1116.49,691.063 1112.41,695.878C1110.48,698.17 1110.24,702.914 1110.31,706.63L1111.59,706.63L1123.19,697.129L1130.58,703.178C1131.78,707.526 1134.25,711.357 1137.57,714.256ZM1146.86,700.281L1148.61,698.285C1149.11,697.788 1149.56,697.319 1149.96,696.878C1150.37,696.436 1150.71,696.004 1150.99,695.581C1151.27,695.158 1151.48,694.733 1151.63,694.307C1151.78,693.881 1151.86,693.435 1151.86,692.968C1151.86,692.355 1151.76,691.808 1151.56,691.327C1151.37,690.845 1151.08,690.439 1150.69,690.108C1150.31,689.777 1149.83,689.524 1149.26,689.349C1148.69,689.174 1148.04,689.087 1147.28,689.087C1146.56,689.087 1145.91,689.205 1145.32,689.441C1144.72,689.677 1144.21,690 1143.79,690.411C1143.36,690.822 1143.04,691.3 1142.8,691.846C1142.57,692.392 1142.45,692.972 1142.45,693.585L1145.6,693.585C1145.6,693.284 1145.64,693.007 1145.72,692.752C1145.79,692.498 1145.9,692.276 1146.04,692.085C1146.18,691.895 1146.35,691.747 1146.55,691.639C1146.75,691.532 1146.97,691.478 1147.21,691.478C1147.69,691.478 1148.06,691.629 1148.32,691.929C1148.57,692.23 1148.7,692.668 1148.7,693.244C1148.7,693.588 1148.58,693.991 1148.33,694.454C1148.08,694.917 1147.67,695.474 1147.09,696.124L1142.73,700.649L1142.73,702.673L1152.19,702.673L1152.19,700.281L1146.86,700.281ZM1156.49,692.72L1153.19,692.72L1155.84,697.568L1153.05,702.673L1156.34,702.673L1157.9,699.729L1159.48,702.673L1162.76,702.673L1159.97,697.568L1162.62,692.72L1159.37,692.72L1157.9,695.461L1156.49,692.72ZM1124.38,683.782L1122,683.782L1122,678.565L1113.01,669.547L1133.37,669.547L1124.38,678.565L1124.38,683.782Z" style="fill:white;"/>
        </g>
    </g>
</svg>
