<?xml version="1.0" encoding="UTF-8" standalone="no"?>
<!DOCTYPE svg PUBLIC "-//W3C//DTD SVG 1.1//EN" "http://www.w3.org/Graphics/SVG/1.1/DTD/svg11.dtd">
<svg width="100%" height="100%" viewBox="0 0 552 500" version="1.1" xmlns="http://www.w3.org/2000/svg" xmlns:xlink="http://www.w3.org/1999/xlink" xml:space="preserve" style="fill-rule:evenodd;clip-rule:evenodd;stroke-linejoin:round;stroke-miterlimit:1.41421;">
    <g transform="matrix(1,0,0,1,-24,-50)">
        <g id="Hourglass-x1-Icon" transform="matrix(7.87866,0,0,7.87866,-9477.43,-5082.62)">
            <path d="M1258.09,679.471C1267.99,679.471 1276.02,687.4 1276.02,697.182C1276.02,706.963 1267.99,714.892 1258.09,714.892C1248.19,714.892 1240.17,706.963 1240.17,697.182C1240.17,687.4 1248.19,679.471 1258.09,679.471ZM1242.85,714.256L1207.91,714.256C1206.85,714.256 1205.99,713.402 1205.99,712.349L1205.99,708.536C1205.99,707.484 1206.85,706.63 1207.91,706.63L1211.33,706.63C1211.54,702.953 1212.01,698.461 1213.11,695.866C1215.61,690.009 1221.28,689.278 1221.35,683.677C1221.41,678.554 1214.03,676.117 1212.45,670.872C1211.24,666.872 1211.18,663.042 1211.17,659.111L1207.91,659.111C1206.85,659.111 1205.99,658.257 1205.99,657.205L1205.99,653.392C1205.99,652.34 1206.85,651.485 1207.91,651.485L1249.03,651.485C1250.09,651.485 1250.96,652.34 1250.96,653.392L1250.96,657.205C1250.96,658.257 1250.09,659.111 1249.03,659.111L1245.77,659.111C1245.76,663.042 1245.7,666.872 1244.49,670.872C1242.91,676.117 1235.53,678.554 1235.59,683.677C1235.61,685.453 1236.2,686.739 1237.07,687.854C1236.43,689.242 1235.94,690.703 1235.6,692.222C1232.59,689.412 1230.14,686.846 1231.63,681.782C1232.74,677.999 1235.76,676.185 1239.44,671.397C1241.41,668.837 1241.41,663.173 1241.21,659.111L1215.73,659.111C1215.53,663.173 1215.53,668.837 1217.5,671.397C1221.18,676.185 1224.2,677.999 1225.31,681.782C1227.39,688.868 1221.76,691.063 1217.69,695.878C1215.75,698.17 1215.51,702.914 1215.59,706.63L1216.87,706.63L1228.47,697.129L1235.86,703.178C1237.06,707.526 1239.53,711.357 1242.85,714.256ZM1254.5,689.28L1254.21,689.28L1248.26,691.313L1248.26,693.668L1251.35,692.775L1251.35,702.673L1254.5,702.673L1254.5,689.28ZM1261.3,692.72L1258.01,692.72L1260.65,697.568L1257.86,702.673L1261.15,702.673L1262.71,699.729L1264.29,702.673L1267.57,702.673L1264.78,697.568L1267.44,692.72L1264.18,692.72L1262.72,695.461L1261.3,692.72ZM1229.66,683.782L1227.28,683.782L1227.28,678.565L1218.29,669.547L1238.65,669.547L1229.66,678.565L1229.66,683.782Z" style="fill:white;"/>
        </g>
    </g>
</svg>
