<?xml version="1.0" encoding="UTF-8" standalone="no"?>
<!DOCTYPE svg PUBLIC "-//W3C//DTD SVG 1.1//EN" "http://www.w3.org/Graphics/SVG/1.1/DTD/svg11.dtd">
<svg width="100%" height="100%" viewBox="0 0 552 500" version="1.1" xmlns="http://www.w3.org/2000/svg" xmlns:xlink="http://www.w3.org/1999/xlink" xml:space="preserve" style="fill-rule:evenodd;clip-rule:evenodd;stroke-linejoin:round;stroke-miterlimit:1.41421;">
    <g transform="matrix(1,0,0,1,-24,-50)">
        <g id="Hourglass-x3-Icon" transform="matrix(7.87866,0,0,7.87866,-7818.53,-5082.62)">
            <path d="M1047.54,679.471C1057.44,679.471 1065.46,687.4 1065.46,697.182C1065.46,706.963 1057.44,714.892 1047.54,714.892C1037.64,714.892 1029.62,706.963 1029.62,697.182C1029.62,687.4 1037.64,679.471 1047.54,679.471ZM1032.29,714.256L997.359,714.256C996.294,714.256 995.429,713.402 995.429,712.349L995.429,708.536C995.429,707.484 996.294,706.63 997.359,706.63L1000.77,706.63C1000.99,702.953 1001.45,698.461 1002.56,695.866C1005.05,690.009 1010.73,689.278 1010.8,683.677C1010.86,678.554 1003.48,676.117 1001.89,670.872C1000.69,666.872 1000.62,663.042 1000.62,659.111L997.359,659.111C996.294,659.111 995.429,658.257 995.429,657.205L995.429,653.392C995.429,652.34 996.294,651.485 997.359,651.485L1038.47,651.485C1039.54,651.485 1040.4,652.34 1040.4,653.392L1040.4,657.205C1040.4,658.257 1039.54,659.111 1038.47,659.111L1035.21,659.111C1035.21,663.042 1035.14,666.872 1033.94,670.872C1032.36,676.117 1024.97,678.554 1025.04,683.677C1025.06,685.453 1025.64,686.739 1026.51,687.854C1025.88,689.242 1025.38,690.703 1025.04,692.222C1022.04,689.412 1019.59,686.846 1021.08,681.782C1022.19,677.999 1025.21,676.185 1028.89,671.397C1030.85,668.837 1030.85,663.173 1030.66,659.111L1005.17,659.111C1004.98,663.173 1004.98,668.837 1006.94,671.397C1010.62,676.185 1013.64,677.999 1014.75,681.782C1016.84,688.868 1011.21,691.063 1007.14,695.878C1005.2,698.17 1004.96,702.914 1005.03,706.63L1006.31,706.63L1017.92,697.129L1025.3,703.178C1026.5,707.526 1028.97,711.357 1032.29,714.256ZM1037.39,698.947C1037.39,699.408 1037.46,699.821 1037.59,700.189C1037.72,700.557 1037.9,700.887 1038.13,701.178C1038.36,701.469 1038.62,701.721 1038.93,701.932C1039.25,702.144 1039.58,702.317 1039.93,702.452C1040.29,702.587 1040.65,702.688 1041.03,702.756C1041.42,702.823 1041.8,702.857 1042.17,702.857C1042.89,702.857 1043.56,702.769 1044.18,702.595C1044.8,702.42 1045.33,702.164 1045.79,701.827C1046.24,701.489 1046.59,701.075 1046.85,700.585C1047.11,700.094 1047.24,699.536 1047.24,698.911C1047.24,698.138 1047.03,697.49 1046.62,696.965C1046.21,696.441 1045.65,696.05 1044.93,695.792C1045.25,695.645 1045.54,695.47 1045.8,695.268C1046.06,695.066 1046.28,694.84 1046.46,694.592C1046.64,694.344 1046.78,694.078 1046.88,693.796C1046.97,693.514 1047.02,693.22 1047.02,692.913C1047.02,692.288 1046.91,691.737 1046.67,691.262C1046.43,690.787 1046.1,690.388 1045.68,690.066C1045.25,689.744 1044.74,689.501 1044.15,689.335C1043.55,689.17 1042.89,689.087 1042.17,689.087C1041.57,689.087 1040.99,689.17 1040.44,689.335C1039.89,689.501 1039.4,689.74 1038.98,690.053C1038.56,690.365 1038.22,690.747 1037.98,691.198C1037.73,691.648 1037.6,692.159 1037.6,692.729L1040.74,692.729C1040.74,692.533 1040.79,692.358 1040.88,692.205C1040.97,692.052 1041.08,691.921 1041.23,691.814C1041.38,691.707 1041.54,691.624 1041.72,691.566C1041.91,691.507 1042.09,691.478 1042.29,691.478C1042.56,691.478 1042.8,691.518 1043,691.598C1043.2,691.678 1043.37,691.786 1043.5,691.924C1043.63,692.062 1043.72,692.222 1043.79,692.403C1043.85,692.584 1043.89,692.775 1043.89,692.978C1043.89,693.505 1043.75,693.921 1043.47,694.224C1043.19,694.528 1042.76,694.679 1042.17,694.679L1040.65,694.679L1040.65,696.988L1042.17,696.988C1042.78,696.988 1043.25,697.129 1043.59,697.411C1043.93,697.693 1044.1,698.172 1044.1,698.846C1044.1,699.073 1044.06,699.285 1043.98,699.481C1043.9,699.677 1043.78,699.849 1043.63,699.996C1043.47,700.143 1043.28,700.258 1043.05,700.341C1042.83,700.424 1042.57,700.465 1042.29,700.465C1042.05,700.465 1041.83,700.427 1041.62,700.35C1041.4,700.274 1041.22,700.166 1041.06,700.028C1040.9,699.89 1040.78,699.729 1040.68,699.545C1040.59,699.362 1040.55,699.162 1040.55,698.947L1037.39,698.947ZM1051.54,692.72L1048.24,692.72L1050.89,697.568L1048.1,702.673L1051.39,702.673L1052.94,699.729L1054.53,702.673L1057.8,702.673L1055.02,697.568L1057.67,692.72L1054.41,692.72L1052.95,695.461L1051.54,692.72ZM1019.11,683.782L1016.72,683.782L1016.72,678.565L1007.74,669.547L1028.1,669.547L1019.11,678.565L1019.11,683.782Z" style="fill:white;"/>
        </g>
    </g>
</svg>
