<?xml version="1.0" encoding="UTF-8" standalone="no"?>
<!DOCTYPE svg PUBLIC "-//W3C//DTD SVG 1.1//EN" "http://www.w3.org/Graphics/SVG/1.1/DTD/svg11.dtd">
<svg width="100%" height="100%" viewBox="0 0 552 500" version="1.1" xmlns="http://www.w3.org/2000/svg" xmlns:xlink="http://www.w3.org/1999/xlink" xml:space="preserve" style="fill-rule:evenodd;clip-rule:evenodd;stroke-linejoin:round;stroke-miterlimit:1.41421;">
    <g transform="matrix(1,0,0,1,-24,-50)">
        <g id="Hourglass-Amount-Icon" transform="matrix(7.87866,0,0,7.87866,-6989.08,-5082.62)">
            <path d="M942.26,679.471C952.159,679.471 960.183,687.4 960.183,697.182C960.183,706.963 952.159,714.892 942.26,714.892C932.362,714.892 924.338,706.963 924.338,697.182C924.338,687.4 932.362,679.471 942.26,679.471ZM927.014,714.256L892.081,714.256C891.016,714.256 890.152,713.402 890.152,712.349L890.152,708.536C890.152,707.484 891.016,706.63 892.081,706.63L895.495,706.63C895.71,702.953 896.176,698.461 897.281,695.866C899.775,690.009 905.45,689.278 905.517,683.677C905.578,678.554 898.197,676.117 896.615,670.872C895.408,666.872 895.347,663.042 895.341,659.111L892.081,659.111C891.016,659.111 890.152,658.257 890.152,657.205L890.152,653.392C890.152,652.34 891.016,651.485 892.081,651.485L933.194,651.485C934.259,651.485 935.123,652.34 935.123,653.392L935.123,657.205C935.123,658.257 934.259,659.111 933.194,659.111L929.934,659.111C929.928,663.042 929.867,666.872 928.66,670.872C927.078,676.117 919.697,678.554 919.758,683.677C919.779,685.453 920.364,686.739 921.233,687.854C920.601,689.242 920.107,690.703 919.765,692.222C916.76,689.412 914.311,686.846 915.798,681.782C916.909,677.999 919.929,676.185 923.609,671.397C925.576,668.837 925.575,663.173 925.381,659.111L899.894,659.111C899.7,663.173 899.699,668.837 901.666,671.397C905.346,676.185 908.366,677.999 909.477,681.782C911.558,688.868 905.931,691.063 901.859,695.878C899.92,698.17 899.68,702.914 899.753,706.63L901.036,706.63L912.638,697.129L920.024,703.178C921.222,707.526 923.692,711.357 927.014,714.256ZM913.828,683.782L911.447,683.782L911.447,678.565L902.457,669.547L922.818,669.547L913.828,678.565L913.828,683.782Z" style="fill:white;"/>
        </g>
    </g>
</svg>
