<?xml version="1.0" encoding="UTF-8" standalone="no"?>
<!DOCTYPE svg PUBLIC "-//W3C//DTD SVG 1.1//EN" "http://www.w3.org/Graphics/SVG/1.1/DTD/svg11.dtd">
<svg width="100%" height="100%" viewBox="0 0 356 496" version="1.1" xmlns="http://www.w3.org/2000/svg" xmlns:xlink="http://www.w3.org/1999/xlink" xml:space="preserve" style="fill-rule:evenodd;clip-rule:evenodd;stroke-linejoin:round;stroke-miterlimit:1.41421;">
    <g transform="matrix(1,0,0,1,-122,-52)">
        <g id="Hourglass-Icon" transform="matrix(7.87866,0,0,7.87866,-6159.64,-5082.62)">
            <path d="M840.469,651.804C841.521,651.804 842.376,652.658 842.376,653.71L842.376,657.523C842.376,658.575 841.521,659.43 840.469,659.43L837.186,659.43C837.18,663.36 837.12,667.19 835.913,671.19C834.33,676.436 826.949,678.873 827.01,683.996C827.077,689.596 832.753,690.327 835.247,696.185C836.351,698.779 836.817,703.271 837.032,706.948L840.469,706.948C841.521,706.948 842.376,707.802 842.376,708.854L842.376,712.668C842.376,713.72 841.521,714.574 840.469,714.574L799.311,714.574C798.258,714.574 797.404,713.72 797.404,712.668L797.404,708.854C797.404,707.802 798.258,706.948 799.311,706.948L802.747,706.948C802.963,703.271 803.428,698.779 804.533,696.185C807.027,690.327 812.702,689.596 812.769,683.996C812.83,678.873 805.45,676.436 803.867,671.19C802.66,667.19 802.599,663.36 802.594,659.43L799.311,659.43C798.258,659.43 797.404,658.575 797.404,657.523L797.404,653.71C797.404,652.658 798.258,651.804 799.311,651.804L840.469,651.804ZM832.633,659.43L807.147,659.43C806.953,663.491 806.952,669.156 808.919,671.716C812.598,676.504 815.618,678.317 816.729,682.1C818.811,689.186 813.184,691.382 809.111,696.197C807.172,698.489 806.932,703.232 807.005,706.948L808.288,706.948L819.89,697.447L831.492,706.948L832.774,706.948C832.848,703.232 832.607,698.489 830.669,696.197C826.596,691.382 820.969,689.186 823.05,682.1C824.161,678.317 827.182,676.504 830.861,671.716C832.828,669.156 832.827,663.491 832.633,659.43ZM821.081,678.883L821.081,684.101L818.699,684.101L818.699,678.883L809.709,669.865L830.07,669.865L821.081,678.883Z" style="fill:white;"/>
        </g>
    </g>
</svg>
