<?xml version="1.0" encoding="UTF-8" standalone="no"?>
<!DOCTYPE svg PUBLIC "-//W3C//DTD SVG 1.1//EN" "http://www.w3.org/Graphics/SVG/1.1/DTD/svg11.dtd">
<svg width="100%" height="100%" viewBox="0 0 334 564" version="1.1" xmlns="http://www.w3.org/2000/svg" xmlns:xlink="http://www.w3.org/1999/xlink" xml:space="preserve" style="fill-rule:evenodd;clip-rule:evenodd;stroke-linejoin:round;stroke-miterlimit:1.41421;">
    <g transform="matrix(1,0,0,1,-133,-18)">
        <g id="Key-Icon" transform="matrix(9.02836,0,0,9.02836,-2349.84,-1396.51)">
            <path d="M288.986,192.577C280.998,190.585 275.078,183.432 275.078,174.923C275.078,164.875 283.334,156.718 293.502,156.718C303.67,156.718 311.925,164.875 311.925,174.923C311.925,183.432 306.005,190.585 298.017,192.577L298.017,197.412L302.092,197.412C303.731,197.412 305.062,198.743 305.062,200.382C305.062,202.022 303.731,203.353 302.092,203.353L300.499,203.353L300.499,206.465L302.092,206.465C303.731,206.465 305.062,207.796 305.062,209.435C305.062,211.075 303.731,212.406 302.092,212.406L298.017,212.406L298.017,214.585C298.017,217.077 295.994,219.1 293.502,219.1C291.01,219.1 288.986,217.077 288.986,214.585L288.986,192.577ZM293.502,165.82C298.586,165.82 302.713,169.899 302.713,174.923C302.713,179.947 298.586,184.026 293.502,184.026C288.418,184.026 284.29,179.947 284.29,174.923C284.29,169.899 288.418,165.82 293.502,165.82Z" style="fill:white;"/>
        </g>
    </g>
</svg>
