<?xml version="1.0" encoding="UTF-8" standalone="no"?>
<!DOCTYPE svg PUBLIC "-//W3C//DTD SVG 1.1//EN" "http://www.w3.org/Graphics/SVG/1.1/DTD/svg11.dtd">
<svg width="100%" height="100%" viewBox="0 0 544 498" version="1.1" xmlns="http://www.w3.org/2000/svg" xmlns:xlink="http://www.w3.org/1999/xlink" xml:space="preserve" style="fill-rule:evenodd;clip-rule:evenodd;stroke-linejoin:round;stroke-miterlimit:1.41421;">
    <g transform="matrix(1,0,0,1,-28,-51)">
        <g id="Knives-and-Forks-Icon--" transform="matrix(7.54559,0,0,7.54559,-9858.88,-7097.37)">
            <path d="M1360.35,984.717L1380.79,1004.92C1382.74,1006.84 1382.74,1009.97 1380.79,1011.89C1378.84,1013.82 1375.68,1013.82 1373.73,1011.89L1355.04,993.418L1352.12,996.301C1350.29,998.114 1347.31,998.114 1345.47,996.301L1342.13,993.002L1349.91,985.315L1350.89,986.279C1353.06,988.427 1356.59,988.427 1358.77,986.279L1360.35,984.717ZM1359.71,948.004C1360.56,947.17 1361.92,947.17 1362.77,948.003C1363.61,948.836 1363.61,950.189 1362.77,951.022L1348.69,964.934L1352.35,968.548L1366.42,954.636C1367.27,953.802 1368.64,953.802 1369.48,954.635C1370.32,955.468 1370.32,956.821 1369.48,957.654L1355.4,971.566L1359.06,975.18L1373.14,961.268C1373.98,960.435 1375.35,960.434 1376.19,961.267C1377.03,962.1 1377.03,963.453 1376.19,964.286L1360.07,980.216L1356.44,983.804C1355.34,984.892 1353.49,984.836 1352.32,983.679L1349.84,981.228C1349.78,981.294 1349.72,981.359 1349.66,981.423L1318.8,1011.91C1316.88,1013.81 1313.76,1013.81 1311.84,1011.91L1311.75,1011.82C1309.83,1009.92 1309.83,1006.84 1311.75,1004.94L1342.6,974.449C1342.66,974.386 1342.73,974.324 1342.8,974.265L1340.09,971.59C1338.92,970.432 1338.86,968.609 1339.96,967.521L1345.63,961.916L1359.71,948.004ZM1338.94,974.47L1331.16,982.157L1315.92,967.095C1314.08,965.281 1314.08,962.337 1315.92,960.524L1322.57,953.954C1324.4,952.14 1327.38,952.14 1329.21,953.954L1339.12,963.744L1337.54,965.306C1335.37,967.454 1335.37,970.942 1337.54,973.09L1338.94,974.47Z" style="fill:white;"/>
        </g>
    </g>
</svg>
