<?xml version="1.0" encoding="UTF-8" standalone="no"?>
<!DOCTYPE svg PUBLIC "-//W3C//DTD SVG 1.1//EN" "http://www.w3.org/Graphics/SVG/1.1/DTD/svg11.dtd">
<svg width="100%" height="100%" viewBox="0 0 555 406" version="1.1" xmlns="http://www.w3.org/2000/svg" xmlns:xlink="http://www.w3.org/1999/xlink" xml:space="preserve" style="fill-rule:evenodd;clip-rule:evenodd;stroke-linejoin:round;stroke-miterlimit:1.41421;">
    <g transform="matrix(1,0,0,1,-22,-97)">
        <g id="Level-List-Icon" transform="matrix(10.2766,0,0,10.2766,-20027,-6720.88)">
            <path d="M2000.33,702.934L1970.16,702.934C1967.66,702.934 1965.62,700.901 1965.62,698.397C1965.62,695.892 1967.66,693.859 1970.16,693.859L2000.33,693.859C2002.84,693.859 2004.87,695.892 2004.87,698.397C2004.87,700.901 2002.84,702.934 2000.33,702.934ZM1955.59,693.859C1958.11,693.859 1960.16,695.882 1960.16,698.374C1960.16,700.866 1958.11,702.89 1955.59,702.89C1953.07,702.89 1951.02,700.866 1951.02,698.374C1951.02,695.882 1953.07,693.859 1955.59,693.859ZM2000.33,687.704L1970.16,687.704C1967.66,687.704 1965.62,685.671 1965.62,683.167C1965.62,680.662 1967.66,678.629 1970.16,678.629L2000.33,678.629C2002.84,678.629 2004.87,680.662 2004.87,683.167C2004.87,685.671 2002.84,687.704 2000.33,687.704ZM1955.59,678.651C1958.11,678.651 1960.16,680.675 1960.16,683.167C1960.16,685.659 1958.11,687.682 1955.59,687.682C1953.07,687.682 1951.02,685.659 1951.02,683.167C1951.02,680.675 1953.07,678.651 1955.59,678.651ZM1955.59,663.444C1958.11,663.444 1960.16,665.467 1960.16,667.959C1960.16,670.451 1958.11,672.474 1955.59,672.474C1953.07,672.474 1951.02,670.451 1951.02,667.959C1951.02,665.467 1953.07,663.444 1955.59,663.444ZM2000.36,672.474L1970.14,672.474C1967.65,672.474 1965.62,670.451 1965.62,667.959C1965.62,665.467 1967.65,663.444 1970.14,663.444L2000.36,663.444C2002.85,663.444 2004.87,665.467 2004.87,667.959C2004.87,670.451 2002.85,672.474 2000.36,672.474Z" style="fill:white;"/>
        </g>
    </g>
</svg>
