<?xml version="1.0" encoding="UTF-8" standalone="no"?>
<!DOCTYPE svg PUBLIC "-//W3C//DTD SVG 1.1//EN" "http://www.w3.org/Graphics/SVG/1.1/DTD/svg11.dtd">
<svg width="100%" height="100%" viewBox="0 0 571 536" version="1.1" xmlns="http://www.w3.org/2000/svg" xmlns:xlink="http://www.w3.org/1999/xlink" xml:space="preserve" style="fill-rule:evenodd;clip-rule:evenodd;stroke-linejoin:round;stroke-miterlimit:1.41421;">
    <g transform="matrix(1,0,0,1,-14,-32)">
        <g id="Libra-Icon" transform="matrix(8.10641,0,0,8.10641,-7224.28,-10839.3)">
            <path d="M940.375,1407.19L915.9,1407.19C914.883,1407.19 914.057,1406.37 914.057,1405.35L914.057,1401.66C914.057,1400.65 914.883,1399.82 915.9,1399.82L940.375,1399.82C941.393,1399.82 942.219,1400.65 942.219,1401.66L942.219,1405.35C942.219,1406.37 941.393,1407.19 940.375,1407.19ZM913.109,1372.04L911.004,1372.04L903.626,1356.49L896.248,1372.04L894.143,1372.04L902.145,1355.17L901.186,1355.17C900.608,1355.17 900.139,1354.7 900.139,1354.12L900.139,1352.03C900.139,1351.45 900.608,1350.98 901.186,1350.98L925.742,1350.98L925.742,1348.29C924.768,1347.56 924.137,1346.4 924.137,1345.09C924.137,1342.88 925.929,1341.09 928.138,1341.09C930.346,1341.09 932.139,1342.88 932.139,1345.09C932.139,1346.4 931.508,1347.56 930.533,1348.29L930.533,1350.98L955.09,1350.98C955.668,1350.98 956.137,1351.45 956.137,1352.03L956.137,1354.12C956.137,1354.7 955.668,1355.17 955.09,1355.17L954.232,1355.17L962.234,1372.04L960.129,1372.04L952.751,1356.49L945.373,1372.04L943.268,1372.04L951.27,1355.17L930.533,1355.17L930.533,1376.35L931.393,1376.35C933.19,1376.35 934.648,1377.34 934.648,1378.56L934.648,1397.99L921.628,1397.99L921.628,1378.56C921.628,1377.34 923.086,1376.35 924.883,1376.35L925.742,1376.35L925.742,1355.17L905.107,1355.17L913.109,1372.04ZM914.14,1373.07C913.598,1378.06 909.072,1381.97 903.575,1381.97C898.079,1381.97 893.552,1378.06 893.011,1373.07L914.14,1373.07ZM963.265,1373.07C962.723,1378.06 958.197,1381.97 952.7,1381.97C947.204,1381.97 942.677,1378.06 942.136,1373.07L963.265,1373.07Z" style="fill:white;"/>
        </g>
    </g>
</svg>
