<?xml version="1.0" encoding="UTF-8" standalone="no"?>
<!DOCTYPE svg PUBLIC "-//W3C//DTD SVG 1.1//EN" "http://www.w3.org/Graphics/SVG/1.1/DTD/svg11.dtd">
<svg width="100%" height="100%" viewBox="0 0 537 536" version="1.1" xmlns="http://www.w3.org/2000/svg" xmlns:xlink="http://www.w3.org/1999/xlink" xml:space="preserve" style="fill-rule:evenodd;clip-rule:evenodd;stroke-linejoin:round;stroke-miterlimit:1.41421;">
    <g transform="matrix(1,0,0,1,-31,-32)">
        <g id="Lifebelt-Icon" transform="matrix(8.35477,0,0,8.35477,-18156.2,-3656.74)">
            <path d="M2209.02,441.539C2226.71,441.539 2241.07,455.901 2241.07,473.59C2241.07,491.28 2226.71,505.642 2209.02,505.642C2191.33,505.642 2176.97,491.28 2176.97,473.59C2176.97,455.901 2191.33,441.539 2209.02,441.539ZM2193.18,475.172L2180.21,475.172C2181.01,489.835 2192.77,501.6 2207.43,502.394L2207.43,489.431C2199.91,488.687 2193.92,482.696 2193.18,475.172ZM2224.86,475.172C2224.11,482.696 2218.12,488.687 2210.6,489.431L2210.6,502.394C2225.26,501.6 2237.03,489.835 2237.82,475.172L2224.86,475.172ZM2209.02,460.621C2216.17,460.621 2221.99,466.433 2221.99,473.59C2221.99,480.748 2216.17,486.56 2209.02,486.56C2201.86,486.56 2196.05,480.748 2196.05,473.59C2196.05,466.433 2201.86,460.621 2209.02,460.621ZM2210.6,444.787L2210.6,457.75C2218.12,458.494 2224.11,464.485 2224.86,472.008L2237.82,472.008C2237.03,457.346 2225.26,445.581 2210.6,444.787ZM2207.43,457.75L2207.43,444.787C2192.77,445.581 2181.01,457.346 2180.21,472.008L2193.18,472.008C2193.92,464.485 2199.91,458.494 2207.43,457.75Z" style="fill:white;"/>
        </g>
    </g>
</svg>
