<?xml version="1.0" encoding="UTF-8" standalone="no"?>
<!DOCTYPE svg PUBLIC "-//W3C//DTD SVG 1.1//EN" "http://www.w3.org/Graphics/SVG/1.1/DTD/svg11.dtd">
<svg width="100%" height="100%" viewBox="0 0 347 486" version="1.1" xmlns="http://www.w3.org/2000/svg" xmlns:xlink="http://www.w3.org/1999/xlink" xml:space="preserve" style="fill-rule:evenodd;clip-rule:evenodd;stroke-linejoin:round;stroke-miterlimit:1.41421;">
    <g transform="matrix(1,0,0,1,-126,-57)">
        <g id="Light-Bulb-Icon" transform="matrix(13.3853,0,0,13.3853,-14959.7,-9319.76)">
            <path d="M1141.49,736.782L1138.51,736.782C1137.68,736.782 1137.01,736.114 1137.01,735.291L1137.01,734.757L1134.78,734.757C1134.13,734.757 1133.6,734.221 1133.6,733.562L1133.6,732.253L1146.4,732.253L1146.4,733.562C1146.4,734.221 1145.87,734.757 1145.22,734.757L1142.99,734.757L1142.99,735.291C1142.99,736.114 1142.32,736.782 1141.49,736.782ZM1146.4,730.891L1133.6,730.891L1133.6,728.391L1146.4,728.391L1146.4,730.891ZM1146.4,727.055L1133.6,727.055L1133.6,724.695C1129.71,722.47 1127.09,718.281 1127.09,713.485C1127.09,706.36 1132.88,700.576 1140,700.576C1147.12,700.576 1152.91,706.36 1152.91,713.485C1152.91,718.281 1150.29,722.47 1146.4,724.695L1146.4,727.055ZM1144.1,714.776L1140,718.838L1135.9,714.776C1135.59,714.472 1135.09,714.472 1134.79,714.776C1134.48,715.081 1134.48,715.575 1134.79,715.879L1139.43,720.476C1139.59,720.632 1139.79,720.707 1140,720.702C1140.21,720.707 1140.41,720.632 1140.57,720.476L1145.21,715.879C1145.52,715.575 1145.52,715.081 1145.21,714.776C1144.91,714.472 1144.41,714.472 1144.1,714.776Z" style="fill:white;"/>
        </g>
    </g>
</svg>
