<?xml version="1.0" encoding="UTF-8" standalone="no"?>
<!DOCTYPE svg PUBLIC "-//W3C//DTD SVG 1.1//EN" "http://www.w3.org/Graphics/SVG/1.1/DTD/svg11.dtd">
<svg width="100%" height="100%" viewBox="0 0 554 546" version="1.1" xmlns="http://www.w3.org/2000/svg" xmlns:xlink="http://www.w3.org/1999/xlink" xml:space="preserve" style="fill-rule:evenodd;clip-rule:evenodd;stroke-linejoin:round;stroke-miterlimit:1.41421;">
    <g transform="matrix(1,0,0,1,-23,-27)">
        <g id="light-bulb-Idea-Icon" transform="matrix(7.74281,0,0,7.74281,-7664.56,-8050.24)">
            <path d="M1030.94,1113.58L1026.59,1113.58C1025.39,1113.58 1024.42,1112.61 1024.42,1111.41L1024.42,1110.63L1021.17,1110.63C1020.22,1110.63 1019.45,1109.85 1019.45,1108.89L1019.45,1106.99L1038.08,1106.99L1038.08,1108.89C1038.08,1109.85 1037.31,1110.63 1036.37,1110.63L1033.11,1110.63L1033.11,1111.41C1033.11,1112.61 1032.14,1113.58 1030.94,1113.58ZM1038.08,1105.01L1019.45,1105.01L1019.45,1101.37L1038.08,1101.37L1038.08,1105.01ZM1038.08,1099.42L1019.45,1099.42L1019.45,1095.99C1013.79,1092.75 1009.98,1086.65 1009.98,1079.67C1009.98,1069.31 1018.4,1060.89 1028.77,1060.89C1039.13,1060.89 1047.55,1069.31 1047.55,1079.67C1047.55,1086.65 1043.74,1092.75 1038.08,1095.99L1038.08,1099.42ZM1034.73,1081.55L1028.77,1087.46L1022.8,1081.55C1022.35,1081.11 1021.62,1081.11 1021.18,1081.55C1020.73,1082 1020.73,1082.71 1021.18,1083.16L1027.93,1089.85C1028.16,1090.08 1028.46,1090.18 1028.77,1090.18C1029.07,1090.18 1029.37,1090.08 1029.6,1089.85L1036.36,1083.16C1036.8,1082.71 1036.8,1082 1036.36,1081.55C1035.91,1081.11 1035.18,1081.11 1034.73,1081.55ZM1062.45,1081.98L1054.14,1081.98C1053.12,1081.98 1052.3,1081.15 1052.3,1080.14C1052.3,1079.12 1053.12,1078.3 1054.14,1078.3L1062.45,1078.3C1063.46,1078.3 1064.29,1079.12 1064.29,1080.14C1064.29,1081.15 1063.46,1081.98 1062.45,1081.98ZM1003.03,1081.98L994.72,1081.98C993.704,1081.98 992.879,1081.15 992.879,1080.14C992.879,1079.12 993.704,1078.3 994.72,1078.3L1003.03,1078.3C1004.05,1078.3 1004.87,1079.12 1004.87,1080.14C1004.87,1081.15 1004.05,1081.98 1003.03,1081.98ZM997.486,1064.67C996.625,1064.13 996.363,1063 996.902,1062.14C997.441,1061.28 998.577,1061.01 999.439,1061.55L1006.49,1065.96C1007.35,1066.5 1007.61,1067.64 1007.07,1068.5C1006.53,1069.36 1005.39,1069.62 1004.53,1069.08L997.486,1064.67ZM1059.24,1064.43C1060.1,1063.9 1060.37,1062.76 1059.83,1061.9C1059.29,1061.04 1058.15,1060.77 1057.29,1061.31L1050.24,1065.72C1049.38,1066.26 1049.12,1067.4 1049.66,1068.26C1050.2,1069.12 1051.33,1069.38 1052.19,1068.84L1059.24,1064.43ZM1047.9,1051.34C1048.46,1050.48 1048.22,1049.34 1047.36,1048.79C1046.5,1048.24 1045.35,1048.48 1044.79,1049.33L1040.26,1056.19C1039.69,1057.05 1039.93,1058.19 1040.79,1058.74C1041.65,1059.29 1042.81,1059.05 1043.37,1058.2L1047.9,1051.34ZM1009.07,1051.14C1008.5,1050.28 1008.75,1049.14 1009.6,1048.59C1010.46,1048.04 1011.62,1048.28 1012.18,1049.13L1016.71,1055.99C1017.27,1056.85 1017.03,1057.99 1016.18,1058.54C1015.32,1059.09 1014.16,1058.85 1013.6,1058L1009.07,1051.14ZM1030.2,1045.18C1030.2,1044.15 1029.37,1043.32 1028.34,1043.32C1027.31,1043.32 1026.48,1044.15 1026.48,1045.18L1026.48,1053.31C1026.48,1054.34 1027.31,1055.17 1028.34,1055.17C1029.37,1055.17 1030.2,1054.34 1030.2,1053.31L1030.2,1045.18Z" style="fill:white;"/>
        </g>
    </g>
</svg>
