<?xml version="1.0" encoding="UTF-8" standalone="no"?>
<!DOCTYPE svg PUBLIC "-//W3C//DTD SVG 1.1//EN" "http://www.w3.org/Graphics/SVG/1.1/DTD/svg11.dtd">
<svg width="100%" height="100%" viewBox="0 0 328 571" version="1.1" xmlns="http://www.w3.org/2000/svg" xmlns:xlink="http://www.w3.org/1999/xlink" xml:space="preserve" style="fill-rule:evenodd;clip-rule:evenodd;stroke-linecap:round;stroke-linejoin:round;stroke-miterlimit:1.5;">
    <g transform="matrix(1,0,0,1,-13,-14)">
        <g id="Magician-Icon-Outline">
            <g id="Magician-Icon" transform="matrix(2.75051,0,0,2.75051,-1117.17,-2271.61)">
                <path d="M488.815,902.272C488.917,899.558 488.882,896.953 488.69,894.526C488.28,889.36 487.485,884.554 484.35,880.994C483.322,882.871 481.533,884.984 478.672,885.045C475.876,885.104 476.227,882.191 470.492,881.775C464.757,882.191 465.108,885.104 462.312,885.045C459.451,884.984 457.662,882.871 456.634,880.994C453.499,884.554 452.491,889.348 452.294,894.526C452.19,897.263 452.259,900.225 452.478,903.312L459.008,890.117L453.104,909.59C454.124,917.626 455.984,926.023 458.313,933.194L462.355,913.249L460.813,939.965C463.81,947.064 467.261,951.826 470.598,951.822C474.062,951.818 477.771,946.598 480.936,938.946L479.452,913.249L483.33,932.381C485.691,925.055 487.524,916.543 488.366,908.478L482.799,890.117L488.815,902.272ZM475.328,886.86L466.857,886.86C466.664,886.86 466.506,886.702 466.506,886.509L466.506,885.807C466.506,885.613 466.664,885.455 466.857,885.455L475.328,885.455C475.522,885.455 475.679,885.613 475.679,885.807L475.679,886.509C475.679,886.702 475.522,886.86 475.328,886.86Z" style="fill:white;"/>
            </g>
            <g id="Magician-Icon1" transform="matrix(2.75051,0,0,2.75051,-1117.17,-2271.61)">
                <path d="M496.022,871.83L446.679,871.83C445.79,871.83 445.068,871.109 445.068,870.22L445.068,868.999C445.068,868.11 445.79,867.388 446.679,867.388L458.879,867.388L461.147,844.835L460.729,841.801L464.17,837.767C464.17,837.767 461.241,839.815 458.651,840.21C455.834,836.796 443.573,840.501 443.617,838.552C443.667,836.305 456.24,829.502 465.466,831.584C474.102,833.533 482.71,863.894 483.777,867.388L496.022,867.388C496.911,867.388 497.632,868.11 497.632,868.999L497.632,870.22C497.632,871.109 496.911,871.83 496.022,871.83Z" style="fill:white;"/>
            </g>
            <g id="Magician-Icon2" transform="matrix(2.75051,0,0,2.75051,-1117.17,-2271.61)">
                <path d="M435.832,959.016C432.618,968.89 417.237,970.035 419.243,952.045C419.564,949.166 420.798,939.793 420.798,939.793C418.007,939.793 417.818,939.854 417.818,937.062L417.912,931.378C417.912,928.587 420.178,926.32 422.97,926.32L426.215,926.32L430.217,916.386C433.321,907.862 437.118,900.097 441.432,894.694C444.326,891.067 447.22,889.994 449.158,889.736C447.097,888.557 445.268,886.584 445.378,883.302C445.497,879.76 449.271,875.507 452.311,871.83L488.673,871.83C491.713,875.507 495.487,879.76 495.606,883.302C495.715,886.584 493.887,888.557 491.826,889.736C493.763,889.994 496.657,891.067 499.552,894.694C505.501,902.146 527.321,954.892 528.927,965.31C530.363,974.627 511.57,982.978 510.081,979.285C505.259,967.327 495.223,910.318 495.223,910.318L507.411,1033.81C507.411,1033.81 500.966,1037.44 471.041,1037.44L470.492,1037.44L469.942,1037.44C440.018,1037.44 433.573,1033.81 433.573,1033.81L445.318,909.928C445.318,909.928 438.34,951.312 435.832,959.016Z" style="fill:none;stroke:white;stroke-width:1.82px;"/>
            </g>
            <g transform="matrix(0.978791,0,0,0.962467,-6.03287,5.9172)">
                <path d="M85.936,295.342C85.936,285.867 78.372,278.175 69.056,278.175L53.825,278.175C44.508,278.175 36.944,285.867 36.944,295.342L36.944,306.835C36.944,316.31 44.508,324.003 53.825,324.003L69.056,324.003C78.372,324.003 85.936,316.31 85.936,306.835L85.936,295.342Z" style="fill:white;"/>
            </g>
            <g transform="matrix(1,0,0,1,-5.58594,-3.53906)">
                <path d="M337.126,404.668C338.598,407.857 339.975,409.268 339.627,413.042C336.781,443.96 306.336,436.168 303.509,426.337L326.336,416.874L337.126,404.668Z" style="fill:white;"/>
            </g>
            <g id="Magician-Icon3" transform="matrix(2.75051,0,0,2.75051,-1117.17,-2271.61)">
                <path d="M437.631,868.42L438.661,871.202L441.443,872.231L438.661,873.26L437.631,876.042L436.602,873.26L433.82,872.231L436.602,871.202L437.631,868.42ZM414.837,866.727L415.867,869.509L418.648,870.538L415.867,871.568L414.837,874.35L413.808,871.568L411.026,870.538L413.808,869.509L414.837,866.727ZM431.437,845.297L432.467,848.079L435.249,849.109L432.467,850.138L431.437,852.92L430.408,850.138L427.626,849.109L430.408,848.079L431.437,845.297Z" style="fill:white;"/>
            </g>
            <g transform="matrix(0.978276,0,0,1.00368,-4.2731,-5.6768)">
                <rect x="60.432" y="100.998" width="11.328" height="479.215" style="fill:white;"/>
            </g>
            <g id="Magician-Icon4" transform="matrix(2.93818,0,0,2.93818,-1205.77,-2430.94)">
                <path d="M467.068,877.432C466.643,878.304 465.645,878.783 464.672,878.523C463.7,878.262 463.075,877.349 463.143,876.38L467.068,877.432ZM473.89,877.432C474.316,878.304 475.313,878.783 476.286,878.523C477.258,878.262 477.883,877.349 477.815,876.38L473.89,877.432ZM479.824,873.553C479.755,873.315 479.506,873.178 479.268,873.248L472.429,875.235C472.192,875.304 472.055,875.553 472.124,875.791L472.374,876.651C472.443,876.889 472.692,877.026 472.93,876.957L479.769,874.969C480.006,874.9 480.143,874.651 480.074,874.413L479.824,873.553ZM461.135,873.553C461.204,873.315 461.453,873.178 461.69,873.248L468.529,875.235C468.766,875.304 468.903,875.553 468.834,875.791L468.584,876.651C468.515,876.889 468.266,877.026 468.028,876.957L461.19,874.969C460.952,874.9 460.815,874.651 460.884,874.413L461.135,873.553Z" style="fill:white;"/>
            </g>
        </g>
    </g>
</svg>
