<?xml version="1.0" encoding="UTF-8" standalone="no"?>
<!DOCTYPE svg PUBLIC "-//W3C//DTD SVG 1.1//EN" "http://www.w3.org/Graphics/SVG/1.1/DTD/svg11.dtd">
<svg width="100%" height="100%" viewBox="0 0 555 552" version="1.1" xmlns="http://www.w3.org/2000/svg" xmlns:xlink="http://www.w3.org/1999/xlink" xml:space="preserve" style="fill-rule:evenodd;clip-rule:evenodd;stroke-linejoin:round;stroke-miterlimit:1.41421;">
    <g transform="matrix(1,0,0,1,-22,-24)">
        <g id="Magnifying-Glass-Plus-Icon" transform="matrix(9.90595,0,0,9.90595,-522.082,-7446.65)">
            <path d="M94.433,798.997C90.345,801.885 85.341,803.586 79.937,803.586C66.162,803.586 54.978,792.534 54.978,778.922C54.978,765.309 66.162,754.257 79.937,754.257C93.713,754.257 104.897,765.309 104.897,778.922C104.897,784.389 103.092,789.444 100.041,793.535L109.763,803.142C111.299,804.66 111.299,807.125 109.763,808.644C108.226,810.162 105.731,810.162 104.195,808.644L94.433,798.997ZM79.937,762.518C89.099,762.518 96.537,769.868 96.537,778.922C96.537,787.975 89.099,795.325 79.937,795.325C70.775,795.325 63.337,787.975 63.337,778.922C63.337,769.868 70.775,762.518 79.937,762.518ZM80.998,786.791L78.876,786.791C77.998,786.791 77.285,786.078 77.285,785.199L77.285,781.543L73.546,781.543C72.678,781.543 71.974,780.838 71.974,779.97L71.974,777.873C71.974,777.005 72.678,776.3 73.546,776.3L77.285,776.3L77.285,772.644C77.285,771.766 77.998,771.052 78.876,771.052L80.998,771.052C81.877,771.052 82.59,771.766 82.59,772.644L82.59,776.3L86.328,776.3C87.196,776.3 87.901,777.005 87.901,777.873L87.901,779.97C87.901,780.838 87.196,781.543 86.328,781.543L82.59,781.543L82.59,785.199C82.59,786.078 81.877,786.791 80.998,786.791Z" style="fill:white;"/>
        </g>
    </g>
</svg>
