<?xml version="1.0" encoding="UTF-8" standalone="no"?>
<!DOCTYPE svg PUBLIC "-//W3C//DTD SVG 1.1//EN" "http://www.w3.org/Graphics/SVG/1.1/DTD/svg11.dtd">
<svg width="100%" height="100%" viewBox="0 0 555 552" version="1.1" xmlns="http://www.w3.org/2000/svg" xmlns:xlink="http://www.w3.org/1999/xlink" xml:space="preserve" style="fill-rule:evenodd;clip-rule:evenodd;stroke-linejoin:round;stroke-miterlimit:1.41421;">
    <g transform="matrix(1,0,0,1,-22,-24)">
        <g id="Magnifying-Glass-Minus-Icon" transform="matrix(9.90595,0,0,9.90595,-1564.96,-7448.88)">
            <path d="M199.71,799.222C195.623,802.11 190.618,803.811 185.215,803.811C171.439,803.811 160.255,792.759 160.255,779.146C160.255,765.534 171.439,754.482 185.215,754.482C198.99,754.482 210.174,765.534 210.174,779.146C210.174,784.614 208.37,789.668 205.318,793.759L215.04,803.366C216.577,804.885 216.577,807.35 215.04,808.869C213.504,810.387 211.009,810.387 209.472,808.868L199.71,799.222ZM185.215,762.743C194.377,762.743 201.815,770.093 201.815,779.146C201.815,788.2 194.377,795.55 185.215,795.55C176.053,795.55 168.615,788.2 168.615,779.146C168.615,770.093 176.053,762.743 185.215,762.743ZM191.606,776.525C192.474,776.525 193.178,777.23 193.178,778.098L193.178,780.195C193.178,781.063 192.474,781.768 191.606,781.768L178.824,781.768C177.956,781.768 177.251,781.063 177.251,780.195L177.251,778.098C177.251,777.23 177.956,776.525 178.824,776.525L191.606,776.525Z" style="fill:white;"/>
        </g>
    </g>
</svg>
