<?xml version="1.0" encoding="UTF-8" standalone="no"?>
<!DOCTYPE svg PUBLIC "-//W3C//DTD SVG 1.1//EN" "http://www.w3.org/Graphics/SVG/1.1/DTD/svg11.dtd">
<svg width="100%" height="100%" viewBox="0 0 552 346" version="1.1" xmlns="http://www.w3.org/2000/svg" xmlns:xlink="http://www.w3.org/1999/xlink" xml:space="preserve" style="fill-rule:evenodd;clip-rule:evenodd;stroke-linejoin:round;stroke-miterlimit:1.41421;">
    <g transform="matrix(1,0,0,1,-26,-134)">
        <g id="Mail-Amount-Icon" transform="matrix(7.73836,0,0,7.73836,-6083.35,-10349.7)">
            <path d="M842.825,1363.93C852.724,1363.93 860.748,1371.86 860.748,1381.64C860.748,1391.42 852.724,1399.35 842.825,1399.35C832.927,1399.35 824.902,1391.42 824.902,1381.64C824.902,1371.86 832.927,1363.93 842.825,1363.93ZM827.45,1398.6L793.249,1398.6C791.225,1398.6 789.582,1397.03 789.582,1395.09L789.582,1358.29C789.582,1356.35 791.225,1354.78 793.249,1354.78L844.434,1354.78C846.458,1354.78 848.101,1356.35 848.101,1358.29L848.101,1359.47C846.407,1359.07 844.641,1358.87 842.825,1358.87C830.946,1358.87 821.166,1367.75 819.917,1379.16L818.521,1380.55L798.996,1361.03C798.179,1360.21 796.853,1360.21 796.036,1361.03C795.219,1361.85 795.219,1363.17 796.036,1363.99L807.934,1375.89L794.433,1389.39C793.616,1390.21 793.616,1391.53 794.433,1392.35C795.25,1393.17 796.576,1393.17 797.393,1392.35L810.895,1378.85L816.909,1384.86C817.351,1385.31 817.942,1385.51 818.521,1385.47C819.055,1385.51 819.598,1385.34 820.026,1384.96C820.824,1390.35 823.532,1395.13 827.45,1398.6Z" style="fill:white;"/>
        </g>
    </g>
</svg>
