<?xml version="1.0" encoding="UTF-8" standalone="no"?>
<!DOCTYPE svg PUBLIC "-//W3C//DTD SVG 1.1//EN" "http://www.w3.org/Graphics/SVG/1.1/DTD/svg11.dtd">
<svg width="100%" height="100%" viewBox="0 0 454 494" version="1.1" xmlns="http://www.w3.org/2000/svg" xmlns:xlink="http://www.w3.org/1999/xlink" xml:space="preserve" style="fill-rule:evenodd;clip-rule:evenodd;stroke-linejoin:round;stroke-miterlimit:1.41421;">
    <g transform="matrix(1,0,0,1,-75,-60)">
        <g id="Mail-Icon-Opened" transform="matrix(7.73836,0,0,7.73836,-8281.62,-6205.68)">
            <path d="M1134.83,873.413L1083.65,873.413C1081.62,873.413 1079.98,871.842 1079.98,869.908L1079.98,833.103C1079.98,832.889 1080,832.681 1080.04,832.478C1080.11,832.011 1080.29,831.558 1080.59,831.165C1080.81,830.856 1081.07,830.582 1081.38,830.352L1107.32,810.532C1108.45,809.415 1110.29,809.415 1111.42,810.532L1137.34,830.326C1137.65,830.627 1137.87,830.978 1138.01,831.353C1138.32,831.868 1138.5,832.466 1138.5,833.103L1138.5,869.908C1138.5,871.842 1136.86,873.412 1134.83,873.413ZM1133.67,834.581C1133.58,833.867 1133.21,833.19 1132.59,832.731L1110.91,816.791C1110.4,816.422 1109.82,816.251 1109.24,816.263C1108.66,816.251 1108.07,816.422 1107.57,816.791L1085.89,832.731C1084.68,833.62 1084.42,835.325 1085.31,836.535C1085.49,836.775 1086.19,837.726 1086.43,837.966L1098.33,849.865L1084.83,863.366C1084.01,864.183 1084.01,865.51 1084.83,866.327C1085.65,867.144 1086.97,867.144 1087.79,866.327L1101.29,852.825L1107.31,858.839C1107.75,859.281 1108.34,859.484 1108.92,859.448C1109.5,859.484 1110.09,859.281 1110.53,858.839L1117.28,852.917L1130.69,866.327C1131.51,867.144 1132.83,867.144 1133.65,866.327C1134.46,865.51 1134.46,864.183 1133.65,863.366L1120.24,849.957L1132.97,837.223C1133.69,836.507 1133.92,835.492 1133.67,834.581Z" style="fill:white;"/>
        </g>
    </g>
</svg>
