<?xml version="1.0" encoding="UTF-8" standalone="no"?>
<!DOCTYPE svg PUBLIC "-//W3C//DTD SVG 1.1//EN" "http://www.w3.org/Graphics/SVG/1.1/DTD/svg11.dtd">
<svg width="100%" height="100%" viewBox="0 0 556 410" version="1.1" xmlns="http://www.w3.org/2000/svg" xmlns:xlink="http://www.w3.org/1999/xlink" xml:space="preserve" style="fill-rule:evenodd;clip-rule:evenodd;stroke-linejoin:round;stroke-miterlimit:1.41421;">
    <g transform="matrix(1,0,0,1,-22,-95)">
        <g id="Mail-Delete-Outline-Icon" transform="matrix(1.17188,0,0,1.17188,0,0)">
            <path d="M361.015,430.279L35.913,430.279C26.84,430.279 19.475,422.225 19.475,412.305C19.475,412.106 19.478,411.907 19.484,411.709C19.478,411.51 19.475,411.312 19.475,411.112L19.475,157.143C19.475,147.223 26.84,139.169 35.913,139.169C36.778,139.169 37.627,139.242 38.46,139.384L232.513,139.384C227.544,150.717 223.936,162.765 221.891,175.332L78.331,175.332L201.076,303.874L236.052,267.246C241.394,277.801 247.946,287.653 255.529,296.626L213.507,340.632C210.048,344.255 205.511,345.896 201.076,345.584C196.641,345.896 192.104,344.255 188.645,340.632L52.351,197.902L52.351,394.331L344.352,394.331L344.352,348.389C353.717,350.156 363.384,351.08 373.27,351.08C374.593,351.08 375.912,351.064 377.228,351.031L377.228,409.324C377.377,410.294 377.454,411.29 377.454,412.305C377.454,422.223 370.092,430.275 361.015,430.279ZM373.27,81.721C439.132,81.721 492.525,134.481 492.525,199.567C492.525,264.652 439.132,317.413 373.27,317.413C307.406,317.413 254.013,264.652 254.013,199.567C254.013,134.481 307.406,81.721 373.27,81.721ZM349.547,199.098L325.63,175.181C318.995,168.546 318.995,157.771 325.63,151.135C332.266,144.499 343.041,144.499 349.677,151.135L373.594,175.052L397.51,151.135C404.146,144.499 414.921,144.499 421.557,151.135C428.192,157.771 428.192,168.546 421.557,175.181L397.64,199.098L421.557,223.015C428.192,229.651 428.192,240.426 421.557,247.061C414.921,253.697 404.146,253.697 397.51,247.061L373.594,223.144L349.677,247.061C343.041,253.697 332.266,253.697 325.63,247.061C318.995,240.426 318.995,229.651 325.63,223.015L349.547,199.098Z" style="fill:white;"/>
        </g>
    </g>
</svg>
