<?xml version="1.0" encoding="UTF-8" standalone="no"?>
<!DOCTYPE svg PUBLIC "-//W3C//DTD SVG 1.1//EN" "http://www.w3.org/Graphics/SVG/1.1/DTD/svg11.dtd">
<svg width="100%" height="100%" viewBox="0 0 418 339" version="1.1" xmlns="http://www.w3.org/2000/svg" xmlns:xlink="http://www.w3.org/1999/xlink" xml:space="preserve" style="fill-rule:evenodd;clip-rule:evenodd;stroke-linejoin:round;stroke-miterlimit:1.41421;">
    <g transform="matrix(1,0,0,1,-93,-137)">
        <g id="Mail-Outline-Icon" transform="matrix(7.73836,0,0,7.73836,-346.548,-10354.5)">
            <path d="M56.919,1358.28C56.919,1356.92 58.026,1355.81 59.39,1355.81C59.526,1355.81 59.66,1355.82 59.79,1355.84L107.815,1355.84C107.945,1355.82 108.079,1355.81 108.215,1355.81C109.504,1355.81 110.564,1356.8 110.676,1358.06C110.704,1358.22 110.719,1358.38 110.719,1358.55C110.719,1358.69 110.708,1358.84 110.685,1358.97L110.685,1396.43C110.708,1396.57 110.719,1396.71 110.719,1396.86C110.719,1398.35 109.508,1399.56 108.016,1399.56L59.623,1399.56C58.542,1399.56 57.609,1398.93 57.176,1398.01C57.012,1397.68 56.919,1397.31 56.919,1396.91L56.919,1358.28ZM61.86,1364.84L61.86,1394.16L105.744,1394.16L105.744,1365.3L85.887,1386.09C85.367,1386.63 84.686,1386.88 84.019,1386.83C83.353,1386.88 82.671,1386.63 82.151,1386.09L61.86,1364.84ZM102.466,1361.25L65.572,1361.25L84.019,1380.57L102.466,1361.25Z" style="fill:white;"/>
        </g>
    </g>
</svg>
