<?xml version="1.0" encoding="UTF-8" standalone="no"?>
<!DOCTYPE svg PUBLIC "-//W3C//DTD SVG 1.1//EN" "http://www.w3.org/Graphics/SVG/1.1/DTD/svg11.dtd">
<svg width="100%" height="100%" viewBox="0 0 436 536" version="1.1" xmlns="http://www.w3.org/2000/svg" xmlns:xlink="http://www.w3.org/1999/xlink" xml:space="preserve" style="fill-rule:evenodd;clip-rule:evenodd;stroke-linejoin:round;stroke-miterlimit:1.41421;">
    <g transform="matrix(1,0,0,1,-82,-32)">
        <g id="Mail-Opened-Outline-Icon" transform="matrix(8.35817,0,0,8.35817,-1291.57,-11188.5)">
            <path d="M190.143,1342.52C190.697,1342.49 191.266,1342.68 191.747,1343.09L214.937,1362.98C215.79,1363.35 216.388,1364.19 216.388,1365.18L216.388,1403.42C216.409,1403.55 216.42,1403.69 216.42,1403.84C216.42,1405.33 215.21,1406.54 213.719,1406.54L167.124,1406.54C166.377,1406.54 165.7,1406.24 165.211,1405.74C164.727,1405.31 164.422,1404.67 164.422,1403.97L164.422,1403.84C164.422,1403.84 164.422,1365.18 164.422,1365.18C164.422,1365.14 164.423,1365.1 164.425,1365.06C164.449,1364.26 164.788,1363.46 165.409,1362.93L188.539,1343.09C189.02,1342.68 189.589,1342.49 190.143,1342.52ZM211.612,1371.54L191.65,1387.83C190.996,1388.36 190.196,1388.49 189.491,1388.26C189.188,1388.17 188.892,1388.02 188.621,1387.8L169.198,1371.95L169.198,1401.14L211.612,1401.14L211.612,1371.54ZM169.899,1365.86L190.154,1382.39L210.397,1365.87L190.143,1348.49L169.899,1365.86Z" style="fill:white;"/>
        </g>
    </g>
</svg>
