<?xml version="1.0" encoding="UTF-8" standalone="no"?>
<!DOCTYPE svg PUBLIC "-//W3C//DTD SVG 1.1//EN" "http://www.w3.org/Graphics/SVG/1.1/DTD/svg11.dtd">
<svg width="100%" height="100%" viewBox="0 0 556 410" version="1.1" xmlns="http://www.w3.org/2000/svg" xmlns:xlink="http://www.w3.org/1999/xlink" xml:space="preserve" style="fill-rule:evenodd;clip-rule:evenodd;stroke-linejoin:round;stroke-miterlimit:1.41421;">
    <g transform="matrix(1,0,0,1,-22,-95)">
        <g id="Mail-Back-Outline-Icon" transform="matrix(7.79752,0,0,7.79752,-2027.53,-10421.3)">
            <path d="M314.278,1401.16L265.419,1401.16C264.056,1401.16 262.949,1399.95 262.949,1398.45C262.949,1398.42 262.949,1398.39 262.95,1398.37C262.949,1398.34 262.949,1398.31 262.949,1398.28L262.949,1360.11C262.949,1358.62 264.056,1357.41 265.419,1357.41C265.549,1357.41 265.677,1357.42 265.802,1357.44L294.966,1357.44C294.219,1359.14 293.677,1360.95 293.37,1362.84L271.794,1362.84L290.241,1382.16L295.498,1376.65C296.301,1378.24 297.285,1379.72 298.425,1381.07L292.11,1387.68C291.59,1388.23 290.908,1388.47 290.241,1388.43C289.575,1388.47 288.893,1388.23 288.373,1387.68L267.89,1366.23L267.89,1395.75L311.774,1395.75L311.774,1388.85C313.182,1389.12 314.634,1389.25 316.12,1389.25C316.319,1389.25 316.517,1389.25 316.715,1389.25L316.715,1398.01C316.737,1398.15 316.749,1398.3 316.749,1398.45C316.749,1399.95 315.642,1401.16 314.278,1401.16ZM316.12,1348.77C326.018,1348.77 334.043,1356.7 334.043,1366.48C334.043,1376.26 326.018,1384.19 316.12,1384.19C306.222,1384.19 298.197,1376.26 298.197,1366.48C298.197,1356.7 306.222,1348.77 316.12,1348.77ZM314.711,1363.96L317.867,1360.86C318.912,1359.83 318.912,1358.16 317.867,1357.13C316.822,1356.1 315.128,1356.1 314.084,1357.13L306.631,1364.47C306.063,1365.03 305.822,1365.77 305.874,1366.5C305.836,1367.22 306.073,1367.95 306.631,1368.5L314.084,1375.83C315.128,1376.86 316.822,1376.86 317.867,1375.83C318.912,1374.81 318.912,1373.14 317.867,1372.11L314.711,1369L323.812,1369C325.227,1369 326.373,1367.88 326.373,1366.48C326.373,1365.09 325.227,1363.96 323.812,1363.96L314.711,1363.96Z" style="fill:white;"/>
        </g>
    </g>
</svg>
