<?xml version="1.0" encoding="UTF-8" standalone="no"?>
<!DOCTYPE svg PUBLIC "-//W3C//DTD SVG 1.1//EN" "http://www.w3.org/Graphics/SVG/1.1/DTD/svg11.dtd">
<svg width="100%" height="100%" viewBox="0 0 552 346" version="1.1" xmlns="http://www.w3.org/2000/svg" xmlns:xlink="http://www.w3.org/1999/xlink" xml:space="preserve" style="fill-rule:evenodd;clip-rule:evenodd;stroke-linejoin:round;stroke-miterlimit:1.41421;">
    <g transform="matrix(1,0,0,1,-26,-134)">
        <g id="Mail-Back-Icon" transform="matrix(7.73836,0,0,7.73836,-5262.81,-10349.7)">
            <path d="M736.79,1363.93C746.688,1363.93 754.713,1371.86 754.713,1381.64C754.713,1391.42 746.688,1399.35 736.79,1399.35C726.892,1399.35 718.867,1391.42 718.867,1381.64C718.867,1371.86 726.892,1363.93 736.79,1363.93ZM721.415,1398.6L687.214,1398.6C685.19,1398.6 683.547,1397.03 683.547,1395.09L683.547,1358.29C683.547,1356.35 685.19,1354.78 687.214,1354.78L738.399,1354.78C740.423,1354.78 742.066,1356.35 742.066,1358.29L742.066,1359.47C740.372,1359.07 738.605,1358.87 736.79,1358.87C724.911,1358.87 715.131,1367.75 713.881,1379.16L712.486,1380.55L692.961,1361.03C692.144,1360.21 690.817,1360.21 690,1361.03C689.184,1361.85 689.184,1363.17 690,1363.99L701.899,1375.89L688.398,1389.39C687.581,1390.21 687.581,1391.53 688.398,1392.35C689.214,1393.17 690.541,1393.17 691.358,1392.35L704.86,1378.85L710.874,1384.86C711.316,1385.31 711.907,1385.51 712.486,1385.47C713.019,1385.51 713.563,1385.34 713.991,1384.96C714.789,1390.35 717.497,1395.13 721.415,1398.6ZM735.381,1379.12L738.537,1376.01C739.582,1374.98 739.582,1373.31 738.537,1372.29C737.492,1371.26 735.798,1371.26 734.754,1372.29L727.301,1379.62C726.733,1380.18 726.492,1380.93 726.544,1381.65C726.506,1382.37 726.743,1383.1 727.301,1383.65L734.754,1390.99C735.798,1392.02 737.492,1392.02 738.537,1390.99C739.582,1389.96 739.582,1388.29 738.537,1387.26L735.381,1384.16L744.483,1384.16C745.897,1384.16 747.043,1383.03 747.043,1381.64C747.043,1380.25 745.897,1379.12 744.483,1379.12L735.381,1379.12Z" style="fill:white;"/>
        </g>
    </g>
</svg>
