<?xml version="1.0" encoding="UTF-8" standalone="no"?>
<!DOCTYPE svg PUBLIC "-//W3C//DTD SVG 1.1//EN" "http://www.w3.org/Graphics/SVG/1.1/DTD/svg11.dtd">
<svg width="100%" height="100%" viewBox="0 0 556 410" version="1.1" xmlns="http://www.w3.org/2000/svg" xmlns:xlink="http://www.w3.org/1999/xlink" xml:space="preserve" style="fill-rule:evenodd;clip-rule:evenodd;stroke-linejoin:round;stroke-miterlimit:1.41421;">
    <g transform="matrix(1,0,0,1,-22,-95)">
        <g id="Mail-Amount-Outline-Icon" transform="matrix(7.79752,0,0,7.79752,-2858.2,-10403.2)">
            <path d="M420.808,1398.84L371.949,1398.84C370.586,1398.84 369.479,1397.63 369.479,1396.13C369.479,1396.11 369.479,1396.08 369.48,1396.05C369.479,1396.02 369.479,1395.99 369.479,1395.95L369.479,1357.79C369.479,1356.3 370.586,1355.09 371.949,1355.09C372.079,1355.09 372.207,1355.1 372.332,1355.12L401.496,1355.12C400.749,1356.82 400.207,1358.63 399.9,1360.52L378.324,1360.52L396.771,1379.84L402.028,1374.33C402.831,1375.92 403.815,1377.4 404.955,1378.75L398.64,1385.36C398.12,1385.91 397.438,1386.15 396.771,1386.11C396.105,1386.15 395.423,1385.91 394.903,1385.36L374.42,1363.91L374.42,1393.43L418.304,1393.43L418.304,1386.53C419.712,1386.79 421.164,1386.93 422.65,1386.93C422.849,1386.93 423.047,1386.93 423.245,1386.93L423.245,1395.69C423.267,1395.83 423.279,1395.98 423.279,1396.13C423.279,1397.62 422.172,1398.84 420.808,1398.84ZM422.65,1346.45C432.548,1346.45 440.573,1354.38 440.573,1364.16C440.573,1373.94 432.548,1381.87 422.65,1381.87C412.752,1381.87 404.727,1373.94 404.727,1364.16C404.727,1354.38 412.752,1346.45 422.65,1346.45Z" style="fill:white;"/>
        </g>
    </g>
</svg>
