<?xml version="1.0" encoding="UTF-8" standalone="no"?>
<!DOCTYPE svg PUBLIC "-//W3C//DTD SVG 1.1//EN" "http://www.w3.org/Graphics/SVG/1.1/DTD/svg11.dtd">
<svg width="100%" height="100%" viewBox="0 0 552 346" version="1.1" xmlns="http://www.w3.org/2000/svg" xmlns:xlink="http://www.w3.org/1999/xlink" xml:space="preserve" style="fill-rule:evenodd;clip-rule:evenodd;stroke-linejoin:round;stroke-miterlimit:1.41421;">
    <g transform="matrix(1,0,0,1,-26,-134)">
        <g id="Mail-Delete-Icon" transform="matrix(1.17188,0,0,1.17188,0,0)">
            <path d="M374.388,174.847C439.751,174.847 492.739,227.207 492.739,291.799C492.739,356.391 439.751,408.751 374.388,408.751C309.024,408.751 256.036,356.391 256.036,291.799C256.036,227.207 309.024,174.847 374.388,174.847ZM272.857,403.796L47.015,403.796C33.652,403.796 22.802,393.425 22.802,380.65L22.802,137.61C22.802,124.836 33.651,114.465 47.015,114.464L385.012,114.464C398.376,114.465 409.225,124.836 409.225,137.61L409.225,145.395C398.038,142.805 386.375,141.435 374.388,141.435C295.946,141.435 231.363,200.09 223.112,275.438L213.899,284.651L84.965,155.717C79.571,150.322 70.811,150.322 65.417,155.717C60.022,161.111 60.022,169.87 65.417,175.265L143.99,253.838L54.832,342.995C49.438,348.39 49.438,357.149 54.832,362.544C60.226,367.938 68.986,367.938 74.38,362.544L163.538,273.386L203.253,313.101C206.172,316.02 210.076,317.359 213.899,317.119C217.42,317.34 221.009,316.222 223.834,313.763C229.104,349.345 246.988,380.881 272.857,403.796ZM350.106,292.099L326.189,268.182C319.554,261.546 319.554,250.772 326.189,244.136C332.825,237.5 343.6,237.5 350.235,244.136L374.152,268.053L398.069,244.136C404.705,237.5 415.48,237.5 422.115,244.136C428.751,250.772 428.751,261.546 422.115,268.182L398.199,292.099L422.115,316.016C428.751,322.652 428.751,333.426 422.115,340.062C415.48,346.698 404.705,346.698 398.069,340.062L374.152,316.145L350.235,340.062C343.6,346.698 332.825,346.698 326.189,340.062C319.554,333.426 319.554,322.652 326.189,316.016L350.106,292.099Z" style="fill:white;"/>
        </g>
    </g>
</svg>
