<?xml version="1.0" encoding="UTF-8" standalone="no"?>
<!DOCTYPE svg PUBLIC "-//W3C//DTD SVG 1.1//EN" "http://www.w3.org/Graphics/SVG/1.1/DTD/svg11.dtd">
<svg width="100%" height="100%" viewBox="0 0 552 346" version="1.1" xmlns="http://www.w3.org/2000/svg" xmlns:xlink="http://www.w3.org/1999/xlink" xml:space="preserve" style="fill-rule:evenodd;clip-rule:evenodd;stroke-linejoin:round;stroke-miterlimit:1.41421;">
    <g transform="matrix(1,0,0,1,-26,-134)">
        <g id="Mail-Plus-Icon" transform="matrix(1.17188,0,0,1.17188,0,0)">
            <path d="M374.388,174.847C439.751,174.847 492.739,227.207 492.739,291.799C492.739,356.391 439.751,408.751 374.388,408.751C309.024,408.751 256.036,356.391 256.036,291.799C256.036,227.207 309.024,174.847 374.388,174.847ZM272.857,403.796L47.015,403.796C33.652,403.796 22.802,393.425 22.802,380.65L22.802,137.61C22.802,124.836 33.651,114.465 47.015,114.464L385.012,114.464C398.376,114.465 409.225,124.836 409.225,137.61L409.225,145.395C398.038,142.805 386.375,141.435 374.388,141.435C295.946,141.435 231.363,200.09 223.112,275.438L213.899,284.651L84.965,155.717C79.571,150.322 70.811,150.322 65.417,155.717C60.022,161.111 60.022,169.87 65.417,175.265L143.99,253.838L54.832,342.995C49.438,348.39 49.438,357.149 54.832,362.544C60.226,367.938 68.986,367.938 74.38,362.544L163.538,273.386L203.253,313.101C206.172,316.02 210.076,317.359 213.899,317.119C217.42,317.34 221.009,316.222 223.834,313.763C229.104,349.345 246.988,380.881 272.857,403.796ZM356.985,308.902L356.985,342.028C356.985,351.449 364.725,359.098 374.259,359.098C383.793,359.098 391.534,351.449 391.534,342.028L391.534,308.902L425.056,308.902C434.591,308.902 442.331,301.253 442.331,291.832C442.331,282.411 434.591,274.763 425.056,274.762L391.534,274.762L391.534,241.636C391.534,232.215 383.793,224.566 374.259,224.566C364.725,224.566 356.985,232.215 356.985,241.636L356.985,274.762L323.462,274.762C313.822,274.867 306.187,282.475 306.187,291.832C306.187,301.189 313.823,308.798 323.462,308.902L356.985,308.902Z" style="fill:white;"/>
        </g>
    </g>
</svg>
