<?xml version="1.0" encoding="UTF-8" standalone="no"?>
<!DOCTYPE svg PUBLIC "-//W3C//DTD SVG 1.1//EN" "http://www.w3.org/Graphics/SVG/1.1/DTD/svg11.dtd">
<svg width="100%" height="100%" viewBox="0 0 454 340" version="1.1" xmlns="http://www.w3.org/2000/svg" xmlns:xlink="http://www.w3.org/1999/xlink" xml:space="preserve" style="fill-rule:evenodd;clip-rule:evenodd;stroke-linejoin:round;stroke-miterlimit:1.41421;">
    <g transform="matrix(1,0,0,1,-75,-137)">
        <g id="Mail-Icon" transform="matrix(7.73836,0,0,7.73836,-10819,-5953.42)">
            <path d="M1462.72,830.863L1411.54,830.863C1409.52,830.863 1407.87,829.292 1407.87,827.358L1407.87,790.553C1407.87,788.618 1409.52,787.047 1411.54,787.047L1462.72,787.047C1464.75,787.047 1466.39,788.618 1466.39,790.553L1466.39,827.358C1466.39,829.292 1464.75,830.863 1462.72,830.863ZM1436.81,812.82L1456.34,793.295C1457.15,792.478 1458.48,792.478 1459.3,793.295C1460.11,794.111 1460.11,795.438 1459.3,796.255L1447.72,807.834L1461.54,821.655C1462.36,822.472 1462.36,823.799 1461.54,824.616C1460.72,825.433 1459.4,825.433 1458.58,824.616L1444.76,810.794L1438.42,817.128C1437.98,817.57 1437.39,817.773 1436.81,817.737C1436.23,817.773 1435.64,817.57 1435.2,817.128L1429.18,811.114L1415.68,824.616C1414.87,825.433 1413.54,825.433 1412.72,824.616C1411.9,823.799 1411.9,822.472 1412.72,821.655L1426.22,808.154L1414.33,796.255C1413.51,795.438 1413.51,794.111 1414.33,793.295C1415.14,792.478 1416.47,792.478 1417.29,793.295L1436.81,812.82Z" style="fill:white;"/>
        </g>
    </g>
</svg>
