<?xml version="1.0" encoding="UTF-8" standalone="no"?>
<!DOCTYPE svg PUBLIC "-//W3C//DTD SVG 1.1//EN" "http://www.w3.org/Graphics/SVG/1.1/DTD/svg11.dtd">
<svg width="100%" height="100%" viewBox="0 0 556 410" version="1.1" xmlns="http://www.w3.org/2000/svg" xmlns:xlink="http://www.w3.org/1999/xlink" xml:space="preserve" style="fill-rule:evenodd;clip-rule:evenodd;stroke-linejoin:round;stroke-miterlimit:1.41421;">
    <g transform="matrix(1,0,0,1,-22,-95)">
        <g id="Mail-Plus-Outline-Icon" transform="matrix(1.17188,0,0,1.17188,0,0)">
            <path d="M361.015,430.279L35.913,430.279C26.84,430.279 19.475,422.225 19.475,412.305C19.475,412.106 19.478,411.907 19.484,411.709C19.478,411.51 19.475,411.312 19.475,411.112L19.475,157.143C19.475,147.223 26.84,139.169 35.913,139.169C36.778,139.169 37.628,139.242 38.46,139.384L232.513,139.384C227.544,150.717 223.936,162.765 221.891,175.332L78.331,175.332L201.076,303.874L236.052,267.246C241.394,277.801 247.946,287.653 255.529,296.626L213.507,340.632C210.048,344.255 205.511,345.896 201.076,345.584C196.641,345.896 192.104,344.255 188.645,340.632L52.351,197.902L52.351,394.331L344.352,394.331L344.352,348.389C353.717,350.156 363.384,351.08 373.27,351.08C374.593,351.08 375.912,351.064 377.228,351.031L377.228,409.324C377.377,410.294 377.454,411.29 377.454,412.305C377.454,422.223 370.091,430.276 361.015,430.279ZM373.27,81.721C439.132,81.721 492.525,134.481 492.525,199.567C492.525,264.652 439.132,317.413 373.27,317.413C307.406,317.413 254.013,264.652 254.013,199.567C254.013,134.481 307.406,81.721 373.27,81.721ZM356.311,216.168L356.311,249.294C356.311,258.715 364.052,266.364 373.586,266.364C383.12,266.364 390.86,258.715 390.86,249.294L390.86,216.168L424.383,216.168C433.918,216.167 441.658,208.519 441.658,199.098C441.658,189.677 433.918,182.029 424.383,182.028L390.86,182.028L390.86,148.902C390.86,139.481 383.12,131.832 373.586,131.832C364.052,131.832 356.311,139.481 356.311,148.902L356.311,182.028L322.788,182.028C313.201,182.081 305.514,189.709 305.514,199.098C305.514,208.487 313.201,216.115 322.788,216.168L356.311,216.168Z" style="fill:white;"/>
        </g>
    </g>
</svg>
