<?xml version="1.0" encoding="UTF-8" standalone="no"?>
<!DOCTYPE svg PUBLIC "-//W3C//DTD SVG 1.1//EN" "http://www.w3.org/Graphics/SVG/1.1/DTD/svg11.dtd">
<svg width="100%" height="100%" viewBox="0 0 565 554" version="1.1" xmlns="http://www.w3.org/2000/svg" xmlns:xlink="http://www.w3.org/1999/xlink" xml:space="preserve" style="fill-rule:evenodd;clip-rule:evenodd;stroke-linejoin:round;stroke-miterlimit:1.41421;">
    <g transform="matrix(1,0,0,1,-17,-23)">
        <g id="Map-Icon" transform="matrix(8.61851,0,0,8.61851,-11324.9,-4719.73)">
            <path d="M1317.12,557.749C1317.56,557.258 1318.13,556.873 1318.8,556.657L1337.89,550.559C1338.5,550.363 1339.13,550.329 1339.72,550.433C1339.95,550.463 1340.17,550.514 1340.4,550.586L1358.56,556.428L1376.44,550.715C1377.12,550.498 1377.81,550.479 1378.46,550.627C1380.17,550.995 1381.46,552.504 1381.46,554.307L1381.46,604.534L1381.46,604.538C1381.5,606.162 1380.47,607.69 1378.82,608.215L1359.74,614.314C1359.06,614.53 1358.37,614.549 1357.72,614.403C1357.52,614.373 1357.31,614.325 1357.11,614.26L1339.12,608.512L1321.15,614.255C1319.23,614.867 1317.18,613.896 1316.44,612.076C1316.22,611.605 1316.11,611.082 1316.11,610.532L1316.11,560.304C1316.11,559.318 1316.49,558.42 1317.12,557.749ZM1321.64,561.683L1338.08,556.477L1359.33,562.688L1375.71,557.946L1375.69,603.298L1359.29,609.13L1338.06,602.413L1321.59,607.361L1321.64,561.683ZM1349.31,594.447C1350.82,594.447 1352.04,595.656 1352.04,597.146C1352.04,598.635 1350.82,599.845 1349.31,599.845C1347.81,599.845 1346.58,598.635 1346.58,597.146C1346.58,595.656 1347.81,594.447 1349.31,594.447ZM1357.4,594.086C1358.91,594.086 1360.13,595.296 1360.13,596.785C1360.13,598.275 1358.91,599.484 1357.4,599.484C1355.9,599.484 1354.67,598.275 1354.67,596.785C1354.67,595.296 1355.9,594.086 1357.4,594.086ZM1364.77,590.934C1366.28,590.934 1367.5,592.143 1367.5,593.633C1367.5,595.122 1366.28,596.332 1364.77,596.332C1363.26,596.332 1362.04,595.122 1362.04,593.633C1362.04,592.143 1363.26,590.934 1364.77,590.934ZM1366.83,582.972C1368.33,582.972 1369.56,584.182 1369.56,585.671C1369.56,587.161 1368.33,588.37 1366.83,588.37C1365.32,588.37 1364.1,587.161 1364.1,585.671C1364.1,584.182 1365.32,582.972 1366.83,582.972ZM1338.12,569.563L1341.99,565.541C1343.09,564.39 1344.89,564.391 1346,565.543C1347.11,566.695 1347.11,568.564 1346,569.715L1342.13,573.736L1346,577.758C1347.11,578.909 1347.11,580.778 1346,581.93C1344.89,583.082 1343.09,583.082 1341.99,581.931L1338.12,577.91L1334.25,581.931C1333.14,583.082 1331.34,583.082 1330.23,581.93C1329.12,580.778 1329.12,578.909 1330.23,577.758L1334.1,573.736L1330.23,569.715C1329.12,568.564 1329.12,566.695 1330.23,565.543C1331.34,564.391 1333.14,564.39 1334.25,565.541L1338.12,569.563ZM1362.35,576.032C1363.85,576.032 1365.08,577.242 1365.08,578.731C1365.08,580.221 1363.85,581.43 1362.35,581.43C1360.84,581.43 1359.61,580.221 1359.61,578.731C1359.61,577.242 1360.84,576.032 1362.35,576.032ZM1354.51,572.8C1356.02,572.8 1357.24,574.009 1357.24,575.499C1357.24,576.989 1356.02,578.198 1354.51,578.198C1353,578.198 1351.78,576.989 1351.78,575.499C1351.78,574.009 1353,572.8 1354.51,572.8Z" style="fill:white;"/>
        </g>
    </g>
</svg>
