<?xml version="1.0" encoding="UTF-8" standalone="no"?>
<!DOCTYPE svg PUBLIC "-//W3C//DTD SVG 1.1//EN" "http://www.w3.org/Graphics/SVG/1.1/DTD/svg11.dtd">
<svg width="100%" height="100%" viewBox="0 0 559 522" version="1.1" xmlns="http://www.w3.org/2000/svg" xmlns:xlink="http://www.w3.org/1999/xlink" xml:space="preserve" style="fill-rule:evenodd;clip-rule:evenodd;stroke-linejoin:round;stroke-miterlimit:1.41421;">
    <g transform="matrix(1,0,0,1,-20,-39)">
        <g id="Meditation-Icon" transform="matrix(6.78865,0,0,6.78865,-11715.5,-4344.47)">
            <path d="M1769.87,701.741L1786.38,694.705C1789.5,693.378 1793.12,694.799 1794.46,697.877C1795.8,700.954 1794.37,704.531 1791.25,705.858L1785.39,708.354L1791.25,710.851C1794.37,712.178 1795.8,715.755 1794.46,718.832C1793.12,721.91 1789.5,723.331 1786.38,722.004L1769.87,714.968L1753.36,722.004C1750.25,723.331 1746.63,721.91 1745.29,718.832C1743.94,715.755 1745.38,712.178 1748.49,710.851L1754.35,708.354L1748.49,705.858C1745.38,704.531 1743.94,700.954 1745.29,697.877C1746.63,694.799 1750.25,693.378 1753.36,694.705L1769.87,701.741ZM1756.62,692.668L1756.62,680.517L1751.95,688.514C1751.91,688.568 1751.88,688.622 1751.85,688.675C1751.35,689.502 1750.53,690.145 1749.52,690.414L1733.61,694.625C1731.54,695.174 1729.41,693.956 1728.85,691.908C1728.3,689.859 1729.53,687.75 1731.6,687.201L1745.95,683.401L1753.44,670.581C1754.23,669.238 1755.71,668.54 1757.18,668.676L1760.07,668.676C1762.69,670.942 1766.12,672.315 1769.87,672.315C1773.62,672.315 1777.06,670.942 1779.68,668.676L1782.73,668.676C1784.14,668.604 1785.55,669.299 1786.3,670.593L1793.79,683.413L1808.14,687.213C1810.22,687.762 1811.45,689.871 1810.89,691.919C1810.34,693.968 1808.2,695.186 1806.13,694.637L1790.23,690.426C1789.21,690.157 1788.4,689.514 1787.9,688.686C1787.86,688.634 1787.83,688.58 1787.8,688.525L1783.13,680.529L1783.13,692.668L1769.87,698.316L1756.62,692.668ZM1769.87,645.802C1776.45,645.802 1781.79,651.08 1781.79,657.581C1781.79,664.082 1776.45,669.36 1769.87,669.36C1763.29,669.36 1757.95,664.082 1757.95,657.581C1757.95,651.08 1763.29,645.802 1769.87,645.802Z" style="fill:white;"/>
        </g>
    </g>
</svg>
