<?xml version="1.0" encoding="UTF-8" standalone="no"?>
<!DOCTYPE svg PUBLIC "-//W3C//DTD SVG 1.1//EN" "http://www.w3.org/Graphics/SVG/1.1/DTD/svg11.dtd">
<svg width="100%" height="100%" viewBox="0 0 551 554" version="1.1" xmlns="http://www.w3.org/2000/svg" xmlns:xlink="http://www.w3.org/1999/xlink" xml:space="preserve" style="fill-rule:evenodd;clip-rule:evenodd;stroke-linejoin:round;stroke-miterlimit:1.41421;">
    <g transform="matrix(1,0,0,1,-24,-23)">
        <g id="Medicine-Icon" transform="matrix(8.89578,0,0,8.89578,-9803.56,-1371.6)">
            <path d="M1160.28,215.911C1154.08,220.519 1145.22,220.035 1139.58,214.461C1133.94,208.886 1133.45,200.136 1138.12,194.01L1160.28,215.911ZM1137.26,188.322C1136.95,188.59 1136.66,188.869 1136.36,189.159C1130.55,194.905 1128.98,203.271 1131.67,210.427C1124.92,214.673 1115.85,213.884 1109.96,208.062C1103.14,201.328 1103.14,190.394 1109.96,183.66L1132.05,161.829C1138.86,155.096 1149.93,155.096 1156.74,161.829C1163.04,168.053 1163.52,177.864 1158.17,184.631C1156.6,184.025 1154.96,183.62 1153.3,183.417L1153.32,183.396C1158.39,178.379 1158.39,170.233 1153.32,165.216C1148.24,160.198 1140,160.198 1134.92,165.216L1124.4,175.611L1137.26,188.322ZM1141.27,190.891C1147.47,186.283 1156.33,186.767 1161.97,192.341C1167.61,197.916 1168.1,206.666 1163.43,212.792L1141.27,190.891Z" style="fill:white;"/>
        </g>
    </g>
</svg>
