<?xml version="1.0" encoding="UTF-8" standalone="no"?>
<!DOCTYPE svg PUBLIC "-//W3C//DTD SVG 1.1//EN" "http://www.w3.org/Graphics/SVG/1.1/DTD/svg11.dtd">
<svg width="100%" height="100%" viewBox="0 0 546 480" version="1.1" xmlns="http://www.w3.org/2000/svg" xmlns:xlink="http://www.w3.org/1999/xlink" xml:space="preserve" style="fill-rule:evenodd;clip-rule:evenodd;stroke-linejoin:round;stroke-miterlimit:1.41421;">
    <g transform="matrix(1,0,0,1,-27,-60)">
        <g id="Megaphone-Icon" transform="matrix(8.89772,0,0,8.89772,-15440.6,-2252.72)">
            <path d="M1757.77,304.767L1762.91,304.806C1764.54,307.473 1767.5,309.257 1770.88,309.257C1774.2,309.257 1777.13,307.527 1778.77,304.927L1783.91,304.966C1781.91,310.158 1776.83,313.849 1770.88,313.849C1764.85,313.849 1759.71,310.064 1757.77,304.767ZM1745.96,304.846C1747.41,304.457 1748.28,302.961 1747.89,301.509L1743.74,286.041C1743.35,284.588 1741.86,283.725 1740.4,284.114C1738.95,284.503 1738.09,285.999 1738.48,287.451L1742.62,302.919C1743.01,304.372 1744.51,305.235 1745.96,304.846ZM1796.81,303.244C1798.9,302.682 1800.15,300.523 1799.59,298.426L1790.06,262.859C1789.5,260.762 1787.34,259.515 1785.24,260.077C1783.14,260.639 1781.9,262.798 1782.46,264.896L1791.99,300.462C1792.55,302.56 1794.71,303.806 1796.81,303.244ZM1790.38,302.873L1779.86,263.614L1745.32,283.908L1750.32,302.569L1790.38,302.873Z" style="fill:white;"/>
        </g>
    </g>
</svg>
