<?xml version="1.0" encoding="UTF-8" standalone="no"?>
<!DOCTYPE svg PUBLIC "-//W3C//DTD SVG 1.1//EN" "http://www.w3.org/Graphics/SVG/1.1/DTD/svg11.dtd">
<svg width="100%" height="100%" viewBox="0 0 567 560" version="1.1" xmlns="http://www.w3.org/2000/svg" xmlns:xlink="http://www.w3.org/1999/xlink" xml:space="preserve" style="fill-rule:evenodd;clip-rule:evenodd;stroke-linejoin:round;stroke-miterlimit:1.41421;">
    <g transform="matrix(1,0,0,1,-24,-20)">
        <g id="Megaphone-Off-Icon" transform="matrix(1.17188,0,0,1.17188,0,0)">
            <path d="M158.614,184.638L27.754,55.327C18.987,46.663 18.986,32.596 27.753,23.933C36.52,15.269 50.756,15.27 59.524,23.934L127.325,90.933L127.622,90.898L213.018,175.284L212.722,175.318L365.919,326.702L366.341,326.792L413.053,372.951L413.01,373.236L497.446,456.673C506.214,465.337 506.215,479.404 497.448,488.067C488.68,496.731 474.444,496.73 465.677,488.066L353.097,376.819L113.731,375L75.766,233.313L158.614,184.638ZM170.299,391.694L209.351,391.99C221.696,412.241 244.163,425.787 269.831,425.787C295.108,425.787 317.281,412.648 329.739,392.905L368.792,393.201C353.634,432.629 315.043,460.649 269.831,460.649C224.04,460.649 185.044,431.912 170.299,391.694ZM80.648,392.293C91.678,389.337 98.234,377.983 95.278,366.953L63.809,249.509C60.854,238.479 49.499,231.923 38.469,234.879C27.439,237.834 20.884,249.189 23.839,260.219L55.308,377.663C58.264,388.693 69.618,395.248 80.648,392.293ZM418.814,316.747L357.779,88.96C353.512,73.035 362.977,56.642 378.902,52.375C394.827,48.107 411.22,57.572 415.487,73.497L487.846,343.545C491.05,355.502 486.512,367.724 477.31,374.878L444.143,342.103L444.186,341.818L418.814,316.747ZM395.616,294.15L243.854,144.185L244.151,144.151L237.952,138.025L338.028,79.228L395.616,294.15Z" style="fill:white;"/>
        </g>
    </g>
</svg>
