<?xml version="1.0" encoding="UTF-8" standalone="no"?>
<!DOCTYPE svg PUBLIC "-//W3C//DTD SVG 1.1//EN" "http://www.w3.org/Graphics/SVG/1.1/DTD/svg11.dtd">
<svg width="100%" height="100%" viewBox="0 0 568 294" version="1.1" xmlns="http://www.w3.org/2000/svg" xmlns:xlink="http://www.w3.org/1999/xlink" xml:space="preserve" style="fill-rule:evenodd;clip-rule:evenodd;stroke-linejoin:round;stroke-miterlimit:1.41421;">
    <g transform="matrix(1,0,0,1,-16,-153)">
        <path id="Menu-Icon" d="M403.089,394.504C417.326,394.504 428.863,406.039 428.863,420.286C428.863,434.507 417.326,446.042 403.089,446.042L42.265,446.042C28.03,446.042 16.492,434.507 16.492,420.286C16.492,406.039 28.029,394.504 42.265,394.504L403.089,394.504ZM514.779,239.855L514.779,360.13L583.508,299.995L514.779,239.855ZM403.089,274.233C417.326,274.234 428.863,285.779 428.863,300.005C428.863,314.236 417.326,325.767 403.089,325.767L42.265,325.767C28.03,325.767 16.492,314.236 16.492,300.005C16.492,285.779 28.029,274.234 42.265,274.233L403.089,274.233ZM403.089,153.958C417.326,153.958 428.863,165.493 428.863,179.714C428.863,193.956 417.326,205.496 403.089,205.496L42.265,205.496C28.03,205.496 16.492,193.956 16.492,179.714C16.492,165.493 28.029,153.958 42.265,153.958L403.089,153.958Z" style="fill:white;"/>
    </g>
</svg>
