<?xml version="1.0" encoding="UTF-8" standalone="no"?>
<!DOCTYPE svg PUBLIC "-//W3C//DTD SVG 1.1//EN" "http://www.w3.org/Graphics/SVG/1.1/DTD/svg11.dtd">
<svg width="100%" height="100%" viewBox="0 0 334 556" version="1.1" xmlns="http://www.w3.org/2000/svg" xmlns:xlink="http://www.w3.org/1999/xlink" xml:space="preserve" style="fill-rule:evenodd;clip-rule:evenodd;stroke-linejoin:round;stroke-miterlimit:1.41421;">
    <g transform="matrix(1,0,0,1,-120,-22)">
        <g id="Microphone-Icon" transform="matrix(15.57,0,0,15.3857,-11056.8,-6161.35)">
            <path d="M727.197,431.283C721.886,431.169 717.869,426.821 717.869,421.476L717.87,417.481C717.87,416.578 718.603,415.844 719.507,415.844C720.411,415.844 721.144,416.578 721.144,417.481L721.139,421.476C721.139,425.058 723.579,427.99 727.353,428.074C728.577,428.101 729.888,428.012 729.888,428.012C733.406,427.905 736.019,425.019 736.019,421.476L736.014,417.481C736.014,416.578 736.747,415.844 737.651,415.844C738.554,415.844 739.288,416.578 739.288,417.481L739.289,421.476C739.289,426.801 735.244,431.136 729.961,431.282L729.961,433.808L733.933,433.808C734.515,433.808 734.987,434.28 734.987,434.862L734.987,436.969C734.987,437.551 734.515,438.023 733.933,438.023L723.224,438.023C722.643,438.023 722.171,437.551 722.171,436.969L722.171,434.862C722.171,434.28 722.643,433.808 723.224,433.808L727.197,433.808L727.197,431.283ZM734.537,407.863C734.537,404.574 731.867,401.904 728.579,401.904C725.29,401.904 722.62,404.574 722.62,407.863L722.62,418.997C722.62,422.285 725.29,424.955 728.579,424.955C731.867,424.955 734.537,422.285 734.537,418.997L734.537,407.863Z" style="fill:white;"/>
        </g>
    </g>
</svg>
