<?xml version="1.0" encoding="UTF-8" standalone="no"?>
<!DOCTYPE svg PUBLIC "-//W3C//DTD SVG 1.1//EN" "http://www.w3.org/Graphics/SVG/1.1/DTD/svg11.dtd">
<svg width="100%" height="100%" viewBox="0 0 550 556" version="1.1" xmlns="http://www.w3.org/2000/svg" xmlns:xlink="http://www.w3.org/1999/xlink" xml:space="preserve" style="fill-rule:evenodd;clip-rule:evenodd;stroke-linejoin:round;stroke-miterlimit:1.41421;">
    <g transform="matrix(1,0,0,1,-25,-22)">
        <g id="Microphone-Off-Icon" transform="matrix(8.11707,0,0,8.11707,-13215.5,-2029.31)">
            <path d="M1652.06,277.931L1632.19,258.29C1630.96,257.077 1630.96,255.107 1632.19,253.894C1633.41,252.68 1635.41,252.68 1636.64,253.894L1697.96,314.495C1699.19,315.708 1699.19,317.678 1697.96,318.891C1696.74,320.104 1694.74,320.104 1693.51,318.891L1678.06,303.62C1674.93,306.497 1670.79,308.291 1666.14,308.418L1666.14,313.207L1673.76,313.207C1674.88,313.208 1675.78,314.102 1675.78,315.204L1675.78,319.199C1675.78,320.301 1674.88,321.195 1673.76,321.196L1653.22,321.196C1652.11,321.196 1651.2,320.301 1651.2,319.199L1651.2,315.204C1651.2,314.102 1652.11,313.207 1653.22,313.207L1660.84,313.207L1660.84,308.421C1650.65,308.204 1642.95,299.963 1642.95,289.831L1642.95,282.26C1642.95,280.547 1644.36,279.157 1646.09,279.157C1647.82,279.157 1649.23,280.547 1649.23,282.26L1649.22,289.831C1649.22,296.622 1653.9,302.179 1661.14,302.337C1663.49,302.389 1666,302.22 1666,302.22C1668.97,302.13 1671.61,301.022 1673.62,299.236L1669.23,294.898C1667.55,295.869 1665.58,296.426 1663.49,296.426C1657.18,296.426 1652.06,291.365 1652.06,285.132L1652.06,277.931ZM1677.76,285.815L1677.75,282.26C1677.75,280.547 1679.16,279.157 1680.89,279.157C1682.63,279.157 1684.03,280.547 1684.03,282.26L1684.04,289.831C1684.04,290.533 1684,291.226 1683.92,291.908L1677.76,285.815ZM1652.52,260.871C1653.9,256.172 1658.29,252.734 1663.49,252.734C1669.8,252.734 1674.92,257.795 1674.92,264.028L1674.92,283.011L1652.52,260.871Z" style="fill:white;"/>
        </g>
    </g>
</svg>
