<?xml version="1.0" encoding="UTF-8" standalone="no"?>
<!DOCTYPE svg PUBLIC "-//W3C//DTD SVG 1.1//EN" "http://www.w3.org/Graphics/SVG/1.1/DTD/svg11.dtd">
<svg width="100%" height="100%" viewBox="0 0 580 442" version="1.1" xmlns="http://www.w3.org/2000/svg" xmlns:xlink="http://www.w3.org/1999/xlink" xml:space="preserve" style="fill-rule:evenodd;clip-rule:evenodd;stroke-linejoin:round;stroke-miterlimit:1.41421;">
    <g transform="matrix(1,0,0,1,-10,-79)">
        <g id="Multiuser-Icon" transform="matrix(8.1052,0,0,8.1052,-1217.73,-2879.1)">
            <path d="M203.622,419.387L170.887,419.387C169.282,419.387 167.979,418.084 167.979,416.479L167.979,410.662C167.979,410.662 167.979,399.928 167.979,399.928C167.979,395.529 170.934,391.815 174.967,390.663C177.611,395.734 182.275,399.034 187.247,399.034C192.22,399.034 196.886,395.733 199.53,390.66C203.568,391.808 206.53,395.525 206.53,399.928L206.53,416.479C206.53,418.084 205.227,419.387 203.622,419.387ZM220.468,409.441L209.323,409.441L209.323,399.282C209.323,396.459 208.271,393.866 206.61,391.839C210.797,391.71 214.697,388.887 216.93,384.603C220.422,385.596 222.982,388.81 222.982,392.617L222.982,406.926C222.982,408.314 221.856,409.44 220.468,409.441ZM164.9,409.117L154.041,409.117C152.653,409.117 151.527,407.99 151.527,406.602L151.527,401.573C151.527,401.573 151.527,392.293 151.527,392.293C151.527,388.49 154.082,385.278 157.569,384.282C159.802,388.565 163.702,391.387 167.888,391.515C166.07,393.587 164.9,396.306 164.9,399.282L164.9,409.117ZM187.247,395.898C181.232,395.898 175.787,389.611 175.787,381.503C175.787,373.954 178.578,368.459 187.247,368.445C195.916,368.432 198.708,373.954 198.708,381.503C198.708,389.611 193.262,395.898 187.247,395.898ZM198.191,369.1C199.694,366.793 202.261,365.403 206.311,365.397C213.805,365.385 216.219,370.16 216.219,376.687C216.219,383.696 211.511,389.132 206.311,389.132C204.545,389.132 202.835,388.505 201.348,387.403C201.878,385.592 202.168,383.644 202.168,381.602C202.168,376.433 201.065,372.025 198.191,369.1ZM172.844,387.296C171.43,388.263 169.833,388.808 168.186,388.808C162.985,388.808 158.277,383.372 158.277,376.362C158.277,369.836 160.691,365.085 168.186,365.073C172.264,365.066 174.838,366.477 176.337,368.816C173.235,371.732 172.055,376.254 172.055,381.602C172.055,383.603 172.334,385.516 172.844,387.296Z" style="fill:white;"/>
        </g>
    </g>
</svg>
