<?xml version="1.0" encoding="UTF-8" standalone="no"?>
<!DOCTYPE svg PUBLIC "-//W3C//DTD SVG 1.1//EN" "http://www.w3.org/Graphics/SVG/1.1/DTD/svg11.dtd">
<svg width="100%" height="100%" viewBox="0 0 582 560" version="1.1" xmlns="http://www.w3.org/2000/svg" xmlns:xlink="http://www.w3.org/1999/xlink" xml:space="preserve" style="fill-rule:evenodd;clip-rule:evenodd;stroke-linejoin:round;stroke-miterlimit:1.41421;">
    <g transform="matrix(1,0,0,1,-9,-20)">
        <g id="Music-Off" transform="matrix(8.36812,0,0,8.36812,-10990.6,-2101.35)">
            <path d="M1330.41,271.841L1317.28,258.863C1316.05,257.649 1316.05,255.679 1317.28,254.466C1318.51,253.253 1320.5,253.253 1321.73,254.466L1331.22,263.849L1331.26,263.844L1343.22,275.661L1343.18,275.666L1364.63,296.866L1364.69,296.879L1371.24,303.343L1371.23,303.383L1383.05,315.067C1384.28,316.28 1384.28,318.25 1383.05,319.464C1381.83,320.677 1379.83,320.677 1378.61,319.463L1367.17,308.164C1365.69,308.95 1363.88,309.517 1361.88,309.757C1356.01,310.461 1350.65,308.094 1349.91,304.476C1349.32,301.523 1351.98,298.643 1356.18,297.301L1335.94,277.308L1335.94,308.088C1336.21,311.52 1332.15,314.738 1326.56,315.409C1320.69,316.112 1315.32,313.746 1314.59,310.127C1313.86,306.509 1318.03,303 1323.9,302.296C1326.24,302.016 1328.5,302.222 1330.41,302.799L1330.41,271.841ZM1371.28,294.595L1365.74,289.121L1365.74,273.047L1351.18,274.737L1339.23,262.92L1371.31,259.196L1371.28,294.595Z" style="fill:white;"/>
        </g>
    </g>
</svg>
