<?xml version="1.0" encoding="UTF-8" standalone="no"?>
<!DOCTYPE svg PUBLIC "-//W3C//DTD SVG 1.1//EN" "http://www.w3.org/Graphics/SVG/1.1/DTD/svg11.dtd">
<svg width="100%" height="100%" viewBox="0 0 476 472" version="1.1" xmlns="http://www.w3.org/2000/svg" xmlns:xlink="http://www.w3.org/1999/xlink" xml:space="preserve" style="fill-rule:evenodd;clip-rule:evenodd;stroke-linejoin:round;stroke-miterlimit:1.41421;">
    <g transform="matrix(1,0,0,1,-9,-68)">
        <g id="Music-Icon" transform="matrix(4.83957,0,0,3.72373,-5953.39,-33.7984)">
            <path d="M1259.63,125.374L1259.63,38.056L1330.35,27.389L1330.29,124.918C1330.51,132.496 1323.57,139.528 1314.05,141.012C1303.89,142.593 1294.62,137.275 1293.35,129.143C1292.09,121.012 1299.3,113.126 1309.46,111.544C1313.5,110.914 1317.41,111.379 1320.72,112.68L1320.72,58.516L1269.2,66.289L1269.2,137.261C1269.65,144.974 1262.65,152.205 1252.97,153.712C1242.82,155.293 1233.55,149.975 1232.28,141.844C1231.01,133.712 1238.23,125.826 1248.38,124.244C1252.42,123.615 1256.32,124.078 1259.63,125.374Z" style="fill:white;"/>
        </g>
    </g>
</svg>
