<?xml version="1.0" encoding="UTF-8" standalone="no"?>
<!DOCTYPE svg PUBLIC "-//W3C//DTD SVG 1.1//EN" "http://www.w3.org/Graphics/SVG/1.1/DTD/svg11.dtd">
<svg width="100%" height="100%" viewBox="0 0 376 524" version="1.1" xmlns="http://www.w3.org/2000/svg" xmlns:xlink="http://www.w3.org/1999/xlink" xml:space="preserve" style="fill-rule:evenodd;clip-rule:evenodd;stroke-linejoin:round;stroke-miterlimit:1.41421;">
    <g transform="matrix(1,0,0,1,-112,-38)">
        <g id="Music-Note-Icon" transform="matrix(10.0553,0,0,10.0553,-11149.9,-2585.53)">
            <path d="M1141.43,266.083L1156.35,274.897C1156.9,275.226 1157.36,276.102 1157.36,276.853L1157.36,288.391C1157.36,289.142 1156.9,289.485 1156.35,289.156L1141.43,280.341M1141.43,260.919L1141.43,306.421C1141.03,309.519 1137.2,312.272 1132.07,312.887C1126.2,313.59 1120.83,311.224 1120.1,307.605C1119.37,303.987 1123.54,300.478 1129.41,299.774C1131.75,299.494 1134,299.7 1135.92,300.277L1135.92,260.919L1141.43,260.919Z" style="fill:white;"/>
        </g>
    </g>
</svg>
