<?xml version="1.0" encoding="UTF-8" standalone="no"?>
<!DOCTYPE svg PUBLIC "-//W3C//DTD SVG 1.1//EN" "http://www.w3.org/Graphics/SVG/1.1/DTD/svg11.dtd">
<svg width="100%" height="100%" viewBox="0 0 589 336" version="1.1" xmlns="http://www.w3.org/2000/svg" xmlns:xlink="http://www.w3.org/1999/xlink" xml:space="preserve" style="fill-rule:evenodd;clip-rule:evenodd;stroke-linejoin:round;stroke-miterlimit:1.41421;">
    <g transform="matrix(1,0,0,1,-7,-7)">
        <path id="Pencil-Writing-Icon" d="M203.435,286.999C218.876,286.999 231.412,299.535 231.412,314.976C231.412,330.417 218.876,342.954 203.435,342.954C187.994,342.954 175.458,330.417 175.458,314.976C175.458,299.535 187.994,286.999 203.435,286.999ZM119.503,286.999C134.944,286.999 147.481,299.535 147.481,314.976C147.481,330.417 134.944,342.954 119.503,342.954C104.062,342.954 91.526,330.417 91.526,314.976C91.526,299.535 104.062,286.999 119.503,286.999ZM35.571,286.999C51.013,286.999 63.549,299.535 63.549,314.976C63.549,330.417 51.013,342.954 35.571,342.954C20.13,342.954 7.594,330.417 7.594,314.976C7.594,299.535 20.13,286.999 35.571,286.999ZM259.409,342.903L280.527,258.387L291.084,247.853L354.445,311.228L343.883,321.803L259.409,342.903ZM550.24,115.304L375.561,290.087L312.201,226.712L486.882,51.938L550.24,115.304ZM571.356,94.171L507.998,30.796L518.557,20.222C536.053,2.725 564.418,2.725 581.913,20.222C599.409,37.726 599.409,66.117 581.913,83.605L571.356,94.171Z" style="fill:white;"/>
    </g>
</svg>
