<?xml version="1.0" encoding="UTF-8" standalone="no"?>
<!DOCTYPE svg PUBLIC "-//W3C//DTD SVG 1.1//EN" "http://www.w3.org/Graphics/SVG/1.1/DTD/svg11.dtd">
<svg width="100%" height="100%" viewBox="0 0 466 562" version="1.1" xmlns="http://www.w3.org/2000/svg" xmlns:xlink="http://www.w3.org/1999/xlink" xml:space="preserve" style="fill-rule:evenodd;clip-rule:evenodd;stroke-linejoin:round;stroke-miterlimit:1.41421;">
    <g transform="matrix(1,0,0,1,-67,-19)">
        <g id="Phone-Icon" transform="matrix(8.26227,0,0,8.26227,-14302.6,-1252.55)">
            <path d="M1763.9,202.853C1765.86,202.854 1767.45,203.927 1767.45,205.25L1767.45,219.484C1767.45,220.806 1765.86,221.88 1763.9,221.88L1755.99,221.87C1749.76,221.827 1739.35,209.161 1739.3,191.153C1739.29,190.044 1739.29,185.774 1739.3,184.665C1739.35,166.656 1749.76,153.99 1755.99,153.948L1763.9,153.937C1765.86,153.937 1767.45,155.011 1767.45,156.334L1767.45,170.568C1767.45,171.89 1765.86,172.964 1763.9,172.964L1757.76,172.964C1756.75,173.163 1755.82,173.53 1755.34,174.2C1753.47,176.842 1752.97,182.609 1752.99,186.81C1753,187.095 1753,187.39 1753,187.693L1753,187.693L1753,187.909L1753,188.125L1753,188.125C1753,188.428 1753,188.723 1752.99,189.007C1752.97,193.208 1753.47,198.975 1755.34,201.618C1755.82,202.288 1756.75,202.655 1757.76,202.853L1763.9,202.853ZM1784.19,213.779L1781.12,210.745C1787.26,205.25 1791.14,197.333 1791.14,188.499C1791.14,179.666 1787.26,171.75 1781.12,166.254L1784.19,163.22C1791.11,169.495 1795.48,178.481 1795.48,188.499C1795.48,198.517 1791.11,207.505 1784.19,213.779ZM1778.05,207.711L1774.98,204.677C1779.55,200.744 1782.46,194.963 1782.46,188.499C1782.46,182.036 1779.55,176.255 1774.98,172.322L1778.05,169.288C1783.4,174.003 1786.8,180.851 1786.8,188.499C1786.8,196.148 1783.4,202.996 1778.05,207.711ZM1771.91,201.643L1768.82,198.592C1771.83,196.234 1773.77,192.595 1773.77,188.499C1773.77,184.406 1771.83,180.765 1768.82,178.407L1771.91,175.356C1775.7,178.504 1778.12,183.222 1778.12,188.499C1778.12,193.778 1775.7,198.497 1771.91,201.643Z" style="fill:white;"/>
        </g>
    </g>
</svg>
