<?xml version="1.0" encoding="UTF-8" standalone="no"?>
<!DOCTYPE svg PUBLIC "-//W3C//DTD SVG 1.1//EN" "http://www.w3.org/Graphics/SVG/1.1/DTD/svg11.dtd">
<svg width="100%" height="100%" viewBox="0 0 441 546" version="1.1" xmlns="http://www.w3.org/2000/svg" xmlns:xlink="http://www.w3.org/1999/xlink" xml:space="preserve" style="fill-rule:evenodd;clip-rule:evenodd;stroke-linejoin:round;stroke-miterlimit:1.41421;">
    <g transform="matrix(1,0,0,1,-79,-27)">
        <g id="Pine-Tree-Icon" transform="matrix(8.07461,0,0,8.07461,-2920.41,-10001.6)">
            <path d="M402.629,1309.5L394.929,1309.5C393.846,1309.5 392.967,1308.62 392.967,1307.52L392.967,1303.01L404.592,1303.01L404.592,1307.52C404.592,1308.62 403.713,1309.5 402.629,1309.5ZM412.325,1263.08L407.394,1263.08L418.049,1279.69L411.88,1279.69L426.027,1301.28L371.531,1301.28L385.679,1279.69L379.51,1279.69L390.164,1263.08L385.234,1263.08L398.779,1242.09L412.325,1263.08Z" style="fill:white;"/>
        </g>
    </g>
</svg>
