<?xml version="1.0" encoding="UTF-8" standalone="no"?>
<!DOCTYPE svg PUBLIC "-//W3C//DTD SVG 1.1//EN" "http://www.w3.org/Graphics/SVG/1.1/DTD/svg11.dtd">
<svg width="100%" height="100%" viewBox="0 0 557 546" version="1.1" xmlns="http://www.w3.org/2000/svg" xmlns:xlink="http://www.w3.org/1999/xlink" xml:space="preserve" style="fill-rule:evenodd;clip-rule:evenodd;stroke-linejoin:round;stroke-miterlimit:1.41421;">
    <g transform="matrix(1,0,0,1,-21,-27)">
        <g id="Pinned-Notices-Icon" transform="matrix(9.09887,0,0,9.09887,-19569.9,-4987.1)">
            <path d="M2158.59,577.906L2153.15,601.587L2194.19,611.043L2196.38,599.619L2172.38,603.342C2172.38,603.342 2163.62,599.219 2158.59,577.906ZM2190.87,555.719L2200.96,554.167C2200.96,554.167 2203.35,580.959 2214.31,592.85C2214.73,592.792 2174.56,599.262 2174.76,599.227C2160.18,588.042 2159.53,560.542 2159.53,560.542L2169.94,558.939C2170.46,564.244 2174.99,568.397 2180.5,568.397C2186.35,568.397 2191.1,563.702 2191.1,557.918C2191.1,557.164 2191.02,556.428 2190.87,555.719ZM2180.5,551.101C2184.31,551.101 2187.4,554.155 2187.4,557.918C2187.4,561.68 2184.31,564.735 2180.5,564.735C2176.69,564.735 2173.6,561.68 2173.6,557.918C2173.6,554.155 2176.69,551.101 2180.5,551.101Z" style="fill:white;"/>
        </g>
    </g>
</svg>
