<?xml version="1.0" encoding="UTF-8" standalone="no"?>
<!DOCTYPE svg PUBLIC "-//W3C//DTD SVG 1.1//EN" "http://www.w3.org/Graphics/SVG/1.1/DTD/svg11.dtd">
<svg width="100%" height="100%" viewBox="0 0 434 516" version="1.1" xmlns="http://www.w3.org/2000/svg" xmlns:xlink="http://www.w3.org/1999/xlink" xml:space="preserve" style="fill-rule:evenodd;clip-rule:evenodd;stroke-linejoin:round;stroke-miterlimit:1.41421;">
    <g transform="matrix(1,0,0,1,-83,-42)">
        <g id="Pinterest-Icon" transform="matrix(21.6825,0,0,21.4259,-13381.7,-81718.3)">
            <path d="M631.604,3816C624.555,3816 621,3820.7 621,3824.61C621,3826.98 621.966,3829.09 624.039,3829.88C624.378,3830.01 624.683,3829.88 624.781,3829.53C624.85,3829.29 625.012,3828.68 625.085,3828.43C625.184,3828.08 625.145,3827.96 624.871,3827.66C624.273,3827 623.892,3826.16 623.892,3824.95C623.892,3821.47 626.697,3818.35 631.197,3818.35C635.182,3818.35 637.371,3820.62 637.371,3823.64C637.371,3827.61 635.478,3830.97 632.667,3830.97C631.115,3830.97 629.953,3829.77 630.325,3828.31C630.771,3826.56 631.635,3824.68 631.635,3823.42C631.635,3822.29 630.983,3821.35 629.634,3821.35C628.047,3821.35 626.772,3822.87 626.772,3824.92C626.772,3826.22 627.245,3827.1 627.245,3827.1C627.245,3827.1 625.622,3833.49 625.337,3834.61C624.77,3836.84 625.252,3839.57 625.292,3839.85C625.316,3840.01 625.543,3840.05 625.645,3839.93C625.791,3839.75 627.681,3837.58 628.324,3835.42C628.506,3834.81 629.368,3831.63 629.368,3831.63C629.883,3832.54 631.39,3833.35 632.992,3833.35C637.762,3833.35 640.998,3829.31 640.998,3823.9C640.998,3819.81 637.27,3816 631.604,3816Z" style="fill:white;fill-rule:nonzero;"/>
        </g>
    </g>
</svg>
