<?xml version="1.0" encoding="UTF-8" standalone="no"?>
<!DOCTYPE svg PUBLIC "-//W3C//DTD SVG 1.1//EN" "http://www.w3.org/Graphics/SVG/1.1/DTD/svg11.dtd">
<svg width="100%" height="100%" viewBox="0 0 525 502" version="1.1" xmlns="http://www.w3.org/2000/svg" xmlns:xlink="http://www.w3.org/1999/xlink" xml:space="preserve" style="fill-rule:evenodd;clip-rule:evenodd;stroke-linejoin:round;stroke-miterlimit:1.41421;">
    <g transform="matrix(1,0,0,1,-37,-49)">
        <g id="Plane-Icon" transform="matrix(3.08875,0,0,3.05219,-1194.83,-1440.07)">
            <path d="M471.398,550.861L471.398,500.532C471.398,493.675 476.966,488.107 483.824,488.107C490.682,488.107 496.249,493.675 496.249,500.532L496.249,550.861C507.848,559.202 565.371,600.67 567.375,604.052C569.605,607.814 568.942,614.261 566.354,614.261C564.072,614.261 509.202,599.444 496.249,595.938L496.249,619.131L520.53,636.133C521.109,636.495 521.688,637.054 521.688,637.823L521.688,650.29C521.688,651.291 520.876,652.103 519.875,652.103C519.703,652.103 519.064,651.953 518.9,651.895L483.824,641.967L448.748,651.895C448.583,651.953 447.945,652.103 447.772,652.103C446.772,652.103 445.96,651.291 445.96,650.29L445.96,637.823C445.96,637.054 446.538,636.495 447.117,636.133L471.398,619.131L471.398,595.938C458.445,599.444 403.576,614.261 401.294,614.261C398.706,614.261 398.043,607.814 400.272,604.052C402.277,600.67 459.8,559.202 471.398,550.861Z" style="fill:white;"/>
        </g>
    </g>
</svg>
