<?xml version="1.0" encoding="UTF-8" standalone="no"?>
<!DOCTYPE svg PUBLIC "-//W3C//DTD SVG 1.1//EN" "http://www.w3.org/Graphics/SVG/1.1/DTD/svg11.dtd">
<svg width="100%" height="100%" viewBox="0 0 430 581" version="1.1" xmlns="http://www.w3.org/2000/svg" xmlns:xlink="http://www.w3.org/1999/xlink" xml:space="preserve" style="fill-rule:evenodd;clip-rule:evenodd;stroke-linejoin:round;stroke-miterlimit:1.41421;">
    <g transform="matrix(1,0,0,1,-51,-9)">
        <g id="Potion-Full-Icon" transform="matrix(7.70787,0,0,7.70787,-14983.2,-3439.27)">
            <path d="M1989.53,454.604C1990.35,454.604 1991.01,455.268 1991.01,456.086L1991.01,459.051C1991.01,459.869 1990.35,460.533 1989.53,460.533L1987.37,460.533L1987.37,469.159C1998.36,472.838 2006.29,483.126 2006.29,495.229C2006.29,510.415 1993.81,522.745 1978.44,522.745C1963.07,522.745 1950.6,510.415 1950.6,495.229C1950.6,483.073 1958.59,472.748 1969.66,469.111L1969.66,460.533L1967.35,460.533C1966.53,460.533 1965.87,459.869 1965.87,459.051L1965.87,456.086C1965.87,455.268 1966.53,454.604 1967.35,454.604L1989.53,454.604ZM1981.81,460.533L1975.22,460.533L1975.22,467.895L1975.23,467.894L1975.23,473.397C1964.43,474.937 1956.12,484.132 1956.12,495.229C1956.12,507.403 1966.12,517.287 1978.44,517.287C1990.76,517.287 2000.76,507.403 2000.76,495.229C2000.76,484.185 1992.53,475.025 1981.81,473.42L1981.81,472.757L1981.81,472.757L1981.81,460.533ZM1978.44,478.119C1988.05,478.119 1995.85,485.826 1995.85,495.319C1995.85,504.813 1988.05,512.52 1978.44,512.52C1968.83,512.52 1961.03,504.813 1961.03,495.319C1961.03,485.826 1968.83,478.119 1978.44,478.119ZM1987.18,453.698L1969.7,453.698L1969.7,450.024C1969.7,448.581 1970.88,447.409 1972.34,447.409L1984.54,447.409C1986,447.409 1987.18,448.581 1987.18,450.024L1987.18,453.698Z" style="fill:white;"/>
        </g>
    </g>
</svg>
