<?xml version="1.0" encoding="UTF-8" standalone="no"?>
<!DOCTYPE svg PUBLIC "-//W3C//DTD SVG 1.1//EN" "http://www.w3.org/Graphics/SVG/1.1/DTD/svg11.dtd">
<svg width="100%" height="100%" viewBox="0 0 430 581" version="1.1" xmlns="http://www.w3.org/2000/svg" xmlns:xlink="http://www.w3.org/1999/xlink" xml:space="preserve" style="fill-rule:evenodd;clip-rule:evenodd;stroke-linejoin:round;stroke-miterlimit:1.41421;">
    <g transform="matrix(1,0,0,1,-51,-9)">
        <g id="Potion-Empty-Icon" transform="matrix(7.70787,0,0,7.70787,-13360.3,-3439.27)">
            <path d="M1778.98,454.604C1779.79,454.604 1780.46,455.268 1780.46,456.086L1780.46,459.051C1780.46,459.869 1779.79,460.533 1778.98,460.533L1776.81,460.533L1776.81,469.159C1787.81,472.838 1795.73,483.126 1795.73,495.229C1795.73,510.415 1783.25,522.745 1767.88,522.745C1752.52,522.745 1740.04,510.415 1740.04,495.229C1740.04,483.073 1748.03,472.748 1759.11,469.111L1759.11,460.533L1756.8,460.533C1755.98,460.533 1755.31,459.869 1755.31,459.051L1755.31,456.086C1755.31,455.268 1755.98,454.604 1756.8,454.604L1778.98,454.604ZM1771.25,460.533L1764.66,460.533L1764.66,467.895L1764.67,467.894L1764.67,473.397C1753.87,474.937 1745.56,484.132 1745.56,495.229C1745.56,507.403 1755.57,517.287 1767.88,517.287C1780.2,517.287 1790.21,507.403 1790.21,495.229C1790.21,484.185 1781.98,475.025 1771.25,473.42L1771.25,472.757L1771.25,472.757L1771.25,460.533ZM1776.63,453.698L1759.14,453.698L1759.14,450.024C1759.14,448.581 1760.33,447.409 1761.79,447.409L1773.98,447.409C1775.44,447.409 1776.63,448.581 1776.63,450.024L1776.63,453.698Z" style="fill:white;"/>
        </g>
    </g>
</svg>
