<?xml version="1.0" encoding="UTF-8" standalone="no"?>
<!DOCTYPE svg PUBLIC "-//W3C//DTD SVG 1.1//EN" "http://www.w3.org/Graphics/SVG/1.1/DTD/svg11.dtd">
<svg width="100%" height="100%" viewBox="0 0 430 581" version="1.1" xmlns="http://www.w3.org/2000/svg" xmlns:xlink="http://www.w3.org/1999/xlink" xml:space="preserve" style="fill-rule:evenodd;clip-rule:evenodd;stroke-linejoin:round;stroke-miterlimit:1.41421;">
    <g transform="matrix(1,0,0,1,-51,-9)">
        <g id="Potion-Half-Icon" transform="matrix(7.70787,0,0,7.70787,-14171.7,-3439.27)">
            <path d="M1884.25,454.604C1885.07,454.604 1885.74,455.268 1885.74,456.086L1885.74,459.051C1885.74,459.869 1885.07,460.533 1884.25,460.533L1882.09,460.533L1882.09,469.159C1893.08,472.838 1901.01,483.126 1901.01,495.229C1901.01,510.415 1888.53,522.745 1873.16,522.745C1857.79,522.745 1845.32,510.415 1845.32,495.229C1845.32,483.073 1853.31,472.748 1864.38,469.111L1864.38,460.533L1862.07,460.533C1861.26,460.533 1860.59,459.869 1860.59,459.051L1860.59,456.086C1860.59,455.268 1861.26,454.604 1862.07,454.604L1884.25,454.604ZM1876.53,460.533L1869.94,460.533L1869.94,467.895L1869.95,467.894L1869.95,473.397C1859.15,474.937 1850.84,484.132 1850.84,495.229C1850.84,507.403 1860.84,517.287 1873.16,517.287C1885.48,517.287 1895.49,507.403 1895.49,495.229C1895.49,484.185 1887.25,475.025 1876.53,473.42L1876.53,472.757L1876.53,472.757L1876.53,460.533ZM1890.53,496.53C1889.9,505.459 1882.36,512.52 1873.16,512.52C1863.97,512.52 1856.43,505.459 1855.8,496.53L1890.53,496.53ZM1881.91,453.698L1864.42,453.698L1864.42,450.024C1864.42,448.581 1865.61,447.409 1867.07,447.409L1879.26,447.409C1880.72,447.409 1881.91,448.581 1881.91,450.024L1881.91,453.698Z" style="fill:white;"/>
        </g>
    </g>
</svg>
