<?xml version="1.0" encoding="UTF-8" standalone="no"?>
<!DOCTYPE svg PUBLIC "-//W3C//DTD SVG 1.1//EN" "http://www.w3.org/Graphics/SVG/1.1/DTD/svg11.dtd">
<svg width="100%" height="100%" viewBox="0 0 351 568" version="1.1" xmlns="http://www.w3.org/2000/svg" xmlns:xlink="http://www.w3.org/1999/xlink" xml:space="preserve" style="fill-rule:evenodd;clip-rule:evenodd;stroke-linejoin:round;stroke-miterlimit:1.41421;">
    <g transform="matrix(1,0,0,1,-124,-15)">
        <g id="Potion-Skull-Icon" transform="matrix(5.74994,0,0,5.74994,-328.1,-3535.41)">
            <path d="M131.424,716.216L86.922,716.216C82.414,716.216 78.754,712.556 78.754,708.048C78.754,707.792 78.766,707.539 78.789,707.29L78.754,707.29L78.754,669.921C78.5,658.06 86.698,655.763 93.226,653.172C96.7,651.793 96.512,646.103 95.96,641.922C94.099,641.825 92.617,640.282 92.617,638.397C92.617,636.449 94.199,634.867 96.147,634.867L122.125,634.867C124.073,634.867 125.655,636.449 125.655,638.397C125.655,640.259 124.21,641.786 122.381,641.917C121.829,646.099 121.64,651.793 125.114,653.172C131.553,655.727 139.615,657.996 139.592,669.436L139.592,669.436L139.592,707.29L139.557,707.29C139.58,707.54 139.592,707.793 139.592,708.048C139.592,712.556 135.933,716.215 131.424,716.216ZM115.531,713.038C116.061,713.037 116.489,712.608 116.489,712.08L116.489,705.81C119.571,706.043 122.146,705.75 123.884,703.11C125.423,700.772 126.307,692.39 126.307,689.479C126.307,680.82 118.489,673.791 108.86,673.791C99.231,673.791 91.413,680.82 91.413,689.479C91.413,692.675 92.479,701.305 94.307,703.786C96.025,706.116 98.416,706.302 101.231,705.996L101.231,712.08C101.231,712.609 101.66,713.038 102.189,713.038L104.105,713.038C104.635,713.037 105.063,712.608 105.063,712.08L105.063,710.027L106.944,710.027L106.944,712.08C106.944,712.609 107.373,713.038 107.902,713.038L109.818,713.038C110.348,713.037 110.776,712.608 110.776,712.08L110.776,710.027L112.657,710.027L112.657,712.08C112.657,712.609 113.086,713.038 113.615,713.038L115.531,713.038ZM111.264,704.939L108.86,700.789L106.456,704.939L111.264,704.939ZM102.836,691.24C105.809,692.69 106.791,695.128 105.744,697.275C104.697,699.422 101.283,702.026 98.311,700.577C95.338,699.127 94.59,694.663 95.637,692.516C96.684,690.369 99.863,689.79 102.836,691.24ZM114.73,691.24C111.757,692.69 110.775,695.128 111.822,697.275C112.869,699.422 116.282,702.026 119.255,700.577C122.228,699.127 122.976,694.663 121.929,692.516C120.882,690.369 117.702,689.79 114.73,691.24ZM116.851,641.927L101.489,641.927C102.381,648.15 102.449,656.772 93.881,659.024C87.037,660.823 85.527,663.474 85.333,669.436L133.008,669.436C132.814,663.474 131.303,660.823 124.46,659.024C115.892,656.772 115.96,648.15 116.851,641.927ZM119.576,630.974L98.726,630.974L95.554,620.626C95.554,618.978 96.891,617.641 98.539,617.641L119.802,617.641C121.45,617.641 122.787,618.978 122.787,620.626L119.576,630.974Z" style="fill:white;"/>
        </g>
    </g>
</svg>
