<?xml version="1.0" encoding="UTF-8" standalone="no"?>
<!DOCTYPE svg PUBLIC "-//W3C//DTD SVG 1.1//EN" "http://www.w3.org/Graphics/SVG/1.1/DTD/svg11.dtd">
<svg width="100%" height="100%" viewBox="0 0 351 568" version="1.1" xmlns="http://www.w3.org/2000/svg" xmlns:xlink="http://www.w3.org/1999/xlink" xml:space="preserve" style="fill-rule:evenodd;clip-rule:evenodd;stroke-linejoin:round;stroke-miterlimit:1.41421;">
    <g transform="matrix(1,0,0,1,-124,-15)">
        <g id="Potion-Cross-Icon" transform="matrix(1.17188,0,0,1.17188,0,0)">
            <path d="M364.87,497.314L146.514,497.314C124.396,497.314 106.438,479.357 106.438,457.238C106.438,455.983 106.496,454.742 106.609,453.516L106.438,453.516L106.438,270.163C105.189,211.965 145.414,200.695 177.447,187.981C194.489,181.216 193.57,153.295 190.862,132.781C181.729,132.305 174.459,124.738 174.459,115.486C174.459,105.928 182.219,98.167 191.777,98.167L319.242,98.167C328.801,98.167 336.561,105.928 336.561,115.486C336.561,124.622 329.47,132.116 320.497,132.76C317.787,153.276 316.862,181.214 333.91,187.981C365.499,200.52 405.058,211.653 404.946,267.783L404.947,267.783L404.947,453.516L404.775,453.516C404.889,454.746 404.947,455.985 404.947,457.238C404.947,479.355 386.992,497.311 364.87,497.314ZM272.534,334.717L272.534,306.059C272.534,301.407 268.758,297.631 264.106,297.631L247.25,297.631C242.598,297.631 238.822,301.407 238.822,306.059L238.822,334.717L205.049,334.717C200.397,334.717 196.621,338.494 196.621,343.145L196.621,360.002C196.621,364.653 200.397,368.43 205.049,368.43L238.822,368.43L238.822,463.398C238.822,468.049 242.598,471.826 247.25,471.826L264.106,471.826C268.758,471.825 272.534,468.049 272.534,463.398L272.534,368.43L306.307,368.43C310.96,368.429 314.736,364.653 314.736,360.002L314.736,343.145C314.736,338.494 310.96,334.718 306.307,334.717L272.534,334.717ZM293.367,132.805L217.99,132.805C222.366,163.339 222.697,205.648 180.657,216.696C147.081,225.521 139.67,238.532 138.717,267.783L372.639,267.783C371.686,238.532 364.276,225.521 330.699,216.696C288.659,205.648 288.99,163.339 293.367,132.805ZM306.733,79.065L204.433,79.065L188.866,28.289C188.866,20.206 195.429,13.643 203.513,13.643L307.844,13.643C315.928,13.643 322.49,20.206 322.49,28.289L306.733,79.065Z" style="fill:white;"/>
        </g>
    </g>
</svg>
