<?xml version="1.0" encoding="UTF-8" standalone="no"?>
<!DOCTYPE svg PUBLIC "-//W3C//DTD SVG 1.1//EN" "http://www.w3.org/Graphics/SVG/1.1/DTD/svg11.dtd">
<svg width="100%" height="100%" viewBox="0 0 508 581" version="1.1" xmlns="http://www.w3.org/2000/svg" xmlns:xlink="http://www.w3.org/1999/xlink" xml:space="preserve" style="fill-rule:evenodd;clip-rule:evenodd;stroke-linejoin:round;stroke-miterlimit:1.41421;">
    <g transform="matrix(1,0,0,1,-51,-9)">
        <g id="Potion-Minus-Icon" transform="matrix(7.70787,0,0,7.70787,-15788.5,-3437.93)">
            <path d="M2079.7,460.359L2079.7,467.721L2079.72,467.72L2079.72,473.224C2068.91,474.763 2060.6,483.958 2060.6,495.055C2060.6,507.229 2070.61,517.113 2082.93,517.113C2084.2,517.113 2085.45,517.008 2086.66,516.805C2088.34,518.456 2090.28,519.853 2092.4,520.933C2089.45,521.993 2086.25,522.571 2082.93,522.571C2067.56,522.571 2055.08,510.242 2055.08,495.055C2055.08,482.899 2063.07,472.574 2074.14,468.937L2074.14,460.359L2071.84,460.359C2071.02,460.359 2070.35,459.695 2070.35,458.877L2070.35,455.912C2070.35,455.094 2071.02,454.43 2071.84,454.43L2094.01,454.43C2094.83,454.43 2095.5,455.094 2095.5,455.912L2095.5,458.877C2095.5,459.695 2094.83,460.359 2094.01,460.359L2091.85,460.359L2091.85,468.985C2096.98,470.702 2101.44,473.857 2104.74,477.965C2104.14,477.918 2103.53,477.894 2102.92,477.894C2101.11,477.894 2099.35,478.1 2097.66,478.49C2094.52,475.764 2090.61,473.893 2086.29,473.246L2086.29,472.583L2086.29,472.583L2086.29,460.359L2079.7,460.359ZM2102.92,482.954C2112.82,482.954 2120.84,490.883 2120.84,500.665C2120.84,510.446 2112.82,518.376 2102.92,518.376C2093.02,518.376 2084.99,510.446 2084.99,500.665C2084.99,490.883 2093.02,482.954 2102.92,482.954ZM2100.32,503.234L2110.56,503.234C2112,503.234 2113.16,502.083 2113.16,500.665C2113.16,499.247 2112,498.095 2110.56,498.095L2105.52,498.095L2100.32,498.095L2095.27,498.095C2093.84,498.095 2092.67,499.247 2092.67,500.665C2092.67,502.083 2093.84,503.234 2095.27,503.234L2100.32,503.234ZM2091.67,453.524L2074.18,453.524L2074.18,449.85C2074.18,448.407 2075.37,447.235 2076.83,447.235L2089.02,447.235C2090.48,447.235 2091.67,448.407 2091.67,449.85L2091.67,453.524Z" style="fill:white;"/>
        </g>
    </g>
</svg>
