<?xml version="1.0" encoding="UTF-8" standalone="no"?>
<!DOCTYPE svg PUBLIC "-//W3C//DTD SVG 1.1//EN" "http://www.w3.org/Graphics/SVG/1.1/DTD/svg11.dtd">
<svg width="100%" height="100%" viewBox="0 0 537 554" version="1.1" xmlns="http://www.w3.org/2000/svg" xmlns:xlink="http://www.w3.org/1999/xlink" xml:space="preserve" style="fill-rule:evenodd;clip-rule:evenodd;stroke-linejoin:round;stroke-miterlimit:1.41421;">
    <g transform="matrix(1,0,0,1,-31,-23)">
        <g id="Turn-Off-Icon" transform="matrix(23.3167,0,0,23.0407,-27109.2,-75227.3)">
            <path d="M1175.5,3290L1175.5,3287C1180.19,3287 1184,3283.2 1184,3278.5C1184,3275.38 1182.31,3272.66 1179.81,3271.19C1179.68,3271.12 1179.56,3271.02 1179.53,3271C1179.32,3270.82 1179,3270.45 1179,3269.84C1179,3269.01 1179.67,3268.34 1180.5,3268.34C1180.63,3268.34 1180.97,3268.39 1181.37,3268.62C1184.74,3270.63 1187,3274.3 1187,3278.5C1187,3284.85 1181.85,3290 1175.5,3290ZM1179.53,3271C1179.53,3271 1179.54,3271.01 1179.55,3271.01C1179.52,3270.99 1179.52,3270.99 1179.53,3271ZM1175.5,3278C1174.67,3278 1174,3277.33 1174,3276.5L1174,3267.5C1174,3266.67 1174.67,3266 1175.5,3266C1176.33,3266 1177,3266.67 1177,3267.5L1177,3276.5C1177,3277.33 1176.33,3278 1175.5,3278ZM1171.47,3270.96C1171.44,3270.99 1171.32,3271.08 1171.19,3271.15C1168.69,3272.63 1167,3275.35 1167,3278.48C1167,3283.18 1170.81,3286.99 1175.5,3286.99L1175.5,3290C1169.15,3290 1164,3284.84 1164,3278.48C1164,3274.27 1166.26,3270.59 1169.63,3268.58C1170.03,3268.35 1170.37,3268.3 1170.5,3268.3C1171.33,3268.3 1172,3268.97 1172,3269.81C1172,3270.42 1171.68,3270.78 1171.47,3270.96ZM1171.45,3270.98C1171.46,3270.97 1171.47,3270.97 1171.47,3270.96C1171.48,3270.95 1171.48,3270.96 1171.45,3270.98Z" style="fill:white;"/>
        </g>
    </g>
</svg>
