<?xml version="1.0" encoding="UTF-8" standalone="no"?>
<!DOCTYPE svg PUBLIC "-//W3C//DTD SVG 1.1//EN" "http://www.w3.org/Graphics/SVG/1.1/DTD/svg11.dtd">
<svg width="100%" height="100%" viewBox="0 0 600 600" version="1.1" xmlns="http://www.w3.org/2000/svg" xmlns:xlink="http://www.w3.org/1999/xlink" xml:space="preserve" style="fill-rule:evenodd;clip-rule:evenodd;stroke-linejoin:round;stroke-miterlimit:1.41421;">
    <g id="Radar">
        <path id="Background" d="M298.883,30.98L298.883,0L301.117,0L301.117,30.98C448.709,31.582 568.418,151.291 569.02,298.883L600,298.883L600,301.117L569.02,301.117C568.418,448.709 448.709,568.418 301.117,569.02L301.117,600L298.883,600L298.883,569.02C151.291,568.418 31.582,448.709 30.98,301.117L0,301.117L0,298.883L30.98,298.883C31.582,151.291 151.291,31.582 298.883,30.98ZM39.115,301.117C39.717,444.22 155.78,560.283 298.883,560.885L298.883,459.763C211.59,459.164 140.836,388.41 140.237,301.117L39.115,301.117ZM560.885,301.117L459.763,301.117C459.164,388.41 388.41,459.164 301.117,459.763L301.117,560.885C444.22,560.283 560.283,444.22 560.885,301.117ZM453.372,301.117L348.836,301.117C348.25,327.191 327.191,348.25 301.117,348.836L301.117,453.372C384.882,452.773 452.773,384.882 453.372,301.117ZM146.628,301.117C147.227,384.882 215.118,452.773 298.883,453.372L298.883,348.836C272.809,348.25 251.75,327.191 251.164,301.117L146.628,301.117ZM256.522,301.117C257.106,324.235 275.765,342.894 298.883,343.478L298.883,301.117L256.522,301.117ZM343.478,301.117L301.117,301.117L301.117,343.478C324.235,342.894 342.894,324.235 343.478,301.117ZM298.883,39.115C155.78,39.717 39.717,155.78 39.115,298.883L140.237,298.883C140.836,211.59 211.59,140.836 298.883,140.237L298.883,39.115ZM298.883,146.628C215.118,147.227 147.227,215.118 146.628,298.883L251.164,298.883C251.75,272.809 272.809,251.75 298.883,251.164L298.883,146.628ZM298.883,256.522C275.765,257.106 257.106,275.765 256.522,298.883L298.883,298.883L298.883,256.522ZM301.117,39.115L301.117,140.237C388.41,140.836 459.164,211.59 459.763,298.883L560.885,298.883C560.283,155.78 444.22,39.717 301.117,39.115ZM301.117,146.628L301.117,251.164C327.191,251.75 348.25,272.809 348.836,298.883L453.372,298.883C452.773,215.118 384.882,147.227 301.117,146.628ZM301.117,256.522L301.117,298.883L343.478,298.883C342.894,275.765 324.235,257.106 301.117,256.522Z" style="fill:white;"/>
    </g>
</svg>
