<?xml version="1.0" encoding="UTF-8" standalone="no"?>
<!DOCTYPE svg PUBLIC "-//W3C//DTD SVG 1.1//EN" "http://www.w3.org/Graphics/SVG/1.1/DTD/svg11.dtd">
<svg width="100%" height="100%" viewBox="0 0 563 502" version="1.1" xmlns="http://www.w3.org/2000/svg" xmlns:xlink="http://www.w3.org/1999/xlink" xml:space="preserve" style="fill-rule:evenodd;clip-rule:evenodd;stroke-linejoin:round;stroke-miterlimit:1.41421;">
    <g transform="matrix(1,0,0,1,-18,-49)">
        <g id="Rain-Icon" transform="matrix(7.94202,0,0,7.94202,-14556.4,-4352.34)">
            <path d="M1866.7,609.04C1866.7,607.672 1865.59,606.561 1864.22,606.561C1862.85,606.561 1861.74,607.672 1861.74,609.04L1861.74,614.847C1861.74,616.215 1862.85,617.326 1864.22,617.326C1865.59,617.326 1866.7,616.215 1866.7,614.847L1866.7,609.04ZM1892.03,609.04C1892.03,607.672 1890.92,606.561 1889.55,606.561C1888.18,606.561 1887.07,607.672 1887.07,609.04L1887.07,614.847C1887.07,616.215 1888.18,617.326 1889.55,617.326C1890.92,617.326 1892.03,616.215 1892.03,614.847L1892.03,609.04ZM1854.04,601.709C1854.04,600.341 1852.93,599.23 1851.56,599.23C1850.19,599.23 1849.08,600.341 1849.08,601.709L1849.08,607.516C1849.08,608.884 1850.19,609.995 1851.56,609.995C1852.93,609.995 1854.04,608.884 1854.04,607.516L1854.04,601.709ZM1879.37,601.709C1879.37,600.341 1878.26,599.23 1876.89,599.23C1875.52,599.23 1874.41,600.341 1874.41,601.709L1874.41,607.516C1874.41,608.884 1875.52,609.995 1876.89,609.995C1878.26,609.995 1879.37,608.884 1879.37,607.516L1879.37,601.709ZM1851.96,566.441C1855.02,559.28 1862.2,554.25 1870.56,554.25C1878.91,554.25 1886.09,559.28 1889.15,566.441C1890.12,566.229 1891.12,566.117 1892.15,566.117C1899.77,566.117 1905.95,572.225 1905.95,579.748C1905.95,587.272 1899.77,593.38 1892.15,593.38C1888.62,593.38 1885.4,592.067 1882.96,589.909C1879.54,592.552 1875.23,594.127 1870.56,594.127C1865.88,594.127 1861.57,592.552 1858.15,589.909C1855.71,592.067 1852.49,593.38 1848.96,593.38C1841.34,593.38 1835.16,587.272 1835.16,579.748C1835.16,572.225 1841.34,566.117 1848.96,566.117C1849.99,566.117 1850.99,566.229 1851.96,566.441Z" style="fill:white;"/>
        </g>
    </g>
</svg>
