<?xml version="1.0" encoding="UTF-8" standalone="no"?>
<!DOCTYPE svg PUBLIC "-//W3C//DTD SVG 1.1//EN" "http://www.w3.org/Graphics/SVG/1.1/DTD/svg11.dtd">
<svg width="100%" height="100%" viewBox="0 0 528 480" version="1.1" xmlns="http://www.w3.org/2000/svg" xmlns:xlink="http://www.w3.org/1999/xlink" xml:space="preserve" style="fill-rule:evenodd;clip-rule:evenodd;stroke-linejoin:round;stroke-miterlimit:1.41421;">
    <g transform="matrix(1,0,0,1,-36,-60)">
        <path id="Ranking-Icon" d="M154.935,222.137C176.725,222.137 194.416,239.828 194.416,261.618L194.416,499.995C194.416,521.785 176.725,539.476 154.935,539.476L75.972,539.476C54.182,539.476 36.491,521.786 36.491,499.995L36.491,261.618C36.491,239.828 54.181,222.137 75.972,222.137L154.935,222.137ZM524.028,354.8C545.819,354.801 563.509,372.492 563.509,394.282L563.509,499.995C563.509,521.786 545.818,539.476 524.028,539.476L445.065,539.476C423.275,539.476 405.584,521.786 405.584,499.995L405.584,394.282C405.584,372.492 423.275,354.801 445.065,354.8L524.028,354.8ZM339.481,60.524C361.272,60.524 378.963,78.215 378.963,100.005L378.963,499.995C378.963,521.785 361.272,539.476 339.481,539.476L260.519,539.476C238.728,539.476 221.037,521.786 221.037,499.995L221.037,100.005C221.037,78.215 238.728,60.524 260.519,60.524L339.481,60.524Z" style="fill:white;"/>
    </g>
</svg>
