<?xml version="1.0" encoding="UTF-8" standalone="no"?>
<!DOCTYPE svg PUBLIC "-//W3C//DTD SVG 1.1//EN" "http://www.w3.org/Graphics/SVG/1.1/DTD/svg11.dtd">
<svg width="100%" height="100%" viewBox="0 0 534 462" version="1.1" xmlns="http://www.w3.org/2000/svg" xmlns:xlink="http://www.w3.org/1999/xlink" xml:space="preserve" style="fill-rule:evenodd;clip-rule:evenodd;stroke-linejoin:round;stroke-miterlimit:1.41421;">
    <g transform="matrix(1,0,0,1,-33,-69)">
        <g id="Repeat-Icon" transform="matrix(22.2363,0,0,21.9731,-21002.4,-74155.8)">
            <path d="M967,3396L951,3396L951,3399L946,3394.5L951,3390L951,3393L964,3393C965.657,3393 967,3391.66 967,3390L967,3388L970,3385.3L970,3393C970,3394.66 968.657,3396 967,3396ZM965,3384L952,3384C950.343,3384 949,3385.34 949,3387L949,3389L946,3391.7L946,3384C946,3382.34 947.343,3381 949,3381L965,3381L965,3378L970,3382.5L965,3387L965,3384Z" style="fill:white;"/>
        </g>
    </g>
</svg>
