<?xml version="1.0" encoding="UTF-8" standalone="no"?>
<!DOCTYPE svg PUBLIC "-//W3C//DTD SVG 1.1//EN" "http://www.w3.org/Graphics/SVG/1.1/DTD/svg11.dtd">
<svg width="100%" height="100%" viewBox="0 0 467 546" version="1.1" xmlns="http://www.w3.org/2000/svg" xmlns:xlink="http://www.w3.org/1999/xlink" xml:space="preserve" style="fill-rule:evenodd;clip-rule:evenodd;stroke-linejoin:round;stroke-miterlimit:1.41421;">
    <g transform="matrix(1,0,0,1,-66,-27)">
        <g id="Rest-Icon" transform="matrix(8.93283,0,0,8.93283,-14547.8,-5802.81)">
            <path d="M1681.11,713.664L1662.13,713.664L1662.13,707.282L1662.13,707.282L1662.13,707.282L1671.99,697.532L1662.14,697.532L1662.14,691.15L1681.13,691.15L1681.13,697.532L1681.13,697.532L1681.13,697.532L1671.26,707.282L1681.11,707.282L1681.11,713.664ZM1655.03,678.149L1655.03,678.149L1655.03,678.149L1645.17,687.9L1655.02,687.9L1655.02,694.281L1636.03,694.281L1636.03,687.9L1636.03,687.9L1636.03,687.899L1645.9,678.149L1636.05,678.149L1636.05,671.767L1655.03,671.767L1655.03,678.149ZM1688.17,683.853L1661.91,683.853L1661.91,675.027L1661.91,675.027L1661.91,675.027L1675.56,661.54L1661.93,661.54L1661.93,652.714L1688.19,652.714L1688.19,661.54L1688.19,661.54L1688.19,661.54L1674.54,675.027L1688.17,675.027L1688.17,683.853Z" style="fill:white;"/>
        </g>
    </g>
</svg>
