<?xml version="1.0" encoding="UTF-8" standalone="no"?>
<!DOCTYPE svg PUBLIC "-//W3C//DTD SVG 1.1//EN" "http://www.w3.org/Graphics/SVG/1.1/DTD/svg11.dtd">
<svg width="100%" height="100%" viewBox="0 0 545 546" version="1.1" xmlns="http://www.w3.org/2000/svg" xmlns:xlink="http://www.w3.org/1999/xlink" xml:space="preserve" style="fill-rule:evenodd;clip-rule:evenodd;stroke-linejoin:round;stroke-miterlimit:1.41421;">
    <g transform="matrix(1,0,0,1,-27,-27)">
        <g id="Scissors-Icon" transform="matrix(8.90052,0,0,8.90052,-17267.1,-11912.1)">
            <path d="M1984.11,1385.16C1986.3,1393.22 1988.49,1400.99 1988.97,1402.09C1989.39,1403.03 1983.33,1402.89 1981.22,1400.54C1979.76,1398.9 1975.37,1389 1972.92,1382.25L1984.11,1385.16ZM1964.61,1377.53C1964.14,1378.32 1963.56,1379.07 1962.88,1379.75C1958.36,1384.27 1951.02,1384.27 1946.5,1379.75C1941.98,1375.23 1941.98,1367.89 1946.5,1363.37C1951.02,1358.85 1958.36,1358.85 1962.88,1363.37C1964.92,1365.41 1966.04,1368.02 1966.24,1370.7C1966.3,1370.71 1966.35,1370.74 1966.41,1370.8C1967.52,1371.9 1975.19,1369.85 1977.72,1369.55C1980.24,1369.25 1999.77,1377.43 2002.13,1379.54C2004.48,1381.65 2004.62,1387.7 2003.67,1387.29C2001.55,1386.36 1974.6,1379.06 1968.69,1377.73C1967.12,1377.38 1965.65,1377.41 1964.61,1377.53ZM1958.88,1375.76C1956.57,1378.07 1952.81,1378.07 1950.49,1375.76C1948.17,1373.44 1948.17,1369.68 1950.49,1367.36C1952.81,1365.04 1956.57,1365.04 1958.88,1367.36C1961.2,1369.68 1961.2,1373.44 1958.88,1375.76ZM1972.38,1364.64C1969.68,1364.46 1967.03,1363.34 1964.97,1361.28C1960.45,1356.76 1960.45,1349.41 1964.97,1344.89C1969.49,1340.37 1976.83,1340.37 1981.35,1344.89C1985.87,1349.41 1985.87,1356.76 1981.35,1361.28C1980.69,1361.93 1979.98,1362.49 1979.22,1362.96C1979.11,1363.87 1979.06,1365.12 1979.3,1366.5C1976.97,1366.7 1974.29,1367.32 1972.7,1367.8C1972.87,1366.35 1972.86,1365.2 1972.48,1364.82C1972.42,1364.76 1972.39,1364.7 1972.38,1364.64ZM1977.36,1357.28C1975.04,1359.6 1971.28,1359.6 1968.96,1357.28C1966.64,1354.97 1966.64,1351.2 1968.96,1348.89C1971.28,1346.57 1975.04,1346.57 1977.36,1348.89C1979.67,1351.2 1979.67,1354.97 1977.36,1357.28Z" style="fill:white;"/>
        </g>
    </g>
</svg>
