<?xml version="1.0" encoding="UTF-8" standalone="no"?>
<!DOCTYPE svg PUBLIC "-//W3C//DTD SVG 1.1//EN" "http://www.w3.org/Graphics/SVG/1.1/DTD/svg11.dtd">
<svg width="100%" height="100%" viewBox="0 0 538 474" version="1.1" xmlns="http://www.w3.org/2000/svg" xmlns:xlink="http://www.w3.org/1999/xlink" xml:space="preserve" style="fill-rule:evenodd;clip-rule:evenodd;stroke-linejoin:round;stroke-miterlimit:1.41421;">
    <g transform="matrix(1,0,0,1,-31,-63)">
        <g id="Scythe-Icon" transform="matrix(8.05002,0,0,8.05002,-1215.63,-5199.67)">
            <path d="M191.448,665.759L188.111,664.479L184.352,667.055C182.836,665.788 181.183,664.634 179.399,663.616C171.626,659.182 162.827,658.16 154.864,660.089C165.199,653.62 178.076,652.15 190.326,655.884C191.322,656.187 193.331,657.18 195.697,658.487L196.751,656.682C197.398,655.574 198.828,655.191 199.942,655.827L203.98,658.13C205.094,658.766 205.473,660.181 204.826,661.289L203.67,663.268C206.227,664.928 208.394,666.49 209.364,667.492C217.911,676.317 222.386,687.868 221.466,699.609C219.496,691.123 214.001,683.357 205.635,678.585C204.249,677.794 202.83,677.111 201.389,676.535L202.337,672.166L199.639,670.168L175.578,711.349C174.931,712.456 173.501,712.84 172.387,712.204L168.349,709.9C167.235,709.265 166.856,707.849 167.503,706.742L191.448,665.759Z" style="fill:white;"/>
        </g>
    </g>
</svg>
