<?xml version="1.0" encoding="UTF-8" standalone="no"?>
<!DOCTYPE svg PUBLIC "-//W3C//DTD SVG 1.1//EN" "http://www.w3.org/Graphics/SVG/1.1/DTD/svg11.dtd">
<svg width="100%" height="100%" viewBox="0 0 511 524" version="1.1" xmlns="http://www.w3.org/2000/svg" xmlns:xlink="http://www.w3.org/1999/xlink" xml:space="preserve" style="fill-rule:evenodd;clip-rule:evenodd;stroke-linejoin:round;stroke-miterlimit:1.41421;">
    <g transform="matrix(1,0,0,1,-44,-38)">
        <g id="Scythe-Icon_2" transform="matrix(9.11013,0,0,9.11013,-2347.84,-7676.86)">
            <path d="M286.716,874.645L270.013,903.233C269.44,904.214 268.174,904.553 267.187,903.99L263.611,901.95C262.624,901.387 262.288,900.133 262.861,899.152L292.763,847.975C293.336,846.994 294.602,846.654 295.589,847.217L299.165,849.257C300.152,849.82 300.488,851.074 299.915,852.055L299.404,852.929L302.518,854.751L305.408,852.921C305.408,852.921 313.142,856.154 316.644,864.805C320.147,873.456 318.842,882.385 313.969,884.312C313.902,884.338 313.835,884.363 313.767,884.387C313.589,881.773 311.903,878.912 310.77,876.032C306.739,865.788 298.385,862.552 294.733,860.924L288.949,870.823L296.253,874.99C296.784,875.292 296.964,875.966 296.656,876.494L295.54,878.404C295.232,878.932 294.551,879.114 294.02,878.812L286.716,874.645Z" style="fill:white;"/>
        </g>
    </g>
</svg>
