<?xml version="1.0" encoding="UTF-8" standalone="no"?>
<!DOCTYPE svg PUBLIC "-//W3C//DTD SVG 1.1//EN" "http://www.w3.org/Graphics/SVG/1.1/DTD/svg11.dtd">
<svg width="100%" height="100%" viewBox="0 0 550 472" version="1.1" xmlns="http://www.w3.org/2000/svg" xmlns:xlink="http://www.w3.org/1999/xlink" xml:space="preserve" style="fill-rule:evenodd;clip-rule:evenodd;stroke-linejoin:round;stroke-miterlimit:1.41421;">
    <g transform="matrix(1,0,0,1,-25,-64)">
        <g id="Settings-Icon_2" transform="matrix(8.65165,-4.80263e-16,0,8.65165,-1277.14,-1317.1)">
            <path d="M192.803,173.014C191.691,169.471 192.412,165.568 195.053,162.813C197.673,160.081 201.536,159.152 205.151,160.02L201.161,164.182C199.087,166.346 199.294,169.874 201.625,172.055C203.955,174.236 207.531,174.251 209.605,172.087L213.595,167.925C214.668,171.445 213.938,175.307 211.318,178.04C208.677,180.795 204.772,181.717 201.132,180.811L170.725,212.528C168.679,214.663 165.152,214.648 162.853,212.497C160.555,210.345 160.35,206.866 162.396,204.732L192.803,173.014ZM202.275,212.347L187.431,198.451L194.758,190.808L209.602,204.703C211.874,206.83 212.077,210.269 210.054,212.378C208.032,214.488 204.546,214.474 202.275,212.347ZM168.034,207.093C168.91,207.914 168.988,209.24 168.208,210.054C167.428,210.867 166.083,210.862 165.207,210.042C164.331,209.221 164.253,207.895 165.033,207.081C165.813,206.268 167.157,206.273 168.034,207.093ZM174.826,172.148L183.046,179.843L175.718,187.487L167.498,179.792L160.723,186.859L150.516,177.304L166.18,160.965C167.226,161.108 168.313,161.186 169.427,161.191C171.914,161.201 174.226,160.842 176.204,160.206L181.511,165.174L174.826,172.148Z" style="fill:white;"/>
        </g>
    </g>
</svg>
