<?xml version="1.0" encoding="UTF-8" standalone="no"?>
<!DOCTYPE svg PUBLIC "-//W3C//DTD SVG 1.1//EN" "http://www.w3.org/Graphics/SVG/1.1/DTD/svg11.dtd">
<svg width="100%" height="100%" viewBox="0 0 574 568" version="1.1" xmlns="http://www.w3.org/2000/svg" xmlns:xlink="http://www.w3.org/1999/xlink" xml:space="preserve" style="fill-rule:evenodd;clip-rule:evenodd;stroke-linejoin:round;stroke-miterlimit:1.41421;">
    <g transform="matrix(1,0,0,1,-13,-15)">
        <g id="Settings-Icon" transform="matrix(8.65165,0,0,8.65165,-417.623,-1326.89)">
            <path d="M77.964,164.853L77.964,157.636C77.964,156.261 79.08,155.144 80.455,155.144L85.438,155.144C86.813,155.144 87.929,156.261 87.929,157.636L87.929,164.853C90.82,165.461 93.517,166.587 95.918,168.128L101.107,163C102.079,162.039 103.658,162.039 104.63,163L108.154,166.482C109.126,167.442 109.126,169.002 108.153,169.963L102.964,175.091C104.524,177.463 105.663,180.129 106.278,182.985L113.642,182.985C115,182.985 116.103,184.088 116.103,185.447L116.103,190.371C116.103,191.729 115.001,192.832 113.642,192.832L106.278,192.832C105.663,195.689 104.523,198.355 102.964,200.727L108.153,205.854C109.126,206.815 109.126,208.375 108.154,209.336L104.63,212.818C103.658,213.778 102.079,213.778 101.107,212.817L95.918,207.69C93.517,209.231 90.82,210.357 87.929,210.965L87.929,218.182C87.929,219.557 86.813,220.673 85.438,220.673L80.455,220.673C79.08,220.673 77.964,219.557 77.964,218.182L77.964,210.965C75.073,210.357 72.375,209.23 69.975,207.69L64.786,212.817C63.814,213.778 62.235,213.778 61.262,212.818L57.739,209.336C56.767,208.375 56.767,206.815 57.739,205.854L62.929,200.727C61.369,198.355 60.23,195.689 59.615,192.832L52.251,192.832C50.893,192.832 49.789,191.729 49.789,190.371L49.789,185.447C49.789,184.088 50.892,182.985 52.251,182.985L59.615,182.985C60.23,180.129 61.369,177.463 62.929,175.091L57.739,169.963C56.767,169.002 56.767,167.442 57.739,166.482L61.262,163C62.235,162.039 63.814,162.039 64.786,163L69.975,168.128C72.375,166.587 75.073,165.461 77.964,164.853ZM82.946,172.281C91.675,172.281 98.762,179.283 98.762,187.909C98.762,196.534 91.675,203.537 82.946,203.537C74.218,203.537 67.131,196.534 67.131,187.909C67.131,179.283 74.218,172.281 82.946,172.281Z" style="fill:white;"/>
        </g>
    </g>
</svg>
