<?xml version="1.0" encoding="UTF-8" standalone="no"?>
<!DOCTYPE svg PUBLIC "-//W3C//DTD SVG 1.1//EN" "http://www.w3.org/Graphics/SVG/1.1/DTD/svg11.dtd">
<svg width="100%" height="100%" viewBox="0 0 477 566" version="1.1" xmlns="http://www.w3.org/2000/svg" xmlns:xlink="http://www.w3.org/1999/xlink" xml:space="preserve" style="fill-rule:evenodd;clip-rule:evenodd;stroke-linejoin:round;stroke-miterlimit:1.41421;">
    <g transform="matrix(1,0,0,1,-61,-17)">
        <g id="Shield-Icon" transform="matrix(4.37041,0,0,4.31868,-793.992,-2799.53)">
            <path d="M250.317,652.431C256.165,661.366 281.725,673.734 304.35,677.726C309.592,752.845 257.64,779.828 250.317,783.144L250.317,783.213L250.241,783.179L250.165,783.213L250.165,783.144C242.843,779.828 190.595,753.129 196.133,677.726C218.758,673.734 244.318,661.366 250.165,652.431L250.165,652.192C250.19,652.232 250.216,652.273 250.241,652.313C250.267,652.273 250.293,652.232 250.317,652.192L250.317,652.431ZM250.241,665C246.279,667.535 230.354,679.885 205.777,684.588C202.136,742.034 247.212,770.119 250.241,771.938C253.271,770.119 298.347,742.034 294.706,684.588C270.128,679.885 254.204,667.535 250.241,665ZM250.241,671.922L250.249,671.917C250.249,671.917 269.913,686.244 289.338,688.992C290.556,737.386 253.355,763.099 250.317,764.958L250.317,764.968L250.267,764.999L250.25,765.009L250.249,765.01L250.249,765.019L250.241,765.014L250.234,765.019L250.234,765.01L250.216,764.999L250.165,764.968L250.165,764.958C247.127,763.099 209.927,737.386 211.144,688.992C230.569,686.244 250.234,671.917 250.234,671.917L250.241,671.922Z" style="fill:white;"/>
        </g>
    </g>
</svg>
