<?xml version="1.0" encoding="UTF-8" standalone="no"?>
<!DOCTYPE svg PUBLIC "-//W3C//DTD SVG 1.1//EN" "http://www.w3.org/Graphics/SVG/1.1/DTD/svg11.dtd">
<svg width="100%" height="100%" viewBox="0 0 541 396" version="1.1" xmlns="http://www.w3.org/2000/svg" xmlns:xlink="http://www.w3.org/1999/xlink" xml:space="preserve" style="fill-rule:evenodd;clip-rule:evenodd;stroke-linejoin:round;stroke-miterlimit:1.41421;">
    <g transform="matrix(1,0,0,1,-29,-102)">
        <g id="Shirt-Icon" transform="matrix(9.26938,0,0,9.26938,-20088.3,-7928.36)">
            <path d="M2217.1,908.95L2181.88,908.95L2181.88,880.479L2170.33,880.479L2170.33,866.435L2187.59,866.435C2189.6,869.944 2194.17,872.397 2199.49,872.397C2204.8,872.397 2209.38,869.944 2211.38,866.435L2228.64,866.435L2228.64,880.479L2217.1,880.479L2217.1,908.95ZM2199.49,898.216C2201.45,898.216 2203.05,899.749 2203.05,901.638C2203.05,903.526 2201.45,905.06 2199.49,905.06C2197.52,905.06 2195.93,903.526 2195.93,901.638C2195.93,899.749 2197.52,898.216 2199.49,898.216ZM2199.49,887.384C2201.45,887.384 2203.05,888.917 2203.05,890.806C2203.05,892.694 2201.45,894.228 2199.49,894.228C2197.52,894.228 2195.93,892.694 2195.93,890.806C2195.93,888.917 2197.52,887.384 2199.49,887.384ZM2199.49,876.552C2201.45,876.552 2203.05,878.085 2203.05,879.974C2203.05,881.863 2201.45,883.396 2199.49,883.396C2197.52,883.396 2195.93,881.863 2195.93,879.974C2195.93,878.085 2197.52,876.552 2199.49,876.552Z" style="fill:white;"/>
        </g>
    </g>
</svg>
