<?xml version="1.0" encoding="UTF-8" standalone="no"?>
<!DOCTYPE svg PUBLIC "-//W3C//DTD SVG 1.1//EN" "http://www.w3.org/Graphics/SVG/1.1/DTD/svg11.dtd">
<svg width="100%" height="100%" viewBox="0 0 538 448" version="1.1" xmlns="http://www.w3.org/2000/svg" xmlns:xlink="http://www.w3.org/1999/xlink" xml:space="preserve" style="fill-rule:evenodd;clip-rule:evenodd;stroke-linejoin:round;stroke-miterlimit:1.41421;">
    <g transform="matrix(1,0,0,1,-7,-85)">
        <g id="Shopping-Cart-Icon" transform="matrix(1.17188,0,0,1.17188,0,-15.9241)">
            <path d="M134.73,364.76C163.259,364.76 186.42,387.922 186.42,416.45C186.42,444.979 163.259,468.14 134.73,468.14C106.202,468.14 83.04,444.979 83.04,416.45C83.04,387.922 106.202,364.76 134.73,364.76ZM285.527,364.76C314.056,364.76 337.217,387.922 337.217,416.45C337.217,444.979 314.056,468.14 285.527,468.14C256.999,468.14 233.837,444.979 233.837,416.45C233.837,387.922 256.999,364.76 285.527,364.76ZM320.544,342.095L92.35,342.095C85.846,342.095 79.831,340.219 74.956,337.043C70.044,333.916 66.169,329.425 64.147,323.937L7.714,170.75C6.021,166.154 5.842,161.44 6.933,157.033C9.478,144.89 21.482,135.685 35.888,135.685L276.187,135.677C292.426,135.677 305.609,147.385 305.609,161.805C305.609,176.226 292.426,187.933 276.187,187.933L76.045,187.996L113.543,289.784L298.177,289.784L353.666,105.883C355.537,99.683 359.771,94.602 365.277,91.198C370.086,88.164 375.964,86.379 382.308,86.379L435.241,86.379C451.497,86.379 464.694,98.099 464.694,112.534C464.694,126.969 451.497,138.689 435.241,138.69L404.751,138.69L349.449,321.974C348.769,324.228 347.776,326.334 346.524,328.265C341.56,336.493 331.784,342.094 320.544,342.095Z" style="fill:white;"/>
        </g>
    </g>
</svg>
