<?xml version="1.0" encoding="UTF-8" standalone="no"?>
<!DOCTYPE svg PUBLIC "-//W3C//DTD SVG 1.1//EN" "http://www.w3.org/Graphics/SVG/1.1/DTD/svg11.dtd">
<svg width="100%" height="100%" viewBox="0 0 580 517" version="1.1" xmlns="http://www.w3.org/2000/svg" xmlns:xlink="http://www.w3.org/1999/xlink" xml:space="preserve" style="fill-rule:evenodd;clip-rule:evenodd;stroke-linejoin:round;stroke-miterlimit:1.41421;">
    <g transform="matrix(1,0,0,1,-8,-32)">
        <g id="Shopping-Bag-Plus-Icon" transform="matrix(8.44832,0,0,8.44832,-10171.7,-3807.33)">
            <path d="M1253.12,515.61L1214.85,515.61C1211.3,515.61 1210.9,511.709 1210.9,511.709L1205.01,479.838C1205.01,477.685 1206.78,475.937 1208.95,475.937L1215.4,475.937L1215.4,486.162C1215.4,489.176 1217.88,491.623 1220.93,491.623C1223.98,491.623 1226.45,489.176 1226.45,486.162L1226.45,475.937L1232.81,475.937C1232.67,476.929 1232.6,477.941 1232.6,478.969C1232.6,491.545 1242.92,501.74 1255.65,501.74C1256.77,501.74 1257.87,501.661 1258.95,501.508L1257.06,511.709C1257.06,511.709 1256.58,515.609 1253.12,515.61ZM1255.65,461.259C1265.55,461.259 1273.57,469.188 1273.57,478.969C1273.57,488.751 1265.55,496.68 1255.65,496.68C1245.75,496.68 1237.72,488.751 1237.72,478.969C1237.72,469.188 1245.75,461.259 1255.65,461.259ZM1253.05,481.539L1253.05,486.526C1253.05,487.944 1254.21,489.095 1255.65,489.095C1257.08,489.095 1258.25,487.944 1258.25,486.526L1258.25,481.539L1263.29,481.539C1264.73,481.539 1265.89,480.388 1265.89,478.969C1265.89,477.551 1264.73,476.4 1263.29,476.4L1258.25,476.4L1258.25,471.413C1258.25,469.995 1257.08,468.843 1255.65,468.843C1254.21,468.843 1253.05,469.995 1253.05,471.413L1253.05,476.4L1248,476.4C1246.57,476.4 1245.4,477.551 1245.4,478.969C1245.4,480.388 1246.57,481.539 1248,481.539L1253.05,481.539ZM1240.4,461.899C1238.62,460.547 1236.39,459.743 1233.98,459.743C1228.17,459.743 1223.46,464.397 1223.46,470.137L1223.47,486.024C1223.47,487.461 1222.29,488.627 1220.84,488.627C1219.38,488.627 1218.2,487.461 1218.2,486.024L1218.2,470.137C1218.2,461.526 1225.27,454.544 1233.98,454.544C1238.2,454.544 1242.03,456.179 1244.86,458.843C1243.25,459.688 1241.75,460.716 1240.4,461.899Z" style="fill:white;"/>
        </g>
    </g>
</svg>
