<?xml version="1.0" encoding="UTF-8" standalone="no"?>
<!DOCTYPE svg PUBLIC "-//W3C//DTD SVG 1.1//EN" "http://www.w3.org/Graphics/SVG/1.1/DTD/svg11.dtd">
<svg width="100%" height="100%" viewBox="0 0 491 517" version="1.1" xmlns="http://www.w3.org/2000/svg" xmlns:xlink="http://www.w3.org/1999/xlink" xml:space="preserve" style="fill-rule:evenodd;clip-rule:evenodd;stroke-linejoin:round;stroke-miterlimit:1.41421;">
    <g transform="matrix(1,0,0,1,-8,-32)">
        <g id="Shopping-Bag-Icon" transform="matrix(7.11081,0,0,7.02665,-4362.99,-4139.73)">
            <path d="M671.941,667.237L626.473,667.237C622.259,667.237 621.784,662.547 621.784,662.547L614.784,624.227C614.784,621.639 616.885,619.537 619.473,619.537L627.131,619.537L627.134,631.831C627.134,635.455 630.076,638.397 633.7,638.397C637.323,638.397 640.265,635.455 640.265,631.831L640.257,619.537L658.302,619.537L658.305,631.831C658.305,635.455 661.247,638.397 664.87,638.397C668.494,638.397 671.436,635.455 671.436,631.831L671.428,619.537L678.941,619.537C681.529,619.537 683.63,621.639 683.63,624.227L676.63,662.547C676.63,662.547 676.056,667.236 671.941,667.237ZM630.464,631.665L630.46,612.564C630.46,602.21 638.853,593.815 649.207,593.815C659.561,593.815 667.954,602.21 667.954,612.564L667.952,631.665C667.952,633.392 666.55,634.794 664.823,634.794C663.096,634.794 661.694,633.392 661.694,631.665L661.705,612.564C661.705,605.662 656.109,600.067 649.207,600.067C642.305,600.067 636.709,605.662 636.709,612.564L636.722,631.665C636.722,633.392 635.32,634.794 633.593,634.794C631.866,634.794 630.464,633.392 630.464,631.665Z" style="fill:white;"/>
        </g>
    </g>
</svg>
