<?xml version="1.0" encoding="UTF-8" standalone="no"?>
<!DOCTYPE svg PUBLIC "-//W3C//DTD SVG 1.1//EN" "http://www.w3.org/Graphics/SVG/1.1/DTD/svg11.dtd">
<svg width="100%" height="100%" viewBox="0 0 580 517" version="1.1" xmlns="http://www.w3.org/2000/svg" xmlns:xlink="http://www.w3.org/1999/xlink" xml:space="preserve" style="fill-rule:evenodd;clip-rule:evenodd;stroke-linejoin:round;stroke-miterlimit:1.41421;">
    <g transform="matrix(1,0,0,1,-8,-32)">
        <g id="Shopping-Bag-Minus-Icon" transform="matrix(8.44832,0,0,8.44832,-12829.9,-3807.33)">
            <path d="M1567.76,515.61L1529.49,515.61C1525.94,515.61 1525.54,511.709 1525.54,511.709L1519.65,479.838C1519.65,477.685 1521.42,475.937 1523.6,475.937L1530.05,475.937L1530.05,486.162C1530.05,489.176 1532.52,491.623 1535.57,491.623C1538.62,491.623 1541.1,489.176 1541.1,486.162L1541.09,475.937L1547.45,475.937C1547.32,476.929 1547.25,477.941 1547.25,478.969C1547.25,491.545 1557.57,501.74 1570.29,501.74C1571.41,501.74 1572.52,501.661 1573.59,501.508L1571.71,511.709C1571.71,511.709 1571.22,515.609 1567.76,515.61ZM1570.29,461.259C1580.19,461.259 1588.22,469.188 1588.22,478.969C1588.22,488.751 1580.19,496.68 1570.29,496.68C1560.39,496.68 1552.37,488.751 1552.37,478.969C1552.37,469.188 1560.39,461.259 1570.29,461.259ZM1555.04,461.899C1553.27,460.547 1551.04,459.743 1548.62,459.743C1542.82,459.743 1538.11,464.397 1538.11,470.137L1538.12,486.024C1538.12,487.461 1536.94,488.627 1535.48,488.627C1534.03,488.627 1532.85,487.461 1532.85,486.024L1532.85,470.137C1532.85,461.526 1539.91,454.544 1548.62,454.544C1552.84,454.544 1556.67,456.179 1559.5,458.843C1557.89,459.688 1556.4,460.716 1555.04,461.899ZM1577.97,476.393L1562.61,476.393C1561.19,476.393 1560.04,477.547 1560.04,478.969C1560.04,480.392 1561.19,481.546 1562.61,481.546L1577.97,481.546C1579.39,481.546 1580.55,480.392 1580.55,478.969C1580.55,477.547 1579.39,476.393 1577.97,476.393Z" style="fill:white;"/>
        </g>
    </g>
</svg>
