<?xml version="1.0" encoding="UTF-8" standalone="no"?>
<!DOCTYPE svg PUBLIC "-//W3C//DTD SVG 1.1//EN" "http://www.w3.org/Graphics/SVG/1.1/DTD/svg11.dtd">
<svg width="100%" height="100%" viewBox="0 0 583 386" version="1.1" xmlns="http://www.w3.org/2000/svg" xmlns:xlink="http://www.w3.org/1999/xlink" xml:space="preserve" style="fill-rule:evenodd;clip-rule:evenodd;stroke-linejoin:round;stroke-miterlimit:1.41421;">
    <g transform="matrix(1,0,0,1,-8,-19)">
        <g id="Shoulders-Icon" transform="matrix(6.33008,0,0,7.42319,-163.853,-419.534)">
            <path d="M51.993,68.411C51.04,64.618 53.098,59.195 72.476,59.195C91.942,59.195 95.307,64.443 94.46,68.409C95.168,68.388 100.356,68.285 104.271,69.655C108.491,71.132 112.185,78.204 119.158,79.166C117.305,89.435 101.465,100.61 101.465,100.61L92.308,95.998L97.285,103.221C97.285,103.221 90.604,110.918 84.542,110.97C81.48,107.886 77.487,97.025 76.193,91.476C75.17,87.089 75.213,80.029 75.213,80.029L76.005,79.561C79.317,77.32 93.306,67.239 89.227,64.887C87.552,63.921 83.16,62.012 72.51,62.012C61.861,62.012 58.869,63.95 57.246,64.887C52.65,67.538 71.129,80.004 71.129,80.004L71.128,80.005L71.169,80.029C71.169,80.029 71.213,87.089 70.19,91.476C68.896,97.025 64.903,107.886 61.841,110.97C55.779,110.918 49.097,103.221 49.097,103.221L53.466,94.895L44.918,100.61C44.918,100.61 29.078,89.435 27.225,79.166C34.198,78.204 37.891,71.132 42.111,69.655C46.219,68.218 51.726,68.401 51.993,68.411Z" style="fill:white;"/>
        </g>
    </g>
</svg>
