<?xml version="1.0" encoding="UTF-8" standalone="no"?>
<!DOCTYPE svg PUBLIC "-//W3C//DTD SVG 1.1//EN" "http://www.w3.org/Graphics/SVG/1.1/DTD/svg11.dtd">
<svg width="100%" height="100%" viewBox="0 0 428 544" version="1.1" xmlns="http://www.w3.org/2000/svg" xmlns:xlink="http://www.w3.org/1999/xlink" xml:space="preserve" style="fill-rule:evenodd;clip-rule:evenodd;stroke-linejoin:round;stroke-miterlimit:1.41421;">
    <g transform="matrix(1,0,0,1,-86,-28)">
        <g id="Skull-Angry-Icon" transform="matrix(6.07439,0,0,6.07439,-9564.13,-4368.76)">
            <path d="M1642.35,813.221L1605.49,813.221C1603.44,813.221 1601.77,811.53 1601.77,809.446L1601.77,800.531L1646.07,800.531L1646.07,809.446C1646.07,811.53 1644.4,813.221 1642.35,813.221ZM1646.04,794.923L1601.74,794.923L1601.74,789.639L1601.52,789.642C1598.21,788.791 1595.17,787.03 1593.13,784.262C1589.46,779.277 1588.82,761.931 1588.82,755.507C1588.82,738.104 1604.54,723.976 1623.89,723.976C1643.24,723.976 1658.95,738.104 1658.95,755.507C1658.95,761.357 1658.69,778.206 1655.6,782.904C1653.42,786.205 1650.01,788.233 1646.26,789.181L1646.04,789.183L1646.04,794.923ZM1618.85,788.468L1628.93,788.468L1623.89,778.381L1618.85,788.468ZM1596.82,758.124C1601.58,763.566 1610.26,767.427 1620.42,768.151C1621.52,772.063 1620.64,775.887 1617.66,778.225C1612.84,782 1604.35,780.485 1598.71,774.846C1593.23,769.368 1592.45,762.002 1596.82,758.124ZM1650.96,758.124C1655.33,762.002 1654.54,769.368 1649.07,774.846C1643.43,780.485 1634.94,782 1630.12,778.225C1627.14,775.887 1626.26,772.063 1627.36,768.151C1637.52,767.427 1646.2,763.566 1650.96,758.124Z" style="fill:white;"/>
        </g>
    </g>
</svg>
