<?xml version="1.0" encoding="UTF-8" standalone="no"?>
<!DOCTYPE svg PUBLIC "-//W3C//DTD SVG 1.1//EN" "http://www.w3.org/Graphics/SVG/1.1/DTD/svg11.dtd">
<svg width="100%" height="100%" viewBox="0 0 496 558" version="1.1" xmlns="http://www.w3.org/2000/svg" xmlns:xlink="http://www.w3.org/1999/xlink" xml:space="preserve" style="fill-rule:evenodd;clip-rule:evenodd;stroke-linejoin:round;stroke-miterlimit:1.41421;">
    <g transform="matrix(1,0,0,1,-52,-21)">
        <g id="Skull-Basic-Icon" transform="matrix(11.5385,0,0,11.5385,-12855.4,-8604.16)">
            <path d="M1134.28,795.83L1131.92,795.83C1131.27,795.83 1130.74,795.302 1130.74,794.651L1130.74,787.167C1127.28,787.543 1124.34,787.315 1122.22,784.448C1119.97,781.396 1118.66,770.779 1118.66,766.847C1118.66,756.196 1128.28,747.548 1140.12,747.548C1151.97,747.548 1161.59,756.196 1161.59,766.847C1161.59,770.428 1160.5,780.741 1158.61,783.616C1156.47,786.865 1153.3,787.224 1149.51,786.938L1149.51,794.651C1149.51,795.301 1148.98,795.829 1148.33,795.83L1145.97,795.83C1145.32,795.83 1144.8,795.302 1144.8,794.651L1144.8,792.125L1142.48,792.125L1142.48,794.651C1142.48,795.301 1141.95,795.829 1141.3,795.83L1138.95,795.83C1138.3,795.83 1137.77,795.302 1137.77,794.651L1137.77,792.125L1135.45,792.125L1135.45,794.651C1135.45,795.301 1134.93,795.829 1134.28,795.83ZM1143.84,783.269L1139.89,776.807L1135.93,783.269L1143.84,783.269ZM1133.01,764.848C1136.07,766.285 1137.24,770.239 1135.63,773.673C1134.02,777.108 1130.23,778.729 1127.16,777.292C1124.11,775.855 1122.93,771.901 1124.54,768.467C1126.15,765.032 1129.95,763.411 1133.01,764.848ZM1147.24,764.848C1144.18,766.285 1143.01,770.239 1144.62,773.673C1146.23,777.108 1150.02,778.729 1153.08,777.292C1156.14,775.855 1157.32,771.901 1155.71,768.467C1154.09,765.032 1150.3,763.411 1147.24,764.848Z" style="fill:white;"/>
        </g>
    </g>
</svg>
