<?xml version="1.0" encoding="UTF-8" standalone="no"?>
<!DOCTYPE svg PUBLIC "-//W3C//DTD SVG 1.1//EN" "http://www.w3.org/Graphics/SVG/1.1/DTD/svg11.dtd">
<svg width="100%" height="100%" viewBox="0 0 460 570" version="1.1" xmlns="http://www.w3.org/2000/svg" xmlns:xlink="http://www.w3.org/1999/xlink" xml:space="preserve" style="fill-rule:evenodd;clip-rule:evenodd;stroke-linejoin:round;stroke-miterlimit:1.41421;">
    <g transform="matrix(1,0,0,1,-70,-15)">
        <g id="Skull-Teeth-Icon" transform="matrix(7.66867,0,0,7.66867,-8409.48,-4031.54)">
            <path d="M1146.68,601.871L1141,587.251L1152.36,587.251L1146.68,601.871ZM1124.68,601.871L1119,587.251L1130.37,587.251L1124.68,601.871ZM1135.68,596.022L1132.04,587.251L1139.32,587.251L1135.68,596.022ZM1152.46,582.378L1118.98,582.378L1118.98,577.35L1118.82,577.349C1116.25,576.7 1101.98,571.916 1106.83,557.045C1111.43,546.847 1127.71,545.993 1117.91,538.607C1121.47,543.783 1114.38,544.959 1109.3,549.344C1110.65,537.302 1121.92,527.877 1135.65,527.801L1135.65,527.801L1135.72,527.801L1135.8,527.801L1135.8,527.801C1149.52,527.877 1160.8,537.302 1162.14,549.344C1157.06,544.959 1149.97,543.783 1153.54,538.607C1143.73,545.993 1160.02,546.847 1164.62,557.045C1169.47,571.916 1155.2,576.7 1152.63,577.349L1152.46,577.35L1152.46,582.378ZM1135.72,569.324L1131.98,576.808L1139.46,576.808L1135.72,569.324ZM1156.2,553.75C1159.53,556.696 1158.93,562.294 1154.76,566.456C1150.48,570.741 1144.03,571.892 1140.37,569.024C1138.1,567.247 1137.43,564.341 1138.27,561.369C1145.99,560.819 1152.58,557.885 1156.2,553.75ZM1115.24,553.75C1111.92,556.696 1112.52,562.294 1116.68,566.456C1120.97,570.741 1127.42,571.892 1131.08,569.024C1133.35,567.247 1134.01,564.341 1133.17,561.369C1125.46,560.819 1118.86,557.885 1115.24,553.75Z" style="fill:white;"/>
        </g>
    </g>
</svg>
