<?xml version="1.0" encoding="UTF-8" standalone="no"?>
<!DOCTYPE svg PUBLIC "-//W3C//DTD SVG 1.1//EN" "http://www.w3.org/Graphics/SVG/1.1/DTD/svg11.dtd">
<svg width="100%" height="100%" viewBox="0 0 334 580" version="1.1" xmlns="http://www.w3.org/2000/svg" xmlns:xlink="http://www.w3.org/1999/xlink" xml:space="preserve" style="fill-rule:evenodd;clip-rule:evenodd;stroke-linejoin:round;stroke-miterlimit:1.41421;">
    <g transform="matrix(1,0,0,1,-133,-10)">
        <g id="Smartphone-Icon" transform="matrix(6.22747,0,0,6.15376,-1198.6,-2351.14)">
            <path d="M260.016,477.841L221.27,477.841C217.22,477.841 213.932,474.553 213.932,470.503L213.932,391.128C213.932,387.079 217.22,383.791 221.27,383.791L260.016,383.791C264.066,383.791 267.354,387.079 267.354,391.128L267.354,470.503C267.354,474.553 264.066,477.841 260.016,477.841ZM240.643,463.35C243.312,463.35 245.479,465.517 245.479,468.186C245.479,470.855 243.312,473.022 240.643,473.022C237.974,473.022 235.807,470.855 235.807,468.186C235.807,465.517 237.974,463.35 240.643,463.35ZM261.373,397.148L219.912,397.148L219.912,459.803L261.373,459.803L261.373,397.148ZM245.002,388.55L236.284,388.55C235.863,388.55 235.522,388.891 235.522,389.311L235.522,390.834C235.522,391.254 235.863,391.595 236.284,391.595L245.002,391.595C245.422,391.595 245.764,391.254 245.764,390.834L245.764,389.311C245.764,388.891 245.422,388.55 245.002,388.55Z" style="fill:white;"/>
        </g>
    </g>
</svg>
