<?xml version="1.0" encoding="UTF-8" standalone="no"?>
<!DOCTYPE svg PUBLIC "-//W3C//DTD SVG 1.1//EN" "http://www.w3.org/Graphics/SVG/1.1/DTD/svg11.dtd">
<svg width="100%" height="100%" viewBox="0 0 478 578" version="1.1" xmlns="http://www.w3.org/2000/svg" xmlns:xlink="http://www.w3.org/1999/xlink" xml:space="preserve" style="fill-rule:evenodd;clip-rule:evenodd;stroke-linejoin:round;stroke-miterlimit:1.41421;">
    <g transform="matrix(1,0,0,1,-61,-11)">
        <g id="Smartphone-Hand-Icon" transform="matrix(7.98495,0,0,7.98495,-15493.8,-1200.44)">
            <path d="M1983.9,224.047L1953.77,224.047C1950.62,224.047 1948.06,221.521 1948.06,218.408L1948.06,157.409C1948.06,154.297 1950.62,151.77 1953.77,151.77L1983.9,151.77C1987.05,151.77 1989.61,154.297 1989.61,157.409L1989.61,179.712C1989.38,179.69 1989.15,179.678 1988.92,179.678C1987.41,179.678 1986.03,180.156 1984.96,180.946L1984.96,162.035L1952.72,162.035L1952.72,210.185L1970.47,210.185L1989.61,215.735L1989.61,218.408C1989.61,221.521 1987.05,224.047 1983.9,224.047ZM1968.84,212.911C1970.91,212.911 1972.6,214.577 1972.6,216.628C1972.6,218.679 1970.91,220.344 1968.84,220.344C1966.76,220.344 1965.08,218.679 1965.08,216.628C1965.08,214.577 1966.76,212.911 1968.84,212.911ZM1989.52,213.034L1970.56,207.667C1968.4,207.053 1967.14,204.816 1967.76,202.674C1968.38,200.532 1970.65,199.291 1972.82,199.905L1978.41,201.49L1966.93,181.837C1965.9,180.067 1966.51,177.8 1968.3,176.778C1970.1,175.756 1972.39,176.364 1973.42,178.134L1977.94,185.869C1978.17,184.827 1978.83,183.882 1979.84,183.307C1981.73,182.225 1984.16,182.868 1985.26,184.743L1985.49,185.147C1985.72,184.106 1986.38,183.16 1987.39,182.586C1989.28,181.504 1991.71,182.147 1992.81,184.022L1992.98,184.315C1993.21,183.274 1993.86,182.328 1994.87,181.754C1996.77,180.671 1999.2,181.315 2000.29,183.189L2005.94,192.883C2009.82,199.514 2007.51,208.005 2000.8,211.834C1997.25,213.864 1993.15,214.178 1989.52,213.034ZM1957.01,185.397C1956.26,185.821 1956.01,186.764 1956.44,187.502C1956.87,188.241 1957.83,188.496 1958.57,188.072L1964.7,184.573C1965.44,184.149 1965.7,183.206 1965.27,182.468C1964.83,181.729 1963.88,181.474 1963.14,181.898L1957.01,185.397ZM1956.63,174.834C1955.81,174.616 1954.96,175.107 1954.74,175.931C1954.51,176.754 1955,177.6 1955.83,177.818L1962.68,179.633C1963.5,179.851 1964.36,179.36 1964.58,178.537C1964.8,177.713 1964.31,176.867 1963.49,176.649L1956.63,174.834ZM1983.18,174.158C1983.93,173.734 1984.18,172.791 1983.75,172.052C1983.32,171.314 1982.36,171.059 1981.62,171.483L1975.49,174.982C1974.75,175.405 1974.49,176.349 1974.92,177.087C1975.36,177.825 1976.31,178.081 1977.05,177.657L1983.18,174.158ZM1964.26,166.963C1963.82,166.22 1962.87,165.964 1962.12,166.39C1961.37,166.816 1961.12,167.765 1961.55,168.508L1965.07,174.537C1965.51,175.279 1966.47,175.536 1967.21,175.11C1967.96,174.684 1968.21,173.735 1967.78,172.992L1964.26,166.963ZM1975.06,167.168C1975.28,166.336 1974.79,165.481 1973.95,165.26C1973.12,165.04 1972.26,165.536 1972.04,166.368L1970.22,173.079C1969.99,173.911 1970.48,174.766 1971.32,174.986C1972.15,175.207 1973.01,174.711 1973.24,173.879L1975.06,167.168ZM1972.23,155.427L1965.45,155.427C1965.12,155.428 1964.86,155.69 1964.86,156.012L1964.86,157.182C1964.86,157.505 1965.12,157.767 1965.45,157.767L1972.23,157.767C1972.55,157.767 1972.82,157.505 1972.82,157.182L1972.82,156.012C1972.82,155.69 1972.55,155.428 1972.23,155.427Z" style="fill:white;"/>
        </g>
    </g>
</svg>
