<?xml version="1.0" encoding="UTF-8" standalone="no"?>
<!DOCTYPE svg PUBLIC "-//W3C//DTD SVG 1.1//EN" "http://www.w3.org/Graphics/SVG/1.1/DTD/svg11.dtd">
<svg width="100%" height="100%" viewBox="0 0 562 556" version="1.1" xmlns="http://www.w3.org/2000/svg" xmlns:xlink="http://www.w3.org/1999/xlink" xml:space="preserve" style="fill-rule:evenodd;clip-rule:evenodd;stroke-linejoin:round;stroke-miterlimit:1.41421;">
    <g transform="matrix(1,0,0,1,-8,-27)">
        <g id="Sound-Off" transform="matrix(8.3036,0,0,8.3036,-3921.05,-2077.96)">
            <path d="M491.568,276.092L474.133,258.863C472.905,257.649 472.905,255.679 474.132,254.466C475.36,253.253 477.354,253.253 478.582,254.466L539.908,315.067C541.136,316.28 541.136,318.25 539.909,319.464C538.681,320.677 536.687,320.677 535.459,319.463L518.043,302.254L518.043,310.808L515.977,310.808L515.977,310.706C514.426,310.485 513.028,309.8 511.958,308.766L511.843,308.766L499.443,296.513L484.977,296.513C481.552,296.513 478.777,293.771 478.777,290.387L478.777,282.218C478.777,278.833 481.552,276.092 484.977,276.092L491.568,276.092ZM532.272,298.839C535.008,295.38 536.643,291.033 536.643,286.302C536.643,280.15 533.877,274.646 529.521,270.902L532.444,268.013C537.545,272.502 540.777,279.021 540.777,286.302C540.777,292.162 538.684,297.528 535.207,301.74L532.272,298.839ZM526.358,292.995C527.634,291.072 528.377,288.774 528.377,286.302C528.377,282.405 526.529,278.939 523.658,276.695L526.598,273.79C530.21,276.787 532.51,281.278 532.51,286.302C532.51,289.904 531.328,293.232 529.329,295.931L526.358,292.995ZM518.043,284.779L504.348,271.245L511.843,263.838L511.958,263.838C513.028,262.805 514.426,262.12 515.977,261.897L515.977,261.797L518.043,261.797L518.043,284.779Z" style="fill:white;"/>
        </g>
    </g>
</svg>
