<?xml version="1.0" encoding="UTF-8" standalone="no"?>
<!DOCTYPE svg PUBLIC "-//W3C//DTD SVG 1.1//EN" "http://www.w3.org/Graphics/SVG/1.1/DTD/svg11.dtd">
<svg width="100%" height="100%" viewBox="0 0 329 542" version="1.1" xmlns="http://www.w3.org/2000/svg" xmlns:xlink="http://www.w3.org/1999/xlink" xml:space="preserve" style="fill-rule:evenodd;clip-rule:evenodd;stroke-linejoin:round;stroke-miterlimit:1.41421;">
    <g transform="matrix(1,0,0,1,-135,-29)">
        <g id="Spaceship-Icon" transform="matrix(8.31121,0,0,8.31121,-14389.6,-6201.4)">
            <path d="M1772.36,814.769L1762.42,814.769C1761.28,814.769 1760.35,813.85 1760.35,812.718L1760.35,808.251C1762.71,807.634 1765.26,807.206 1767.79,807.206C1770.05,807.206 1772.31,807.569 1774.43,808.108L1774.43,812.718C1774.43,813.85 1773.5,814.769 1772.36,814.769ZM1756.86,791.729C1755.61,786.44 1752.52,772.225 1753.98,766.309C1755.71,759.272 1760.34,749.72 1768.18,749.72C1776.01,749.72 1780.64,759.272 1782.37,766.309C1783.92,772.604 1780.33,788.294 1779.28,792.63C1782.38,794.829 1786.79,798.716 1786.94,799.408C1787.22,800.653 1787.31,810.001 1786.15,810.157C1785.43,810.253 1776.67,804.674 1767.79,804.675C1758.64,804.677 1749.36,810.256 1748.63,810.157C1747.46,810.001 1747.56,800.653 1747.84,799.408C1748.02,798.606 1753.9,793.51 1756.86,791.729ZM1768.18,775.186C1771.49,775.186 1774.18,777.846 1774.18,781.123C1774.18,784.399 1771.49,787.059 1768.18,787.059C1764.86,787.059 1762.17,784.399 1762.17,781.123C1762.17,777.846 1764.86,775.186 1768.18,775.186ZM1768.18,761.501C1770.4,761.501 1772.2,763.284 1772.2,765.48C1772.2,767.676 1770.4,769.459 1768.18,769.459C1765.95,769.459 1764.15,767.676 1764.15,765.48C1764.15,763.284 1765.95,761.501 1768.18,761.501Z" style="fill:white;"/>
        </g>
    </g>
</svg>
