<?xml version="1.0" encoding="UTF-8" standalone="no"?>
<!DOCTYPE svg PUBLIC "-//W3C//DTD SVG 1.1//EN" "http://www.w3.org/Graphics/SVG/1.1/DTD/svg11.dtd">
<svg width="100%" height="100%" viewBox="0 0 550 550" version="1.1" xmlns="http://www.w3.org/2000/svg" xmlns:xlink="http://www.w3.org/1999/xlink" xml:space="preserve" style="fill-rule:evenodd;clip-rule:evenodd;stroke-linejoin:round;stroke-miterlimit:1.41421;">
    <g transform="matrix(1,0,0,1,-25,-25)">
        <g id="Star-Coin-Icon" transform="matrix(12.4648,0,0,12.4648,-5759.6,-6866.72)">
            <path d="M486.138,552.937C498.291,552.937 508.158,562.804 508.158,574.958C508.158,587.111 498.291,596.978 486.138,596.978C473.984,596.978 464.117,587.111 464.117,574.958C464.117,562.804 473.984,552.937 486.138,552.937ZM486.138,558.837C495.035,558.837 502.258,566.061 502.258,574.958C502.258,583.855 495.035,591.078 486.138,591.078C477.241,591.078 470.017,583.855 470.017,574.958C470.017,566.061 477.241,558.837 486.138,558.837ZM486.138,560.96C493.863,560.96 500.135,567.232 500.135,574.958C500.135,582.683 493.863,588.955 486.138,588.955C478.412,588.955 472.14,582.683 472.14,574.958C472.14,567.232 478.412,560.96 486.138,560.96ZM486.138,566.086C487.948,566.086 489.271,571.472 489.271,571.472C489.271,571.472 494.802,571.067 495.362,572.788C495.921,574.509 491.208,577.432 491.208,577.432C491.208,577.432 493.303,582.568 491.838,583.631C490.374,584.695 486.138,581.116 486.138,581.116C486.138,581.116 481.901,584.695 480.437,583.631C478.973,582.568 481.067,577.432 481.067,577.432C481.067,577.432 476.354,574.509 476.914,572.788C477.473,571.067 483.004,571.472 483.004,571.472C483.004,571.472 484.328,566.086 486.138,566.086Z" style="fill:white;"/>
        </g>
    </g>
</svg>
