<?xml version="1.0" encoding="UTF-8" standalone="no"?>
<!DOCTYPE svg PUBLIC "-//W3C//DTD SVG 1.1//EN" "http://www.w3.org/Graphics/SVG/1.1/DTD/svg11.dtd">
<svg width="100%" height="100%" viewBox="0 0 549 556" version="1.1" xmlns="http://www.w3.org/2000/svg" xmlns:xlink="http://www.w3.org/1999/xlink" xml:space="preserve" style="fill-rule:evenodd;clip-rule:evenodd;stroke-linejoin:round;stroke-miterlimit:1.41421;">
    <g transform="matrix(1,0,0,1,-25,-22)">
        <g id="Star-Shop-Icon" transform="matrix(11.8382,0,0,11.6981,-9798.1,-5184.58)">
            <path d="M852.973,445.098L857.858,447.44L863.276,447.449L866.661,451.679L871.538,454.038L872.753,459.318L876.124,463.56L874.927,468.844L876.124,474.128L872.753,478.369L871.538,483.649L866.661,486.008L863.276,490.238L857.858,490.247L852.973,492.59L848.088,490.247L842.67,490.238L839.285,486.008L834.408,483.649L833.193,478.369L829.822,474.128L831.019,468.844L829.822,463.56L833.193,459.318L834.408,454.038L839.285,451.679L842.67,447.449L848.088,447.44L852.973,445.098Z" style="fill:white;"/>
        </g>
    </g>
</svg>
