<?xml version="1.0" encoding="UTF-8" standalone="no"?>
<!DOCTYPE svg PUBLIC "-//W3C//DTD SVG 1.1//EN" "http://www.w3.org/Graphics/SVG/1.1/DTD/svg11.dtd">
<svg width="100%" height="100%" viewBox="0 0 431 534" version="1.1" xmlns="http://www.w3.org/2000/svg" xmlns:xlink="http://www.w3.org/1999/xlink" xml:space="preserve" style="fill-rule:evenodd;clip-rule:evenodd;stroke-linejoin:round;stroke-miterlimit:1.41421;">
    <g transform="matrix(1,0,0,1,-84,-33)">
        <g id="Strawberry-Icon" transform="matrix(8.18972,0,0,8.18972,-12450.4,-7728.85)">
            <path d="M1540.1,964.055L1547.78,968.022C1524.28,974.189 1546.24,1006.65 1556.74,1006.65C1567.81,1006.65 1589.23,974.318 1565.86,968.059L1573.39,964.295C1596.77,975.487 1572.73,1012.74 1556.44,1012.96C1541.91,1013.15 1516.67,975.003 1540.1,964.055ZM1556.62,994.281C1558.04,994.281 1559.18,995.884 1559.18,997.858C1559.18,999.832 1558.04,1001.44 1556.62,1001.44C1555.21,1001.44 1554.07,999.832 1554.07,997.858C1554.07,995.884 1555.21,994.281 1556.62,994.281ZM1564.84,985.118C1566.25,985.118 1567.4,986.721 1567.4,988.695C1567.4,990.669 1566.25,992.272 1564.84,992.272C1563.43,992.272 1562.28,990.669 1562.28,988.695C1562.28,986.721 1563.43,985.118 1564.84,985.118ZM1548.42,985.118C1549.83,985.118 1550.98,986.721 1550.98,988.695C1550.98,990.669 1549.83,992.272 1548.42,992.272C1547,992.272 1545.86,990.669 1545.86,988.695C1545.86,986.721 1547,985.118 1548.42,985.118ZM1544.51,974.955C1545.92,974.955 1547.07,976.558 1547.07,978.532C1547.07,980.506 1545.92,982.108 1544.51,982.108C1543.1,982.108 1541.95,980.506 1541.95,978.532C1541.95,976.558 1543.1,974.955 1544.51,974.955ZM1556.83,974.955C1558.25,974.955 1559.39,976.558 1559.39,978.532C1559.39,980.506 1558.25,982.108 1556.83,982.108C1555.42,982.108 1554.27,980.506 1554.27,978.532C1554.27,976.558 1555.42,974.955 1556.83,974.955ZM1569.16,974.955C1570.57,974.955 1571.72,976.558 1571.72,978.532C1571.72,980.506 1570.57,982.108 1569.16,982.108C1567.75,982.108 1566.6,980.506 1566.6,978.532C1566.6,976.558 1567.75,974.955 1569.16,974.955ZM1556.83,956.255L1570.13,947.755L1565.07,958.545L1575.56,960.128L1556.89,969.164L1556.89,969.219L1556.83,969.191L1556.78,969.219L1556.78,969.164L1538.11,960.128L1548.59,958.545L1543.53,947.755L1556.83,956.255Z" style="fill:white;"/>
        </g>
    </g>
</svg>
