<?xml version="1.0" encoding="UTF-8" standalone="no"?>
<!DOCTYPE svg PUBLIC "-//W3C//DTD SVG 1.1//EN" "http://www.w3.org/Graphics/SVG/1.1/DTD/svg11.dtd">
<svg width="100%" height="100%" viewBox="0 0 533 384" version="1.1" xmlns="http://www.w3.org/2000/svg" xmlns:xlink="http://www.w3.org/1999/xlink" xml:space="preserve" style="fill-rule:evenodd;clip-rule:evenodd;stroke-linejoin:round;stroke-miterlimit:1.41421;">
    <g transform="matrix(1,0,0,1,-33,-108)">
        <g id="Swim-Icon" transform="matrix(3.90753,0,0,3.90753,-6229.74,-492.916)">
            <path d="M1739,251.637C1738.89,251.641 1738.78,251.643 1738.67,251.643C1729.57,251.663 1728.42,247.566 1720.74,247.566C1713.05,247.566 1711.22,251.927 1704.07,251.95C1697.42,251.972 1694.51,247.566 1686.53,247.566C1678.55,247.566 1678.1,251.685 1671.27,251.706C1664.53,251.727 1660.83,247.566 1653.2,247.566C1645.58,247.566 1643.69,251.927 1636.54,251.95C1629.89,251.972 1625.72,247.566 1619,247.566C1612.27,247.566 1608.97,251.588 1602.92,251.737L1602.92,238.745C1608.47,239.412 1612.29,234.624 1619.67,234.624C1627.05,234.624 1630.05,239 1636.79,239C1643.67,239 1646.08,234.624 1653.88,234.624C1661.67,234.624 1664.23,239.011 1670.9,239.011C1677.49,239.011 1678.52,234.624 1687.2,234.624C1695.88,234.624 1697.58,239 1704.32,239C1711.2,239 1713.82,234.624 1721.41,234.624C1728.99,234.624 1731.35,239.192 1739,239.234L1739,251.637ZM1624.94,224.361L1671.55,198.262L1658.88,176.328C1658.04,174.87 1657.66,173.273 1657.68,171.703C1657.61,167.387 1660.67,163.523 1665.05,162.725L1712.8,154.036C1717.67,153.149 1722.35,156.386 1723.24,161.261C1724.12,166.136 1720.88,170.814 1716.01,171.701L1680.66,178.135L1708.98,227.191C1707.61,227.629 1706.11,227.925 1704.32,227.925C1697.58,227.925 1695.88,223.548 1687.2,223.548C1678.52,223.548 1677.49,227.935 1670.9,227.935C1664.23,227.935 1661.67,223.548 1653.88,223.548C1646.08,223.548 1643.67,227.925 1636.79,227.925C1631.91,227.925 1628.99,225.626 1624.94,224.361ZM1718.02,182.916C1727.42,182.916 1735.06,190.551 1735.06,199.954C1735.06,209.358 1727.42,216.992 1718.02,216.992C1708.62,216.992 1700.98,209.358 1700.98,199.954C1700.98,190.551 1708.62,182.916 1718.02,182.916Z" style="fill:white;"/>
        </g>
    </g>
</svg>
