<?xml version="1.0" encoding="UTF-8" standalone="no"?>
<!DOCTYPE svg PUBLIC "-//W3C//DTD SVG 1.1//EN" "http://www.w3.org/Graphics/SVG/1.1/DTD/svg11.dtd">
<svg width="100%" height="100%" viewBox="0 0 517 566" version="1.1" xmlns="http://www.w3.org/2000/svg" xmlns:xlink="http://www.w3.org/1999/xlink" xml:space="preserve" style="fill-rule:evenodd;clip-rule:evenodd;stroke-linejoin:round;stroke-miterlimit:1.41421;">
    <g transform="matrix(1,0,0,1,-41,-17)">
        <g id="Sword-Icon" transform="matrix(8.82962,-4.90142e-16,0,8.82962,-4120.63,-4882.85)">
            <path d="M484.949,597.507L480.296,593.457C478.975,592.307 478.849,590.313 480.014,589.005L481.07,587.821C482.235,586.514 484.253,586.386 485.574,587.535L502.743,602.478C504.064,603.628 504.19,605.622 503.025,606.93L501.969,608.114C500.804,609.421 498.786,609.549 497.465,608.4L492.811,604.349L483.771,614.493L484.994,615.557C485.823,616.279 485.902,617.531 485.171,618.352C484.439,619.172 483.172,619.253 482.343,618.531L472.035,609.56C471.206,608.838 471.126,607.586 471.858,606.765C472.589,605.944 473.857,605.864 474.686,606.586L475.909,607.65L484.949,597.507ZM529.183,569.379L529.866,554.945L515.462,557.437L490.903,589.558L500.039,597.51L529.183,569.379Z" style="fill:white;"/>
        </g>
    </g>
</svg>
