<?xml version="1.0" encoding="UTF-8" standalone="no"?>
<!DOCTYPE svg PUBLIC "-//W3C//DTD SVG 1.1//EN" "http://www.w3.org/Graphics/SVG/1.1/DTD/svg11.dtd">
<svg width="100%" height="100%" viewBox="0 0 563 556" version="1.1" xmlns="http://www.w3.org/2000/svg" xmlns:xlink="http://www.w3.org/1999/xlink" xml:space="preserve" style="fill-rule:evenodd;clip-rule:evenodd;stroke-linejoin:round;stroke-miterlimit:1.41421;">
    <g transform="matrix(1,0,0,1,-18,-22)">
        <g id="Tape-Icon" transform="matrix(8.55769,0,0,8.55769,-8518.65,-1308.07)">
            <path d="M1024.13,215.883C1018.06,221.881 1008.21,221.881 1002.14,215.883C996.066,209.885 996.066,200.146 1002.14,194.148L1036.76,159.935C1042.83,153.937 1052.68,153.937 1058.75,159.935C1064.82,165.933 1064.82,175.671 1058.75,181.669L1024.13,215.883ZM1028.76,203.891L1046.62,186.247L1032.13,171.927L1014.27,189.57L1028.76,203.891ZM1028.61,200.026L1018.18,189.726L1032.28,175.792L1042.71,186.091L1028.61,200.026Z" style="fill:white;"/>
        </g>
    </g>
</svg>
