<?xml version="1.0" encoding="UTF-8" standalone="no"?>
<!DOCTYPE svg PUBLIC "-//W3C//DTD SVG 1.1//EN" "http://www.w3.org/Graphics/SVG/1.1/DTD/svg11.dtd">
<svg width="100%" height="100%" viewBox="0 0 491 449" version="1.1" xmlns="http://www.w3.org/2000/svg" xmlns:xlink="http://www.w3.org/1999/xlink" xml:space="preserve" style="fill-rule:evenodd;clip-rule:evenodd;stroke-linejoin:round;stroke-miterlimit:1.41421;">
    <g transform="matrix(1,0,0,1,-53,-13)">
        <g id="Thumb-Down-Outline" transform="matrix(6.08625,0,0,6.08625,-10880.5,-795.81)">
            <path d="M1861.31,132.894C1866.07,132.895 1869.93,136.754 1869.93,141.508C1869.93,142.355 1869.81,143.172 1869.58,143.945C1872.49,145.219 1874.53,148.128 1874.53,151.511C1874.53,152.808 1874.23,154.036 1873.7,155.129C1875.74,156.65 1877.07,159.085 1877.07,161.827C1877.07,163.767 1876.4,165.553 1875.29,166.97C1876.36,168.397 1877,170.169 1877,172.088C1877,176.803 1873.17,180.63 1868.45,180.63L1851.21,180.63C1851.97,186.132 1852.38,191.947 1851.49,195.389C1847.25,211.732 1834.14,206.112 1834.26,203.647C1834.35,201.698 1834.97,193.853 1835.29,189.9C1833.08,186.638 1825.39,175.27 1822.34,170.28C1821.56,169.001 1821.08,168.141 1821.07,167.944C1821.01,164.511 1821.03,140.967 1821.05,140.702L1821.06,140.547L1821.07,140.548C1821.55,136.245 1825.2,132.895 1829.63,132.894L1861.31,132.894ZM1862.69,146.413C1864.91,145.818 1866.55,143.792 1866.55,141.388C1866.55,138.518 1864.22,136.187 1861.35,136.187L1829.54,136.187C1826.83,136.187 1824.61,138.258 1824.36,140.899L1824.34,140.899L1824.34,167.428L1824.33,167.451L1824.34,167.454L1824.34,167.458L1824.34,167.458L1838.67,189.022L1838.47,192.137L1837.55,202.684C1837.55,202.684 1845.07,206.219 1847.86,195.758C1849.39,190.026 1848.01,181.76 1847.03,177.265L1868.5,177.265C1871.37,177.265 1873.7,174.935 1873.7,172.064C1873.7,169.521 1871.87,167.402 1869.46,166.952C1871.87,166.501 1873.7,164.382 1873.7,161.839C1873.7,158.969 1871.37,156.638 1868.5,156.638L1867.31,156.638C1869.53,156.043 1871.17,154.018 1871.17,151.614C1871.17,148.743 1868.84,146.413 1865.97,146.413L1862.69,146.413ZM1815.59,133.712C1817.68,133.713 1819.38,135.412 1819.38,137.506L1819.38,168.129C1819.38,170.223 1817.68,171.922 1815.59,171.922L1800.34,171.922C1798.25,171.922 1796.55,170.223 1796.55,168.129L1796.55,137.506C1796.55,135.412 1798.25,133.713 1800.34,133.712L1815.59,133.712ZM1814.56,168.859C1815.4,168.859 1816.08,168.178 1816.08,167.34L1816.08,138.295C1816.08,137.456 1815.4,136.776 1814.56,136.776L1801.37,136.776C1800.53,136.776 1799.85,137.456 1799.85,138.295L1799.85,167.34C1799.85,168.178 1800.53,168.859 1801.37,168.859L1814.56,168.859Z" style="fill:white;"/>
        </g>
    </g>
</svg>
