<?xml version="1.0" encoding="UTF-8" standalone="no"?>
<!DOCTYPE svg PUBLIC "-//W3C//DTD SVG 1.1//EN" "http://www.w3.org/Graphics/SVG/1.1/DTD/svg11.dtd">
<svg width="100%" height="100%" viewBox="0 0 491 444" version="1.1" xmlns="http://www.w3.org/2000/svg" xmlns:xlink="http://www.w3.org/1999/xlink" xml:space="preserve" style="fill-rule:evenodd;clip-rule:evenodd;stroke-linejoin:round;stroke-miterlimit:1.41421;">
    <g transform="matrix(1,0,0,1,-53,-15)">
        <g id="Thumb-Down-Icon" transform="matrix(6.08625,0,0,6.08625,-10880.5,-2946.85)">
            <path d="M1821.53,493.996C1821.52,493.889 1821.52,493.78 1821.52,493.672C1821.52,489.995 1824.5,487.01 1828.18,487.01L1862.74,487.01C1866.41,487.01 1869.4,489.995 1869.4,493.672C1869.4,495.241 1868.86,496.683 1867.95,497.822C1871.32,498.144 1873.97,500.992 1873.97,504.453C1873.97,506.213 1873.29,507.814 1872.17,509.005C1874.68,509.958 1876.47,512.39 1876.47,515.235C1876.47,517.33 1875.5,519.201 1873.99,520.423C1875.82,521.61 1877.03,523.673 1877.03,526.017C1877.03,529.693 1874.05,532.678 1870.37,532.678L1849.67,532.678C1850.59,537.935 1851.27,544.401 1850.15,548.534C1848.56,554.352 1845.56,559.558 1840.07,559.558C1838.29,559.558 1836.62,559.083 1835.17,558.251L1836.56,543.617L1836.57,543.491L1821.53,520.666L1821.53,493.996ZM1815.62,486.795C1817.72,486.795 1819.41,488.495 1819.41,490.588L1819.41,521.212C1819.41,523.305 1817.72,525.005 1815.62,525.005L1800.38,525.005C1798.29,525.005 1796.59,523.305 1796.59,521.212L1796.59,490.588C1796.59,488.495 1798.29,486.795 1800.38,486.795L1815.62,486.795Z" style="fill:white;"/>
        </g>
    </g>
</svg>
