<?xml version="1.0" encoding="UTF-8" standalone="no"?>
<!DOCTYPE svg PUBLIC "-//W3C//DTD SVG 1.1//EN" "http://www.w3.org/Graphics/SVG/1.1/DTD/svg11.dtd">
<svg width="100%" height="100%" viewBox="0 0 491 444" version="1.1" xmlns="http://www.w3.org/2000/svg" xmlns:xlink="http://www.w3.org/1999/xlink" xml:space="preserve" style="fill-rule:evenodd;clip-rule:evenodd;stroke-linejoin:round;stroke-miterlimit:1.41421;">
    <g transform="matrix(1,0,0,1,-53,-15)">
        <g id="Thumb-Up-Icon" transform="matrix(6.08625,0,0,6.08625,-10176.7,-2946.85)">
            <path d="M1699.98,559.558L1684.74,559.558C1682.65,559.558 1680.95,557.858 1680.95,555.765L1680.95,525.141C1680.95,523.048 1682.65,521.348 1684.74,521.348L1699.98,521.348C1702.08,521.348 1703.78,523.048 1703.78,525.141L1703.78,555.765C1703.78,557.858 1702.08,559.558 1699.98,559.558ZM1720.93,502.862L1720.92,502.736L1719.53,488.101C1720.98,487.27 1722.65,486.795 1724.43,486.795C1729.92,486.795 1732.92,492.001 1734.51,497.819C1735.63,501.952 1734.95,508.418 1734.03,513.675L1754.73,513.675C1758.41,513.675 1761.39,516.66 1761.39,520.336C1761.39,522.68 1760.18,524.743 1758.35,525.93C1759.86,527.152 1760.83,529.022 1760.83,531.118C1760.83,533.963 1759.05,536.395 1756.53,537.348C1757.65,538.539 1758.33,540.14 1758.33,541.9C1758.33,545.361 1755.69,548.209 1752.31,548.531C1753.22,549.669 1753.76,551.112 1753.76,552.681C1753.76,556.358 1750.78,559.342 1747.1,559.342L1712.54,559.342C1708.86,559.342 1705.88,556.358 1705.88,552.681C1705.88,552.572 1705.88,552.464 1705.89,552.357L1705.89,525.687L1720.93,502.862Z" style="fill:white;"/>
        </g>
    </g>
</svg>
