<?xml version="1.0" encoding="UTF-8" standalone="no"?>
<!DOCTYPE svg PUBLIC "-//W3C//DTD SVG 1.1//EN" "http://www.w3.org/Graphics/SVG/1.1/DTD/svg11.dtd">
<svg width="100%" height="100%" viewBox="0 0 491 449" version="1.1" xmlns="http://www.w3.org/2000/svg" xmlns:xlink="http://www.w3.org/1999/xlink" xml:space="preserve" style="fill-rule:evenodd;clip-rule:evenodd;stroke-linejoin:round;stroke-miterlimit:1.41421;">
    <g transform="matrix(1,0,0,1,-53,-13)">
        <g id="Thumb-Up-Outline" transform="matrix(6.08625,0,0,6.08625,-10176.7,-795.81)">
            <path d="M1745.67,206.607L1713.99,206.607C1709.56,206.607 1705.91,203.256 1705.43,198.953L1705.42,198.954L1705.42,198.8C1705.39,198.534 1705.37,174.99 1705.43,171.557C1705.44,171.36 1705.92,170.5 1706.7,169.221C1709.75,164.232 1717.44,152.864 1719.65,149.601C1719.34,145.648 1718.71,137.803 1718.62,135.854C1718.5,133.39 1731.61,127.769 1735.85,144.112C1736.75,147.554 1736.33,153.369 1735.57,158.871L1752.82,158.871C1757.53,158.871 1761.36,162.699 1761.36,167.413C1761.36,169.332 1760.72,171.104 1759.65,172.531C1760.77,173.948 1761.43,175.734 1761.43,177.674C1761.43,180.416 1760.1,182.851 1758.06,184.372C1758.59,185.465 1758.89,186.693 1758.89,187.99C1758.89,191.373 1756.85,194.282 1753.94,195.556C1754.17,196.329 1754.29,197.147 1754.29,197.993C1754.29,202.747 1750.43,206.606 1745.67,206.607ZM1699.95,205.789L1684.7,205.789C1682.61,205.789 1680.91,204.089 1680.91,201.995L1680.91,171.372C1680.91,169.279 1682.61,167.579 1684.7,167.579L1699.95,167.579C1702.04,167.579 1703.74,169.279 1703.74,171.372L1703.74,201.995C1703.74,204.089 1702.04,205.789 1699.95,205.789ZM1708.72,198.602C1708.97,201.244 1711.19,203.314 1713.9,203.314L1745.71,203.314C1748.58,203.314 1750.91,200.983 1750.91,198.113C1750.91,195.709 1749.27,193.683 1747.06,193.089L1750.33,193.089C1753.2,193.088 1755.53,190.758 1755.53,187.887C1755.53,185.483 1753.89,183.458 1751.68,182.863L1752.86,182.863C1755.74,182.863 1758.07,180.532 1758.07,177.662C1758.07,175.119 1756.24,173 1753.82,172.549C1756.24,172.099 1758.07,169.98 1758.07,167.437C1758.07,164.566 1755.74,162.236 1752.86,162.236L1731.39,162.236C1732.37,157.742 1733.75,149.475 1732.22,143.743C1729.43,133.282 1721.91,136.817 1721.91,136.817L1722.83,147.364L1723.04,150.479L1708.7,172.043L1708.7,172.043L1708.7,172.047L1708.69,172.05L1708.7,172.074L1708.7,198.602L1708.72,198.602ZM1698.92,170.642L1685.73,170.642C1684.89,170.642 1684.21,171.323 1684.21,172.161L1684.21,201.206C1684.21,202.045 1684.89,202.725 1685.73,202.725L1698.92,202.725C1699.76,202.725 1700.44,202.045 1700.44,201.206L1700.44,172.161C1700.44,171.323 1699.76,170.642 1698.92,170.642Z" style="fill:white;"/>
        </g>
    </g>
</svg>
