<?xml version="1.0" encoding="UTF-8" standalone="no"?>
<!DOCTYPE svg PUBLIC "-//W3C//DTD SVG 1.1//EN" "http://www.w3.org/Graphics/SVG/1.1/DTD/svg11.dtd">
<svg width="100%" height="100%" viewBox="0 0 502 510" version="1.1" xmlns="http://www.w3.org/2000/svg" xmlns:xlink="http://www.w3.org/1999/xlink" xml:space="preserve" style="fill-rule:evenodd;clip-rule:evenodd;stroke-linejoin:round;stroke-miterlimit:1.41421;">
    <g transform="matrix(1,0,0,1,-49,-45)">
        <g id="Time-Off-Icon" transform="matrix(8.46913,0,0,8.46913,-3952.08,-5489.06)">
            <path d="M478.848,668.693L473.23,663.142C472.22,662.144 472.22,660.523 473.231,659.525L473.233,659.523C474.243,658.525 475.883,658.525 476.893,659.523L481.684,664.257L481.705,664.23L485.312,667.794L485.291,667.822L517.55,699.698L517.577,699.678L521.184,703.242L521.157,703.263L527.207,709.241C528.217,710.239 528.217,711.86 527.207,712.858L527.204,712.86C526.194,713.858 524.554,713.858 523.544,712.86L516.755,706.151C512.863,708.21 508.427,709.376 503.721,709.376C488.298,709.376 475.777,696.855 475.777,681.432C475.777,676.845 476.885,672.514 478.848,668.693ZM482.641,672.442C481.461,675.203 480.807,678.242 480.807,681.432C480.807,694.079 491.074,704.346 503.721,704.346C507.008,704.346 510.135,703.652 512.962,702.403L482.641,672.442ZM485.237,660.482C490.165,656.131 496.637,653.489 503.721,653.489C519.143,653.489 531.664,666.01 531.664,681.432C531.664,688.397 529.111,694.77 524.89,699.665L521.302,696.12C524.63,692.142 526.634,687.019 526.634,681.432C526.634,668.786 516.367,658.519 503.721,658.519C498.036,658.519 492.831,660.594 488.825,664.027L485.237,660.482ZM517.377,684.613L509.657,684.613L500.829,675.889L500.829,668.065C500.829,666.582 502.033,665.379 503.515,665.379C504.998,665.379 506.201,666.582 506.201,668.065L506.201,679.24L517.377,679.24C518.86,679.241 520.063,680.444 520.063,681.926C520.063,683.409 518.86,684.612 517.377,684.613Z" style="fill:white;"/>
        </g>
    </g>
</svg>
