<?xml version="1.0" encoding="UTF-8" standalone="no"?>
<!DOCTYPE svg PUBLIC "-//W3C//DTD SVG 1.1//EN" "http://www.w3.org/Graphics/SVG/1.1/DTD/svg11.dtd">
<svg width="100%" height="100%" viewBox="0 0 474 542" version="1.1" xmlns="http://www.w3.org/2000/svg" xmlns:xlink="http://www.w3.org/1999/xlink" xml:space="preserve" style="fill-rule:evenodd;clip-rule:evenodd;stroke-linejoin:round;stroke-miterlimit:1.41421;">
    <g transform="matrix(1,0,0,1,-63,-29)">
        <g id="Timer" transform="matrix(8.46913,0,0,8.46913,-4838.32,-5463.28)">
            <path d="M627.003,665.307C631.745,670.315 634.655,677.076 634.655,684.511C634.655,699.933 622.134,712.454 606.712,712.454C591.289,712.454 578.768,699.933 578.768,684.511C578.768,669.088 591.289,656.567 606.712,656.567C612.751,656.567 618.345,658.487 622.917,661.75L626.431,658.326C627.498,657.287 629.225,657.293 630.285,658.34C631.345,659.388 631.339,661.082 630.272,662.122L627.003,665.307ZM606.712,661.597C619.358,661.597 629.625,671.864 629.625,684.511C629.625,697.157 619.358,707.424 606.712,707.424C594.065,707.424 583.798,697.157 583.798,684.511C583.798,671.864 594.065,661.597 606.712,661.597ZM620.368,687.691L606.506,687.691C605.766,687.691 605.095,687.391 604.609,686.906L604.607,686.904C604.607,686.904 604.605,686.901 604.605,686.901C604.12,686.415 603.82,685.745 603.82,685.005L603.82,671.143C603.82,669.66 605.023,668.457 606.506,668.457C607.988,668.457 609.192,669.66 609.192,671.143L609.192,682.319L620.368,682.319C621.85,682.319 623.054,683.522 623.054,685.005C623.054,686.487 621.85,687.691 620.368,687.691ZM613.629,648.554C615.119,648.554 616.329,649.764 616.329,651.254C616.329,652.744 615.119,653.954 613.629,653.954L599.795,653.954C598.305,653.954 597.095,652.744 597.095,651.254C597.095,649.764 598.305,648.554 599.795,648.554L613.629,648.554Z" style="fill:white;"/>
        </g>
    </g>
</svg>
