<?xml version="1.0" encoding="UTF-8" standalone="no"?>
<!DOCTYPE svg PUBLIC "-//W3C//DTD SVG 1.1//EN" "http://www.w3.org/Graphics/SVG/1.1/DTD/svg11.dtd">
<svg width="100%" height="100%" viewBox="0 0 501 508" version="1.1" xmlns="http://www.w3.org/2000/svg" xmlns:xlink="http://www.w3.org/1999/xlink" xml:space="preserve" style="fill-rule:evenodd;clip-rule:evenodd;stroke-linejoin:round;stroke-miterlimit:1.41421;">
    <g transform="matrix(1,0,0,1,-63,-63)">
        <g id="Time-Amount-Icon" transform="matrix(1.17188,0,0,1.17188,0,0)">
            <path d="M370.912,269.08C431.75,269.08 481.07,317.816 481.07,377.936C481.07,438.057 431.75,486.793 370.912,486.793C310.073,486.793 260.752,438.057 260.752,377.936C260.752,317.816 310.073,269.08 370.912,269.08ZM255.703,457.946C144.382,457.786 54.054,367.358 54.054,256C54.054,144.543 144.543,54.054 256,54.054C367.457,54.054 457.946,144.543 457.946,256C457.946,259.922 457.834,263.819 457.613,267.686C446.714,259.1 434.513,252.094 421.356,247.016C416.683,159.792 344.381,90.404 256,90.404C164.605,90.404 90.404,164.605 90.404,256C90.404,341.049 154.659,411.209 237.231,420.542C241.523,434.004 247.795,446.586 255.703,457.946ZM257.487,278.983L157.308,278.983C146.593,278.982 137.895,270.284 137.895,259.57C137.895,248.857 146.592,240.159 157.308,240.158L238.075,240.158L238.075,159.391C238.075,148.677 246.773,139.979 257.487,139.979C268.201,139.979 276.899,148.677 276.899,159.391L276.899,259.57C276.899,264.919 274.732,269.765 271.228,273.277C271.228,273.277 271.211,273.294 271.211,273.294L271.194,273.311C267.682,276.815 262.836,278.982 257.487,278.983Z" style="fill:white;"/>
        </g>
    </g>
</svg>
