<?xml version="1.0" encoding="UTF-8" standalone="no"?>
<!DOCTYPE svg PUBLIC "-//W3C//DTD SVG 1.1//EN" "http://www.w3.org/Graphics/SVG/1.1/DTD/svg11.dtd">
<svg width="100%" height="100%" viewBox="0 0 580 461" version="1.1" xmlns="http://www.w3.org/2000/svg" xmlns:xlink="http://www.w3.org/1999/xlink" xml:space="preserve" style="fill-rule:evenodd;clip-rule:evenodd;stroke-linejoin:round;stroke-miterlimit:1.41421;">
    <g transform="matrix(1,0,0,1,-10,-69)">
        <g id="Torso-Icon" transform="matrix(2.11711,0,0,2.11711,-1999.55,-1241.99)">
            <path d="M1008.84,789.218C1016.28,773.488 1022.76,734.716 1022.76,734.716C1022.76,734.716 1065.23,737.583 1068.79,682.431C1075.03,685.92 1084.48,698.055 1086.37,698.428C1088.26,698.055 1097.71,685.92 1103.94,682.431C1107.5,737.583 1149.98,734.716 1149.98,734.716C1149.98,734.716 1156.46,773.488 1163.9,789.218C1156.67,816.346 1086.37,836.815 1086.37,836.815C1086.37,836.815 1016.07,816.346 1008.84,789.218ZM998.773,743.296C984.687,731.915 964.187,725.559 949.694,731.67C948.817,719.368 959.448,686.058 965.949,682.658C985.522,683.74 996.636,726.799 1005.55,734.111L998.773,743.296ZM1173.96,743.296C1188.05,731.915 1208.55,725.559 1223.04,731.67C1223.92,719.368 1213.29,686.058 1206.79,682.658C1187.21,683.74 1176.1,726.799 1167.19,734.111L1173.96,743.296ZM1018.91,640.151C996.434,638.44 972.973,657.042 968.858,671.983C984.881,668.16 999.805,702.863 1009.15,722.927C1023.97,724.068 1057.15,723.958 1057.79,678.827C1050.21,668.007 1019.79,655.341 1018.91,640.151ZM1153.82,640.151C1176.3,638.44 1199.76,657.042 1203.88,671.983C1187.86,668.16 1172.93,702.863 1163.58,722.927C1148.76,724.068 1115.58,723.958 1114.95,678.827C1122.53,668.007 1152.95,655.341 1153.82,640.151ZM1086.43,646.28L1119.42,619.562L1139.27,634.096C1139.27,634.096 1128.16,657.627 1101.31,665.959C1092.06,668.829 1087.1,679.738 1087.05,679.614C1087,679.738 1080.74,668.846 1071.43,665.959C1044.58,657.627 1033.47,634.096 1033.47,634.096L1053.31,619.562L1086.43,646.28Z" style="fill:white;"/>
        </g>
    </g>
</svg>
