<?xml version="1.0" encoding="UTF-8" standalone="no"?>
<!DOCTYPE svg PUBLIC "-//W3C//DTD SVG 1.1//EN" "http://www.w3.org/Graphics/SVG/1.1/DTD/svg11.dtd">
<svg width="100%" height="100%" viewBox="0 0 383 544" version="1.1" xmlns="http://www.w3.org/2000/svg" xmlns:xlink="http://www.w3.org/1999/xlink" xml:space="preserve" style="fill-rule:evenodd;clip-rule:evenodd;stroke-linejoin:round;stroke-miterlimit:1.41421;">
    <g transform="matrix(1,0,0,1,-108,-28)">
        <g id="Train-Icon" transform="matrix(8.43445,0,0,8.43445,-16390.9,-7955.12)">
            <path d="M1969.63,1005.14C1970.44,1005.14 1971.09,1005.79 1971.09,1006.59L1971.09,1009.5C1971.09,1010.31 1970.44,1010.96 1969.63,1010.96L1963.12,1010.96C1962.32,1010.96 1961.66,1010.31 1961.66,1009.5L1961.66,1006.59C1961.66,1005.79 1962.32,1005.14 1963.12,1005.14L1969.63,1005.14ZM1994.57,1005.14C1995.38,1005.14 1996.03,1005.79 1996.03,1006.59L1996.03,1009.5C1996.03,1010.31 1995.38,1010.96 1994.57,1010.96L1988.06,1010.96C1987.26,1010.96 1986.6,1010.31 1986.6,1009.5L1986.6,1006.59C1986.6,1005.79 1987.26,1005.14 1988.06,1005.14L1994.57,1005.14ZM1991.68,1003.77L1966.01,1003.77C1960.58,1003.77 1956.18,999.361 1956.18,993.931L1956.18,959.512C1956.18,954.082 1960.58,949.674 1966.01,949.674L1969.34,949.674L1969.34,949.402C1969.34,947.809 1970.63,946.516 1972.23,946.516L1985.47,946.516C1987.06,946.516 1988.35,947.809 1988.35,949.402L1988.35,949.674L1991.68,949.674C1997.11,949.674 2001.52,954.082 2001.52,959.512L2001.52,993.931C2001.52,999.361 1997.11,1003.77 1991.68,1003.77ZM1966.74,985.057C1969.03,985.057 1970.9,986.919 1970.9,989.211C1970.9,991.504 1969.03,993.366 1966.74,993.366C1964.45,993.366 1962.59,991.504 1962.59,989.211C1962.59,986.919 1964.45,985.057 1966.74,985.057ZM1990.95,985.057C1993.25,985.057 1995.11,986.919 1995.11,989.211C1995.11,991.504 1993.25,993.366 1990.95,993.366C1988.66,993.366 1986.8,991.504 1986.8,989.211C1986.8,986.919 1988.66,985.057 1990.95,985.057ZM1990.96,959.468L1966.73,959.468C1963.97,959.468 1961.72,961.711 1961.72,964.474L1961.72,974.486C1961.72,977.249 1963.97,979.492 1966.73,979.492L1990.96,979.492C1993.73,979.492 1995.97,977.249 1995.97,974.486L1995.97,964.474C1995.97,961.711 1993.73,959.468 1990.96,959.468ZM1982.44,948.577L1975.25,948.577C1974.47,948.577 1973.84,949.211 1973.84,949.992C1973.84,950.773 1974.47,951.407 1975.25,951.407L1982.44,951.407C1983.22,951.407 1983.86,950.773 1983.86,949.992C1983.86,949.211 1983.22,948.577 1982.44,948.577Z" style="fill:white;"/>
        </g>
    </g>
</svg>
