<?xml version="1.0" encoding="UTF-8" standalone="no"?>
<!DOCTYPE svg PUBLIC "-//W3C//DTD SVG 1.1//EN" "http://www.w3.org/Graphics/SVG/1.1/DTD/svg11.dtd">
<svg width="100%" height="100%" viewBox="0 0 415 538" version="1.1" xmlns="http://www.w3.org/2000/svg" xmlns:xlink="http://www.w3.org/1999/xlink" xml:space="preserve" style="fill-rule:evenodd;clip-rule:evenodd;stroke-linejoin:round;stroke-miterlimit:1.41421;">
    <g transform="matrix(1,0,0,1,-92,-31)">
        <g id="Tree-Icon" transform="matrix(8.38451,0,0,8.38451,-8333.39,-11241.6)">
            <path d="M1031.74,1408.56L1027.53,1408.56C1026.37,1408.56 1025.42,1407.62 1025.42,1406.46L1025.42,1395.54L1033.84,1395.54L1033.84,1406.46C1033.84,1407.62 1032.9,1408.56 1031.74,1408.56ZM1041.03,1393.51L1018.23,1393.51C1010.89,1393.51 1004.94,1387.55 1004.94,1380.21C1004.94,1375.23 1007.67,1370.89 1011.73,1368.61C1010.95,1367.15 1010.5,1365.48 1010.5,1363.71C1010.5,1358.51 1014.34,1354.19 1019.34,1353.43C1020.06,1348.39 1024.39,1344.51 1029.63,1344.51C1034.87,1344.51 1039.21,1348.39 1039.93,1353.43C1044.93,1354.19 1048.76,1358.51 1048.76,1363.71C1048.76,1365.48 1048.32,1367.15 1047.54,1368.61C1051.59,1370.89 1054.33,1375.23 1054.33,1380.21C1054.33,1387.55 1048.37,1393.51 1041.03,1393.51Z" style="fill:white;"/>
        </g>
    </g>
</svg>
