<?xml version="1.0" encoding="UTF-8" standalone="no"?>
<!DOCTYPE svg PUBLIC "-//W3C//DTD SVG 1.1//EN" "http://www.w3.org/Graphics/SVG/1.1/DTD/svg11.dtd">
<svg width="100%" height="100%" viewBox="0 0 528 556" version="1.1" xmlns="http://www.w3.org/2000/svg" xmlns:xlink="http://www.w3.org/1999/xlink" xml:space="preserve" style="fill-rule:evenodd;clip-rule:evenodd;stroke-linejoin:round;stroke-miterlimit:1.41421;">
    <g transform="matrix(1,0,0,1,-36,-22)">
        <g id="TV-Icon" transform="matrix(8.51788,0,0,8.51788,-17444.6,-1300.58)">
            <path d="M2068,168.913C2068.08,167.14 2069.56,165.723 2071.37,165.723L2074.53,165.723L2065.98,157.278C2065.52,156.827 2065.52,156.095 2065.98,155.644C2066.44,155.193 2067.18,155.193 2067.63,155.644L2077.84,165.723L2088.61,165.723L2098.81,155.644C2099.26,155.193 2100.01,155.193 2100.46,155.644C2100.92,156.095 2100.92,156.827 2100.46,157.278L2091.92,165.723L2095.07,165.723C2096.88,165.723 2098.36,167.14 2098.44,168.913L2110.64,168.913C2112.61,168.913 2114.21,170.495 2114.21,172.443L2114.21,213.047C2114.21,214.996 2112.61,216.577 2110.64,216.577L2108.81,216.577L2108.81,217.679C2108.81,219.243 2107.53,220.512 2105.95,220.512C2104.36,220.512 2103.08,219.243 2103.08,217.679L2103.08,216.577L2063.37,216.577L2063.37,217.679C2063.37,219.243 2062.08,220.512 2060.5,220.512C2058.92,220.512 2057.63,219.243 2057.63,217.679L2057.63,216.577L2055.81,216.577C2053.84,216.577 2052.23,214.996 2052.23,213.047L2052.23,172.443C2052.23,170.495 2053.83,168.913 2055.81,168.913L2068,168.913ZM2104.9,174.626L2057.78,174.626L2057.78,208.791L2104.9,208.791L2104.9,174.626ZM2109.57,193.131C2110.94,193.131 2112.06,194.231 2112.06,195.586C2112.06,196.94 2110.94,198.04 2109.57,198.04C2108.2,198.04 2107.09,196.94 2107.09,195.586C2107.09,194.231 2108.2,193.131 2109.57,193.131ZM2109.57,185.133C2110.94,185.133 2112.06,186.233 2112.06,187.587C2112.06,188.942 2110.94,190.042 2109.57,190.042C2108.2,190.042 2107.09,188.942 2107.09,187.587C2107.09,186.233 2108.2,185.133 2109.57,185.133ZM2109.57,177.134C2110.94,177.134 2112.06,178.234 2112.06,179.589C2112.06,180.944 2110.94,182.044 2109.57,182.044C2108.2,182.044 2107.09,180.944 2107.09,179.589C2107.09,178.234 2108.2,177.134 2109.57,177.134Z" style="fill:white;"/>
        </g>
    </g>
</svg>
