<?xml version="1.0" encoding="UTF-8" standalone="no"?>
<!DOCTYPE svg PUBLIC "-//W3C//DTD SVG 1.1//EN" "http://www.w3.org/Graphics/SVG/1.1/DTD/svg11.dtd">
<svg width="100%" height="100%" viewBox="0 0 563 384" version="1.1" xmlns="http://www.w3.org/2000/svg" xmlns:xlink="http://www.w3.org/1999/xlink" xml:space="preserve" style="fill-rule:evenodd;clip-rule:evenodd;stroke-linejoin:round;stroke-miterlimit:1.41421;">
    <g transform="matrix(1,0,0,1,-18,-108)">
        <g id="Ufo-Icon" transform="matrix(8.32975,0,0,8.32975,-17912.7,-1244.59)">
            <path d="M2204.36,199.725C2201.14,204.893 2194.31,208.461 2186.41,208.461C2178.51,208.461 2171.68,204.893 2168.46,199.725C2173.66,200.66 2179.82,201.2 2186.41,201.2C2193.01,201.2 2199.16,200.66 2204.36,199.725ZM2166.53,178.863C2166.5,178.527 2166.49,178.187 2166.49,177.845C2166.49,169.321 2175.41,162.4 2186.41,162.4C2197.41,162.4 2206.34,169.321 2206.34,177.845C2206.34,178.187 2206.32,178.527 2206.29,178.863C2214.68,180.612 2220.13,183.438 2220.13,186.624C2220.13,191.928 2205.02,196.235 2186.41,196.235C2167.8,196.235 2152.69,191.928 2152.69,186.624C2152.69,183.438 2158.14,180.612 2166.53,178.863ZM2186.41,177.762C2188.35,177.762 2189.93,179.339 2189.93,181.281C2189.93,183.223 2188.35,184.799 2186.41,184.799C2184.47,184.799 2182.89,183.223 2182.89,181.281C2182.89,179.339 2184.47,177.762 2186.41,177.762ZM2175.12,176.337C2177.06,176.337 2178.63,177.914 2178.63,179.856C2178.63,181.798 2177.06,183.374 2175.12,183.374C2173.17,183.374 2171.6,181.798 2171.6,179.856C2171.6,177.914 2173.17,176.337 2175.12,176.337ZM2197.7,176.337C2199.65,176.337 2201.22,177.914 2201.22,179.856C2201.22,181.798 2199.65,183.374 2197.7,183.374C2195.76,183.374 2194.19,181.798 2194.19,179.856C2194.19,177.914 2195.76,176.337 2197.7,176.337Z" style="fill:white;"/>
        </g>
    </g>
</svg>
