<?xml version="1.0" encoding="UTF-8" standalone="no"?>
<!DOCTYPE svg PUBLIC "-//W3C//DTD SVG 1.1//EN" "http://www.w3.org/Graphics/SVG/1.1/DTD/svg11.dtd">
<svg width="100%" height="100%" viewBox="0 0 562 492" version="1.1" xmlns="http://www.w3.org/2000/svg" xmlns:xlink="http://www.w3.org/1999/xlink" xml:space="preserve" style="fill-rule:evenodd;clip-rule:evenodd;stroke-linejoin:round;stroke-miterlimit:1.41421;">
    <g transform="matrix(1,0,0,1,-19,-54)">
        <g id="User-Move-Right-Icon" transform="matrix(1.17188,0,0,1.17188,0,0)">
            <path d="M217.711,339.709C179.157,336.678 143.216,313.188 118.839,277.147C56.861,304.74 20.709,354.487 16.514,397.09C11.903,443.92 67.512,462.346 211.442,465.389C216.186,465.489 220.888,465.523 225.546,465.492C230.204,465.523 234.907,465.489 239.65,465.389C253.652,465.093 266.818,464.651 279.175,464.051C241.806,435.809 217.703,391.293 217.703,341.217C217.703,340.714 217.705,340.212 217.711,339.709ZM374.103,221.01C306.921,221.01 252.458,274.828 252.458,341.217C252.458,407.607 306.921,461.424 374.103,461.424C441.286,461.424 495.749,407.607 495.749,341.217C495.749,274.828 441.286,221.01 374.103,221.01ZM383.594,323.841L362.169,302.757C355.077,295.774 355.077,284.463 362.169,277.479C369.26,270.496 380.757,270.496 387.848,277.479L438.433,327.269C442.284,331.063 443.92,336.123 443.568,341.074C443.827,345.954 442.22,350.9 438.433,354.627L387.848,404.417C380.757,411.401 369.26,411.401 362.169,404.417C355.077,397.438 355.077,386.118 362.169,379.144L383.594,358.055L321.817,358.055C312.166,358.002 304.44,350.363 304.44,340.951C304.44,331.534 312.166,323.895 321.817,323.841L383.594,323.841ZM333.466,191.937C334.247,185.382 334.653,178.662 334.653,171.807C334.653,99.362 307.865,46.628 224.675,46.497C141.485,46.366 114.692,99.362 114.692,171.807C114.692,247.924 164.706,307.321 220.924,309.863C232.858,252.631 276.813,206.958 333.466,191.937Z" style="fill:white;"/>
        </g>
    </g>
</svg>
