<?xml version="1.0" encoding="UTF-8" standalone="no"?>
<!DOCTYPE svg PUBLIC "-//W3C//DTD SVG 1.1//EN" "http://www.w3.org/Graphics/SVG/1.1/DTD/svg11.dtd">
<svg width="100%" height="100%" viewBox="0 0 562 492" version="1.1" xmlns="http://www.w3.org/2000/svg" xmlns:xlink="http://www.w3.org/1999/xlink" xml:space="preserve" style="fill-rule:evenodd;clip-rule:evenodd;stroke-linejoin:round;stroke-miterlimit:1.41421;">
    <g transform="matrix(1,0,0,1,-19,-54)">
        <g id="User-Minus-Icon-Left" transform="matrix(7.95373,0,0,7.95373,-7895.88,-2770.31)">
            <path d="M1036.09,398.354C1041.77,397.908 1047.06,394.447 1050.65,389.137C1059.79,393.202 1065.11,400.532 1065.73,406.809C1066.41,413.708 1058.22,416.423 1037.01,416.871C1036.31,416.886 1035.62,416.891 1034.93,416.887C1034.25,416.891 1033.55,416.886 1032.85,416.871C1030.79,416.828 1028.85,416.763 1027.03,416.674C1032.54,412.513 1036.09,405.954 1036.09,398.576C1036.09,398.502 1036.09,398.428 1036.09,398.354ZM1013.04,380.866C1022.94,380.866 1030.97,388.795 1030.97,398.576C1030.97,408.358 1022.94,416.287 1013.04,416.287C1003.15,416.287 995.121,408.358 995.121,398.576C995.121,388.795 1003.15,380.866 1013.04,380.866ZM1020.72,396L1005.37,396C1003.94,396 1002.79,397.154 1002.79,398.576C1002.79,399.999 1003.94,401.153 1005.37,401.153L1020.72,401.153C1022.15,401.153 1023.3,399.999 1023.3,398.576C1023.3,397.154 1022.15,396 1020.72,396ZM1019.03,376.582C1018.92,375.616 1018.86,374.626 1018.86,373.616C1018.86,362.942 1022.8,355.173 1035.06,355.153C1047.32,355.134 1051.27,362.942 1051.27,373.616C1051.27,384.831 1043.9,393.582 1035.61,393.957C1033.86,385.524 1027.38,378.795 1019.03,376.582Z" style="fill:white;"/>
        </g>
    </g>
</svg>
