<?xml version="1.0" encoding="UTF-8" standalone="no"?>
<!DOCTYPE svg PUBLIC "-//W3C//DTD SVG 1.1//EN" "http://www.w3.org/Graphics/SVG/1.1/DTD/svg11.dtd">
<svg width="100%" height="100%" viewBox="0 0 562 492" version="1.1" xmlns="http://www.w3.org/2000/svg" xmlns:xlink="http://www.w3.org/1999/xlink" xml:space="preserve" style="fill-rule:evenodd;clip-rule:evenodd;stroke-linejoin:round;stroke-miterlimit:1.41421;">
    <g transform="matrix(1,0,0,1,-19,-54)">
        <g id="User-Question-Icon" transform="matrix(7.95373,0,0,7.95373,-5383.83,-2770.31)">
            <path d="M720.254,398.354C725.934,397.908 731.229,394.447 734.821,389.137C743.953,393.202 749.279,400.532 749.897,406.809C750.577,413.708 742.383,416.423 721.177,416.871C720.478,416.886 719.785,416.891 719.099,416.887C718.413,416.891 717.72,416.886 717.021,416.871C714.958,416.828 713.018,416.763 711.198,416.674C716.703,412.513 720.255,405.954 720.255,398.576C720.255,398.502 720.254,398.428 720.254,398.354ZM697.211,380.866C707.11,380.866 715.134,388.795 715.134,398.576C715.134,408.358 707.11,416.287 697.211,416.287C687.313,416.287 679.288,408.358 679.288,398.576C679.288,388.795 687.313,380.866 697.211,380.866ZM694.296,406.999C694.296,406.648 694.362,406.321 694.494,406.018C694.626,405.715 694.814,405.454 695.058,405.234C695.302,405.014 695.59,404.841 695.922,404.714C696.254,404.587 696.625,404.524 697.035,404.524C697.446,404.524 697.817,404.587 698.149,404.714C698.481,404.841 698.769,405.014 699.013,405.234C699.257,405.454 699.445,405.715 699.577,406.018C699.709,406.321 699.775,406.648 699.775,406.999C699.775,407.351 699.709,407.678 699.577,407.981C699.445,408.283 699.257,408.545 699.013,408.764C698.769,408.984 698.481,409.157 698.149,409.284C697.817,409.411 697.446,409.475 697.035,409.475C696.625,409.475 696.254,409.411 695.922,409.284C695.59,409.157 695.302,408.984 695.058,408.764C694.814,408.545 694.626,408.283 694.494,407.981C694.362,407.678 694.296,407.351 694.296,406.999ZM699.086,402.546C699.096,402.165 699.128,401.816 699.181,401.499C699.235,401.181 699.318,400.888 699.43,400.62C699.543,400.351 699.694,400.095 699.885,399.851C700.075,399.607 700.312,399.358 700.595,399.104C701.083,398.655 701.542,398.227 701.972,397.822C702.402,397.417 702.775,396.999 703.093,396.57C703.41,396.14 703.659,395.676 703.84,395.178C704.02,394.68 704.111,394.114 704.111,393.479C704.111,392.532 703.954,391.697 703.642,390.974C703.329,390.251 702.878,389.646 702.287,389.157C701.696,388.669 700.976,388.301 700.126,388.052C699.277,387.802 698.32,387.678 697.255,387.678C696.288,387.678 695.385,387.795 694.545,388.03C693.705,388.264 692.975,388.633 692.355,389.136C691.735,389.638 691.242,390.281 690.876,391.062C690.51,391.843 690.322,392.781 690.312,393.874L695.263,393.874C695.273,393.454 695.336,393.093 695.453,392.79C695.571,392.488 695.72,392.241 695.9,392.051C696.081,391.86 696.288,391.719 696.523,391.626C696.757,391.533 697.001,391.487 697.255,391.487C697.89,391.487 698.366,391.665 698.683,392.021C699.001,392.378 699.159,392.937 699.159,393.698C699.159,394.314 698.962,394.88 698.566,395.398C698.171,395.915 697.631,396.457 696.948,397.024C696.547,397.365 696.215,397.724 695.951,398.1C695.688,398.476 695.478,398.886 695.322,399.331C695.165,399.775 695.055,400.261 694.992,400.788C694.929,401.316 694.897,401.902 694.897,402.546L699.086,402.546ZM703.199,376.582C703.084,375.616 703.024,374.626 703.024,373.616C703.024,362.942 706.971,355.173 719.228,355.153C731.485,355.134 735.432,362.942 735.432,373.616C735.432,384.831 728.063,393.582 719.78,393.957C718.022,385.524 711.546,378.795 703.199,376.582Z" style="fill:white;"/>
        </g>
    </g>
</svg>
