<?xml version="1.0" encoding="UTF-8" standalone="no"?>
<!DOCTYPE svg PUBLIC "-//W3C//DTD SVG 1.1//EN" "http://www.w3.org/Graphics/SVG/1.1/DTD/svg11.dtd">
<svg width="100%" height="100%" viewBox="0 0 560 560" version="1.1" xmlns="http://www.w3.org/2000/svg" xmlns:xlink="http://www.w3.org/1999/xlink" xml:space="preserve" style="fill-rule:evenodd;clip-rule:evenodd;stroke-linejoin:round;stroke-miterlimit:1.41421;">
    <g transform="matrix(1,0,0,1,-20,-20)">
        <g id="User-Icon" transform="matrix(9.05328,0,0,9.05328,-3310.26,-3194.75)">
            <path d="M414.52,389.128C423.637,393.208 428.959,400.534 429.577,406.809C430.257,413.708 422.064,416.423 400.857,416.871C400.158,416.886 399.466,416.891 398.779,416.887C398.093,416.891 397.4,416.886 396.701,416.871C375.495,416.423 367.302,413.708 367.981,406.809C368.596,400.568 373.864,393.287 382.891,389.194C386.754,394.856 392.553,398.404 398.683,398.404C404.836,398.404 410.657,394.828 414.52,389.128ZM398.908,393.969C390.403,393.969 382.704,385.08 382.704,373.616C382.704,362.942 386.651,355.173 398.908,355.153C411.165,355.134 415.112,362.942 415.112,373.616C415.112,385.08 407.413,393.969 398.908,393.969Z" style="fill:white;"/>
        </g>
    </g>
</svg>
