<?xml version="1.0" encoding="UTF-8" standalone="no"?>
<!DOCTYPE svg PUBLIC "-//W3C//DTD SVG 1.1//EN" "http://www.w3.org/Graphics/SVG/1.1/DTD/svg11.dtd">
<svg width="100%" height="100%" viewBox="0 0 562 492" version="1.1" xmlns="http://www.w3.org/2000/svg" xmlns:xlink="http://www.w3.org/1999/xlink" xml:space="preserve" style="fill-rule:evenodd;clip-rule:evenodd;stroke-linejoin:round;stroke-miterlimit:1.41421;">
    <g transform="matrix(1,0,0,1,-19,-54)">
        <g id="User-Plus-Icon-Right" transform="matrix(-7.95373,0,0,7.95373,7658.53,-2770.31)">
            <path d="M930.809,398.354C936.489,397.908 941.785,394.447 945.376,389.137C954.508,393.202 959.834,400.532 960.452,406.809C961.132,413.708 952.939,416.423 931.732,416.871C931.034,416.886 930.341,416.891 929.654,416.887C928.968,416.891 928.275,416.886 927.576,416.871C925.513,416.828 923.574,416.763 921.753,416.674C927.259,412.513 930.81,405.954 930.81,398.576C930.81,398.502 930.81,398.428 930.809,398.354ZM907.767,380.866C917.665,380.866 925.689,388.795 925.689,398.576C925.689,408.358 917.665,416.287 907.767,416.287C897.868,416.287 889.844,408.358 889.844,398.576C889.844,388.795 897.868,380.866 907.767,380.866ZM905.166,401.146L905.166,406.133C905.166,407.551 906.331,408.702 907.767,408.702C909.202,408.702 910.367,407.551 910.367,406.133L910.367,401.146L915.413,401.146C916.849,401.146 918.014,399.995 918.014,398.576C918.014,397.158 916.849,396.007 915.413,396.007L910.367,396.007L910.367,391.02C910.367,389.602 909.202,388.45 907.767,388.45C906.331,388.45 905.166,389.602 905.166,391.02L905.166,396.007L900.12,396.007C898.684,396.007 897.519,397.158 897.519,398.576C897.519,399.995 898.684,401.146 900.12,401.146L905.166,401.146ZM913.754,376.582C913.639,375.616 913.579,374.626 913.579,373.616C913.579,362.942 917.526,355.173 929.783,355.153C942.04,355.134 945.987,362.942 945.987,373.616C945.987,384.831 938.619,393.582 930.335,393.957C928.577,385.524 922.101,378.795 913.754,376.582Z" style="fill:white;"/>
        </g>
    </g>
</svg>
