<?xml version="1.0" encoding="UTF-8" standalone="no"?>
<!DOCTYPE svg PUBLIC "-//W3C//DTD SVG 1.1//EN" "http://www.w3.org/Graphics/SVG/1.1/DTD/svg11.dtd">
<svg width="100%" height="100%" viewBox="0 0 562 492" version="1.1" xmlns="http://www.w3.org/2000/svg" xmlns:xlink="http://www.w3.org/1999/xlink" xml:space="preserve" style="fill-rule:evenodd;clip-rule:evenodd;stroke-linejoin:round;stroke-miterlimit:1.41421;">
    <g transform="matrix(1,0,0,1,-19,-54)">
        <g id="User-Move-Left-Icon" transform="matrix(7.95373,0,0,7.95373,-3709.13,-2770.31)">
            <path d="M509.698,398.354C515.379,397.908 520.674,394.447 524.266,389.137C533.397,393.202 538.724,400.532 539.342,406.809C540.021,413.708 531.828,416.423 510.622,416.871C509.923,416.886 509.23,416.891 508.544,416.887C507.858,416.891 507.165,416.886 506.466,416.871C504.403,416.828 502.463,416.763 500.642,416.674C506.148,412.513 509.699,405.954 509.699,398.576C509.699,398.502 509.699,398.428 509.698,398.354ZM486.656,380.866C496.554,380.866 504.579,388.795 504.579,398.576C504.579,408.358 496.554,416.287 486.656,416.287C476.758,416.287 468.733,408.358 468.733,398.576C468.733,388.795 476.758,380.866 486.656,380.866ZM485.258,396.016L488.414,392.91C489.459,391.881 489.459,390.214 488.414,389.185C487.37,388.157 485.676,388.157 484.631,389.185L477.178,396.521C476.611,397.08 476.369,397.826 476.421,398.555C476.383,399.274 476.62,400.003 477.178,400.552L484.631,407.888C485.676,408.917 487.37,408.917 488.414,407.888C489.459,406.86 489.459,405.192 488.414,404.164L485.258,401.057L494.36,401.057C495.774,401.057 496.92,399.929 496.92,398.537C496.92,397.145 495.774,396.016 494.36,396.016L485.258,396.016ZM492.643,376.582C492.528,375.616 492.469,374.626 492.469,373.616C492.469,362.942 496.415,355.173 508.672,355.153C520.929,355.134 524.877,362.942 524.877,373.616C524.877,384.831 517.508,393.582 509.225,393.957C507.467,385.524 500.99,378.795 492.643,376.582Z" style="fill:white;"/>
        </g>
    </g>
</svg>
