<?xml version="1.0" encoding="UTF-8" standalone="no"?>
<!DOCTYPE svg PUBLIC "-//W3C//DTD SVG 1.1//EN" "http://www.w3.org/Graphics/SVG/1.1/DTD/svg11.dtd">
<svg width="100%" height="100%" viewBox="0 0 530 460" version="1.1" xmlns="http://www.w3.org/2000/svg" xmlns:xlink="http://www.w3.org/1999/xlink" xml:space="preserve" style="fill-rule:evenodd;clip-rule:evenodd;stroke-linejoin:round;stroke-miterlimit:1.41421;">
    <g transform="matrix(1,0,0,1,-35,-70)">
        <g id="Velocity-Icon" transform="matrix(8.06783,0,0,8.06783,-5451.96,-7601.89)">
            <path d="M693.308,1006.02L691.442,1007.84C684.499,1001.9 680.104,993.126 680.104,983.345C680.104,965.46 694.799,950.94 712.898,950.94C730.997,950.94 745.691,965.46 745.691,983.345C745.691,993.17 741.256,1001.98 734.258,1007.93L732.162,1005.82C732.078,1005.76 731.997,1005.69 731.92,1005.61L724.748,998.527C723.907,997.696 723.907,996.348 724.748,995.518C725.588,994.688 726.952,994.688 727.792,995.518L733.851,1001.51C737.511,997.285 739.919,991.948 740.492,986.078L730.822,986.078C729.648,986.078 728.695,985.125 728.695,983.951C728.695,982.777 729.648,981.823 730.822,981.823L740.582,981.823C739.831,968.07 729.038,956.972 715.417,955.743L715.417,964.684C715.417,965.872 714.452,966.837 713.264,966.837C712.076,966.837 711.111,965.872 711.111,964.684L711.111,955.687C704.336,956.118 698.219,958.988 693.629,963.427L701.057,967.664C702.08,968.248 702.428,969.547 701.834,970.564C701.24,971.581 699.927,971.932 698.904,971.349L690.742,966.692C687.533,970.951 685.522,976.162 685.213,981.823L694.708,981.823C695.882,981.823 696.835,982.777 696.835,983.951C696.835,985.125 695.882,986.078 694.708,986.078L685.304,986.078C685.877,991.95 688.285,997.288 691.947,1001.51L698.01,995.518C698.851,994.688 700.215,994.688 701.055,995.518C701.895,996.348 701.895,997.696 701.055,998.527L693.882,1005.61C693.71,1005.78 693.516,1005.92 693.308,1006.02ZM708.126,984.267C708.126,984.267 727.818,965.234 729.681,967.075C731.544,968.915 712.283,988.375 712.283,988.375C711.136,989.508 709.273,989.508 708.126,988.375C706.979,987.241 706.979,985.4 708.126,984.267Z" style="fill:white;"/>
        </g>
    </g>
</svg>
