<?xml version="1.0" encoding="UTF-8" standalone="no"?>
<!DOCTYPE svg PUBLIC "-//W3C//DTD SVG 1.1//EN" "http://www.w3.org/Graphics/SVG/1.1/DTD/svg11.dtd">
<svg width="100%" height="100%" viewBox="0 0 584 415" version="1.1" xmlns="http://www.w3.org/2000/svg" xmlns:xlink="http://www.w3.org/1999/xlink" xml:space="preserve" style="fill-rule:evenodd;clip-rule:evenodd;stroke-linejoin:round;stroke-miterlimit:1.41421;">
    <g transform="matrix(1,0,0,1,-8,-8)">
        <path id="Vibration-Icon" d="M500.565,422.117L468.683,389.448C516.198,347.089 546.378,284.832 546.378,215.222C546.378,145.625 516.198,83.361 468.683,41.015L500.565,8.333C556.216,59.114 591.467,132.861 591.467,215.222C591.467,297.589 556.216,371.337 500.565,422.117ZM99.435,422.117L131.317,389.448C83.802,347.089 53.622,284.832 53.622,215.222C53.622,145.625 83.802,83.361 131.317,41.015L99.435,8.333C43.784,59.114 8.533,132.861 8.533,215.222C8.533,297.589 43.784,371.337 99.435,422.117ZM436.801,356.773L404.725,323.912C436.04,298.518 456.197,259.329 456.197,215.222C456.197,171.14 436.04,131.932 404.725,106.545L436.801,73.684C476.198,107.589 501.288,158.389 501.288,215.222C501.288,272.074 476.198,322.887 436.801,356.773ZM163.199,356.773L195.275,323.912C163.96,298.518 143.803,259.329 143.803,215.222C143.803,171.14 163.96,131.932 195.275,106.545L163.199,73.684C123.802,107.589 98.712,158.389 98.712,215.222C98.712,272.074 123.802,322.887 163.199,356.773ZM300,141.661C339.153,141.661 370.94,174.624 370.94,215.225C370.94,255.826 339.153,288.789 300,288.789C260.847,288.789 229.06,255.826 229.06,215.225C229.06,174.624 260.847,141.661 300,141.661Z" style="fill:white;"/>
    </g>
</svg>
