<?xml version="1.0" encoding="UTF-8" standalone="no"?>
<!DOCTYPE svg PUBLIC "-//W3C//DTD SVG 1.1//EN" "http://www.w3.org/Graphics/SVG/1.1/DTD/svg11.dtd">
<svg width="100%" height="100%" viewBox="0 0 542 536" version="1.1" xmlns="http://www.w3.org/2000/svg" xmlns:xlink="http://www.w3.org/1999/xlink" xml:space="preserve" style="fill-rule:evenodd;clip-rule:evenodd;stroke-linejoin:round;stroke-miterlimit:1.41421;">
    <g transform="matrix(1,0,0,1,-29,-32)">
        <g id="Video-Icon" transform="matrix(22.5751,0,0,22.3079,-23787.7,-63009.9)">
            <path d="M1077.5,2850L1056.5,2850C1055.67,2850 1055,2849.33 1055,2848.5L1055,2827.5C1055,2826.67 1055.67,2826 1056.5,2826L1077.5,2826C1078.33,2826 1079,2826.67 1079,2827.5L1079,2848.5C1079,2849.33 1078.33,2850 1077.5,2850ZM1066,2848L1068,2848L1068,2846L1066,2846L1066,2848ZM1071.71,2838.47C1071.89,2838.36 1072,2838.19 1072,2837.98C1072,2837.78 1071.89,2837.6 1071.71,2837.49L1063.88,2833.08C1063.69,2832.97 1063.48,2832.97 1063.29,2833.08C1063.11,2833.18 1063,2833.36 1063,2833.56L1063,2842.4C1063,2842.61 1063.11,2842.78 1063.29,2842.89C1063.48,2842.99 1063.69,2842.99 1063.88,2842.88L1071.71,2838.47ZM1062,2848L1064,2848L1064,2846L1062,2846L1062,2848ZM1060,2828L1058,2828L1058,2830L1060,2830L1060,2828ZM1060,2846L1058,2846L1058,2848L1060,2848L1060,2846ZM1064,2828L1062,2828L1062,2830L1064,2830L1064,2828ZM1068,2828L1066,2828L1066,2830L1068,2830L1068,2828ZM1072,2828L1070,2828L1070,2830L1072,2830L1072,2828ZM1072,2846L1070,2846L1070,2848L1072,2848L1072,2846ZM1076,2828L1074,2828L1074,2830L1076,2830L1076,2828ZM1076,2846L1074,2846L1074,2848L1076,2848L1076,2846Z" style="fill:white;"/>
        </g>
    </g>
</svg>
