<?xml version="1.0" encoding="UTF-8" standalone="no"?>
<!DOCTYPE svg PUBLIC "-//W3C//DTD SVG 1.1//EN" "http://www.w3.org/Graphics/SVG/1.1/DTD/svg11.dtd">
<svg width="100%" height="100%" viewBox="0 0 568 386" version="1.1" xmlns="http://www.w3.org/2000/svg" xmlns:xlink="http://www.w3.org/1999/xlink" xml:space="preserve" style="fill-rule:evenodd;clip-rule:evenodd;stroke-linejoin:round;stroke-miterlimit:1.41421;">
    <g transform="matrix(1,0,0,1,-16,-107)">
        <g id="Video-Camera-Icon" transform="matrix(7.81893,0,0,7.81893,-11872.8,-1169.25)">
            <path d="M1569.79,212.547L1526.95,212.547C1523.42,212.547 1520.56,209.718 1520.56,206.234L1520.56,176.774C1520.56,173.29 1523.42,170.461 1526.95,170.461L1569.79,170.461C1573.31,170.461 1576.18,173.29 1576.18,176.774L1576.18,206.234C1576.18,209.718 1573.31,212.547 1569.79,212.547ZM1578.46,177.845L1590.8,171.849C1591.03,171.717 1591.3,171.641 1591.58,171.641C1592.42,171.641 1593.1,172.318 1593.1,173.151L1593.1,207.575C1593.1,208.408 1592.42,209.084 1591.58,209.084C1591.28,209.084 1591.01,209.002 1590.78,208.861L1578.46,202.877L1578.46,177.845ZM1529.38,175.446C1531.14,175.446 1532.58,176.862 1532.58,178.606C1532.58,180.35 1531.14,181.766 1529.38,181.766C1527.61,181.766 1526.18,180.35 1526.18,178.606C1526.18,176.862 1527.61,175.446 1529.38,175.446ZM1565.59,168.917L1555.04,168.917L1555.04,165.208C1555.04,164.139 1555.92,163.271 1557,163.271L1563.63,163.271C1564.71,163.271 1565.59,164.139 1565.59,165.208L1565.59,168.917Z" style="fill:white;"/>
        </g>
    </g>
</svg>
