<?xml version="1.0" encoding="UTF-8" standalone="no"?>
<!DOCTYPE svg PUBLIC "-//W3C//DTD SVG 1.1//EN" "http://www.w3.org/Graphics/SVG/1.1/DTD/svg11.dtd">
<svg width="100%" height="100%" viewBox="0 0 516 408" version="1.1" xmlns="http://www.w3.org/2000/svg" xmlns:xlink="http://www.w3.org/1999/xlink" xml:space="preserve" style="fill-rule:evenodd;clip-rule:evenodd;stroke-linejoin:round;stroke-miterlimit:1.41421;">
    <g transform="matrix(1,0,0,1,-8,-101)">
        <g id="Volume-Medium-Icon" transform="matrix(17.1607,0,0,16.9576,-8692.17,-59012.8)">
            <path d="M532.968,3506.96L531.554,3505.54C533.661,3503.71 535,3501.01 535,3498C535,3494.99 533.661,3492.29 531.554,3490.46L532.968,3489.05C535.437,3491.24 537,3494.43 537,3498C537,3501.57 535.437,3504.76 532.968,3506.96ZM530.14,3504.13L528.717,3502.7C530.106,3501.61 531,3499.91 531,3498C531,3496.09 530.106,3494.39 528.717,3493.3L530.14,3491.87C531.887,3493.34 533,3495.54 533,3498C533,3500.46 531.887,3502.66 530.14,3504.13ZM525,3509.95C524.25,3509.84 523.573,3509.51 523.056,3509L523,3509L517,3503L510,3503C508.343,3503 507,3501.66 507,3500L507,3496C507,3494.34 508.343,3493 510,3493L517,3493L523,3487L523.056,3487C523.573,3486.49 524.25,3486.16 525,3486.05L525,3486L526,3486L526,3510L525,3510L525,3509.95Z" style="fill:white;"/>
        </g>
    </g>
</svg>
