<?xml version="1.0" encoding="UTF-8" standalone="no"?>
<!DOCTYPE svg PUBLIC "-//W3C//DTD SVG 1.1//EN" "http://www.w3.org/Graphics/SVG/1.1/DTD/svg11.dtd">
<svg width="100%" height="100%" viewBox="0 0 584 408" version="1.1" xmlns="http://www.w3.org/2000/svg" xmlns:xlink="http://www.w3.org/1999/xlink" xml:space="preserve" style="fill-rule:evenodd;clip-rule:evenodd;stroke-linejoin:round;stroke-miterlimit:1.41421;">
    <g transform="matrix(1,0,0,1,-8,-100)">
        <g id="Volume-Max-Icon" transform="matrix(17.1607,0,0,16.9576,-10528.4,-59014)">
            <path d="M642.797,3509.78L641.382,3508.37C644.212,3505.81 646,3502.12 646,3498C646,3493.88 644.212,3490.19 641.382,3487.63L642.797,3486.22C645.987,3489.14 648,3493.33 648,3498C648,3502.67 645.987,3506.86 642.797,3509.78ZM639.968,3506.96L638.554,3505.54C640.662,3503.71 642,3501.01 642,3498C642,3494.99 640.662,3492.29 638.554,3490.46L639.968,3489.05C642.437,3491.24 644,3494.43 644,3498C644,3501.57 642.437,3504.76 639.968,3506.96ZM637.14,3504.13L635.717,3502.7C637.106,3501.61 638,3499.91 638,3498C638,3496.09 637.106,3494.39 635.717,3493.3L637.14,3491.87C638.887,3493.34 640,3495.54 640,3498C640,3500.46 638.887,3502.66 637.14,3504.13ZM632,3509.95C631.25,3509.84 630.573,3509.51 630.056,3509L630,3509L624,3503L617,3503C615.343,3503 614,3501.66 614,3500L614,3496C614,3494.34 615.343,3493 617,3493L624,3493L630,3487L630.056,3487C630.573,3486.49 631.25,3486.16 632,3486.05L632,3486L633,3486L633,3510L632,3510L632,3509.95Z" style="fill:white;"/>
        </g>
    </g>
</svg>
