<?xml version="1.0" encoding="UTF-8" standalone="no"?>
<!DOCTYPE svg PUBLIC "-//W3C//DTD SVG 1.1//EN" "http://www.w3.org/Graphics/SVG/1.1/DTD/svg11.dtd">
<svg width="100%" height="100%" viewBox="0 0 584 408" version="1.1" xmlns="http://www.w3.org/2000/svg" xmlns:xlink="http://www.w3.org/1999/xlink" xml:space="preserve" style="fill-rule:evenodd;clip-rule:evenodd;stroke-linejoin:round;stroke-miterlimit:1.41421;">
    <g transform="matrix(1,0,0,1,-8,-101)">
        <g id="Volume-Off-Icon" transform="matrix(17.1607,0,0,16.9576,-4916.82,-59012.8)">
            <path d="M316.42,3497.99L320.696,3502.27C321.09,3502.66 321.09,3503.3 320.696,3503.7C320.303,3504.09 319.664,3504.09 319.271,3503.7L314.995,3499.42L310.719,3503.7C310.325,3504.09 309.687,3504.09 309.294,3503.7C308.9,3503.3 308.9,3502.66 309.294,3502.27L313.57,3497.99L309.294,3493.72C308.9,3493.33 308.9,3492.69 309.294,3492.29C309.687,3491.9 310.325,3491.9 310.719,3492.29L314.995,3496.57L319.271,3492.29C319.664,3491.9 320.303,3491.9 320.696,3492.29C321.09,3492.69 321.09,3493.33 320.696,3493.72L316.42,3497.99ZM305,3509.95C304.25,3509.84 303.573,3509.51 303.056,3509L303,3509L297,3503L290,3503C288.344,3503 287,3501.66 287,3500L287,3496C287,3494.34 288.344,3493 290,3493L297,3493L303,3487L303.056,3487C303.573,3486.49 304.25,3486.16 305,3486.05L305,3486L306,3486L306,3510L305,3510L305,3509.95Z" style="fill:white;"/>
        </g>
    </g>
</svg>
