<?xml version="1.0" encoding="UTF-8" standalone="no"?>
<!DOCTYPE svg PUBLIC "-//W3C//DTD SVG 1.1//EN" "http://www.w3.org/Graphics/SVG/1.1/DTD/svg11.dtd">
<svg width="100%" height="100%" viewBox="0 0 558 552" version="1.1" xmlns="http://www.w3.org/2000/svg" xmlns:xlink="http://www.w3.org/1999/xlink" xml:space="preserve" style="fill-rule:evenodd;clip-rule:evenodd;stroke-linejoin:round;stroke-miterlimit:1.41421;">
    <g transform="matrix(1,0,0,1,-21,-24)">
        <g id="Wheel-Icon" transform="matrix(8.10641,0,0,8.10641,-13175.1,-10053.8)">
            <path d="M1662.23,1243.29C1681.19,1243.29 1696.58,1258.5 1696.58,1277.24C1696.58,1295.97 1681.19,1311.18 1662.23,1311.18C1643.27,1311.18 1627.88,1295.97 1627.88,1277.24C1627.88,1258.5 1643.27,1243.29 1662.23,1243.29ZM1662.23,1250.08C1677.39,1250.08 1689.71,1262.25 1689.71,1277.24C1689.71,1292.22 1677.39,1304.39 1662.23,1304.39C1647.06,1304.39 1634.75,1292.22 1634.75,1277.24C1634.75,1262.25 1647.06,1250.08 1662.23,1250.08ZM1665.78,1266.46L1673.5,1255.69C1675.93,1256.84 1678.21,1258.4 1680.22,1260.39C1682.11,1262.26 1683.63,1264.37 1684.77,1266.62L1673.04,1273.48C1673.46,1274.66 1673.69,1275.92 1673.69,1277.24C1673.69,1278.55 1673.46,1279.81 1673.04,1280.99L1684.77,1287.85C1683.63,1290.1 1682.11,1292.21 1680.22,1294.08C1678.21,1296.07 1675.93,1297.63 1673.5,1298.78L1665.78,1288C1664.66,1288.37 1663.47,1288.56 1662.23,1288.56C1660.99,1288.56 1659.8,1288.37 1658.68,1288L1650.95,1298.78C1648.53,1297.63 1646.25,1296.07 1644.24,1294.08C1642.34,1292.21 1640.83,1290.1 1639.69,1287.85L1651.41,1280.99C1651,1279.81 1650.77,1278.55 1650.77,1277.24C1650.77,1275.92 1651,1274.66 1651.41,1273.48L1639.69,1266.62C1640.83,1264.37 1642.34,1262.26 1644.24,1260.39C1646.25,1258.4 1648.53,1256.84 1650.95,1255.69L1658.68,1266.46C1659.8,1266.11 1660.99,1265.91 1662.23,1265.91C1663.47,1265.91 1664.66,1266.11 1665.78,1266.46ZM1662.23,1272.92C1664.64,1272.92 1666.6,1274.85 1666.6,1277.24C1666.6,1279.62 1664.64,1281.55 1662.23,1281.55C1659.82,1281.55 1657.86,1279.62 1657.86,1277.24C1657.86,1274.85 1659.82,1272.92 1662.23,1272.92Z" style="fill:white;"/>
        </g>
    </g>
</svg>
