<?xml version="1.0" encoding="UTF-8" standalone="no"?>
<!DOCTYPE svg PUBLIC "-//W3C//DTD SVG 1.1//EN" "http://www.w3.org/Graphics/SVG/1.1/DTD/svg11.dtd">
<svg width="100%" height="100%" viewBox="0 0 563 470" version="1.1" xmlns="http://www.w3.org/2000/svg" xmlns:xlink="http://www.w3.org/1999/xlink" xml:space="preserve" style="fill-rule:evenodd;clip-rule:evenodd;stroke-linejoin:round;stroke-miterlimit:1.41421;">
    <g transform="matrix(1,0,0,1,-18,-65)">
        <g id="Witch-Hat-Icon" transform="matrix(2.67489,0,0,2.64323,-579.865,-1425.39)">
            <path d="M284.82,659.793C297.84,623.941 320.099,565.34 326.943,564.021C336.817,562.117 375.796,596.686 374.761,601.597C373.726,606.508 346.287,606.329 346.287,606.329L369.555,659.221C407.375,665.716 433.952,680.966 433.952,698.726C433.952,722.375 386.825,741.576 328.778,741.576C270.731,741.576 223.605,722.375 223.605,698.726C223.605,681.469 248.699,666.58 284.82,659.793ZM373.867,667.406L379.738,680.231C373.449,686.774 355.734,694.832 328.797,694.832C302.627,694.832 284.194,688.286 277.819,680.999L282.773,667.806C282.773,667.806 296.339,681.861 328.797,680.929C368.261,679.794 373.867,667.406 373.867,667.406Z" style="fill:white;"/>
        </g>
    </g>
</svg>
