<?xml version="1.0" encoding="UTF-8" standalone="no"?>
<!DOCTYPE svg PUBLIC "-//W3C//DTD SVG 1.1//EN" "http://www.w3.org/Graphics/SVG/1.1/DTD/svg11.dtd">
<svg width="100%" height="100%" viewBox="0 0 566 522" version="1.1" xmlns="http://www.w3.org/2000/svg" xmlns:xlink="http://www.w3.org/1999/xlink" xml:space="preserve" style="fill-rule:evenodd;clip-rule:evenodd;stroke-linejoin:round;stroke-miterlimit:1.41421;">
    <g transform="matrix(1,0,0,1,-20,-16)">
        <g id="Zombie-Icon" transform="matrix(3.1202,0,0,3.1202,-871.105,-759.759)">
            <path d="M376.381,248.822C456.637,248.822 466.941,302.948 466.941,349.053C466.941,395.158 426.363,415.895 376.381,415.895C326.4,415.895 285.821,395.158 285.821,349.053C285.821,302.948 296.126,248.822 376.381,248.822ZM389.37,388.385L378.775,388.385L378.775,380.081C378.775,378.779 377.717,377.721 376.415,377.721C375.112,377.721 374.054,378.779 374.054,380.081L374.054,388.385L363.46,388.385L363.46,382.607C363.46,381.304 362.402,380.246 361.099,380.246C359.796,380.246 358.739,381.304 358.739,382.607L358.739,388.385L348.144,388.385L348.144,385.442C348.144,384.139 347.086,383.081 345.784,383.081C344.481,383.081 343.423,384.139 343.423,385.442L343.423,388.385L338.742,388.385C337.439,388.385 336.381,389.442 336.381,390.745C336.381,392.048 337.439,393.105 338.742,393.105L343.423,393.105L343.423,396.048C343.423,397.351 344.481,398.408 345.784,398.408C347.086,398.408 348.144,397.351 348.144,396.048L348.144,393.105L358.739,393.105L358.739,398.883C358.739,400.186 359.796,401.243 361.099,401.243C362.402,401.243 363.46,400.186 363.46,398.883L363.46,393.105L374.054,393.105L374.054,401.408C374.054,402.711 375.112,403.769 376.415,403.769C377.717,403.769 378.775,402.711 378.775,401.408L378.775,393.105L389.37,393.105L389.37,398.883C389.37,400.186 390.427,401.243 391.73,401.243C393.033,401.243 394.09,400.186 394.09,398.883L394.09,393.105L404.685,393.105L404.685,396.048C404.685,397.351 405.743,398.408 407.045,398.408C408.348,398.408 409.406,397.351 409.406,396.048L409.406,393.105L414.021,393.105C415.324,393.105 416.381,392.047 416.381,390.745C416.381,389.442 415.324,388.385 414.021,388.385L409.406,388.385L409.406,385.442C409.406,384.139 408.348,383.081 407.045,383.081C405.743,383.081 404.685,384.139 404.685,385.442L404.685,388.385L394.09,388.385L394.09,382.607C394.09,381.304 393.033,380.246 391.73,380.246C390.427,380.246 389.37,381.304 389.37,382.607L389.37,388.385ZM374.031,350.111C376.012,351.255 376,354.988 374.006,358.442C372.012,361.897 370.138,365.109 365.654,361.34C361.17,357.571 372.05,348.968 374.031,350.111ZM378.732,350.111C376.751,351.255 376.762,354.988 378.757,358.442C380.751,361.897 382.625,365.109 387.109,361.34C391.593,357.571 380.713,348.968 378.732,350.111ZM396.721,307.717C406.803,298.221 425.126,300.937 436,312.482C446.875,324.028 446.805,339.562 436.722,349.058C426.64,358.554 409.053,356.472 398.178,344.926C387.304,333.38 386.639,317.213 396.721,307.717ZM356.042,307.717C345.96,298.221 327.637,300.937 316.762,312.482C305.888,324.028 305.958,339.562 316.04,349.058C326.123,358.554 343.71,356.472 354.584,344.926C365.459,333.38 366.124,317.213 356.042,307.717ZM345.357,277.185L345.962,279.446C346.282,280.639 345.573,281.868 344.379,282.188C343.185,282.508 341.956,281.798 341.636,280.605L341.031,278.345L338.189,279.106C336.995,279.426 335.766,278.716 335.446,277.523C335.126,276.329 335.836,275.1 337.03,274.78L339.872,274.019L339.266,271.759C338.946,270.565 339.656,269.336 340.849,269.016C342.043,268.696 343.272,269.406 343.592,270.599L344.197,272.86L352.769,270.563L351.079,264.259C350.759,263.065 351.469,261.836 352.663,261.516C353.856,261.196 355.085,261.906 355.405,263.1L357.094,269.404L365.666,267.107L365.06,264.847C364.74,263.653 365.45,262.424 366.643,262.105C367.837,261.785 369.066,262.494 369.386,263.688L369.991,265.948L373.805,264.926C374.998,264.606 376.227,265.316 376.547,266.51C376.867,267.703 376.157,268.932 374.964,269.252L371.151,270.274L371.756,272.534C372.076,273.728 371.367,274.957 370.173,275.277C368.979,275.596 367.75,274.887 367.43,273.693L366.825,271.433L358.254,273.73L359.943,280.034C360.263,281.228 359.553,282.457 358.359,282.776C357.166,283.096 355.937,282.387 355.617,281.193L353.928,274.889L345.357,277.185Z" style="fill:white;"/>
        </g>
    </g>
</svg>
